<svg width="28" height="28" viewBox="0 0 28 28" fill="none" xmlns="http://www.w3.org/2000/svg">
<path d="M14 0C6.28043 0 0 6.28043 0 14C0 21.719 6.28043 28 14 28C21.719 28 28 21.719 28 14C28 6.28043 21.7201 0 14 0ZM17.4817 14.4929H15.204V22.6111H11.8289C11.8289 22.6111 11.8289 18.1753 11.8289 14.4929H10.2245V11.6236H11.8289V9.76774C11.8289 8.43857 12.4605 6.36164 15.235 6.36164L17.736 6.37122V9.15645C17.736 9.15645 16.2162 9.15645 15.9207 9.15645C15.6252 9.15645 15.2051 9.3042 15.2051 9.93805V11.6242H17.7766L17.4817 14.4929Z" fill="white"/>
</svg>
