<svg width="28" height="28" viewBox="0 0 28 28" fill="none" xmlns="http://www.w3.org/2000/svg">
<path d="M14 16.9401C15.6237 16.9401 16.94 15.6238 16.94 14.0001C16.94 12.3763 15.6237 11.0601 14 11.0601C12.3763 11.0601 11.06 12.3763 11.06 14.0001C11.06 15.6238 12.3763 16.9401 14 16.9401Z" fill="white"/>
<path d="M14 0C6.26802 0 0 6.26802 0 14C0 21.732 6.26802 28 14 28C21.732 28 28 21.732 28 14C28 6.26802 21.732 0 14 0ZM22.6496 17.5582C22.5824 18.8892 22.2084 20.2018 21.2384 21.1614C20.2591 22.1302 18.9403 22.4912 17.5965 22.5578H10.4036C9.05957 22.4912 7.74099 22.1305 6.76161 21.1614C5.79158 20.2018 5.41761 18.8892 5.35041 17.5582V10.4418C5.41761 9.11075 5.79163 7.79822 6.76161 6.8385C7.74099 5.8697 9.05974 5.50872 10.4036 5.44225H17.5964C18.9404 5.50872 20.259 5.86953 21.2384 6.8385C22.2084 7.79822 22.5824 9.11075 22.6496 10.4418L22.6496 17.5582Z" fill="white"/>
<path d="M17.5056 7.06387C15.7536 7.01582 12.2468 7.01582 10.4948 7.06387C9.58308 7.0889 8.54949 7.31587 7.89989 8.00971C7.22487 8.73093 6.96979 9.60229 6.94392 10.5771C6.89844 12.288 6.94392 17.4232 6.94392 17.4232C6.97354 18.3979 7.22487 19.2693 7.89989 19.9906C8.54949 20.6846 9.58308 20.9114 10.4948 20.9364C12.2468 20.9845 15.7536 20.9845 17.5056 20.9364C18.4173 20.9114 19.4509 20.6844 20.1005 19.9906C20.7755 19.2693 21.0306 18.398 21.0565 17.4232V10.5771C21.0306 9.60229 20.7755 8.73093 20.1005 8.00971C19.4507 7.31564 18.4171 7.0889 17.5056 7.06387V7.06387ZM14 18.5571C13.0987 18.5571 12.2176 18.2899 11.4682 17.7891C10.7188 17.2884 10.1348 16.5767 9.78985 15.744C9.44494 14.9113 9.3547 13.9951 9.53053 13.1111C9.70637 12.2271 10.1404 11.4152 10.7777 10.7779C11.415 10.1405 12.227 9.70653 13.1109 9.5307C13.9949 9.35487 14.9112 9.44511 15.7439 9.79002C16.5765 10.1349 17.2882 10.719 17.789 11.4684C18.2897 12.2178 18.557 13.0989 18.557 14.0001C18.557 15.2087 18.0769 16.3678 17.2223 17.2224C16.3677 18.077 15.2086 18.5571 14 18.5571V18.5571ZM18.5763 10.3838C18.3961 10.3837 18.2199 10.3302 18.0701 10.2301C17.9202 10.1299 17.8034 9.98754 17.7345 9.82099C17.6655 9.65445 17.6475 9.47121 17.6827 9.29443C17.7179 9.11765 17.8047 8.95527 17.9322 8.82784C18.0597 8.7004 18.2221 8.61362 18.3988 8.57847C18.5756 8.54332 18.7589 8.56138 18.9254 8.63037C19.0919 8.69936 19.2343 8.81617 19.3344 8.96605C19.4345 9.11592 19.488 9.29212 19.488 9.47237C19.488 9.59208 19.4644 9.71061 19.4186 9.8212C19.3728 9.93179 19.3056 10.0323 19.221 10.1169C19.1363 10.2015 19.0358 10.2687 18.9252 10.3145C18.8146 10.3602 18.6961 10.3838 18.5763 10.3838Z" fill="white"/>
</svg>
