<svg width="90" height="47" viewBox="0 0 90 47" fill="none" xmlns="http://www.w3.org/2000/svg">
<path d="M87.2581 32.8628L86.8152 32.5658C85.2791 31.5331 84.8558 31.0132 84.8558 30.1521C84.8558 29.0611 85.8989 28.6721 86.7919 28.6721C88.2673 28.6721 88.6781 29.3175 88.6924 29.3387C88.7709 29.4784 88.8888 29.8621 88.9067 30.0301C88.9228 30.1362 88.9513 30.336 89.1818 30.336C89.439 30.336 89.439 30.0566 89.439 29.8709C89.439 29.0735 89.4818 28.6049 89.5015 28.4068C89.5068 28.3485 89.5104 28.3113 89.5104 28.2954C89.5104 28.0585 89.2979 28.0585 89.2175 28.0585C89.0978 28.0585 88.9853 28.0585 88.6995 27.993C88.3316 27.9064 87.7064 27.8145 87.0581 27.8145C84.8808 27.8145 83.4751 28.9656 83.4751 30.748C83.4751 31.8867 84.1378 32.8416 85.7578 34.0405L86.4669 34.5674C87.8529 35.5859 88.3762 36.0651 88.3762 37.0536C88.3762 38.1923 87.5332 38.8996 86.1739 38.8996C85.1987 38.8996 84.0753 38.5389 83.8448 37.5275C83.7948 37.333 83.7948 37.1349 83.7948 37.0165C83.7948 36.7901 83.6519 36.7105 83.5198 36.7105C83.4251 36.7105 83.2644 36.7601 83.2644 37.0783C83.2608 37.1278 83.2554 37.1915 83.2483 37.2693C83.2215 37.5699 83.175 38.0739 83.175 38.6645C83.175 39.0658 83.1893 39.2003 83.4823 39.3453C84.2824 39.7184 85.372 39.7608 85.8042 39.7608C86.9312 39.7608 87.7886 39.5769 88.353 39.2126C89.355 38.5655 89.8641 37.6742 89.8641 36.562C89.8641 35.1863 89.1103 34.1147 87.2581 32.8628Z" fill="#0C1C56"/>
<path d="M14.4532 25.4911C14.0835 25.4911 13.6066 25.5158 13.2905 25.5335C13.1547 25.5406 13.0565 25.5459 13.0226 25.5459C12.9458 25.5459 12.7922 25.5388 12.5921 25.53C12.217 25.5123 11.7008 25.4911 11.2257 25.4911C11.0346 25.4911 10.6792 25.4911 10.6792 25.7775C10.6792 25.8713 10.7256 26.0269 11.0239 26.0269C11.2168 26.0269 11.4776 26.0269 11.658 26.0835C11.7955 26.1524 11.8169 26.2956 11.8169 26.3752C11.8169 26.5344 11.7276 26.8208 11.6598 27.0259C11.2865 28.2337 9.01809 34.1078 7.87676 36.7726L4.47601 27.7969C4.22595 27.1568 3.99018 26.552 3.99018 26.3399C3.99018 26.2408 4.01697 26.1613 4.14379 26.1047C4.27596 26.0463 4.57067 26.0269 4.78322 26.0269C5.07614 26.0269 5.10829 25.8394 5.10829 25.7581C5.10829 25.4911 4.70999 25.4911 4.47065 25.4911C4.00804 25.4911 3.48292 25.5158 3.13642 25.5318C2.95959 25.5388 2.82563 25.5459 2.7649 25.5459C2.69167 25.5459 2.52735 25.5388 2.31123 25.5318C1.87185 25.5158 1.20741 25.4911 0.617997 25.4911C0.357224 25.4911 0 25.4911 0 25.7581C0 25.9208 0.112525 26.0269 0.287565 26.0269C0.387587 26.0269 0.691227 26.0269 0.946641 26.0941C1.52534 26.2585 1.78076 26.4159 2.1737 27.4097L6.66935 38.5461L6.71937 38.6717C7.05337 39.508 7.15518 39.7627 7.4606 39.7627C7.69101 39.7627 7.77496 39.577 8.05538 38.9599C8.13754 38.7813 8.23578 38.5656 8.35902 38.3003C8.76982 37.4357 9.54857 35.5896 10.6274 33.0327L11.4651 31.0328C12.1206 29.4697 12.6368 28.2354 12.785 27.8641C13.2655 26.6652 13.5298 26.3664 13.7406 26.2231C14.0532 26.0269 14.4229 26.0269 14.5443 26.0269C14.8587 26.0269 14.9051 25.8589 14.9051 25.7581C14.9069 25.5813 14.7551 25.4911 14.4532 25.4911Z" fill="#C4842A"/>
<path d="M18.4187 38.9952C18.2901 38.9952 17.9668 38.9634 17.7256 38.9263C17.3791 38.8732 17.3291 38.7088 17.2738 38.2543C17.2041 37.6443 17.2041 36.4914 17.2041 35.029V32.389C17.2041 30.0638 17.2041 29.6447 17.2202 29.1779C17.2559 28.6669 17.3345 28.5413 17.6613 28.4741C17.8257 28.4405 17.9221 28.4405 18.0257 28.4405C18.1561 28.4405 18.2883 28.3097 18.2883 28.1806C18.2883 28.0073 18.1579 27.9207 17.9025 27.9207C17.5542 27.9207 16.9273 27.9383 16.579 27.949C16.4468 27.9525 16.3575 27.956 16.3378 27.956C16.3128 27.956 16.211 27.9525 16.0681 27.949C15.7181 27.9383 15.1197 27.9207 14.7536 27.9207C14.4981 27.9207 14.366 28.0073 14.366 28.1806C14.366 28.3026 14.4731 28.4405 14.6267 28.4405C14.725 28.4405 14.9125 28.4582 15.0786 28.4918C15.3072 28.5396 15.4305 28.658 15.468 29.1779C15.5019 29.6483 15.5019 30.0673 15.5019 32.389V35.029C15.5019 36.2527 15.4912 37.5895 15.4144 38.2543C15.359 38.7194 15.3072 38.8821 15.109 38.9298C14.9786 38.9634 14.7928 38.997 14.6625 38.997C14.4981 38.997 14.3999 39.1296 14.3999 39.2569C14.3999 39.3542 14.4499 39.5169 14.7875 39.5169C15.1268 39.5169 15.7091 39.4904 16.0574 39.4744C16.2039 39.4674 16.3093 39.4638 16.3343 39.4638C16.3503 39.4638 16.4093 39.4674 16.5022 39.4709C16.8344 39.485 17.6095 39.5186 18.2918 39.5186C18.6491 39.5186 18.6776 39.3188 18.6776 39.2587C18.6794 39.1278 18.583 38.9952 18.4187 38.9952Z" fill="#C4842A"/>
<path d="M31.6345 27.9208C31.2129 27.9208 30.845 27.9367 30.5914 27.9473C30.461 27.9526 30.361 27.9579 30.3002 27.9579C30.2413 27.9579 30.1216 27.9544 29.9609 27.9491C29.6322 27.9385 29.141 27.9226 28.6641 27.9226C28.532 27.9226 28.2248 27.9226 28.2248 28.1648C28.2248 28.331 28.3301 28.4424 28.4873 28.4424C28.6034 28.4424 28.9499 28.4601 29.2268 28.5114C29.5715 28.5751 29.6822 28.7554 29.7019 29.7704L29.8555 36.9194C29.6947 36.7515 29.4911 36.5375 29.2536 36.2882C28.482 35.4766 27.4246 34.3661 26.3994 33.3157C24.7561 31.6412 23.1915 30.0144 22.2574 29.0419C21.8215 28.5892 21.5322 28.2886 21.4536 28.209L21.3804 28.1365C21.1446 27.8961 20.9463 27.7122 20.7517 27.7122C20.4284 27.7122 20.4016 28.1719 20.4016 28.6051V37.1794C20.4016 38.5162 20.3373 38.838 20.0533 38.9158C19.839 38.9812 19.5693 38.9971 19.4549 38.9971C19.3085 38.9971 19.1924 39.1121 19.1924 39.2571C19.1924 39.517 19.4728 39.517 19.5782 39.517C20.0729 39.517 20.548 39.4905 20.832 39.4746C20.9571 39.4675 21.0464 39.464 21.091 39.464C21.1303 39.464 21.2071 39.4693 21.3161 39.4746C21.6108 39.4905 22.1038 39.517 22.7432 39.517C23.0915 39.517 23.1665 39.3756 23.1665 39.2571C23.1665 39.1121 23.0504 38.9971 22.9039 38.9971C22.7396 38.9971 22.4056 38.9742 22.1573 38.914C21.8394 38.8345 21.6929 38.5887 21.6554 37.3332L21.4875 30.6369C22.1502 31.3459 23.6112 32.8649 25.2955 34.6137C26.9316 36.3041 29.1964 38.5162 29.3732 38.67C30.302 39.5152 30.4467 39.6213 30.6575 39.6213C30.92 39.6213 30.92 39.4127 30.92 38.4119L30.9557 29.6431C30.9557 28.7059 31.0147 28.5521 31.3969 28.4743C31.5612 28.4407 31.6755 28.4407 31.7452 28.4407C31.9256 28.4407 32.0596 28.2957 32.0596 28.163C32.056 27.9208 31.7506 27.9208 31.6345 27.9208Z" fill="#C4842A"/>
<path d="M46.4248 38.9952C46.3141 38.9952 45.9694 38.9616 45.7515 38.9263C45.3925 38.8732 45.3567 38.7212 45.2996 38.2543C45.221 37.5842 45.2103 36.2474 45.2103 35.029V32.389C45.2103 30.0673 45.2103 29.6483 45.246 29.1761C45.2817 28.6651 45.3567 28.5395 45.6675 28.4741C45.8497 28.4405 45.9319 28.4405 46.0337 28.4405C46.1766 28.4405 46.3123 28.315 46.3123 28.1806C46.3123 28.0621 46.2427 27.9207 45.9069 27.9207C45.5836 27.9207 45.0013 27.9383 44.6477 27.949C44.4958 27.9543 44.3869 27.9578 44.3601 27.9578C44.344 27.9578 44.2726 27.956 44.1654 27.9525C43.8225 27.9419 43.1098 27.9224 42.5829 27.9224C42.3257 27.9224 42.1971 28.0091 42.1971 28.1824C42.1971 28.3044 42.3043 28.4423 42.4597 28.4423C42.5918 28.4423 42.8508 28.46 42.9741 28.4759C43.3777 28.5325 43.442 28.6686 43.476 29.1938C43.4938 29.6571 43.5117 30.1363 43.5117 32.4262V32.6949H37.0835V32.4279C37.0835 30.1257 37.0835 29.6482 37.1013 29.1796C37.1353 28.6704 37.2138 28.5449 37.5425 28.4759C37.705 28.4423 37.8033 28.4423 37.9069 28.4423C38.0372 28.4423 38.1676 28.3115 38.1676 28.1824C38.1676 28.0091 38.0372 27.9224 37.7818 27.9224C37.4335 27.9224 36.8155 27.9401 36.4726 27.9507C36.344 27.9543 36.2547 27.9578 36.235 27.9578C36.2118 27.9578 36.1297 27.956 36.0064 27.9507C35.6492 27.9401 34.9669 27.9207 34.44 27.9207C34.1846 27.9207 34.0542 28.0073 34.0542 28.1806C34.0542 28.3097 34.1882 28.4405 34.3168 28.4405C34.4489 28.4405 34.7061 28.4582 34.8312 28.4741C35.2473 28.5325 35.3188 28.6846 35.3527 29.1779C35.3884 29.6483 35.3884 30.0655 35.3884 32.389V35.029C35.3884 36.4896 35.3884 37.6425 35.2991 38.249L35.292 38.2915C35.2205 38.7371 35.1812 38.8838 34.9937 38.928C34.8633 38.9616 34.6776 38.9952 34.5472 38.9952C34.3828 38.9952 34.2846 39.1279 34.2846 39.2552C34.2846 39.3524 34.3346 39.5151 34.6722 39.5151C35.0116 39.5151 35.6028 39.4886 35.9546 39.4727C36.1029 39.4656 36.21 39.462 36.235 39.462C36.2511 39.462 36.3083 39.4656 36.4012 39.4691C36.7298 39.4833 37.4925 39.5169 38.1748 39.5169C38.532 39.5169 38.5606 39.3171 38.5606 39.2569C38.5606 39.1314 38.4695 38.997 38.2998 38.997C38.1712 38.997 37.8497 38.9652 37.6086 38.928C37.2621 38.875 37.2103 38.7106 37.1549 38.2561C37.0835 37.6461 37.0835 36.5073 37.0835 35.0662V33.618H43.5117V35.0662C43.5117 36.4985 43.5117 37.6284 43.4402 38.2367C43.3831 38.7088 43.3277 38.8838 43.1152 38.9298C42.9401 38.974 42.7919 38.997 42.6865 38.997C42.5222 38.997 42.4257 39.1296 42.4257 39.2569C42.4257 39.4285 42.5561 39.5169 42.8115 39.5169C43.1473 39.5169 43.7778 39.4886 44.1154 39.4744C44.2476 39.4691 44.3404 39.4638 44.3601 39.4638C44.3815 39.4638 44.4547 39.4674 44.5655 39.4709C44.9174 39.485 45.6497 39.5169 46.298 39.5169C46.6838 39.5169 46.7035 39.3012 46.7035 39.2569C46.7053 39.1261 46.6088 38.9952 46.4248 38.9952Z" fill="#0C1C56"/>
<path d="M53.0843 27.7104C48.7083 27.7104 46.74 31.208 46.74 33.6924C46.74 36.5906 48.6976 39.7098 52.995 39.7098C56.6511 39.7098 59.4089 37.0238 59.4089 33.4626C59.4089 30.0216 56.8673 27.7104 53.0843 27.7104ZM53.4379 38.8186C50.5641 38.8186 48.6333 36.5942 48.6333 33.2858C48.6333 30.3186 50.264 28.5451 52.995 28.5451C55.2544 28.5451 57.5353 30.1966 57.5353 33.8834C57.5335 38.5817 54.122 38.8186 53.4379 38.8186Z" fill="#0C1C56"/>
<path d="M74.5651 38.9954C74.4151 38.9954 74.0168 38.9954 73.5953 38.861C73.0845 38.6931 72.9541 38.0724 72.8898 37.427L71.8217 28.2356C71.7663 27.8024 71.5913 27.7104 71.4537 27.7104C71.2448 27.7104 71.1394 27.9191 71.0804 28.034L66.6491 37.0645L62.0445 28.0146C61.9123 27.7493 61.7087 27.7104 61.6015 27.7104C61.4372 27.7104 61.314 27.8625 61.2872 28.0959L60.1494 37.8655L60.1316 38.0105C60.0655 38.5498 60.0101 38.884 59.66 38.9442L59.6154 38.9512C59.4225 38.9813 59.3242 38.9954 59.2206 38.9954C59.0563 38.9954 58.9224 39.1033 58.9224 39.2377C58.9224 39.3402 58.9742 39.5153 59.3278 39.5153C59.6011 39.5153 60.003 39.4941 60.2959 39.4782C60.4602 39.4693 60.5906 39.4623 60.6406 39.4623C60.6799 39.4623 60.7799 39.4676 60.9157 39.4746C61.2264 39.4906 61.6962 39.5153 62.1016 39.5153C62.4517 39.5153 62.525 39.365 62.525 39.2377C62.525 39.1015 62.3839 38.9954 62.2624 38.9954C62.1463 38.9954 61.9284 38.9725 61.6891 38.9106C61.4211 38.8487 61.4211 38.6771 61.4211 38.6206C61.4211 38.3748 61.4211 38.0972 61.4372 37.8761L62.007 31.5033C62.2945 32.1116 62.8268 33.1885 63.2715 34.0868C63.5002 34.5518 63.7056 34.9674 63.8431 35.2467C64.2468 36.0831 65.3042 38.0459 65.6775 38.7214C65.9829 39.2713 66.0972 39.4782 66.333 39.4782C66.5687 39.4782 66.6759 39.2837 67.0081 38.6082L70.5928 31.3389L71.3001 38.495C71.3287 38.7214 71.3126 38.8416 71.2983 38.884C71.1894 38.9229 71.1197 39.0202 71.1197 39.1298C71.1197 39.3509 71.3877 39.3951 71.6877 39.4234C72.2682 39.4764 74.0222 39.5118 74.3687 39.5118C74.6473 39.5118 74.8277 39.4022 74.8277 39.2342C74.8277 39.098 74.717 38.9954 74.5651 38.9954Z" fill="#0C1C56"/>
<path d="M82.4171 37.2165C82.1885 37.2165 82.1456 37.4287 82.1188 37.5613C82.0313 38.1537 81.8205 38.3517 81.4955 38.4932C81.1097 38.6435 80.3738 38.6435 79.9791 38.6435C78.4341 38.6435 78.2823 38.4543 78.2501 37.5737C78.2376 37.3615 78.243 36.3978 78.2465 35.6923C78.2483 35.4146 78.2501 35.1724 78.2501 35.0292L78.2519 33.8108C78.6216 33.8126 80.1684 33.8303 80.5685 33.8798C81.1811 33.9505 81.224 34.1291 81.2544 34.2511C81.3187 34.4209 81.3186 34.5606 81.3186 34.6967C81.3186 34.8877 81.4419 34.9726 81.5633 34.9726C81.733 34.9726 81.842 34.8081 81.842 34.5553C81.842 34.4633 81.8777 33.9046 81.9116 33.5951C81.9349 33.2786 81.9795 33.0717 82.0081 32.9338C82.0259 32.8542 82.0367 32.8029 82.0367 32.7587C82.0367 32.566 81.9134 32.4988 81.808 32.4988C81.708 32.4988 81.6384 32.5713 81.5419 32.6703L81.4812 32.7322C81.3597 32.8507 81.1633 32.8701 80.8364 32.9019L80.7989 32.9055C80.5453 32.9302 79.3271 32.9408 78.2465 32.9408C78.2465 32.9338 78.2465 32.9267 78.2465 32.9196V28.8526C78.2465 28.8438 78.2465 28.8367 78.2483 28.8297C78.6216 28.8314 80.2059 28.8509 80.4399 28.8809C81.2936 28.987 81.3776 29.0878 81.4508 29.254C81.5115 29.4061 81.5294 29.6324 81.5294 29.7315C81.5294 30.0374 81.7295 30.0621 81.792 30.0621C81.9367 30.0621 82.0367 29.926 82.067 29.7951C82.0903 29.682 82.1117 29.422 82.1349 29.0949C82.1438 28.9605 82.1528 28.8456 82.1599 28.7908C82.1813 28.5414 82.2206 28.3858 82.2492 28.2709C82.2689 28.1913 82.2832 28.133 82.2832 28.0764C82.2832 27.8129 82.1099 27.8005 82.076 27.8005C82.0027 27.8005 81.9402 27.8288 81.8902 27.8501C81.8688 27.8589 81.8491 27.8695 81.8438 27.8713L81.7473 27.8872C81.6009 27.9102 81.3794 27.9455 81.1472 27.9579C81.0436 27.9632 80.6757 27.9667 80.0505 27.9667C79.1896 27.9667 78.0786 27.9615 77.625 27.9597H77.4196C77.3963 27.9597 77.3106 27.9579 77.182 27.9526C76.8194 27.942 76.13 27.9225 75.6049 27.9225C75.3477 27.9225 75.2173 28.0092 75.2173 28.1825C75.2173 28.3116 75.3495 28.4424 75.4798 28.4424C75.6209 28.4424 75.8817 28.4601 75.996 28.476C76.4104 28.5326 76.4818 28.6847 76.5176 29.1798C76.5533 29.6501 76.5533 30.0692 76.5533 32.3909V35.0309C76.5533 36.4915 76.5533 37.6444 76.4658 38.2509L76.4586 38.2969C76.389 38.739 76.3479 38.8963 76.1764 38.9264C76.1193 38.9334 76.055 38.9458 75.9907 38.9582C75.8906 38.9777 75.787 38.9971 75.712 38.9971C75.5477 38.9971 75.4513 39.1297 75.4513 39.2571C75.4513 39.3543 75.5013 39.517 75.8371 39.517C76.1032 39.517 76.4854 39.4958 76.7516 39.4816C77.0873 39.4639 77.3856 39.4639 77.4213 39.4639C77.6428 39.4639 78.0572 39.4639 78.7145 39.4993L79.1003 39.5099C79.7165 39.5294 80.481 39.5523 81.4383 39.5523C82.0545 39.5523 82.3082 39.5523 82.4439 39.0643C82.535 38.7301 82.6618 37.701 82.6618 37.5843C82.6618 37.2518 82.4903 37.2165 82.4171 37.2165Z" fill="#0C1C56"/>
<path d="M32.0569 44.3407H0.0229492V44.7527H32.0569V44.3407Z" fill="#C4842A"/>
<path d="M34.3013 45.7961V43.2887H34.3549L36.0409 45.2108V43.2887H36.291V45.7961H36.2338L34.5638 43.8988V45.7961H34.3013Z" fill="#C4842A"/>
<path d="M40.6645 43.2887H40.4109V45.7961H40.6645V43.2887Z" fill="#C4842A"/>
<path d="M42.7104 43.2887H42.9605V44.3408H44.2537V43.2887H44.5055V45.7961H44.2537V44.5831H42.9605V45.7961H42.7104V43.2887Z" fill="#C4842A"/>
<path d="M46.5345 43.2887L47.7169 45.7961H47.4419L47.0436 44.9703H45.9523L45.5575 45.7961H45.2771L46.472 43.2887H46.5345ZM46.5042 43.8227L46.0719 44.7298H46.9346L46.5042 43.8227Z" fill="#C4842A"/>
<path d="M48.4888 45.7961V43.2887H48.5441L50.2267 45.2108V43.2887H50.4731V45.7961H50.4196L48.7478 43.8988V45.7961H48.4888Z" fill="#C4842A"/>
<path d="M51.2971 43.2887H51.5507V44.3408H52.8385V43.2887H53.0922V45.7961H52.8385V44.5831H51.5507V45.7961H51.2971V43.2887Z" fill="#C4842A"/>
<path d="M55.1812 43.2887H55.6867C55.9743 43.2887 56.1672 43.3011 56.269 43.3258C56.4136 43.363 56.5315 43.4355 56.6244 43.5433C56.7155 43.6512 56.7619 43.7909 56.7619 43.9553C56.7619 44.1233 56.7155 44.2612 56.6262 44.3691C56.5369 44.4752 56.4154 44.5512 56.2583 44.5866C56.1422 44.6149 55.9296 44.6273 55.6135 44.6273H55.4331V45.7925H55.1794V43.2887H55.1812ZM55.4349 43.538V44.385L55.8635 44.3921C56.0368 44.3921 56.1618 44.3744 56.244 44.3443C56.3243 44.3125 56.3868 44.263 56.4333 44.1923C56.4779 44.1233 56.5012 44.0437 56.5012 43.9589C56.5012 43.874 56.4779 43.7997 56.4333 43.729C56.3868 43.6583 56.3261 43.6088 56.2529 43.5805C56.1743 43.5522 56.0529 43.538 55.8814 43.538H55.4349Z" fill="#C4842A"/>
<path d="M57.5474 43.2887H57.801V44.3408H59.0888V43.2887H59.3406V45.7961H59.0888V44.5831H57.801V45.7961H57.5474V43.2887Z" fill="#C4842A"/>
<path d="M60.1353 43.2887H60.389V44.8006C60.389 44.9809 60.3925 45.0941 60.3979 45.1365C60.4104 45.2373 60.4408 45.3204 60.4854 45.3858C60.5319 45.4513 60.6033 45.5079 60.698 45.5538C60.7944 45.598 60.8891 45.621 60.9855 45.621C61.0677 45.621 61.1516 45.6033 61.2249 45.568C61.3034 45.5291 61.366 45.4831 61.4195 45.4195C61.4696 45.3558 61.5071 45.2815 61.5321 45.1931C61.5482 45.1295 61.5589 44.9986 61.5589 44.8006V43.2887H61.8089V44.8006C61.8089 45.0269 61.7875 45.2055 61.7428 45.3469C61.6982 45.4813 61.6124 45.6016 61.4803 45.7059C61.3463 45.8067 61.1856 45.8615 60.998 45.8615C60.7944 45.8615 60.6176 45.8102 60.4729 45.713C60.33 45.6175 60.23 45.4902 60.18 45.3293C60.1496 45.232 60.1335 45.057 60.1335 44.8006V43.2887H60.1353Z" fill="#C4842A"/>
<path d="M65.0695 43.7555L64.8677 43.9057C64.7588 43.7643 64.6248 43.6547 64.4712 43.5822C64.3176 43.5097 64.1479 43.4725 63.9639 43.4725C63.7603 43.4725 63.5728 43.522 63.4013 43.6193C63.2316 43.713 63.0959 43.8421 63.0012 44.0048C62.9066 44.1657 62.8583 44.3496 62.8583 44.5494C62.8583 44.8553 62.9637 45.1117 63.1763 45.315C63.387 45.5202 63.6549 45.6227 63.9782 45.6227C64.3301 45.6227 64.6266 45.483 64.8641 45.209L65.066 45.3575C64.9409 45.5166 64.7802 45.6422 64.5926 45.7271C64.4069 45.8137 64.1961 45.8597 63.9621 45.8597C63.5174 45.8597 63.1673 45.7111 62.9137 45.4194C62.6976 45.1718 62.5886 44.8765 62.5886 44.5264C62.5886 44.1586 62.719 43.8492 62.9816 43.6016C63.2423 43.3505 63.5656 43.225 63.9568 43.225C64.1961 43.225 64.4069 43.271 64.5962 43.3629C64.7909 43.4584 64.9481 43.5857 65.0695 43.7555Z" fill="#C4842A"/>
<path d="M67.1008 45.7961V43.2887H67.1562L68.8387 45.2108V43.2887H69.0888V45.7961H69.0316L67.3598 43.8988V45.7961H67.1008Z" fill="#C4842A"/>
<path d="M72.4274 43.7095L72.2292 43.8969C72.0881 43.7572 71.9327 43.6511 71.7648 43.5804C71.5951 43.5114 71.4326 43.4743 71.2736 43.4743C71.0754 43.4743 70.8878 43.5238 70.7056 43.6211C70.527 43.7165 70.3877 43.8492 70.2895 44.0136C70.1912 44.1763 70.143 44.3514 70.143 44.537C70.143 44.7262 70.1948 44.903 70.2966 45.0728C70.3966 45.2425 70.5377 45.3769 70.7181 45.4724C70.8967 45.5697 71.095 45.6192 71.3093 45.6192C71.5701 45.6192 71.788 45.5449 71.9684 45.3999C72.1488 45.2549 72.2578 45.0657 72.2899 44.8359H71.4808V44.5936H72.5703C72.5685 44.9808 72.4542 45.2885 72.222 45.5149C71.9916 45.743 71.6844 45.8579 71.3004 45.8579C70.8324 45.8579 70.4609 45.6988 70.1859 45.3822C69.9787 45.1382 69.8733 44.8571 69.8733 44.5388C69.8733 44.3019 69.934 44.0808 70.0537 43.8775C70.1769 43.6723 70.3413 43.5132 70.5502 43.3965C70.7592 43.2833 70.9968 43.225 71.2611 43.225C71.4754 43.225 71.6773 43.2639 71.8666 43.3399C72.0613 43.4195 72.2453 43.5415 72.4274 43.7095Z" fill="#C4842A"/>
<path d="M74.6419 43.2887L75.8226 45.7961H75.5493L75.1528 44.9703H74.0615L73.6667 45.7961H73.3845L74.5794 43.2887H74.6419ZM74.6116 43.8227L74.1758 44.7298H75.0385L74.6116 43.8227Z" fill="#C4842A"/>
<path d="M76.5042 43.2887H77.0078C77.2954 43.2887 77.4901 43.3011 77.5919 43.3258C77.7366 43.363 77.8544 43.4355 77.9491 43.5433C78.0384 43.6512 78.0866 43.7909 78.0866 43.9553C78.0866 44.1233 78.042 44.2612 77.9509 44.3691C77.8634 44.4752 77.7401 44.5512 77.583 44.5866C77.4686 44.6149 77.2525 44.6273 76.94 44.6273H76.756V45.7925H76.5059V43.2887H76.5042ZM76.756 43.538V44.385L77.1847 44.3921C77.3597 44.3921 77.4865 44.3744 77.5669 44.3443C77.6473 44.3125 77.7098 44.263 77.7544 44.1923C77.8009 44.1233 77.8223 44.0437 77.8223 43.9589C77.8223 43.874 77.8009 43.7997 77.7544 43.729C77.7098 43.6583 77.6508 43.6088 77.574 43.5805C77.4972 43.5522 77.3776 43.538 77.2061 43.538H76.756Z" fill="#C4842A"/>
<path d="M80.1958 43.538V43.2887H81.5854V43.538H81.021V45.7961H80.7638V43.538H80.1958Z" fill="#C4842A"/>
<path d="M82.3895 43.2887H82.8985C83.1754 43.2887 83.3683 43.2993 83.4665 43.3241C83.6165 43.3559 83.738 43.4302 83.8327 43.5433C83.9255 43.6547 83.9756 43.7927 83.9756 43.9571C83.9756 44.0933 83.9434 44.2135 83.8773 44.3143C83.813 44.4186 83.7184 44.4982 83.5987 44.5512C83.479 44.6025 83.3129 44.6308 83.1004 44.6326L84.0113 45.7961H83.6969L82.786 44.6326H82.6413V45.7961H82.3877V43.2887H82.3895ZM82.6413 43.538V44.385L83.0771 44.3903C83.2486 44.3903 83.3736 44.3726 83.4504 44.3408C83.5326 44.309 83.5951 44.2595 83.6433 44.1887C83.688 44.118 83.7112 44.0402 83.7112 43.9553C83.7112 43.8722 83.6862 43.7944 83.6398 43.7272C83.5933 43.6565 83.5308 43.6088 83.4612 43.5805C83.3861 43.5522 83.2611 43.538 83.0879 43.538H82.6413Z" fill="#C4842A"/>
<path d="M86.0252 43.2887L87.2058 45.7961H86.9361L86.536 44.9703H85.4465L85.0517 45.7961H84.7695L85.9662 43.2887H86.0252ZM85.993 43.8227L85.5626 44.7298H86.4271L85.993 43.8227Z" fill="#C4842A"/>
<path d="M88.012 45.7961V43.2887H88.0638L89.7498 45.2108V43.2887H89.9999V45.7961H89.9445L88.271 43.8988V45.7961H88.012Z" fill="#C4842A"/>
<path d="M39.3908 43.4158C39.4283 43.3769 39.4533 43.3328 39.4676 43.2762C39.4819 43.2231 39.4872 43.163 39.4872 43.0993H39.1907V42.8341H39.6676V42.8995C39.6676 42.9225 39.6712 42.949 39.6784 42.9791C39.6784 43.0428 39.6748 43.1082 39.6676 43.1789C39.6676 43.2549 39.648 43.3257 39.6123 43.3876C39.5748 43.4512 39.5194 43.506 39.4515 43.5502C39.4319 43.5662 39.4122 43.5803 39.389 43.5944C39.3658 43.6068 39.3443 43.6157 39.3211 43.6245C39.4301 43.7465 39.514 43.888 39.5748 44.0454C39.6355 44.2027 39.6676 44.3707 39.6676 44.5458C39.6676 44.9295 39.5408 45.2531 39.289 45.5218C39.0354 45.7906 38.7299 45.925 38.3691 45.925C38.019 45.925 37.7172 45.7942 37.46 45.5342C37.1956 45.2637 37.0635 44.9419 37.0635 44.5688C37.0635 44.1833 37.1903 43.8579 37.4457 43.5892C37.6976 43.3257 38.0065 43.1895 38.3638 43.1895C38.5209 43.1895 38.6746 43.2196 38.8246 43.2815C38.9728 43.3416 39.1068 43.4265 39.2229 43.5379C39.2354 43.5326 39.2622 43.5166 39.3086 43.4848C39.3533 43.4512 39.3819 43.43 39.3908 43.4158ZM38.3763 43.4459C38.0816 43.4441 37.8333 43.5538 37.6261 43.7713C37.4207 43.9905 37.3171 44.254 37.3171 44.567C37.3171 44.8694 37.4207 45.1293 37.6297 45.3415C37.8404 45.559 38.0887 45.6651 38.3763 45.6651C38.6621 45.6651 38.9085 45.5572 39.1175 45.3397C39.3247 45.1222 39.4283 44.857 39.4283 44.544C39.4283 44.2416 39.3211 43.9835 39.1086 43.7677C38.8978 43.5555 38.6549 43.4459 38.3763 43.4459Z" fill="#C4842A"/>
<path d="M46.7235 45.9288H46.4949V46.3125H46.7235V45.9288Z" fill="#C4842A"/>
<path d="M60.8584 43.1541L61.3996 42.7527L61.5979 42.9189L60.9584 43.246L60.8584 43.1541Z" fill="#C4842A"/>
<path d="M74.0767 43.278L74.525 42.8907H74.7232L75.1787 43.278L74.8965 43.2815L74.625 43.0587L74.3571 43.278H74.0767ZM74.5125 45.9569H74.7429V46.3442H74.5125V45.9569Z" fill="#C4842A"/>
<path d="M86.5222 43.1541L86.4222 43.246L85.781 42.9189L85.9793 42.7527L86.5222 43.1541Z" fill="#C4842A"/>
<path d="M55.5764 0.00176998C49.7269 0.703767 43.747 2.63116 43.3504 8.46463C43.1665 11.193 44.0059 13.2425 44.9526 15.2211C42.5753 12.88 39.1424 11.0021 34.3306 11.46C37.2616 12.2911 40.7213 13.8808 42.5806 15.9815C42.9736 16.4288 43.5487 17.2033 43.413 17.8611C43.1879 18.9698 41.1464 18.7435 39.9104 18.8036C42.4735 19.831 45.3384 21.6823 48.9928 21.5621C50.82 21.5037 52.1614 20.3933 52.0202 18.3332C51.763 14.6323 49.0392 11.4689 48.7534 7.28698C48.4355 2.56928 51.7487 0.838149 55.4621 0.0636545C55.5371 0.0866418 55.655 0.0636627 55.6853 0.0389072C55.7104 0.0212247 55.6871 0 55.5853 0H55.5764V0.00176998Z" fill="url(#paint0_linear)"/>
<defs>
<linearGradient id="paint0_linear" x1="53.2354" y1="15.0034" x2="44.0444" y2="5.36254" gradientUnits="userSpaceOnUse">
<stop stop-color="#FDB913"/>
<stop offset="0.2233" stop-color="#E5A521"/>
<stop offset="0.5065" stop-color="#CE9130"/>
<stop offset="0.7721" stop-color="#C08538"/>
<stop offset="1" stop-color="#BB813B"/>
</linearGradient>
</defs>
</svg>
