<svg width="24" height="24" viewBox="0 0 24 24" fill="none" xmlns="http://www.w3.org/2000/svg">
<path d="M22.7606 4.76995C21.9718 3.23005 20.77 2.06573 19.23 1.23944C17.6901 0.413147 16 0 13.0704 0H10.9296C8 0 6.2723 0.413147 4.76995 1.23944C3.23005 2.02817 2.06573 3.23005 1.23944 4.76995C0.413147 6.30986 0 8 0 10.9296V13.0704C0 16 0.413147 17.7277 1.23944 19.23C2.02817 20.7699 3.23005 21.9343 4.76995 22.7606C6.30986 23.5869 8 24 10.9296 24H13.0704C16 24 17.7277 23.5869 19.23 22.7606C20.77 21.9718 21.9343 20.7699 22.7606 19.23C23.5869 17.6901 24 16 24 13.0704V10.9296C24 8 23.5869 6.2723 22.7606 4.76995ZM23.5869 13.2207C23.5869 16.1127 23.1737 17.7653 22.3474 19.2676C22.0845 19.7559 21.6714 20.169 21.1831 20.4319C17.1643 22.6103 11.0798 22.5352 7.06103 20.3192C6.08451 20.8075 4.73239 21.108 3.60563 20.9953C3.41784 20.9953 3.38028 20.9202 3.49296 20.77C4.28169 19.9812 4.76995 18.6667 4.24413 17.9155C4.24413 17.9155 4.24413 17.9155 4.24413 17.8779C0.90141 13.4085 1.20188 5.22066 5.14554 1.46479C5.29577 1.31455 5.44601 1.23944 5.6338 1.16432C6.9108 0.6385 8.45071 0.375587 10.7418 0.375587H12.8451C15.7371 0.375587 17.5024 0.751176 19.0047 1.53991C20.507 2.32864 21.6714 3.49296 22.4601 4.99531C23.2488 6.49765 23.5869 8.22535 23.5869 11.0798V13.2207Z" fill="black"/>
<path d="M9.46478 9.23955C9.50234 9.20199 9.57746 9.08932 9.61502 9.05176V9.0142C9.80281 8.75129 9.84037 8.52594 9.84037 8.26303V8.11279H5.14553V9.12688H8.41314L5.18309 13.1081C5.07042 13.2583 4.9953 13.4086 4.9953 13.709V13.9719H9.42723C9.65258 13.9719 9.84037 13.7842 9.84037 13.5588V13.033H6.42253L9.46478 9.23955Z" fill="black"/>
<path d="M15.5117 13.6339C15.5117 13.8217 15.662 13.9719 15.8498 13.9719H16.5258V8.11279H15.5117V13.6339Z" fill="black"/>
<path d="M19.4929 9.38965C18.2159 9.38965 17.1643 10.4413 17.1643 11.7183C17.1643 12.9953 18.2159 14.0469 19.4929 14.0469C20.7699 14.0469 21.8216 12.9953 21.8216 11.7183C21.784 10.4037 20.7699 9.38965 19.4929 9.38965ZM19.4929 13.0704C18.7418 13.0704 18.1408 12.4695 18.1408 11.7183C18.1408 10.9671 18.7418 10.3662 19.4929 10.3662C20.2441 10.3662 20.8451 10.9671 20.8451 11.7183C20.8451 12.4695 20.2441 13.0704 19.4929 13.0704Z" fill="black"/>
<path d="M13.7465 9.87795C13.3709 9.61504 12.8826 9.42725 12.3944 9.42725C11.1174 9.42725 10.1033 10.4413 10.1033 11.7183C10.1033 12.9953 11.1174 14.0094 12.3944 14.0094C12.9202 14.0094 13.3709 13.8592 13.7465 13.5587C13.7465 13.7841 13.9343 13.9718 14.1596 13.9718H14.6854V9.53992H13.7465V9.87795ZM12.3944 13.0704C11.6432 13.0704 11.0422 12.4695 11.0422 11.7183C11.0422 10.9671 11.6432 10.3662 12.3944 10.3662C13.1455 10.3662 13.7465 10.9671 13.7465 11.7183C13.7465 12.4695 13.1455 13.0704 12.3944 13.0704Z" fill="black"/>
</svg>
