<svg width="124" height="124" viewBox="0 0 124 124" fill="none" xmlns="http://www.w3.org/2000/svg">
<path d="M120.367 124H3.63281C1.62653 124 0 122.374 0 120.367V52.0705C0 50.9899 0.480984 49.9652 1.3129 49.2749L59.6801 0.837426C61.0254 -0.278816 62.9748 -0.278816 64.3199 0.837426L122.687 49.2749C123.519 49.9652 124 50.9899 124 52.0705V120.367C124 122.374 122.373 124 120.367 124Z" fill="#FFCD14"/>
<path d="M122.687 49.2747L64.3199 0.837242C63.6474 0.279 62.8237 0 62 0V124H120.367C122.373 124 124 122.373 124 120.367V52.0703C124 50.9897 123.519 49.965 122.687 49.2747Z" fill="#FFB400"/>
<path d="M103.172 92.0312H20.8281C18.8218 92.0312 17.1953 90.4047 17.1953 88.3984V18.1641C17.1953 16.1578 18.8218 14.5312 20.8281 14.5312H103.172C105.178 14.5312 106.805 16.1578 106.805 18.1641V88.3984C106.805 90.4047 105.178 92.0312 103.172 92.0312Z" fill="#DCF5FA"/>
<path d="M103.172 14.5312H62V92.0312H103.172C105.178 92.0312 106.805 90.4047 106.805 88.3984V18.1641C106.805 16.1578 105.178 14.5312 103.172 14.5312Z" fill="#BEDCE6"/>
<path d="M84.1891 44.2911C84.1823 44.2659 84.175 44.2407 84.1675 44.2158C82.3729 38.2701 78.3582 33.4014 72.8622 30.507C67.3675 27.6131 61.0798 27.058 55.1571 28.943C49.5449 30.7293 44.876 34.5809 42.0104 39.7876C39.1437 44.9959 38.39 51.0007 39.8877 56.696C41.1848 61.6286 43.986 65.8841 47.9883 69.0022C51.8415 72.0044 56.6415 73.7317 61.5034 73.8661C61.5264 73.8668 61.5489 73.8671 61.5714 73.8671C62.878 73.8671 63.9548 72.8264 63.9911 71.512C64.0279 70.1749 62.9742 69.0611 61.6371 69.0243C53.6308 68.8029 46.6134 63.2268 44.5718 55.464C42.1134 46.1148 47.4081 36.4927 56.626 33.5583C61.3026 32.0694 66.2672 32.508 70.6048 34.7925C74.9319 37.0715 78.0966 40.901 79.519 45.5776C80.4194 48.983 80.1237 52.147 78.5323 56.1481C78.0956 57.246 76.7423 59.7994 73.6118 59.7994C73.0221 59.7994 72.567 59.4303 72.3478 59.2104C71.8259 58.6855 71.5164 57.9127 71.5202 57.1423L71.5503 51.0762C71.5551 50.9104 71.5602 50.7447 71.5602 50.5771C71.5602 50.472 71.5561 50.3688 71.5544 50.2647L71.6099 39.0843C71.6164 37.747 70.5375 36.6571 69.2001 36.6506C69.1957 36.6506 69.1921 36.6506 69.1877 36.6506C67.856 36.6506 66.7726 37.7271 66.7661 39.0606L66.762 39.8954C65.1795 38.7559 63.2815 38.1149 61.1813 38.1149C55.7567 38.1149 50.1455 42.8 50.1455 50.6403C50.1455 57.7882 54.998 63.6034 60.9623 63.6034C63.4898 63.6034 65.7826 62.5656 67.5852 60.8141C67.9364 61.4792 68.3827 62.0924 68.9148 62.6269C70.2086 63.9272 71.8767 64.6431 73.6123 64.6431C78.5928 64.6431 81.7447 61.1793 83.0336 57.9381C85.0191 52.9457 85.3755 48.7365 84.1891 44.2911V44.2911ZM60.9621 58.7601C58.0895 58.7601 54.989 55.656 54.989 50.6408C54.989 45.8324 58.1374 42.9591 61.181 42.9591C64.3515 42.9591 66.5908 45.9237 66.7109 50.2138L66.7068 51.0423C66.5365 55.3387 64.0253 58.7601 60.9621 58.7601Z" fill="#696969"/>
<path d="M63.9913 71.5122C64.0247 70.2991 63.1594 69.2727 62 69.0647V73.8273C63.1053 73.629 63.9588 72.6793 63.9913 71.5122Z" fill="#555555"/>
<path d="M84.1677 44.2158C82.3731 38.2701 78.3583 33.4014 72.8624 30.507C69.4545 28.7122 65.7418 27.818 62 27.8466V32.693C64.9641 32.6654 67.906 33.3714 70.6049 34.7928C74.9321 37.0718 78.0968 40.9012 79.5191 45.5779C80.4196 48.9833 80.1239 52.1472 78.5324 56.1484C78.0958 57.2462 76.7424 59.7996 73.6119 59.7996C73.0222 59.7996 72.5671 59.4305 72.348 59.2106C71.826 58.6858 71.5165 57.913 71.5204 57.1426L71.5504 51.0765C71.5553 50.9106 71.5604 50.745 71.5604 50.5774C71.5604 50.4723 71.5562 50.3691 71.5545 50.2649L71.61 39.0846C71.6165 37.7472 70.5376 36.6574 69.2002 36.6509C69.1959 36.6509 69.1922 36.6509 69.1879 36.6509C67.8561 36.6509 66.7728 37.7274 66.7662 39.0609L66.7621 39.8957C65.3882 38.9063 63.776 38.2934 62.0002 38.149V43.0289C64.7312 43.4958 66.6016 46.3037 66.711 50.2138L66.7069 51.0424C66.5565 54.8416 64.5749 57.9546 62.0002 58.6248V63.5429C64.1165 63.3002 66.0329 62.3232 67.5851 60.8149C67.9363 61.4799 68.3826 62.0931 68.9147 62.6276C70.2085 63.9279 71.8767 64.6438 73.6122 64.6438C78.5928 64.6438 81.7446 61.1801 83.0335 57.9389C85.0192 52.946 85.3757 48.7367 84.1892 44.2914C84.1824 44.266 84.1754 44.241 84.1677 44.2158V44.2158Z" fill="#555555"/>
<path d="M120.367 124H3.63281C1.62653 124 0 122.373 0 120.367V52.0703C0 50.7509 0.715422 49.5354 1.86872 48.8945C3.02202 48.254 4.43203 48.2888 5.55239 48.9861L62 84.1195L118.448 48.9861C119.567 48.2888 120.977 48.254 122.131 48.8945C123.285 49.5354 124 50.7509 124 52.0703V120.367C124 122.373 122.373 124 120.367 124Z" fill="#FFF037"/>
<path d="M122.131 48.8945C120.977 48.254 119.567 48.2888 118.448 48.9861L62 84.1195V124H120.367C122.373 124 124 122.373 124 120.367V52.0703C124 50.7509 123.285 49.5354 122.131 48.8945Z" fill="#FFCD14"/>
</svg>
