<svg width="67" height="68" viewBox="0 0 67 68" fill="none" xmlns="http://www.w3.org/2000/svg">
<g filter="url(#filter0_d_2_930)">
<path d="M16.801 43.1808C16.4993 43.2986 16.3509 43.3632 16.196 43.4149C14.6359 43.946 13.4969 44.947 12.7048 46.4015C10.3332 50.7556 7.92929 55.0936 5.54478 59.4428C5.00592 60.426 5.00269 60.9345 5.4867 61.4334C5.96263 61.9241 6.49181 61.9241 7.4711 61.4011C11.8255 59.0747 16.1734 56.7354 20.5327 54.4155C22.1073 53.5776 23.1995 52.362 23.6868 50.6281C23.7077 50.549 23.7513 50.4747 23.8594 50.2406C21.5055 47.89 19.1533 45.5362 16.801 43.1808ZM19.576 52.0407C16.5574 53.6664 13.534 55.2792 10.5106 56.8936C10.3203 56.9953 10.1202 57.0761 9.92337 57.1665L9.80237 57.0454C9.92176 56.7984 10.0331 56.5449 10.1654 56.3028C11.7723 53.3661 13.3791 50.4295 14.9941 47.4961C15.7314 46.1562 17.1318 45.4846 18.6015 45.7477C19.8567 45.9721 21.1199 47.2685 21.3168 48.531C21.5362 49.9484 20.8537 51.353 19.576 52.0407Z" fill="#F9EB1E"/>
</g>
<path d="M65.1979 0.0193749C65.0092 0.0419767 64.8188 0.0629641 64.6284 0.0839515C62.1536 0.238935 59.7029 0.547289 57.2845 1.0413C57.1119 1.07682 56.9393 1.11233 56.7666 1.15108C56.7457 1.15592 56.7247 1.16077 56.7037 1.16561C55.7131 1.38033 54.7274 1.62572 53.7465 1.90824C53.7126 1.91631 53.6771 1.926 53.6432 1.9373C43.1468 4.88845 34.3638 10.6503 27.4797 19.4198C27.2103 19.7637 26.9344 19.8783 26.5101 19.8557C23.2092 19.6813 19.9067 19.5377 16.6074 19.3568C15.883 19.3165 15.3426 19.5457 14.8344 20.0591C11.8545 23.07 8.85212 26.0567 5.86099 29.0562C5.55123 29.3678 5.26729 29.7085 4.97205 30.0346V30.1557V30.8821V31.0032C5.28665 31.6103 5.81905 31.8556 6.466 31.9929C10.1073 32.7597 13.7438 33.5508 17.3818 34.337C17.5529 34.3741 17.719 34.4355 17.9562 34.5049C17.8465 34.739 17.7594 34.9343 17.6626 35.1248C16.8801 36.6682 16.0863 38.2084 15.3103 39.7566C14.7392 40.8964 14.8005 41.2402 15.7233 42.1508C15.9008 42.3267 16.0896 42.493 16.2944 42.6722C16.4638 42.8417 16.6332 43.0112 16.801 43.1808C19.1533 45.5362 21.5055 47.89 23.8594 50.2406C24.1401 50.5231 24.4208 50.804 24.7016 51.0833C24.8677 51.2754 25.0323 51.4579 25.2049 51.6338C25.8696 52.3135 26.373 52.3813 27.2055 51.9212C28.7397 51.0753 30.266 50.2164 31.7954 49.3624C31.9858 49.2558 32.1761 49.1525 32.4504 49.0023C32.6876 50.0662 32.9151 51.0591 33.1296 52.0536C33.7491 54.9256 34.3703 57.7977 34.9737 60.6746C35.1092 61.3284 35.4528 61.7659 36.0691 62H36.6741H36.7951C37.0597 61.7885 37.3485 61.5996 37.5873 61.3623C40.672 58.2852 43.7389 55.192 46.8365 52.1279C47.4028 51.566 47.6061 50.9655 47.5609 50.1809C47.377 46.8988 47.2399 43.6134 47.0656 40.3313C47.043 39.9342 47.2012 39.7308 47.4883 39.4854C47.6093 39.382 47.7303 39.2803 47.8513 39.1786C49.5728 37.9129 51.1748 36.5148 52.6671 34.9957C52.7172 34.9456 52.7672 34.8956 52.8156 34.8455C52.8736 34.789 52.9317 34.7309 52.9882 34.6728C58.2929 29.2629 61.8438 22.7746 64.2638 15.6372C65.7997 11.1104 66.7726 6.46896 66.942 1.67899C66.9839 0.477869 66.3999 -0.11785 65.1979 0.0193749ZM18.0917 40.3055C18.8355 38.8186 19.6002 37.3414 20.3472 35.8868C21.8379 37.3834 23.2818 38.8331 24.7048 40.2603C23.5835 41.3694 22.4122 42.5237 21.2071 43.7135L18.1095 40.6138C18.0691 40.5105 18.0562 40.3781 18.0917 40.3055ZM35.3109 47.3185C38.26 45.4991 41.1963 43.6586 44.1374 41.8247C44.1858 41.7956 44.2487 41.7891 44.3875 41.7472C44.5182 44.4981 44.6489 47.1958 44.7618 49.8935C44.7699 50.0921 44.7037 50.3536 44.5714 50.4876C42.174 52.9092 39.7621 55.3163 37.3501 57.725C37.3243 57.7492 37.2775 57.7525 37.1726 57.7896C36.9371 56.7305 36.6999 55.6796 36.4708 54.6286C35.9998 52.4443 35.5367 50.2567 35.0576 48.0741C34.9882 47.7528 34.9688 47.53 35.3109 47.3185ZM17.2237 22.1498C19.6954 22.2886 22.1702 22.4 24.6435 22.5211C24.7806 22.5276 24.9161 22.5485 25.1033 22.5679C23.9013 24.4842 22.7349 26.3166 21.5975 28.1667C20.9118 29.2823 20.2826 30.4317 19.6018 31.5489C19.5002 31.7152 19.2323 31.9283 19.0871 31.8976C15.7814 31.205 12.4837 30.4802 9.09251 29.7424C9.26191 29.5519 9.3813 29.4017 9.5152 29.2677C11.7497 27.0285 13.9906 24.7958 16.217 22.5485C16.5106 22.2515 16.801 22.1272 17.2237 22.1498ZM29.1882 39.7889C31.1259 37.8467 33.0635 35.9062 35.0043 33.9689C35.4609 33.512 35.6384 32.9873 35.398 32.3739C35.1947 31.8589 34.7752 31.4972 34.2412 31.5634C34.2235 31.565 34.2073 31.5683 34.1896 31.5715C33.9056 31.5618 33.6185 31.6425 33.3797 31.8185C33.3119 31.8686 33.249 31.9218 33.1861 31.98C33.1845 31.9816 33.1845 31.9816 33.1845 31.9816C33.1135 32.0332 33.0473 32.0865 32.9877 32.1446C31.0484 34.0254 29.1544 35.953 27.2426 37.8629C27.1038 38.0017 26.9554 38.1309 26.7682 38.3052C25.6292 37.1622 24.5225 36.0499 23.4141 34.9376C22.9591 34.4807 22.4864 34.0383 22.0573 33.5572C21.9492 33.4362 21.8831 33.1391 21.954 33.0132C25.1597 27.4047 28.4671 21.8592 33.0038 17.1887C36.8016 13.2786 41.1899 10.1595 46.0654 7.72336C46.4703 7.51995 46.693 7.59098 46.9914 7.89126C51.0022 11.9241 55.0242 15.9424 59.0447 19.9655C59.1124 20.0333 59.1802 20.0946 59.2367 20.1592C59.2367 20.1608 59.2383 20.1624 59.2383 20.164C59.3141 20.3045 59.3496 20.516 59.3157 20.6564C59.306 20.6774 59.2963 20.7 59.2851 20.7242C56.636 26.1406 53.2576 31.0291 48.7258 35.0393C45.9573 37.49 42.8258 39.4611 39.704 41.4275C37.7115 42.6835 35.6932 43.8992 33.754 45.0906C32.0971 43.431 30.4918 41.8263 28.8349 40.1667C28.8995 40.0972 29.0398 39.9374 29.1882 39.7889ZM49.4163 6.23164C54.0643 4.33955 58.9592 3.22237 64.146 2.82684C63.7508 7.95261 62.5359 12.8346 60.687 17.5196C56.9328 13.7597 53.1963 10.0174 49.4163 6.23164ZM26.8005 42.3429C28.1944 43.728 29.6174 45.1423 31.0936 46.6098C29.6061 47.4493 28.1089 48.2952 26.686 49.0992C25.5356 47.9514 24.4321 46.8503 23.3593 45.7784C24.4821 44.6563 25.6486 43.4923 26.8005 42.3429Z" fill="#EE3227"/>
<path d="M43.9003 30.1734C48.0401 30.1928 51.2619 27.0721 51.3103 22.9941C51.3587 19.0549 48.1417 15.7438 44.2504 15.7244C40.0992 15.7034 36.8984 18.8531 36.8742 22.9828C36.8516 26.8154 40.1138 30.154 43.9003 30.1734ZM44.0326 27.4418C41.6335 27.4418 39.6217 25.4254 39.5991 22.999C39.5765 20.5273 41.5916 18.4592 44.0439 18.4399C46.5106 18.4189 48.5515 20.4385 48.5677 22.915C48.5854 25.427 46.5655 27.4418 44.0326 27.4418Z" fill="#EE3227"/>
<defs>
<filter id="filter0_d_2_930" x="0.131821" y="39.1808" width="28.7276" height="28.6167" filterUnits="userSpaceOnUse" color-interpolation-filters="sRGB">
<feFlood flood-opacity="0" result="BackgroundImageFix"/>
<feColorMatrix in="SourceAlpha" type="matrix" values="0 0 0 0 0 0 0 0 0 0 0 0 0 0 0 0 0 0 127 0" result="hardAlpha"/>
<feOffset dy="1"/>
<feGaussianBlur stdDeviation="2.5"/>
<feComposite in2="hardAlpha" operator="out"/>
<feColorMatrix type="matrix" values="0 0 0 0 1 0 0 0 0 0.942999 0 0 0 0 0.108333 0 0 0 1 0"/>
<feBlend mode="normal" in2="BackgroundImageFix" result="effect1_dropShadow_2_930"/>
<feBlend mode="normal" in="SourceGraphic" in2="effect1_dropShadow_2_930" result="shape"/>
</filter>
</defs>
</svg>
