<svg width="63" height="62" viewBox="0 0 63 62" fill="none" xmlns="http://www.w3.org/2000/svg">
<path d="M28.253 61.9984C25.7951 61.9984 23.3372 61.9984 20.8793 61.9984C20.0992 61.9273 19.3192 61.8595 18.5391 61.7853C15.5848 61.5027 12.682 60.9942 9.91789 59.8559C5.83375 58.1736 2.94391 55.3612 1.68837 51.0392C0.840595 48.1201 0.78739 45.1366 1.30798 42.1707C2.67473 34.4034 6.67992 28.3716 13.3541 24.1464C13.5024 24.0528 13.6458 23.9495 13.7893 23.851C11.225 20.0133 11.6473 17.7756 15.4204 15.2312C15.364 15.0374 15.3075 14.8259 15.2399 14.6193C14.2744 11.6518 13.3122 8.68278 12.3371 5.71694C12.1711 5.21322 12.1131 4.73371 12.4242 4.27035C12.7626 3.76501 13.2703 3.62294 13.8425 3.62294C15.6347 3.62294 17.427 3.63262 19.2192 3.60841C19.4336 3.60518 19.7769 3.46794 19.8398 3.30649C20.5409 1.52732 21.8673 0.502109 23.658 0C24.3026 0 24.9473 0 25.592 0C27.3843 0.49888 28.7075 1.5257 29.4086 3.30488C29.4715 3.46633 29.8132 3.60518 30.0275 3.60679C31.8182 3.63101 33.6104 3.61163 35.4027 3.62617C36.7227 3.63585 37.3126 4.45602 36.9113 5.70564C36.3955 7.3153 35.8653 8.92172 35.3431 10.5298C34.8337 12.0958 34.326 13.6635 33.8054 15.2683C35.4962 16.0481 36.6131 17.2768 36.9677 19.0931C37.3255 20.9304 36.6889 22.4851 35.4269 23.8268C35.5719 23.9333 35.6477 23.9979 35.7331 24.0496C38.1281 25.4736 40.2105 27.2657 41.9899 29.4081C42.2445 29.7149 42.525 29.7633 42.8844 29.7633C47.8969 29.7552 52.9094 29.7584 57.9219 29.7552C59.208 29.7536 60.3218 30.1911 61.2856 31.0291C62.1688 31.7959 62.6539 32.7953 62.9441 33.9077C62.9441 34.5131 62.9441 35.1186 62.9441 35.724C62.691 36.6604 62.3139 37.5274 61.6547 38.262C61.5692 38.3573 61.5692 38.6608 61.6531 38.756C62.3106 39.4906 62.6894 40.3576 62.9424 41.294C62.9424 41.8995 62.9424 42.5049 62.9424 43.1104C62.6894 44.0468 62.3106 44.9138 61.6531 45.6484C61.5676 45.7436 61.5676 46.0471 61.6531 46.1424C62.3106 46.877 62.6894 47.744 62.9424 48.6804C62.9424 49.2858 62.9424 49.8913 62.9424 50.4967C62.6894 51.4331 62.3123 52.3017 61.6514 53.0347C61.566 53.1283 61.5676 53.4335 61.6514 53.5287C62.309 54.2633 62.6894 55.1319 62.9424 56.0667C62.9424 56.6722 62.9424 57.2776 62.9424 57.883C62.3928 60.0771 61.0213 61.4478 58.8325 62C53.272 62 47.7115 62 42.151 62C41.0631 61.7142 40.0654 61.2541 39.3289 60.3758C39.0533 60.0481 38.8164 60.0448 38.4505 60.1788C36.273 60.9716 34.0182 61.4317 31.7183 61.6706C30.5659 61.7885 29.4086 61.8886 28.253 61.9984ZM39.6561 31.0242C39.6367 30.9548 39.6351 30.9096 39.6142 30.8805C39.5287 30.7691 39.4417 30.6577 39.3466 30.5544C37.3319 28.328 34.9804 26.5601 32.2308 25.346C31.8939 25.1975 31.4991 25.1135 31.1316 25.1119C26.8411 25.0958 22.5507 25.0925 18.2602 25.1151C17.7961 25.1184 17.298 25.2265 16.8742 25.4187C8.59788 29.1692 3.17922 38.3427 3.84165 47.4049C4.19784 52.2872 6.63961 55.6066 11.1847 57.389C14.2599 58.595 17.4866 59.0713 20.7504 59.1569C23.9062 59.2392 27.07 59.1779 30.2242 59.0358C32.6982 58.9244 35.1319 58.44 37.4818 57.6069C37.8477 57.4778 38.0314 57.3115 38.0234 56.8788C38.0008 55.6582 38.4392 54.583 39.2402 53.6773C39.5223 53.3592 39.4933 53.1848 39.2338 52.8765C37.5721 50.8971 37.5737 48.2558 39.2419 46.2909C39.5142 45.9696 39.4949 45.7985 39.2322 45.4885C37.5705 43.5253 37.5721 40.8775 39.2419 38.903C39.5159 38.5785 39.4884 38.4073 39.2273 38.0989C37.527 36.0889 37.5914 33.3281 39.3563 31.3697C39.4627 31.2535 39.5642 31.1308 39.6561 31.0242ZM15.5606 6.42409C15.5831 6.63721 15.5767 6.74053 15.6057 6.83256C16.4454 9.41576 17.2948 11.9973 18.1216 14.5854C18.2457 14.9713 18.4907 14.9874 18.8131 14.9874C22.678 14.9826 26.5414 14.9777 30.4063 14.9939C30.8382 14.9955 31.0429 14.8728 31.1767 14.4465C31.9536 11.9909 32.7627 9.54492 33.5573 7.09572C33.6169 6.91006 33.6539 6.71793 33.7249 6.43701C32.4484 6.43701 31.2476 6.42409 30.0485 6.458C29.9341 6.46123 29.7423 6.74215 29.7294 6.90521C29.6875 7.48643 29.7326 8.07411 29.6987 8.65694C29.6423 9.60143 28.9638 10.1939 28.1128 10.0777C27.3907 9.97922 26.933 9.39316 26.9201 8.49872C26.9024 7.26847 26.9362 6.03823 26.8959 4.80959C26.8572 3.68267 25.8644 2.76564 24.704 2.70913C23.5903 2.65424 22.512 3.54867 22.3589 4.6546C22.1542 6.12702 21.8141 6.42409 20.3281 6.42571C20.067 6.42571 19.8043 6.42571 19.5432 6.42571C18.2393 6.42409 16.9354 6.42409 15.5606 6.42409ZM50.4338 59.2989C52.911 59.2989 55.3882 59.3151 57.8655 59.2925C59.2161 59.2796 60.2476 58.2414 60.2476 56.9724C60.2476 55.7034 59.2161 54.6944 57.8655 54.6492C57.6044 54.6395 57.3417 54.646 57.0806 54.646C52.4887 54.646 47.8953 54.6443 43.3034 54.6476C42.085 54.6492 41.1856 55.253 40.8681 56.2605C40.3797 57.8071 41.4838 59.2796 43.1842 59.2941C45.6002 59.3151 48.0178 59.2989 50.4338 59.2989ZM50.4966 37.1415C52.8933 37.1415 55.2915 37.1787 57.6866 37.1157C58.27 37.1012 58.9196 36.8703 59.4079 36.5442C60.1944 36.0195 60.4185 34.9474 60.1042 34.0433C59.7867 33.1295 58.9244 32.5112 57.8639 32.495C56.5342 32.474 55.2045 32.4886 53.8764 32.4886C50.3516 32.4886 46.8267 32.4853 43.3018 32.4902C42.085 32.4918 41.184 33.1005 40.8681 34.1063C40.3813 35.6546 41.4886 37.1238 43.1858 37.1367C45.6211 37.1545 48.0597 37.1399 50.4966 37.1415ZM50.4595 44.5263C52.9174 44.5263 55.3737 44.5392 57.8316 44.5214C59.1903 44.5117 60.2186 43.514 60.2476 42.2369C60.275 40.9776 59.2467 39.891 57.9009 39.8862C52.9658 39.8636 48.0323 39.8684 43.0971 39.883C42.0189 39.8862 41.1501 40.5611 40.8616 41.5136C40.3894 43.0668 41.5015 44.5117 43.2083 44.523C45.6259 44.5392 48.0419 44.5263 50.4595 44.5263ZM50.5466 47.2612C48.0887 47.2612 45.6324 47.2483 43.1745 47.2661C41.7836 47.2758 40.7359 48.3042 40.7424 49.5958C40.7488 50.8906 41.7981 51.8884 43.1922 51.911C44.0577 51.9239 44.9248 51.9142 45.7903 51.9142C49.7584 51.9142 53.7265 51.9174 57.6946 51.9126C58.9067 51.911 59.8108 51.2991 60.1235 50.2916C60.6054 48.7417 59.4998 47.2806 57.7978 47.2661C55.3802 47.2467 52.9626 47.2612 50.5466 47.2612ZM24.5847 22.3673C27.02 22.3673 29.4554 22.3786 31.8907 22.3624C33.2752 22.3527 34.2696 21.384 34.2825 20.0844C34.2954 18.7621 33.3509 17.7353 31.9745 17.7272C27.0829 17.7014 22.1913 17.7062 17.3013 17.7256C16.2923 17.7288 15.5219 18.2212 15.1238 19.177C14.4743 20.735 15.6251 22.3527 17.398 22.364C19.793 22.3802 22.1897 22.3689 24.5847 22.3673Z" fill="#EE3227"/>
<g filter="url(#filter0_d_2_984)">
<path d="M19.656 46.9415C19.6447 45.7484 20.0718 45.2156 20.8277 45.1704C21.6191 45.1236 22.0946 45.5821 22.2154 46.504C22.4185 48.0701 23.6418 49.0501 25.0505 48.774C26.2383 48.5415 27.0281 47.5082 26.962 46.2731C26.8975 45.0752 25.9676 44.1291 24.7297 44.0661C23.5951 44.008 22.5442 43.7351 21.6255 43.0409C18.5971 40.7564 19.0935 36.076 22.5619 34.5228C23.1712 34.25 23.3662 33.9238 23.3259 33.3006C23.2824 32.6177 23.3034 31.9299 23.3227 31.2438C23.3485 30.3897 23.9094 29.8069 24.6524 29.8246C25.3777 29.8424 25.9031 30.4074 25.9257 31.2389C25.9466 31.9848 25.9611 32.7323 25.9241 33.4766C25.8983 33.9932 26.0788 34.2548 26.5639 34.4744C28.4077 35.3107 29.4409 36.7573 29.5633 38.798C29.6165 39.6844 29.1669 40.2397 28.4335 40.3076C27.6405 40.3802 27.1377 39.933 26.9926 39.0273C26.767 37.6194 26.0288 36.8025 24.8732 36.6814C23.5322 36.5409 22.3637 37.4983 22.2299 38.8513C22.0994 40.1542 23.1196 41.3489 24.4848 41.4151C25.7983 41.4797 26.9781 41.8413 27.9581 42.7487C30.6174 45.2059 29.9131 49.5376 26.5977 50.9875C26.0884 51.2103 25.8692 51.4783 25.9273 52.0224C25.9627 52.3614 25.9385 52.7069 25.9305 53.0508C25.9095 53.9678 25.4002 54.5652 24.6379 54.5749C23.8771 54.5846 23.342 53.9824 23.3179 53.0782C23.3082 52.6746 23.2921 52.2694 23.3179 51.869C23.3469 51.4379 23.1599 51.2313 22.7683 51.0617C20.8374 50.2319 19.793 48.7482 19.656 46.9415Z" fill="#F9EB1E"/>
</g>
<defs>
<filter id="filter0_d_2_984" x="14.6279" y="25.8242" width="19.957" height="34.7508" filterUnits="userSpaceOnUse" color-interpolation-filters="sRGB">
<feFlood flood-opacity="0" result="BackgroundImageFix"/>
<feColorMatrix in="SourceAlpha" type="matrix" values="0 0 0 0 0 0 0 0 0 0 0 0 0 0 0 0 0 0 127 0" result="hardAlpha"/>
<feOffset dy="1"/>
<feGaussianBlur stdDeviation="2.5"/>
<feComposite in2="hardAlpha" operator="out"/>
<feColorMatrix type="matrix" values="0 0 0 0 1 0 0 0 0 0.942999 0 0 0 0 0.108333 0 0 0 1 0"/>
<feBlend mode="normal" in2="BackgroundImageFix" result="effect1_dropShadow_2_984"/>
<feBlend mode="normal" in="SourceGraphic" in2="effect1_dropShadow_2_984" result="shape"/>
</filter>
</defs>
</svg>
