<svg width="73" height="62" viewBox="0 0 73 62" fill="none" xmlns="http://www.w3.org/2000/svg">
<path d="M38.4228 0C39.8242 0.268002 41.2724 0.389087 42.6172 0.826607C50.6056 3.4259 55.5265 8.86504 56.8294 17.1747C58.0499 24.9581 55.0954 31.1834 48.8426 35.8832C48.4325 36.1915 48.1742 36.4837 48.2582 37.0181C48.2953 37.2538 48.2775 37.5025 48.2614 37.743C48.2 38.7198 48.3502 39.5302 49.0702 40.3633C50.5168 42.0391 50.3941 44.6045 49.0186 46.3546C48.9072 46.4951 48.7958 46.6355 48.665 46.8002C49.6192 47.8528 50.1164 49.0653 50.0777 50.4909C50.0131 52.8512 48.1339 54.8935 45.7783 55.1325C45.5975 55.1502 45.4167 55.1987 45.2375 55.1906C44.8355 55.1744 44.7047 55.3682 44.6127 55.7492C43.8474 58.9345 41.9036 61.022 38.6973 61.7889C34.4642 62.8028 30.2068 60.0598 29.3318 55.8025C29.2414 55.3585 29.0767 55.2035 28.6327 55.1793C25.8703 55.0291 24.2139 53.0756 23.9185 51.085C23.7134 49.7046 24.0121 48.4421 24.8532 47.3168C24.984 47.1425 25.1228 46.9729 25.2746 46.7808C24.335 45.7637 23.8329 44.5835 23.8684 43.2048C23.9023 41.8793 24.3786 40.7411 25.3021 39.774C25.499 39.569 25.6427 39.2332 25.6589 38.9507C25.7041 38.1257 25.9059 37.1925 25.5991 36.4999C25.3101 35.846 24.4512 35.4424 23.8458 34.9274C20.0324 31.6888 17.5817 27.6365 17.0118 22.6494C16.1739 15.3084 18.6795 9.20085 24.3527 4.46723C27.4848 1.85341 31.1497 0.421376 35.2262 0.0774944C35.3247 0.069422 35.4199 0.027446 35.5152 0C36.4855 0 37.4542 0 38.4228 0ZM34.9017 33.4324C34.9017 34.8644 34.9162 36.2981 34.8936 37.7301C34.8855 38.2177 35.0325 38.4195 35.5459 38.4033C36.4532 38.3727 37.3637 38.3581 38.2678 38.4082C38.8975 38.4421 39.0525 38.2048 39.046 37.609C39.0202 34.8451 39.046 32.0811 39.0266 29.3171C39.0218 28.6842 39.2252 28.1935 39.6789 27.7608C40.4393 27.0391 41.1707 26.2851 41.9198 25.5506C42.5833 24.9016 43.2469 24.2525 43.9249 23.6197C44.4642 23.1176 45.2343 23.0982 45.738 23.547C46.2675 24.0184 46.3111 24.7805 45.8203 25.3956C45.633 25.6313 45.4086 25.8379 45.1939 26.0511C44.13 27.0972 43.0547 28.1337 42.0021 29.1928C41.8455 29.351 41.6937 29.6013 41.6921 29.8111C41.6711 32.5138 41.6792 35.218 41.676 37.9206C41.676 38.2484 41.8132 38.3985 42.1458 38.3969C43.1145 38.3904 44.0832 38.3872 45.0502 38.4001C45.4296 38.405 45.5378 38.229 45.5265 37.8803C45.5087 37.3362 45.5733 36.7856 45.512 36.248C45.3893 35.1873 45.8671 34.569 46.7244 33.9749C52.4219 30.0372 55.0163 24.6352 54.1461 17.6994C53.1662 9.88054 46.5226 3.47433 38.6472 2.84631C32.3653 2.34582 27.1603 4.56894 23.2372 9.52859C18.7441 15.2083 18.3905 23.1612 22.2782 29.1008C23.623 31.156 25.3666 32.8237 27.438 34.1331C28.1419 34.5787 28.4987 35.1276 28.4277 35.9768C28.3776 36.5774 28.4487 37.1876 28.4083 37.7915C28.376 38.2903 28.5859 38.4179 29.0412 38.405C29.8871 38.3807 30.7364 38.3711 31.5823 38.4082C32.1248 38.4324 32.2717 38.2241 32.2669 37.7059C32.2459 35.1841 32.2475 32.6623 32.2669 30.1405C32.2701 29.6771 32.1216 29.3462 31.7938 29.0265C30.6104 27.8706 29.4399 26.7017 28.284 25.5183C27.5865 24.8047 27.7173 23.7811 28.5213 23.371C29.0444 23.103 29.6805 23.2112 30.181 23.7068C31.6017 25.1098 33.0305 26.5063 34.4028 27.9577C34.6886 28.2596 34.8597 28.7763 34.8775 29.2025C34.9356 30.6055 34.9001 32.0197 34.9017 33.4324ZM37.0053 41.1899C37.0053 41.1883 37.0053 41.1883 37.0053 41.1867C34.3221 41.1867 31.6405 41.1851 28.9572 41.1899C28.6779 41.1899 28.3857 41.1915 28.1193 41.261C27.086 41.5338 26.5468 42.4653 26.6937 43.6714C26.8116 44.6416 27.5736 45.3714 28.581 45.3746C34.1881 45.3875 39.7951 45.3811 45.4038 45.3762C45.5814 45.3762 45.7654 45.3343 45.9333 45.2745C46.9133 44.9323 47.4235 43.9797 47.2459 42.8383C47.1006 41.8987 46.2998 41.1964 45.2956 41.1931C42.5333 41.1818 39.7693 41.1899 37.0053 41.1899ZM36.9682 48.1919C34.3253 48.1919 31.6808 48.1886 29.0379 48.1967C28.6989 48.1983 28.3437 48.208 28.0224 48.3033C27.0279 48.5971 26.5226 49.548 26.6953 50.7153C26.839 51.692 27.6269 52.3798 28.6827 52.3943C30.0744 52.4153 31.4677 52.4008 32.8594 52.4008C36.9553 52.4008 41.0528 52.404 45.1487 52.3976C46.2159 52.3959 47.0344 51.7679 47.2378 50.8234C47.5559 49.3575 46.6485 48.2048 45.139 48.1967C42.417 48.1838 39.6918 48.1935 36.9682 48.1919ZM32.0974 55.2406C32.3831 57.4686 34.5917 59.2316 37.0053 59.2171C39.3915 59.2025 41.5936 57.4153 41.8374 55.2406C38.6004 55.2406 35.3715 55.2406 32.0974 55.2406Z" fill="#EE3227"/>
<g filter="url(#filter0_d_2_104)">
<path d="M5.97205 18.7682C6.32239 18.0207 6.90359 17.7446 7.72697 17.7833C8.83127 17.8334 9.93879 17.7882 11.0447 17.7995C11.881 17.8075 12.4218 18.2919 12.467 19.0442C12.5058 19.7013 12.0134 20.3293 11.2497 20.3632C9.88713 20.4246 8.51968 20.3907 7.15545 20.3632C6.52581 20.3503 6.23036 19.8676 5.97205 19.3736C5.97205 19.1718 5.97205 18.97 5.97205 18.7682Z" fill="#F9EB1E"/>
<path d="M64.7403 17.7979C65.3635 17.7979 65.9883 17.7849 66.6115 17.8011C67.359 17.8221 67.9014 18.329 67.9418 19.0136C67.9805 19.669 67.5204 20.3132 66.8149 20.3471C65.4329 20.4133 64.0429 20.4214 62.6593 20.3568C61.9005 20.3213 61.4177 19.6706 61.4759 19.0119C61.5404 18.2806 62.0684 17.8205 62.8691 17.7962C62.9095 17.7946 62.9499 17.7946 62.9902 17.7946C63.5731 17.7946 64.1575 17.7946 64.7403 17.7946C64.7403 17.7962 64.7403 17.7979 64.7403 17.7979Z" fill="#F9EB1E"/>
<path d="M12.4477 12.6509C12.1038 12.5315 11.831 12.4604 11.5775 12.3474C10.5701 11.8905 9.56747 11.4256 8.5665 10.9541C7.72859 10.5602 7.40731 9.82079 7.74958 9.09105C8.06763 8.41136 8.84419 8.19663 9.66434 8.57119C10.7606 9.07329 11.8665 9.55763 12.9449 10.1001C13.8361 10.5473 13.9863 11.6435 13.2565 12.2506C13.024 12.4443 12.7028 12.5299 12.4477 12.6509Z" fill="#F9EB1E"/>
<path d="M61.6211 12.5831C60.9834 12.5702 60.5104 12.2134 60.3505 11.671C60.1794 11.0833 60.3812 10.4456 60.943 10.1679C62.1668 9.56085 63.4067 8.98287 64.6644 8.4501C65.286 8.18694 65.9592 8.51306 66.2417 9.09104C66.5307 9.68032 66.3854 10.4375 65.7994 10.7346C64.5288 11.3787 63.2178 11.9487 61.9198 12.5412C61.8165 12.588 61.6841 12.5751 61.6211 12.5831Z" fill="#F9EB1E"/>
<path d="M8.88133 29.7902C8.27429 29.7805 7.7738 29.4092 7.61074 28.8796C7.44768 28.3533 7.62204 27.7027 8.12576 27.4508C9.40442 26.8099 10.7041 26.2061 12.0215 25.6458C12.5688 25.4134 13.2162 25.7556 13.5036 26.29C13.7812 26.8066 13.7005 27.601 13.1839 27.869C11.8633 28.5551 10.491 29.1444 9.13642 29.7643C9.04923 29.8047 8.93622 29.7853 8.88133 29.7902Z" fill="#F9EB1E"/>
<path d="M64.9114 29.7901C64.8145 29.7642 64.5691 29.7352 64.3528 29.6367C63.2307 29.1314 62.1087 28.626 61.0028 28.0884C60.3037 27.7478 60.0518 27.0148 60.3537 26.3593C60.6589 25.6942 61.3612 25.4052 62.0812 25.7184C63.263 26.235 64.4367 26.7759 65.5943 27.3458C66.2046 27.6461 66.429 28.245 66.2611 28.8763C66.1125 29.4301 65.6508 29.782 64.9114 29.7901Z" fill="#F9EB1E"/>
</g>
<defs>
<filter id="filter0_d_2_104" x="0.972046" y="4.35779" width="71.972" height="31.4329" filterUnits="userSpaceOnUse" color-interpolation-filters="sRGB">
<feFlood flood-opacity="0" result="BackgroundImageFix"/>
<feColorMatrix in="SourceAlpha" type="matrix" values="0 0 0 0 0 0 0 0 0 0 0 0 0 0 0 0 0 0 127 0" result="hardAlpha"/>
<feOffset dy="1"/>
<feGaussianBlur stdDeviation="2.5"/>
<feComposite in2="hardAlpha" operator="out"/>
<feColorMatrix type="matrix" values="0 0 0 0 1 0 0 0 0 0.942999 0 0 0 0 0.108333 0 0 0 1 0"/>
<feBlend mode="normal" in2="BackgroundImageFix" result="effect1_dropShadow_2_104"/>
<feBlend mode="normal" in="SourceGraphic" in2="effect1_dropShadow_2_104" result="shape"/>
</filter>
</defs>
</svg>
