<svg width="24" height="20" viewBox="0 0 24 20" fill="none" xmlns="http://www.w3.org/2000/svg">
<path fill-rule="evenodd" clip-rule="evenodd" d="M1.31027 11.5555C1.56131 5.86895 6.25096 1.33521 12 1.33521C17.749 1.33521 22.4387 5.86895 22.6897 11.5555H23.52C23.7851 11.5555 24 11.7704 24 12.0355C24 12.3006 23.7851 12.5155 23.52 12.5155H0.48C0.214903 12.5155 0 12.3006 0 12.0355C0 11.7704 0.214903 11.5555 0.48 11.5555H1.31027ZM2.27131 11.5555H21.7287C21.4785 6.39932 17.2187 2.29521 12 2.29521C6.78127 2.29521 2.52154 6.39932 2.27131 11.5555Z" fill="#5F6A81"/>
<path fill-rule="evenodd" clip-rule="evenodd" d="M12 0C12.2651 0 12.48 0.214903 12.48 0.48V1.81514C12.48 2.08023 12.2651 2.29514 12 2.29514C11.7349 2.29514 11.52 2.08023 11.52 1.81514V0.48C11.52 0.214903 11.7349 0 12 0ZM8.14552 4.03529C8.29036 4.25732 8.22779 4.55473 8.00576 4.69957C7.01496 5.34593 6.19607 6.22339 5.61959 7.25642C5.04311 8.28945 4.72631 9.4471 4.69645 10.6297C4.68976 10.8947 4.46951 11.1041 4.20449 11.0974C3.93948 11.0908 3.73007 10.8705 3.73676 10.6055C3.77054 9.26735 4.129 7.95748 4.78129 6.78861C5.43358 5.61974 6.36015 4.62689 7.48124 3.89553C7.70327 3.75069 8.00068 3.81326 8.14552 4.03529ZM1.14012 13.793C1.23112 13.6924 1.36045 13.635 1.49612 13.635H16.2417C16.8081 13.635 17.1705 14.0411 17.2726 14.4548C17.3149 14.6259 17.3168 14.8202 17.2663 15.0055C18.1782 14.7973 19.3373 14.5028 20.9898 14.083C21.1797 14.0348 21.3761 13.9849 21.5794 13.9333L21.5798 13.9332C22.1593 13.7866 22.6784 14.0796 22.8476 14.5307C22.9227 14.7311 22.9483 15.009 22.8319 15.2793C22.706 15.5718 22.4446 15.7849 22.0809 15.8793L22.0808 15.8793C21.8813 15.931 21.3673 16.1326 20.6355 16.4324C20.3843 16.5353 20.1112 16.6482 19.8237 16.767C19.2986 16.9839 18.7253 17.2208 18.1494 17.4533C17.2569 17.8137 16.3441 18.1696 15.566 18.4359C15.1772 18.5689 14.8158 18.6818 14.5039 18.7619C14.2015 18.8395 13.911 18.8958 13.6778 18.8958C13.0004 18.8958 11.707 18.8247 10.4064 18.7533L10.2974 18.7473C8.94476 18.6731 7.59985 18.6004 6.87212 18.6004C6.21507 18.6004 5.47353 18.8123 4.87192 19.0415C4.57625 19.1542 4.32465 19.2669 4.14753 19.3513C4.05913 19.3934 3.9897 19.4282 3.94309 19.4521C3.91979 19.464 3.90222 19.4732 3.89087 19.4793L3.87856 19.4858L3.87603 19.4872L3.87596 19.4872C3.87592 19.4872 3.87588 19.4873 3.87583 19.4873C3.69456 19.5859 3.47056 19.5576 3.3195 19.417C2.01461 18.2025 1.2269 16.2345 1.01853 14.163C1.00495 14.028 1.04912 13.8936 1.14012 13.793ZM3.74134 18.4814C3.93601 18.3889 4.20913 18.2667 4.53016 18.1444C5.16916 17.901 6.04042 17.6404 6.87212 17.6404C7.63312 17.6404 9.01165 17.7153 10.35 17.7888L10.4242 17.7929C11.7517 17.8657 13.0274 17.9358 13.6778 17.9358C13.7842 17.9358 13.9774 17.9059 14.2652 17.8321C14.5433 17.7606 14.8786 17.6565 15.2551 17.5276C16.0079 17.2699 16.9013 16.922 17.79 16.5632C18.3631 16.3317 18.9284 16.0982 19.4507 15.8823C19.7394 15.763 20.015 15.6492 20.2716 15.5441C20.9702 15.2579 21.5609 15.0224 21.8399 14.95L21.9604 15.4146L21.8398 14.95C21.8398 14.95 21.8399 14.95 21.8399 14.95C21.9057 14.9329 21.9345 14.9131 21.9436 14.9058C21.9475 14.9026 21.9494 14.9005 21.9502 14.8995C21.9502 14.8997 21.9501 14.8998 21.9501 14.8997C21.9505 14.8988 21.9508 14.8986 21.9506 14.8989C21.9505 14.8991 21.9504 14.8992 21.9502 14.8995C21.9505 14.8986 21.9517 14.8947 21.9516 14.8873C21.9516 14.8829 21.9511 14.8785 21.9503 14.8744C21.9522 14.8761 21.953 14.8771 21.9531 14.8772C21.9533 14.8773 21.9513 14.8748 21.9487 14.8678C21.9487 14.8677 21.9489 14.8683 21.9492 14.8695L21.9503 14.8744C21.9503 14.8744 21.9503 14.8744 21.9503 14.8744C21.948 14.8723 21.9439 14.8693 21.9376 14.8662C21.9245 14.8596 21.8874 14.8456 21.8152 14.8639L21.6975 14.3985L21.8156 14.8638C21.6034 14.9176 21.3984 14.9697 21.2003 15.02C18.7578 15.6406 17.3564 15.9967 16.2347 16.2008C15.0924 16.4087 14.2373 16.4596 12.8877 16.4809C12.7788 16.4839 12.6681 16.4854 12.5553 16.4854C12.2914 16.4854 12.0769 16.2723 12.0753 16.0083C12.0737 15.7444 12.2856 15.5286 12.5495 15.5254C12.6588 15.5241 12.7646 15.5227 12.8672 15.5211C14.508 15.4751 15.6475 15.0736 16.3267 14.765M3.74134 18.4814C2.88346 17.5568 2.28296 16.1631 2.0409 14.595H16.2417C16.2751 14.595 16.29 14.6043 16.3004 14.6134C16.3153 14.6264 16.3322 14.6509 16.3406 14.6849C16.3492 14.7195 16.3442 14.7442 16.3404 14.7537C16.3395 14.7558 16.3389 14.757 16.3386 14.7575L16.338 14.7582C16.3379 14.7583 16.3374 14.7588 16.336 14.7598C16.3347 14.7608 16.3318 14.7627 16.3267 14.765" fill="#5F6A81"/>
</svg>
