<svg width="24" height="24" viewBox="0 0 24 24" fill="none" xmlns="http://www.w3.org/2000/svg">
<path d="M22.4965 20.8021H22.8001C23.1183 20.8021 23.4235 20.6757 23.6485 20.4506C23.8736 20.2256 24 19.9204 24 19.6021C24 19.2839 23.8736 18.9787 23.6485 18.7537C23.4235 18.5286 23.1183 18.4022 22.8001 18.4022V18.0022C22.7994 17.472 22.5885 16.9637 22.2136 16.5888C21.8387 16.2139 21.3304 16.003 20.8002 16.0023H12.4277L15.0216 8.86906C15.1348 9.07131 15.2239 9.28609 15.2872 9.50903C15.3028 9.57292 15.3339 9.63198 15.3778 9.68098C15.4216 9.72998 15.4769 9.76741 15.5387 9.78996C15.6005 9.8125 15.6668 9.81947 15.732 9.81023C15.7971 9.801 15.8589 9.77585 15.912 9.73701C15.922 9.72981 16.9191 9.01465 17.8287 9.34623C18.7382 9.67782 19.043 10.8662 19.0458 10.8766C19.0614 10.9405 19.0924 10.9996 19.1363 11.0486C19.1801 11.0977 19.2354 11.1352 19.2972 11.1578C19.359 11.1803 19.4254 11.1873 19.4905 11.1781C19.5556 11.1689 19.6175 11.1438 19.6706 11.1049C19.6802 11.0974 20.6794 10.3826 21.5877 10.7142C22.4961 11.0458 22.8021 12.2341 22.8049 12.2445C22.8252 12.3279 22.8719 12.4025 22.938 12.4573C23.004 12.5121 23.0859 12.5442 23.1716 12.5489H23.1932C23.2753 12.5489 23.3555 12.5237 23.4227 12.4766C23.49 12.4295 23.5411 12.3628 23.5692 12.2857C24.96 8.45907 23.0164 3.14573 16.6687 0.835835C13.0085 -0.495702 10.2467 0.00867455 8.57433 0.666643C7.54034 1.05343 6.60012 1.65508 5.81572 2.4319C5.03131 3.20872 4.42056 4.14305 4.02375 5.17323C3.99444 5.25382 3.99181 5.3417 4.01624 5.42389C4.04068 5.50609 4.09088 5.57826 4.15945 5.62976C4.22802 5.68125 4.31133 5.70935 4.39708 5.7099C4.48283 5.71045 4.56649 5.68342 4.63572 5.63281C4.64572 5.62561 5.64407 4.91284 6.55282 5.24203C7.46158 5.57121 7.76717 6.76195 7.76997 6.77235C7.78553 6.83621 7.8166 6.89525 7.86041 6.94425C7.90422 6.99325 7.95944 7.03069 8.02117 7.05327C8.0829 7.07585 8.14924 7.08287 8.21433 7.07371C8.27941 7.06455 8.34124 7.03949 8.39434 7.00074C8.40474 6.99354 9.40189 6.27798 10.3114 6.60996C11.221 6.94195 11.5258 8.12989 11.5286 8.13989C11.5442 8.20375 11.5752 8.26279 11.619 8.31179C11.6628 8.36078 11.7181 8.39823 11.7798 8.42081C11.8415 8.44339 11.9079 8.45041 11.9729 8.44125C12.038 8.43208 12.0999 8.40702 12.153 8.36828C12.3444 8.23818 12.5503 8.1308 12.7665 8.04829L10.2714 14.9076L5.41568 10.0518C5.04016 9.67717 4.53138 9.46678 4.00095 9.46678C3.47051 9.46678 2.96173 9.67717 2.58621 10.0518L2.16503 10.473L2.04984 10.3574C1.82277 10.1378 1.51946 10.0148 1.2036 10.0141C0.887749 10.0135 0.583919 10.1352 0.355918 10.3538C0.243379 10.4644 0.153956 10.5962 0.0928527 10.7417C0.0317497 10.8872 0.000186934 11.0433 8.27847e-07 11.2011C-0.000185279 11.3589 0.031009 11.5152 0.0917687 11.6608C0.152528 11.8064 0.24164 11.9385 0.353918 12.0493L6.70322 18.4022H4.8969C4.58191 18.4012 4.26983 18.4626 3.97873 18.583C3.68763 18.7033 3.42328 18.8802 3.20098 19.1034L0.355918 21.9532C0.243449 22.064 0.15413 22.196 0.0931629 22.3415C0.0321957 22.4871 0.000798044 22.6434 0.000798044 22.8012C0.000798044 22.959 0.0321957 23.1153 0.0931629 23.2609C0.15413 23.4064 0.243449 23.5384 0.355918 23.6492C0.466796 23.7609 0.598704 23.8496 0.744035 23.9102C0.889365 23.9707 1.04524 24.0019 1.20268 24.0019C1.36011 24.0019 1.51599 23.9707 1.66132 23.9102C1.80665 23.8496 1.93856 23.7609 2.04944 23.6492L4.8969 20.8021H8.12555L7.25279 23.202H5.60087C5.49479 23.202 5.39305 23.2441 5.31804 23.3191C5.24303 23.3941 5.20089 23.4959 5.20089 23.602C5.20089 23.708 5.24303 23.8098 5.31804 23.8848C5.39305 23.9598 5.49479 24.0019 5.60087 24.0019H11.2006C11.3067 24.0019 11.4084 23.9598 11.4834 23.8848C11.5584 23.8098 11.6006 23.708 11.6006 23.602C11.6006 23.4959 11.5584 23.3941 11.4834 23.3191C11.4084 23.2441 11.3067 23.202 11.2006 23.202H9.80787L10.6806 20.8021H19.1026L21.9537 23.6492C22.1783 23.8737 22.483 23.9999 22.8006 23.9998C23.1182 23.9998 23.4228 23.8736 23.6474 23.649C23.872 23.4243 23.9981 23.1197 23.9981 22.8021C23.9981 22.4844 23.8718 22.1798 23.6472 21.9552L22.4965 20.8021ZM14.3437 7.22553C13.7948 7.04171 13.2 7.04776 12.6549 7.24273C13.2073 5.82732 13.8992 4.47042 14.7204 3.19212C15.7012 1.73219 16.2636 1.5366 16.396 1.5878C16.5284 1.639 16.8359 2.14497 16.6487 3.89369C16.4558 5.4003 16.1134 6.88395 15.6264 8.32268C15.334 7.8234 14.8822 7.43696 14.3437 7.22553ZM18.1035 8.59347C17.5398 8.40543 16.9287 8.41615 16.372 8.62387C16.8863 7.11593 17.2452 5.55939 17.4431 3.97849C17.52 3.37601 17.5243 2.76648 17.4559 2.16297C18.3705 2.87364 19.0301 3.86164 19.3358 4.97884C19.7667 6.50532 19.7751 8.12012 19.3602 9.65102C19.0687 9.16967 18.6266 8.79794 18.1023 8.59347H18.1035ZM23.0956 10.979C22.8037 10.5165 22.3708 10.1602 21.8609 9.9626C21.6089 9.87173 21.3428 9.82583 21.0749 9.82701C20.7402 9.83158 20.4087 9.89298 20.0946 10.0086C20.5858 8.2903 20.5878 6.46899 20.1002 4.74965C19.9282 4.18129 19.6849 3.63699 19.3762 3.12973C22.4273 5.27523 23.56 8.36948 23.0944 10.979H23.0956ZM6.82601 4.49006C6.30787 4.31415 5.74681 4.30994 5.22609 4.47806C6.05643 3.07261 7.33994 1.99122 8.86592 1.41141C10.2282 0.891539 11.693 0.696916 13.1437 0.843035C12.5731 1.03398 12.0292 1.29717 11.5254 1.6262C10.0486 2.62947 8.8806 4.02436 8.15235 5.65441C7.85818 5.1246 7.38946 4.71313 6.82601 4.49006ZM10.5858 5.858C10.0537 5.67869 9.47739 5.67967 8.94591 5.8608C9.61118 4.42161 10.6548 3.1901 11.9654 2.29777C12.9178 1.63811 14.0583 1.30482 15.216 1.34781C14.7755 1.76644 14.3869 2.23645 14.0585 2.74774C13.1943 4.08654 12.4693 5.51013 11.8946 6.99634C11.6014 6.47787 11.1389 6.07596 10.5846 5.858H10.5858ZM13.6749 7.8979C13.9467 7.91294 14.208 8.00783 14.4261 8.17069L11.5766 16.0023H11.5326C11.4795 16.0023 11.4269 15.9916 11.3779 15.971C11.329 15.9504 11.2846 15.9203 11.2474 15.8823L10.8958 15.5307L13.6749 7.8979ZM3.15299 10.6178C3.37833 10.3928 3.68373 10.2665 4.00215 10.2665C4.32056 10.2665 4.62596 10.3928 4.85131 10.6178L10.6806 16.4491C10.7922 16.5615 10.9249 16.6506 11.0712 16.7112C11.2174 16.7718 11.3743 16.8028 11.5326 16.8023H20.8002C21.1184 16.8023 21.4236 16.9287 21.6486 17.1537C21.8737 17.3788 22.0001 17.684 22.0001 18.0022V18.4022H10.0987L2.73101 11.0382L3.15299 10.6178ZM0.917892 11.4825C0.880158 11.4459 0.850218 11.402 0.829872 11.3535C0.809525 11.305 0.799191 11.2529 0.79949 11.2003C0.799789 11.1477 0.810714 11.0957 0.831611 11.0474C0.852507 10.9991 0.882943 10.9556 0.921092 10.9194C0.99586 10.8461 1.09638 10.805 1.20108 10.805C1.30577 10.805 1.4063 10.8461 1.48107 10.9194L8.96671 18.4022H7.83476L0.917892 11.4825ZM4.33413 20.2357L1.48107 23.082C1.40609 23.1567 1.30454 23.1987 1.19868 23.1987C1.09281 23.1987 0.991267 23.1567 0.916292 23.082C0.879155 23.0453 0.849759 23.0015 0.829843 22.9532C0.809927 22.905 0.799895 22.8532 0.800343 22.801C0.80079 22.7488 0.811708 22.6972 0.832448 22.6493C0.853189 22.6013 0.883331 22.5581 0.921092 22.522L3.76896 19.6705C3.91669 19.5218 4.09244 19.4038 4.28605 19.3235C4.47965 19.2431 4.68727 19.2018 4.8969 19.2022H22.8001C22.9061 19.2022 23.0079 19.2443 23.0829 19.3193C23.1579 19.3943 23.2 19.4961 23.2 19.6021C23.2 19.7082 23.1579 19.81 23.0829 19.885C23.0079 19.96 22.9061 20.0021 22.8001 20.0021H4.8969C4.79226 20.0013 4.68851 20.0215 4.59184 20.0616C4.49516 20.1016 4.40752 20.1611 4.33413 20.2357ZM8.95631 23.202H8.10395L8.97711 20.8021H9.82947L8.95631 23.202ZM23.08 23.082C23.0052 23.1561 22.904 23.1977 22.7987 23.1977C22.6933 23.1977 22.5922 23.1561 22.5173 23.082L20.235 20.8021H21.3661L23.0828 22.522C23.1204 22.5583 23.1503 22.6018 23.1708 22.6499C23.1912 22.698 23.2017 22.7497 23.2017 22.802C23.2017 22.8543 23.1912 22.906 23.1708 22.9541C23.1503 23.0022 23.1204 23.0457 23.0828 23.082H23.08Z" fill="#5F6A81"/>
</svg>
