<svg width="32" height="34" viewBox="0 0 32 34" fill="none" xmlns="http://www.w3.org/2000/svg">
<mask id="mask0_301_29271" style="mask-type:luminance" maskUnits="userSpaceOnUse" x="0" y="1" width="32" height="33">
<path d="M0 17.0625C0 8.22594 7.16344 1.0625 16 1.0625C24.8366 1.0625 32 8.22594 32 17.0625C32 25.8991 24.8366 33.0625 16 33.0625C7.16344 33.0625 0 25.8991 0 17.0625Z" fill="white"/>
</mask>
<g mask="url(#mask0_301_29271)">
<path d="M12.0006 28.1225C12.1285 28.1225 12.2524 28.0769 12.3537 27.9756L21.0471 19.2823C22.2651 18.0642 22.2651 16.0608 21.0471 14.8427L12.3537 6.14941C12.1623 5.95801 11.8389 5.95801 11.6475 6.14941C11.4561 6.34082 11.4561 6.66424 11.6475 6.85564L20.3408 15.549C21.1761 16.3842 21.1761 17.7408 20.3408 18.5761L11.6475 27.2694C11.4581 27.4589 11.4561 27.7777 11.6417 27.9697C11.7579 28.0754 11.8896 28.1225 12.0006 28.1225Z" fill="#292D32" stroke="#262626"/>
</g>
</svg>
