<svg width="32" height="34" viewBox="0 0 32 34" fill="none" xmlns="http://www.w3.org/2000/svg">
<mask id="mask0_301_29277" style="mask-type:luminance" maskUnits="userSpaceOnUse" x="0" y="1" width="32" height="33">
<path d="M32 17.0625C32 8.22594 24.8366 1.0625 16 1.0625C7.16344 1.0625 0 8.22594 0 17.0625C0 25.8991 7.16344 33.0625 16 33.0625C24.8366 33.0625 32 25.8991 32 17.0625Z" fill="white"/>
</mask>
<g mask="url(#mask0_301_29277)">
<path d="M19.9991 28.1225C19.8712 28.1225 19.7473 28.0769 19.646 27.9756L10.9526 19.2823C9.73456 18.0642 9.73456 16.0608 10.9526 14.8427L19.646 6.14941C19.8374 5.95801 20.1608 5.95801 20.3522 6.14941C20.5436 6.34082 20.5436 6.66424 20.3522 6.85564L11.6589 15.549C10.8236 16.3842 10.8236 17.7408 11.6589 18.5761L20.3522 27.2694C20.5417 27.4589 20.5436 27.7777 20.358 27.9697C20.2418 28.0754 20.1102 28.1225 19.9991 28.1225Z" fill="#292D32" stroke="#262626"/>
</g>
</svg>
