<svg width="24" height="25" viewBox="0 0 24 25" fill="none" xmlns="http://www.w3.org/2000/svg">
	<path d="M3.94703 4.98828H20.0533C20.1988 4.98833 20.3411 5.03068 20.4629 5.11019C20.5847 5.18969 20.6808 5.30291 20.7395 5.43606C20.7981 5.5692 20.8167 5.71652 20.7931 5.86007C20.7695 6.00362 20.7046 6.13719 20.6064 6.24453L14.447 13.0227C14.3188 13.1599 14.2483 13.3411 14.2502 13.5289V18.8352C14.2513 18.9598 14.221 19.0827 14.162 19.1925C14.103 19.3023 14.0172 19.3954 13.9127 19.4633L10.9127 21.4602C10.8001 21.5343 10.6697 21.5767 10.5351 21.583C10.4005 21.5893 10.2667 21.5592 10.1477 21.4959C10.0288 21.4326 9.92908 21.3384 9.85912 21.2232C9.78916 21.108 9.75152 20.9761 9.75015 20.8414V13.5289C9.75196 13.3411 9.68147 13.1599 9.55328 13.0227L3.3939 6.24453C3.2957 6.13719 3.23084 6.00362 3.20722 5.86007C3.1836 5.71652 3.20223 5.5692 3.26086 5.43606C3.31948 5.30291 3.41556 5.18969 3.53739 5.11019C3.65922 5.03068 3.80155 4.98833 3.94703 4.98828V4.98828Z" stroke="black" stroke-linecap="round" stroke-linejoin="round"></path>
</svg>