<svg width="20" height="21" viewBox="0 0 20 21" fill="none" xmlns="http://www.w3.org/2000/svg">
<path d="M19.5527 16.3057L16.464 13.2167C15.8488 12.604 14.83 12.6226 14.1934 13.2595L12.6373 14.8152C12.539 14.761 12.4372 14.7044 12.3302 14.6444C11.3476 14.0999 10.0027 13.3536 8.58739 11.9373C7.16793 10.518 6.42097 9.17104 5.87483 8.18775C5.81719 8.08358 5.76198 7.98314 5.70745 7.88776L6.75182 6.84494L7.26527 6.33086C7.90289 5.69307 7.92047 4.67456 7.30669 4.06004L4.21801 0.970662C3.60423 0.357004 2.58498 0.37562 1.94736 1.01341L1.07686 1.88891L1.10065 1.91252C0.808757 2.28497 0.564845 2.71453 0.383333 3.17776C0.216014 3.6187 0.111841 4.03947 0.0642082 4.4611C-0.343633 7.8422 1.20143 10.9323 5.39453 15.1254C11.1907 20.9212 15.8616 20.4833 16.0631 20.4619C16.502 20.4095 16.9226 20.3046 17.35 20.1386C17.8092 19.9592 18.2385 19.7157 18.6107 19.4244L18.6297 19.4413L19.5116 18.5778C20.1479 17.9401 20.1662 16.9212 19.5527 16.3057Z" fill="white"/>
</svg>
