<svg width="32" height="32" viewBox="0 0 32 32" fill="none" xmlns="http://www.w3.org/2000/svg">
<path d="M2.66669 2.66675H4.98669C6.42669 2.66675 7.56002 3.90675 7.44002 5.33341L6.33335 18.6134C6.14669 20.7867 7.86668 22.6534 10.0533 22.6534H24.2534C26.1734 22.6534 27.8534 21.0801 28 19.1734L28.72 9.17342C28.88 6.96009 27.2 5.16007 24.9733 5.16007H7.76003" stroke="#262626" stroke-width="1.5" stroke-miterlimit="10" stroke-linecap="round" stroke-linejoin="round"/>
<path d="M21.6667 29.3333C22.5871 29.3333 23.3333 28.5871 23.3333 27.6667C23.3333 26.7462 22.5871 26 21.6667 26C20.7462 26 20 26.7462 20 27.6667C20 28.5871 20.7462 29.3333 21.6667 29.3333Z" stroke="#262626" stroke-width="1.5" stroke-miterlimit="10" stroke-linecap="round" stroke-linejoin="round"/>
<path d="M11 29.3333C11.9205 29.3333 12.6666 28.5871 12.6666 27.6667C12.6666 26.7462 11.9205 26 11 26C10.0795 26 9.33331 26.7462 9.33331 27.6667C9.33331 28.5871 10.0795 29.3333 11 29.3333Z" stroke="#262626" stroke-width="1.5" stroke-miterlimit="10" stroke-linecap="round" stroke-linejoin="round"/>
<path d="M12 10.6667H28" stroke="#262626" stroke-width="1.5" stroke-miterlimit="10" stroke-linecap="round" stroke-linejoin="round"/>
</svg>
