<svg width="14" height="15" viewBox="0 0 14 15" fill="none" xmlns="http://www.w3.org/2000/svg">
<path d="M13.0812 5.41827C13.0265 5.24599 12.9209 5.09428 12.7785 4.98303C12.636 4.87178 12.4632 4.80618 12.2828 4.79483L9.03436 4.57061L7.83124 1.53546C7.76554 1.36833 7.65119 1.22478 7.50299 1.12338C7.35479 1.02197 7.17956 0.967396 6.99999 0.966705C6.82042 0.967396 6.64519 1.02197 6.49699 1.12338C6.34879 1.22478 6.23444 1.36833 6.16874 1.53546L4.94374 4.58702L1.71718 4.79483C1.53698 4.80691 1.36456 4.87279 1.22222 4.98394C1.07987 5.09508 0.974155 5.24638 0.918739 5.41827C0.861832 5.59279 0.858507 5.78035 0.909193 5.95678C0.95988 6.13321 1.06225 6.29041 1.20311 6.40811L3.68593 8.50811L2.94765 11.412C2.89657 11.6085 2.90576 11.8157 2.97403 12.0069C3.0423 12.198 3.16649 12.3642 3.33046 12.4839C3.48962 12.5981 3.67924 12.6623 3.87506 12.6681C4.07088 12.674 4.26399 12.6212 4.42968 12.5167L6.99452 10.8925H7.00546L9.76718 12.637C9.90884 12.7291 10.074 12.7784 10.243 12.7792C10.3809 12.7781 10.5168 12.7454 10.6401 12.6836C10.7634 12.6218 10.871 12.5326 10.9544 12.4227C11.0379 12.3129 11.095 12.1853 11.1215 12.0499C11.1479 11.9145 11.143 11.7749 11.107 11.6417L10.325 8.46436L12.7969 6.40811C12.9377 6.29041 13.0401 6.13321 13.0908 5.95678C13.1415 5.78035 13.1381 5.59279 13.0812 5.41827Z" fill="#FFC20E"/>
</svg>
