<svg width="59" height="45" viewBox="0 0 59 45" fill="none" xmlns="http://www.w3.org/2000/svg">
<path fill-rule="evenodd" clip-rule="evenodd" d="M14.3682 0.562256H11.3772C11.2067 0.569173 11.0385 0.596029 10.8703 0.622874C10.6533 0.657498 10.4365 0.692105 10.2153 0.683897C10.0615 0.671692 9.91553 0.708862 9.76938 0.746087C9.68792 0.766832 9.60641 0.787593 9.52343 0.799836C9.18743 0.800282 8.86369 0.882438 8.53981 0.964629C8.40384 0.999136 8.26783 1.03365 8.13089 1.06212C8.04246 1.08536 7.95381 1.10823 7.8651 1.13112L7.86509 1.13112L7.86501 1.13115C7.29592 1.27797 6.72416 1.42547 6.19033 1.6754C6.06886 1.72679 5.94827 1.78029 5.82772 1.83377L5.82772 1.83377C5.71941 1.88183 5.61114 1.92986 5.5023 1.97633C5.43578 1.94782 5.37306 1.91171 5.31414 1.86926C5.31857 1.93959 5.32554 2.00991 5.33314 2.08024C5.22481 2.09734 5.11647 2.12205 5.02397 2.1816C4.93887 2.23173 4.85347 2.28133 4.7681 2.33092L4.76809 2.33093L4.76808 2.33093L4.76807 2.33094L4.76801 2.33097C4.50381 2.48442 4.23982 2.63775 3.98559 2.80628C3.21709 3.258 2.56961 3.87824 1.95126 4.51243C1.88102 4.60298 1.80766 4.69188 1.73419 4.78092C1.52804 5.03074 1.32096 5.28169 1.17897 5.57362C0.814046 6.03611 0.596106 6.59363 0.409843 7.14735C0.3956 7.20045 0.380852 7.25357 0.366086 7.30675C0.281667 7.6108 0.196647 7.91701 0.202039 8.23515C0.201834 8.29703 0.20139 8.35901 0.200946 8.42104C0.19729 8.9319 0.193606 9.44674 0.322413 9.94446C0.50931 11.0101 1.13019 11.9794 1.99498 12.6225C2.00955 12.6396 2.03933 12.6738 2.0539 12.6903C2.1019 12.7186 2.14967 12.7474 2.19743 12.7762C2.42957 12.9161 2.66177 13.056 2.92186 13.1432C3.14895 13.2486 3.39228 13.3073 3.63569 13.3661L3.6357 13.3661L3.6357 13.3661L3.63571 13.3661L3.63572 13.3661C3.78005 13.4009 3.9244 13.4357 4.06541 13.4803C4.91183 13.5436 5.76522 13.5272 6.61101 13.467C6.73342 13.4259 6.86013 13.4029 6.98669 13.3799C7.13522 13.353 7.28355 13.3261 7.42448 13.27C7.8838 13.1369 8.33362 12.9703 8.76634 12.7656C8.79094 12.7514 8.81567 12.7373 8.8404 12.7232L8.84049 12.7232L8.84056 12.7231L8.84058 12.7231L8.8406 12.7231L8.84061 12.7231C8.89606 12.6916 8.95154 12.66 9.00582 12.6263C9.02357 12.6157 9.04125 12.605 9.05894 12.5942L9.059 12.5942L9.05906 12.5942C9.14231 12.5436 9.22582 12.4929 9.31879 12.4615C9.29472 12.3526 9.42903 12.3158 9.51139 12.3386C10.4509 11.7532 11.3075 11.0316 12.0399 10.2017C12.1222 10.1345 12.0722 10.018 12.0354 9.94003L11.9865 9.85019L11.9865 9.85019L11.9865 9.85018L11.9865 9.85017L11.9865 9.85016C11.8757 9.64698 11.7646 9.44335 11.668 9.23299C11.4305 8.8821 11.2362 8.50573 11.0421 8.13001L11.0421 8.13L11.0421 8.12998L11.0294 8.10527C10.9663 7.94633 10.8149 7.99447 10.6756 8.03874C10.6244 8.055 10.5749 8.07073 10.532 8.0755C10.2411 8.27869 9.88961 8.35348 9.54425 8.42696L9.54424 8.42696L9.54423 8.42696L9.54422 8.42696L9.54421 8.42696C9.45562 8.44581 9.36743 8.46458 9.28078 8.4854C8.7657 8.58487 8.23289 8.53038 7.73809 8.3682C7.6967 8.34652 7.65577 8.32382 7.61483 8.30112L7.6148 8.30111L7.61478 8.3011L7.61475 8.30108L7.61473 8.30107C7.51091 8.24351 7.40698 8.18589 7.29524 8.14455C7.21442 8.06343 7.14026 7.97624 7.0661 7.88906L7.0661 7.88905C6.98679 7.79581 6.9075 7.70259 6.82008 7.61681C6.8052 7.50831 6.77971 7.40012 6.75419 7.29184C6.6982 7.05425 6.6421 6.8162 6.6978 6.57336C6.71079 6.52525 6.7232 6.47693 6.73562 6.42858C6.77048 6.29291 6.80538 6.15706 6.85302 6.02534C7.083 5.47859 7.49671 5.03954 7.93005 4.6461C8.0802 4.59352 8.20248 4.49279 8.32222 4.39205C8.40648 4.35277 8.49011 4.31349 8.5712 4.26851C8.92409 4.06831 9.29598 3.89472 9.69385 3.80982C9.79061 3.76216 9.89686 3.74911 10.0026 3.73612C10.1303 3.72044 10.2573 3.70484 10.366 3.62863L10.3738 3.62815C11.1233 3.58206 11.8765 3.53573 12.6259 3.60455C12.7772 3.59592 12.9183 3.63944 13.0596 3.68303C13.188 3.72266 13.3167 3.76234 13.4533 3.76294C13.5235 3.79493 13.5944 3.82597 13.6655 3.85707L13.6655 3.85707L13.6655 3.85708L13.6655 3.85708L13.6656 3.85709C13.9886 3.99843 14.3143 4.14092 14.5791 4.37875C15.034 4.71516 15.3489 5.20046 15.6194 5.68892C15.6659 5.82 15.7208 5.94914 15.7758 6.07844L15.7758 6.07845C15.9065 6.38597 16.0376 6.69441 16.0572 7.03204C16.1376 7.33409 16.1742 7.64309 16.2108 7.95247C16.2317 8.12849 16.2525 8.30464 16.2815 8.4797C16.2837 8.61022 16.2865 8.74079 16.2893 8.87139C16.3036 9.5427 16.3178 10.2147 16.2637 10.884C16.2208 11.0492 16.1952 11.2179 16.1696 11.3864L16.1696 11.3864L16.1696 11.3865L16.1696 11.3865L16.1696 11.3865L16.1696 11.3865C16.1366 11.6037 16.1037 11.8207 16.0338 12.0301C15.7715 12.9126 15.2083 13.6963 14.4537 14.2234L14.4049 14.2444C14.4689 14.3698 14.2947 14.4312 14.2034 14.3799C14.1152 14.4211 14.0276 14.4641 13.9399 14.5071C13.6385 14.6551 13.3365 14.8034 13.0067 14.876C12.8798 14.9048 12.7547 14.9426 12.6298 14.9805C12.378 15.0567 12.1265 15.1328 11.8606 15.1345C11.7416 15.137 11.627 15.1642 11.5123 15.1915L11.5123 15.1915C11.4211 15.2132 11.3299 15.2348 11.2365 15.2441C10.5161 15.2742 9.79529 15.2727 9.07439 15.2711C8.56727 15.2701 8.06013 15.269 7.55309 15.2789C7.49578 15.2751 7.46777 15.3216 7.44009 15.3676C7.42646 15.3903 7.4129 15.4128 7.39597 15.4291C7.40801 15.4962 7.41688 15.5634 7.42322 15.6318C7.43098 16.0785 7.42822 16.5256 7.42546 16.9728V16.9729C7.42169 17.5837 7.41791 18.1946 7.44096 18.8046C7.93373 18.811 8.42679 18.8097 8.91987 18.8084H8.92017C9.45968 18.8069 9.9992 18.8055 10.5384 18.8141C10.7401 18.8102 10.9364 18.8467 11.1329 18.8834C11.3129 18.9169 11.493 18.9505 11.6775 18.9529C11.8225 19.0014 11.9717 19.0317 12.121 19.062L12.121 19.062L12.121 19.062L12.121 19.062L12.1211 19.062C12.266 19.0914 12.4111 19.1208 12.5524 19.167C12.7744 19.1983 12.9795 19.2844 13.1844 19.3704C13.27 19.4064 13.3557 19.4423 13.4426 19.4743C13.9069 19.6536 14.3302 19.9228 14.7306 20.2162C14.762 20.2458 14.7931 20.276 14.8242 20.3063L14.8243 20.3063L14.8243 20.3064C14.9404 20.4194 15.057 20.5329 15.1968 20.6153C15.2982 20.6514 15.3799 20.7243 15.4053 20.8326C15.4661 20.9639 15.5534 21.0793 15.6408 21.1946C15.7536 21.3438 15.8665 21.4929 15.9223 21.6765C15.934 21.6838 15.9517 21.6945 15.9694 21.7053L15.9923 21.7192L16.0167 21.7341C16.3803 22.5388 16.68 23.3928 16.7009 24.2842C16.7679 24.9507 16.7383 25.619 16.7086 26.2862V26.2863L16.706 26.347C16.654 27.5818 16.5026 28.84 15.9983 29.9798C15.9427 30.1115 15.8733 30.2362 15.804 30.3609L15.804 30.3609C15.7429 30.4708 15.6818 30.5805 15.6302 30.695C15.6055 30.7141 15.5561 30.7514 15.5307 30.7704C15.3705 31.0662 15.1081 31.2806 14.85 31.4914L14.85 31.4914L14.85 31.4915L14.8497 31.4917C14.7905 31.5401 14.7316 31.5882 14.6742 31.6371C14.3656 31.8342 14.0482 32.0356 13.6903 32.13C13.6263 32.1469 13.5687 32.1782 13.5108 32.2096L13.5021 32.2143C13.3127 32.2434 13.127 32.2897 12.9408 32.3366C12.8635 32.355 12.7827 32.3597 12.7021 32.3644H12.702C12.5638 32.3724 12.4258 32.3804 12.3066 32.4576C11.694 32.495 11.0775 32.4836 10.4649 32.4538C10.2683 32.3944 10.0647 32.3814 9.86153 32.3685C9.62914 32.3537 9.39724 32.339 9.17688 32.2548C9.03048 32.2414 8.89088 32.2007 8.75124 32.1601L8.75122 32.1601C8.62798 32.1242 8.50471 32.0883 8.37671 32.0711C8.31369 32.0005 8.22379 31.9861 8.13574 31.972C8.11314 31.9684 8.09067 31.9648 8.0688 31.9602C7.97064 31.9083 7.86997 31.8592 7.76904 31.8099C7.43677 31.6479 7.1017 31.4844 6.84415 31.2133C6.43361 30.8541 6.12001 30.327 6.14725 29.7669C6.13775 29.2163 6.40764 28.6968 6.82135 28.3427C6.96583 28.2596 7.09431 28.1541 7.22245 28.0488C7.25949 28.0184 7.29651 27.988 7.33389 27.9581C7.48796 27.9305 7.63509 27.876 7.78205 27.8216L7.78207 27.8216L7.78208 27.8216L7.7821 27.8216C7.97898 27.7487 8.17555 27.6759 8.38811 27.668C8.57692 27.6605 8.76418 27.6341 8.95176 27.6077L9.01405 27.5989C9.0955 27.6063 9.17612 27.6204 9.25678 27.6345L9.2568 27.6345C9.36311 27.6531 9.46949 27.6717 9.57791 27.6749C9.81093 27.6709 10.0303 27.7402 10.2498 27.8095C10.4398 27.8696 10.6299 27.9296 10.8292 27.9423C10.992 27.5024 11.1696 27.0687 11.3472 26.6351L11.3472 26.6351L11.3472 26.6351L11.3473 26.635L11.3473 26.635C11.475 26.3231 11.6028 26.0111 11.725 25.697C11.4222 25.3847 11.0807 25.1034 10.7158 24.8651C10.6778 24.8328 10.6404 24.8024 10.6024 24.772C10.5124 24.7948 10.3755 24.746 10.4098 24.6314L10.3394 24.6295C10.3252 24.612 10.3014 24.5817 10.2821 24.5571L10.2628 24.5325C10.2286 24.5205 10.1614 24.4958 10.1278 24.4831C10.0651 24.4337 10.0018 24.3855 9.93777 24.3393C9.86618 24.2968 9.79268 24.2582 9.71983 24.2202L9.67237 24.1888C9.62484 24.1573 9.5773 24.1258 9.52976 24.0954C9.46451 24.0498 9.39608 24.0092 9.32703 23.9706C9.2434 23.93 9.15914 23.8888 9.07614 23.8464C9.02446 23.8234 8.97279 23.8001 8.92106 23.7767C8.66526 23.6612 8.40799 23.5451 8.13976 23.4618C7.87937 23.3484 7.60695 23.2654 7.33008 23.2084L7.31373 23.1972L7.28706 23.1787L7.2664 23.1643L7.24392 23.1489C6.98607 23.1261 6.73265 23.0817 6.48493 23.0082C6.00884 22.966 5.53085 22.9747 5.05331 22.9835L5.05308 22.9835C4.91429 22.986 4.77553 22.9886 4.63687 22.9898L4.63601 22.9899C4.48992 22.993 4.33695 22.9963 4.20923 23.076C2.97508 23.1812 1.7745 23.7666 0.974967 24.7226C0.700008 25.1198 0.443421 25.5342 0.263493 25.9846L0.235929 26.0895C0.136644 26.4666 0.0369584 26.8451 0.0126086 27.2359C-0.0279385 28.0867 0.0145093 28.968 0.361693 29.758C0.912246 31.1404 2.02602 32.2143 3.24434 33.0265C3.29641 33.0621 3.34849 33.0964 3.40126 33.1312L3.43757 33.1551C3.49016 33.1868 3.54357 33.2164 3.59727 33.246C3.62508 33.2614 3.65296 33.2768 3.68085 33.2926L3.71814 33.3139C4.01681 33.4849 4.31613 33.6563 4.6318 33.795C4.70083 33.8337 4.77072 33.8698 4.84111 33.9062L4.88586 33.9293C5.11457 34.0123 5.33441 34.1137 5.55045 34.2245C5.74178 34.2809 5.92931 34.35 6.0972 34.4609C6.31426 34.5202 6.52949 34.5867 6.74476 34.6532C7.1107 34.7663 7.47677 34.8794 7.85213 34.9576C7.92248 34.9922 8.0017 35.0026 8.08035 35.0129C8.18727 35.0269 8.29313 35.0408 8.37417 35.1153C8.57157 35.1272 8.7647 35.1656 8.95774 35.2039L8.95779 35.2039C9.1656 35.2452 9.37332 35.2864 9.58615 35.2946C9.67383 35.3021 9.75848 35.3256 9.8431 35.3492C9.94374 35.3771 10.0443 35.4051 10.15 35.4061C10.2062 35.4083 10.2625 35.4096 10.3189 35.4109L10.3194 35.4109H10.3194C10.5199 35.4154 10.7209 35.42 10.9166 35.4669C11.2018 35.5318 11.4937 35.5347 11.7851 35.5375C11.8917 35.5385 11.9984 35.5395 12.1045 35.5436C12.5974 35.5303 13.0902 35.5466 13.583 35.5629C14.1682 35.5823 14.7534 35.6017 15.3388 35.5715C15.5314 35.5465 15.7253 35.5391 15.919 35.5317H15.919H15.919C16.1731 35.5221 16.4269 35.5124 16.6774 35.4631C17.0791 35.4663 17.4795 35.453 17.8793 35.4093C18.0789 35.4096 18.2753 35.3782 18.4718 35.3468H18.4718H18.4718H18.4719H18.4719C18.6988 35.3106 18.9256 35.2744 19.1572 35.287C19.2883 35.2927 19.4116 35.2572 19.5351 35.2216C19.6585 35.1861 19.7822 35.1505 19.9142 35.1559C20.0699 35.1169 20.2264 35.0826 20.3828 35.0482C20.6083 34.9987 20.8339 34.9492 21.0572 34.886C21.1663 34.8481 21.2786 34.8202 21.3907 34.7923L21.3908 34.7923L21.3908 34.7923L21.3909 34.7922L21.3909 34.7922C21.5881 34.7432 21.7849 34.6943 21.9638 34.5914C22.4136 34.4437 22.8596 34.2771 23.2771 34.0497C23.4414 34.004 23.5816 33.9068 23.7201 33.8109L23.7421 33.7956C23.808 33.7544 23.8733 33.7126 23.9379 33.6696C24.3884 33.3952 24.8306 33.0956 25.1974 32.7123C25.2787 32.6383 25.3552 32.5594 25.4317 32.4805L25.4317 32.4805C25.5322 32.3768 25.6326 32.2732 25.7441 32.1807C26.0983 31.7062 26.4525 31.2279 26.7192 30.6969C26.9954 30.1983 27.1823 29.6586 27.3553 29.1175C27.463 28.7735 27.5656 28.4257 27.6023 28.0658C27.6767 27.8163 27.7112 27.559 27.7456 27.3016V27.3016C27.7683 27.1316 27.7911 26.9615 27.8254 26.7937C27.8281 26.5213 27.8481 26.2486 27.868 25.976C27.9069 25.4433 27.9459 24.9106 27.857 24.3792C27.8038 23.439 27.5029 22.535 27.1354 21.674L27.2419 21.6613C27.0918 21.6462 27.0363 21.517 26.9829 21.3927C26.9666 21.3548 26.9506 21.3173 26.932 21.2837C26.2795 20.0514 25.4046 18.8857 24.1945 18.154L24.147 18.0786L23.9772 18.0279C23.8422 17.9183 23.6896 17.8353 23.5331 17.7612C23.0654 17.5134 22.5526 17.3822 22.0429 17.2519C21.9608 17.2309 21.8789 17.2099 21.7971 17.1884C21.6863 17.169 21.5744 17.1598 21.4626 17.1505H21.4626C21.3411 17.1405 21.2197 17.1304 21.0996 17.1074C21.1987 17.0824 21.2999 17.0676 21.401 17.0527C21.5436 17.0318 21.6861 17.0109 21.8225 16.9616C22.2461 16.8574 22.6402 16.6708 23.0331 16.4847C23.1249 16.4412 23.2167 16.3977 23.3088 16.3553C23.6566 16.1558 23.9835 15.9194 24.2883 15.6603C24.4373 15.5348 24.568 15.3914 24.6987 15.2479L24.6988 15.2479L24.6988 15.2478L24.6989 15.2478L24.6989 15.2478C24.7871 15.151 24.8754 15.0542 24.9693 14.9628C25.7587 14.0422 26.2142 12.8886 26.4962 11.7209C26.5341 11.5875 26.5484 11.4494 26.5626 11.3115C26.5822 11.1221 26.6018 10.933 26.6824 10.7567C26.6813 10.5853 26.6881 10.4141 26.6948 10.243V10.2429V10.2429V10.2428V10.2428C26.7038 10.0155 26.7127 9.78821 26.7033 9.56053C26.699 9.40954 26.6971 9.25812 26.6953 9.10657V9.10649V9.10641V9.10632V9.10624C26.6892 8.59976 26.6831 8.09194 26.5817 7.59463C26.5076 7.03014 26.3777 6.47389 26.1857 5.93727C25.9146 4.99012 25.3418 4.16081 24.6773 3.44553C23.452 2.27917 21.8358 1.61458 20.2025 1.26359C20.0389 1.19774 19.8645 1.18221 19.6908 1.16672C19.6405 1.16225 19.5903 1.15777 19.5404 1.15209C19.4537 1.07506 19.3439 1.0647 19.2331 1.05424C19.1552 1.04689 19.0768 1.0395 19.0057 1.00891C18.8592 0.948847 18.7042 0.943195 18.5489 0.937535C18.4208 0.932867 18.2925 0.928192 18.1688 0.892968C17.9552 0.81626 17.7316 0.811141 17.5076 0.806013C17.3357 0.802078 17.1636 0.798136 16.9955 0.761823C16.7241 0.682774 16.4419 0.682942 16.1595 0.68311C15.8829 0.683275 15.6062 0.68344 15.3394 0.609138C15.2009 0.597192 15.0619 0.595368 14.9228 0.593545C14.7374 0.591115 14.5521 0.588684 14.3682 0.562256ZM18.6015 3.62736C18.5515 3.71732 18.7073 3.78765 18.7669 3.72176C18.822 3.63179 18.6592 3.56337 18.6015 3.62736ZM3.91876 4.86189L3.91878 4.86188C3.98941 4.79024 4.06004 4.71861 4.1275 4.6442C4.20954 4.5724 4.29082 4.49761 4.37267 4.4223C4.65049 4.16669 4.93483 3.90507 5.27739 3.7338C5.25673 3.76553 5.22899 3.79096 5.20146 3.81621C5.15809 3.85598 5.11522 3.89529 5.10126 3.95807C5.07972 3.9568 5.03728 3.95364 5.01574 3.95174C4.98706 4.09553 4.87679 4.19111 4.76681 4.28644C4.70671 4.33854 4.64669 4.39056 4.60013 4.45034C4.5089 4.56628 4.4164 4.68158 4.3163 4.79119L4.31271 4.79853C4.27334 4.87917 4.23334 4.96111 4.17185 5.02813C4.10171 5.12056 4.04412 5.22094 3.98658 5.32122L3.98658 5.32122C3.92147 5.43471 3.85642 5.54807 3.77335 5.64964L3.74072 5.74181L3.70809 5.83401C3.58515 5.97457 3.53454 6.15217 3.48404 6.32941C3.46011 6.4134 3.4362 6.49731 3.40462 6.57716C3.38756 6.67908 3.36749 6.78057 3.3474 6.88209L3.3474 6.88209L3.3474 6.8821L3.3474 6.88211L3.3474 6.88212C3.30856 7.07843 3.26969 7.27487 3.25257 7.47489C3.19809 8.25923 3.37991 9.04039 3.68338 9.75947C3.84367 9.91912 3.99065 10.0921 4.13574 10.2663C4.14998 10.2738 4.16476 10.2806 4.17956 10.2875C4.2352 10.3134 4.29121 10.3394 4.32073 10.3974C4.57859 10.5539 4.85228 10.6984 5.15258 10.7459C5.23037 10.8243 5.33408 10.8297 5.43846 10.8351C5.53724 10.8402 5.63662 10.8454 5.71517 10.9125C6.07738 10.97 6.44343 10.9629 6.80948 10.9558C6.97998 10.9525 7.15047 10.9492 7.32058 10.9524C7.34529 10.9879 7.37126 11.0234 7.39787 11.0582C7.42391 10.9537 7.52355 10.9441 7.62559 10.9342C7.69237 10.9277 7.76017 10.9211 7.80905 10.8878C7.91329 10.8383 8.03096 10.8383 8.14775 10.8382C8.29713 10.8381 8.44508 10.838 8.5617 10.7345C8.6485 10.7301 8.73593 10.7288 8.82336 10.7294C8.63583 10.8137 8.45717 10.9119 8.29751 11.043C8.14195 11.066 8.00595 11.1373 7.86944 11.2088L7.86943 11.2088C7.80635 11.2419 7.74317 11.275 7.6779 11.3034C7.63565 11.3204 7.58637 11.3257 7.53705 11.331C7.44288 11.3412 7.34858 11.3513 7.30284 11.4428C7.12862 11.4434 6.96136 11.4821 6.80551 11.5594C6.65163 11.5773 6.49674 11.5869 6.3418 11.5964C6.19627 11.6054 6.0507 11.6144 5.90587 11.6303C5.76839 11.6994 5.61064 11.6905 5.46619 11.655C5.29796 11.6165 5.12693 11.6012 4.95579 11.5859L4.95573 11.5859H4.95572H4.95572H4.95571C4.84522 11.5759 4.73469 11.566 4.62484 11.5499C4.53264 11.4878 4.42611 11.4624 4.31908 11.4369C4.19884 11.4083 4.07798 11.3795 3.97608 11.2984L3.96946 11.2945C3.81578 11.2039 3.66071 11.1125 3.49395 11.0494L3.47146 10.9987L3.44897 10.948L3.36418 10.9395L3.27918 10.9309C3.26583 10.9069 3.25774 10.8767 3.24955 10.8461C3.23091 10.7766 3.21176 10.7051 3.12903 10.7003C3.04294 10.7016 3.03238 10.6325 3.0221 10.5653C3.01786 10.5375 3.01366 10.5101 3.00422 10.488C2.96811 10.4766 2.89525 10.4545 2.85914 10.4437C2.81219 10.3547 2.76008 10.2675 2.70787 10.18C2.56634 9.94286 2.42402 9.70442 2.38144 9.42812C2.37159 9.37734 2.36134 9.3265 2.35107 9.27558L2.35107 9.27558L2.35107 9.27557L2.35107 9.27556L2.35107 9.27555C2.28538 8.94984 2.21912 8.62131 2.25473 8.2871C2.2755 8.13038 2.26849 7.97402 2.26147 7.81748V7.81747V7.81746V7.81746V7.81745C2.25906 7.7639 2.25666 7.71033 2.25537 7.65672C2.27311 7.73528 2.28198 7.81511 2.28895 7.89557L2.38524 7.86009C2.37746 7.81788 2.36914 7.77594 2.36081 7.73391L2.3608 7.73386L2.34723 7.66496C2.46887 7.0086 2.75587 6.38773 3.1379 5.84541C3.22679 5.67332 3.34813 5.52315 3.46927 5.37323L3.46932 5.37318L3.46933 5.37317L3.46933 5.37316L3.46934 5.37315C3.49669 5.33931 3.52402 5.30548 3.55097 5.27142C3.6607 5.12362 3.78973 4.99275 3.91876 4.86189ZM19.0885 4.03941L19.0885 4.0394C18.9799 3.94531 18.8715 3.85129 18.7529 3.76991C18.8515 3.70276 18.9346 3.76252 19.0164 3.82139C19.052 3.84695 19.0873 3.87234 19.1236 3.88711L19.1276 3.88811C19.2588 3.92025 19.4248 3.96094 19.4549 4.11582C19.5246 4.16461 19.5943 4.21339 19.6672 4.25901C19.6935 4.32465 19.7545 4.34812 19.8149 4.3714C19.8285 4.37665 19.8421 4.3819 19.8553 4.38762C19.9003 4.42804 19.9473 4.46576 19.9944 4.5036C20.0263 4.52922 20.0583 4.55489 20.0897 4.58148C20.2277 4.66292 20.3398 4.77724 20.4521 4.89177C20.5425 4.98394 20.633 5.07625 20.7372 5.15167C21.9435 6.37315 22.7519 8.06979 22.6341 9.81268C22.6551 10.1109 22.595 10.4006 22.535 10.69L22.535 10.6901C22.512 10.8008 22.489 10.9116 22.4706 11.0228C22.3901 11.2356 22.3224 11.4529 22.271 11.6753C22.1985 11.8102 22.1319 11.9481 22.0653 12.086C21.9639 12.296 21.8625 12.506 21.7401 12.7048C21.6887 12.7762 21.6379 12.8481 21.587 12.9199L21.587 12.9199L21.587 12.9199L21.587 12.9199L21.5869 12.92C21.3349 13.2759 21.0827 13.632 20.767 13.9345C20.7336 13.9691 20.6985 14.0021 20.6634 14.0351C20.5994 14.0954 20.5353 14.1558 20.4813 14.2253C20.4512 14.2504 20.4209 14.2754 20.3906 14.3004C20.2281 14.4347 20.0643 14.5699 19.9244 14.7258C19.822 14.737 19.7419 14.7938 19.6613 14.8508C19.6187 14.881 19.5759 14.9112 19.5297 14.9349L19.5096 14.9506C19.4478 14.9991 19.3861 15.0473 19.3358 15.1085C19.2554 15.1224 19.1838 15.1541 19.1483 15.2314C19.0585 15.2576 18.9799 15.308 18.9014 15.3583C18.8011 15.4227 18.7011 15.4869 18.5781 15.5C18.717 15.4258 18.8297 15.3186 18.9428 15.2112C19.0334 15.1251 19.1242 15.0388 19.2287 14.9691C19.3189 14.8768 19.4112 14.7865 19.5034 14.6961L19.5034 14.6961L19.5035 14.6961L19.5035 14.6961L19.5035 14.6961C19.7087 14.4951 19.914 14.2941 20.0967 14.0708C20.1283 14.0341 20.1582 13.9958 20.1882 13.9575L20.1882 13.9574C20.2617 13.8635 20.3353 13.7695 20.4325 13.6989C20.4924 13.5198 20.5979 13.3646 20.7034 13.2092C20.7787 13.0985 20.8539 12.9877 20.9127 12.8683C21.1211 12.3919 21.3061 11.9015 21.4183 11.3928C21.4717 11.2568 21.4833 11.1137 21.4948 10.9704V10.9704C21.5057 10.8352 21.5166 10.6999 21.5627 10.5704C21.7243 9.17787 21.5697 7.72705 20.9887 6.44158C20.9143 6.32214 20.8477 6.19813 20.7811 6.07408C20.7053 5.93295 20.6294 5.79178 20.5421 5.65725C20.3537 5.37883 20.1386 5.12202 19.9236 4.86524C19.8328 4.75683 19.742 4.64843 19.6532 4.5384C19.5297 4.46998 19.4378 4.36481 19.351 4.25647C19.2601 4.18822 19.1743 4.1138 19.0885 4.03941ZM19.5633 19.8614C19.4663 19.7454 19.3713 19.6282 19.2826 19.5053C19.446 19.537 19.5943 19.6162 19.714 19.7321C19.6646 19.7765 19.6146 19.8196 19.5633 19.8614ZM19.7059 19.9214L19.6684 19.8886C19.6829 19.8804 19.6979 19.8694 19.7134 19.8581L19.7134 19.8581L19.7135 19.858C19.7704 19.8165 19.8334 19.7705 19.8971 19.8392C20.0045 19.9249 20.1185 20.0026 20.2326 20.0804C20.4323 20.2165 20.632 20.3527 20.7961 20.5317L20.8623 20.569L20.9286 20.6064C20.9863 20.6902 21.0631 20.754 21.14 20.8179C21.2016 20.869 21.2632 20.9201 21.315 20.9815C21.3826 21.0446 21.4406 21.1183 21.4986 21.1919L21.4986 21.1919L21.4986 21.192L21.4987 21.192L21.4987 21.192C21.5892 21.3069 21.6795 21.4216 21.8054 21.4953C21.8682 21.5838 21.9354 21.6695 22.0026 21.7552L22.0026 21.7553L22.0027 21.7553L22.0027 21.7554L22.0028 21.7554C22.1544 21.9489 22.3063 22.1425 22.4085 22.369L22.4522 22.4366L22.4522 22.4366C22.5849 22.6416 22.7188 22.8485 22.8039 23.0785C22.8876 23.2144 22.9404 23.3651 22.9932 23.516L22.9932 23.516L22.9933 23.5161C23.0324 23.6277 23.0715 23.7393 23.1232 23.8451C23.1555 23.9978 23.1928 24.1495 23.2301 24.3013C23.2777 24.4949 23.3254 24.6885 23.3626 24.8841C23.4045 25.4936 23.4399 26.1139 23.3341 26.7189C23.3123 26.8146 23.2922 26.9116 23.2721 27.009L23.272 27.0093L23.272 27.0095L23.2719 27.0097L23.2719 27.0098C23.1943 27.3844 23.1157 27.7644 22.9337 28.0981C22.8723 28.28 22.7937 28.4555 22.7126 28.6297C22.3528 29.2936 21.8858 29.9031 21.3442 30.4302C21.2896 30.4686 21.2474 30.5214 21.2055 30.5738C21.1423 30.6527 21.0797 30.731 20.9761 30.7584L21.0344 30.7451L21.0234 30.7614C20.9654 30.848 20.9043 30.9393 20.7999 30.9744L20.6656 31.0074C20.6155 31.0963 20.5332 31.1544 20.4505 31.2128L20.4505 31.2128C20.3995 31.2489 20.3483 31.285 20.3045 31.3286C20.095 31.4982 19.8647 31.6362 19.6343 31.7743C19.5177 31.8442 19.4011 31.9141 19.287 31.9881C19.434 31.8196 19.5968 31.665 19.7603 31.5123C19.8313 31.4443 19.9072 31.3795 19.9834 31.3145L19.9835 31.3145C20.1956 31.1335 20.4097 30.9509 20.5243 30.6931C20.5839 30.7318 20.6422 30.773 20.6998 30.8167C20.6799 30.7641 20.6615 30.7115 20.6431 30.6592L20.6244 30.6063C21.0857 30.1122 21.4272 29.5268 21.7338 28.9281L21.783 28.7929C21.9388 28.3658 22.0953 27.9366 22.1709 27.4868C22.2608 27.1846 22.272 26.8725 22.2833 26.5601V26.56C22.2904 26.3616 22.2976 26.163 22.3249 25.9669C22.3544 25.5954 22.3218 25.2238 22.2892 24.8532C22.2791 24.739 22.2691 24.625 22.2609 24.511C22.2474 24.4399 22.2342 24.3686 22.221 24.2971C22.1036 23.6622 21.984 23.0153 21.6514 22.4539C21.5049 22.0268 21.2458 21.6586 20.9882 21.2924C20.9228 21.1995 20.8576 21.1067 20.7942 21.0132C20.7043 20.9378 20.6175 20.8586 20.5453 20.7661C20.3063 20.4468 20.0048 20.183 19.7059 19.9214ZM4.90514 24.7072C5.00563 24.6735 5.10581 24.64 5.21404 24.6434C5.31171 24.6429 5.40955 24.6412 5.50746 24.6396H5.50748H5.5075H5.50752H5.50754C5.87511 24.6333 6.24365 24.6271 6.60784 24.6801C6.69839 24.745 6.8057 24.7605 6.91357 24.7762C6.9944 24.7879 7.07553 24.7996 7.15016 24.8322C7.28552 24.8615 7.41493 24.9083 7.54441 24.9551C7.65006 24.9933 7.75577 25.0315 7.8648 25.0603C7.89698 25.0688 7.93197 25.0757 7.96795 25.0829C8.10618 25.1104 8.25888 25.1408 8.32222 25.2725C8.38248 25.2929 8.43826 25.3233 8.49395 25.3536C8.58172 25.4013 8.66929 25.449 8.77394 25.4575L8.77235 25.5098L8.77077 25.562L8.75993 25.5407L8.75336 25.5275C8.74687 25.5145 8.74037 25.5015 8.73593 25.493C8.63519 25.5082 8.53256 25.512 8.43816 25.4702C8.24124 25.4146 8.03733 25.4047 7.83334 25.3947C7.679 25.3872 7.52461 25.3796 7.37317 25.3523C7.35543 25.3397 7.32058 25.3143 7.30284 25.301C7.20066 25.2989 7.09786 25.2948 6.99479 25.2907L6.99459 25.2906L6.99439 25.2906L6.99419 25.2906L6.994 25.2906C6.5669 25.2735 6.1352 25.2561 5.72404 25.3821C5.66848 25.3969 5.60479 25.3965 5.54073 25.3962C5.42072 25.3956 5.29943 25.3949 5.22797 25.4936C5.11203 25.5152 4.99673 25.538 4.88332 25.569C4.78255 25.6351 4.67575 25.6925 4.56908 25.7498C4.34045 25.8727 4.11242 25.9952 3.94567 26.2026C3.91035 26.2538 3.87372 26.3044 3.83705 26.355C3.72903 26.5041 3.62063 26.6538 3.544 26.8222C3.27665 27.6236 3.15184 28.4979 3.34317 29.331C3.45531 30.0495 3.79616 30.7046 4.19592 31.3039C4.2556 31.3789 4.31461 31.4544 4.37359 31.5298C4.52125 31.7187 4.66876 31.9073 4.8263 32.0889C4.86491 32.1264 4.90492 32.1627 4.94498 32.1991L4.945 32.1991L4.94503 32.1991L4.94505 32.1991L4.94508 32.1992C4.97599 32.2272 5.00693 32.2553 5.03728 32.284C5.08719 32.3479 5.13952 32.4103 5.19183 32.4725L5.19191 32.4726C5.2199 32.506 5.24789 32.5393 5.27549 32.5729C5.0773 32.4523 4.90176 32.3028 4.7265 32.1536L4.72646 32.1536L4.72641 32.1535L4.72636 32.1535L4.72631 32.1535C4.65121 32.0895 4.57616 32.0256 4.49939 31.964C4.48555 31.9495 4.47183 31.9348 4.45809 31.9201C4.38128 31.8378 4.30403 31.7551 4.20353 31.7024C4.14585 31.6417 4.09063 31.5788 4.03545 31.5158L4.03544 31.5158C3.92696 31.3921 3.81865 31.2686 3.69225 31.1632C3.67532 31.1428 3.65951 31.1211 3.6437 31.0995C3.59683 31.0352 3.54996 30.971 3.47368 30.9383C3.45596 30.8965 3.43792 30.8551 3.42002 30.8139L3.39892 30.7654C3.22812 30.6162 3.11035 30.4209 2.99262 30.2256L2.99261 30.2256C2.92431 30.1123 2.85603 29.9991 2.77741 29.8949C2.77361 29.8594 2.76537 29.7884 2.76094 29.753C2.63923 29.6479 2.59063 29.4952 2.5416 29.3412C2.50488 29.2259 2.46792 29.1097 2.39982 29.0123C2.38718 28.8382 2.3576 28.6666 2.32806 28.4951C2.3028 28.3486 2.27757 28.2022 2.26297 28.0544C2.2484 27.5165 2.30922 26.9641 2.53223 26.4699C2.54468 26.4427 2.55632 26.4147 2.56801 26.3867C2.61102 26.2834 2.65461 26.1787 2.7413 26.105C2.78691 26.0024 2.83633 25.9023 2.88892 25.8041C2.98064 25.771 3.03687 25.6977 3.09321 25.6243C3.11899 25.5907 3.14478 25.557 3.17401 25.5272C3.24442 25.44 3.34056 25.3867 3.43689 25.3334C3.52258 25.2859 3.60841 25.2383 3.67641 25.1667C3.69761 25.1539 3.72098 25.144 3.74436 25.1341L3.74437 25.1341L3.74439 25.1341C3.79366 25.1132 3.84297 25.0923 3.87218 25.0438C3.89654 25.034 3.92337 25.0273 3.95034 25.0205C4.02087 25.0029 4.09236 24.985 4.12307 24.9108C4.20682 24.8986 4.28598 24.8705 4.36498 24.8425L4.36501 24.8425C4.45452 24.8108 4.54384 24.7792 4.63941 24.7707C4.73177 24.7652 4.81857 24.7361 4.90514 24.7072ZM42.0697 9.6806C41.8397 9.68261 41.6092 9.68462 41.3859 9.73377C41.1867 9.81396 40.9694 9.81318 40.758 9.81242L40.7308 9.81233C40.7302 9.82342 40.7289 9.84005 40.7277 9.85668C40.7264 9.87331 40.7251 9.88994 40.7245 9.90103L40.6638 9.90293C40.4119 9.91062 40.1549 9.91848 39.918 10.0094C39.8416 10.0438 39.7588 10.0514 39.6763 10.059C39.5829 10.0675 39.4898 10.076 39.4067 10.1234C39.3206 10.175 39.2229 10.1857 39.125 10.1964C39.0508 10.2046 38.9765 10.2128 38.9069 10.2387C38.841 10.2917 38.7611 10.3139 38.681 10.3362C38.6349 10.349 38.5887 10.3619 38.5451 10.3806C38.2942 10.462 38.048 10.5549 37.8016 10.648C37.7083 10.6832 37.6149 10.7185 37.5213 10.7532C37.3743 10.8545 37.2121 10.9293 37.0449 10.9901C36.7845 11.1276 36.5209 11.2587 36.251 11.3747C36.2062 11.422 36.1527 11.458 36.0991 11.494C36.0695 11.514 36.0398 11.534 36.0116 11.5559C35.9853 11.572 35.9596 11.5893 35.934 11.6066C35.8613 11.6555 35.7887 11.7043 35.703 11.7282C35.6508 11.8256 35.5537 11.8743 35.4557 11.9235C35.379 11.962 35.3017 12.0007 35.245 12.0633C35.1936 12.102 35.1436 12.1419 35.0942 12.1818C35.0227 12.2242 34.9595 12.2781 34.8964 12.3318C34.8247 12.3929 34.7532 12.4538 34.6697 12.4979C34.3479 12.764 34.045 13.0517 33.7428 13.3393C33.6769 13.4166 33.611 13.4932 33.5401 13.5655C33.4768 13.6165 33.4218 13.6761 33.3671 13.7354C33.3538 13.7498 33.3406 13.7641 33.3272 13.7783C33.2675 13.8552 33.2059 13.9302 33.1449 14.0047L33.1447 14.005L33.1444 14.0053L33.1442 14.0056L33.1441 14.0057L33.1378 14.0134C33.0775 14.1072 33.0015 14.1907 32.9256 14.274L32.9256 14.274C32.8006 14.4112 32.6762 14.5479 32.6233 14.7293L32.5315 14.7774C32.4251 14.918 32.3305 15.0674 32.2359 15.2167C32.1046 15.4241 31.9733 15.6314 31.8105 15.8152C31.7883 15.909 31.7484 15.9951 31.6838 16.0667C31.6524 16.1741 31.5958 16.2682 31.5392 16.3623C31.5044 16.4203 31.4695 16.4782 31.4405 16.5393C31.4252 16.569 31.4145 16.6042 31.4037 16.6398C31.375 16.7343 31.3456 16.8313 31.2283 16.8327C31.2655 16.9517 31.2082 17.0564 31.152 17.159C31.1316 17.1962 31.1114 17.2332 31.0959 17.2705C30.9488 17.5363 30.8421 17.8197 30.7353 18.1032C30.6724 18.2703 30.6095 18.4374 30.5383 18.6009C30.5269 18.6548 30.5162 18.7092 30.5067 18.7644C30.384 19.0674 30.2803 19.3779 30.1766 19.6882L30.1765 19.6883L30.1227 19.849C30.1162 19.996 30.0722 20.1343 30.0281 20.273L30.0281 20.2732L30.028 20.2732C30.0163 20.3102 30.0045 20.3472 29.9935 20.3843C29.9539 20.6092 29.898 20.8304 29.8419 21.0519C29.8127 21.1674 29.7835 21.2831 29.7565 21.3993C29.7422 21.4627 29.7368 21.528 29.7314 21.5933C29.7227 21.6987 29.714 21.804 29.6678 21.9011C29.3029 23.9297 29.1673 25.9969 29.2351 28.0566C29.2421 28.1721 29.2421 28.2882 29.2421 28.4043C29.2422 28.6266 29.2422 28.8491 29.2909 29.0671C29.3169 29.2777 29.3264 29.4901 29.3359 29.7026V29.7026V29.7026V29.7026V29.7026C29.3503 30.0239 29.3646 30.3452 29.436 30.6599C29.4515 30.7746 29.4603 30.8902 29.469 31.0059V31.0059C29.4868 31.2397 29.5046 31.4734 29.5779 31.6989C29.6735 32.4433 29.8421 33.1725 30.0245 33.8998C30.103 34.1812 30.1897 34.4601 30.2763 34.7387L30.2764 34.7388L30.2764 34.7389L30.2764 34.7389L30.2764 34.739C30.3583 35.0024 30.4401 35.2656 30.5149 35.5306C30.5692 35.6508 30.6136 35.775 30.658 35.8992C30.7007 36.0186 30.7434 36.138 30.7949 36.2541C30.84 36.352 30.8821 36.4513 30.9241 36.5506C30.993 36.7134 31.062 36.8763 31.1446 37.0333L31.1448 37.0336L31.1449 37.0339L31.1451 37.0342L31.1452 37.0345L31.1454 37.0348C31.3111 37.3739 31.4769 37.713 31.6477 38.0496C31.7372 38.1283 31.7897 38.2355 31.8423 38.3429C31.8735 38.4065 31.9046 38.4701 31.9435 38.5279C32.0314 38.6573 32.1138 38.7904 32.1962 38.9234L32.1963 38.9236C32.2695 39.0419 32.3428 39.1602 32.42 39.2761C32.5255 39.382 32.6102 39.5039 32.6949 39.6259L32.6949 39.626L32.695 39.6261C32.7515 39.7076 32.8082 39.7891 32.8711 39.8659C32.943 39.9482 33.0144 40.0307 33.0858 40.1132L33.0867 40.1142C33.2735 40.3301 33.4602 40.5457 33.6548 40.7554C33.9842 41.0956 34.3333 41.4207 34.7064 41.7121C34.8921 41.8851 35.0961 42.0422 35.3197 42.1638C35.4435 42.3081 35.6064 42.3979 35.7688 42.4875C35.8981 42.5589 36.027 42.63 36.1357 42.7283C36.1782 42.7422 36.2624 42.7695 36.3049 42.7828C36.4291 42.8785 36.5602 42.9754 36.7066 43.0292C36.729 43.1088 36.8015 43.1196 36.8736 43.1303C36.9071 43.1353 36.9405 43.1403 36.9688 43.1521C37.0014 43.239 37.0861 43.2502 37.17 43.2614C37.2085 43.2665 37.2468 43.2716 37.2799 43.2839C37.3053 43.3331 37.353 43.3531 37.4006 43.3731C37.4506 43.3941 37.5005 43.4151 37.5245 43.4696C37.7205 43.4884 37.9016 43.5607 38.0822 43.6328C38.2786 43.7113 38.4744 43.7895 38.6883 43.7984C38.7271 43.8855 38.8111 43.898 38.8976 43.9109C38.9721 43.922 39.0485 43.9334 39.0995 43.9929L39.1254 43.9979L39.1457 44.0017L39.1863 44.0091C39.291 44.0279 39.3965 44.0469 39.4942 44.093C39.5829 44.1425 39.6815 44.1468 39.7802 44.1511C39.876 44.1553 39.9719 44.1595 40.0587 44.2051C40.2146 44.2826 40.389 44.2866 40.5612 44.2906C40.6101 44.2918 40.6588 44.2929 40.7068 44.2957L40.7526 44.3426L40.786 44.3768C40.9723 44.4034 41.1612 44.4122 41.3501 44.421C41.4901 44.4275 41.6301 44.434 41.7692 44.4478C41.6673 44.4667 41.5645 44.4803 41.4618 44.4938L41.3891 44.5035C41.7285 44.5096 42.0681 44.5199 42.4077 44.5302L42.4086 44.5302C43.2697 44.5563 44.1315 44.5825 44.9927 44.5403C45.1027 44.531 45.2139 44.5319 45.3251 44.5328C45.5351 44.5345 45.7452 44.5362 45.9468 44.4699C46.1123 44.4187 46.2841 44.4138 46.4562 44.4089C46.5609 44.4059 46.6657 44.4029 46.7692 44.3895C46.8755 44.292 47.0139 44.2881 47.1523 44.2841C47.2903 44.2802 47.4283 44.2762 47.5345 44.1798C47.6036 44.1699 47.6731 44.1637 47.7426 44.1575C47.8658 44.1465 47.9891 44.1356 48.1098 44.1044C48.1898 44.037 48.2913 44.0228 48.393 44.0086C48.4444 44.0014 48.4957 43.9942 48.5444 43.9802C48.5827 43.9163 48.6528 43.9072 48.7233 43.898C48.7997 43.8881 48.8765 43.8781 48.9137 43.7984C49.1234 43.7839 49.3155 43.7072 49.5083 43.6302C49.629 43.582 49.7499 43.5338 49.8755 43.5006C49.9257 43.4352 50.0019 43.4147 50.079 43.3939C50.141 43.3772 50.2035 43.3604 50.2537 43.32C50.2993 43.2835 50.3601 43.2739 50.4202 43.2645C50.5029 43.2514 50.5841 43.2386 50.6212 43.1559L50.65 43.1458L50.6844 43.1338C50.8293 43.0838 50.9848 43.0302 51.083 42.912C51.1085 42.8979 51.1403 42.8908 51.1723 42.8836C51.2363 42.8693 51.3009 42.8548 51.3174 42.7834C51.3355 42.7746 51.355 42.7674 51.3747 42.7601C51.4314 42.739 51.4891 42.7176 51.5164 42.6573C51.632 42.6176 51.7291 42.5441 51.8254 42.4712C51.8457 42.4558 51.8659 42.4405 51.8864 42.4255C51.9199 42.4058 51.9871 42.3665 52.02 42.3475C52.0714 42.2753 52.1315 42.2069 52.2196 42.1809L52.2481 42.2044L52.253 42.2081C52.2616 42.2147 52.2735 42.2238 52.2798 42.2291C52.3138 42.1545 52.376 42.102 52.4376 42.0501C52.4482 42.0411 52.4588 42.0322 52.4692 42.0232C52.4749 42.02 52.4807 42.0169 52.4866 42.0139C52.4911 42.0116 52.4957 42.0094 52.5003 42.0072L52.5195 41.9982L52.5196 41.9982C52.5727 41.9734 52.627 41.9482 52.6523 41.8908C52.7441 41.8588 52.8083 41.7918 52.8726 41.7247C52.9295 41.6653 52.9865 41.6058 53.0629 41.5702C53.1102 41.5273 53.1579 41.4848 53.2057 41.4422L53.2057 41.4422C53.3203 41.3401 53.435 41.2378 53.545 41.1305C53.9061 40.7896 54.2482 40.4279 54.5593 40.0408C54.6678 39.9366 54.7545 39.8142 54.8411 39.6919C54.9341 39.5607 55.0269 39.4296 55.1466 39.3211C55.2396 39.1545 55.3429 38.9941 55.4462 38.8337L55.4462 38.8337C55.5483 38.6751 55.6505 38.5165 55.7428 38.3518C55.7638 38.3191 55.7823 38.2848 55.8009 38.2504C55.84 38.1779 55.8792 38.1054 55.9411 38.0496C55.9966 37.9377 56.0525 37.826 56.1085 37.7142C56.5383 36.8562 56.97 35.9944 57.2088 35.0617C57.5984 33.9632 57.8379 32.8177 58.0311 31.6697C58.0901 31.465 58.1037 31.2544 58.1173 31.0436C58.1296 30.8533 58.1419 30.6629 58.1876 30.4768C58.2262 30.2487 58.2379 30.0179 58.2496 29.787C58.2584 29.6126 58.2673 29.4382 58.2877 29.2648C58.3402 28.959 58.3423 28.6493 58.3444 28.3396C58.3455 28.1822 58.3466 28.0247 58.3542 27.8678C58.3669 26.3853 58.3612 24.8971 58.1477 23.4285C58.131 23.1322 58.08 22.841 58.0289 22.5496L58.0289 22.5495C57.9906 22.3314 57.9524 22.1133 57.9285 21.8928C57.8842 21.825 57.8658 21.7477 57.8651 21.6679C57.8548 21.4413 57.7966 21.2232 57.7385 21.0051L57.7385 21.005C57.6832 20.7975 57.6278 20.5898 57.6136 20.3748C57.5275 20.2114 57.4793 20.0321 57.4679 19.8477C57.4007 19.7753 57.3803 19.6807 57.3599 19.5862C57.3482 19.5319 57.3364 19.4776 57.3159 19.4277C57.2384 19.2181 57.1652 19.0067 57.092 18.7952L57.092 18.7951L57.092 18.7951C56.891 18.2145 56.69 17.6337 56.3997 17.0899C56.3453 17.012 56.3313 16.9214 56.3605 16.8327C56.2762 16.8301 56.2243 16.7909 56.2065 16.7142C56.1601 16.5488 56.0743 16.4011 55.9885 16.2534C55.907 16.113 55.8254 15.9727 55.7776 15.8171C55.5222 15.5071 55.3123 15.1575 55.1052 14.8123L55.1051 14.8122L55.1051 14.8122L55.0839 14.7768L54.9698 14.7439C54.9613 14.7241 54.9533 14.7039 54.9453 14.6837L54.9452 14.6837C54.9163 14.6109 54.8872 14.5377 54.8336 14.4797L54.7888 14.4256L54.6755 14.2884C54.5058 14.0828 54.3361 13.8771 54.1602 13.677C54.1532 13.6415 54.138 13.5705 54.1304 13.5351C54.0115 13.531 53.9383 13.4482 53.8655 13.3656C53.8351 13.3312 53.8047 13.2969 53.7712 13.2683C53.6637 13.1719 53.5585 13.0732 53.4532 12.9745C53.2792 12.8113 53.1052 12.6482 52.9216 12.4954C52.8383 12.463 52.7752 12.4029 52.712 12.3427C52.6541 12.2875 52.5961 12.2322 52.5224 12.1983C52.4954 12.1387 52.4363 12.1135 52.3802 12.0896C52.3653 12.0833 52.3506 12.0771 52.3368 12.0703C52.2877 11.9947 52.2041 11.9551 52.1214 11.9159C52.0218 11.8687 51.9233 11.822 51.8876 11.7136C51.8572 11.713 51.7958 11.7111 51.7647 11.7098C51.7587 11.6254 51.6901 11.6028 51.6243 11.5812L51.6243 11.5812C51.6067 11.5754 51.5893 11.5696 51.5734 11.5628C51.4886 11.478 51.3808 11.4234 51.2739 11.3692C51.2292 11.3466 51.1846 11.324 51.1419 11.2993C51.0996 11.2405 51.031 11.222 50.9643 11.204C50.9382 11.197 50.9124 11.1901 50.8885 11.1808C50.8326 11.1149 50.7537 11.0841 50.6749 11.0533C50.6279 11.0349 50.5809 11.0165 50.5388 10.9907C50.4271 10.9482 50.3198 10.8955 50.2126 10.8429L50.2125 10.8429C50.0608 10.7683 49.9093 10.6939 49.7456 10.6486C49.6341 10.5936 49.5153 10.5538 49.3963 10.5138L49.3963 10.5138C49.2605 10.4682 49.1243 10.4226 48.998 10.354C48.8689 10.3426 48.7498 10.2992 48.6309 10.2559C48.4984 10.2076 48.3662 10.1594 48.2206 10.1557C48.1345 10.0645 48.0141 10.0598 47.8941 10.055C47.8323 10.0526 47.7706 10.0502 47.7138 10.036C47.5885 9.95316 47.4418 9.93917 47.2946 9.92513C47.1896 9.91511 47.0844 9.90508 46.9865 9.86998C46.857 9.82432 46.7216 9.81271 46.5861 9.80109C46.4359 9.78821 46.2858 9.77533 46.1439 9.71603C45.8888 9.68707 45.6323 9.67932 45.3757 9.67157C45.2001 9.66627 45.0246 9.66097 44.8495 9.64888C44.8008 9.60643 44.7456 9.58615 44.6836 9.58742C44.0899 9.57222 43.4956 9.56588 42.9026 9.58552C42.635 9.67568 42.3527 9.67814 42.0697 9.6806ZM43.0813 13.2466C43.237 13.2322 43.3926 13.2178 43.5432 13.1739C43.7256 13.1175 43.9277 13.1188 44.107 13.1866C44.2421 13.2333 44.3838 13.2406 44.5257 13.248C44.6014 13.2519 44.6772 13.2559 44.752 13.2658C44.8581 13.3545 44.9824 13.4184 45.1072 13.4825C45.2239 13.5424 45.341 13.6025 45.4438 13.6833C45.8709 13.9262 46.1741 14.3138 46.4719 14.6945C46.5081 14.7407 46.5442 14.7868 46.5804 14.8326C46.6191 14.9266 46.6695 15.0148 46.7199 15.1029C46.7859 15.2183 46.8519 15.3337 46.8915 15.4623C46.9727 15.497 46.9866 15.5778 46.9999 15.6559C47.0037 15.6777 47.0074 15.6992 47.0125 15.7195C47.114 15.7594 47.1279 15.8639 47.1405 15.9587L47.1424 15.9723C47.1816 16.054 47.2266 16.1339 47.2912 16.2004C47.3242 16.3151 47.3521 16.431 47.3717 16.5495L47.2893 16.6147L47.4427 16.6451C47.4996 16.808 47.5462 16.9749 47.5928 17.1418C47.6583 17.3762 47.7237 17.6105 47.8177 17.8337C47.8237 18.0075 47.8649 18.1743 47.906 18.3412C47.939 18.4747 47.9719 18.6082 47.9869 18.7454C48.0656 18.9055 48.083 19.0795 48.1004 19.2543C48.113 19.3817 48.1258 19.5094 48.1624 19.6323C48.203 19.7753 48.2172 19.9227 48.2315 20.07V20.0701V20.0701C48.2462 20.2217 48.2609 20.3734 48.3043 20.5206C48.3446 20.6732 48.3496 20.8299 48.3547 20.9866V20.9867V20.9867C48.3591 21.1252 48.3635 21.2638 48.3923 21.3999C48.4601 21.7134 48.4718 22.0331 48.4836 22.3529V22.353C48.4914 22.5657 48.4992 22.7785 48.5235 22.9895C48.6034 23.5075 48.6059 24.0328 48.6084 24.5564C48.6088 24.6265 48.6091 24.6966 48.6096 24.7666C48.6984 26.5644 48.6474 28.3653 48.5964 30.1638L48.5932 30.2785C48.5932 30.5776 48.5618 30.8743 48.5304 31.171C48.5029 31.4304 48.4755 31.6898 48.469 31.951C48.4851 32.2406 48.4446 32.5267 48.4041 32.813L48.4041 32.8131C48.3759 33.0128 48.3476 33.2127 48.3385 33.4139C48.3007 33.594 48.2796 33.7768 48.2585 33.9595V33.9596L48.2584 33.9597C48.2339 34.1723 48.2093 34.3848 48.1586 34.5929C48.1342 34.7042 48.1227 34.8172 48.1112 34.9303C48.1011 35.029 48.091 35.1277 48.0724 35.2252C48.059 35.2769 48.0403 35.3272 48.0216 35.3775C47.988 35.4677 47.9545 35.5577 47.952 35.6554C47.9495 35.6734 47.9476 35.6917 47.9459 35.7101C47.9445 35.7255 47.9432 35.7409 47.942 35.7565L47.942 35.7566L47.9419 35.7567C47.9333 35.8644 47.9245 35.9738 47.8576 36.0627C47.8481 36.2496 47.8133 36.4359 47.7151 36.5975C47.6717 36.9174 47.5654 37.2199 47.4591 37.5224C47.4023 37.6841 47.3454 37.8459 47.2982 38.0103C47.2227 38.1344 47.1671 38.2682 47.1114 38.4021L47.1113 38.4021C47.0446 38.5626 46.9778 38.7231 46.8769 38.8668C46.856 38.9346 46.8363 39.003 46.818 39.0727C46.7888 39.0829 46.7299 39.1044 46.7008 39.1145C46.5303 39.5365 46.2117 39.8805 45.8968 40.2011C45.6174 40.5063 45.2489 40.6989 44.8867 40.8881L44.776 40.9461C44.7164 40.9543 44.6567 40.9613 44.5971 40.9683L44.5969 40.9683C44.4766 40.9825 44.3565 40.9966 44.2375 41.0203C44.1041 41.0975 43.9488 41.0936 43.7975 41.0899C43.7527 41.0888 43.7082 41.0877 43.6648 41.0887C43.6342 41.0855 43.6024 41.0845 43.5705 41.0835H43.5704H43.5704H43.5703H43.5703C43.4735 41.0805 43.3748 41.0774 43.2986 41.0146L43.2318 41.0055C42.9973 40.9739 42.7627 40.9424 42.5567 40.8163C42.4839 40.7694 42.4034 40.7345 42.3249 40.7029C42.2994 40.6463 42.2435 40.6234 42.1902 40.6016C42.1718 40.5941 42.1537 40.5867 42.1373 40.578C42.1032 40.5244 42.0481 40.4931 41.9953 40.463L41.9754 40.4516L41.9631 40.4444C41.754 40.2803 41.5595 40.094 41.3999 39.8818C41.3213 39.8076 41.2548 39.724 41.1952 39.636C41.1761 39.6087 41.1566 39.5815 41.137 39.5543C41.0379 39.4168 40.9381 39.2781 40.8873 39.1152L40.8538 39.1032C40.8263 39.0933 40.7942 39.0818 40.7752 39.0753C40.7347 38.9216 40.6618 38.7819 40.5889 38.6421C40.5248 38.5192 40.4606 38.3962 40.4185 38.2637C40.2815 38.0207 40.199 37.7556 40.1166 37.4905L40.1166 37.4904C40.0679 37.3339 40.0192 37.1773 39.9592 37.0251C39.9414 36.8754 39.895 36.7327 39.8487 36.5902L39.8487 36.5902C39.7929 36.4186 39.7373 36.2474 39.7317 36.0646C39.6582 35.9636 39.647 35.8433 39.6357 35.7223C39.6275 35.634 39.6193 35.5452 39.5867 35.4634C39.5182 35.2747 39.495 35.0772 39.4717 34.8796L39.4717 34.8795C39.4521 34.713 39.4325 34.5465 39.3858 34.3851C39.3022 33.775 39.2255 33.1643 39.1558 32.5529C39.1188 32.3781 39.118 32.2012 39.1173 32.0242C39.1166 31.8624 39.1159 31.7006 39.0874 31.5405C39.0786 31.2871 39.0583 31.0362 39.0089 30.7885C39.0016 30.4816 38.9936 30.1748 38.9856 29.8679L38.9856 29.8669L38.9855 29.866L38.9855 29.865V29.8649V29.8648V29.8647V29.8646C38.9418 28.1878 38.898 26.5101 38.9772 24.8337C38.9803 24.693 38.9818 24.5522 38.9832 24.4113V24.4113V24.4112V24.4112V24.4111C38.9871 24.041 38.9909 23.6708 39.0253 23.3018C39.0759 22.989 39.0909 22.6727 39.1059 22.3566V22.3565C39.124 21.9753 39.142 21.5943 39.2224 21.22C39.2144 20.9669 39.2571 20.7203 39.2998 20.4735C39.3388 20.2477 39.3779 20.0217 39.3782 19.7907C39.4157 19.6166 39.4494 19.4418 39.4831 19.2671L39.4831 19.267L39.4832 19.2668L39.4832 19.2667L39.4832 19.2666L39.4832 19.2665C39.5492 18.9246 39.6151 18.5831 39.7089 18.2474C39.7225 18.1868 39.7299 18.1249 39.7373 18.063L39.7373 18.0629L39.7373 18.0629L39.7373 18.0628L39.7373 18.0627C39.7512 17.9461 39.765 17.8298 39.8204 17.7234C39.9611 17.2261 40.1201 16.7345 40.2924 16.2479C40.36 16.1139 40.4192 15.9754 40.4785 15.8369L40.4785 15.8369L40.4785 15.8368L40.4786 15.8367L40.4786 15.8366C40.5938 15.5674 40.709 15.2982 40.8854 15.0606C40.9603 14.8703 41.0911 14.7188 41.2223 14.5669L41.2224 14.5668C41.3055 14.4706 41.3889 14.3741 41.4582 14.2674C41.5486 14.1282 41.6775 14.0266 41.8063 13.9251C41.868 13.8765 41.9297 13.8279 41.9872 13.7752C42.0093 13.7592 42.0308 13.7405 42.0526 13.7216C42.1173 13.6652 42.1841 13.607 42.2761 13.6155C42.1836 13.5192 42.3749 13.3944 42.449 13.4875C42.4671 13.4809 42.4942 13.4706 42.5213 13.4603L42.5712 13.4414L42.5935 13.4331C42.616 13.4194 42.6395 13.4069 42.663 13.3944C42.7249 13.3614 42.7872 13.3282 42.8336 13.274C42.9157 13.2619 42.9985 13.2543 43.0813 13.2466ZM37.1393 14.9561C37.1982 14.844 37.2685 14.7375 37.3705 14.6596C37.4697 14.5862 37.5499 14.4937 37.6302 14.401C37.69 14.332 37.7499 14.2629 37.8178 14.2016L37.8081 14.2623L37.7994 14.3169C37.6797 14.436 37.5986 14.5836 37.5207 14.7312C37.4093 14.8707 37.3179 15.023 37.2264 15.1754C37.1512 15.3006 37.076 15.4258 36.9897 15.544C36.9644 15.6067 36.9397 15.6701 36.915 15.7334L36.915 15.7335C36.7705 15.9387 36.6451 16.1586 36.5488 16.3905C36.4998 16.4914 36.4501 16.5922 36.4004 16.693C36.1229 17.2558 35.8442 17.8212 35.6739 18.4267C35.4287 19.0305 35.2614 19.6665 35.1449 20.3077C34.9568 20.9146 34.8704 21.543 34.784 22.1708C34.7527 22.3977 34.7215 22.6244 34.6855 22.8501C34.675 23.1075 34.6468 23.3633 34.6186 23.6191C34.5861 23.9149 34.5535 24.2108 34.5481 24.5094L34.5432 24.7371L34.537 25.0201V25.0202C34.5157 25.9821 34.4944 26.944 34.517 27.9065C34.5285 28.1733 34.5317 28.4406 34.5348 28.7079C34.5409 29.2335 34.547 29.759 34.6171 30.281C34.65 30.4728 34.662 30.667 34.674 30.8611C34.6882 31.0901 34.7024 31.319 34.7508 31.5443C34.9877 33.5767 35.525 35.5895 36.4626 37.4154C36.5155 37.5083 36.5603 37.6044 36.606 37.7022L36.6061 37.7024L36.6185 37.729L36.6181 37.7291C36.5958 37.7361 36.5518 37.7499 36.5292 37.7569C36.5472 37.7648 36.5741 37.777 36.6011 37.7892C36.628 37.8014 36.6549 37.8136 36.673 37.8215C36.7036 37.9704 36.7861 38.0943 36.8686 38.2185L36.8686 38.2185L36.8687 38.2185L36.8687 38.2186C36.9038 38.2714 36.9389 38.3242 36.9701 38.379C37.0669 38.5168 37.1495 38.6631 37.2322 38.8093L37.2323 38.8095C37.2887 38.9094 37.3451 39.0092 37.406 39.1063C37.4483 39.1738 37.4931 39.2398 37.538 39.3058C37.6515 39.473 37.7649 39.6402 37.8381 39.8305C37.8306 39.823 37.8232 39.8154 37.8159 39.8078C37.8116 39.8033 37.8073 39.7989 37.8031 39.7944L37.803 39.7943L37.803 39.7943L37.8029 39.7943C37.7529 39.7418 37.7025 39.6892 37.6347 39.6619C37.6069 39.5437 37.5209 39.4673 37.434 39.39C37.3741 39.3368 37.3138 39.2832 37.2717 39.2153C36.7306 38.5387 36.2289 37.8246 35.7936 37.0745C35.7371 37.0124 35.7046 36.9361 35.6724 36.8604C35.6606 36.8326 35.6488 36.8049 35.6359 36.778C35.6011 36.7014 35.5612 36.627 35.5213 36.5526C35.4398 36.4006 35.3584 36.2487 35.321 36.0786C35.3001 36.064 35.257 36.0349 35.2355 36.0203C34.8293 35.0339 34.4492 34.0341 34.1774 33.0027C34.1535 32.8088 34.1017 32.6208 34.05 32.433L34.05 32.4329C33.9864 32.2022 33.9229 31.9718 33.9113 31.7312C33.7314 31.0039 33.6541 30.2569 33.5876 29.5119C33.5252 29.2079 33.5185 28.8984 33.5117 28.5888V28.5888C33.5061 28.3267 33.5004 28.0645 33.4609 27.8057C33.4153 26.8554 33.478 25.9044 33.5432 24.9567C33.5359 24.7125 33.5703 24.4717 33.6048 24.2308L33.6048 24.2307C33.6353 24.0171 33.6659 23.8034 33.6674 23.5869C33.6841 23.4663 33.7066 23.3466 33.7291 23.2269C33.7637 23.0422 33.7984 22.8575 33.8119 22.6695C33.8919 22.4108 33.9357 22.1451 33.9796 21.8791C34.0041 21.7302 34.0287 21.5813 34.0596 21.4335C34.1282 21.239 34.1786 21.0387 34.2289 20.8383L34.2289 20.8383C34.2984 20.5615 34.368 20.2846 34.486 20.0226C34.5601 19.6374 34.7014 19.268 34.8515 18.9063C34.8837 18.8987 34.9481 18.8823 34.9805 18.874L34.9808 18.874L34.8667 18.8537C34.9107 18.7516 34.9566 18.6501 35.0026 18.5487C35.1083 18.3153 35.214 18.082 35.2956 17.84C35.4439 17.5843 35.5729 17.3173 35.7013 17.0514L35.7341 16.9835C35.8177 17.055 35.8893 17.1418 35.862 17.261C35.8722 17.2629 35.8937 17.266 35.9038 17.2679C35.8971 17.1728 35.874 17.0811 35.851 16.9893L35.851 16.9892L35.8509 16.989L35.8509 16.9888C35.8396 16.9439 35.8283 16.8989 35.819 16.8536L35.883 16.7504L35.8831 16.7502L35.8832 16.7501C36.0342 16.5069 36.185 16.2642 36.3226 16.0122L36.5026 15.9514L36.4848 16.1491C36.4943 16.1136 36.5035 16.078 36.5127 16.0423C36.5219 16.0067 36.5311 15.9711 36.5406 15.9356L36.3771 15.9533C36.4213 15.8733 36.4784 15.8023 36.5354 15.7314L36.5354 15.7313C36.6084 15.6406 36.6813 15.5499 36.7268 15.4408C36.7915 15.364 36.8569 15.2876 36.9225 15.211C36.9949 15.1264 37.0674 15.0416 37.1393 14.9561ZM49.821 14.3141C49.8007 14.2718 49.7805 14.2296 49.7557 14.192C49.8881 14.3118 50.0136 14.4391 50.1238 14.581C50.2619 14.6723 50.3753 14.7971 50.464 14.9371C50.5265 15.0337 50.6022 15.12 50.678 15.2064C50.7667 15.3076 50.8554 15.4087 50.9227 15.5263C50.9979 15.6424 51.0865 15.7489 51.1753 15.8556L51.23 15.9216C51.3556 16.1434 51.4964 16.3563 51.6372 16.5692L51.6372 16.5693L51.6373 16.5693L51.6373 16.5693L51.6374 16.5695C51.6997 16.6637 51.762 16.7579 51.823 16.8529C51.7007 16.9569 51.6538 17.1114 51.6773 17.2679L51.7083 17.2676L51.7362 17.2673C51.7362 17.1551 51.7723 16.9435 51.9307 17.0443C51.9808 17.1551 52.0314 17.2654 52.091 17.3725C52.1283 17.4527 52.1657 17.5328 52.2032 17.613C52.5345 18.3222 52.8667 19.0334 53.0819 19.7875C53.1485 19.8405 53.1598 19.9189 53.1713 19.9978C53.1783 20.0464 53.1854 20.0953 53.2054 20.1385C53.3108 20.4116 53.3781 20.6944 53.4455 20.9776L53.4455 20.9776L53.4455 20.9776L53.4455 20.9777L53.4455 20.9777C53.4797 21.1215 53.514 21.2654 53.5532 21.4082C53.6383 21.7077 53.6927 22.0136 53.7472 22.3196L53.7472 22.3197L53.7472 22.3198C53.7909 22.5652 53.8346 22.8107 53.8941 23.0528C53.9019 23.1222 53.9088 23.1916 53.9158 23.2611L53.9158 23.2612L53.9158 23.2613L53.9158 23.2614L53.9158 23.2615C53.9342 23.4459 53.9527 23.6305 53.9872 23.8131C54.027 24.0107 54.0401 24.2115 54.0532 24.4123C54.0678 24.6365 54.0824 24.8606 54.1342 25.0802C54.1861 26.3251 54.2089 27.5745 54.1405 28.82C54.0778 29.1322 54.0637 29.4502 54.0496 29.7677L54.0436 29.9015C53.993 30.1382 53.9595 30.3774 53.9259 30.6166L53.9259 30.6167L53.9259 30.6168L53.9258 30.617L53.9258 30.6171C53.8942 30.8425 53.8626 31.0678 53.8168 31.2909C53.7946 31.5767 53.7285 31.8546 53.6624 32.1323C53.5981 32.4024 53.5339 32.6724 53.5101 32.9495C53.4595 32.9983 53.4303 33.0585 53.4221 33.1294C53.168 34.0221 52.8791 34.9065 52.5015 35.7555C52.2842 36.2047 52.0657 36.6564 51.8141 37.0878C51.6751 37.3993 51.4763 37.6749 51.2775 37.9504C51.1819 38.0829 51.0864 38.2153 50.9975 38.3518C50.7282 38.7262 50.4387 39.0841 50.1397 39.4358C50.0225 39.4567 49.9775 39.5574 49.9521 39.66C49.8855 39.6949 49.8339 39.7481 49.7825 39.8011C49.7713 39.8127 49.7601 39.8242 49.7488 39.8355C49.8497 39.6004 49.992 39.3885 50.1345 39.1765L50.1345 39.1765C50.2443 39.0131 50.3541 38.8497 50.445 38.6755C50.4872 38.5957 50.5384 38.521 50.5896 38.4464C50.6659 38.3352 50.7421 38.224 50.7884 38.0958C50.8583 38.0565 50.8839 37.9846 50.9092 37.9137C50.9169 37.8921 50.9246 37.8705 50.9335 37.85C50.976 37.7635 51.0188 37.6772 51.0617 37.5908L51.0617 37.5907C51.3715 36.9655 51.6819 36.3393 51.894 35.6725C52.1417 35.0979 52.3026 34.4896 52.428 33.8776C52.6412 33.1542 52.7397 32.4049 52.8379 31.6578V31.6578C52.8597 31.4922 52.8815 31.3267 52.9045 31.1616C52.919 30.8893 52.9455 30.6184 52.9721 30.3477C53.0036 30.027 53.035 29.7065 53.0464 29.3839C53.0869 28.2663 53.0888 27.1481 53.0774 26.0305C53.0629 25.7623 53.0595 25.4936 53.0561 25.2249C53.0499 24.7333 53.0437 24.2419 52.9691 23.7548C52.949 23.5797 52.9397 23.4035 52.9304 23.2275V23.2274C52.9161 22.9583 52.9018 22.6894 52.8493 22.4244C52.8182 22.2895 52.8058 22.1521 52.7934 22.0148C52.7787 21.8528 52.7641 21.691 52.7188 21.5336C52.6859 21.4313 52.6774 21.3231 52.6689 21.2152V21.2152C52.6571 21.064 52.6453 20.9134 52.5662 20.7803C52.5509 20.5787 52.5042 20.3836 52.4575 20.1884L52.4574 20.1884C52.4246 20.0512 52.3917 19.9139 52.3698 19.7742L52.4065 19.7678C52.4261 19.7643 52.4471 19.7606 52.4604 19.7584C52.4255 19.7521 52.3564 19.7407 52.3216 19.735L52.3145 19.7037L52.3145 19.7035C52.225 19.3109 52.1347 18.9148 51.9694 18.5458C51.9222 18.4464 51.9007 18.3387 51.8792 18.2313L51.8792 18.231C51.8707 18.1885 51.8622 18.1461 51.8521 18.1042C51.6399 17.6373 51.4283 17.1628 51.218 16.6908C51.1412 16.562 51.0753 16.427 51.0095 16.292C50.9107 16.0895 50.812 15.8869 50.6763 15.7056C50.6706 15.6707 50.6604 15.6011 50.6554 15.5662C50.5574 15.4786 50.4939 15.3659 50.4305 15.2532C50.4044 15.207 50.3784 15.1608 50.35 15.1164C50.3134 15.0557 50.2719 14.9978 50.2303 14.9398L50.2303 14.9397L50.2303 14.9397L50.2303 14.9397L50.2303 14.9397C50.1438 14.819 50.0574 14.6984 50.0155 14.5538C49.9138 14.5076 49.8672 14.4104 49.821 14.3141ZM14.4222 37.9182C14.552 37.9207 14.6775 37.953 14.8029 37.986C14.796 38.0322 14.7909 38.0797 14.7871 38.1279C14.8573 38.2674 14.9163 38.4119 14.9754 38.5564C15.0523 38.7446 15.1291 38.9328 15.2306 39.1099C15.3803 39.4934 15.5414 39.8726 15.7026 40.2519L15.7026 40.252C15.8673 40.6396 16.032 41.0272 16.1847 41.4198C16.2061 41.4678 16.2282 41.5155 16.2504 41.5632L16.2505 41.5635C16.3248 41.7235 16.3991 41.8834 16.4444 42.0546C16.5485 42.2219 16.6266 42.4069 16.7047 42.5918C16.8496 42.935 16.9944 43.278 17.3048 43.5073C17.4448 43.5194 17.5848 43.5352 17.7242 43.5536L17.8028 43.6872C17.83 43.6877 17.86 43.6901 17.8914 43.6926C18.0361 43.7041 18.2083 43.7179 18.2526 43.5523C18.4015 43.5308 18.551 43.5117 18.7011 43.4953C18.7822 43.2799 18.8348 43.0518 18.826 42.8212C18.8253 42.366 18.8263 41.9109 18.8274 41.4558V41.4557V41.4557V41.4556C18.8294 40.5266 18.8315 39.5976 18.8196 38.6689C18.7949 38.3167 18.3774 38.2907 18.105 38.285C18.1001 38.2427 18.0957 38.2009 18.0914 38.1594L18.0841 38.0899C18.3357 38.0581 18.5883 38.0648 18.841 38.0716C18.9866 38.0755 19.1322 38.0794 19.2777 38.0759C19.8054 38.0677 20.3338 38.067 20.8622 38.0696C20.9726 38.0657 21.0768 38.096 21.1811 38.1264C21.2821 38.1558 21.3831 38.1852 21.49 38.1836C21.5963 38.1822 21.6858 38.2308 21.776 38.2798C21.8466 38.3182 21.9177 38.3568 21.9975 38.3718C22.0284 38.4057 22.0603 38.4393 22.0923 38.473L22.0923 38.4731C22.2744 38.6653 22.4605 38.8618 22.5069 39.1339L22.5103 39.2178C22.5217 39.4881 22.5335 39.7652 22.4479 40.0247C22.2471 40.4067 21.9506 40.7362 21.6256 41.0156C21.5863 41.0675 21.547 41.1201 21.5084 41.1733C21.5679 41.2113 21.6275 41.2494 21.6877 41.2893C21.8251 41.5087 21.9916 41.7068 22.1582 41.9051C22.2941 42.0669 22.4302 42.2288 22.5506 42.4024C22.8072 42.6881 23.0663 42.9726 23.3489 43.2336C23.4236 43.2596 23.5022 43.2887 23.5376 43.3679C23.7347 43.4756 23.9431 43.5352 24.1674 43.5536C24.2859 43.5415 24.3118 43.8374 24.1573 43.7747C23.7956 43.7876 23.434 43.7799 23.0728 43.7723L22.8807 43.7683C22.4011 43.6657 22.0247 43.3141 21.7358 42.9333C21.6459 42.8469 21.5796 42.7431 21.5134 42.6396C21.4374 42.5206 21.3616 42.402 21.2505 42.3105C21.1751 42.1593 21.0743 42.025 20.9734 41.8907C20.8796 41.7656 20.7856 41.6405 20.712 41.5015C20.5102 41.4775 20.3074 41.4777 20.1048 41.4779C20.0288 41.4779 19.9529 41.478 19.877 41.4768C19.8586 42.0083 19.8776 42.5412 19.8973 43.0727C19.9262 43.1589 19.9499 43.2467 19.9738 43.3346L19.9738 43.3347L19.9739 43.3348C19.9877 43.3858 20.0015 43.4368 20.0164 43.4877C20.1707 43.5141 20.3266 43.5239 20.4826 43.5337C20.5399 43.5373 20.5972 43.5409 20.6544 43.5453C20.6503 43.5716 20.6442 43.6113 20.6382 43.6511C20.6322 43.6908 20.6262 43.7306 20.6221 43.7569C20.2388 43.7781 19.8546 43.7749 19.4703 43.7718H19.4703H19.4703H19.4702H19.47C19.1518 43.7692 18.8334 43.7667 18.5155 43.7778C18.4163 43.79 18.3156 43.7689 18.2157 43.7479C18.0655 43.7164 17.9168 43.6852 17.7768 43.7677L17.7312 43.6746C17.5823 43.6606 17.4321 43.66 17.2833 43.6752L17.2877 43.5979C17.1993 43.6634 17.0884 43.6645 16.982 43.6656C16.9649 43.6657 16.9478 43.6659 16.931 43.6663C16.6776 43.6625 16.4235 43.6625 16.1695 43.6676L16.1541 43.6672C16.0626 43.665 15.9634 43.6626 15.8933 43.596L15.8432 43.6923C16.1587 43.6837 16.4741 43.6852 16.7895 43.6866C16.9638 43.6874 17.1381 43.6881 17.3124 43.6872C17.3471 43.689 17.383 43.6884 17.4193 43.6877H17.4194H17.4194H17.4195C17.5406 43.6856 17.6651 43.6833 17.7597 43.7696C17.5667 43.7685 17.3738 43.7706 17.1809 43.7728C16.9193 43.7756 16.6578 43.7785 16.3963 43.7734L16.3961 43.7739C16.3816 43.8143 16.3671 43.8547 16.3526 43.8963C16.3488 43.8646 16.3418 43.8026 16.338 43.7715L16.2662 43.7723C16.0706 43.7748 15.8744 43.7773 15.6842 43.7265L15.7213 43.6823L15.745 43.6543C15.7678 43.5732 15.8299 43.5175 15.8901 43.4642C15.8027 43.2976 15.7412 43.1196 15.6836 42.9416C15.6516 42.8347 15.604 42.7336 15.5564 42.6327C15.4817 42.4739 15.4072 42.3157 15.394 42.1363C15.3771 42.1143 15.3609 42.0891 15.3445 42.0633C15.2847 41.9697 15.2204 41.8693 15.0963 41.8911C14.7633 41.8852 14.4304 41.8842 14.0975 41.8833C13.8659 41.8827 13.6344 41.8821 13.4028 41.8797C13.3439 42.0173 13.2878 42.1562 13.2317 42.2952C13.1296 42.5479 13.0276 42.8006 12.9086 43.0455C12.8953 43.1418 12.8814 43.2387 12.8649 43.3363L12.8863 43.4238L12.9086 43.5156C12.9454 43.5238 12.9914 43.5281 13.0402 43.5328C13.2097 43.5489 13.4126 43.5683 13.3762 43.7626C12.9607 43.7763 12.5443 43.7739 12.1278 43.7715H12.1278H12.1277H12.1277H12.127C11.8661 43.7699 11.6051 43.7684 11.3444 43.7709L11.3333 43.6578L11.3222 43.5447L11.391 43.5414C11.5348 43.5345 11.6789 43.5276 11.8221 43.5117C11.8391 43.445 11.8974 43.4217 11.9537 43.3992C11.9706 43.3925 11.9873 43.3858 12.0026 43.3781C12.0958 43.2336 12.1813 43.0835 12.2396 42.9219C12.3046 42.809 12.3575 42.6901 12.4103 42.5712C12.4678 42.442 12.5253 42.3129 12.5982 42.1914C12.6032 42.1547 12.6134 42.0812 12.6178 42.0445C12.7724 41.7708 12.9124 41.4812 12.9815 41.1733C13.1342 40.9484 13.233 40.6804 13.3185 40.4194C13.5048 40.0174 13.6795 39.6104 13.8542 39.2035L13.8542 39.2034L13.8542 39.2034L13.8542 39.2034C14.0391 38.7729 14.2238 38.3425 14.4222 37.9182ZM19.8668 40.7524V40.7525L19.87 40.9605C19.9366 40.9644 20.0034 40.9694 20.0702 40.9744C20.3662 40.9964 20.6635 41.0186 20.9566 40.9535C20.9737 40.939 20.9912 40.9245 21.0087 40.91L21.009 40.9099C21.1362 40.8048 21.268 40.696 21.3025 40.5252C21.3532 40.4492 21.4096 40.3776 21.4735 40.313C21.5033 40.007 21.5179 39.6959 21.4697 39.3918C21.4521 39.2809 21.3921 39.1903 21.332 39.0994C21.2822 39.0241 21.2323 38.9487 21.2062 38.8615C21.1099 38.8324 21.035 38.7703 20.9602 38.7082C20.9094 38.6661 20.8587 38.624 20.8014 38.5923C20.4954 38.5397 20.1843 38.5409 19.8764 38.5745C19.844 39.299 19.8554 40.0267 19.8668 40.7523V40.7524V40.7524ZM14.2112 39.8361L14.211 39.8367C14.0967 40.1421 13.9824 40.4478 13.8463 40.7444C13.8272 40.8064 13.8042 40.8682 13.7811 40.9302C13.7173 41.1016 13.6528 41.2749 13.6695 41.4591C13.7612 41.4495 13.8562 41.4538 13.9512 41.4581C14.1276 41.4661 14.3044 41.4741 14.4608 41.3938C14.6388 41.4977 14.8574 41.4641 15.0373 41.3837C15.0405 41.2506 14.9822 41.1822 14.8631 41.1771C14.8744 41.1734 14.8909 41.1674 14.9075 41.1615L14.9087 41.1611L14.9332 41.1523L14.9531 41.1455C14.9348 41.0957 14.9156 41.0463 14.8965 40.997L14.8965 40.9969C14.8366 40.8427 14.7769 40.689 14.7453 40.5258C14.6766 40.3957 14.6252 40.2565 14.5738 40.1174C14.5023 39.9241 14.431 39.7311 14.3138 39.5635C14.2792 39.6542 14.2452 39.7451 14.2112 39.8361ZM27.18 37.9665C26.9262 37.9496 26.6718 37.9327 26.4322 38.0271C26.1496 38.0563 25.8595 38.1158 25.6326 38.2957L25.5601 38.31L25.4876 38.3243C25.3868 38.432 25.2779 38.5314 25.1664 38.6284C25.1106 38.6874 25.0705 38.7574 25.0303 38.8275C24.9933 38.8922 24.9561 38.957 24.9066 39.0136C24.873 39.3664 24.8705 39.7225 24.9155 40.0754C24.95 40.1752 25.0126 40.2567 25.0751 40.3381C25.1297 40.409 25.1842 40.48 25.2202 40.5632C25.2753 40.6113 25.3259 40.6656 25.3765 40.72L25.3765 40.72C25.4832 40.8345 25.59 40.9491 25.7391 41.0067C25.766 41.0719 25.826 41.0923 25.8864 41.1129C25.8909 41.1145 25.8954 41.116 25.8999 41.1176C25.9043 41.1191 25.9087 41.1206 25.913 41.1222C25.9217 41.1253 25.9303 41.1286 25.9387 41.1321C25.9969 41.193 26.0714 41.2317 26.1462 41.2704C26.2308 41.3143 26.3158 41.3583 26.3777 41.435C26.4827 41.4727 26.5762 41.5323 26.6699 41.5919C26.6989 41.6103 26.7279 41.6288 26.7572 41.6466C26.795 41.6983 26.85 41.7271 26.9062 41.7565L26.9295 41.7689C26.9728 41.8299 27.0198 41.8881 27.0668 41.9464L27.0668 41.9465C27.1169 42.0086 27.167 42.0707 27.2127 42.1363C27.3508 42.4645 27.2216 42.8104 27.0809 43.1139C27.0696 43.1188 27.0578 43.1234 27.046 43.1281C26.986 43.1519 26.9239 43.1765 26.8953 43.24C26.8174 43.2697 26.7515 43.3198 26.6919 43.3762C26.2687 43.425 25.8157 43.4459 25.4312 43.2311C25.3906 43.1734 25.3374 43.1361 25.2709 43.1189C25.1214 42.9105 25.0143 42.6736 24.9877 42.417C24.9783 42.3937 24.9711 42.3635 24.9636 42.3315C24.9417 42.2387 24.9164 42.1313 24.8217 42.1369C24.7635 42.263 24.7384 42.4007 24.7136 42.5367L24.7136 42.5367L24.7102 42.5551L24.6139 42.5576L24.6667 42.5738L24.7197 42.5899C24.707 42.6432 24.7098 42.7059 24.7127 42.7693C24.7181 42.8892 24.7235 43.0112 24.624 43.0746C24.6392 43.0854 24.6697 43.1063 24.6849 43.1164C24.6823 43.2799 24.6868 43.4433 24.695 43.6074L24.7109 43.6138C24.7846 43.6433 24.8602 43.6736 24.9193 43.731C24.9975 43.7517 25.0779 43.7618 25.1583 43.7718H25.1583C25.2472 43.7829 25.3362 43.794 25.4223 43.8197C25.7151 43.9171 26.0219 43.902 26.3272 43.8869C26.4468 43.881 26.5661 43.8751 26.6843 43.876C26.7613 43.7906 26.8678 43.7804 26.974 43.7703C27.0103 43.7668 27.0466 43.7634 27.0816 43.7569C27.1899 43.6999 27.3001 43.648 27.4123 43.5985C27.4454 43.5725 27.4762 43.543 27.5071 43.5134C27.5844 43.4395 27.6616 43.3656 27.7734 43.347L27.7735 43.3466C27.8071 43.2543 27.842 43.1582 27.94 43.1164C28.1092 42.7718 28.26 42.3916 28.2156 42.0007C28.1918 41.7395 28.0877 41.4981 27.9848 41.2597C27.9672 41.2188 27.9496 41.178 27.9324 41.1372C27.8368 41.0897 27.8019 40.994 27.7747 40.8996C27.636 40.8582 27.5294 40.7628 27.4221 40.6666C27.3289 40.5832 27.2353 40.4993 27.1196 40.4498C26.8997 40.3111 26.6691 40.1692 26.4259 40.0735C26.3258 39.981 26.2155 39.9012 26.1027 39.8264C26.0801 39.802 26.0564 39.778 26.0326 39.7539L26.0325 39.7538C25.9306 39.6507 25.8265 39.5454 25.7993 39.3981C25.7198 39.2114 25.7919 39.0292 25.8616 38.853C25.8792 38.8085 25.8966 38.7645 25.9114 38.7209C25.9281 38.7122 25.9462 38.7051 25.9645 38.6979C26.0199 38.676 26.0761 38.6539 26.0932 38.5891C26.12 38.5801 26.15 38.5754 26.1803 38.5707C26.2569 38.5587 26.3351 38.5465 26.365 38.4643C26.6229 38.4218 26.8877 38.4193 27.1449 38.4687C27.1753 38.4793 27.2036 38.4973 27.2317 38.5153C27.2858 38.5498 27.3398 38.5842 27.4085 38.5663C27.4965 38.5384 27.5846 38.5935 27.5909 38.6885C27.7158 38.8926 27.7867 39.1187 27.8254 39.3538C27.9704 39.4551 28.0655 39.2619 28.0496 39.1396C28.0464 39.0026 28.0508 38.8655 28.0552 38.7285C28.0619 38.5203 28.0686 38.3123 28.0484 38.1044C27.9804 38.0674 27.8943 38.07 27.8104 38.0726C27.6949 38.0761 27.5837 38.0795 27.5301 37.979C27.4146 37.9822 27.2974 37.9744 27.18 37.9665ZM0.468633 38.1C0.761366 38.0628 1.05569 38.069 1.35016 38.0753H1.35022C1.5815 38.0802 1.81287 38.0851 2.04363 38.069C2.10388 38.0739 2.16683 38.0703 2.23003 38.0667C2.36024 38.0592 2.49153 38.0516 2.60242 38.119C2.60486 38.2476 2.48839 38.3011 2.39044 38.3462L2.37878 38.3515C2.35287 38.5207 2.43592 38.6542 2.51989 38.7891C2.57144 38.8719 2.62334 38.9553 2.65057 39.0478C2.83311 39.3075 2.99014 39.5841 3.14707 39.8605C3.23741 40.0197 3.32773 40.1788 3.42287 40.3345C3.43619 40.3577 3.44926 40.3812 3.46237 40.4047C3.53027 40.5265 3.59899 40.6498 3.70733 40.7406C3.85875 40.422 4.02854 40.1103 4.2205 39.8144C4.30901 39.6423 4.40657 39.4749 4.50413 39.3076C4.60981 39.1263 4.71549 38.9451 4.8097 38.7576C4.87813 38.6259 4.88129 38.4763 4.86482 38.3325C4.77929 38.318 4.69376 38.3034 4.60823 38.2901C4.60986 38.2557 4.61165 38.2214 4.61343 38.1872C4.61513 38.1547 4.61683 38.1223 4.61837 38.0899C4.83521 38.064 5.05295 38.0692 5.27078 38.0745H5.2709C5.42025 38.0781 5.56965 38.0818 5.71884 38.0753C5.79532 38.076 5.87238 38.073 5.94956 38.07C6.15243 38.0621 6.35617 38.0541 6.55259 38.1133C6.46326 38.2939 6.27003 38.323 6.09074 38.3401C6.03214 38.3932 5.96715 38.4387 5.90207 38.4842C5.80321 38.5534 5.70415 38.6227 5.62698 38.719C5.61313 38.7395 5.59942 38.7602 5.5857 38.7809L5.58561 38.7811C5.50519 38.9026 5.42399 39.0253 5.30767 39.1156C5.29426 39.1454 5.28145 39.1755 5.26864 39.2057L5.26862 39.2057C5.23784 39.2781 5.20701 39.3506 5.16766 39.4191C5.07796 39.4485 5.03929 39.5278 5.00107 39.6062L5.00104 39.6063C4.98906 39.6309 4.97711 39.6553 4.96365 39.6782L4.8967 39.7913C4.70387 40.1174 4.51113 40.4433 4.3016 40.759C4.2716 40.8289 4.23433 40.8968 4.19705 40.9648C4.10597 41.1307 4.01479 41.2969 4.02917 41.4933C4.02868 41.6242 4.02789 41.7551 4.0271 41.886C4.02484 42.2601 4.02258 42.6341 4.02727 43.0081C4.0241 43.2013 4.11343 43.3768 4.24775 43.5105C4.42197 43.5219 4.59683 43.5346 4.76979 43.5587C4.83363 43.7038 4.98816 43.6986 5.12924 43.6938C5.16736 43.6925 5.20451 43.6912 5.23861 43.693L5.25065 43.7196C5.1114 43.7102 4.97446 43.7291 4.83768 43.7481L4.83762 43.7481L4.83754 43.7481C4.77213 43.7572 4.70675 43.7662 4.64118 43.7722C4.3571 43.7763 4.07303 43.7742 3.78895 43.7722C3.37486 43.7692 2.96076 43.7662 2.54667 43.7823C2.46193 43.7881 2.38025 43.7668 2.29909 43.7456C2.28256 43.7413 2.26605 43.737 2.24954 43.7329C2.26085 43.7173 2.27254 43.7017 2.28428 43.6861L2.28434 43.686C2.34489 43.6055 2.40648 43.5237 2.42186 43.4218L2.43326 43.4177L2.44467 43.4136C2.44224 43.4319 2.43868 43.4605 2.43523 43.4882L2.42756 43.5492L2.75447 43.5169C2.92904 43.2663 2.92149 42.9671 2.91402 42.6711C2.91097 42.5503 2.90793 42.43 2.91729 42.3137C2.96403 42.0228 2.92174 41.7327 2.8796 41.4435L2.87959 41.4434C2.86575 41.3484 2.85192 41.2535 2.84127 41.1588C2.73202 41.0301 2.64735 40.8846 2.56259 40.7389C2.4763 40.5906 2.38992 40.4421 2.27741 40.3111C2.26129 40.2637 2.24553 40.2163 2.22985 40.1691L2.22974 40.1688L2.21406 40.1217C2.15957 40.0887 2.11332 40.0469 2.07658 39.9969C2.03265 39.9263 1.98917 39.8553 1.94566 39.7843L1.94534 39.7838C1.73546 39.4411 1.52494 39.0975 1.26057 38.7938L1.23887 38.7339C1.22354 38.6914 1.2083 38.6493 1.19278 38.6075C1.07409 38.5711 0.983212 38.491 0.89307 38.4116C0.873501 38.3943 0.853966 38.3771 0.83419 38.3604C0.76793 38.3213 0.690174 38.3199 0.612906 38.3185H0.612879C0.571209 38.3178 0.52968 38.317 0.490173 38.3104C0.484472 38.2578 0.473701 38.1526 0.468633 38.1ZM7.78177 38.0719C7.49998 38.0611 7.21774 38.0503 6.94033 38.1054C6.96265 38.3107 7.14985 38.3169 7.32897 38.3229C7.40401 38.3254 7.47764 38.3278 7.53713 38.3448C7.61696 38.4468 7.69805 38.5609 7.70502 38.6958C7.70741 38.9729 7.71081 39.2501 7.7142 39.5273C7.72608 40.4978 7.73797 41.4686 7.70692 42.4395C7.70458 42.5202 7.70475 42.6013 7.70493 42.6825C7.70541 42.9089 7.7059 43.1359 7.6518 43.3575L7.57641 43.4987C7.42789 43.5167 7.27831 43.5288 7.12911 43.5409L7.08604 43.5444C7.08405 43.58 7.08222 43.6158 7.08039 43.6517C7.07874 43.6842 7.07708 43.7169 7.07527 43.7496C7.31206 43.7823 7.55047 43.7772 7.78896 43.7721C7.94355 43.7688 8.09817 43.7655 8.25241 43.7724C8.61773 43.7662 8.98337 43.7706 9.34902 43.775C9.87558 43.7814 10.4022 43.7877 10.9279 43.7623C11.0578 43.3923 11.0977 42.9976 11.0958 42.6073L10.9095 42.6048C10.8493 42.691 10.8179 42.7941 10.7863 42.8975C10.7641 42.9704 10.7418 43.0435 10.7093 43.111C10.6523 43.1516 10.5959 43.1946 10.5408 43.239C10.0732 43.2973 9.60059 43.2795 9.13113 43.2542C9.11773 43.1752 9.04862 43.1566 8.98257 43.1389C8.96121 43.1331 8.94017 43.1275 8.92143 43.1199C8.86314 42.9431 8.82957 42.7594 8.82577 42.5738C8.81933 42.2569 8.8233 41.9401 8.82727 41.6234C8.82994 41.41 8.83261 41.1968 8.8321 40.9836C8.97374 40.9856 9.1156 40.9845 9.25749 40.9835C9.60495 40.9808 9.95266 40.9782 10.2981 41.0209C10.4145 41.1468 10.4414 41.3115 10.4682 41.4746C10.4768 41.5273 10.4855 41.58 10.4971 41.6311C10.5221 41.6199 10.5615 41.6017 10.5983 41.5847C10.624 41.5728 10.6484 41.5616 10.6656 41.5538C10.7091 41.3631 10.7161 41.167 10.7231 40.9705C10.729 40.8041 10.735 40.6374 10.7632 40.4736C10.7868 40.3961 10.7468 40.3321 10.7078 40.2699C10.6968 40.2522 10.6858 40.2347 10.6764 40.217C10.6421 40.2508 10.6055 40.2823 10.569 40.3138C10.5138 40.3614 10.4586 40.409 10.4109 40.4647C10.115 40.4779 9.81882 40.4768 9.52259 40.4757C9.2931 40.4749 9.06355 40.4741 8.834 40.4799C8.83802 40.2282 8.83746 39.9764 8.8369 39.7247C8.83604 39.3416 8.83518 38.9585 8.85047 38.5755C8.92769 38.5759 9.00492 38.5761 9.08215 38.5762C9.48592 38.5773 9.88984 38.5783 10.2924 38.6097C10.3357 38.652 10.3801 38.6932 10.4246 38.7346C10.4693 38.7761 10.5141 38.8177 10.5579 38.8605C10.5589 38.8765 10.5596 38.8953 10.5603 38.9159C10.5658 39.0709 10.5749 39.3267 10.7739 39.202C10.8206 38.9895 10.8353 38.7699 10.85 38.5507C10.8582 38.4275 10.8665 38.3044 10.8804 38.1827C10.8865 38.1765 10.8944 38.1686 10.9031 38.16C10.9232 38.1401 10.9471 38.1163 10.9608 38.1022C10.7797 38.0553 10.5945 38.0629 10.4093 38.0704C10.3244 38.0739 10.2394 38.0774 10.1549 38.0756C9.69854 38.07 9.24212 38.0734 8.78571 38.0768C8.56486 38.0784 8.34401 38.08 8.12316 38.0807C8.00967 38.0807 7.89576 38.0763 7.78177 38.0719Z" fill="#FFE25E"/>
</svg>
