<svg width="24" height="24" viewBox="0 0 24 24" fill="none" xmlns="http://www.w3.org/2000/svg">
<rect width="24" height="24" fill="white"/>
<g filter="url(#filter0_d_274_16169)">
<mask id="mask0_274_16169" style="mask-type:luminance" maskUnits="userSpaceOnUse" x="3" y="5" width="18" height="14">
<path fill-rule="evenodd" clip-rule="evenodd" d="M3 5H21V7.32C20.7324 7.43668 20.5046 7.62894 20.3446 7.87318C20.1847 8.11742 20.0995 8.40304 20.0995 8.695C20.0995 8.98696 20.1847 9.27258 20.3446 9.51682C20.5046 9.76106 20.7324 9.95332 21 10.07V10.72C20.7324 10.8367 20.5046 11.0289 20.3446 11.2732C20.1847 11.5174 20.0995 11.803 20.0995 12.095C20.0995 12.387 20.1847 12.6726 20.3446 12.9168C20.5046 13.1611 20.7324 13.3533 21 13.47V14.12C20.7324 14.2367 20.5046 14.4289 20.3446 14.6732C20.1847 14.9174 20.0995 15.203 20.0995 15.495C20.0995 15.787 20.1847 16.0726 20.3446 16.3168C20.5046 16.5611 20.7324 16.7533 21 16.87V19H3V16.88C3.26763 16.7633 3.49539 16.5711 3.65536 16.3268C3.81532 16.0826 3.90052 15.797 3.90052 15.505C3.90052 15.213 3.81532 14.9274 3.65536 14.6832C3.49539 14.4389 3.26763 14.2467 3 14.13V13.48C3.26763 13.3633 3.49539 13.1711 3.65536 12.9268C3.81532 12.6826 3.90052 12.397 3.90052 12.105C3.90052 11.813 3.81532 11.5274 3.65536 11.2832C3.49539 11.0389 3.26763 10.8467 3 10.73V10.08C3.26763 9.96332 3.49539 9.77106 3.65536 9.52682C3.81532 9.28258 3.90052 8.99696 3.90052 8.705C3.90052 8.41304 3.81532 8.12742 3.65536 7.88318C3.49539 7.63894 3.26763 7.44668 3 7.33V5Z" fill="#99CC00"/>
</mask>
<g mask="url(#mask0_274_16169)">
<path d="M21 5H22V4H21V5ZM3 5V4H2V5H3ZM21 7.32L21.4 8.24L22 7.98V7.32H21ZM21 10.07H22V9.42L21.4 9.16L21 10.07ZM21 10.72L21.4 11.64L22 11.38V10.72H21ZM21 13.47H22V12.82L21.4 12.56L21 13.47ZM21 14.12L21.4 15.04L22 14.78V14.12H21ZM21 16.87H22V16.22L21.4 15.96L21 16.87ZM21 19V20H22V19H21ZM3 19H2V20H3V19ZM3 16.88L2.6 15.96L2 16.22V16.88H3ZM3 14.13H2V14.78L2.6 15.04L3 14.13ZM3 13.48L2.6 12.56L2 12.82V13.48H3ZM3 10.73H2V11.38L2.6 11.64L3 10.73ZM3 10.08L2.6 9.16L2 9.42V10.08H3ZM3 7.33H2V7.98L2.6 8.24L3 7.33ZM21 4H3V6H21V4ZM22 7.32V5H20V7.32H22ZM21.1 8.7C21.1 8.5 21.22 8.32 21.4 8.24L20.6 6.41C20.1544 6.60449 19.7751 6.92471 19.5087 7.33144C19.2423 7.73818 19.1003 8.21378 19.1 8.7H21.1ZM21.4 9.16C21.3106 9.12097 21.2345 9.05661 21.1812 8.97487C21.1279 8.89314 21.0997 8.79758 21.1 8.7H19.1C19.1 9.73 19.72 10.6 20.6 11L21.4 9.16ZM22 10.72V10.07H20V10.72H22ZM21.1 12.1C21.1 11.9 21.22 11.72 21.4 11.64L20.6 9.81C20.1544 10.0045 19.7751 10.3247 19.5087 10.7314C19.2423 11.1382 19.1003 11.6138 19.1 12.1H21.1ZM21.4 12.56C21.3106 12.521 21.2345 12.4566 21.1812 12.3749C21.1279 12.2931 21.0997 12.1976 21.1 12.1H19.1C19.1 13.13 19.72 14 20.6 14.4L21.4 12.56ZM22 14.12V13.47H20V14.12H22ZM21.1 15.5C21.1 15.3 21.22 15.12 21.4 15.04L20.6 13.21C20.1544 13.4045 19.7751 13.7247 19.5087 14.1314C19.2423 14.5382 19.1003 15.0138 19.1 15.5H21.1ZM21.4 15.96C21.3106 15.921 21.2345 15.8566 21.1812 15.7749C21.1279 15.6931 21.0997 15.5976 21.1 15.5H19.1C19.1 16.53 19.72 17.4 20.6 17.8L21.4 15.96ZM22 19V16.87H20V19H22ZM3 20H21V18H3V20ZM2 16.88V19H4V16.88H2ZM3.4 17.79C3.84563 17.5955 4.22488 17.2753 4.4913 16.8686C4.75772 16.4618 4.89975 15.9862 4.9 15.5H2.9C2.90034 15.5976 2.87212 15.6931 2.81881 15.7749C2.7655 15.8566 2.68944 15.921 2.6 15.96L3.4 17.79ZM4.9 15.5C4.9017 15.0121 4.76058 14.5343 4.49404 14.1256C4.2275 13.7169 3.84719 13.3952 3.4 13.2L2.6 15.04C2.78 15.12 2.9 15.3 2.9 15.5H4.9ZM2 13.48V14.13H4V13.48H2ZM2.9 12.1C2.90034 12.1976 2.87212 12.2931 2.81881 12.3749C2.7655 12.4566 2.68944 12.521 2.6 12.56L3.4 14.39C3.84563 14.1955 4.22488 13.8753 4.4913 13.4686C4.75772 13.0618 4.89975 12.5862 4.9 12.1H2.9ZM2.6 11.64C2.78 11.72 2.9 11.9 2.9 12.1H4.9C4.9017 11.6121 4.76058 11.1343 4.49404 10.7256C4.2275 10.3169 3.84719 9.99517 3.4 9.8L2.6 11.65V11.64ZM2 10.08V10.73H4V10.08H2ZM2.9 8.7C2.90034 8.79758 2.87212 8.89314 2.81881 8.97487C2.7655 9.05661 2.68944 9.12097 2.6 9.16L3.4 10.99C3.84563 10.7955 4.22488 10.4753 4.4913 10.0686C4.75772 9.66182 4.89975 9.18622 4.9 8.7H2.9ZM2.6 8.24C2.78 8.32 2.9 8.5 2.9 8.7H4.9C4.9017 8.21208 4.76058 7.73432 4.49404 7.32562C4.2275 6.91693 3.84719 6.59517 3.4 6.4L2.6 8.25V8.24ZM2 5V7.33H4V5H2Z" fill="#FF424E"/>
</g>
</g>
<path d="M8.49023 17.1801H9.35023V15.5801H8.49023V17.1801ZM8.49023 14.1801H9.35023V12.5801H8.49023V14.1801ZM8.49023 11.1801H9.35023V9.58008H8.49023V11.1801ZM8.49023 8.18008H9.35023V6.58008H8.49023V8.18008Z" fill="#FF424E"/>
<defs>
<filter id="filter0_d_274_16169" x="2" y="4" width="20" height="16" filterUnits="userSpaceOnUse" color-interpolation-filters="sRGB">
<feFlood flood-opacity="0" result="BackgroundImageFix"/>
<feColorMatrix in="SourceAlpha" type="matrix" values="0 0 0 0 0 0 0 0 0 0 0 0 0 0 0 0 0 0 127 0" result="hardAlpha"/>
<feOffset/>
<feGaussianBlur stdDeviation="0.5"/>
<feColorMatrix type="matrix" values="0 0 0 0 0 0 0 0 0 0 0 0 0 0 0 0 0 0 0.09 0"/>
<feBlend mode="normal" in2="BackgroundImageFix" result="effect1_dropShadow_274_16169"/>
<feBlend mode="normal" in="SourceGraphic" in2="effect1_dropShadow_274_16169" result="shape"/>
</filter>
</defs>
</svg>
