<svg width="56" height="57" viewBox="0 0 56 57" fill="none" xmlns="http://www.w3.org/2000/svg">
<path d="M0 28.5625C0 13.0985 12.536 0.5625 28 0.5625V0.5625C43.464 0.5625 56 13.0985 56 28.5625V28.5625C56 44.0265 43.464 56.5625 28 56.5625V56.5625C12.536 56.5625 0 44.0265 0 28.5625V28.5625Z" fill="#FFD336"/>
<path d="M24.25 14.1875C24.8614 16.9631 24.5267 19.5279 22.375 21.6875H13.625L18.625 14.1875H24.25Z" fill="#FFBF80"/>
<path d="M33.625 14.1875L38.625 21.6875H29.875C27.7211 19.3864 27.3989 16.8756 28.625 14.1875H33.625Z" fill="#FFBF80"/>
<path d="M29.875 21.6875L26.125 23.125L22.375 21.6875H13.625V40.4375H29.2856L38.625 28.9412V21.6875H29.875Z" fill="#FFD396"/>
<path d="M34.875 42.9375C39.0171 42.9375 42.375 39.5796 42.375 35.4375C42.375 31.2954 39.0171 27.9375 34.875 27.9375C30.7329 27.9375 27.375 31.2954 27.375 35.4375C27.375 39.5796 30.7329 42.9375 34.875 42.9375Z" fill="#FFF08A"/>
<path d="M16.125 30.4374H23.625V37.9374H16.125V30.4374Z" fill="#FFBF80"/>
<path d="M28.625 14.1875L29.875 21.6875C27.375 22.8819 24.875 22.8819 22.375 21.6875L24.25 14.1875H28.625Z" fill="#FF9966"/>
<path d="M29.875 21.6875V26.0625L28 24.8125L26.125 26.0625L24.25 24.8125L22.375 26.0625V21.6875H29.875Z" fill="#FFBF80"/>
<path d="M29.2856 41.0625H13V21.4983L18.2905 13.5625H24.25V14.8125H18.9595L14.25 21.8767V39.8125H29.2856V41.0625Z" fill="black"/>
<path d="M39.25 28.9412H38V21.8767L33.2905 14.8125H28.625V13.5625H33.9595L39.25 21.4983V28.9412Z" fill="black"/>
<path d="M29.875 21.0625H38.625V22.3125H29.875V21.0625Z" fill="black"/>
<path d="M13.625 21.0625H22.375V22.3125H13.625V21.0625Z" fill="black"/>
<path d="M22.9813 21.8391L21.7687 21.5359L23.762 13.5625H29.1545L30.4915 21.5848L29.2585 21.7903L28.0955 14.8125H24.738L22.9813 21.8391Z" fill="black"/>
<path d="M24.25 38.5624H15.5V29.8124H24.25V38.5624ZM16.75 37.3124H23V31.0624H16.75V37.3124Z" fill="black"/>
<path d="M18 32.3125H21.75V33.5625H18V32.3125Z" fill="black"/>
<path d="M18 34.8124H21.75V36.0624H18V34.8124Z" fill="black"/>
<path d="M35.0581 35.2544L32.7411 32.9374L35.0581 30.6205L35.9419 31.5044L34.5089 32.9374L35.9419 34.3705L35.0581 35.2544Z" fill="black"/>
<path d="M37.0625 37.9375H30.5V36.6875H37.0625C37.9263 36.6875 38.625 35.9889 38.625 35.125C38.625 34.2634 37.9241 33.5625 37.0625 33.5625H33.625V32.3125H37.0625C38.6133 32.3125 39.875 33.5742 39.875 35.125C39.875 36.6796 38.6173 37.9375 37.0625 37.9375Z" fill="black"/>
<path d="M34.875 43.5625C30.421 43.5625 26.75 39.9532 26.75 35.4375C26.75 30.9573 30.3948 27.3125 34.875 27.3125C36.3039 27.3125 37.7089 27.6887 38.938 28.4002C41.4436 29.8496 43 32.5461 43 35.4375C43 39.9177 39.3552 43.5625 34.875 43.5625ZM34.875 28.5625C31.0841 28.5625 28 31.6466 28 35.4375C28 39.2657 31.1144 42.3125 34.875 42.3125C38.6659 42.3125 41.75 39.2284 41.75 35.4375C41.75 32.9909 40.4327 30.7089 38.312 29.4823L38.3118 29.4821C37.2728 28.8805 36.0844 28.5625 34.875 28.5625Z" fill="black"/>
<path d="M30.5 27.2304L28 25.5637L26.125 26.8137L24.25 25.5637L21.75 27.2304V21.0625H30.5V27.2304ZM24.25 24.0613L26.125 25.3113L28 24.0613L29.25 24.8946V22.3125H23V24.8946L24.25 24.0613Z" fill="black"/>
</svg>
