<svg width="56" height="57" viewBox="0 0 56 57" fill="none" xmlns="http://www.w3.org/2000/svg">
<path d="M0 28.5625C0 13.0985 12.536 0.5625 28 0.5625V0.5625C43.464 0.5625 56 13.0985 56 28.5625V28.5625C56 44.0265 43.464 56.5625 28 56.5625V56.5625C12.536 56.5625 0 44.0265 0 28.5625V28.5625Z" fill="#FFD336"/>
<g clip-path="url(#clip0_341_15890)">
<path fill-rule="evenodd" clip-rule="evenodd" d="M12.4688 28.5625C12.4688 37.1402 19.4223 44.0938 28 44.0938C36.5777 44.0938 43.5312 37.1402 43.5312 28.5625C43.5312 19.9848 36.5777 13.0312 28 13.0312C19.4223 13.0312 12.4688 19.9848 12.4688 28.5625ZM28.2404 30.6046V26.8546C28.2404 25.3041 29.5024 24.0421 31.0529 24.0421C32.6034 24.0421 33.8654 25.3042 33.8654 26.8546V30.6046C33.8654 32.1551 32.6034 33.4171 31.0529 33.4171C29.5024 33.4171 28.2404 32.1551 28.2404 30.6046ZM16.9906 33.4171V25.9171H16.0531L16.9906 24.0421H18.8656V33.4171H16.9906V33.4171ZM20.7405 30.6046V26.8546C20.7405 25.3041 22.0025 24.0421 23.553 24.0421C25.1035 24.0421 26.3655 25.3042 26.3655 26.8546V30.6046C26.3655 32.1551 25.1035 33.4171 23.553 33.4171C22.0025 33.4171 20.7405 32.1551 20.7405 30.6046ZM23.553 31.5421C23.0374 31.5421 22.6155 31.1203 22.6155 30.6046V26.8546C22.6155 26.339 23.0374 25.9171 23.553 25.9171C24.0686 25.9171 24.4905 26.339 24.4905 26.8546V30.6046C24.4905 31.1203 24.0686 31.5421 23.553 31.5421ZM31.0529 31.5421C30.5373 31.5421 30.1154 31.1203 30.1154 30.6046V26.8546C30.1154 26.339 30.5373 25.9171 31.0529 25.9171C31.5686 25.9171 31.9904 26.339 31.9904 26.8546V30.6046C31.9904 31.1203 31.5686 31.5421 31.0529 31.5421Z" fill="#FFF08A"/>
<path fill-rule="evenodd" clip-rule="evenodd" d="M12.4688 28.5625C12.4688 37.4243 19.8601 44.4715 28.7031 44.0771C20.4519 43.7094 13.875 36.9044 13.875 28.5625C13.875 20.2205 20.4519 13.4155 28.7031 13.0478C19.8601 12.6534 12.4688 19.7006 12.4688 28.5625Z" fill="#FFC472"/>
<path fill-rule="evenodd" clip-rule="evenodd" d="M28.2404 30.6046C28.2404 32.1551 29.5024 33.4171 31.0529 33.4171C32.6034 33.4171 33.8654 32.1551 33.8654 30.6046V26.8546C33.8654 25.3042 32.6034 24.0421 31.0529 24.0421C29.5024 24.0421 28.2404 25.3041 28.2404 26.8546V30.6046ZM16.9906 33.4171H18.8656V24.0422H16.9906L16.0531 25.9172H16.9906V33.4171ZM20.7405 30.6046C20.7405 32.1551 22.0025 33.4171 23.553 33.4171C25.1035 33.4171 26.3655 32.1551 26.3655 30.6046V26.8546C26.3655 25.3042 25.1035 24.0421 23.553 24.0421C22.0025 24.0421 20.7405 25.3041 20.7405 26.8546V30.6046ZM23.553 31.5421C23.0374 31.5421 22.6155 31.1202 22.6155 30.6046V26.8546C22.6155 26.339 23.0374 25.9171 23.553 25.9171C24.0686 25.9171 24.4905 26.339 24.4905 26.8546V30.6046C24.4905 31.1202 24.0686 31.5421 23.553 31.5421ZM31.0529 31.5421C30.5373 31.5421 30.1154 31.1202 30.1154 30.6046V26.8546C30.1154 26.339 30.5373 25.9171 31.0529 25.9171C31.5686 25.9171 31.9904 26.339 31.9904 26.8546V30.6046C31.9904 31.1202 31.5686 31.5421 31.0529 31.5421Z" fill="white"/>
<path d="M35.0312 17.25H34.0937V16.3125H35.0312V17.25ZM33.1562 16.3125H32.2187V15.375H33.1562V16.3125Z" fill="white"/>
<path d="M20.2718 26.8546V30.6046C20.2718 32.4139 21.7438 33.8859 23.553 33.8859C25.3623 33.8859 26.8343 32.4139 26.8343 30.6046V26.8546C26.8343 25.0454 25.3623 23.5734 23.553 23.5734C21.7438 23.5734 20.2718 25.0454 20.2718 26.8546ZM25.8968 26.8546V30.6046C25.8968 31.897 24.8454 32.9484 23.553 32.9484C22.2606 32.9484 21.2093 31.897 21.2093 30.6046V26.8546C21.2093 25.5623 22.2606 24.5109 23.553 24.5109C24.8454 24.5109 25.8968 25.5623 25.8968 26.8546Z" fill="black"/>
<path d="M22.1468 26.8546V30.6046C22.1468 31.3801 22.7776 32.0109 23.553 32.0109C24.3284 32.0109 24.9593 31.3801 24.9593 30.6046V26.8546C24.9593 26.0792 24.3284 25.4484 23.553 25.4484C22.7776 25.4484 22.1468 26.0792 22.1468 26.8546ZM24.0218 26.8546V30.6046C24.0218 30.8631 23.8115 31.0734 23.553 31.0734C23.2945 31.0734 23.0843 30.8631 23.0843 30.6046V26.8546C23.0843 26.5961 23.2945 26.3859 23.553 26.3859C23.8115 26.3859 24.0218 26.5962 24.0218 26.8546Z" fill="black"/>
<path d="M27.7718 26.8546V30.6046C27.7718 32.4139 29.2437 33.8859 31.0529 33.8859C32.8622 33.8859 34.3342 32.4139 34.3342 30.6046V26.8546C34.3342 25.0454 32.8623 23.5734 31.053 23.5734C29.2438 23.5734 27.7718 25.0454 27.7718 26.8546ZM33.3967 26.8546V30.6046C33.3967 31.897 32.3453 32.9484 31.0529 32.9484C29.7606 32.9484 28.7093 31.897 28.7093 30.6046V26.8546C28.7093 25.5623 29.7606 24.5109 31.053 24.5109C32.3453 24.5109 33.3967 25.5623 33.3967 26.8546Z" fill="black"/>
<path d="M29.6467 26.8546V30.6046C29.6467 31.3801 30.2776 32.0109 31.0529 32.0109C31.8283 32.0109 32.4592 31.3801 32.4592 30.6046V26.8546C32.4592 26.0792 31.8284 25.4484 31.053 25.4484C30.2775 25.4484 29.6467 26.0792 29.6467 26.8546ZM31.5217 26.8546V30.6046C31.5217 30.8631 31.3114 31.0734 31.0529 31.0734C30.7944 31.0734 30.5842 30.8631 30.5842 30.6046V26.8546C30.5842 26.5961 30.7945 26.3859 31.053 26.3859C31.3114 26.3859 31.5217 26.5962 31.5217 26.8546Z" fill="black"/>
<path d="M19.3343 33.8859V23.5734H16.7009L15.2946 26.3859H16.5218V33.8859H19.3343ZM17.2802 24.5109H18.3967V32.9484H17.4592V25.4484H16.8115L17.2802 24.5109Z" fill="black"/>
<path d="M39.4451 32.714C40.2205 32.714 40.8514 32.0832 40.8514 31.3077C40.8514 30.5323 40.2205 29.9015 39.4451 29.9015C38.6698 29.9015 38.0389 30.5323 38.0389 31.3077C38.0389 32.0832 38.6698 32.714 39.4451 32.714ZM39.4451 30.839C39.7036 30.839 39.9139 31.0492 39.9139 31.3077C39.9139 31.5662 39.7036 31.7765 39.4451 31.7765C39.1866 31.7765 38.9764 31.5662 38.9764 31.3077C38.9764 31.0492 39.1866 30.839 39.4451 30.839Z" fill="black"/>
<path d="M38.0389 26.1516C38.0389 25.3762 37.408 24.7454 36.6326 24.7454C35.8573 24.7454 35.2264 25.3762 35.2264 26.1516C35.2264 26.927 35.8573 27.5579 36.6326 27.5579C37.408 27.5579 38.0389 26.927 38.0389 26.1516ZM36.1639 26.1516C36.1639 25.8932 36.3741 25.6829 36.6326 25.6829C36.8911 25.6829 37.1014 25.8932 37.1014 26.1516C37.1014 26.4101 36.8911 26.6204 36.6326 26.6204C36.3741 26.6204 36.1639 26.4101 36.1639 26.1516Z" fill="black"/>
<path d="M35.272 30.8319L40.1345 25.9694L40.7974 26.6322L35.9348 31.4947L35.272 30.8319Z" fill="black"/>
<path d="M38.3159 39.5624L38.9712 38.8921L39.6414 39.5473L38.9861 40.2176L38.3159 39.5624Z" fill="black"/>
<path d="M39.3137 17.2488C36.2917 14.2268 32.2737 12.5625 28 12.5625C23.7263 12.5625 19.7083 14.2268 16.6863 17.2488C13.6643 20.2708 12 24.2888 12 28.5625C12 32.8362 13.6643 36.8542 16.6863 39.8762C19.7083 42.8982 23.7263 44.5625 28 44.5625C31.7391 44.5625 35.3772 43.245 38.2439 40.8527L37.6432 40.1329C34.9447 42.3848 31.52 43.625 28 43.625C23.9766 43.625 20.1941 42.0582 17.3492 39.2133C14.5042 36.3684 12.9375 32.5859 12.9375 28.5625C12.9375 24.5391 14.5042 20.7566 17.3492 17.9117C20.1941 15.0667 23.9766 13.5 28 13.5C32.0234 13.5 35.8059 15.0667 38.6508 17.9117C41.4957 20.7566 43.0625 24.5391 43.0625 28.5625C43.0625 32.0802 41.8236 35.5035 39.5738 38.2017L40.2939 38.8021C42.6837 35.9357 44 32.2992 44 28.5625C44 24.2888 42.3357 20.2708 39.3137 17.2488Z" fill="black"/>
</g>
<defs>
<clipPath id="clip0_341_15890">
<rect width="32" height="32" fill="white" transform="translate(12 12.5625)"/>
</clipPath>
</defs>
</svg>
