<svg width="57" height="57" viewBox="0 0 57 57" fill="none" xmlns="http://www.w3.org/2000/svg">
<path d="M0.5 28.5625C0.5 13.0985 13.036 0.5625 28.5 0.5625V0.5625C43.964 0.5625 56.5 13.0985 56.5 28.5625V28.5625C56.5 44.0265 43.964 56.5625 28.5 56.5625V56.5625C13.036 56.5625 0.5 44.0265 0.5 28.5625V28.5625Z" fill="#EFF6FF"/>
<path opacity="0.4" d="M32.5 16.5626V28.5626C32.5 30.0292 31.3 31.2292 29.8333 31.2292H15.1666V22.7226C16.14 23.8826 17.6333 24.6026 19.2867 24.5626C20.6333 24.5359 21.8466 24.0159 22.7533 23.1493C23.1666 22.8026 23.5133 22.3626 23.78 21.8826C24.26 21.0692 24.5266 20.1092 24.5 19.1092C24.46 17.5492 23.7667 16.1759 22.6867 15.2292H31.1666C31.9 15.2292 32.5 15.8292 32.5 16.5626Z" fill="#2563EB"/>
<path d="M41.8333 31.2292V35.2292C41.8333 37.4426 40.0466 39.2292 37.8333 39.2292H36.5C36.5 37.7626 35.3 36.5626 33.8333 36.5626C32.3666 36.5626 31.1666 37.7626 31.1666 39.2292H25.8333C25.8333 37.7626 24.6333 36.5626 23.1666 36.5626C21.7 36.5626 20.5 37.7626 20.5 39.2292H19.1666C16.9533 39.2292 15.1666 37.4426 15.1666 35.2292V31.2292H29.8333C31.3 31.2292 32.5 30.0292 32.5 28.5626V19.2292H34.9533C35.9133 19.2292 36.7933 19.7493 37.2733 20.5759L39.5533 24.5626H37.8333C37.1 24.5626 36.5 25.1626 36.5 25.8959V29.8959C36.5 30.6292 37.1 31.2292 37.8333 31.2292H41.8333Z" fill="#2563EB"/>
<path opacity="0.4" d="M23.1666 41.8956C24.6394 41.8956 25.8333 40.7017 25.8333 39.2289C25.8333 37.7562 24.6394 36.5623 23.1666 36.5623C21.6939 36.5623 20.5 37.7562 20.5 39.2289C20.5 40.7017 21.6939 41.8956 23.1666 41.8956Z" fill="#2563EB"/>
<path opacity="0.4" d="M33.8333 41.8956C35.3061 41.8956 36.5 40.7017 36.5 39.2289C36.5 37.7562 35.3061 36.5623 33.8333 36.5623C32.3605 36.5623 31.1666 37.7562 31.1666 39.2289C31.1666 40.7017 32.3605 41.8956 33.8333 41.8956Z" fill="#2563EB"/>
<path opacity="0.4" d="M41.8333 29.2692V31.2292H37.8333C37.1 31.2292 36.5 30.6292 36.5 29.8958V25.8958C36.5 25.1625 37.1 24.5625 37.8333 24.5625H39.5533L41.4866 27.9491C41.7133 28.3491 41.8333 28.8025 41.8333 29.2692Z" fill="#2563EB"/>
<path d="M22.6866 15.2294C21.7266 14.376 20.4466 13.8694 19.0466 13.896C17.7932 13.9227 16.6466 14.3893 15.7399 15.136C14.5399 16.136 13.7933 17.6694 13.8333 19.3494C13.8599 20.3494 14.1533 21.2827 14.6733 22.0694C14.82 22.296 14.9799 22.5227 15.1666 22.7227C16.1399 23.8827 17.6333 24.6027 19.2866 24.5627C20.6333 24.536 21.8466 24.016 22.7533 23.1494C23.1666 22.8027 23.5133 22.3627 23.78 21.8827C24.26 21.0693 24.5266 20.1093 24.4999 19.1093C24.4599 17.5493 23.7666 16.176 22.6866 15.2294ZM21.9133 18.5894L19.1266 21.2827C18.9266 21.4693 18.6866 21.5627 18.4333 21.5627C18.18 21.5627 17.9399 21.4693 17.7399 21.2827L16.3933 20.0027C15.9933 19.616 15.98 18.9894 16.3666 18.5894C16.7533 18.1894 17.38 18.176 17.78 18.5627L18.4333 19.1893L20.5266 17.1627C20.9266 16.776 21.5533 16.7893 21.94 17.1893C22.3266 17.576 22.3133 18.2027 21.9133 18.5894Z" fill="#2563EB"/>
</svg>
