<svg width="56" height="57" viewBox="0 0 56 57" fill="none" xmlns="http://www.w3.org/2000/svg">
<path d="M0 28.5625C0 13.0985 12.536 0.5625 28 0.5625V0.5625C43.464 0.5625 56 13.0985 56 28.5625V28.5625C56 44.0265 43.464 56.5625 28 56.5625V56.5625C12.536 56.5625 0 44.0265 0 28.5625V28.5625Z" fill="#FFD336"/>
<g clip-path="url(#clip0_341_15916)">
<path d="M43 28.5625C43 30.4115 40.009 31.6525 39.342 33.2595C38.651 34.9265 39.863 37.9125 38.606 39.1685C37.35 40.4245 34.364 39.2125 32.697 39.9035C31.09 40.5715 29.849 43.5625 28 43.5625C26.151 43.5625 24.91 40.5715 23.303 39.9045C21.636 39.2135 18.65 40.4255 17.394 39.1685C16.138 37.9125 17.35 34.9265 16.659 33.2595C15.991 31.6525 13 30.4115 13 28.5625C13 26.7135 15.991 25.4725 16.658 23.8655C17.349 22.1985 16.137 19.2125 17.393 17.9565C18.649 16.7005 21.635 17.9125 23.302 17.2215C24.91 16.5535 26.151 13.5625 28 13.5625C29.849 13.5625 31.09 16.5535 32.697 17.2205C34.364 17.9115 37.35 16.6995 38.606 17.9555C39.862 19.2115 38.65 22.1975 39.341 23.8645C40.009 25.4725 43 26.7135 43 28.5625Z" fill="#FFEE58"/>
<path d="M43 28.5625C43 29.6525 41.96 30.5325 40.97 31.4025C40.99 31.2925 41 31.1825 41 31.0625C41 29.1525 37.91 27.8725 37.22 26.2125C36.51 24.4825 37.76 21.4025 36.46 20.1025C35.16 18.8025 32.08 20.0525 30.35 19.3425C28.69 18.6525 27.41 15.5625 25.5 15.5625C25.38 15.5625 25.27 15.5725 25.16 15.5925C26.03 14.6025 26.91 13.5625 28 13.5625C29.85 13.5625 31.09 16.5525 32.7 17.2225C34.36 17.9125 37.35 16.7025 38.61 17.9525C39.86 19.2125 38.65 22.2025 39.34 23.8625C40.01 25.4725 43 26.7125 43 28.5625Z" fill="#FFFBD7"/>
<path d="M31.04 41.2924C30.11 42.3424 29.18 43.5624 28 43.5624C26.15 43.5624 24.91 40.5724 23.3 39.9024C21.64 39.2124 18.65 40.4224 17.39 39.1724C16.14 37.9124 17.35 34.9224 16.66 33.2624C15.99 31.6524 13 30.4124 13 28.5624C13 26.7124 15.99 25.4724 16.66 23.8624C17.35 22.2024 16.14 19.2124 17.39 17.9524C18.14 17.2124 19.5 17.3324 20.82 17.4124C20.68 18.8324 21.15 20.6824 20.66 21.8624C19.99 23.4724 17 24.7124 17 26.5624C17 28.4124 19.99 29.6524 20.66 31.2624C21.35 32.9224 20.14 35.9124 21.39 37.1724C22.65 38.4224 25.64 37.2124 27.3 37.9024C28.61 38.4524 29.68 40.5424 31.04 41.2924Z" fill="#FFB300"/>
<path d="M41.711 25.0455C41.096 24.5075 40.461 23.9515 40.266 23.4825C40.054 22.9695 40.108 22.0955 40.16 21.2505C40.245 19.8565 40.342 18.2765 39.314 17.2495C38.286 16.2225 36.709 16.3175 35.314 16.4045C34.467 16.4555 33.594 16.5095 33.081 16.2975C32.611 16.1025 32.056 15.4675 31.518 14.8525C30.578 13.7795 29.514 12.5625 28 12.5625C26.486 12.5625 25.422 13.7795 24.483 14.8515C23.945 15.4665 23.389 16.1015 22.92 16.2965C22.406 16.5085 21.532 16.4555 20.688 16.4025C19.296 16.3175 17.715 16.2215 16.687 17.2495C15.66 18.2765 15.756 19.8555 15.842 21.2495C15.894 22.0955 15.947 22.9705 15.735 23.4825C15.54 23.9525 14.905 24.5075 14.29 25.0455C13.217 25.9845 12 27.0485 12 28.5625C12 30.0765 13.217 31.1405 14.289 32.0795C14.904 32.6175 15.539 33.1735 15.734 33.6425C15.946 34.1555 15.892 35.0295 15.84 35.8745C15.755 37.2685 15.658 38.8485 16.686 39.8755C17.714 40.9025 19.291 40.8075 20.686 40.7205C21.533 40.6695 22.406 40.6145 22.919 40.8275C23.389 41.0225 23.944 41.6575 24.482 42.2725C25.422 43.3455 26.486 44.5625 28 44.5625C29.514 44.5625 30.578 43.3455 31.517 42.2735C32.055 41.6585 32.611 41.0235 33.08 40.8285C33.591 40.6165 34.467 40.6695 35.312 40.7225C36.704 40.8085 38.285 40.9055 39.313 39.8765C40.34 38.8495 40.244 37.2705 40.158 35.8765C40.106 35.0305 40.053 34.1555 40.265 33.6435C40.46 33.1735 41.095 32.6185 41.71 32.0805C42.783 31.1405 44 30.0765 44 28.5625C44 27.0485 42.783 25.9845 41.711 25.0455ZM40.394 30.5745C39.607 31.2625 38.792 31.9745 38.418 32.8775C38.028 33.8165 38.097 34.9265 38.162 35.9985C38.222 36.9705 38.29 38.0715 37.899 38.4625C37.509 38.8535 36.406 38.7835 35.434 38.7265C34.363 38.6615 33.253 38.5925 32.314 38.9815C31.412 39.3555 30.7 40.1695 30.011 40.9575C29.32 41.7465 28.606 42.5625 28 42.5625C27.394 42.5625 26.68 41.7465 25.988 40.9565C25.3 40.1695 24.588 39.3545 23.685 38.9805C23.106 38.7405 22.461 38.6735 21.801 38.6735C21.391 38.6735 20.975 38.6985 20.564 38.7245C19.589 38.7845 18.49 38.8525 18.1 38.4615C17.709 38.0705 17.777 36.9695 17.836 35.9965C17.902 34.9245 17.97 33.8155 17.581 32.8765C17.207 31.9745 16.393 31.2625 15.605 30.5735C14.816 29.8825 14 29.1685 14 28.5625C14 27.9565 14.816 27.2425 15.606 26.5505C16.393 25.8625 17.208 25.1505 17.582 24.2475C17.972 23.3085 17.903 22.1985 17.838 21.1265C17.778 20.1555 17.71 19.0535 18.101 18.6635C18.492 18.2735 19.593 18.3425 20.566 18.3995C21.638 18.4665 22.747 18.5355 23.686 18.1445C24.588 17.7705 25.3 16.9565 25.989 16.1685C26.68 15.3785 27.394 14.5625 28 14.5625C28.606 14.5625 29.32 15.3785 30.012 16.1685C30.7 16.9555 31.412 17.7705 32.315 18.1445C33.253 18.5345 34.363 18.4655 35.436 18.4005C36.409 18.3395 37.509 18.2715 37.9 18.6635C38.291 19.0545 38.223 20.1555 38.164 21.1285C38.098 22.2005 38.03 23.3095 38.419 24.2485C38.793 25.1505 39.607 25.8625 40.395 26.5515C41.184 27.2425 42 27.9565 42 28.5625C42 29.1685 41.184 29.8825 40.394 30.5745Z" fill="black"/>
<path d="M21.233 30.6146L20.326 31.0376L19.903 30.1316L20.809 29.7086C21.309 29.4756 21.526 28.8806 21.292 28.3796C21.059 27.8796 20.464 27.6646 19.963 27.8966L18.15 28.7426C17.65 28.9756 17.433 29.5706 17.667 30.0716C17.667 30.0716 18.934 32.7886 18.936 32.7926C18.936 32.7926 20.202 35.5066 20.203 35.5086C20.411 35.9546 20.94 36.1766 21.408 36.0366C21.979 35.8656 22.266 35.2006 22.015 34.6626L21.17 32.8506L22.077 32.4276C22.577 32.1946 22.794 31.5996 22.56 31.0986C22.328 30.5986 21.733 30.3816 21.233 30.6146Z" fill="black"/>
<path d="M28.881 30.8496L27.087 29.7576C27.624 29.0426 27.77 28.0686 27.367 27.2026C27.085 26.5976 26.584 26.1386 25.956 25.9096C25.327 25.6806 24.648 25.7106 24.046 25.9936C24.046 25.9936 22.687 26.6266 22.685 26.6276C22.185 26.8606 21.968 27.4556 22.202 27.9566C22.202 27.9566 24.736 33.3896 24.738 33.3936C24.95 33.8476 25.495 34.0736 25.968 33.9156C26.524 33.7306 26.797 33.0766 26.55 32.5476L26.044 31.4626L27.843 32.5576C28.005 32.6566 28.185 32.7026 28.361 32.7036C29.342 32.7046 29.72 31.3606 28.881 30.8496ZM25.271 27.7916C25.679 27.9406 25.708 28.5276 25.313 28.7126C25.313 28.7126 24.86 28.9236 24.859 28.9246L24.436 28.0186L24.891 27.8066C25.013 27.7486 25.15 27.7476 25.271 27.7916Z" fill="black"/>
<path d="M32.471 28.6845L31.564 29.1075L31.141 28.2005C31.141 28.2005 32.045 27.7785 32.048 27.7775C33.204 27.2385 32.384 25.4145 31.202 25.9645L30.296 26.3865L29.874 25.4805L30.78 25.0585C31.926 24.5245 31.123 22.6955 29.934 23.2455L28.121 24.0905C27.621 24.3235 27.404 24.9185 27.638 25.4195L30.173 30.8575C30.343 31.2205 30.703 31.4345 31.08 31.4345C31.222 31.4345 31.365 31.4045 31.502 31.3405C31.502 31.3405 33.311 30.4965 33.315 30.4945C34.475 29.9565 33.651 28.1375 32.471 28.6845Z" fill="black"/>
<path d="M37.002 26.5716L36.096 26.9946L35.673 26.0886C35.673 26.0886 36.577 25.6676 36.58 25.6656C37.736 25.1266 36.916 23.3066 35.734 23.8526L34.828 24.2756L34.405 23.3686C34.405 23.3686 35.31 22.9466 35.311 22.9466C36.47 22.4066 35.646 20.5866 34.465 21.1336L32.652 21.9786C32.152 22.2116 31.935 22.8066 32.169 23.3076C32.169 23.3076 33.436 26.0246 33.439 26.0306L34.705 28.7456C34.875 29.1086 35.235 29.3226 35.612 29.3226C35.754 29.3226 35.897 29.2926 36.034 29.2286C36.034 29.2286 37.842 28.3856 37.846 28.3826C39.005 27.8436 38.182 26.0236 37.002 26.5716Z" fill="black"/>
</g>
<defs>
<clipPath id="clip0_341_15916">
<rect width="32" height="32" fill="white" transform="translate(12 12.5625)"/>
</clipPath>
</defs>
</svg>
