<svg width="56" height="57" viewBox="0 0 56 57" fill="none" xmlns="http://www.w3.org/2000/svg">
<path d="M0 28.5625C0 13.0985 12.536 0.5625 28 0.5625V0.5625C43.464 0.5625 56 13.0985 56 28.5625V28.5625C56 44.0265 43.464 56.5625 28 56.5625V56.5625C12.536 56.5625 0 44.0265 0 28.5625V28.5625Z" fill="#FFD336"/>
<g clip-path="url(#clip0_345_16494)">
<path d="M28 12.5625C19.1634 12.5625 12 19.7259 12 28.5625C12 37.399 19.1634 44.5624 28 44.5624C36.8365 44.5624 43.9999 37.399 43.9999 28.5625C43.99 19.7301 36.8324 12.5725 28 12.5625Z" fill="#FFEE58"/>
<path d="M18.2609 32.0408C17.8767 32.0408 17.5652 31.7293 17.5652 31.3451V25.7799C17.5652 25.3957 17.8767 25.0842 18.2609 25.0842H21.0435C21.4277 25.0842 21.7392 25.3957 21.7392 25.7799C21.7392 26.1641 21.4277 26.4756 21.0435 26.4756H18.9565V31.3451C18.9565 31.7293 18.6451 32.0408 18.2609 32.0408Z" fill="#FAFAFA"/>
<path d="M19.6521 29.258H18.2609C17.8767 29.258 17.5652 28.9466 17.5652 28.5624C17.5652 28.1782 17.8767 27.8667 18.2609 27.8667H19.6521C20.0363 27.8667 20.3478 28.1782 20.3478 28.5624C20.3478 28.9466 20.0363 29.258 19.6521 29.258Z" fill="#FAFAFA"/>
<path d="M36.6803 22.3016C36.4693 22.3016 36.2698 22.2059 36.1377 22.0414C32.5449 17.5463 25.9883 16.8148 21.4932 20.4077C20.8898 20.89 20.3418 21.438 19.8595 22.0414C19.6297 22.3493 19.1938 22.4127 18.8859 22.1829C18.578 21.9531 18.5146 21.5172 18.7444 21.2093C18.7544 21.196 18.7648 21.183 18.7757 21.1705C22.8478 16.0768 30.2783 15.2487 35.3719 19.3208C36.0551 19.867 36.6754 20.4873 37.2216 21.1705C37.4621 21.4701 37.4141 21.9079 37.1145 22.1484C36.991 22.2475 36.8374 22.3016 36.6789 22.3016H36.6803Z" fill="#FFEE58"/>
<path d="M28 40.3885C24.7537 40.3975 21.6492 39.0594 19.4267 36.6932C19.1535 36.4231 19.1509 35.9827 19.4209 35.7094C19.6909 35.4361 20.1314 35.4335 20.4047 35.7035C20.4152 35.714 20.4256 35.7248 20.4355 35.7359C24.3801 39.9141 30.9649 40.1034 35.1431 36.1587C35.2881 36.0219 35.429 35.8809 35.5659 35.7359C35.8213 35.4489 36.261 35.4232 36.548 35.6786C36.835 35.934 36.8607 36.3737 36.6053 36.6607C36.5954 36.6719 36.5852 36.6826 36.5746 36.6931C34.3518 39.0597 31.2467 40.3978 28 40.3885Z" fill="#FFEE58"/>
<path d="M26.6087 32.0408C26.424 32.0411 26.2468 31.968 26.1162 31.8376L24.5217 30.2418V31.3451C24.5217 31.7293 24.2102 32.0408 23.826 32.0408C23.4418 32.0408 23.1304 31.7293 23.1304 31.3451V25.7799C23.1304 25.3957 23.4418 25.0842 23.826 25.0842H25.2173C26.3699 25.0866 27.3024 26.0228 27.3 27.1754C27.298 28.2205 26.5232 29.1028 25.4873 29.2401L27.0998 30.8526C27.3718 31.1239 27.3723 31.5644 27.101 31.8364C26.9706 31.9672 26.7934 32.0407 26.6087 32.0408ZM24.5217 27.8669H25.2174C25.6016 27.8669 25.9131 27.5554 25.9131 27.1712C25.9131 26.787 25.6016 26.4755 25.2174 26.4755H24.5217V27.8669Z" fill="#FAFAFA"/>
<path d="M32.1739 32.0408H29.3912C29.007 32.0408 28.6956 31.7293 28.6956 31.3451V25.7799C28.6956 25.3957 29.007 25.0842 29.3912 25.0842H32.1739C32.5581 25.0842 32.8695 25.3957 32.8695 25.7799C32.8695 26.1641 32.5581 26.4756 32.1739 26.4756H30.0869V30.6495H32.1739C32.5581 30.6495 32.8695 30.961 32.8695 31.3452C32.8695 31.7293 32.5581 32.0408 32.1739 32.0408Z" fill="#FAFAFA"/>
<path d="M30.7826 29.258H29.3913C29.0071 29.258 28.6956 28.9466 28.6956 28.5624C28.6956 28.1782 29.0071 27.8667 29.3913 27.8667H30.7826C31.1668 27.8667 31.4783 28.1782 31.4783 28.5624C31.4783 28.9466 31.1668 29.258 30.7826 29.258Z" fill="#FAFAFA"/>
<path d="M37.7391 32.0408H34.9565C34.5723 32.0408 34.2608 31.7293 34.2608 31.3451V25.7799C34.2608 25.3957 34.5723 25.0842 34.9565 25.0842H37.7391C38.1233 25.0842 38.4348 25.3957 38.4348 25.7799C38.4348 26.1641 38.1233 26.4756 37.7391 26.4756H35.6522V30.6495H37.7391C38.1233 30.6495 38.4348 30.961 38.4348 31.3452C38.4347 31.7293 38.1233 32.0408 37.7391 32.0408Z" fill="#FAFAFA"/>
<path d="M36.3478 29.258H34.9565C34.5723 29.258 34.2608 28.9466 34.2608 28.5624C34.2608 28.1782 34.5723 27.8667 34.9565 27.8667H36.3478C36.732 27.8667 37.0435 28.1782 37.0435 28.5624C37.0435 28.9466 36.732 29.258 36.3478 29.258Z" fill="#FAFAFA"/>
<path d="M18.2609 32.0408C17.8767 32.0408 17.5652 31.7293 17.5652 31.3451V25.7799C17.5652 25.3957 17.8767 25.0842 18.2609 25.0842H21.0435C21.4277 25.0842 21.7392 25.3957 21.7392 25.7799C21.7392 26.1641 21.4277 26.4756 21.0435 26.4756H18.9565V31.3451C18.9565 31.7293 18.6451 32.0408 18.2609 32.0408Z" fill="black"/>
<path d="M19.6521 29.258H18.2609C17.8767 29.258 17.5652 28.9466 17.5652 28.5624C17.5652 28.1782 17.8767 27.8667 18.2609 27.8667H19.6521C20.0363 27.8667 20.3478 28.1782 20.3478 28.5624C20.3478 28.9466 20.0363 29.258 19.6521 29.258Z" fill="black"/>
<path d="M28 44.5625C19.1634 44.5625 12 37.399 12 28.5625C12 19.7259 19.1634 12.5625 28 12.5625C36.8365 12.5625 43.9999 19.7259 43.9999 28.5625C43.99 37.3949 36.8324 44.5525 28 44.5625ZM28 13.9538C19.9318 13.9538 13.3913 20.4943 13.3913 28.5625C13.3913 36.6306 19.9318 43.1712 28 43.1712C36.0681 43.1712 42.6087 36.6306 42.6087 28.5625C42.6002 20.4978 36.0647 13.9623 28 13.9538Z" fill="black"/>
<path d="M36.6803 22.3016C36.4694 22.3017 36.2698 22.2059 36.1377 22.0415C32.5449 17.5464 25.9884 16.8149 21.4932 20.4077C20.8898 20.89 20.3418 21.438 19.8595 22.0415C19.6344 22.3529 19.1996 22.4229 18.8882 22.1979C18.5768 21.9728 18.5068 21.538 18.7318 21.2266C18.7455 21.2077 18.7601 21.1894 18.7756 21.1719C22.8478 16.0782 30.2782 15.2501 35.3719 19.3223C36.055 19.8684 36.6754 20.4888 37.2215 21.1719C37.462 21.4715 37.4141 21.9094 37.1145 22.1499C36.991 22.249 36.8373 22.303 36.6789 22.303L36.6803 22.3016Z" fill="black"/>
<path d="M28 40.3886C24.7536 40.3984 21.6488 39.0601 19.4268 36.6933C19.1491 36.4278 19.1393 35.9874 19.405 35.7098C19.6705 35.4322 20.1109 35.4224 20.3885 35.688C20.405 35.7037 20.4206 35.7203 20.4355 35.7376C24.3813 39.9157 30.967 40.1041 35.1451 36.1583C35.2894 36.0221 35.4297 35.8818 35.5659 35.7376C35.8213 35.4505 36.261 35.4248 36.548 35.6802C36.835 35.9356 36.8607 36.3753 36.6053 36.6623C36.5954 36.6735 36.5852 36.6843 36.5746 36.6948C34.352 39.0614 31.2467 40.3992 28 40.3886Z" fill="black"/>
<path d="M26.6087 32.0408C26.424 32.0411 26.2468 31.968 26.1162 31.8376L24.5217 30.2418V31.3451C24.5217 31.7293 24.2102 32.0408 23.826 32.0408C23.4418 32.0408 23.1304 31.7293 23.1304 31.3451V25.7799C23.1304 25.3957 23.4418 25.0842 23.826 25.0842H25.2173C26.3699 25.0866 27.3024 26.0228 27.3 27.1754C27.298 28.2205 26.5232 29.1028 25.4873 29.2401L27.0998 30.8526C27.3718 31.1239 27.3723 31.5644 27.101 31.8364C26.9706 31.9672 26.7934 32.0407 26.6087 32.0408ZM24.5217 27.8669H25.2174C25.6016 27.8669 25.9131 27.5554 25.9131 27.1712C25.9131 26.787 25.6016 26.4755 25.2174 26.4755H24.5217V27.8669Z" fill="black"/>
<path d="M32.1739 32.0408H29.3913C29.0071 32.0408 28.6956 31.7293 28.6956 31.3451V25.7799C28.6956 25.3957 29.0071 25.0842 29.3913 25.0842H32.1739C32.5581 25.0842 32.8696 25.3957 32.8696 25.7799C32.8696 26.1641 32.5581 26.4756 32.1739 26.4756H30.0869V30.6495H32.1739C32.5581 30.6495 32.8696 30.961 32.8696 31.3452C32.8696 31.7293 32.5581 32.0408 32.1739 32.0408Z" fill="black"/>
<path d="M30.7826 29.258H29.3913C29.0071 29.258 28.6956 28.9466 28.6956 28.5624C28.6956 28.1782 29.0071 27.8667 29.3913 27.8667H30.7826C31.1668 27.8667 31.4783 28.1782 31.4783 28.5624C31.4783 28.9466 31.1668 29.258 30.7826 29.258Z" fill="black"/>
<path d="M37.7391 32.0408H34.9565C34.5723 32.0408 34.2608 31.7293 34.2608 31.3451V25.7799C34.2608 25.3957 34.5723 25.0842 34.9565 25.0842H37.7391C38.1233 25.0842 38.4348 25.3957 38.4348 25.7799C38.4348 26.1641 38.1233 26.4756 37.7391 26.4756H35.6522V30.6495H37.7391C38.1233 30.6495 38.4348 30.961 38.4348 31.3452C38.4347 31.7293 38.1233 32.0408 37.7391 32.0408Z" fill="black"/>
<path d="M36.3478 29.258H34.9565C34.5723 29.258 34.2608 28.9466 34.2608 28.5624C34.2608 28.1782 34.5723 27.8667 34.9565 27.8667H36.3478C36.732 27.8667 37.0435 28.1782 37.0435 28.5624C37.0435 28.9466 36.732 29.258 36.3478 29.258Z" fill="black"/>
</g>
<defs>
<clipPath id="clip0_345_16494">
<rect width="32" height="32" fill="white" transform="translate(12 12.5625)"/>
</clipPath>
</defs>
</svg>
