<svg width="57" height="57" viewBox="0 0 57 57" fill="none" xmlns="http://www.w3.org/2000/svg">
<path d="M0.5 28.5625C0.5 13.0985 13.036 0.5625 28.5 0.5625V0.5625C43.964 0.5625 56.5 13.0985 56.5 28.5625V28.5625C56.5 44.0265 43.964 56.5625 28.5 56.5625V56.5625C13.036 56.5625 0.5 44.0265 0.5 28.5625V28.5625Z" fill="#F7FEE7"/>
<path opacity="0.4" d="M38.3 20.1092L29.9134 15.5892C29.0334 15.1092 27.9667 15.1092 27.0733 15.5892L18.6867 20.1092C18.0734 20.4425 17.7 21.0959 17.7 21.8159C17.7 22.5359 18.0734 23.1892 18.6867 23.5225L27.0733 28.0425C27.5133 28.2825 28.0067 28.4026 28.4867 28.4026C28.9667 28.4026 29.46 28.2825 29.9 28.0425L38.2867 23.5225C38.9 23.1892 39.2733 22.5359 39.2733 21.8159C39.3 21.0959 38.9134 20.4425 38.3 20.1092Z" fill="#65A30D"/>
<path opacity="0.4" d="M25.7 29.6157L17.9 25.709C17.3 25.4024 16.6067 25.4423 16.0334 25.789C15.46 26.1357 15.1267 26.7491 15.1267 27.4157V34.789C15.1267 36.069 15.8334 37.2157 16.98 37.789L24.78 41.6824C25.0467 41.8157 25.3401 41.8824 25.6334 41.8824C25.9801 41.8824 26.3267 41.7891 26.6334 41.5891C27.2067 41.2424 27.54 40.629 27.54 39.9624V32.5891C27.5534 31.3357 26.8467 30.189 25.7 29.6157Z" fill="#65A30D"/>
<path opacity="0.4" d="M41.8733 27.4293V33.5492C41.86 33.5359 41.8467 33.5093 41.8333 33.4959C41.8333 33.4826 41.82 33.4692 41.8067 33.4559C41.7533 33.3759 41.6867 33.2959 41.62 33.2293C41.6067 33.2159 41.5933 33.1893 41.58 33.176C40.5 31.976 38.9133 31.2293 37.1667 31.2293C35.4867 31.2293 33.9533 31.9226 32.86 33.0426C31.8067 34.1226 31.1667 35.6026 31.1667 37.2293C31.1667 38.3493 31.4867 39.4159 32.0333 40.3226C32.26 40.7093 32.54 41.0559 32.8467 41.3759L32.22 41.6959C31.9533 41.8292 31.66 41.8959 31.3667 41.8959C31.02 41.8959 30.6734 41.8026 30.3534 41.6026C29.7934 41.256 29.4467 40.6426 29.4467 39.9759V32.6159C29.4467 31.3359 30.1533 30.1892 31.3 29.6159L39.1 25.7226C39.7 25.4159 40.3933 25.4426 40.9667 25.8026C41.5267 26.1493 41.8733 26.7626 41.8733 27.4293Z" fill="#65A30D"/>
<path d="M41.8067 33.4556C40.7134 32.1089 39.0467 31.2556 37.1667 31.2556C35.7534 31.2556 34.4467 31.7489 33.42 32.5756C32.0334 33.6689 31.1667 35.3623 31.1667 37.2556C31.1667 38.3756 31.4867 39.4423 32.0333 40.349C32.3933 40.949 32.8467 41.4689 33.38 41.8956H33.3934C34.42 42.7489 35.74 43.2556 37.1667 43.2556C38.6867 43.2556 40.06 42.6956 41.1133 41.7623C41.58 41.3623 41.98 40.8823 42.3 40.349C42.8467 39.4423 43.1667 38.3756 43.1667 37.2556C43.1667 35.8156 42.66 34.4822 41.8067 33.4556ZM40.18 36.509L36.98 39.4689C36.7933 39.6422 36.54 39.7356 36.3 39.7356C36.0467 39.7356 35.7934 39.6422 35.5934 39.4422L34.1133 37.9622C33.7267 37.5756 33.7267 36.9356 34.1133 36.5489C34.5 36.1622 35.14 36.1622 35.5267 36.5489L36.3267 37.349L38.82 35.0422C39.22 34.6689 39.86 34.6956 40.2333 35.0956C40.62 35.509 40.5934 36.1356 40.18 36.509Z" fill="#65A30D"/>
</svg>
