<svg width="56" height="57" viewBox="0 0 56 57" fill="none" xmlns="http://www.w3.org/2000/svg">
<path d="M0 28.5625C0 13.0985 12.536 0.5625 28 0.5625V0.5625C43.464 0.5625 56 13.0985 56 28.5625V28.5625C56 44.0265 43.464 56.5625 28 56.5625V56.5625C12.536 56.5625 0 44.0265 0 28.5625V28.5625Z" fill="#FFF7ED"/>
<path fill-rule="evenodd" clip-rule="evenodd" d="M22.1042 16.4452C18.4121 17.3017 15.6666 20.6071 15.6666 24.5626C15.6666 25.1149 15.2189 25.5626 14.6666 25.5626C14.1143 25.5626 13.6666 25.1149 13.6666 24.5626C13.6666 18.8503 18.2877 14.2292 24 14.2292C24.3602 14.2292 24.6927 14.423 24.8702 14.7365C25.0477 15.0501 25.0428 15.4348 24.8575 15.7437L23.4575 18.0771C23.1733 18.5507 22.5591 18.7042 22.0855 18.4201C21.6119 18.1359 21.4583 17.5217 21.7425 17.0481L22.1042 16.4452ZM41.3333 31.5626C41.8856 31.5626 42.3333 32.0103 42.3333 32.5626C42.3333 38.2749 37.7122 42.8959 32 42.8959C31.6397 42.8959 31.3073 42.7021 31.1298 42.3886C30.9523 42.0751 30.9571 41.6904 31.1425 41.3814L32.5424 39.0481C32.8266 38.5745 33.4409 38.4209 33.9144 38.7051C34.388 38.9892 34.5416 39.6035 34.2574 40.0771L33.8957 40.68C37.5878 39.8234 40.3333 36.518 40.3333 32.5626C40.3333 32.0103 40.781 31.5626 41.3333 31.5626Z" fill="#EA580C"/>
<path d="M33.8666 23.5092L28.8533 20.8025C28.32 20.5225 27.6933 20.5225 27.16 20.8025L22.1466 23.5092C21.7866 23.7092 21.56 24.0959 21.56 24.5359C21.56 24.9759 21.7866 25.3625 22.1466 25.5625L27.16 28.2692C27.4266 28.4159 27.72 28.4825 28.0133 28.4825C28.3067 28.4825 28.6 28.4159 28.8666 28.2692L33.88 25.5625C34.24 25.3625 34.4667 24.9759 34.4667 24.5359C34.4533 24.0959 34.2266 23.7092 33.8666 23.5092Z" fill="#EA580C"/>
<path opacity="0.4" d="M26.32 29.1891L21.6533 26.8557C21.2933 26.6824 20.88 26.6957 20.5333 26.9091C20.1866 27.1224 19.9866 27.4824 19.9866 27.8824V32.2957C19.9866 33.0557 20.4133 33.7491 21.0933 34.0824L25.76 36.4157C25.92 36.4957 26.0933 36.5357 26.28 36.5357C26.4933 36.5357 26.6933 36.4824 26.88 36.3624C27.2267 36.1491 27.4267 35.7891 27.4267 35.3891V30.9757C27.4267 30.2157 27.0133 29.5357 26.32 29.1891Z" fill="#EA580C"/>
<path opacity="0.4" d="M35.4533 26.9091C35.1066 26.6957 34.6933 26.6824 34.3333 26.8557L29.6666 29.1891C28.9866 29.5357 28.56 30.2157 28.56 30.9757V35.3891C28.56 35.7891 28.76 36.1491 29.1066 36.3624C29.2933 36.4824 29.4933 36.5357 29.7066 36.5357C29.88 36.5357 30.0533 36.4957 30.2267 36.4157L34.8933 34.0824C35.5733 33.7357 36 33.0557 36 32.2957V27.8824C36 27.4824 35.8 27.1224 35.4533 26.9091Z" fill="#EA580C"/>
</svg>
