<svg width="56" height="57" viewBox="0 0 56 57" fill="none" xmlns="http://www.w3.org/2000/svg">
<path d="M0 28.5625C0 13.0985 12.536 0.5625 28 0.5625V0.5625C43.464 0.5625 56 13.0985 56 28.5625V28.5625C56 44.0265 43.464 56.5625 28 56.5625V56.5625C12.536 56.5625 0 44.0265 0 28.5625V28.5625Z" fill="#FFF1F2"/>
<path opacity="0.4" d="M41.3333 25.5626C40.7866 25.5626 40.3333 25.1092 40.3333 24.5626V21.8959C40.3333 18.4559 38.1066 16.2292 34.6666 16.2292H21.3333C17.8933 16.2292 15.6666 18.4559 15.6666 21.8959V24.5626C15.6666 25.1092 15.2133 25.5626 14.6666 25.5626C14.12 25.5626 13.6666 25.1092 13.6666 24.5626V21.8959C13.6666 17.3092 16.7466 14.2292 21.3333 14.2292H34.6666C39.2533 14.2292 42.3333 17.3092 42.3333 21.8959V24.5626C42.3333 25.1092 41.88 25.5626 41.3333 25.5626Z" fill="#E11D48"/>
<path opacity="0.4" d="M34.6666 42.8958H21.3333C16.7466 42.8958 13.6666 39.8158 13.6666 35.2292V32.5625C13.6666 32.0158 14.12 31.5625 14.6666 31.5625C15.2133 31.5625 15.6666 32.0158 15.6666 32.5625V35.2292C15.6666 38.6692 17.8933 40.8958 21.3333 40.8958H34.6666C38.1066 40.8958 40.3333 38.6692 40.3333 35.2292V32.5625C40.3333 32.0158 40.7866 31.5625 41.3333 31.5625C41.88 31.5625 42.3333 32.0158 42.3333 32.5625V35.2292C42.3333 39.8158 39.2533 42.8958 34.6666 42.8958Z" fill="#E11D48"/>
<path d="M33.8666 23.5092L28.8533 20.8025C28.32 20.5225 27.6933 20.5225 27.16 20.8025L22.1466 23.5092C21.7866 23.7092 21.56 24.0958 21.56 24.5358C21.56 24.9758 21.7866 25.3625 22.1466 25.5625L27.16 28.2692C27.4266 28.4159 27.72 28.4825 28.0133 28.4825C28.3066 28.4825 28.6 28.4159 28.8666 28.2692L33.88 25.5625C34.24 25.3625 34.4666 24.9758 34.4666 24.5358C34.4533 24.0958 34.2266 23.7092 33.8666 23.5092Z" fill="#E11D48"/>
<path d="M26.32 29.1891L21.6533 26.8557C21.2933 26.6824 20.88 26.6958 20.5333 26.9091C20.1866 27.1224 19.9866 27.4824 19.9866 27.8824V32.2957C19.9866 33.0557 20.4133 33.7491 21.0933 34.0824L25.76 36.4158C25.92 36.4958 26.0933 36.5357 26.28 36.5357C26.4933 36.5357 26.6933 36.4824 26.88 36.3624C27.2266 36.1491 27.4266 35.7891 27.4266 35.3891V30.9758C27.4266 30.2158 27.0133 29.5357 26.32 29.1891Z" fill="#E11D48"/>
<path d="M35.4533 26.9091C35.1066 26.6958 34.6933 26.6824 34.3333 26.8557L29.6666 29.1891C28.9866 29.5357 28.56 30.2158 28.56 30.9758V35.3891C28.56 35.7891 28.76 36.1491 29.1066 36.3624C29.2933 36.4824 29.4933 36.5357 29.7066 36.5357C29.88 36.5357 30.0533 36.4958 30.2266 36.4158L34.8933 34.0824C35.5733 33.7358 36 33.0557 36 32.2957V27.8824C36 27.4824 35.8 27.1224 35.4533 26.9091Z" fill="#E11D48"/>
</svg>
