<svg width="56" height="57" viewBox="0 0 56 57" fill="none" xmlns="http://www.w3.org/2000/svg">
<path d="M0 28.5625C0 13.0985 12.536 0.5625 28 0.5625V0.5625C43.464 0.5625 56 13.0985 56 28.5625V28.5625C56 44.0265 43.464 56.5625 28 56.5625V56.5625C12.536 56.5625 0 44.0265 0 28.5625V28.5625Z" fill="#FFD336"/>
<g clip-path="url(#clip0_341_15903)">
<mask id="mask0_341_15903" style="mask-type:luminance" maskUnits="userSpaceOnUse" x="12" y="12" width="32" height="33">
<path d="M12 12.5624H44V44.5624H12V12.5624Z" fill="white"/>
</mask>
<g mask="url(#mask0_341_15903)">
<path d="M27.5129 21.768H27.4544V20.7974H32.9242C35.058 20.7974 36.8367 19.1 36.8642 16.9663C36.8922 14.7984 35.1434 13.0323 32.982 13.0323H29.1967C26.5039 13.0323 24.3209 15.2153 24.3209 17.9082V26.4762L29.089 29.5723C30.226 30.3107 30.9122 31.5743 30.9122 32.9302C30.9122 34.8033 29.3872 36.3273 27.5129 36.3273L24.3209 38.6403V41.7795L27.5129 44.0924C33.669 44.0924 38.6773 39.0852 38.6773 32.9302C38.6773 26.7753 33.669 21.768 27.5129 21.768Z" fill="#FF8F71"/>
<path d="M27.5129 36.3273C26.3027 36.3273 25.1735 35.6754 24.5659 34.6259C23.4916 32.7701 21.1162 32.1368 19.2606 33.2111C17.4049 34.2854 16.7715 36.6607 17.8458 38.5164C19.8369 41.9559 23.5411 44.0924 27.5129 44.0924C25.3686 41.9482 25.3686 38.4717 27.5129 36.3273Z" fill="#FF6F4D"/>
<path d="M26.9699 25.4349C25.9861 25.136 25.3143 24.2278 25.3143 23.1995V16.915C25.3143 14.7707 27.0525 13.0325 29.1968 13.0325H23.5718C21.4276 13.0325 19.6893 14.7707 19.6893 16.915C19.6893 26.1194 19.6632 25.696 19.6632 25.696C19.6874 27.8316 21.4647 29.5332 23.6003 29.5332H27.513C29.3873 29.5332 30.9123 31.0571 30.9123 32.9303V30.7564C30.9123 28.2467 29.2504 26.1275 26.9699 25.4349Z" fill="#FF6F4D"/>
<path d="M29.377 17.3124H26.9395C26.2663 17.3124 25.7207 17.8156 25.7207 18.9374C25.7207 20.2006 26.4095 21.5783 27.1676 21.3388C27.3888 21.8524 27.75 22.1874 28.1582 22.1874C28.5665 22.1874 28.9276 21.8524 29.1488 21.3388C29.907 21.5783 30.5957 20.2006 30.5957 18.9374C30.5957 17.8156 30.0501 17.3124 29.377 17.3124Z" fill="#FFCE71"/>
<path d="M31.5653 18.4091C31.4732 18.0543 31.3395 17.7102 31.1663 17.3861C30.7484 16.6041 29.9974 16.0591 29.1061 15.8911C28.7268 15.8196 28.3582 15.9897 28.1583 16.2928C27.9583 15.9897 27.5896 15.8196 27.2103 15.8911C26.3191 16.0591 25.5682 16.6041 25.1502 17.3861C24.977 17.7101 24.8433 18.0542 24.7513 18.4091C24.5982 18.9989 25.0401 19.5754 25.6495 19.5754C26.0694 19.5754 26.4427 19.295 26.5463 18.8881C26.6016 18.6708 26.683 18.4601 26.7888 18.2619C26.938 17.9829 27.2242 17.7792 27.5546 17.7169C27.8125 17.6683 28.0247 17.5156 28.1582 17.3123C28.2918 17.5156 28.5041 17.6683 28.7619 17.7169C29.0923 17.7792 29.3786 17.983 29.5277 18.2619C29.6336 18.4601 29.715 18.6708 29.7702 18.8881C29.8738 19.295 30.2471 19.5754 30.667 19.5754C31.2765 19.5754 31.7183 18.9989 31.5653 18.4091Z" fill="#FCE3A0"/>
<path d="M35.4877 13.357C34.7519 12.838 33.8854 12.5625 32.982 12.5625H23.5718C21.1725 12.5625 19.2206 14.5156 19.2206 16.9149V25.7013C19.2474 28.0727 21.1978 30.0019 23.6004 30.0019H27.5129C29.1289 30.0019 30.4435 31.3156 30.4435 32.9302C30.4435 34.545 29.1289 35.8587 27.5129 35.8587C26.4695 35.8587 25.4957 35.2964 24.9716 34.3911C23.7891 32.3486 21.1372 31.5831 19.0257 32.8055C16.9832 33.988 16.2178 36.6397 17.4401 38.7514C18.1721 40.0156 19.1259 41.1189 20.2754 42.0307C20.4782 42.1916 20.7731 42.1575 20.9339 41.9547C21.0948 41.7519 21.0608 41.4571 20.858 41.2962C19.8012 40.4579 18.9242 39.4437 18.2516 38.2817C17.2906 36.6216 17.8962 34.5427 19.4955 33.6169C21.1526 32.6576 23.2329 33.259 24.1603 34.8609C24.8514 36.0546 26.1361 36.7962 27.5129 36.7962C29.6458 36.7962 31.381 35.0619 31.381 32.9302C31.381 30.7986 29.6458 29.0644 27.5129 29.0644H23.6004C21.5613 29.0644 20.1037 27.3292 20.1581 25.6844V16.9149C20.1581 15.0326 21.6895 13.5012 23.5718 13.5012H32.982C33.6909 13.5012 34.3704 13.7162 34.9473 14.1231C35.159 14.2723 35.4514 14.2218 35.6006 14.0102C35.7497 13.7987 35.6992 13.5062 35.4877 13.357Z" fill="black"/>
<path d="M27.5982 21.1534C27.5031 20.9323 27.2559 20.8195 27.0265 20.8918C27.0079 20.8978 26.9732 20.9086 26.899 20.8633C26.7061 20.7452 26.4703 20.3826 26.324 19.8723C26.6558 19.6921 26.9042 19.3825 27.0006 19.0036C27.0468 18.822 27.1147 18.6468 27.2023 18.4828C27.2839 18.3303 27.4522 18.2133 27.6415 18.1776C27.8278 18.1424 28.0016 18.0712 28.1583 17.9659C28.3152 18.0713 28.489 18.1424 28.675 18.1776C28.8645 18.2133 29.0328 18.3302 29.1143 18.4827C29.2019 18.6468 29.2698 18.8221 29.316 19.0036C29.4123 19.3824 29.6608 19.692 29.9925 19.8722C29.8462 20.3826 29.6103 20.7452 29.4174 20.8633C29.3433 20.9086 29.3086 20.8977 29.29 20.8918C29.0608 20.8195 28.8135 20.9323 28.7183 21.1534C28.5705 21.4967 28.3506 21.7186 28.1582 21.7186C27.9658 21.7186 27.746 21.4967 27.5982 21.1534ZM25.205 18.5268C25.2882 18.2061 25.4089 17.8968 25.5636 17.6071C25.9144 16.9509 26.5463 16.4933 27.2973 16.3518C27.4183 16.3289 27.5411 16.3548 27.6428 16.4246C27.9511 16.6361 28.3655 16.6361 28.6738 16.4245C28.7755 16.3548 28.8983 16.329 29.0193 16.3518C29.7704 16.4933 30.4023 16.9509 30.753 17.6071C30.9078 17.8968 31.0285 18.2063 31.1116 18.5268C31.1932 18.8414 30.9364 19.1468 30.6043 19.1017C30.4181 19.0766 30.269 18.9473 30.2245 18.7724C30.027 17.9961 29.6332 17.4041 28.8488 17.2563C28.7871 17.2446 28.7297 17.2209 28.6779 17.1855C28.3663 16.9728 27.9488 16.9736 27.6385 17.1856C27.5869 17.2209 27.5295 17.2446 27.4678 17.2563C26.6785 17.4051 26.2876 18.0036 26.092 18.7724C26.0414 18.9714 25.8506 19.1067 25.6495 19.1067C25.3477 19.1067 25.1287 18.8209 25.205 18.5268ZM30.041 21.5683C30.1503 21.4828 30.2502 21.3806 30.3408 21.2661H32.9242C36.2194 21.2661 38.3333 17.8019 36.8532 14.9259C36.7347 14.6958 36.452 14.6054 36.2218 14.7237C35.9917 14.8422 35.9011 15.1248 36.0195 15.3551C37.1758 17.601 35.5364 20.3286 32.9242 20.3286H30.83C30.865 20.2259 30.8957 20.1229 30.9223 20.0208C31.704 19.8774 32.227 19.0929 32.019 18.2914C31.5822 16.6077 30.5215 15.6809 29.193 15.4305C28.8308 15.3622 28.4641 15.4371 28.1583 15.6414C27.8524 15.4371 27.4857 15.3621 27.1235 15.4305C25.7966 15.6806 24.7346 16.6063 24.2975 18.2914C24.0899 19.0917 24.6112 19.8772 25.3941 20.0207C25.561 20.6606 25.8915 21.3459 26.4098 21.6629C26.5657 21.7584 26.7287 21.8144 26.8934 21.8304C27.441 22.7428 28.3408 22.8794 28.9971 22.3361C34.2598 23.0463 38.2086 27.5718 38.2086 32.9301C38.2086 38.8266 33.4105 43.6237 27.513 43.6237C25.7186 43.6237 23.934 43.1626 22.352 42.2904C22.1254 42.1654 21.8402 42.2479 21.7152 42.4746C21.5902 42.7013 21.6726 42.9864 21.8994 43.1114C23.6195 44.0598 25.5607 44.5624 27.513 44.5624C33.9275 44.5624 39.1461 39.3435 39.1461 32.9301C39.1461 27.4756 35.3927 22.7329 30.041 21.5683Z" fill="black"/>
<path d="M23.7865 15.8918V16.6418C23.7865 16.9007 23.9963 17.1106 24.2552 17.1106C24.5142 17.1106 24.724 16.9007 24.724 16.6418V15.8918C24.724 15.633 24.5142 15.4231 24.2552 15.4231C23.9963 15.4231 23.7865 15.633 23.7865 15.8918Z" fill="black"/>
<path d="M31.5926 15.8918V16.6418C31.5926 16.9007 31.8024 17.1106 32.0613 17.1106C32.3203 17.1106 32.5301 16.9007 32.5301 16.6418V15.8918C32.5301 15.633 32.3203 15.4231 32.0613 15.4231C31.8024 15.4231 31.5926 15.633 31.5926 15.8918Z" fill="black"/>
</g>
</g>
<defs>
<clipPath id="clip0_341_15903">
<rect width="32" height="32" fill="white" transform="translate(12 12.5625)"/>
</clipPath>
</defs>
</svg>
