<svg width="56" height="57" viewBox="0 0 56 57" fill="none" xmlns="http://www.w3.org/2000/svg">
<path d="M0 28.5625C0 13.0985 12.536 0.5625 28 0.5625V0.5625C43.464 0.5625 56 13.0985 56 28.5625V28.5625C56 44.0265 43.464 56.5625 28 56.5625V56.5625C12.536 56.5625 0 44.0265 0 28.5625V28.5625Z" fill="#FFD336"/>
<g clip-path="url(#clip0_341_15803)">
<path d="M39.1581 41.6823L35.8945 40.8074L35.0202 44.0715L31.9929 38.8268L31.346 37.7069L33.7253 35.3327L35.2564 34.924L35.9033 36.0451L39.1581 41.6823Z" fill="#F07281"/>
<path d="M33.2209 37.707L35.6145 41.853L35.0202 44.0716L31.346 37.707L33.7253 35.3328L33.2209 37.707Z" fill="#EB5569"/>
<path d="M24.6677 37.7396L24.0202 38.8607L21.0116 44.0717L20.1367 40.8075L16.8731 41.6825L20.1279 36.0434L20.7748 34.9229L22.2541 35.321L24.6677 37.7396Z" fill="#F07281"/>
<path d="M22.3591 35.4259L19.0911 41.0875L16.8731 41.6825L20.7748 34.9229L22.2541 35.321L22.3591 35.4259Z" fill="#EB5569"/>
<path d="M22.2541 35.321L24.6677 37.7396L24.0202 38.8607L21.606 36.4409L20.1279 36.0434L20.7748 34.9229L22.2541 35.321Z" fill="#EB5569"/>
<path d="M35.9033 36.0453L34.3708 36.454L31.9929 38.827L31.346 37.707L33.7253 35.3328L35.2564 34.9241L35.9033 36.0453Z" fill="#EB5569"/>
<path d="M31.2985 37.7542L27.9881 36.8635L24.6758 37.7474L22.2543 35.3208L18.9438 34.4301L18.0599 31.1178L15.6384 28.6912L16.5291 25.3807L15.6453 22.0684L18.0718 19.6469L18.9626 16.3364L22.2748 15.4526L24.7014 13.031L28.0119 13.9217L31.3242 13.0379L33.7457 15.4645L37.0562 16.3552L37.94 19.6674L40.3616 22.094L39.4709 25.4045L40.3547 28.7168L37.9282 31.1384L37.0374 34.4488L33.7251 35.3326L31.2985 37.7542Z" fill="#FEE97D"/>
<path d="M19.9467 19.6467L17.52 22.0685L18.4037 25.3808L17.5131 28.6912L19.9348 31.118L20.8185 34.4303L24.129 35.3208L26.1563 37.3526L24.6758 37.7476L22.2541 35.3208L18.9436 34.4303L18.0599 31.118L15.6382 28.6912L16.5288 25.3808L15.6451 22.0685L18.0718 19.6467L18.9624 16.3363L22.2747 15.4526L24.7014 13.0309L26.1782 13.4284L24.1496 15.4526L20.8373 16.3363L19.9467 19.6467Z" fill="#FBD94F"/>
<path d="M28.0002 34.1255C26.0697 34.1255 24.1595 33.4641 22.6212 32.2633C21.0413 31.03 19.9631 29.3479 19.5029 27.3987C18.9683 25.1342 19.3503 22.7926 20.5784 20.8054C21.8066 18.8182 23.7301 17.4294 25.9946 16.8948C26.6554 16.7388 27.3306 16.6598 28.0012 16.6598C29.9317 16.6598 31.8419 17.3211 33.3802 18.522C34.9601 19.7553 36.0384 21.4374 36.4985 23.3866C37.6046 28.0723 34.6924 32.7843 30.0067 33.8905C29.3462 34.0464 28.671 34.1255 28.0002 34.1255Z" fill="#FFB850"/>
<path d="M28.0002 32.1819C26.5011 32.1819 25.0155 31.6668 23.8171 30.7313C22.5897 29.773 21.752 28.4663 21.3946 26.9523C20.9793 25.193 21.2766 23.3729 22.2318 21.8273C23.187 20.2818 24.6819 19.2019 26.4412 18.7866C26.9559 18.6651 27.4808 18.6035 28.0012 18.6035C29.5003 18.6035 30.9859 19.1187 32.1842 20.0541C33.4117 21.0124 34.2495 22.3192 34.6069 23.8333C35.4668 27.4759 33.2029 31.139 29.5602 31.9989C29.0457 32.1203 28.5209 32.1819 28.0002 32.1819Z" fill="#FEE97D"/>
<path d="M28.943 32.1148C28.6293 32.1592 28.3137 32.1817 28 32.1817C26.5013 32.1817 25.0158 31.6667 23.8171 30.7312C22.5897 29.7731 21.7522 28.4663 21.3947 26.952C20.9791 25.1927 21.2766 23.3729 22.2316 21.8273C23.1871 20.2818 24.682 19.2018 26.4413 18.7862C26.9557 18.665 27.4806 18.6038 28.0012 18.6038C28.3137 18.6038 28.6249 18.6263 28.9337 18.67C28.7268 18.6994 28.5206 18.7381 28.3162 18.7862C26.5569 19.2018 25.062 20.2818 24.1065 21.8273C23.1515 23.3729 22.854 25.1927 23.2696 26.952C23.6271 28.4663 24.4646 29.7731 25.692 30.7312C26.6413 31.4718 27.77 31.9492 28.943 32.1148Z" fill="#FBD94F"/>
<path d="M28.3169 22.0274L29.2245 23.8665L31.254 24.1614C31.5439 24.2036 31.6596 24.5598 31.4499 24.7642L29.9813 26.1958L30.328 28.2171C30.3775 28.5058 30.0745 28.7259 29.8152 28.5896L28 27.6353L26.1847 28.5896C25.9255 28.7259 25.6224 28.5058 25.672 28.2171L26.0186 26.1958L24.55 24.7642C24.3403 24.5598 24.4561 24.2036 24.7459 24.1614L26.7754 23.8665L27.6831 22.0274C27.8127 21.7648 28.1873 21.7648 28.3169 22.0274Z" fill="#FFB850"/>
<path d="M27.05 24.7639L28.5187 26.1957L28.2493 27.7662L28 27.635L26.1845 28.5893C25.9257 28.7262 25.6226 28.5056 25.672 28.2168L26.0188 26.1957L24.5502 24.7639C24.3402 24.5595 24.4558 24.2033 24.7458 24.1614L26.7757 23.8665L27.6831 22.0272C27.8125 21.7647 28.1875 21.7647 28.3168 22.0272L29.2243 23.8665L29.2499 23.8702L27.2457 24.1614C26.9557 24.2033 26.84 24.5595 27.05 24.7639Z" fill="#F5A30F"/>
<path d="M19.742 25.6853C19.7329 25.4266 19.515 25.2233 19.2571 25.2334C18.9983 25.2426 18.796 25.4597 18.8052 25.7184C18.8263 26.3163 18.9076 26.9181 19.0468 27.5069C19.5313 29.5601 20.6674 31.3328 22.3326 32.6336C23.9533 33.898 25.966 34.5944 28 34.5944C28.7087 34.5944 29.4202 34.5111 30.1145 34.347C35.0513 33.1816 38.1199 28.2167 36.9551 23.2792C36.4697 21.2253 35.3334 19.4526 33.6688 18.1528C32.0487 16.8882 30.036 16.1918 28.0013 16.1918C27.2934 16.1918 26.582 16.2751 25.8868 16.4393C23.5004 17.0025 21.4736 18.4657 20.1798 20.5596C19.6024 21.4945 19.1998 22.5058 18.9832 23.5656C18.9313 23.8192 19.0949 24.0669 19.3485 24.1187C19.6022 24.1705 19.8498 24.0069 19.9016 23.7533C20.0961 22.8018 20.458 21.893 20.9773 21.0522C22.1394 19.1715 23.9595 17.8573 26.1023 17.3516C26.7269 17.204 27.3658 17.1292 28.0012 17.1292C29.8279 17.1292 31.6358 17.7552 33.0918 18.8917C34.5865 20.0589 35.6069 21.6506 36.0426 23.4946C37.0888 27.9288 34.3328 32.3879 29.8988 33.4346C29.2749 33.5821 28.636 33.657 27.9999 33.657C26.1738 33.657 24.3659 33.031 22.9094 31.8946C21.4142 30.7267 20.394 29.135 19.9591 27.2914C19.834 26.7622 19.761 26.2218 19.742 25.6853Z" fill="black"/>
<path d="M31.9321 19.3021C30.7491 18.5388 29.3898 18.1354 28.0013 18.1354C27.4438 18.1354 26.8827 18.201 26.3336 18.3304C24.4526 18.7748 22.8543 19.9293 21.8328 21.5813C20.8119 23.2336 20.4943 25.1794 20.9386 27.0601C21.3209 28.6794 22.2165 30.0768 23.5287 31.1011C24.8092 32.1005 26.3971 32.6508 28 32.6508C28.5586 32.6508 29.1198 32.585 29.6676 32.4552C31.5513 32.0105 33.1505 30.8567 34.1707 29.2062C35.191 27.5558 35.5079 25.6096 35.0632 23.726C34.8 22.6119 34.299 21.6093 33.5742 20.7463C33.4078 20.548 33.112 20.5223 32.9139 20.6888C32.7156 20.8553 32.6899 21.1509 32.8564 21.3491C33.4861 22.099 33.9217 22.9712 34.1509 23.9415C34.538 25.5812 34.2619 27.2758 33.3733 28.7133C32.4848 30.1508 31.0922 31.1556 29.4518 31.5428C28.9743 31.656 28.4859 31.7133 28 31.7133C26.6051 31.7133 25.2219 31.2334 24.1055 30.362C22.9633 29.4705 22.1837 28.2542 21.851 26.8446C21.4642 25.2076 21.741 23.5134 22.6303 22.0741C23.52 20.6351 24.9117 19.6295 26.5489 19.2427C27.0274 19.1299 27.5161 19.0728 28.0012 19.0728C29.2091 19.0728 30.3926 19.4244 31.4238 20.0897C31.6414 20.23 31.9314 20.1676 32.0718 19.95C32.2121 19.7325 32.1495 19.4424 31.9321 19.3021Z" fill="black"/>
<path d="M39.9564 25.4054L40.8144 22.2163C40.8578 22.0546 40.8118 21.8819 40.6935 21.7634L38.3605 19.4255L37.5092 16.2346C37.466 16.0728 37.3398 15.9463 37.1781 15.9028L33.9889 15.0449L31.6559 12.707C31.5377 12.5885 31.3651 12.5421 31.2034 12.5852L28.0124 13.4365L24.8232 12.5786C24.6615 12.5351 24.4888 12.5811 24.3703 12.6994L22.0325 15.0324L18.8416 15.8838C18.6798 15.9269 18.5533 16.0531 18.5097 16.2149L17.6518 19.404L15.3139 21.737C15.1954 21.8553 15.149 22.0278 15.1921 22.1896L16.0434 25.3806L15.1855 28.5698C15.142 28.7314 15.188 28.9041 15.3063 29.0226L17.6393 31.3604L18.4907 34.5514C18.5338 34.7132 18.66 34.8396 18.8218 34.8832L20.0636 35.2173L16.4671 41.4484C16.261 41.9579 16.5214 42.2183 16.9944 42.1354L19.8053 41.3818L20.5588 44.1932C20.6708 44.6111 21.1774 44.6973 21.4175 44.3062L24.9693 38.1546L27.1115 37.5826C27.3616 37.5159 27.5103 37.2589 27.4434 37.0088C27.3766 36.7587 27.1198 36.6102 26.8697 36.6769L24.8163 37.2251L22.5858 34.9899C22.5277 34.9317 22.4552 34.8898 22.3758 34.8684L19.3267 34.0481L18.5128 30.9974C18.4917 30.9179 18.4498 30.8453 18.3917 30.7871L16.1612 28.5519L16.9814 25.5028C17.0028 25.4233 17.0029 25.3396 16.9817 25.2601L16.1677 22.2094L18.4029 19.9789C18.4612 19.9208 18.5031 19.8483 18.5245 19.7689L19.3447 16.7198L22.3955 15.9059C22.475 15.8847 22.5475 15.8429 22.6058 15.7848L24.841 13.5542L27.8901 14.3745C27.9695 14.3958 28.0532 14.3959 28.1327 14.3747L31.1835 13.5608L33.4141 15.7959C33.4722 15.8542 33.5447 15.8961 33.6241 15.9175L36.6732 16.7378L37.487 19.7885C37.5082 19.868 37.55 19.9406 37.6082 19.9988L39.8387 22.234L39.0185 25.2831C38.9971 25.3626 38.997 25.4463 39.0182 25.5257L39.8322 28.5766L37.597 30.8071C37.5387 30.8653 37.4968 30.9377 37.4754 31.0171L36.6552 34.0662L33.6044 34.8801C33.5249 34.9013 33.4523 34.9431 33.3941 35.0013L31.159 37.2318L29.1555 36.6922C28.9057 36.625 28.6483 36.7729 28.581 37.0229C28.5137 37.2729 28.6617 37.5301 28.9117 37.5974L31.0777 38.1807L34.6142 44.3062C34.8153 44.6545 35.364 44.6764 35.4729 44.1931L36.2259 41.3818L39.0367 42.1353C39.541 42.2495 39.7701 41.9265 39.564 41.4483L35.9682 35.2197L37.1584 34.9021C37.3202 34.859 37.4467 34.7328 37.4902 34.571L38.3482 31.3819L40.686 29.0489C40.8045 28.9306 40.851 28.7581 40.8079 28.5963L39.9564 25.4054ZM22.3341 36.0649L20.9257 38.5041C20.5817 39.0998 21.4379 39.4975 21.7375 38.9728L23.0198 36.752L24.0821 37.8166L21.1715 42.8577L20.5895 40.6864C20.4896 40.4174 20.2982 40.307 20.0154 40.355L17.8448 40.9369L21.0007 35.4694L22.011 35.7412L22.3341 36.0649ZM38.1863 40.9369L36.0159 40.355C35.733 40.307 35.5416 40.4174 35.4417 40.6865L34.8603 42.8574L31.9317 37.785L32.9952 36.7238L34.2937 38.9727C34.6871 39.5935 35.4495 39.0996 35.1055 38.504L33.682 36.0385L33.9674 35.7536L35.0302 35.47L38.1863 40.9369Z" fill="black"/>
<path d="M31.9851 24.2575C31.8877 23.9577 31.6335 23.7433 31.3214 23.6979L29.5358 23.4384L28.7372 21.8203C28.5977 21.5377 28.3152 21.3621 28 21.3621C27.6847 21.3621 27.4023 21.5377 27.2628 21.8203L26.4642 23.4384L24.6785 23.6979C24.3665 23.7433 24.1122 23.9577 24.0148 24.2575C23.9175 24.5573 23.9972 24.8802 24.2229 25.1002L25.515 26.3597L25.21 28.1382C25.1566 28.4489 25.282 28.757 25.5371 28.9423C25.8196 29.1293 26.1082 29.1502 26.4028 29.0049L28 28.1652L29.5971 29.0048C29.8761 29.1515 30.2078 29.1275 30.4629 28.9423C30.7179 28.7571 30.8432 28.4489 30.79 28.1382L30.485 26.3597L31.7771 25.1002C32.0027 24.8802 32.0825 24.5573 31.9851 24.2575ZM29.6541 25.8605C29.5436 25.9682 29.4933 26.1233 29.5193 26.2754L29.8266 28.0664L28.2182 27.2208C28.0727 27.149 27.9273 27.149 27.7819 27.2208L26.1735 28.0664L26.4808 26.2754C26.5068 26.1233 26.4564 25.9682 26.3459 25.8605L25.0447 24.5921L26.843 24.3308C26.9957 24.3086 27.1276 24.2127 27.1959 24.0743L28.0001 22.4448L28.8043 24.0743C28.8726 24.2126 29.0045 24.3086 29.1572 24.3308L30.9555 24.5921L29.6541 25.8605Z" fill="black"/>
</g>
<defs>
<clipPath id="clip0_341_15803">
<rect width="32" height="32" fill="white" transform="translate(12 12.5625)"/>
</clipPath>
</defs>
</svg>
