<svg width="101" height="101" viewBox="0 0 101 101" fill="none" xmlns="http://www.w3.org/2000/svg">
<path d="M77.3178 58.1447C76.5093 53.8801 74.5953 49.4855 71.5954 44.6681C65.0981 34.2306 67.1026 25.1052 67.1026 25.1052C67.1026 25.1052 61.4845 32.4937 63.0936 37.9622C63.3257 38.751 63.5244 39.5084 63.6936 40.246C63.8804 41.0584 64.024 41.8394 64.1263 42.6046C64.1381 42.697 64.1539 42.7915 64.1637 42.8859C64.1854 43.0728 64.203 43.2557 64.2207 43.4406C64.2306 43.5527 64.2424 43.6649 64.2503 43.777C64.264 43.9521 64.2739 44.1252 64.2817 44.2983C64.2876 44.4183 64.2916 44.5363 64.2935 44.6563C64.2975 44.8235 64.3014 44.9887 64.2994 45.154C64.2994 45.2799 64.2955 45.4038 64.2916 45.5277C64.2876 45.687 64.2837 45.8484 64.2739 46.0077C64.266 46.1415 64.2542 46.2752 64.2424 46.407C64.2306 46.5565 64.2207 46.708 64.203 46.8575C64.1735 47.125 64.1362 47.3945 64.0909 47.662C64.0693 47.786 64.0418 47.9118 64.0181 48.0358C63.9867 48.199 63.9572 48.3623 63.9198 48.5256C63.8903 48.6554 63.8568 48.7852 63.8234 48.9131C63.7821 49.0744 63.7427 49.2337 63.6955 49.3951C63.6582 49.5249 63.6188 49.6547 63.5775 49.7845C63.5736 49.7983 63.5677 49.8121 63.5637 49.8278C67.5078 53.3942 69.9903 58.548 69.9903 64.2703C69.9903 65.0926 69.9352 65.9089 69.8349 66.7194H67.5432H64.8876H36.1501C37.1966 72.8764 42.1124 77.7313 48.3009 78.6794C49.0248 78.7896 49.7645 78.8486 50.5179 78.8486C50.7225 78.8486 50.9251 78.8427 51.1257 78.8348C51.1808 78.8328 51.2339 78.8309 51.289 78.8269C51.4778 78.8171 51.6647 78.8033 51.8516 78.7876C51.9204 78.7817 51.9893 78.7738 52.0581 78.766C52.1742 78.7542 52.2922 78.7404 52.4083 78.7246C52.5066 78.7109 52.605 78.6991 52.7014 78.6853C52.7446 78.6794 52.7899 78.6696 52.8331 78.6637C53.0731 78.6243 53.3131 78.581 53.5511 78.5299C53.563 78.5279 53.5728 78.526 53.5846 78.522C57.1274 77.7568 60.3082 75.6855 62.4386 72.664L66.4396 75.4868C64.9604 77.5857 63.0995 79.3403 60.9908 80.6839H61.0085C58.6027 82.2222 55.8605 83.2254 52.961 83.5893C52.9118 83.5952 52.8627 83.6011 52.8155 83.607C52.6817 83.6227 52.546 83.6365 52.4102 83.6503C52.3178 83.6601 52.2273 83.668 52.1348 83.6758C52.0227 83.6857 51.9125 83.6936 51.8004 83.7014C51.6745 83.7093 51.5486 83.7152 51.4227 83.7211C51.3382 83.725 51.2516 83.7309 51.167 83.7329C50.9506 83.7408 50.7343 83.7447 50.5159 83.7447C49.5088 83.7447 48.5213 83.668 47.5554 83.5204C47.3941 83.4949 47.2348 83.4693 47.0735 83.4398C37.9717 81.8091 31.0415 73.8344 31.0415 64.2703C31.0415 54.7062 37.9717 46.7316 47.0735 45.1009C47.2328 45.0714 47.3941 45.0458 47.5554 45.0202C48.5213 44.8727 49.5107 44.7959 50.5159 44.7959C54.5111 44.7959 58.2309 46.0077 61.3252 48.081C61.2996 47.9866 61.278 47.8902 61.2504 47.7958C61.213 47.666 61.1796 47.5361 61.1403 47.4083C61.0203 47.0109 60.8904 46.6155 60.7488 46.2221C60.7036 46.0982 60.6544 45.9742 60.6072 45.8484C60.499 45.5612 60.3869 45.274 60.2669 44.9887C60.198 44.8255 60.1292 44.6622 60.0584 44.4989C59.9325 44.2137 59.8026 43.9285 59.6669 43.6432C59.5626 43.4229 59.4545 43.2026 59.3443 42.9823C59.2105 42.7167 59.0748 42.4531 58.9332 42.1876C58.8269 41.9909 58.7188 41.7922 58.6086 41.5935C58.4945 41.3909 58.3784 41.1883 58.2604 40.9837C58.0775 40.667 57.8886 40.3503 57.6939 40.0336C57.5601 39.8152 57.4264 39.5969 57.2887 39.3785C57.1352 39.1366 56.9759 38.8927 56.8165 38.6507C56.7221 38.5051 56.6257 38.3596 56.5294 38.214C56.3582 37.9583 56.1871 37.7026 56.012 37.4468C56.01 37.4449 56.0081 37.4429 56.0081 37.4409C54.458 35.1886 52.6896 32.8969 50.7874 30.497C44.4277 22.4791 47.1935 13.3537 50.7874 10.0352C46.9161 9.48243 41.3866 15.5647 41.3866 19.7134C41.3866 23.862 43.0448 30.2216 39.4509 31.0498C35.857 31.878 30.6029 25.5203 30.6029 25.5203C30.6029 25.5203 31.9857 30.497 31.9857 37.6868C31.9857 42.1305 30.294 45.1186 28.2876 48.1991C27.7466 48.9407 27.243 49.7098 26.7768 50.5025C26.767 50.5163 26.7591 50.5301 26.7493 50.5458L26.7513 50.5478C24.3711 54.6197 23 59.3545 23 64.412C23 79.6098 35.32 91.9318 50.5199 91.9318C65.7177 91.9318 78.0397 79.6118 78.0397 64.412C78.0377 62.254 77.7859 60.1591 77.3178 58.1447Z" fill="url(#paint0_linear_2_2)"/>
<defs>
<linearGradient id="paint0_linear_2_2" x1="53.4217" y1="84.0464" x2="39.5959" y2="-9.41541" gradientUnits="userSpaceOnUse">
<stop stop-color="#EE3227"/>
<stop offset="1" stop-color="#F9EB1E"/>
</linearGradient>
</defs>
</svg>
