<svg width="167" height="83" viewBox="0 0 167 83" fill="none" xmlns="http://www.w3.org/2000/svg">
<path d="M55.2781 48.6655C54.4696 44.4008 52.5556 40.0063 49.5558 35.1889C43.0584 24.7514 45.0629 15.626 45.0629 15.626C45.0629 15.626 39.4448 23.0144 41.0539 28.483C41.286 29.2718 41.4847 30.0291 41.6539 30.7668C41.8408 31.5792 41.9844 32.3602 42.0867 33.1254C42.0985 33.2178 42.1142 33.3123 42.124 33.4067C42.1457 33.5935 42.1634 33.7765 42.1811 33.9614C42.1909 34.0735 42.2027 34.1856 42.2106 34.2978C42.2243 34.4728 42.2342 34.6459 42.2421 34.8191C42.248 34.939 42.2519 35.0571 42.2539 35.1771C42.2578 35.3443 42.2617 35.5095 42.2598 35.6747C42.2598 35.8006 42.2558 35.9246 42.2519 36.0485C42.2479 36.2078 42.244 36.3691 42.2342 36.5285C42.2263 36.6622 42.2145 36.796 42.2027 36.9278C42.1909 37.0773 42.1811 37.2288 42.1634 37.3783C42.1339 37.6458 42.0965 37.9153 42.0513 38.1828C42.0296 38.3067 42.0021 38.4326 41.9785 38.5566C41.947 38.7198 41.9175 38.8831 41.8801 39.0464C41.8506 39.1762 41.8172 39.306 41.7837 39.4339C41.7424 39.5952 41.7031 39.7545 41.6559 39.9158C41.6185 40.0457 41.5791 40.1755 41.5378 40.3053C41.5339 40.3191 41.528 40.3329 41.5241 40.3486C45.4681 43.915 47.9506 49.0688 47.9506 54.7911C47.9506 55.6134 47.8955 56.4297 47.7952 57.2402H45.5035H42.8479H14.1104C15.1569 63.3972 20.0728 68.252 26.2613 69.2002C26.9852 69.3103 27.7248 69.3693 28.4782 69.3693C28.6828 69.3693 28.8854 69.3634 29.086 69.3556C29.1411 69.3536 29.1942 69.3516 29.2493 69.3477C29.4381 69.3379 29.625 69.3241 29.8119 69.3084C29.8807 69.3025 29.9496 69.2946 30.0184 69.2867C30.1345 69.2749 30.2525 69.2612 30.3686 69.2454C30.467 69.2317 30.5653 69.2198 30.6617 69.2061C30.705 69.2002 30.7502 69.1903 30.7935 69.1844C31.0335 69.1451 31.2735 69.1018 31.5115 69.0507C31.5233 69.0487 31.5331 69.0467 31.5449 69.0428C35.0877 68.2776 38.2685 66.2062 40.3989 63.1848L44.4 66.0076C42.9207 68.1065 41.0598 69.8611 38.9511 71.2047H38.9688C36.563 72.7429 33.8209 73.7462 30.9213 74.1101C30.8722 74.116 30.823 74.1219 30.7758 74.1278C30.642 74.1435 30.5063 74.1573 30.3706 74.1711C30.2781 74.1809 30.1876 74.1888 30.0952 74.1966C29.983 74.2065 29.8729 74.2143 29.7607 74.2222C29.6348 74.2301 29.509 74.236 29.3831 74.2419C29.2985 74.2458 29.2119 74.2517 29.1273 74.2537C28.911 74.2616 28.6946 74.2655 28.4762 74.2655C27.4691 74.2655 26.4816 74.1888 25.5157 74.0412C25.3544 74.0157 25.1951 73.9901 25.0338 73.9606C15.932 72.3298 9.00187 64.3552 9.00187 54.7911C9.00187 45.227 15.932 37.2524 25.0338 35.6216C25.1931 35.5921 25.3544 35.5666 25.5157 35.541C26.4816 35.3935 27.471 35.3167 28.4762 35.3167C32.4714 35.3167 36.1912 36.5285 39.2855 38.6018C39.2599 38.5074 39.2383 38.411 39.2107 38.3166C39.1734 38.1867 39.1399 38.0569 39.1006 37.9291C38.9806 37.5317 38.8508 37.1363 38.7091 36.7429C38.6639 36.619 38.6147 36.495 38.5675 36.3691C38.4593 36.0819 38.3472 35.7947 38.2272 35.5095C38.1583 35.3462 38.0895 35.183 38.0187 35.0197C37.8928 34.7345 37.763 34.4492 37.6272 34.164C37.523 33.9437 37.4148 33.7234 37.3046 33.5031C37.1709 33.2375 37.0351 32.9739 36.8935 32.7083C36.7873 32.5116 36.6791 32.313 36.5689 32.1143C36.4548 31.9117 36.3388 31.7091 36.2207 31.5045C36.0378 31.1878 35.849 30.8711 35.6542 30.5544C35.5205 30.336 35.3867 30.1177 35.249 29.8993C35.0955 29.6574 34.9362 29.4134 34.7769 29.1715C34.6824 29.0259 34.5861 28.8804 34.4897 28.7348C34.3185 28.4791 34.1474 28.2233 33.9723 27.9676C33.9704 27.9657 33.9684 27.9637 33.9684 27.9617C32.4183 25.7094 30.6499 23.4177 28.7477 21.0178C22.388 12.9999 25.1538 3.87448 28.7477 0.555965C24.8764 0.00320786 19.3469 6.0855 19.3469 10.2341C19.3469 14.3828 21.0052 20.7424 17.4113 21.5706C13.8173 22.3987 8.56321 16.041 8.56321 16.041C8.56321 16.041 9.94606 21.0178 9.94606 28.2076C9.94606 32.6513 8.25437 35.6393 6.24792 38.7198C5.70696 39.4614 5.20337 40.2306 4.73717 41.0233C4.72733 41.0371 4.71946 41.0509 4.70962 41.0666L4.71159 41.0686C2.33139 45.1405 0.960327 49.8753 0.960327 54.9327C0.960327 70.1306 13.2803 82.4526 28.4802 82.4526C43.6781 82.4526 56 70.1326 56 54.9327C55.998 52.7748 55.7463 50.6799 55.2781 48.6655Z" fill="url(#paint0_linear_14_405)"/>
<path d="M28.4782 40.2129C27.7248 40.2129 26.9852 40.2699 26.2613 40.382C20.0728 41.3302 15.157 46.187 14.1105 52.3421H42.846C41.6775 45.465 35.6818 40.2129 28.4782 40.2129Z" fill="url(#paint1_linear_14_405)"/>
<path d="M106.886 56.4362V50.6928C106.886 50.0821 107.03 49.6252 107.32 49.319C107.608 49.0144 107.982 48.8606 108.44 48.8606C108.912 48.8606 109.294 49.0114 109.587 49.3129C109.88 49.6145 110.025 50.0745 110.025 50.6913V56.4347C110.025 57.0516 109.88 57.513 109.587 57.8192C109.294 58.1238 108.912 58.2776 108.44 58.2776C107.99 58.2776 107.618 58.1238 107.325 57.8146C107.032 57.507 106.886 57.047 106.886 56.4362Z" fill="#EE3227"/>
<path d="M108.274 47.3562C108.274 47.3562 108.786 46.9484 108.274 46.149C107.762 45.3495 106.511 43.9865 106.572 43.1565C105.622 43.8307 105.276 45.8519 106.074 46.979C106.873 48.1076 107.927 48.2328 108.666 48.2328C109.405 48.2328 110.896 47.6212 111.242 45.6946C111.528 43.7521 110.157 42.5289 109.555 41.9027C108.953 41.2765 108.532 40.6329 108.456 39.8495C108.38 39.066 108.711 38.1879 108.711 38.1879C108.711 38.1879 106.797 39.3311 106.647 42.1211C106.783 43.4681 107.115 43.688 107.897 44.4554C108.681 45.2228 109.058 45.865 109.027 46.5086C108.952 47.1727 108.274 47.3562 108.274 47.3562Z" fill="url(#paint2_linear_14_405)"/>
<path d="M88.8258 45.7693H81.777V49.29H88.331C88.7614 49.29 89.0791 49.391 89.284 49.593C89.4889 49.7892 89.5929 50.0498 89.5929 50.3748C89.5929 50.7071 89.4904 50.975 89.284 51.177C89.0776 51.379 88.7599 51.48 88.331 51.48H81.777V55.5585H89.041C89.4772 55.5585 89.8081 55.6653 90.032 55.8805C90.2502 56.0826 90.3585 56.3636 90.3585 56.7208C90.3585 57.0722 90.2487 57.3474 90.032 57.5421C89.8081 57.7573 89.4772 57.8641 89.041 57.8641H80.7011C80.0965 57.8641 79.6602 57.7236 79.3923 57.444C79.1303 57.1644 79 56.7106 79 56.084V45.3067C79 44.9026 79.0586 44.563 79.1771 44.2893C79.2957 44.0287 79.4831 43.8325 79.7378 43.7022C79.9866 43.5851 80.3087 43.5266 80.7011 43.5266H88.8258C89.262 43.5266 89.5929 43.6276 89.8169 43.8296C90.0291 44.0389 90.1345 44.3083 90.1345 44.6406C90.1345 44.9861 90.0277 45.2598 89.8169 45.4619C89.6046 45.6683 89.2752 45.7693 88.8258 45.7693Z" fill="#EE3227"/>
<path d="M92.4065 54.522L99.4465 45.7107H93.3976C92.9731 45.7107 92.6539 45.6126 92.4387 45.4179C92.2235 45.2218 92.1167 44.9656 92.1167 44.645C92.1167 44.3127 92.2235 44.0433 92.4387 43.8384C92.6539 43.632 92.9731 43.5295 93.3976 43.5295H101.194C102.204 43.5295 102.71 44.0214 102.71 45.0066C102.71 45.4765 102.626 45.8512 102.458 46.1309C102.289 46.4119 101.95 46.8643 101.439 47.4908L94.8571 55.6858H102.112C102.543 55.6858 102.863 55.7781 103.076 55.9654C103.288 56.1514 103.393 56.4105 103.393 56.7428C103.393 57.0883 103.288 57.362 103.076 57.564C102.863 57.7661 102.543 57.8671 102.112 57.8671H93.2117C92.6071 57.8671 92.1518 57.7251 91.8459 57.4411C91.5399 57.1585 91.3876 56.7779 91.3876 56.3021C91.3876 56.1396 91.4125 55.9889 91.4623 55.8527C91.5121 55.7151 91.5794 55.5877 91.6629 55.4662C91.7463 55.3462 91.8634 55.1925 92.0127 55.0066C92.1635 54.8192 92.2953 54.6582 92.4065 54.522Z" fill="#EE3227"/>
<path d="M133.153 55.8385L130.871 47.4689L128.561 55.8385C128.377 56.4727 128.237 56.9327 128.124 57.2115C128.018 57.4832 127.835 57.7341 127.574 57.9571C127.314 58.1731 126.962 58.2776 126.525 58.2776C126.173 58.2776 125.877 58.208 125.651 58.0756C125.426 57.9501 125.243 57.7689 125.102 57.532C124.961 57.2881 124.848 57.0094 124.757 56.6818C124.665 56.3543 124.588 56.0476 124.517 55.7689L122.165 46.3679C122.024 45.8243 121.953 45.4061 121.953 45.1204C121.953 44.758 122.08 44.4514 122.341 44.2075C122.601 43.9636 122.918 43.8382 123.292 43.8382C123.813 43.8382 124.158 44.0054 124.341 44.3329C124.524 44.6605 124.679 45.1414 124.813 45.7686L126.659 53.9221L128.73 46.2912C128.885 45.7058 129.019 45.2598 129.145 44.9601C129.265 44.6535 129.469 44.3887 129.744 44.1727C130.019 43.9566 130.392 43.8382 130.871 43.8382C131.35 43.8382 131.723 43.9566 131.991 44.1936C132.259 44.4236 132.449 44.6744 132.548 44.9462C132.653 45.218 132.787 45.671 132.963 46.2982L135.055 53.9291L136.901 45.7755C136.992 45.3504 137.077 45.0159 137.154 44.772C137.239 44.5281 137.373 44.3121 137.57 44.1239C137.767 43.9358 138.056 43.8382 138.429 43.8382C138.802 43.8382 139.119 43.9636 139.373 44.2075C139.634 44.4514 139.768 44.7511 139.768 45.1204C139.768 45.3783 139.697 45.7964 139.556 46.3679L137.204 55.7689C137.042 56.403 136.908 56.8699 136.802 57.1696C136.696 57.4623 136.52 57.7201 136.26 57.9431C136.006 58.1661 135.654 58.2776 135.189 58.2776C134.752 58.2776 134.4 58.1731 134.139 57.9571C133.879 57.7411 133.696 57.4971 133.59 57.2323C133.484 56.9535 133.343 56.4866 133.153 55.8385ZM150.967 46.2494H144.529V49.6781H150.46C150.897 49.6781 151.221 49.7757 151.432 49.9708C151.651 50.159 151.756 50.4168 151.756 50.7304C151.756 51.0509 151.651 51.3088 151.439 51.5109C151.228 51.706 150.897 51.8036 150.46 51.8036H144.529V55.7758H151.193C151.644 55.7758 151.982 55.8804 152.207 56.0895C152.44 56.2916 152.552 56.5633 152.552 56.9118C152.552 57.2393 152.44 57.5111 152.207 57.7202C151.982 57.9223 151.644 58.0268 151.193 58.0268H143.423C142.803 58.0268 142.353 57.8874 142.078 57.6156C141.81 57.3438 141.676 56.8978 141.676 56.2915V45.7965C141.676 45.3923 141.74 45.0577 141.86 44.8068C141.979 44.549 142.17 44.3609 142.43 44.2424C142.691 44.1239 143.029 44.0612 143.43 44.0612H150.981C151.439 44.0612 151.777 44.1657 151.996 44.3678C152.221 44.5629 152.334 44.8277 152.334 45.1483C152.334 45.4759 152.221 45.7477 151.996 45.9498C151.756 46.1518 151.425 46.2494 150.967 46.2494ZM160.843 58.0337H156.532C155.912 58.0337 155.461 57.8944 155.194 57.6226C154.933 57.3438 154.799 56.9048 154.799 56.2985V45.8034C154.799 45.1902 154.933 44.7441 155.201 44.4793C155.475 44.2075 155.919 44.0682 156.532 44.0682H161.104C161.78 44.0682 162.364 44.11 162.858 44.1936C163.351 44.2772 163.794 44.4375 164.189 44.6675C164.52 44.8626 164.816 45.1135 165.076 45.4201C165.33 45.7198 165.527 46.0542 165.661 46.4236C165.795 46.786 165.865 47.1693 165.865 47.5735C165.865 48.9672 165.161 49.9917 163.745 50.6398C165.598 51.2252 166.527 52.3611 166.527 54.0476C166.527 54.8281 166.323 55.532 165.922 56.1592C165.52 56.7794 164.971 57.2393 164.287 57.539C163.858 57.7202 163.365 57.8456 162.801 57.9222C162.245 57.9989 161.59 58.0337 160.843 58.0337ZM160.632 51.8314H157.659V55.9083H160.73C162.66 55.9083 163.625 55.2183 163.625 53.8385C163.625 53.1346 163.372 52.6189 162.872 52.3053C162.379 51.9918 161.625 51.8314 160.632 51.8314ZM157.659 46.1936V49.8036H160.279C160.991 49.8036 161.54 49.7338 161.928 49.6014C162.322 49.469 162.618 49.2112 162.822 48.8418C162.984 48.577 163.062 48.2773 163.062 47.9498C163.062 47.246 162.808 46.779 162.301 46.5491C161.794 46.3121 161.019 46.1936 159.984 46.1936H157.659Z" fill="black"/>
<defs>
<linearGradient id="paint0_linear_14_405" x1="31.382" y1="74.5671" x2="17.5563" y2="-18.8946" gradientUnits="userSpaceOnUse">
<stop stop-color="#EE3227"/>
<stop offset="1" stop-color="#F9EB1E"/>
</linearGradient>
<linearGradient id="paint1_linear_14_405" x1="31.7584" y1="74.5115" x2="17.9327" y2="-18.9503" gradientUnits="userSpaceOnUse">
<stop stop-color="#EE3227"/>
<stop offset="1" stop-color="#F9EB1E"/>
</linearGradient>
<linearGradient id="paint2_linear_14_405" x1="108.455" y1="47.4869" x2="108.455" y2="33.1174" gradientUnits="userSpaceOnUse">
<stop stop-color="#EE3227"/>
<stop offset="1" stop-color="#F9EB1E"/>
</linearGradient>
</defs>
</svg>
