<svg width="98" height="40" viewBox="0 0 98 40" fill="none" xmlns="http://www.w3.org/2000/svg">
<path d="M0 0L91 0C94.866 0 98 3.13401 98 7V32L23.8555 39.039C20.9377 39.316 18.1563 37.7459 16.8858 35.1047L0 0Z" fill="url(#paint0_linear_46_727)"/>
<path d="M40.4437 12.4312C40.3735 12.3609 40.2876 12.3084 40.193 12.278C40.0985 12.2475 39.998 12.2401 39.9 12.2562C39.8027 12.2725 39.7107 12.3115 39.6314 12.3702C39.5521 12.4289 39.4878 12.5054 39.4437 12.5937C39.2526 12.9245 39.0194 13.2291 38.75 13.5C38.6865 11.8568 38.0848 10.2801 37.0375 9.01247C36.4515 8.41082 35.7432 7.94209 34.9603 7.63801C34.1775 7.33393 33.3384 7.2016 32.5 7.24997C32.3869 7.25027 32.2761 7.28124 32.1792 7.33957C32.0824 7.3979 32.0031 7.48142 31.95 7.58122C31.8998 7.67895 31.8763 7.78818 31.8818 7.89791C31.8873 8.00764 31.9216 8.11398 31.9812 8.20622C32.0687 8.33747 33.9687 11.2625 31.8 13.8937C31.25 13.4625 30.625 12.7812 30.625 12.25C30.6242 12.11 30.5764 11.9744 30.4893 11.8648C30.4022 11.7553 30.2809 11.6781 30.1448 11.6457C30.0086 11.6133 29.8655 11.6275 29.7384 11.686C29.6113 11.7446 29.5076 11.8442 29.4437 11.9687C28.59 13.8216 28.1405 15.8349 28.125 17.875C28.125 23.2625 32.1312 24.6625 32.3 24.75C32.4211 24.7911 32.552 24.7941 32.6748 24.7585C32.7977 24.723 32.9067 24.6506 32.9872 24.5511C33.0676 24.4516 33.1155 24.3298 33.1245 24.2022C33.1335 24.0746 33.1031 23.9473 33.0375 23.8375C32.4446 22.7729 32.2101 21.5457 32.3687 20.3375C32.7537 21.0841 33.3268 21.7174 34.0312 22.175C34.1638 22.2628 34.3248 22.2969 34.4816 22.2702C34.6384 22.2435 34.779 22.158 34.875 22.0312C35.7393 20.7667 36.1491 19.2463 36.0375 17.7187C36.6937 18.725 37.1937 20.6062 36.275 23.9687C36.2513 24.0607 36.2488 24.1568 36.2677 24.2498C36.2867 24.3429 36.3266 24.4304 36.3845 24.5057C36.4423 24.581 36.5165 24.6421 36.6015 24.6844C36.6865 24.7268 36.78 24.7492 36.875 24.75C36.9309 24.7591 36.9879 24.7591 37.0437 24.75C38.4775 24.2699 39.72 23.3436 40.5893 22.1065C41.4586 20.8694 41.9092 19.3866 41.875 17.875C41.875 13.9812 40.5875 12.5812 40.4437 12.4312Z" fill="white"/>
<path d="M56.1974 11.6H58.1414V20H56.1974V11.6ZM52.3814 20H50.4374V11.6H52.3814V20ZM56.3414 16.556H52.2374V14.912H56.3414V16.556ZM64.2088 20.144C63.5448 20.144 62.9288 20.036 62.3608 19.82C61.8008 19.604 61.3128 19.3 60.8968 18.908C60.4888 18.516 60.1688 18.056 59.9368 17.528C59.7128 17 59.6008 16.424 59.6008 15.8C59.6008 15.176 59.7128 14.6 59.9368 14.072C60.1688 13.544 60.4928 13.084 60.9088 12.692C61.3248 12.3 61.8128 11.996 62.3728 11.78C62.9328 11.564 63.5408 11.456 64.1968 11.456C64.8608 11.456 65.4688 11.564 66.0208 11.78C66.5808 11.996 67.0648 12.3 67.4728 12.692C67.8888 13.084 68.2128 13.544 68.4448 14.072C68.6768 14.592 68.7928 15.168 68.7928 15.8C68.7928 16.424 68.6768 17.004 68.4448 17.54C68.2128 18.068 67.8888 18.528 67.4728 18.92C67.0648 19.304 66.5808 19.604 66.0208 19.82C65.4688 20.036 64.8648 20.144 64.2088 20.144ZM64.1968 18.488C64.5728 18.488 64.9168 18.424 65.2288 18.296C65.5488 18.168 65.8288 17.984 66.0688 17.744C66.3088 17.504 66.4928 17.22 66.6208 16.892C66.7568 16.564 66.8248 16.2 66.8248 15.8C66.8248 15.4 66.7568 15.036 66.6208 14.708C66.4928 14.38 66.3088 14.096 66.0688 13.856C65.8368 13.616 65.5608 13.432 65.2408 13.304C64.9208 13.176 64.5728 13.112 64.1968 13.112C63.8208 13.112 63.4728 13.176 63.1528 13.304C62.8408 13.432 62.5648 13.616 62.3248 13.856C62.0848 14.096 61.8968 14.38 61.7608 14.708C61.6328 15.036 61.5688 15.4 61.5688 15.8C61.5688 16.192 61.6328 16.556 61.7608 16.892C61.8968 17.22 62.0808 17.504 62.3128 17.744C62.5528 17.984 62.8328 18.168 63.1528 18.296C63.4728 18.424 63.8208 18.488 64.1968 18.488ZM71.8766 20V13.184H69.1886V11.6H76.5086V13.184H73.8206V20H71.8766Z" fill="white"/>
<defs>
<linearGradient id="paint0_linear_46_727" x1="117.549" y1="37.2247" x2="16.0376" y2="-48.5813" gradientUnits="userSpaceOnUse">
<stop stop-color="#EE3227"/>
<stop offset="1" stop-color="#F9EB1E"/>
</linearGradient>
</defs>
</svg>
