<svg width="98" height="40" viewBox="0 0 98 40" fill="none" xmlns="http://www.w3.org/2000/svg">
<path d="M0 0L91 0C94.866 0 98 3.13401 98 7V32L23.8555 39.039C20.9377 39.316 18.1563 37.7459 16.8858 35.1047L0 0Z" fill="url(#paint0_linear_46_697)"/>
<path d="M21.996 20V11.6H25.632C26.384 11.6 27.032 11.724 27.576 11.972C28.12 12.212 28.54 12.56 28.836 13.016C29.132 13.472 29.28 14.016 29.28 14.648C29.28 15.272 29.132 15.812 28.836 16.268C28.54 16.724 28.12 17.076 27.576 17.324C27.032 17.564 26.384 17.684 25.632 17.684H23.076L23.94 16.808V20H21.996ZM23.94 17.024L23.076 16.1H25.524C26.124 16.1 26.572 15.972 26.868 15.716C27.164 15.46 27.312 15.104 27.312 14.648C27.312 14.184 27.164 13.824 26.868 13.568C26.572 13.312 26.124 13.184 25.524 13.184H23.076L23.94 12.26V17.024ZM36.4279 11.6H38.3719V20H36.4279V11.6ZM32.6119 20H30.6679V11.6H32.6119V20ZM36.5719 16.556H32.4679V14.912H36.5719V16.556ZM44.4393 20.144C43.7753 20.144 43.1593 20.036 42.5913 19.82C42.0313 19.604 41.5433 19.3 41.1273 18.908C40.7193 18.516 40.3993 18.056 40.1673 17.528C39.9433 17 39.8313 16.424 39.8313 15.8C39.8313 15.176 39.9433 14.6 40.1673 14.072C40.3993 13.544 40.7233 13.084 41.1393 12.692C41.5553 12.3 42.0433 11.996 42.6033 11.78C43.1633 11.564 43.7713 11.456 44.4273 11.456C45.0913 11.456 45.6993 11.564 46.2513 11.78C46.8113 11.996 47.2953 12.3 47.7033 12.692C48.1193 13.084 48.4433 13.544 48.6753 14.072C48.9073 14.592 49.0233 15.168 49.0233 15.8C49.0233 16.424 48.9073 17.004 48.6753 17.54C48.4433 18.068 48.1193 18.528 47.7033 18.92C47.2953 19.304 46.8113 19.604 46.2513 19.82C45.6993 20.036 45.0953 20.144 44.4393 20.144ZM44.4273 18.488C44.8033 18.488 45.1473 18.424 45.4593 18.296C45.7793 18.168 46.0593 17.984 46.2993 17.744C46.5393 17.504 46.7233 17.22 46.8513 16.892C46.9873 16.564 47.0553 16.2 47.0553 15.8C47.0553 15.4 46.9873 15.036 46.8513 14.708C46.7233 14.38 46.5393 14.096 46.2993 13.856C46.0673 13.616 45.7913 13.432 45.4713 13.304C45.1513 13.176 44.8033 13.112 44.4273 13.112C44.0513 13.112 43.7033 13.176 43.3833 13.304C43.0713 13.432 42.7953 13.616 42.5553 13.856C42.3153 14.096 42.1273 14.38 41.9913 14.708C41.8633 15.036 41.7993 15.4 41.7993 15.8C41.7993 16.192 41.8633 16.556 41.9913 16.892C42.1273 17.22 42.3113 17.504 42.5433 17.744C42.7833 17.984 43.0633 18.168 43.3833 18.296C43.7033 18.424 44.0513 18.488 44.4273 18.488ZM42.0153 10.916L43.6113 9.548H45.2433L46.8393 10.916H45.4593L43.8393 9.836H45.0153L43.3953 10.916H42.0153ZM46.5633 9.992L46.1073 9.548C46.2673 9.468 46.3793 9.384 46.4433 9.296C46.5153 9.208 46.5513 9.124 46.5513 9.044C46.5513 8.94 46.5113 8.856 46.4313 8.792C46.3593 8.728 46.2633 8.696 46.1433 8.696C45.9753 8.696 45.7993 8.744 45.6153 8.84L45.3033 8.264C45.4393 8.176 45.5953 8.112 45.7713 8.072C45.9473 8.024 46.1233 8 46.2993 8C46.6353 8 46.9033 8.088 47.1033 8.264C47.3033 8.432 47.4033 8.66 47.4033 8.948C47.4033 9.188 47.3233 9.4 47.1633 9.584C47.0033 9.768 46.8033 9.904 46.5633 9.992ZM53.8827 20V11.6H57.9867C59.0427 11.6 59.8347 11.8 60.3627 12.2C60.8987 12.6 61.1667 13.128 61.1667 13.784C61.1667 14.224 61.0587 14.608 60.8427 14.936C60.6267 15.256 60.3307 15.504 59.9547 15.68C59.5787 15.856 59.1467 15.944 58.6587 15.944L58.8867 15.452C59.4147 15.452 59.8827 15.54 60.2907 15.716C60.6987 15.884 61.0147 16.136 61.2387 16.472C61.4707 16.808 61.5867 17.22 61.5867 17.708C61.5867 18.428 61.3027 18.992 60.7347 19.4C60.1667 19.8 59.3307 20 58.2267 20H53.8827ZM55.8147 18.536H58.0827C58.5867 18.536 58.9667 18.456 59.2227 18.296C59.4867 18.128 59.6187 17.864 59.6187 17.504C59.6187 17.152 59.4867 16.892 59.2227 16.724C58.9667 16.548 58.5867 16.46 58.0827 16.46H55.6707V15.044H57.7467C58.2187 15.044 58.5787 14.964 58.8267 14.804C59.0827 14.636 59.2107 14.384 59.2107 14.048C59.2107 13.72 59.0827 13.476 58.8267 13.316C58.5787 13.148 58.2187 13.064 57.7467 13.064H55.8147V18.536ZM63.0585 20V11.6H65.0025V20H63.0585ZM68.784 14.984H72.828V16.496H68.784V14.984ZM68.928 18.44H73.5V20H66.996V11.6H73.344V13.16H68.928V18.44ZM67.764 10.916L69.36 9.548H70.992L72.588 10.916H71.208L69.588 9.836H70.764L69.144 10.916H67.764ZM71.616 9.764L72.948 8.312H74.856L72.972 9.764H71.616ZM75.0468 20V11.6H76.6548L81.6108 17.648H80.8308V11.6H82.7508V20H81.1548L76.1868 13.952H76.9668V20H75.0468Z" fill="white"/>
<defs>
<linearGradient id="paint0_linear_46_697" x1="0" y1="19.75" x2="98" y2="19.75" gradientUnits="userSpaceOnUse">
<stop stop-color="#11998E"/>
<stop offset="1" stop-color="#38EF7D"/>
</linearGradient>
</defs>
</svg>
