<svg width="178" height="66" viewBox="0 0 178 66" fill="none" xmlns="http://www.w3.org/2000/svg">
<g clip-path="url(#clip0_17_1860)">
<path d="M29.6586 29.5364L25.7383 32.7181C25.6949 32.7533 25.66 32.7978 25.636 32.8482C25.612 32.8987 25.5996 32.9538 25.5996 33.0097C25.5996 33.0655 25.612 33.1207 25.636 33.1711C25.66 33.2216 25.6949 33.266 25.7383 33.3013L29.6457 36.4116C29.6897 36.4465 29.7254 36.4908 29.7501 36.5413C29.7747 36.5917 29.7878 36.6471 29.7882 36.7032L29.8206 46.4231C29.8198 46.4745 29.8085 46.5252 29.7873 46.572C29.7661 46.6188 29.7356 46.6608 29.6975 46.6953L25.032 51.0368C24.9611 51.101 24.8684 51.1358 24.7728 51.134H0.375836C0.276158 51.134 0.180563 51.0944 0.11008 51.024C0.0395969 50.9535 0 50.8579 0 50.7582V15.2223C0 15.1729 0.00972129 15.124 0.0286088 15.0784C0.0474963 15.0328 0.0751803 14.9914 0.11008 14.9565C0.144979 14.9216 0.186411 14.8939 0.23201 14.875C0.277608 14.8562 0.326481 14.8464 0.375836 14.8464H24.7857C24.8822 14.8464 24.975 14.8836 25.0449 14.9501L29.6975 19.3046C29.7344 19.3397 29.7637 19.382 29.7838 19.4287C29.8038 19.4755 29.8142 19.5259 29.8142 19.5768L29.7947 29.2448C29.795 29.3005 29.783 29.3555 29.7595 29.4059C29.7359 29.4564 29.7015 29.5009 29.6586 29.5364ZM20.5959 24.1869C20.5959 24.1511 20.5888 24.1157 20.575 24.0828C20.5613 24.0498 20.5412 24.0198 20.5159 23.9946C20.4905 23.9694 20.4605 23.9494 20.4275 23.9357C20.3944 23.9221 20.359 23.9152 20.3233 23.9152L9.30745 23.9344C9.2717 23.9345 9.23632 23.9416 9.20332 23.9553C9.17032 23.969 9.14035 23.9891 9.11511 24.0145C9.08988 24.0398 9.06989 24.0698 9.05627 24.1029C9.04265 24.1359 9.03568 24.1713 9.03574 24.2071L9.04326 28.5227C9.04333 28.5585 9.05044 28.5938 9.06418 28.6268C9.07792 28.6598 9.09802 28.6898 9.12334 28.715C9.14866 28.7402 9.1787 28.7602 9.21175 28.7738C9.24479 28.7875 9.2802 28.7944 9.31594 28.7944L20.3318 28.7752C20.3675 28.7751 20.4029 28.768 20.4359 28.7543C20.4689 28.7405 20.4989 28.7204 20.5241 28.6951C20.5493 28.6698 20.5693 28.6398 20.5829 28.6067C20.5966 28.5737 20.6035 28.5382 20.6035 28.5025L20.5959 24.1869ZM20.5673 37.4614C20.5673 37.4265 20.5604 37.392 20.5471 37.3597C20.5337 37.3275 20.5142 37.2982 20.4895 37.2735C20.4648 37.2489 20.4355 37.2293 20.4033 37.2159C20.3711 37.2026 20.3365 37.1957 20.3016 37.1957H9.2987C9.26381 37.1957 9.22926 37.2026 9.19703 37.2159C9.1648 37.2293 9.13551 37.2489 9.11084 37.2735C9.08617 37.2982 9.0666 37.3275 9.05325 37.3597C9.0399 37.392 9.03302 37.4265 9.03302 37.4614V41.79C9.03302 41.8604 9.06101 41.928 9.11084 41.9778C9.16066 42.0277 9.22824 42.0557 9.2987 42.0557H20.3016C20.3721 42.0557 20.4397 42.0277 20.4895 41.9778C20.5393 41.928 20.5673 41.8604 20.5673 41.79V37.4614Z" fill="#221714"/>
<path d="M53.6926 44.5116L42.7804 44.4856C42.6901 44.4848 42.602 44.5135 42.5295 44.5673C42.457 44.6211 42.404 44.6971 42.3786 44.7837L40.5643 50.836C40.5389 50.9226 40.4859 50.9986 40.4134 51.0524C40.3409 51.1062 40.2528 51.1349 40.1625 51.134L31.946 51.1276C31.881 51.1274 31.817 51.1121 31.7591 51.0827C31.7012 51.0533 31.651 51.0108 31.6125 50.9584C31.5741 50.9061 31.5484 50.8455 31.5377 50.7815C31.527 50.7174 31.5314 50.6517 31.5507 50.5897L42.3527 15.138C42.379 15.0537 42.4314 14.9799 42.5025 14.9274C42.5736 14.875 42.6596 14.8466 42.748 14.8464H53.7056C53.7939 14.8466 53.8799 14.875 53.951 14.9274C54.0221 14.9799 54.0746 15.0537 54.1008 15.138L64.9288 50.6157C64.9482 50.6782 64.9526 50.7444 64.9415 50.809C64.9305 50.8735 64.9042 50.9345 64.8651 50.987C64.8259 51.0395 64.7748 51.0819 64.716 51.1108C64.6573 51.1398 64.5925 51.1544 64.527 51.1535L56.2846 51.1016C56.1962 51.1015 56.1102 51.0731 56.0391 51.0207C55.968 50.9682 55.9155 50.8944 55.8893 50.81L54.0944 44.8096C54.069 44.723 54.016 44.647 53.9435 44.5932C53.871 44.5394 53.7829 44.5107 53.6926 44.5116ZM44.841 36.8652C44.8297 36.9006 44.8269 36.9382 44.833 36.9748C44.8391 37.0114 44.8538 37.0461 44.876 37.0759C44.8982 37.1057 44.9272 37.1297 44.9605 37.1461C44.9939 37.1624 45.0307 37.1705 45.0678 37.1698L51.47 37.1439C51.5064 37.1443 51.5424 37.1362 51.5751 37.1202C51.6078 37.1042 51.6363 37.0808 51.6583 37.0519C51.6804 37.0229 51.6953 36.9892 51.702 36.9534C51.7087 36.9176 51.7069 36.8808 51.6968 36.8458L48.4568 26.3418C48.4425 26.2937 48.413 26.2515 48.3727 26.2214C48.3324 26.1914 48.2835 26.1752 48.2333 26.1752C48.183 26.1752 48.1341 26.1914 48.0938 26.2214C48.0536 26.2515 48.0241 26.2937 48.0097 26.3418L44.841 36.8652Z" fill="#221714"/>
<path d="M94.5551 33.3013L98.3394 36.3922C98.3863 36.4307 98.424 36.4792 98.4498 36.5341C98.4756 36.5891 98.4888 36.649 98.4885 36.7097L98.5144 46.4361C98.5143 46.492 98.5028 46.5473 98.4805 46.5986C98.4582 46.6499 98.4256 46.696 98.3848 46.7342L93.8424 51.0174C93.7668 51.0881 93.6672 51.1275 93.5637 51.1276H69.0955C68.9872 51.1276 68.8834 51.0846 68.8068 51.008C68.7303 50.9314 68.6873 50.8276 68.6873 50.7193L68.6937 15.2547C68.6937 15.1464 68.7367 15.0426 68.8133 14.966C68.8899 14.8894 68.9937 14.8464 69.102 14.8464H93.5119C93.6154 14.8465 93.715 14.8859 93.7905 14.9566L98.3653 19.1815C98.407 19.2204 98.4401 19.2676 98.4624 19.3201C98.4847 19.3725 98.4958 19.4291 98.4949 19.4861V29.3032C98.4953 29.3638 98.482 29.4238 98.4563 29.4787C98.4305 29.5337 98.3928 29.5822 98.3459 29.6207L94.5551 32.6662C94.5078 32.7045 94.4696 32.7529 94.4433 32.8078C94.4171 32.8628 94.4035 32.9229 94.4035 32.9838C94.4035 33.0446 94.4171 33.1048 94.4433 33.1597C94.4696 33.2146 94.5078 33.263 94.5551 33.3013ZM89.3026 24.1416C89.3025 24.1109 89.2964 24.0806 89.2847 24.0523C89.2729 24.024 89.2557 23.9983 89.234 23.9767C89.2122 23.9551 89.1865 23.9379 89.1582 23.9263C89.1298 23.9146 89.0995 23.9086 89.0688 23.9087L77.9882 23.928C77.9576 23.928 77.9273 23.9341 77.899 23.9459C77.8707 23.9577 77.845 23.9749 77.8234 23.9966C77.8017 24.0183 77.7846 24.0441 77.7729 24.0724C77.7613 24.1007 77.7553 24.1311 77.7553 24.1617L77.763 28.5551C77.763 28.5857 77.7691 28.616 77.7809 28.6443C77.7927 28.6726 77.8099 28.6983 77.8316 28.7199C77.8533 28.7415 77.8791 28.7587 77.9074 28.7704C77.9357 28.782 77.9661 28.788 77.9967 28.7879L89.0773 28.7686C89.108 28.7686 89.1383 28.7625 89.1666 28.7507C89.1949 28.7389 89.2206 28.7217 89.2422 28.7C89.2638 28.6783 89.281 28.6526 89.2926 28.6242C89.3043 28.5959 89.3103 28.5655 89.3102 28.5349L89.3026 24.1416ZM89.3129 37.578C89.3129 37.4766 89.2726 37.3794 89.2009 37.3077C89.1292 37.236 89.032 37.1957 88.9306 37.1957H78.148C78.0466 37.1957 77.9493 37.236 77.8776 37.3077C77.8059 37.3794 77.7656 37.4766 77.7656 37.578V41.6733C77.7656 41.7747 77.8059 41.872 77.8776 41.9437C77.9493 42.0154 78.0466 42.0557 78.148 42.0557H88.9306C89.032 42.0557 89.1292 42.0154 89.2009 41.9437C89.2726 41.872 89.3129 41.7747 89.3129 41.6733V37.578Z" fill="#221714"/>
<path d="M168.504 26.3354L168.433 24.2553C168.428 24.1195 168.37 23.9909 168.272 23.8967C168.174 23.8024 168.044 23.7498 167.908 23.7499L157.501 23.7628C157.362 23.7628 157.228 23.8181 157.13 23.9166C157.032 24.015 156.976 24.1485 156.976 24.2877V41.6993C156.976 41.8385 157.032 41.972 157.13 42.0704C157.228 42.1688 157.362 42.2241 157.501 42.2241H168.128C168.198 42.2242 168.267 42.2104 168.331 42.1836C168.395 42.1568 168.453 42.1176 168.502 42.0681C168.551 42.0187 168.589 41.9601 168.615 41.8956C168.641 41.8312 168.654 41.7623 168.653 41.6928L168.608 38.0446C168.606 37.9065 168.55 37.7747 168.452 37.6776C168.354 37.5806 168.221 37.5262 168.083 37.5262H164.156C164.017 37.5262 163.883 37.4709 163.785 37.3725C163.686 37.274 163.631 37.1405 163.631 37.0013L163.612 29.1152C163.612 28.976 163.667 28.8425 163.765 28.7441C163.814 28.6954 163.872 28.6567 163.936 28.6303C163.999 28.604 164.068 28.5904 164.137 28.5904L177.019 28.6033C177.088 28.6033 177.156 28.6169 177.22 28.6433C177.283 28.6697 177.341 28.7083 177.39 28.7571C177.439 28.8058 177.477 28.8637 177.504 28.9273C177.53 28.991 177.544 29.0593 177.544 29.1282L177.55 46.3065C177.55 46.3763 177.537 46.4456 177.51 46.5101C177.484 46.5746 177.444 46.6332 177.395 46.6823L173.215 50.823C173.116 50.9193 172.984 50.9728 172.846 50.972H153.121C152.988 50.9712 152.861 50.9203 152.764 50.8295L148.39 46.6953C148.339 46.6459 148.298 46.5866 148.27 46.5208C148.242 46.4551 148.228 46.3844 148.228 46.313V19.5314C148.229 19.3926 148.285 19.2598 148.384 19.1621L152.525 15.002C152.574 14.9523 152.632 14.913 152.697 14.8863C152.761 14.8596 152.831 14.8461 152.9 14.8464H172.541C172.679 14.8457 172.812 14.8992 172.91 14.9955L177.233 19.2852C177.282 19.3343 177.322 19.3929 177.348 19.4574C177.375 19.522 177.388 19.5912 177.388 19.661V26.29C177.388 26.3589 177.375 26.4272 177.348 26.4909C177.322 26.5545 177.283 26.6124 177.234 26.6611C177.186 26.7099 177.128 26.7485 177.064 26.7749C177 26.8013 176.932 26.8149 176.863 26.8149L169.029 26.8408C168.893 26.8409 168.762 26.7883 168.665 26.694C168.567 26.5997 168.509 26.4712 168.504 26.3354Z" fill="#221714"/>
<path d="M115.116 27.4109C115.336 27.8083 115.552 27.8127 115.764 27.4239L122.374 15.3842C122.436 15.2707 122.523 15.1758 122.626 15.1097C122.728 15.0436 122.843 15.0085 122.957 15.0083H131.219C131.263 15.0077 131.307 15.0202 131.344 15.0448C131.382 15.0693 131.412 15.1051 131.433 15.1486C131.454 15.1922 131.464 15.242 131.463 15.2935C131.462 15.3449 131.449 15.3962 131.426 15.4425C127.91 22.2723 124.354 29.0633 120.76 35.8154C119.211 38.7249 120.021 47.2201 120.054 50.7451C120.054 50.8465 120.014 50.9438 119.944 51.0155C119.873 51.0872 119.778 51.1275 119.678 51.1275L111.293 51.1404C111.204 51.1404 111.118 51.1049 111.055 51.0417C110.991 50.9785 110.956 50.8928 110.956 50.8035C110.982 47.2978 111.779 39.0294 110.269 36.1394C106.645 29.2404 103.029 22.3393 99.4217 15.436C99.3989 15.3909 99.3863 15.3408 99.3851 15.2904C99.3839 15.24 99.3942 15.191 99.415 15.1482C99.4358 15.1053 99.4664 15.0699 99.5038 15.0455C99.5413 15.021 99.5844 15.0082 99.629 15.0083H107.891C108.009 15.0086 108.127 15.043 108.231 15.1079C108.336 15.1728 108.424 15.2659 108.487 15.3777L115.116 27.4109Z" fill="#221714"/>
<path d="M143.043 28.6053L130.524 28.6271C130.263 28.6276 130.051 28.8397 130.052 29.101L130.066 37.0583C130.066 37.3196 130.278 37.531 130.539 37.5305L143.059 37.5087C143.32 37.5082 143.531 37.2961 143.531 37.0348L143.517 29.0775C143.517 28.8162 143.304 28.6048 143.043 28.6053Z" fill="#221714"/>
</g>
<defs>
<clipPath id="clip0_17_1860">
<rect width="177.55" height="66" fill="white"/>
</clipPath>
</defs>
</svg>
