<svg width="190" height="66" viewBox="0 0 190 66" fill="none" xmlns="http://www.w3.org/2000/svg">
<g clip-path="url(#clip0_17_1870)">
<g clip-path="url(#clip1_17_1870)">
<path fill-rule="evenodd" clip-rule="evenodd" d="M113.347 14.9902C121.991 14.9902 130.123 22.4106 130.123 31.9663C130.123 38.534 127.105 43.1252 124.499 45.8489C121.073 49.3195 116.621 50.4399 114.167 50.4399C108.746 50.4399 103.784 48.3047 100.253 44.2493C97.6945 41.205 96.1114 36.6667 96.1114 32.5547C96.1114 27.9108 97.799 23.2632 101.739 19.7926C105.164 16.6992 109.154 14.9902 113.295 14.9902H113.347ZM112.017 16.1635C108.999 16.1635 106.646 17.1783 104.344 19.7926C101.529 22.8897 100.813 27.5864 100.813 31.6456C100.813 36.4517 102.454 41.254 105.215 44.3512C108.381 47.8747 111.453 49.1572 114.878 49.1572C121.019 49.1572 125.623 44.4568 125.623 33.943C125.623 29.2426 124.395 24.3874 120.965 20.2754C118.969 17.929 116.212 16.1672 112.067 16.1672H112.017V16.1635ZM4.05194 28.6578C4.05194 24.708 4.05194 21.0223 3.89653 19.155C3.79535 18.0874 2.77619 17.3933 0.0114849 16.6463L0.217483 16.1672C0.983653 16.1672 2.82317 16.1144 4.40611 15.8994C5.88785 15.7937 11.457 15.5259 13.246 15.5259C14.9842 15.5259 19.4223 15.6843 22.0821 16.8576C23.7193 17.5517 26.1768 19.5813 26.1768 22.7841C26.1768 25.1343 25.5624 26.9489 23.6723 28.4465C22.8168 29.104 22.0431 29.5386 21.5273 29.8285C21.3328 29.9378 21.1749 30.0265 21.0631 30.0988C20.7558 30.2611 20.9582 30.6345 21.3702 30.6874C24.6951 31.2759 28.8368 34.3202 28.8368 39.7073C28.8368 44.5133 25.7685 47.3993 21.6738 48.8366C19.6283 49.6364 15.2409 49.6929 14.4205 49.6929C14.2415 49.6929 13.3058 49.6664 12.0919 49.632C9.84959 49.5684 6.65778 49.4779 5.53007 49.4779C4.24697 49.4779 2.96386 49.5736 1.93157 49.6506C1.23691 49.7024 0.655502 49.7458 0.264465 49.7458C0.163273 49.6402 -0.042725 49.3723 0.0078709 49.161C0.122493 49.1096 0.303642 49.0426 0.513845 48.9648C0.966389 48.7975 1.5537 48.5802 1.90161 48.3613C1.99244 48.2964 2.0828 48.2339 2.17202 48.1721C3.03765 47.5729 3.79646 47.0477 3.84232 45.2113C3.99411 41.3709 4.04832 38.485 4.04832 36.6705V28.6578H4.05194ZM13.911 48.7876C18.5621 48.7876 24.4891 45.8489 24.4891 40.0845C24.4891 37.7343 23.9253 35.4935 22.1363 33.6751C20.3944 31.8606 16.4191 31.54 13.9616 31.54C12.2232 31.54 8.49715 31.6984 8.13937 32.2868C7.93699 32.6075 7.68039 33.1394 7.68039 35.6519C7.68039 45.9016 7.68039 46.4864 8.70315 47.5012C9.83068 48.5688 12.122 48.7838 13.8604 48.7838H13.911V48.7876ZM22.0858 23.8517C22.0858 21.5543 21.3196 19.9548 20.1415 18.6721C19.0681 17.4461 15.7505 16.5935 13.1953 16.5935C12.787 16.5935 9.78016 16.6991 8.80796 17.182C8.35843 17.4443 8.30064 17.5511 8.10833 17.9062L8.096 17.9289C7.9406 18.2496 7.88639 19.8491 7.88639 22.7841C7.88639 25.6134 7.9406 28.0165 7.98758 28.8162C8.14298 30.0461 8.39597 30.363 9.67535 30.4724C10.4921 30.5818 13.4483 30.6345 14.1675 30.6345C14.8325 30.6345 18.4031 30.4724 19.3247 29.8876C21.0667 28.7672 22.0858 26.5792 22.0858 23.9083V23.8517ZM66.1621 16.2163C65.5477 16.3257 64.8827 16.4842 64.3659 16.8048C63.7046 17.1255 63.2419 17.6046 63.1408 18.8344C63.0396 19.7926 62.8842 22.3051 62.6782 32.0229C62.5264 37.1459 62.2229 41.3861 59.7183 45.1208C57.3657 48.5915 52.7072 50.44 48.5114 50.44C44.8323 50.44 41.558 49.1045 39.5089 47.1844C36.4405 44.2494 35.931 40.1374 35.8768 36.6139C35.8261 34.4787 35.8261 30.9553 35.978 25.7229C36.1804 19.4191 36.1804 18.4081 35.6708 17.5518C35.2118 16.9671 33.983 16.4842 33.0109 16.2729L33.0651 16.0579C33.1157 15.8429 33.3181 15.7372 33.983 15.7372C34.5285 15.7372 35.3743 15.7924 36.2091 15.8468C37.0227 15.8999 37.8259 15.9523 38.3307 15.9523C39.2121 15.9063 40.0756 15.8422 40.868 15.7835C41.9601 15.7026 42.9172 15.6316 43.5999 15.6316C43.8529 15.6316 43.9071 15.6316 43.9071 15.79C43.9071 16.0051 43.8059 16.2163 43.7553 16.2163C41.1965 16.8048 40.6364 17.3933 40.3292 18.5138C40.1233 19.4191 39.9714 21.2375 39.9208 24.1724C39.9065 24.9913 39.8837 26.0117 39.8584 27.1437L39.8583 27.1457C39.7945 30.0029 39.7149 33.5707 39.7149 36.3989C39.7149 41.254 41.3014 44.14 43.4481 46.0073C45.3418 47.6634 47.6403 48.1991 50.5063 48.252C55.707 48.304 57.8764 45.3648 58.9153 43.9571L58.9558 43.9023C60.7989 41.2314 61.3013 37.0364 61.3013 31.3287C61.3518 25.0816 61.3013 21.2412 61.0953 19.5814C60.8386 17.4462 59.5629 16.8577 57.0584 16.5408C56.5452 16.4314 56.4946 16.3295 56.5452 16.2201C56.5585 16.1944 56.5714 16.1718 56.5835 16.1508C56.6211 16.0855 56.65 16.035 56.65 15.9523C56.7549 15.79 57.1632 15.7372 57.521 15.7372C58.8004 15.8957 60.4376 15.9523 61.3555 15.9523C62.3914 15.9523 64.0183 15.8119 65.1489 15.7144C65.5801 15.6772 65.9392 15.6462 66.1657 15.6316C66.4151 15.6316 66.4151 15.6844 66.3681 15.8466L66.1621 16.2163ZM93.6828 42.4311C93.5847 42.2726 93.4298 42.0575 93.3244 42.0575V42.0613H93.2668C93.1696 42.0613 93.1155 42.1179 93.0651 42.2764C92.7571 43.5062 92.1934 45.1585 91.1705 46.3355C89.6892 48.0973 87.2823 48.4179 82.5768 48.4179C80.3759 48.4179 78.793 48.2595 78.0774 48.0444C77.3076 47.7766 77.1595 47.2975 77.1053 46.6034C77.0041 45.532 76.8992 43.3967 76.8992 35.4972V29.0389C76.8992 24.0705 77.0041 20.7621 77.2064 19.106C77.3582 17.5065 77.7702 16.8652 80.6325 16.171C80.6831 15.956 80.5855 15.7938 80.4807 15.6354C79.3675 15.6609 78.2551 15.7367 77.2061 15.8082C76.0857 15.8846 75.0378 15.956 74.1382 15.956C73.3292 15.956 72.633 15.9255 71.9757 15.8967C71.388 15.871 70.8314 15.8466 70.2531 15.8466C69.9965 15.8466 69.8953 15.8957 69.7941 16.0051V16.0579C69.7435 16.1635 69.7435 16.2729 69.8953 16.3257C72.6058 17.0727 72.913 17.4461 72.9636 18.5137C73.0684 19.6907 73.1696 22.5729 73.1696 27.0017V38.5907C73.1696 43.9777 73.0142 45.7961 72.8624 46.5958C72.5054 48.3881 71.0554 48.8775 69.4909 49.4055L69.4327 49.4251C69.3821 49.5308 69.4327 49.742 69.5375 49.8514C69.7435 49.9043 69.9965 49.9043 70.5061 49.8514L70.6238 49.839C72.1464 49.6784 74.0836 49.4742 75.8801 49.4742C81.084 49.5113 84.1284 49.5924 86.0547 49.6437C87.0622 49.6705 87.7639 49.6892 88.3086 49.6892C90.3537 49.6892 90.9183 49.6892 91.4271 49.6364C91.89 49.527 92.0962 49.3686 92.197 48.7273C92.5554 46.5958 93.0138 45.0981 93.6288 43.2308C93.7837 42.7535 93.7333 42.5944 93.6828 42.4329V42.4311ZM161.286 17.7668C161.796 17.1255 162.103 16.8576 162.974 16.6992L163.942 16.4313C164.246 16.3785 164.351 16.2729 164.3 16.1107C164.199 15.9522 164.044 15.79 163.479 15.79C163.156 15.79 162.759 15.819 162.3 15.8524C161.673 15.8981 160.931 15.9522 160.104 15.9522C159.277 15.9522 158.541 15.8899 157.862 15.8323C157.28 15.783 156.739 15.7372 156.22 15.7372C155.659 15.7372 155.45 15.8956 155.348 16.0579C155.298 16.2163 155.298 16.3257 155.554 16.3785L156.475 16.5898C157.853 16.8576 158.825 17.2839 158.16 19.6341C157.802 20.8111 157.293 22.305 155.398 27.2696C152.898 34.0486 149.624 41.7897 148.446 43.9249C148.24 44.3512 147.933 44.0871 147.78 43.7665C146.718 41.4387 145.095 37.4248 143.484 33.4395C142.766 31.6636 142.051 29.8934 141.388 28.2806C138.981 22.5163 138.113 20.117 137.752 18.7816C137.445 17.7668 137.701 17.2311 139.545 16.4841C139.798 16.4313 139.952 16.3785 140.003 16.1635C140.102 15.8523 140.057 15.8431 139.819 15.7945L139.798 15.79C139.312 15.79 138.828 15.8231 138.296 15.8594C137.651 15.9034 136.936 15.9522 136.068 15.9522C135.54 15.9522 134.995 15.9247 134.355 15.8923C133.44 15.8461 132.331 15.79 130.798 15.79C130.234 15.79 129.981 16.005 130.028 16.3257L130.083 16.4313C132.385 16.967 132.743 17.4461 134.329 21.1846C134.563 21.7479 134.821 22.3654 135.102 23.0374L135.102 23.0376V23.0388C137.083 27.7807 140.195 35.2334 144.095 45.4753C144.959 47.7256 145.522 49.0667 145.783 49.6889C145.862 49.878 145.914 50.0011 145.937 50.0627C146.093 50.3305 146.19 50.4361 146.346 50.4361C146.502 50.4361 146.703 50.3268 146.809 50.1155C147.075 49.521 147.404 48.9184 147.703 48.3711L147.704 48.3704L147.705 48.3681C147.862 48.0795 148.011 47.8063 148.139 47.5578C148.583 46.6863 149.143 45.5206 149.396 44.9322C151.483 40.1039 153.142 36.0829 154.591 32.5709L154.592 32.57C156.055 29.0221 157.305 25.9935 158.565 23.1765C160.252 19.2795 160.878 18.2987 161.286 17.7668ZM176.692 34.5315L176.305 33.4576V33.4558C174.611 28.7573 173.653 26.1012 171.987 21.8259C171.68 21.1846 171.423 21.294 171.217 21.7165C170.843 22.6639 170.511 23.4979 170.209 24.258L170.208 24.2605C168.737 27.9572 167.961 29.9096 166.31 34.69L165.03 37.8927C164.264 39.8129 162.472 44.619 162.472 46.3279C162.425 47.5539 163.035 48.1425 165.695 49.1045C165.796 49.3194 165.645 49.6363 165.442 49.6929C164.286 49.6652 163.386 49.6073 162.628 49.5585C161.942 49.5145 161.373 49.4779 160.838 49.4779C160.058 49.4779 159.208 49.5518 158.503 49.613C158.007 49.6561 157.584 49.6929 157.311 49.6929C157.004 49.6929 156.852 49.6401 156.801 49.5345C156.747 49.4288 156.747 49.2138 156.801 49.1082C158.948 48.4141 159.306 47.8822 161.048 43.823C162.377 40.8314 168.261 26.0963 170.968 18.8909C171.478 17.5027 171.788 16.6501 172.041 15.8466C172.095 15.5787 172.193 15.4203 172.348 15.3146C172.554 15.2052 172.96 14.994 173.165 14.994H173.22C173.473 14.994 173.577 15.2618 173.73 15.7409C175.064 20.0558 176.047 22.6779 177.459 26.4432C177.671 27.0101 177.893 27.6031 178.128 28.2315C178.966 30.5143 180.372 34.101 181.657 37.315C183.214 37.3834 184.786 37.5232 186.399 37.7419C186.826 37.7984 187.476 38.9566 187.383 38.9453C185.593 38.7026 183.854 38.5571 182.132 38.4985C183.236 41.2462 184.177 43.5354 184.47 44.1927C184.57 44.421 184.664 44.6443 184.757 44.8618C185.66 46.9883 186.336 48.5807 189.074 49.2138C189.176 49.3194 188.969 49.7986 188.919 49.7986C187.277 49.7986 186.037 49.7464 184.98 49.702C184.193 49.6689 183.508 49.6401 182.833 49.6401C181.78 49.6401 180.627 49.7237 179.76 49.7867C179.237 49.8247 178.817 49.8551 178.587 49.8551C178.481 49.8551 178.381 49.7986 178.33 49.6929C178.279 49.5873 178.279 49.4288 178.279 49.2666C181.091 48.3612 181.196 47.6106 180.375 45.049C180.097 44.2249 178.895 40.6824 178.101 38.5152C176.014 38.6014 173.912 38.8038 171.734 39.1037C171.344 39.1565 170.546 37.9268 170.747 37.9003C173.115 37.5744 175.393 37.3635 177.66 37.292L176.692 34.5315Z" fill="black"/>
</g>
</g>
<defs>
<clipPath id="clip0_17_1870">
<rect width="189.102" height="66" fill="white"/>
</clipPath>
<clipPath id="clip1_17_1870">
<rect width="189.102" height="36.0194" fill="white" transform="translate(0 14.9902)"/>
</clipPath>
</defs>
</svg>
