<svg width="194" height="66" viewBox="0 0 194 66" fill="none" xmlns="http://www.w3.org/2000/svg">
<g clip-path="url(#clip0_17_1856)">
<g clip-path="url(#clip1_17_1856)">
<path d="M164.819 41.5934C163.193 41.203 162.802 40.3571 162.607 38.7954C162.217 36.1927 162.217 29.6858 162.607 26.8878C162.802 25.4563 163.648 24.6755 164.819 24.2851C166.251 23.8947 179.135 23.6994 180.566 24.2851C181.802 24.6755 182.193 25.5214 182.388 26.6926C182.974 29.2954 182.974 35.9975 182.388 38.6002C182.193 39.8365 181.802 40.4221 180.566 41.0078C179.395 41.9838 166.641 41.9838 164.819 41.5934ZM184.796 15.3056C180.956 14.5247 166.186 14.2645 160.33 15.3056C155.905 16.0864 152.456 19.3398 151.415 23.3741C150.634 27.994 150.634 38.3399 151.415 42.5694C152.196 46.4085 155.449 49.8571 160.33 50.6379C165.405 51.6791 180.306 51.4188 184.991 50.4427C190.457 49.2064 192.669 45.1722 193.254 42.5694C194.035 38.5351 194.035 28.2543 193.254 23.3741C192.278 19.1446 188.635 16.1515 184.796 15.3056ZM134.107 15.5658H145.234V50.5078H134.107V15.5658ZM116.343 37.1687C118.165 37.5591 118.555 38.9906 118.555 40.2269C118.555 41.4632 118.36 42.8297 116.343 43.0249C114.131 43.4153 106.648 43.4153 103.85 43.0249C102.614 42.8297 101.247 42.8297 100.792 40.6173V40.0317H89.6649C89.6649 40.2269 89.6649 40.8126 89.8601 41.6585C90.2505 46.2783 92.0724 49.5318 97.343 50.5729C101.572 51.3537 117.514 51.614 122.395 50.5729C128.056 49.3366 129.487 44.3263 129.487 39.8365C129.487 34.7611 127.665 31.3776 123.24 29.9461C122.004 29.5556 119.206 29.3604 117.97 29.3604C116.929 29.3604 105.021 28.97 102.418 28.5796C100.792 28.3844 100.401 27.3433 100.401 25.9769C100.401 24.5453 100.596 23.5693 102.614 23.1789C105.021 22.7885 114.521 22.7885 115.562 23.1789C116.799 23.5693 117.189 24.4152 117.189 25.3912V26.1721H128.316C128.316 25.3912 128.121 24.7406 128.121 24.1549C127.535 18.6892 124.477 15.696 119.011 15.2405C113.545 14.6549 101.052 14.8501 97.2129 15.4357C93.569 16.2165 89.9252 18.4939 89.9252 25.9118C89.9252 31.9632 92.7231 35.0214 97.6033 35.9975C99.0348 36.1927 103.069 36.3879 103.655 36.3879C105.021 36.518 115.562 36.9735 116.343 37.1687ZM72.4867 36.9735H60.1887L65.4593 23.0488H67.2812L72.4867 36.9735ZM74.9593 44.1961L77.3669 50.4427H89.2745L74.3086 15.3056H58.1716L43.4009 50.4427H55.3085L57.7161 44.0009L74.9593 44.1961ZM11.5172 38.9906C11.7124 41.0078 12.7535 41.3982 13.7295 41.5934C15.3563 41.9838 26.8734 41.9838 28.8906 41.5934C30.3221 41.3982 31.2981 40.3571 31.4933 39.1858C31.4933 38.6002 31.6885 37.5591 31.6885 37.1687H43.2057C43.2057 37.9495 43.2057 39.9667 43.0105 41.7886C42.4249 46.0181 39.9523 49.4667 34.7468 50.703C31.1029 51.4838 13.5343 51.4838 9.50006 50.703C5.27058 49.6619 1.62672 47.0592 0.58562 42.6345C-0.195207 38.6002 -0.195207 28.0591 0.58562 23.6344C1.17124 20.3809 4.22948 16.5419 9.23978 15.5658C13.8597 14.785 30.257 14.5247 34.6817 15.5658C40.5379 16.9974 42.3598 22.2029 42.555 24.0248C42.7502 26.0419 42.7502 27.4734 42.7502 28.2543H31.2331C31.2331 27.4734 31.4283 25.196 29.4111 24.6104C28.1748 24.22 16.9179 24.22 14.0549 24.4152C12.6234 24.6104 11.8425 25.196 11.6473 26.6275C11.1268 29.4906 11.1268 36.3228 11.5172 38.9906Z" fill="#003296"/>
</g>
</g>
<defs>
<clipPath id="clip0_17_1856">
<rect width="193.905" height="66" fill="white"/>
</clipPath>
<clipPath id="clip1_17_1856">
<rect width="193.905" height="36.6988" fill="white" transform="translate(0 14.6506)"/>
</clipPath>
</defs>
</svg>
