<svg width="211" height="66" viewBox="0 0 211 66" fill="none" xmlns="http://www.w3.org/2000/svg">
<g clip-path="url(#clip0_17_1864)">
<path d="M50.4891 48.3979C48.0848 48.3979 47.0047 47.8334 47.0047 44.9779V21.2143C47.0047 18.3728 47.9106 18.0173 50.3148 18.0173H51.8306V15.0817H36.1333V18.0173H37.8232C40.0707 18.0173 41.116 18.7856 41.116 21.2143V44.9779C41.116 47.4013 39.8094 48.3978 37.562 48.3978H36.0462V51.3283H51.9351V48.3979H50.4891ZM103.696 48.3979C101.292 48.3979 100.211 47.8334 100.211 44.9779V21.2143C100.211 18.3728 101.117 18.0173 103.522 18.0173H105.055V15.0817H89.3575V18.0173H91.03C93.2775 18.0173 94.3054 18.7856 94.3054 21.2143V44.9779C94.3054 47.4013 92.9987 48.3978 90.7861 48.3978H89.2529V51.3283H105.142V48.3979H103.696ZM55.2625 15.0817V24.6325H57.9804V22.6428C57.9804 20.2386 58.8515 18.0173 62.1094 18.0173H67.6496V44.9779C67.6496 47.4013 66.2036 48.3978 63.9562 48.3978H62.3184V51.3283H78.8695V48.3979H77.2318C75.0018 48.3979 73.5558 47.4013 73.5558 44.9779V18.0173H79.0786C82.3364 18.0173 83.2076 20.2386 83.2076 22.6428V24.6325H85.9254V15.0817H55.2625ZM134.881 41.4904V42.1315C134.881 45.1421 134.045 48.3982 127.616 48.3982H116.466L137.216 18.0159V15.082H109.811V24.8959H112.581V23.6937C112.581 20.6013 114.009 18.0159 118.208 18.0159C120.752 18.0159 129.846 18.0456 129.846 18.0456L109.166 48.3982V51.3269H137.599V41.4904H134.881ZM168.454 41.4427V42.4113C168.454 45.6431 166.868 48.3975 162.861 48.3975H152.094V34.1968H158.575C161.189 34.1968 161.781 36.4007 161.781 37.96V39.4687H164.621V25.8812H161.781V27.0904C161.781 28.6409 161.189 30.8466 158.575 30.8466H152.094V18.017H162.373C167.513 18.017 167.635 22.3098 167.635 23.9021V24.6844H170.37V15.0813H141.537V18.017H142.181C144.673 18.017 145.962 18.3201 145.962 20.5676V45.4026C145.962 48.0142 144.237 48.3975 142.634 48.3975H141.711V51.3279H171.05V41.4427H168.454ZM198.089 15.0817V18.0173H198.907C201.765 18.0173 202.793 18.9895 202.793 21.4512V41.558L184.656 15.0817H175.144V18.0173H176.032C177.792 18.0173 179.168 18.7334 179.168 21.5226V45.2375C179.168 47.64 177.443 48.3979 176.119 48.3979H174.9V51.3283H187.252V48.3979H186.085C184.761 48.3979 182.775 48.0599 182.775 45.2375V23.0854L202.148 51.3283H206.382V21.4512C206.382 18.9895 207.392 18.0173 210.249 18.0173H210.998V15.0817L198.089 15.0817ZM20.1573 49.3899C12.9446 49.3899 7.23016 42.5168 7.23016 33.2152C7.23016 23.1331 11.3418 16.6086 19.4604 16.6086C26.1853 16.6086 28.8509 20.0634 29.8962 24.3718H32.4572C32.1437 21.8143 31.6907 17.3612 31.7255 16.3716C29.4782 15.8978 25.2968 13.7444 19.0422 13.7444C7.97935 13.7444 0 21.3125 0 33.2153C0 44.8496 9.21624 52.2558 18.9377 52.2558C23.4326 52.2558 27.8927 51.2052 31.6558 48.3986C31.83 47.4665 32.4573 44.7451 33.1019 42.5517H30.297C28.2063 47.517 24.3386 49.3899 20.1573 49.3899Z" fill="black"/>
</g>
<defs>
<clipPath id="clip0_17_1864">
<rect width="210.998" height="66" fill="white"/>
</clipPath>
</defs>
</svg>
