<svg width="229" height="66" viewBox="0 0 229 66" fill="none" xmlns="http://www.w3.org/2000/svg">
<g clip-path="url(#clip0_17_1876)">
<path fill-rule="evenodd" clip-rule="evenodd" d="M0 33V44.5859H5.53678C9.91663 44.5859 11.3545 44.5364 12.3627 44.3215C16.9244 43.3959 19.9489 39.6937 20.4778 34.3883C21.0233 29.1491 18.9077 24.6866 14.9906 22.7694C12.5776 21.5959 12.3462 21.5628 5.83428 21.4802L0 21.4141V33ZM11.6686 25.8105C13.2883 26.3228 14.2799 27.298 14.9245 29.0168C15.2386 29.8267 15.2716 30.3225 15.2881 32.686C15.2881 35.066 15.2386 35.5618 14.908 36.6031C14.2799 38.6029 13.0238 39.8921 11.2388 40.3714C10.6273 40.5366 9.47038 40.6193 7.65233 40.6193H4.95831V33V25.3642L7.90025 25.4634C9.88357 25.513 11.0901 25.6287 11.6686 25.8105ZM31.1234 21.8934C30.925 22.4553 23.0909 43.4951 22.843 44.1232L22.6612 44.5859H25.3552H28.0327L28.8756 42.2225L29.7185 39.8755H34.2306H38.7426L39.5029 42.1894L40.2632 44.5033L42.9572 44.5529C44.8744 44.5859 45.6347 44.5364 45.6347 44.4041C45.6347 44.2719 38.1972 24.0916 37.2882 21.7281C37.189 21.4802 36.875 21.4471 34.2306 21.4471H31.2886L31.1234 21.8934ZM35.7015 31.1654C36.4453 33.4793 37.1064 35.4626 37.156 35.5949C37.2221 35.7932 36.7262 35.8263 34.1479 35.8263C31.7514 35.8263 31.0738 35.7767 31.1234 35.6114C31.1497 35.5586 31.354 34.9488 31.6614 34.0311C31.9316 33.2243 32.2816 32.1797 32.6604 31.0663C33.4538 28.6698 34.1645 26.7691 34.2306 26.8517C34.2967 26.9178 34.9578 28.8681 35.7015 31.1654ZM47.7332 44.5859V33.0165V21.4471H50.4272H53.1212L57.9143 28.8185L62.6908 36.1733L62.7404 28.8185L62.7734 21.4471H65.0873H67.4012V31.6613C67.4012 37.2972 67.4508 42.4539 67.5003 43.148L67.616 44.4207H65.203H62.7899L57.6333 36.7353C54.807 32.5042 52.4436 29.0499 52.394 29.0499C52.3444 29.0499 52.3444 32.5042 52.4105 36.7187L52.4932 44.3711L50.9065 44.4702C50.014 44.5364 48.9562 44.5859 48.5265 44.5859H47.7332ZM69.7148 33.0165V44.5859H72.2766H74.8384L74.8054 33.0496L74.7558 21.5298L72.2436 21.4802L69.7148 21.4306V33.0165ZM77.0485 40.9829C76.8997 36.289 76.8997 21.6951 77.0485 21.5628C77.098 21.4967 81.1143 21.4471 85.9734 21.4471H94.7827V23.5131V25.5791H88.3369H81.8911V28.0582V30.5374H87.841H93.791V32.5207V34.504H87.841H81.8911V37.479V40.454H88.6674H95.4438V42.52V44.5859H86.304H77.1476L77.0485 40.9829ZM97.5426 26.4385C97.5426 29.1986 97.5921 34.4049 97.6583 38.0079L97.7574 44.5859H106.253H114.748L114.698 42.4704L114.649 40.3714H108.699H102.749L102.699 30.901L102.666 21.4471H100.104H97.5426V26.4385ZM127.339 44.5859V33.0165V21.4471H129.984H132.628L132.645 22.8851C132.661 23.6949 132.711 25.7939 132.777 27.5624L132.876 30.7853L137.867 26.108L142.875 21.4471L146.396 21.4802L149.933 21.5298L144.759 26.0749C141.569 28.8681 139.636 30.6696 139.718 30.7853C141.834 33.4958 150.147 44.4372 150.147 44.5033C150.147 44.5529 148.643 44.5694 146.809 44.5529L143.47 44.5033L139.586 39.3632L135.702 34.2065L134.248 35.4461L132.793 36.7022V40.6358V44.5859H130.066H127.339ZM153.295 33.0165V44.5859H162.551H171.806V42.4208V40.2391L165.327 40.3053L158.832 40.3714L158.782 30.901L158.749 21.4471H156.022H153.295V33.0165ZM175.169 37.2642C175.169 33.2314 175.12 28.0252 175.053 25.6948L174.954 21.4471H184.722H194.507V23.4305V25.4138H187.482H180.458V27.8929V30.3721H186.904H193.35V32.4381V34.504H186.904H180.458V37.479V40.454H187.813H195.168V42.52V44.5859H185.168H175.169V37.2642ZM198.315 33.0165V44.5859H200.431C201.588 44.5859 202.811 44.5364 203.158 44.4868L203.77 44.3711V32.9174V21.4471H201.042H198.315V33.0165ZM223.197 36.3386L223.247 28.8846L223.28 21.4306H225.842H228.403V33V44.5859L225.809 44.5364L223.214 44.4868L217.677 36.9006L212.124 29.3143L212.074 36.9336L212.041 44.5694H209.479H206.917V33.0826V21.5959H209.859L212.785 21.6124L217.991 28.9838L223.197 36.3386Z" fill="black"/>
</g>
<defs>
<clipPath id="clip0_17_1876">
<rect width="228.403" height="66" fill="white"/>
</clipPath>
</defs>
</svg>
