<svg width="223" height="66" viewBox="0 0 223 66" fill="none" xmlns="http://www.w3.org/2000/svg">
<g clip-path="url(#clip0_17_1862)">
<path d="M15.2156 17.9665C18.2821 16.4195 21.6071 15.2394 25.0702 15.127C38.6446 15.1309 52.2189 15.1289 65.7952 15.1289C65.2644 17.2187 64.8066 19.3281 64.256 21.4119C52.5129 21.408 40.7678 21.4099 29.0227 21.4119C26.6469 21.5994 24.2257 22.0868 22.1359 23.2787C21.019 23.8943 20.0758 24.7626 19.1267 25.5993C17.1514 27.3338 15.922 29.7432 15.0419 32.1802C13.56 37.8554 12.2537 43.576 10.8151 49.2611C10.5783 50.2023 9.64298 50.8575 8.6879 50.8535C6.78367 50.8614 4.87943 50.8575 2.9752 50.8555C2.01026 50.8733 0.944675 50.5496 0.419777 49.6814C-0.114987 48.7599 -0.0597348 47.6252 0.151408 46.6169C0.707879 44.4364 1.21699 42.244 1.79319 40.0675C2.58449 36.9832 3.24554 33.8575 4.20851 30.8206C5.15175 28.1132 6.51727 25.5341 8.38204 23.3477C10.2468 21.0982 12.6266 19.3044 15.2156 17.9665Z" fill="#18214F"/>
<path d="M77.2129 29.9996C78.5251 29.526 79.9143 29.232 81.3153 29.2655C86.0157 29.2853 90.7161 29.232 95.4146 29.2932C95.0357 30.5324 94.8265 31.817 94.497 33.072C89.9683 33.0819 85.4376 33.0543 80.9108 33.0839C78.1265 33.2812 76.0822 35.7301 75.1804 38.1947C81.2108 38.2125 87.2392 38.1967 93.2696 38.2026C92.9716 39.4517 92.6579 40.6969 92.3658 41.9479C86.3413 41.942 80.3169 41.9598 74.2904 41.94C73.9076 43.2582 73.6432 44.6119 73.3334 45.9498C73.1992 46.4293 73.3886 47.1318 73.9944 47.0904C79.6972 47.118 85.4001 47.0963 91.1029 47.1022C90.8227 48.3533 90.4734 49.5905 90.2248 50.8495C82.7776 50.8692 75.3284 50.8495 67.8811 50.8594C67.3148 50.883 66.6794 50.7528 66.3222 50.2733C65.8842 49.6556 65.9512 48.8407 66.119 48.1421C66.8077 45.4387 67.4075 42.7156 68.11 40.0161C68.5343 38.3111 69.219 36.6654 70.2077 35.2091C71.8534 32.7287 74.4187 30.9586 77.2129 29.9996Z" fill="#18214F"/>
<path d="M100.582 29.2717C104.949 29.2618 109.314 29.2697 113.679 29.2677C115.662 29.2559 117.697 29.8183 119.248 31.0871C120.562 32.1014 121.46 33.6425 121.673 35.2922C122.028 37.3346 121.584 39.4243 120.947 41.368C120.053 44.0537 118.401 46.5262 116.069 48.166C114.417 49.35 112.513 50.165 110.538 50.6208C109.241 50.9365 107.901 50.8458 106.581 50.8576C103.613 50.8556 100.648 50.8596 97.6818 50.8556C97.076 50.8694 96.4011 50.5991 96.1663 50.0032C95.7913 49.1448 96.1031 48.2094 96.3123 47.353C97.7153 41.3207 99.1854 35.306 100.582 29.2717ZM102.088 47.0787C104.304 47.0847 106.518 47.0807 108.734 47.0807C109.926 47.0906 111.033 46.5183 111.978 45.8356C113.646 44.6082 114.68 42.698 115.203 40.7267C115.688 38.9132 115.941 36.9024 115.173 35.1284C114.699 33.9721 113.567 33.0782 112.294 33.0624C110.019 33.0269 107.744 33.0723 105.47 33.0407C104.334 37.7174 103.244 42.406 102.088 47.0787Z" fill="#18214F"/>
<path d="M178.202 31.7658C180.318 30.3884 182.761 29.3919 185.302 29.2735C189.263 29.2617 193.225 29.2676 197.185 29.2696C196.866 30.5325 196.595 31.8073 196.254 33.0642C192.669 33.0327 189.083 33.0623 185.498 33.0485C183.87 32.9833 182.342 33.8279 181.198 34.9251C179.475 36.6438 178.688 39.071 178.354 41.4271C178.157 43.1458 178.398 45.1468 179.779 46.3445C180.639 47.1062 181.849 47.1161 182.932 47.0826C186.253 47.0786 189.576 47.0865 192.897 47.0786C192.609 48.3396 192.311 49.5985 192.004 50.8575C188.258 50.8575 184.515 50.8555 180.77 50.8575C177.733 51.0292 174.333 49.7643 172.939 46.8971C171.868 44.7087 172.069 42.1513 172.697 39.8682C173.498 36.6339 175.396 33.6148 178.202 31.7658Z" fill="#18214F"/>
<path d="M203.135 31.8073C205.228 30.4299 207.644 29.4314 210.164 29.2775C214.168 29.2519 218.173 29.2775 222.179 29.2657C221.877 30.5385 221.567 31.8112 221.258 33.082C217.759 33.0584 214.258 33.0801 210.758 33.0702C209.734 33.0209 208.684 33.1787 207.784 33.6898C206.043 34.6508 204.879 36.3656 204.11 38.1534C209.414 38.2659 214.728 38.1692 220.038 38.2028C219.72 39.4499 219.466 40.7128 219.142 41.956C213.86 41.9343 208.577 41.9579 203.295 41.9441C203.212 43.434 203.518 45.0758 204.621 46.1611C205.23 46.8044 206.126 47.1023 206.999 47.0984C210.616 47.1083 214.231 47.1004 217.848 47.1023C217.641 48.3712 217.281 49.6084 216.993 50.8595C213.927 50.8536 210.86 50.8595 207.796 50.8575C205.972 50.82 204.1 51.0233 202.338 50.4451C200.307 49.8511 198.466 48.3948 197.7 46.388C196.945 44.4147 197.097 42.2243 197.596 40.2096C198.363 36.8747 200.252 33.7194 203.135 31.8073Z" fill="#18214F"/>
<path d="M127.94 29.3091C129.854 29.3012 131.769 29.2815 133.683 29.2617C131.962 36.4623 130.231 43.6629 128.501 50.8634C127.242 50.8417 125.983 50.8753 124.726 50.8476C124.087 50.8417 123.439 50.4332 123.277 49.7959C123.147 49.1782 123.203 48.531 123.356 47.9232C124.915 41.727 126.37 35.5033 127.94 29.3091Z" fill="#18214F"/>
<path d="M137.463 36.2099C139.622 32.3422 143.873 29.8756 148.224 29.4415C152.61 29.3783 157.001 29.4395 161.39 29.4119C161.139 30.6945 160.804 31.9594 160.504 33.2322C156.409 33.2322 152.314 33.2243 148.22 33.2361C146.554 33.2519 145.1 34.2701 144.05 35.4896C143.304 36.3204 142.811 37.3327 142.361 38.345C148.003 38.3825 153.646 38.3351 159.288 38.3687C158.961 39.6099 158.69 40.8688 158.361 42.112C152.656 42.1021 146.949 42.0804 141.244 42.1219C140.483 45.0226 139.829 47.949 139.101 50.8577C137.738 50.8281 136.37 50.9169 135.013 50.8123C133.955 50.6505 133.592 49.4093 133.833 48.4976C134.239 46.7335 134.709 44.9832 135.115 43.221C135.727 40.8353 136.199 38.3568 137.463 36.2099Z" fill="#18214F"/>
<path d="M165.474 29.3091C167.392 29.2993 169.311 29.2854 171.229 29.2578C169.512 36.4623 167.767 43.659 166.053 50.8615C164.837 50.8477 163.62 50.8654 162.404 50.8556C161.855 50.8595 161.25 50.6444 160.977 50.1393C160.628 49.4881 160.721 48.7106 160.892 48.0219C162.414 41.7823 163.939 35.5447 165.474 29.3091Z" fill="#18214F"/>
<path d="M24.3321 35.7559C29.5634 31.9692 36.0378 30.1597 42.4411 29.9209C49.0102 29.9288 55.5793 29.9189 62.1485 29.9248C61.7005 32.0086 61.144 34.0668 60.631 36.1348C54.5651 36.1289 48.4972 36.1348 42.4312 36.1328C39.2029 36.0322 35.9115 36.7663 33.1252 38.4238C31.436 39.4322 29.9817 40.8411 28.9556 42.5224C28.6971 42.9605 28.4129 43.4558 28.5313 43.9846C28.703 44.5036 29.3266 44.6496 29.812 44.6555C39.3845 44.6792 48.9589 44.6338 58.5334 44.6772C57.9749 46.7078 57.5171 48.7718 56.9883 50.8043C56.6212 50.9109 56.2325 50.8418 55.8576 50.8596C42.8318 50.8537 29.8041 50.8576 16.7784 50.8576C16.1785 50.8714 15.4641 50.7609 15.1346 50.1946C14.7261 49.4605 15.1326 48.6396 15.3734 47.9213C17.0467 43.0887 20.1744 38.7514 24.3321 35.7559Z" fill="#18214F"/>
</g>
<defs>
<clipPath id="clip0_17_1862">
<rect width="222.179" height="66" fill="white"/>
</clipPath>
</defs>
</svg>
