<svg width="173" height="66" viewBox="0 0 173 66" fill="none" xmlns="http://www.w3.org/2000/svg">
<g clip-path="url(#clip0_17_1874)">
<path fill-rule="evenodd" clip-rule="evenodd" d="M168.967 38.6243C168.854 38.671 168.687 38.6955 168.464 38.6955H167.335V37.5106H168.493C168.709 37.5128 168.872 37.5373 168.976 37.5885C169.17 37.6821 169.264 37.8625 169.264 38.1276C169.261 38.377 169.163 38.5419 168.967 38.6243ZM170.157 40.796C170.137 40.7202 170.13 40.5866 170.13 40.3861V40.0899C170.128 39.7781 170.083 39.5509 169.992 39.4016C169.901 39.2479 169.747 39.1321 169.526 39.0519C169.791 38.9651 169.979 38.8247 170.092 38.6243C170.208 38.4216 170.264 38.2144 170.264 38.0051C170.259 37.8291 170.23 37.6754 170.172 37.5418C170.11 37.4037 170.03 37.2812 169.927 37.1698C169.803 37.0317 169.649 36.9292 169.469 36.8624C169.288 36.7911 169.032 36.7555 168.7 36.7488H166.364V41.1635H167.335V39.4328H168.364C168.662 39.4373 168.858 39.4818 168.961 39.5731C169.07 39.6689 169.125 39.8538 169.13 40.1367L169.137 40.5465C169.137 40.6779 169.152 40.8049 169.179 40.9274C169.195 40.9897 169.215 41.0677 169.244 41.1635H170.339V41.0521C170.241 40.9987 170.184 40.914 170.159 40.8004L170.157 40.796ZM168.181 42.3663C166.181 42.3663 164.562 40.865 164.562 39.0118C164.562 37.1586 166.183 35.6574 168.181 35.6574C170.179 35.6574 171.803 37.1609 171.803 39.0118C171.803 40.8628 170.181 42.3663 168.181 42.3663ZM168.181 35.0137C165.8 35.0137 163.869 36.8023 163.869 39.0096C163.869 41.2169 165.8 43.0078 168.181 43.0078C170.562 43.0078 172.493 41.2169 172.493 39.0096C172.493 36.8023 170.562 35.0137 168.181 35.0137ZM28.4526 5.20679H4.98935V29.8395H22.9955V34.5949H4.98935V64.9965H0V0.0615234H26.6084L28.4549 5.20679H28.4526ZM20.0465 41.8139H22.2249L22.2761 45.5358C22.3474 46.3065 22.6013 46.3132 23.0891 45.6851C23.1359 45.6205 23.1849 45.5559 23.2339 45.4913V45.4869H23.2361C25.4412 42.5578 28.1029 40.8873 31.4997 41.2526L30.5642 43.823C27.3724 44.3576 24.7285 45.9435 23.02 49.3202V65.9231H20.0465V41.8139ZM35.0724 56.0914C34.0077 52.7459 34.0701 49.3358 38.5873 45.7898C42.1845 42.9654 45.971 43.2416 49.9113 46.6473L35.0724 56.0914ZM53.974 46.879C48.1762 40.2258 41.7524 40.3594 36.3977 44.1749C30.5776 48.3223 30.6689 55.294 33.2081 59.4347C35.9567 63.9185 39.3401 65.5578 43.0843 65.6603C46.2851 65.7472 49.7353 64.8117 53.239 62.5843L53.1833 59.8736C45.9688 64.5288 40.0106 64.5711 35.803 58.1941L53.974 46.879ZM59.2797 56.0914C58.215 52.7459 58.2774 49.3358 62.7945 45.7898C66.3917 42.9654 70.1805 43.2416 74.1185 46.6473L59.2797 56.0914ZM78.1813 46.879C72.3834 40.2258 65.9596 40.3594 60.605 44.1749C54.7848 48.3223 54.8761 55.294 57.4154 59.4347C60.1639 63.9185 63.5473 65.5578 67.2916 65.6603C70.4923 65.7472 73.9426 64.8117 77.4463 62.5843L77.3906 59.8736C70.1761 64.5288 64.2178 64.5711 60.0103 58.1941L78.1813 46.879ZM81.685 32.4633H84.4736V65.7182H81.685V32.4633ZM101.355 41.6557C108.028 41.6557 113.439 47.0906 113.439 53.795C113.439 60.4994 108.028 65.9343 101.355 65.9343C94.6818 65.9343 89.2714 60.4994 89.2714 53.795C89.2714 47.0906 94.6818 41.6557 101.355 41.6557ZM101.355 44.2306C106.612 44.2306 110.873 48.5116 110.873 53.7928C110.873 59.0739 106.612 63.3549 101.355 63.3549C96.0984 63.3549 91.8352 59.0739 91.8352 53.7928C91.8352 48.5116 96.0962 44.2306 101.355 44.2306ZM128.54 41.6557C135.214 41.6557 140.624 47.0906 140.624 53.795C140.624 60.4994 135.214 65.9343 128.54 65.9343C121.867 65.9343 116.457 60.4994 116.457 53.795C116.457 47.0906 121.867 41.6557 128.54 41.6557ZM128.54 44.2306C133.797 44.2306 138.058 48.5116 138.058 53.7928C138.058 59.0739 133.797 63.3549 128.54 63.3549C123.284 63.3549 119.02 59.0739 119.02 53.7928C119.02 48.5116 123.281 44.2306 128.54 44.2306ZM145.263 32.1693H147.936V52.884H148.582L158.053 41.5978L160.178 42.9476L151.32 53.6213L161.051 64.139L159.265 65.7093L148.745 54.6013H147.934V65.9387H145.261V32.1693H145.263Z" fill="black"/>
</g>
<defs>
<clipPath id="clip0_17_1874">
<rect width="172.493" height="66" fill="white"/>
</clipPath>
</defs>
</svg>
