<svg width="210" height="66" viewBox="0 0 210 66" fill="none" xmlns="http://www.w3.org/2000/svg">
<g clip-path="url(#clip0_17_1858)">
<g clip-path="url(#clip1_17_1858)">
<path d="M14.9636 28.6597H28.408V46.2272L23.8869 50.644H4.6109L0 46.2272V19.6782L4.32211 15.2493H23.7024L28.2114 19.6782V26.8979H19.6206V24.0464H8.49376V42.0556H19.7128V37.4447H14.9636V28.6597ZM31.8152 37.3961H44.7694V28.8077H31.8176L31.8152 37.3961ZM56.8645 28.9024V24.0852H68.0884V26.8979H76.9292V19.6806L72.2625 15.2493H52.5424L48.1256 19.7728V32.8338L52.836 37.4884H67.8967V42.0993H56.7674V39.391H48.082V46.3364L52.6443 50.6488H72.3596L76.9705 46.4286V33.5667L72.5052 28.9097H56.8645V28.9024ZM101.301 28.8077H90.2377V15.2493H81.4843V50.7508H90.2377V37.5417H101.301V50.7508H110.038V15.2493H101.301V28.8077ZM138.31 15.2493L142.921 19.8141V46.2272L138.351 50.644H118.886L114.561 46.3753V19.8602L119.172 15.2493H138.315H138.31ZM134.184 23.9396H123.305V42.0532H134.184V23.9396ZM152.101 15.2493L147.491 19.6782V46.2297L151.813 50.6464H171.521L175.993 46.2272V37.3549H167.499V42.1065H156.377V24.1483H167.448V28.6548H176.03V19.6757L171.62 15.2493H152.101ZM209.648 15.2493H198.97L189.506 28.3539V15.2493H180.553V50.6464H189.491V37.93L198.817 50.6464H209.4L197.024 32.9842L209.648 15.2493Z" fill="#262626"/>
</g>
</g>
<defs>
<clipPath id="clip0_17_1858">
<rect width="209.648" height="66" fill="white"/>
</clipPath>
<clipPath id="clip1_17_1858">
<rect width="209.648" height="35.5015" fill="white" transform="translate(0 15.2493)"/>
</clipPath>
</defs>
</svg>
