<svg width="198" height="66" viewBox="0 0 198 66" fill="none" xmlns="http://www.w3.org/2000/svg">
<g clip-path="url(#clip0_17_1866)">
<path fill-rule="evenodd" clip-rule="evenodd" d="M73.0426 15.506H89.9308V18.9851H87.2708C86.5659 18.9868 85.8904 19.2676 85.392 19.7662C84.8937 20.2647 84.6131 20.9403 84.6118 21.6452L84.6107 44.3548C84.6118 45.0598 84.8933 45.7356 85.3917 46.2342C85.8901 46.7328 86.5658 47.0135 87.2708 47.0149H89.9308V50.4951H73.0426V47.0149H75.7027C76.4078 47.0135 77.0835 46.7328 77.5821 46.2342C78.0807 45.7357 78.3614 45.0599 78.3627 44.3548V21.6452C78.3614 20.9401 78.0807 20.2643 77.5821 19.7658C77.0835 19.2672 76.4078 18.9865 75.7027 18.9851H73.0426V15.506ZM56.6971 15.506C61.748 15.506 65.8806 19.495 65.8806 24.3696C65.8806 28.8126 62.4478 32.5187 58.0155 33.1404C60.5731 34.2931 62.2789 35.7983 63.0844 38.4573L63.4665 42.7894C64.3447 45.5519 66.5677 46.9927 69.7556 47.0138V50.4941H57.304V38.9049C57.2407 36.266 55.366 33.8086 52.1581 34.0619H45.9766V44.3538C45.9778 45.0587 46.2582 45.7345 46.7566 46.2331C47.255 46.7317 47.9307 47.0124 48.6356 47.0138H51.8034V50.4941H34.6619V47.0138H38.0841C38.7891 47.0124 39.4647 46.7317 39.9631 46.2331C40.4615 45.7345 40.742 45.0587 40.7431 44.3538V21.6452C40.7417 20.9403 40.4611 20.2647 39.9628 19.7662C39.4645 19.2676 38.789 18.9868 38.0841 18.9851H34.6619V15.506H56.6971ZM45.9766 29.9863H53.2865C56.2294 29.9863 58.6383 27.5786 58.6383 24.6346C58.6383 21.6916 56.2294 19.2839 53.2865 19.2839H45.9766V29.9863ZM93.3678 15.506H124.086V28.7967H121.092C121.092 23.3932 116.684 18.9862 111.281 18.9862H104.937V30.4033H108.908C109.689 30.4016 110.438 30.0905 110.99 29.5382C111.542 28.9858 111.853 28.2372 111.854 27.4561V23.4386H114.85V40.8461H111.854V36.8296C111.853 36.0485 111.542 35.2998 110.99 34.7472C110.438 34.1947 109.689 33.8834 108.908 33.8814H104.937V47.0138H111.281C116.684 47.0138 121.092 42.6079 121.092 37.2023V35.5714H124.086V50.4941H93.3678V47.0138H96.0278C96.7329 47.0127 97.4089 46.7321 97.9075 46.2335C98.4061 45.7349 98.6867 45.0589 98.6879 44.3538V21.6452C98.6865 20.9401 98.4058 20.2643 97.9072 19.7658C97.4086 19.2672 96.7329 18.9865 96.0278 18.9851H93.3678V15.506ZM148.894 15.506H164.248V18.9851H162.069C161.364 18.9863 160.688 19.2669 160.189 19.7655C159.691 20.2641 159.41 20.94 159.409 21.6452V50.4951H153.925L137.376 24.5533V44.3559H137.378C137.379 45.0608 137.659 45.7366 138.157 46.2352C138.655 46.7338 139.331 47.0145 140.036 47.0159H142.696V50.4962H127.245V47.0159H129.905C130.611 47.0148 131.287 46.7342 131.785 46.2356C132.284 45.737 132.564 45.061 132.565 44.3559V21.6452C132.564 20.94 132.284 20.2641 131.785 19.7655C131.287 19.2669 130.611 18.9863 129.905 18.9851H127.245V15.506H139.302L154.692 38.7339V21.6441C154.691 20.9391 154.41 20.2633 153.912 19.7647C153.413 19.2662 152.737 18.9855 152.032 18.9841H148.894V15.506ZM194.492 28.7967V29.7826H197.485V15.506H167.298V29.7826H170.294V28.7967C170.294 23.8471 173.993 19.7325 178.767 19.077V44.3548C178.766 45.0597 178.486 45.7355 177.988 46.2341C177.489 46.7327 176.814 47.0135 176.109 47.0149H172.043V50.4951H191.74V47.0149H187.676C186.971 47.0135 186.295 46.7328 185.797 46.2342C185.298 45.7357 185.017 45.0599 185.016 44.3548V18.9915C190.276 19.1709 194.492 23.5294 194.492 28.7967ZM17.3125 51.5359C26.8486 51.5359 34.6239 43.2085 34.6239 33C34.6239 22.7915 26.8475 14.4641 17.3125 14.4641C7.77748 14.4641 0 22.7915 0 33C0 43.2085 7.77748 51.5359 17.3125 51.5359ZM17.3125 47.0138C22.9419 47.0138 27.5347 40.7194 27.5347 33C27.5347 25.2816 22.9419 18.9851 17.3125 18.9851C11.6821 18.9851 7.0903 25.2806 7.0903 33C7.0903 40.7194 11.6821 47.0138 17.3125 47.0138Z" fill="black"/>
</g>
<defs>
<clipPath id="clip0_17_1866">
<rect width="197.485" height="66" fill="white"/>
</clipPath>
</defs>
</svg>
