<svg width="191" height="66" viewBox="0 0 191 66" fill="none" xmlns="http://www.w3.org/2000/svg">
<g clip-path="url(#clip0_17_1880)">
<path d="M0 50.1686V15.8315H14.1842C16.755 15.8315 18.9737 16.3345 20.8403 17.3405C22.7181 18.3353 24.1656 19.7268 25.1828 21.5152C26.1999 23.2924 26.7085 25.3603 26.7085 27.7187C26.7085 30.0883 26.1887 32.1617 25.1492 33.939C24.1209 35.705 22.6511 37.0742 20.7397 38.0467C18.8284 39.0191 16.5594 39.5053 13.9327 39.5053H5.18074V32.9665H12.3902C13.6421 32.9665 14.6871 32.7486 15.5255 32.3126C16.3749 31.8767 17.0176 31.2675 17.4536 30.4851C17.8895 29.6915 18.1074 28.7694 18.1074 27.7187C18.1074 26.6569 17.8895 25.7403 17.4536 24.9691C17.0176 24.1866 16.3749 23.5831 15.5255 23.1583C14.676 22.7336 13.6309 22.5212 12.3902 22.5212H8.29924V50.1686H0Z" fill="black"/>
<path d="M63.2084 33C63.2084 36.778 62.4818 39.9804 61.0288 42.6071C59.5757 45.2337 57.6085 47.2289 55.1271 48.5926C52.6569 49.9562 49.8849 50.638 46.8111 50.638C43.7261 50.638 40.9485 49.9506 38.4783 48.5758C36.0081 47.201 34.0465 45.2058 32.5934 42.5903C31.1515 39.9636 30.4306 36.7668 30.4306 33C30.4306 29.2221 31.1515 26.0197 32.5934 23.393C34.0465 20.7663 36.0081 18.7712 38.4783 17.4075C40.9485 16.0439 43.7261 15.3621 46.8111 15.3621C49.8849 15.3621 52.6569 16.0439 55.1271 17.4075C57.6085 18.7712 59.5757 20.7663 61.0288 23.393C62.4818 26.0197 63.2084 29.2221 63.2084 33ZM54.7247 33C54.7247 30.7646 54.4061 28.8756 53.769 27.3331C53.1431 25.7906 52.2377 24.6226 51.0529 23.829C49.8793 23.0354 48.4653 22.6386 46.8111 22.6386C45.168 22.6386 43.7541 23.0354 42.5692 23.829C41.3844 24.6226 40.4735 25.7906 39.8364 27.3331C39.2104 28.8756 38.8975 30.7646 38.8975 33C38.8975 35.2355 39.2104 37.1245 39.8364 38.667C40.4735 40.2095 41.3844 41.3775 42.5692 42.1711C43.7541 42.9647 45.168 43.3615 46.8111 43.3615C48.4653 43.3615 49.8793 42.9647 51.0529 42.1711C52.2377 41.3775 53.1431 40.2095 53.769 38.667C54.4061 37.1245 54.7247 35.2355 54.7247 33Z" fill="black"/>
<path d="M68.0538 50.1686V15.8315H82.238C84.8088 15.8315 87.0275 16.3345 88.8941 17.3405C90.7719 18.3353 92.2194 19.7268 93.2365 21.5152C94.2537 23.2924 94.7623 25.3603 94.7623 27.7187C94.7623 30.0883 94.2425 32.1617 93.203 33.939C92.1747 35.705 90.7049 37.0742 88.7935 38.0467C86.8822 39.0191 84.6132 39.5053 81.9865 39.5053H73.2345V32.9665H80.444C81.6958 32.9665 82.7409 32.7486 83.5792 32.3126C84.4287 31.8767 85.0714 31.2675 85.5074 30.4851C85.9433 29.6915 86.1612 28.7694 86.1612 27.7187C86.1612 26.6569 85.9433 25.7403 85.5074 24.9691C85.0714 24.1866 84.4287 23.5831 83.5792 23.1583C82.7298 22.7336 81.6847 22.5212 80.444 22.5212H76.353V50.1686H68.0538Z" fill="black"/>
<path d="M102.131 50.1686H93.2114L104.797 15.8315H115.846L127.431 50.1686H118.512L110.447 24.4828H110.179L102.131 50.1686ZM100.941 36.6551H119.585V42.9591H100.941V36.6551Z" fill="black"/>
<path d="M131.128 50.1686V15.8315H145.312C147.883 15.8315 150.102 16.2954 151.968 17.2231C153.846 18.1397 155.294 19.4586 156.311 21.1799C157.328 22.8901 157.837 24.9188 157.837 27.266C157.837 29.6468 157.317 31.6699 156.277 33.3354C155.238 34.9896 153.762 36.2527 151.851 37.1245C149.94 37.9852 147.676 38.4155 145.061 38.4155H136.091V31.8767H143.518C144.77 31.8767 145.815 31.7146 146.653 31.3905C147.503 31.0552 148.146 30.5522 148.582 29.8815C149.018 29.1997 149.235 28.3279 149.235 27.266C149.235 26.2042 149.018 25.3267 148.582 24.6337C148.146 23.9296 147.503 23.4042 146.653 23.0577C145.804 22.7 144.759 22.5212 143.518 22.5212H139.427V50.1686H131.128ZM150.459 34.4755L159.01 50.1686H149.956L141.573 34.4755H150.459Z" fill="black"/>
<path d="M161.265 22.5715V15.8315H190.287V22.5715H179.876V50.1686H171.694V22.5715H161.265Z" fill="black"/>
</g>
<defs>
<clipPath id="clip0_17_1880">
<rect width="190.287" height="66" fill="white"/>
</clipPath>
</defs>
</svg>
