<svg width="103" height="66" viewBox="0 0 103 66" fill="none" xmlns="http://www.w3.org/2000/svg">
<g clip-path="url(#clip0_17_1878)">
<path fill-rule="evenodd" clip-rule="evenodd" d="M56.4705 45.6726L46.7473 38.037C46.5669 38.145 46.4951 38.3248 46.5307 38.5057V46.4648C46.6387 47.2926 47.4314 48.0497 48.2236 48.2657H54.094C55.2101 48.2295 56.3987 47.2926 56.4705 45.6726ZM57.6952 46.6451L61.1528 49.3818V43.4759L57.7319 40.7753V37.3534H56.5434V39.8752L48.5476 33.5356V29.6459C48.7998 28.0972 50.1687 27.3407 51.6089 27.305C53.4821 27.2332 55.0665 27.9892 55.3181 30.0061V31.3388L56.8312 31.375C56.8312 27.8812 56.5785 25.1445 52.5096 25.1445H47.0713C45.3065 25.1445 43.5062 26.9454 43.1816 29.4299V33.103C43.254 34.0037 43.5418 34.9406 44.118 35.6961C42.5693 36.2004 41.5255 37.8933 41.4893 39.4053V47.1489C41.4893 48.3726 42.822 49.4542 44.0818 49.418H54.7052C56.1109 49.2733 57.2627 47.9049 57.6952 46.6451ZM29.3884 11.0267H6.62743C3.31399 11.0991 0.0367331 13.2602 0.000550541 17.7254V43.2955C-0.0350838 47.0048 1.65727 49.9224 5.61871 50.066H17.3956L17.8276 55H24.8864L24.4901 50.066H30.8286C35.1864 50.066 38.1391 47.7969 38.2115 43.2955V17.8334C38.0673 13.2234 35.5104 11.2071 30.9366 11.0267C30.4212 10.9911 29.9039 10.9911 29.3884 11.0267ZM31.009 44.8437L30.9728 16.2847C30.8648 13.7634 29.3522 13.656 27.8397 13.5836H10.1207C8.10379 13.7278 6.91525 15.06 6.95143 16.3571V44.8086C6.95143 46.7882 8.10379 47.5091 9.83233 47.6171H17.1796L16.2076 37.4975H23.2659L24.2385 47.6533H27.8759C29.7124 47.6171 30.8648 46.7882 31.009 44.8437ZM93.7418 11.0267H70.9813C67.6684 11.0991 64.3912 13.2596 64.3544 17.7254V43.2955C64.3194 47.0048 66.0117 49.9224 69.9726 50.066H81.7495L82.182 55H89.2403L88.844 50.066H95.1825C99.5392 50.066 102.494 47.7969 102.565 43.2955V17.8334C102.421 13.2234 99.8637 11.2071 95.2905 11.0267C94.7749 10.9911 94.2574 10.9911 93.7418 11.0267ZM95.3629 44.8437L95.3267 16.2847C95.2187 13.7634 93.7067 13.656 92.1936 13.5836H74.4751C72.4577 13.7278 71.2691 15.06 71.3059 16.3571V44.8086C71.3059 46.7882 72.4582 47.5091 74.1873 47.6171H81.5335L80.5615 37.4975H87.6209L88.5929 47.6533H92.2303C94.0663 47.6171 95.2187 46.7882 95.3629 44.8437Z" fill="black"/>
</g>
<defs>
<clipPath id="clip0_17_1878">
<rect width="102.565" height="66" fill="white"/>
</clipPath>
</defs>
</svg>
