<svg width="187" height="66" viewBox="0 0 187 66" fill="none" xmlns="http://www.w3.org/2000/svg">
<g clip-path="url(#clip0_17_1882)">
<path d="M1.41538 13.23C14.0889 13.2338 26.7643 13.2357 39.4377 13.23C39.4642 14.9364 39.4453 16.6429 39.4472 18.3493C36.1857 17.2861 32.8428 16.3932 29.4204 16.0488C28.098 15.958 26.6488 15.8824 25.4702 16.5975C24.7929 16.9664 24.6548 17.8764 24.9481 18.5366C25.2394 19.2234 25.8864 19.6604 26.5221 19.9971C27.714 20.6101 29.0458 20.8617 30.355 21.0925C33.3536 21.6071 36.4108 21.7357 39.4491 21.6487C39.451 31.999 39.451 42.3493 39.4491 52.6996C26.6545 52.7015 13.8618 52.7034 1.06728 52.6996C1.07296 49.981 1.06539 47.2643 1.06917 44.5476C1.04647 44.156 1.47214 43.9725 1.68781 43.7095C4.39883 41.0591 7.13822 38.4351 9.78302 35.7165C14.087 39.3734 18.9396 42.4836 24.3124 44.3017C26.5486 45.0471 28.9285 45.3044 31.2763 45.1663C32.3603 45.0641 33.5427 44.8238 34.3298 44.0103C34.9995 43.316 34.8065 42.1544 34.1462 41.5226C33.2192 40.6202 31.9328 40.238 30.7163 39.9013C27.258 39.0329 23.76 38.3329 20.3017 37.4627C16.0734 36.424 11.847 35.1622 8.01793 33.0452C6.59337 32.2393 5.20665 31.3425 3.99586 30.2358C1.8297 28.2002 0.603779 25.3283 0.183789 22.4187C-0.258904 19.3255 0.0778457 16.0734 1.41538 13.23Z" fill="#ED6D0F"/>
<path d="M42.1241 13.2339C46.5605 13.2339 50.9988 13.232 55.4352 13.2339C55.4409 15.5817 55.4295 17.9313 55.4409 20.2791C57.7565 17.9862 60.0494 15.6706 62.3594 13.3701C62.5334 13.1639 62.8342 13.2547 63.0688 13.2263C69.2495 13.2396 75.4301 13.232 81.6108 13.232C81.6203 16.1663 81.6127 19.1024 81.6146 22.0385C79.019 24.6417 76.4139 27.2392 73.8164 29.8405C76.4025 32.4418 78.9925 35.0412 81.5994 37.6198C81.6316 42.671 81.607 47.7204 81.6127 52.7716C76.639 52.7697 71.6635 52.7811 66.6898 52.7641C62.9458 49.0087 59.1962 45.2572 55.439 41.517C55.4333 45.2421 55.4352 48.969 55.439 52.6959C50.9988 52.7073 46.5605 52.7016 42.1204 52.6978C42.126 39.5438 42.1185 26.3879 42.1241 13.2339Z" fill="#FBC93F"/>
<path d="M84.3805 13.2357C88.0393 13.2281 91.7001 13.2375 95.3589 13.23C97.7067 15.5664 100.041 17.9123 102.385 20.2525C104.697 17.9255 106.931 15.5115 109.292 13.2432C114.151 13.2205 119.015 13.2357 123.875 13.2357C123.873 26.3916 123.875 39.5456 123.873 52.7015C117.047 52.7015 110.221 52.7015 103.395 52.7015C103.394 46.0062 103.397 39.311 103.394 32.6176C102.822 33.1663 102.289 33.7509 101.727 34.3052C100.359 32.9166 99.0064 31.5109 97.6253 30.1355C97.6215 37.6821 97.6291 45.2268 97.6215 52.7734C93.2079 52.7715 88.7961 52.7734 84.3824 52.7715C84.3786 39.5929 84.3824 26.4143 84.3805 13.2357Z" fill="#2139B0"/>
<path d="M126.569 13.2376C138.78 13.2357 150.992 13.2224 163.204 13.2433C163.195 16.4556 163.204 19.668 163.199 22.8803C157.548 22.8879 151.895 22.8728 146.242 22.8879C146.248 24.0514 146.24 25.2168 146.246 26.3802C151.897 26.3821 157.548 26.3784 163.199 26.3821C163.2 29.5983 163.202 32.8144 163.199 36.0287C157.548 36.0306 151.897 36.0287 146.246 36.0306C146.242 37.1732 146.244 38.3159 146.244 39.4567C151.897 39.4605 157.548 39.4567 163.2 39.4605C163.2 43.8723 163.2 48.286 163.2 52.6996C150.99 52.7015 138.78 52.7015 126.57 52.7015C126.569 39.5456 126.57 26.3916 126.569 13.2376Z" fill="#7E23B0"/>
<path d="M165.895 19.1856C167.902 17.2237 169.811 15.1427 171.867 13.247C176.703 13.2149 181.538 13.2433 186.374 13.2338C186.368 24.3579 186.393 35.4838 186.362 46.606C184.482 48.6908 182.41 50.6224 180.494 52.6845C175.628 52.7242 170.762 52.6902 165.898 52.7015C165.895 41.5302 165.898 30.3569 165.895 19.1856Z" fill="#C80F96"/>
</g>
<defs>
<clipPath id="clip0_17_1882">
<rect width="186.378" height="66" fill="white"/>
</clipPath>
</defs>
</svg>
