<svg width="236" height="66" viewBox="0 0 236 66" fill="none" xmlns="http://www.w3.org/2000/svg">
<g clip-path="url(#clip0_17_1872)">
<path d="M6.97505 19.5312C11.3811 15.9251 17.7051 14.845 23.0323 16.8714C26.8176 18.2291 29.9644 21.0655 32.0438 24.4723C32.0136 24.5429 31.9555 24.6843 31.9252 24.7549C31.1682 25.2268 30.3733 25.6407 29.5733 26.0369C28.3342 24.4016 26.9286 22.8673 25.2353 21.6913C23.7212 20.6592 21.985 19.9577 20.1984 19.564C18.119 19.3697 15.9563 19.3848 13.9854 20.1621C9.44054 21.7999 6.12966 25.9309 4.75434 30.4707C14.7728 30.5389 24.7962 30.4202 34.8147 30.5288C34.4185 33.3551 33.621 36.1184 32.5435 38.758C31.0496 42.2607 28.685 45.5085 25.3893 47.5096C22.2576 49.4527 18.341 49.8288 14.7904 49.0263C10.7679 48.1001 7.24507 45.728 4.28496 42.9244C3.20236 41.7837 2.01883 40.7238 1.15073 39.4015C2.21819 38.8892 3.15189 38.0842 4.25216 37.6704C6.57128 40.6633 9.44811 43.3281 12.9558 44.8498C16.6705 46.528 21.2734 46.6743 24.7836 44.4208C28.7456 41.9478 30.8048 37.4508 32.0766 33.1255C21.3844 33.0245 10.6922 33.1305 0 33.0725C0.262448 32.1438 0.305348 31.1723 0.522372 30.2335C1.41066 26.0949 3.60361 22.1481 6.97505 19.5312Z" fill="#010101"/>
<path d="M105.736 19.1147C107.49 18.075 109.183 16.9343 110.93 15.8845C110.942 26.231 110.922 36.5775 110.94 46.924C111.152 48.0369 109.766 48.2842 109.085 48.8141C107.361 47.0275 105.956 44.9279 104.033 43.3431C99.1977 38.8411 94.3071 34.3972 89.4543 29.9129C87.8973 28.6486 86.6128 27.0663 84.965 25.9156C84.9044 32.5701 84.9877 39.2272 84.9246 45.8818C83.0118 46.9593 81.2402 48.2691 79.3274 49.3466C79.3602 38.7301 79.287 28.111 79.3652 17.4945C79.9457 17.1513 80.5185 16.7955 81.0838 16.4296C82.6963 18.0775 84.0161 19.9903 85.717 21.5524C90.1079 25.6582 94.509 29.7564 98.8848 33.8798C101.035 35.7649 102.98 37.8822 105.224 39.6613C105.206 33.2414 105.224 26.8215 105.211 20.4017C105.211 19.9373 105.242 19.3241 105.736 19.1147Z" fill="#010101"/>
<path d="M172.786 20.3058C177.251 16.1142 184.102 14.6657 189.835 16.8939C193.391 18.1809 196.323 20.8155 198.441 23.9043C198.567 24.1592 198.897 24.4166 198.716 24.727C197.956 25.161 197.229 25.6859 196.397 25.961C195.882 25.6405 195.582 25.0778 195.173 24.6462C193.063 22.0571 190.07 20.1291 186.759 19.5588C185.505 19.4478 184.241 19.4351 182.987 19.5437C179.55 20.1266 176.463 22.1606 174.356 24.9112C173.039 26.5616 172.133 28.4972 171.429 30.4756C181.467 30.5059 191.506 30.4756 201.542 30.4907C200.949 34.3618 199.841 38.2052 197.838 41.5943C196.011 44.6452 193.331 47.3126 189.954 48.5719C187.446 49.5636 184.66 49.5687 182.028 49.1523C176.289 47.8855 171.441 44.0043 167.896 39.4443C168.925 38.8159 169.94 38.1623 171.02 37.6223C173.425 40.9155 176.65 43.704 180.486 45.1752C182.689 46.0433 185.094 46.2931 187.438 45.9979C190.323 45.4679 192.97 43.8201 194.746 41.4934C196.747 39.0985 197.891 36.1308 198.817 33.1884C198.009 33.0244 197.184 33.0925 196.371 33.0849C186.522 33.0976 176.67 33.0648 166.823 33.1026C167.232 28.3256 169.168 23.5485 172.786 20.3058Z" fill="#010101"/>
<path d="M65.2813 19.7658C67.2396 18.4409 69.1928 17.0883 71.247 15.9199C71.2848 23.9801 71.252 32.0403 71.2646 40.1004C71.2091 42.0965 71.3731 44.1154 71.1864 46.0964C69.266 47.4994 67.2598 48.7915 65.304 50.1466C65.2939 48.4281 65.3368 46.7096 65.2813 44.9936C62.2758 46.8787 58.8968 48.3524 55.3008 48.4609C49.6707 48.7032 44.3637 45.8869 40.3286 42.1445C40.3311 34.8843 40.3665 27.6216 40.3135 20.3614C42.7108 18.9709 45.2066 17.7621 47.6317 16.4171C47.6544 24.6438 47.5838 32.8756 47.6645 41.0998C49.3174 43.3432 51.6517 45.2384 54.4251 45.8491C58.329 46.75 62.1446 44.7791 65.2763 42.629C65.3293 35.0079 65.3167 27.3869 65.2813 19.7658Z" fill="#010101"/>
<path d="M129.475 16.3768C133.306 15.973 137.313 16.6165 140.657 18.5899C144.561 20.7475 147.337 24.6161 148.586 28.8556C149.093 30.3016 149.34 31.8309 149.227 33.3627C144.737 33.3627 140.248 33.34 135.759 33.3753C139.211 37.6401 142.714 41.8695 146.201 46.1091C146.443 46.3336 146.211 46.6314 146.067 46.8308C145.429 47.6989 144.74 48.5241 144.107 49.3947C141.336 46.0308 138.794 42.4827 136.069 39.081C134.638 37.1556 133.119 35.2957 131.691 33.3652C128.509 33.3551 125.329 33.3526 122.147 33.3677C122.079 37.6729 122.174 41.978 122.099 46.2832C120.607 47.2345 119.267 48.4156 117.708 49.2635C117.678 40.315 117.703 31.3666 117.693 22.4181C117.625 22.0143 118.016 21.7822 118.25 21.5323C121.342 18.711 125.314 16.8613 129.475 16.3768ZM122.106 23.1651C122.147 25.9006 122.116 28.6386 122.121 31.3741C130.136 31.4095 138.151 31.4069 146.168 31.3767C145.689 27.4122 143.43 23.6597 140.059 21.4894C134.585 18.0297 126.843 18.7666 122.106 23.1651Z" fill="#010101"/>
<path d="M212.514 17.3835C212.931 16.9949 213.385 16.4751 214.018 16.5785C221.238 16.5861 228.458 16.5457 235.675 16.6013C234.787 17.9463 233.722 19.1652 232.793 20.4825C232.485 20.8282 232.273 21.4237 231.711 21.348C225.576 21.348 219.439 21.3783 213.304 21.3304C213.029 24.0684 213.266 26.8443 213.183 29.5975C220.701 29.6732 228.221 29.5874 235.738 29.6404C234.971 30.6119 234.237 31.6163 233.429 32.5576C232.039 32.7721 230.588 32.5803 229.177 32.6459C223.863 32.6358 218.55 32.6661 213.238 32.6282C213.09 36.4943 213.276 40.3704 213.143 44.239C213.501 44.3929 213.879 44.4989 214.281 44.4661C218.571 44.451 222.863 44.4636 227.156 44.4611C230.005 44.5065 232.861 44.3677 235.705 44.5292C234.686 46.0635 233.639 47.5827 232.675 49.1523C232.488 49.4804 232.051 49.5132 231.718 49.5107C223.6 49.5056 215.479 49.5132 207.361 49.5082C207.328 40.5622 207.356 31.6163 207.346 22.6729C207.263 22.201 207.704 21.9537 207.979 21.6635C209.473 20.2175 211.053 18.8623 212.514 17.3835Z" fill="#010101"/>
<path d="M154.829 20.5455C156.747 19.4756 158.486 18.1053 160.434 17.0908C160.474 26.6676 160.477 36.247 160.434 45.8263C158.586 47.0704 156.681 48.2312 154.806 49.4324C154.786 39.8026 154.743 30.1728 154.829 20.5455Z" fill="#010101"/>
</g>
<defs>
<clipPath id="clip0_17_1872">
<rect width="235.738" height="66" fill="white"/>
</clipPath>
</defs>
</svg>
