<svg width="226" height="66" viewBox="0 0 226 66" fill="none" xmlns="http://www.w3.org/2000/svg">
<g clip-path="url(#clip0_17_1868)">
<path d="M0.0139001 8.41202C26.0894 8.31478 52.1649 8.34256 78.2404 8.39813C78.3191 12.4361 78.2589 16.4787 78.2774 20.5213C65.1633 20.5398 52.0445 20.5121 38.9303 20.5352C25.9551 20.5445 12.9799 20.5445 0.00463867 20.5352C0.0139001 16.4926 -0.00462274 12.4546 0.0139001 8.41202Z" fill="#001C4E"/>
<path d="M114.966 9.67153C118.236 9.00471 121.982 9.86139 124.177 12.5055C126.677 15.3534 126.877 19.8869 124.658 22.9524C121.528 27.4442 114.151 27.9119 110.456 23.8878C107.979 21.3039 107.553 17.1223 109.206 13.992C110.326 11.7646 112.545 10.1902 114.966 9.67153ZM115.416 11.9174C111.354 12.7324 109.4 17.9883 111.581 21.3965C113.619 24.8093 118.778 25.3326 121.69 22.7764C123.816 20.7806 124.404 17.2659 122.825 14.7699C121.408 12.2138 118.152 11.2136 115.416 11.9174Z" fill="#001C4E"/>
<path d="M84.5241 9.72237C89.1733 9.70848 93.8364 9.54178 98.481 9.80573C98.4718 10.4355 98.4718 11.0606 98.4718 11.6904C96.5269 11.8432 94.5727 11.7969 92.6232 11.7877C92.5121 16.6638 92.7066 21.5492 92.5213 26.4253C91.7758 26.4207 91.0302 26.4207 90.2847 26.4253C90.1273 21.5446 90.3079 16.6638 90.1921 11.783C88.3028 11.8016 86.4134 11.7969 84.5241 11.7599C84.5195 11.0792 84.5195 10.3985 84.5241 9.72237Z" fill="#001C4E"/>
<path d="M138.898 9.71307C139.639 9.70844 140.389 9.62508 141.125 9.77327C143.204 11.7598 144.584 14.404 146.738 16.2979C148.849 14.3438 150.359 11.8015 152.313 9.67603C153.045 9.69918 153.781 9.72233 154.517 9.75937C154.485 15.3116 154.531 20.8592 154.494 26.4068C153.739 26.4114 152.985 26.4207 152.234 26.4345C151.957 22.1419 152.17 17.8307 152.142 13.5334C150.178 15.5339 148.706 17.9511 146.738 19.9423C144.76 17.9465 143.265 15.5431 141.306 13.5334C141.255 17.8261 141.459 22.128 141.213 26.4206C140.449 26.416 139.69 26.416 138.935 26.4206C138.847 20.8499 138.907 15.2792 138.898 9.71307Z" fill="#001C4E"/>
<path d="M167.946 9.70852C168.775 9.7965 169.868 9.37048 170.493 10.1253C172.267 12.0933 173.735 14.3253 175.555 16.2517L175.856 16.2702C177.689 14.3716 179.12 12.1257 180.899 10.1762C181.496 9.35659 182.593 9.78724 183.441 9.69925C183.482 15.2746 183.617 20.8593 183.376 26.43C182.621 26.4207 181.866 26.4115 181.116 26.4115C181.014 22.1975 181.223 17.9743 181.014 13.7604C179.028 15.6266 177.606 17.9882 175.777 19.9979C173.786 18.0021 172.253 15.6219 170.378 13.5288C170.183 17.8261 170.378 22.1234 170.271 26.4207C169.516 26.4161 168.757 26.4161 168.002 26.4207C167.784 20.8546 167.9 15.2746 167.946 9.70852Z" fill="#001C4E"/>
<path d="M195.272 9.74087C196.18 9.73624 197.134 9.53249 198.018 9.83348C199.62 11.57 200.903 13.5705 202.445 15.3672C204.121 13.6353 205.33 11.5144 207.015 9.79181C207.914 9.57417 208.845 9.71771 209.761 9.73624C207.955 12.4128 205.719 14.7744 203.89 17.4325C203.436 20.3915 203.904 23.4385 203.649 26.4346C202.885 26.4207 202.121 26.416 201.361 26.4114C201.056 23.4385 201.51 20.4285 201.134 17.4741C199.333 14.7837 197.022 12.4684 195.272 9.74087Z" fill="#001C4E"/>
<path d="M86.0248 39.5764C86.7749 39.5857 87.5251 39.5903 88.2753 39.5949C88.3262 42.0122 88.2521 44.4294 88.3401 46.8466C91.438 46.8744 94.536 46.8605 97.6293 46.8559C97.6988 44.4294 97.62 42.0029 97.7127 39.5764C98.4721 39.5857 99.2315 39.5903 99.9956 39.5903C100.213 45.1472 100.097 50.7225 100.056 56.284C99.2593 56.2932 98.4628 56.2932 97.671 56.2932C97.6478 53.8899 97.6849 51.4912 97.6478 49.0925C94.5453 49.0092 91.438 49.0045 88.3308 49.0971C88.266 51.4773 88.2938 53.8621 88.3123 56.2516C87.5251 56.2794 86.7425 56.2979 85.9553 56.3118C85.909 50.7364 85.7701 45.1425 86.0248 39.5764Z" fill="#001C4E"/>
<path d="M109.84 39.6045C110.66 39.6091 111.479 39.6091 112.299 39.6137C112.262 45.1335 112.239 50.6533 112.313 56.1731C111.484 56.3213 110.651 56.326 109.822 56.1963C109.886 50.6672 109.854 45.1382 109.84 39.6045Z" fill="#001C4E"/>
<path d="M122.135 39.572C122.89 39.5813 123.64 39.5905 124.399 39.5905C124.52 44.4482 124.256 49.315 124.533 54.168C126.997 54.1495 129.47 54.0985 131.933 54.1865C131.933 54.8811 131.933 55.5757 131.933 56.275C128.646 56.3537 125.348 56.3491 122.061 56.275C122.019 50.7089 121.866 45.1289 122.135 39.572Z" fill="#001C4E"/>
<path d="M140.218 39.595C143.149 39.6088 146.08 39.6089 149.011 39.5903C149.025 40.3127 149.039 41.0351 149.058 41.7621C146.895 41.7853 144.728 41.7529 142.565 41.7945C142.524 43.3273 142.524 44.8647 142.57 46.4021C144.742 46.416 146.909 46.3836 149.076 46.4391C149.044 47.1569 149.016 47.8793 148.979 48.597C146.84 48.5415 144.7 48.5183 142.565 48.6063C142.514 51.1671 142.561 53.7232 142.538 56.284C141.746 56.2886 140.954 56.2933 140.167 56.2886C140.116 50.7272 140.019 45.1518 140.218 39.595Z" fill="#001C4E"/>
<path d="M157.805 39.5764C158.551 39.5857 159.305 39.5903 160.056 39.5903C160.116 45.1472 160.051 50.6994 160.093 56.2562C159.305 56.2794 158.518 56.2932 157.736 56.3071C157.694 50.7318 157.555 45.1472 157.805 39.5764Z" fill="#001C4E"/>
<path d="M172.846 41.0216C176.05 38.7386 180.5 39.0165 183.89 40.7345C184.427 41.3689 184.08 42.3645 184.223 43.1424C181.25 41.7347 177.453 40.5956 174.494 42.6516C170.91 44.8975 170.817 50.7553 174.267 53.1633C176.499 54.8396 179.491 54.5942 182.019 53.807C182.126 52.6261 182.13 51.4407 182.033 50.2598C180.963 50.2274 179.894 50.1626 178.833 50.0607C178.838 49.4726 178.842 48.8845 178.838 48.3011C180.723 47.9769 182.663 48.0186 184.557 48.2733C184.506 50.5562 184.52 52.8391 184.538 55.1221C181.834 56.4465 178.699 56.891 175.745 56.2659C173.207 55.6963 170.915 53.9227 169.938 51.487C168.326 47.8889 169.581 43.2536 172.846 41.0216Z" fill="#001C4E"/>
<path d="M194.077 39.5999C197.24 39.6137 200.398 39.5813 203.566 39.623C203.561 40.313 203.561 41.003 203.575 41.6976C201.195 41.7809 198.81 41.6374 196.435 41.8365C196.444 43.4943 196.448 45.1521 196.435 46.8099C198.717 46.8932 201 46.8376 203.283 46.8747C203.283 47.5461 203.283 48.2176 203.283 48.8937C201.01 49.0002 198.736 48.9539 196.462 48.9215C196.439 50.6672 196.439 52.4084 196.444 54.1542C198.875 54.1866 201.311 54.1171 203.746 54.2051C203.746 54.8904 203.746 55.5804 203.746 56.2704C200.519 56.3352 197.282 56.3954 194.054 56.238C194.073 50.695 194.031 45.1474 194.077 39.5999Z" fill="#001C4E"/>
<path d="M213.003 39.5954C215.823 39.7713 219.255 38.91 221.482 41.1513C223.575 43.3323 222.704 47.0971 220.07 48.4307C222.408 50.6489 223.946 53.5338 225.626 56.252C224.649 56.1455 223.274 56.7845 222.654 55.7473C221.121 53.7329 220.111 51.2694 218.115 49.6347C217.347 48.9448 216.277 49.0744 215.337 49.0837C215.337 51.4824 215.374 53.8857 215.309 56.289C214.527 56.2937 213.749 56.2937 212.971 56.2937C212.971 50.7276 212.911 45.1568 213.003 39.5954ZM215.342 41.6884C215.337 43.425 215.328 45.1615 215.342 46.898C216.458 46.8656 217.629 46.9999 218.704 46.6109C220.468 45.9302 220.704 43.1008 219.106 42.1191C217.953 41.4986 216.597 41.656 215.342 41.6884Z" fill="#001C4E"/>
<path d="M0.0184717 45.4577C12.9891 45.4346 25.9597 45.4438 38.9303 45.4577C52.0444 45.4855 65.1632 45.4484 78.2774 45.4762C78.2588 49.5188 78.319 53.5614 78.2403 57.604C55.6934 57.6967 33.1419 57.6179 10.595 57.6457C7.0664 57.6133 3.53781 57.7106 0.0138411 57.5902C0.00457969 53.5476 -5.11315e-05 49.5003 0.0184717 45.4577Z" fill="#001C4E"/>
<path d="M0.00463073 20.5352C12.9799 20.5444 25.9551 20.5444 38.9303 20.5352C38.9859 28.8426 38.9859 37.1501 38.9303 45.4576C25.9597 45.4437 12.9891 45.4344 0.0185227 45.4576C-9.14288e-08 37.1501 -0.00463067 28.8426 0.00463073 20.5352Z" fill="#FEFEFE"/>
<path d="M38.9303 20.5351C52.0444 20.512 65.1632 20.5398 78.2774 20.5212C78.333 28.838 78.333 37.1547 78.2774 45.4761C65.1632 45.4483 52.0444 45.4854 38.9303 45.4576C38.9859 37.1501 38.9859 28.8426 38.9303 20.5351Z" fill="#CE0019"/>
</g>
<defs>
<clipPath id="clip0_17_1868">
<rect width="225.626" height="66" fill="white"/>
</clipPath>
</defs>
</svg>
