<svg width="53" height="52" viewBox="0 0 53 52" fill="none" xmlns="http://www.w3.org/2000/svg">
<path fill-rule="evenodd" clip-rule="evenodd" d="M24.1449 0H28.7761C35.1136 0 38.8511 0.895148 42.1011 2.68545C45.4324 4.47574 48.0324 6.99844 49.7386 10.3349C51.5261 13.6714 52.4198 17.3333 52.4198 23.6807V28.3192C52.4198 34.6667 51.5261 38.41 49.7386 41.6651C47.9511 45.0016 45.4324 47.6056 42.1011 49.3146C38.7698 51.1048 35.1136 52 28.7761 52H24.1449C17.8074 52 14.0698 51.1048 10.8198 49.3146C7.4886 47.5243 4.8886 45.0016 3.18235 41.6651C1.39485 38.3286 0.501099 34.6667 0.501099 28.3192V23.6807C0.501099 17.3333 1.39485 13.59 3.18235 10.3349C4.96985 6.99844 7.4886 4.39437 10.8198 2.68545C14.0698 0.895148 17.8074 0 24.1449 0Z" fill="#0068FF"/>
<path opacity="0.12" fill-rule="evenodd" clip-rule="evenodd" d="M52.5011 27.5869V28.3193C52.5011 34.6667 51.6073 38.4101 49.8198 41.6652C48.0323 45.0016 45.5136 47.6057 42.1823 49.3146C38.8511 51.1049 35.1948 52.0001 28.8573 52.0001H24.2261C19.0261 52.0001 15.6136 51.349 12.6886 50.2098L7.97607 45.3271L52.5011 27.5869Z" fill="url(#paint0_linear_26_1678)"/>
<path fill-rule="evenodd" clip-rule="evenodd" d="M8.38234 45.5712C10.7386 45.8154 13.7448 45.1644 15.8573 44.1064C24.5511 48.9077 37.7136 49.0705 46.4073 44.3506C47.4636 43.7809 48.3573 42.8858 48.9261 41.8279C50.6323 38.5728 51.6073 34.9108 51.6073 28.7262V24.1691C51.6073 17.903 50.8761 14.1597 49.1698 10.986C47.4636 7.73087 44.9448 5.20817 41.6948 3.49925C38.4448 1.79033 34.6261 0.976562 28.3698 0.976562H23.8198C18.8636 0.976562 15.5323 1.5462 12.7698 2.68548C12.3636 2.84824 12.0386 3.09237 11.7136 3.3365C3.26359 11.5556 2.61358 29.2958 9.76358 38.8983C9.76358 38.8983 9.76358 38.8983 9.76358 38.9797C10.9011 40.6072 9.76359 43.4554 8.13859 45.1644C7.89484 45.3271 7.97609 45.4899 8.38234 45.5712Z" fill="white"/>
<path d="M21.8699 17.6587H11.7136V19.8559H18.7824L11.7949 28.4819C11.5511 28.8074 11.3886 29.1329 11.3886 29.7839V30.3535H20.9761C21.4636 30.3535 21.8699 29.9466 21.8699 29.4584V28.3191H14.4761L21.0574 20.1C21.1386 20.0186 21.3011 19.7745 21.3824 19.6931V19.6117C21.7886 19.0421 21.8699 18.5538 21.8699 17.9842V17.6587Z" fill="#0068FF"/>
<path d="M34.7886 30.2722H36.2511V17.6587H34.0574V29.6211C34.0574 29.9466 34.3824 30.2722 34.7886 30.2722Z" fill="#0068FF"/>
<path d="M27.3136 20.4253C24.5511 20.4253 22.3574 22.6225 22.3574 25.3893C22.3574 28.1561 24.5511 30.3533 27.3136 30.3533C30.0761 30.3533 32.2699 28.1561 32.2699 25.3893C32.3511 22.7039 30.0761 20.4253 27.3136 20.4253ZM27.3136 28.3189C25.6886 28.3189 24.3886 27.0168 24.3886 25.3893C24.3886 23.7618 25.6886 22.4597 27.3136 22.4597C28.9386 22.4597 30.2386 23.7618 30.2386 25.3893C30.2386 27.0168 28.9386 28.3189 27.3136 28.3189Z" fill="#0068FF"/>
<path d="M42.6699 20.3442C39.9074 20.3442 37.6324 22.6228 37.6324 25.3896C37.6324 28.1564 39.9074 30.435 42.6699 30.435C45.4324 30.435 47.7074 28.1564 47.7074 25.3896C47.7074 22.6228 45.4324 20.3442 42.6699 20.3442ZM42.6699 28.3192C41.0449 28.3192 39.7449 27.0172 39.7449 25.3896C39.7449 23.7621 41.0449 22.46 42.6699 22.46C44.2949 22.46 45.5949 23.7621 45.5949 25.3896C45.5949 27.0172 44.2949 28.3192 42.6699 28.3192Z" fill="#0068FF"/>
<path d="M31.1324 30.2721H32.2699V20.751H30.2386V29.4583C30.2386 29.9466 30.6449 30.2721 31.1324 30.2721Z" fill="#0068FF"/>
<defs>
<linearGradient id="paint0_linear_26_1678" x1="7.92505" y1="39.8101" x2="52.4816" y2="39.8101" gradientUnits="userSpaceOnUse">
<stop/>
<stop offset="0.9379" stop-opacity="0.062076"/>
<stop offset="1" stop-opacity="0"/>
</linearGradient>
</defs>
</svg>
