<svg width="60" height="61" viewBox="0 0 60 61" fill="none" xmlns="http://www.w3.org/2000/svg">
<path d="M35.2836 31.1217L44.707 22.7727V38.4635L35.2836 31.1217ZM15.293 22.7727V38.4636L24.7164 31.1217L15.293 22.7727ZM30.9326 34.9768C30.6664 35.2126 30.3332 35.3305 30 35.3305C29.6668 35.3305 29.3336 35.2126 29.0674 34.9768L26.8576 33.0189L17.9467 39.9616H42.0534L33.1424 33.0189L30.9326 34.9768ZM27.8288 30.1216L30 32.0454L42.4232 21.0385H17.5768L27.8275 30.1205C27.8279 30.1209 27.8284 30.1212 27.8288 30.1216V30.1216ZM60 30.5C60 47.0421 46.5421 60.5 30 60.5C13.4579 60.5 0 47.0421 0 30.5C0 13.958 13.4579 0.5 30 0.5C46.5421 0.5 60 13.958 60 30.5ZM47.5195 21.8894C47.5195 19.8695 45.9244 18.226 43.9637 18.226H16.0363C14.0756 18.226 12.4805 19.8693 12.4805 21.8894V39.1106C12.4805 40.16 12.9116 41.107 13.6002 41.7754L13.6016 41.7768C14.2384 42.3944 15.0949 42.774 16.0363 42.774H43.9636C45.9243 42.774 47.5194 41.1307 47.5194 39.1106V21.8894H47.5195Z" fill="white"/>
</svg>
