<svg width="1920" height="449" viewBox="0 0 1920 449" fill="none" xmlns="http://www.w3.org/2000/svg">
<mask id="mask0_2_302" style="mask-type:alpha" maskUnits="userSpaceOnUse" x="0" y="0" width="1920" height="449">
<path d="M0 216.125C0 201.287 8.21431 187.668 21.3392 180.745L193.847 89.7591C198.244 87.44 203.034 85.9609 207.973 85.3974L951.985 0.515077C954.985 0.172794 958.015 0.171338 961.015 0.510741L1711.53 85.4047C1716.47 85.9633 1721.26 87.4375 1725.66 89.7516L1898.62 180.754C1911.77 187.67 1920 201.3 1920 216.153V449H0V216.125Z" fill="url(#paint0_linear_2_302)"/>
</mask>
<g mask="url(#mask0_2_302)">
<rect y="-146.5" width="1920" height="683" fill="url(#paint1_linear_2_302)"/>
<path opacity="0.2" d="M-69.9707 219.919C-135.347 130.227 -82.7617 -17.8362 -45.81 -69.0889C5.35361 -141.697 151.74 -137.426 279.649 -126.036C407.559 -114.647 502.78 -80.4784 499.938 3.51906C497.096 87.5165 413.244 201.411 356.395 219.919C299.546 238.427 271.122 202.835 212.852 208.53C154.582 214.225 144.633 305.34 89.2059 311.035C33.7784 316.73 -4.5947 309.611 -69.9707 219.919Z" fill="white"/>
<path opacity="0.2" d="M1763.4 118.552C1850.79 86.0019 1932.57 126.215 1974.31 158.465C1978.78 161.919 1981.7 166.932 1982.83 172.467L2044.01 472.453C2047.13 487.743 2035.74 502.12 2020.14 502.431C1657.04 509.664 981.724 518.868 964.663 501.826C942.737 479.924 956.833 298.456 1072.73 265.604C1188.62 232.752 1245 292.198 1439.2 265.604C1633.41 239.009 1670.99 152.968 1763.4 118.552Z" fill="white"/>
</g>
<defs>
<linearGradient id="paint0_linear_2_302" x1="2303" y1="367.36" x2="1486.67" y2="-1087.67" gradientUnits="userSpaceOnUse">
<stop stop-color="#EE3227"/>
<stop offset="1" stop-color="#F9EB1E"/>
</linearGradient>
<linearGradient id="paint1_linear_2_302" x1="2303" y1="497.157" x2="524.557" y2="-1206.16" gradientUnits="userSpaceOnUse">
<stop stop-color="#EE3227"/>
<stop offset="1" stop-color="#F9EB1E"/>
</linearGradient>
</defs>
</svg>
