<svg width="32" height="32" viewBox="0 0 32 32" fill="none" xmlns="http://www.w3.org/2000/svg">
<path d="M29.2934 24.4401C29.2934 24.9201 29.1867 25.4134 28.96 25.8934C28.7334 26.3734 28.44 26.8267 28.0534 27.2534C27.4 27.9734 26.68 28.4934 25.8667 28.8267C25.0667 29.1601 24.2 29.3334 23.2667 29.3334C21.9067 29.3334 20.4534 29.0134 18.92 28.3601C17.3867 27.7067 15.8534 26.8267 14.3334 25.7201C12.8 24.6001 11.3467 23.3601 9.96002 21.9867C8.58669 20.6001 7.34669 19.1467 6.24002 17.6267C5.14669 16.1067 4.26669 14.5867 3.62669 13.0801C2.98669 11.5601 2.66669 10.1067 2.66669 8.72008C2.66669 7.81341 2.82669 6.94675 3.14669 6.14675C3.46669 5.33341 3.97335 4.58675 4.68002 3.92008C5.53335 3.08008 6.46669 2.66675 7.45335 2.66675C7.82669 2.66675 8.20002 2.74675 8.53335 2.90675C8.88002 3.06675 9.18669 3.30675 9.42669 3.65341L12.52 8.01342C12.76 8.34675 12.9334 8.65341 13.0534 8.94675C13.1734 9.22675 13.24 9.50675 13.24 9.76008C13.24 10.0801 13.1467 10.4001 12.96 10.7067C12.7867 11.0134 12.5334 11.3334 12.2134 11.6534L11.2 12.7067C11.0534 12.8534 10.9867 13.0267 10.9867 13.2401C10.9867 13.3467 11 13.4401 11.0267 13.5467C11.0667 13.6534 11.1067 13.7334 11.1334 13.8134C11.3734 14.2534 11.7867 14.8267 12.3734 15.5201C12.9734 16.2134 13.6134 16.9201 14.3067 17.6267C15.0267 18.3334 15.72 18.9867 16.4267 19.5867C17.12 20.1734 17.6934 20.5734 18.1467 20.8134C18.2134 20.8401 18.2934 20.8801 18.3867 20.9201C18.4934 20.9601 18.6 20.9734 18.72 20.9734C18.9467 20.9734 19.12 20.8934 19.2667 20.7467L20.28 19.7467C20.6134 19.4134 20.9334 19.1601 21.24 19.0001C21.5467 18.8134 21.8534 18.7201 22.1867 18.7201C22.44 18.7201 22.7067 18.7734 23 18.8934C23.2934 19.0134 23.6 19.1867 23.9334 19.4134L28.3467 22.5467C28.6934 22.7867 28.9334 23.0667 29.08 23.4001C29.2134 23.7334 29.2934 24.0667 29.2934 24.4401Z" stroke="#262626" stroke-width="1.5" stroke-miterlimit="10"/>
<path d="M24.6667 12.0002C24.6667 11.2002 24.04 9.9735 23.1067 8.9735C22.2533 8.0535 21.12 7.3335 20 7.3335" stroke="#262626" stroke-width="1.5" stroke-linecap="round" stroke-linejoin="round"/>
<path d="M29.3333 12.0001C29.3333 6.84008 25.16 2.66675 20 2.66675" stroke="#262626" stroke-width="1.5" stroke-linecap="round" stroke-linejoin="round"/>
</svg>
