<svg xmlns="http://www.w3.org/2000/svg" viewBox="0 0 28.48 25" width="28.48" height="25" fill="#f5f5f5"><path d="M0,23.68c0.46-1.53,0.93-3.07,1.39-4.6c0.13-0.43,0.26-0.87,0.4-1.33c0.98,0.18,1.91,0.35,2.87,0.53&#xA;&#x9;&#x9;&#x9;&#x9;c0,2.21,0,4.4,0,6.66c-1.28,0-2.56,0.04-3.83-0.03c-0.28-0.01-0.55-0.39-0.82-0.6C0,24.1,0,23.89,0,23.68z"></path><path d="M2.16,16.39c0.29-1.01,0.54-2.05,0.91-3.03c0.11-0.28,0.6-0.56,0.93-0.57c1.58-0.06,3.16-0.04,4.75-0.01&#xA;&#x9;&#x9;&#x9;&#x9;c0.2,0,0.43,0.21,0.58,0.38c1.08,1.2,2.09,2.46,3.21,3.63c1.03,1.07,2.39,1.07,3.41,0c1.12-1.16,2.14-2.42,3.22-3.62&#xA;&#x9;&#x9;&#x9;&#x9;c0.18-0.2,0.5-0.39,0.76-0.39c1.45-0.04,2.91-0.02,4.37-0.02c0.82,0,1.07,0.2,1.29,1c0.2,0.74,0.69,1.58,0.5,2.21&#xA;&#x9;&#x9;&#x9;&#x9;c-0.18,0.6-1.08,1-1.66,1.48c-0.89,0.74-1.78,1.48-2.69,2.19c-0.2,0.16-0.54,0.27-0.78,0.23c-6.21-1.11-12.42-2.25-18.63-3.38&#xA;&#x9;&#x9;&#x9;&#x9;C2.28,16.47,2.25,16.44,2.16,16.39z"></path><path d="M6.09,18.53c4.63,0.84,9.22,1.68,13.93,2.53c-0.98,0.82-1.95,1.5-2.75,2.33c-1.19,1.23-2.53,1.71-4.26,1.58&#xA;&#x9;&#x9;&#x9;&#x9;c-2.06-0.15-4.13-0.04-6.2-0.04c-0.23,0-0.45,0-0.71,0C6.09,22.78,6.09,20.67,6.09,18.53z"></path><path d="M17.49,24.94c3.11-2.6,6.08-5.07,9.12-7.61c0.32,1.1,0.61,2.14,0.91,3.18c0.3,1.07,0.62,2.13,0.91,3.2&#xA;&#x9;&#x9;&#x9;&#x9;c0.18,0.66-0.2,1.22-0.87,1.22C24.27,24.95,20.99,24.94,17.49,24.94z"></path><path d="M14.24,0c-3.3,0-5.98,2.67-5.98,5.94c0,1.15,0.33,2.34,0.96,3.3l4.18,6.38c0.18,0.28,0.5,0.45,0.83,0.45&#xA;&#x9;&#x9;&#x9;c0.34,0,0.65-0.17,0.83-0.45l4.18-6.38c0.63-0.96,0.96-2.15,0.96-3.3C20.22,2.67,17.53,0,14.24,0L14.24,0z M14.24,8.98&#xA;&#x9;&#x9;&#x9;c-1.65,0-2.99-1.4-2.99-3.04c0-1.64,1.34-2.97,2.99-2.97c1.65,0,2.99,1.33,2.99,2.97C17.23,7.58,15.89,8.98,14.24,8.98L14.24,8.98&#xA;&#x9;&#x9;&#x9;z M14.24,8.98"></path><path d="M14.24,4.95c-0.55,0-1,0.44-1,0.99c0,0.55,0.45,0.99,1,0.99c0.55,0,1-0.44,1-0.99&#xA;&#x9;&#x9;&#x9;C15.23,5.4,14.79,4.95,14.24,4.95L14.24,4.95z M14.24,4.95"></path></svg>