<svg xmlns="http://www.w3.org/2000/svg" viewBox="0 0 25.08 25.03" width="25.08" height="25.08" fill="#f5f5f5"><path d="M25.08,10.77c0,0.59,0,1.18,0,1.76c-0.06,0.02-0.05,0.08-0.05,0.12c-0.34,3.13-1.76,5.69-4.2,7.64&#xA;&#x9;&#x9;c-3.46,2.76-7.38,3.5-11.66,2.49C9,22.75,8.87,22.76,8.73,22.84c-1.27,0.7-2.54,1.4-3.81,2.1c-0.25,0.14-0.25,0.13-0.25-0.16&#xA;&#x9;&#x9;c0-1.31,0-2.61,0-3.92c0-0.15-0.03-0.26-0.16-0.35c-0.45-0.33-0.86-0.7-1.25-1.1c-2.4-2.51-3.55-5.48-3.2-8.96&#xA;&#x9;&#x9;c0.32-3.08,1.77-5.59,4.16-7.53c2.87-2.33,6.18-3.23,9.83-2.83c2.78,0.3,5.22,1.37,7.29,3.26c1.95,1.79,3.18,3.98,3.6,6.61&#xA;&#x9;&#x9;C24.99,10.23,24.99,10.51,25.08,10.77z M4.47,15.51c0.12,0.04,0.2-0.05,0.29-0.1c1.87-1.02,3.74-2.04,5.6-3.07&#xA;&#x9;&#x9;c0.19-0.1,0.29-0.07,0.42,0.08c0.54,0.59,1.09,1.17,1.64,1.75c0.45,0.48,0.9,0.96,1.37,1.46c2.23-2.36,4.44-4.72,6.68-7.09&#xA;&#x9;&#x9;c-0.16-0.04-0.22,0.03-0.29,0.07c-1.81,1-3.63,2-5.43,3.01c-0.19,0.11-0.29,0.1-0.44-0.06c-0.94-1-1.89-1.98-2.84-2.97&#xA;&#x9;&#x9;c-0.23-0.24-0.23-0.24-0.46,0C8.81,10.9,6.64,13.2,4.47,15.51z"></path></svg>