<svg width="12" height="13" viewBox="0 0 12 13" fill="none" xmlns="http://www.w3.org/2000/svg">
	<path d="M10.0966 4.84297C10.068 4.77472 10.0197 4.71649 9.95798 4.67561C9.89625 4.63474 9.8238 4.61305 9.74977 4.61328H2.24977C2.17573 4.61305 2.10329 4.63474 2.04156 4.67561C1.97983 4.71649 1.93158 4.77472 1.90289 4.84297C1.87588 4.91224 1.86902 4.98774 1.88312 5.06074C1.89723 5.13374 1.93171 5.20125 1.98258 5.25547L5.73258 9.00547C5.80426 9.07478 5.90006 9.11352 5.99977 9.11352C6.09947 9.11352 6.19528 9.07478 6.26696 9.00547L10.017 5.25547C10.0678 5.20125 10.1023 5.13374 10.1164 5.06074C10.1305 4.98774 10.1237 4.91224 10.0966 4.84297V4.84297Z" fill="black"></path>
</svg>