<svg width="24" height="24" viewBox="0 0 24 24" fill="none" xmlns="http://www.w3.org/2000/svg">
<path d="M20.25 20.25V10.8281C20.2483 10.7243 20.2259 10.6219 20.184 10.5269C20.1422 10.4319 20.0817 10.3462 20.0063 10.275L12.5063 3.45933C12.368 3.33284 12.1874 3.2627 12 3.2627C11.8126 3.2627 11.632 3.33284 11.4938 3.45933L3.99376 10.275C3.91652 10.3448 3.85489 10.4302 3.81289 10.5255C3.77089 10.6208 3.74946 10.7239 3.75001 10.8281V20.25" stroke="black" stroke-linecap="round" stroke-linejoin="round"/>
<path d="M1.5 20.25H22.5" stroke="black" stroke-linecap="round" stroke-linejoin="round"/>
<path d="M14.25 20.25V15C14.25 14.8011 14.171 14.6103 14.0303 14.4697C13.8897 14.329 13.6989 14.25 13.5 14.25H10.5C10.3011 14.25 10.1103 14.329 9.96967 14.4697C9.82902 14.6103 9.75 14.8011 9.75 15V20.25" stroke="black" stroke-linecap="round" stroke-linejoin="round"/>
</svg>
