<svg width="24" height="25" viewBox="0 0 24 25" fill="none" xmlns="http://www.w3.org/2000/svg">
<path d="M5.48311 4.92834C5.67727 4.92834 5.83467 4.77093 5.83467 4.57677C5.83467 4.38262 5.67727 4.22521 5.48311 4.22521C5.28895 4.22521 5.13155 4.38262 5.13155 4.57677C5.13155 4.77093 5.28891 4.92834 5.48311 4.92834ZM2.67061 4.92834C2.86477 4.92834 3.02217 4.77093 3.02217 4.57677C3.02217 4.38262 2.86477 4.22521 2.67061 4.22521C2.47645 4.22521 2.31905 4.38262 2.31905 4.57677C2.31905 4.77093 2.47641 4.92834 2.67061 4.92834ZM4.07686 4.92834C4.27102 4.92834 4.42842 4.77093 4.42842 4.57677C4.42842 4.38262 4.27102 4.22521 4.07686 4.22521C3.8827 4.22521 3.7253 4.38262 3.7253 4.57677C3.7253 4.77093 3.88266 4.92834 4.07686 4.92834ZM3.99975 8.65269C4.00191 8.65274 4.00406 8.65274 4.00622 8.65274L7.18477 8.65354H7.18495C7.40456 8.65354 7.59098 8.51127 7.64897 8.29949C7.707 8.08762 7.61892 7.87016 7.42992 7.75837L6.9465 7.47234C7.7235 6.70223 8.16051 5.65148 8.15358 4.55057C8.13966 2.34895 6.33769 0.532117 4.13672 0.50043C1.85602 0.467664 0 2.31252 0 4.57687C0 6.74826 1.78913 8.60568 3.99975 8.65269ZM1.70859 2.17405C2.35687 1.53505 3.21375 1.19076 4.12664 1.20346C5.94788 1.22966 7.43892 2.73313 7.45045 4.55498C7.45669 5.5379 7.03519 6.47263 6.294 7.11941C6.17006 7.22751 6.10514 7.38974 6.12014 7.55338C6.13514 7.71693 6.22856 7.86449 6.36989 7.94807L6.37341 7.95013L4.00969 7.94957C2.18241 7.91451 0.703125 6.40916 0.703125 4.57687C0.703125 3.66651 1.06022 2.8132 1.70859 2.17405ZM23.6484 23.7969H23.2969V18.5614C23.2969 17.1898 22.4864 15.9442 21.228 15.3864L19.3753 14.5923C19.8261 14.4501 20.2334 14.1964 20.5648 13.8445C21.0648 13.3136 21.3516 12.5933 21.3516 11.8682C21.3516 11.2019 21.1188 10.573 20.6783 10.0494C20.1273 9.39515 19.8239 8.56368 19.8239 7.70802V6.02334C19.8239 4.5478 19.2493 3.16087 18.2059 2.11804C17.1626 1.0746 15.7755 0.500008 14.3002 0.500008C11.2546 0.500008 8.77688 2.97773 8.77688 6.02329V7.65313C8.77706 8.53851 8.42911 9.38362 7.8637 10.0649C7.15209 10.9222 7.00425 12.0814 7.47792 13.09C7.82948 13.8387 8.46361 14.3766 9.22275 14.6042L7.38291 15.4043C6.09211 15.9475 5.25802 17.2033 5.25802 18.6036V22.7422C5.25802 22.9364 5.41537 23.0938 5.60958 23.0938C5.80378 23.0938 5.96114 22.9364 5.96114 22.7422V18.6036C5.96114 17.487 6.62625 16.4855 7.65947 16.0507L9.96563 15.0479V17.1641H8.90611C8.60752 17.1641 8.32172 17.2914 8.12198 17.5134C7.9223 17.7354 7.82583 18.033 7.85733 18.3299L8.43684 23.7969H0.351562C0.157359 23.7969 0 23.9543 0 24.1484C0 24.3426 0.157359 24.5 0.351562 24.5H23.6484C23.8426 24.5 24 24.3426 24 24.1484C24 23.9543 23.8426 23.7969 23.6484 23.7969ZM20.1404 10.5021C20.4727 10.8973 20.6484 11.3696 20.6484 11.8681C20.6484 12.416 20.4314 12.9606 20.053 13.3624C19.6523 13.7878 19.1018 14.022 18.503 14.022H18.0449L17.443 13.7641C16.9173 13.5386 16.5577 13.0553 16.4842 12.4989C17.5689 11.9149 18.308 10.7686 18.308 9.45266V6.80971C18.4109 6.8167 18.5137 6.82049 18.6162 6.82049C18.7853 6.82049 18.9537 6.81088 19.1208 6.79195V7.70798C19.1208 8.7291 19.4829 9.72145 20.1404 10.5021ZM14.3856 16.0521C13.1279 16.0744 11.8797 15.915 10.6688 15.5792V14.7421L10.7704 14.6979C10.7712 14.6976 10.772 14.6972 10.7729 14.6969L11.4 14.4242C12.0982 14.1207 12.5916 13.499 12.7411 12.7725C13.0473 12.8616 13.3704 12.9102 13.7049 12.9102H14.8505C15.1862 12.9102 15.5106 12.8612 15.8177 12.7715C15.9722 13.4946 16.4675 14.1107 17.166 14.4104L17.8353 14.6972C17.8358 14.6974 17.8362 14.6976 17.8366 14.6977L17.8862 14.719V15.5101C16.7484 15.8491 15.5721 16.0314 14.3856 16.0521ZM17.8861 16.2421V17.1641H10.6688V16.3072C11.8085 16.6061 12.9787 16.7573 14.1568 16.7573C14.2371 16.7573 14.3175 16.7566 14.3979 16.7552C15.5787 16.7346 16.7498 16.562 17.8861 16.2421ZM19.1208 6.08301C18.1524 6.21384 17.0608 5.95443 16.3088 5.37173C16.1553 5.25285 15.9345 5.28079 15.8155 5.4343C15.6966 5.58777 15.7246 5.8086 15.8781 5.92752C16.3698 6.30843 16.9628 6.57674 17.6049 6.71202V8.62598C17.436 9.01101 17.2479 9.33121 16.8239 9.68099C16.6454 9.82827 16.45 9.95057 16.2408 10.0476C16.0699 9.71418 15.7229 9.48534 15.3232 9.48534H14.4994C13.9311 9.48534 13.4688 9.94766 13.4688 10.5159C13.4688 11.0841 13.9311 11.5464 14.4994 11.5464H15.3232C15.8015 11.5464 16.2046 11.219 16.3203 10.7766C16.7906 10.5974 17.5575 9.95807 17.5576 9.95784C17.3196 11.236 16.1966 12.2069 14.8505 12.2069H13.7048C12.1861 12.2069 10.9505 10.9713 10.9505 9.45252V6.73499C12.1445 6.54782 13.2726 6.14376 14.3071 5.53185C15.8823 4.60012 16.8927 3.38259 17.5024 2.42066C18.5457 3.34987 19.1392 4.68201 19.1208 6.08301ZM15.6506 10.5169C15.6501 10.697 15.5034 10.8434 15.3232 10.8434H14.4993C14.3188 10.8434 14.1719 10.6965 14.1719 10.516C14.1719 10.3355 14.3188 10.1886 14.4993 10.1886H15.3232C15.5034 10.1886 15.65 10.3349 15.6506 10.5149V10.5169ZM9.48 6.02329C9.48 3.36543 11.6423 1.20313 14.3002 1.20313C15.2534 1.20313 16.1642 1.47829 16.9426 1.99054C16.3815 2.89002 15.437 4.04671 13.9491 4.92684C12.9284 5.53059 11.8088 5.91604 10.6213 6.07251H10.5993C10.5992 6.07251 10.599 6.07251 10.5989 6.07251C10.5987 6.07251 10.5986 6.07251 10.5984 6.07251H9.47995V6.02329H9.48ZM8.1143 12.7911C7.75781 12.0318 7.86909 11.1592 8.40431 10.5144C9.07589 9.70532 9.48075 8.70557 9.48 7.65313V6.77563H10.2473V9.45266C10.2473 10.7693 10.9874 11.9162 12.0731 12.4999C12.0052 13.0605 11.6466 13.5502 11.1196 13.7793L10.5615 14.022H10.0519C9.21328 14.022 8.47087 13.5504 8.1143 12.7911ZM20.3527 18.2558L19.7654 23.7969H9.14391L8.55652 18.2558C8.54587 18.1554 8.57719 18.0587 8.64473 17.9837C8.71228 17.9086 8.80514 17.8672 8.90611 17.8672H20.0032C20.1041 17.8672 20.197 17.9086 20.2645 17.9837C20.3321 18.0587 20.3634 18.1554 20.3527 18.2558ZM22.5938 23.7969H20.4724L21.0519 18.33C21.0834 18.033 20.9869 17.7354 20.7873 17.5134C20.5875 17.2914 20.3018 17.1641 20.0032 17.1641H18.5892V15.0204L20.9471 16.031C21.9474 16.4744 22.5938 17.4676 22.5938 18.5614V23.7969ZM14.4546 19.4961C13.718 19.4961 13.1187 20.0954 13.1187 20.832C13.1187 21.5687 13.718 22.168 14.4546 22.168C15.1912 22.168 15.7905 21.5687 15.7905 20.832C15.7905 20.0954 15.1912 19.4961 14.4546 19.4961ZM14.4546 21.4649C14.1057 21.4649 13.8218 21.181 13.8218 20.832C13.8218 20.4831 14.1057 20.1992 14.4546 20.1992C14.8035 20.1992 15.0874 20.4831 15.0874 20.832C15.0874 21.181 14.8036 21.4649 14.4546 21.4649Z" fill="#2C3743"/>
</svg>
