<svg width="24" height="24" viewBox="0 0 24 24" fill="none" xmlns="http://www.w3.org/2000/svg">
<path d="M19.8623 2.98279C19.8623 2.29723 19.3065 1.74139 18.6209 1.74139H17.3795C17.3795 1.05584 16.8237 0.5 16.1381 0.5C15.4526 0.5 14.8967 1.05584 14.8967 1.74139H13.2415C13.2415 1.05584 12.6857 0.5 12.0001 0.5C11.3146 0.5 10.7588 1.05584 10.7588 1.74139H9.10356C9.10356 1.05584 8.54772 0.5 7.86217 0.5C7.17661 0.5 6.62077 1.05584 6.62077 1.74139H4.96558C4.96558 1.05584 4.40974 0.5 3.72418 0.5C3.03863 0.5 2.48279 1.05584 2.48279 1.74139H1.24139C0.555839 1.74139 0 2.29723 0 2.98279V20.3623C0 20.5908 0.18528 20.7761 0.413798 20.7761H1.65519V22.0175C1.65519 22.246 1.84047 22.4313 2.06899 22.4313H12.9655C12.971 22.4313 12.975 22.4285 12.9801 22.4285C15.1717 23.94 18.0293 24.0837 20.3616 22.7992C22.6938 21.515 24.1001 19.0231 23.9944 16.3629C23.8888 13.7025 22.2891 11.3303 19.8623 10.235V2.98279ZM15.7243 1.74139C15.7243 1.51288 15.9096 1.3276 16.1381 1.3276C16.3666 1.3276 16.5519 1.51288 16.5519 1.74139V2.98279H15.7243V1.74139ZM11.5863 1.74139C11.5863 1.51288 11.7716 1.3276 12.0001 1.3276C12.2287 1.3276 12.4139 1.51288 12.4139 1.74139V2.98279H11.5863V1.74139ZM7.44837 1.74139C7.44837 1.51288 7.63365 1.3276 7.86217 1.3276C8.09068 1.3276 8.27596 1.51288 8.27596 1.74139V2.98279H7.44837V1.74139ZM3.31039 1.74139C3.31039 1.51288 3.49567 1.3276 3.72418 1.3276C3.9527 1.3276 4.13798 1.51288 4.13798 1.74139V2.98279H3.31039V1.74139ZM0.827596 2.98279C0.827596 2.75427 1.01288 2.56899 1.24139 2.56899H2.48279V3.39659C2.48279 3.62511 2.66807 3.81039 2.89659 3.81039H4.55178C4.7803 3.81039 4.96558 3.62511 4.96558 3.39659V2.56899H6.62077V3.39659C6.62077 3.62511 6.80605 3.81039 7.03457 3.81039H8.68976C8.91828 3.81039 9.10356 3.62511 9.10356 3.39659V2.56899H10.7588V3.39659C10.7588 3.62511 10.944 3.81039 11.1726 3.81039H12.8277C13.0563 3.81039 13.2415 3.62511 13.2415 3.39659V2.56899H14.8967V3.39659C14.8967 3.62511 15.082 3.81039 15.3105 3.81039H16.9657C17.1942 3.81039 17.3795 3.62511 17.3795 3.39659V2.56899H18.6209C18.8494 2.56899 19.0347 2.75427 19.0347 2.98279V5.05178H0.827596V2.98279ZM2.48279 20.7761H11.2897C11.5009 21.0695 11.7345 21.3461 11.9882 21.6037H2.48279V20.7761ZM23.1727 16.6381C23.1727 20.0661 20.3937 22.8451 16.9657 22.8451C13.5377 22.8451 10.7588 20.0661 10.7588 16.6381C10.7588 13.2102 13.5377 10.4312 16.9657 10.4312C20.3921 10.435 23.1689 13.2118 23.1727 16.6381ZM16.9657 9.60356C14.494 9.60194 12.2032 10.8983 10.9321 13.018C9.66102 15.1375 9.59636 17.7692 10.762 19.9485H0.827596V5.87938H19.0347V9.91512C18.3645 9.70842 17.667 9.60336 16.9657 9.60356Z" fill="#2C3743"/>
<path d="M3.7243 7.53455C3.03875 7.53455 2.48291 8.09039 2.48291 8.77594C2.48291 9.4615 3.03875 10.0173 3.7243 10.0173C4.40986 10.0173 4.9657 9.4615 4.9657 8.77594C4.9657 8.09039 4.40986 7.53455 3.7243 7.53455ZM3.7243 9.18974C3.49579 9.18974 3.31051 9.00446 3.31051 8.77594C3.31051 8.54742 3.49579 8.36214 3.7243 8.36214C3.95282 8.36214 4.1381 8.54742 4.1381 8.77594C4.1381 9.00446 3.95282 9.18974 3.7243 9.18974Z" fill="#2C3743"/>
<path d="M7.862 7.53455C7.17644 7.53455 6.62061 8.09039 6.62061 8.77594C6.62061 9.4615 7.17644 10.0173 7.862 10.0173C8.54756 10.0173 9.10339 9.4615 9.10339 8.77594C9.10339 8.09039 8.54756 7.53455 7.862 7.53455ZM7.862 9.18974C7.63348 9.18974 7.4482 9.00446 7.4482 8.77594C7.4482 8.54742 7.63348 8.36214 7.862 8.36214C8.09052 8.36214 8.2758 8.54742 8.2758 8.77594C8.2758 9.00446 8.09052 9.18974 7.862 9.18974Z" fill="#2C3743"/>
<path d="M12.0002 7.53455C11.3146 7.53455 10.7588 8.09039 10.7588 8.77594C10.7588 9.4615 11.3146 10.0173 12.0002 10.0173C12.6857 10.0173 13.2416 9.4615 13.2416 8.77594C13.2416 8.09039 12.6857 7.53455 12.0002 7.53455ZM12.0002 9.18974C11.7717 9.18974 11.5864 9.00446 11.5864 8.77594C11.5864 8.54742 11.7717 8.36214 12.0002 8.36214C12.2287 8.36214 12.414 8.54742 12.414 8.77594C12.414 9.00446 12.2287 9.18974 12.0002 9.18974Z" fill="#2C3743"/>
<path d="M3.7243 10.845C3.03875 10.845 2.48291 11.4008 2.48291 12.0864C2.48291 12.7719 3.03875 13.3278 3.7243 13.3278C4.40986 13.3278 4.9657 12.7719 4.9657 12.0864C4.9657 11.4008 4.40986 10.845 3.7243 10.845ZM3.7243 12.5002C3.49579 12.5002 3.31051 12.3149 3.31051 12.0864C3.31051 11.8578 3.49579 11.6726 3.7243 11.6726C3.95282 11.6726 4.1381 11.8578 4.1381 12.0864C4.1381 12.3149 3.95282 12.5002 3.7243 12.5002Z" fill="#2C3743"/>
<path d="M7.862 10.845C7.17644 10.845 6.62061 11.4008 6.62061 12.0864C6.62061 12.7719 7.17644 13.3278 7.862 13.3278C8.54756 13.3278 9.10339 12.7719 9.10339 12.0864C9.10339 11.4008 8.54756 10.845 7.862 10.845ZM7.862 12.5002C7.63348 12.5002 7.4482 12.3149 7.4482 12.0864C7.4482 11.8578 7.63348 11.6726 7.862 11.6726C8.09052 11.6726 8.2758 11.8578 8.2758 12.0864C8.2758 12.3149 8.09052 12.5002 7.862 12.5002Z" fill="#2C3743"/>
<path d="M3.7243 14.1554C3.03875 14.1554 2.48291 14.7112 2.48291 15.3968C2.48291 16.0823 3.03875 16.6382 3.7243 16.6382C4.40986 16.6382 4.9657 16.0823 4.9657 15.3968C4.9657 14.7112 4.40986 14.1554 3.7243 14.1554ZM3.7243 15.8106C3.49579 15.8106 3.31051 15.6253 3.31051 15.3968C3.31051 15.1683 3.49579 14.983 3.7243 14.983C3.95282 14.983 4.1381 15.1683 4.1381 15.3968C4.1381 15.6253 3.95282 15.8106 3.7243 15.8106Z" fill="#2C3743"/>
<path d="M7.862 14.1554C7.17644 14.1554 6.62061 14.7112 6.62061 15.3968C6.62061 16.0823 7.17644 16.6382 7.862 16.6382C8.54756 16.6382 9.10339 16.0823 9.10339 15.3968C9.10339 14.7112 8.54756 14.1554 7.862 14.1554ZM7.862 15.8106C7.63348 15.8106 7.4482 15.6253 7.4482 15.3968C7.4482 15.1683 7.63348 14.983 7.862 14.983C8.09052 14.983 8.2758 15.1683 8.2758 15.3968C8.2758 15.6253 8.09052 15.8106 7.862 15.8106Z" fill="#2C3743"/>
<path d="M11.5864 16.6382C11.5864 19.6091 13.9949 22.0175 16.9658 22.0175C19.9367 22.0175 22.3452 19.6091 22.3452 16.6382C22.3452 13.6672 19.9367 11.2588 16.9658 11.2588C13.9963 11.2622 11.5899 13.6686 11.5864 16.6382ZM21.5176 16.6382H20.69C20.4615 16.6382 20.2762 16.8234 20.2762 17.052C20.2762 17.2805 20.4615 17.4658 20.69 17.4658H21.4386C21.0654 19.4687 19.4082 20.9806 17.3796 21.1689V20.3623C17.3796 20.1338 17.1943 19.9486 16.9658 19.9486C16.7373 19.9486 16.552 20.1338 16.552 20.3623V21.1689C14.5234 20.9806 12.8662 19.4687 12.493 17.4658H13.2416C13.4701 17.4658 13.6554 17.2805 13.6554 17.052C13.6554 16.8234 13.4701 16.6382 13.2416 16.6382H12.414C12.4171 14.2863 14.21 12.3232 16.552 12.1076V12.914C16.552 13.1425 16.7373 13.3278 16.9658 13.3278C17.1943 13.3278 17.3796 13.1425 17.3796 12.914V12.1076C19.7216 12.3232 21.5146 14.2863 21.5176 16.6382Z" fill="#2C3743"/>
<path d="M17.0546 16.4395L16.4824 15.581C16.3555 15.3909 16.0985 15.3396 15.9083 15.4663C15.7182 15.5931 15.6669 15.8501 15.7938 16.0403L16.6214 17.2817C16.6866 17.3791 16.7901 17.4443 16.9061 17.4613C16.9259 17.4643 16.9457 17.4659 16.9657 17.4657C17.0624 17.4659 17.1562 17.432 17.2305 17.3702L19.7133 15.3012C19.8891 15.1549 19.913 14.8938 19.7667 14.7183C19.6204 14.5425 19.3593 14.5184 19.1836 14.6647L17.0546 16.4395Z" fill="#2C3743"/>
</svg>
