<svg width="22" height="24" viewBox="0 0 22 24" fill="none" xmlns="http://www.w3.org/2000/svg">
<path d="M21.9681 14.9212V9.17965C21.9681 8.75267 21.7985 8.34317 21.4965 8.04125C21.1946 7.73932 20.7851 7.5697 20.3581 7.5697C19.9311 7.5697 19.5216 7.73932 19.2197 8.04125C18.9178 8.34317 18.7482 8.75267 18.7482 9.17965V11.9948C18.4218 11.8099 18.0375 11.7559 17.6728 11.8437C17.3082 11.9315 16.9905 12.1545 16.784 12.4676L15.1483 14.9258L14.8006 15.0482C13.9321 15.359 13.2038 15.9709 12.748 16.7729C12.2923 17.5749 12.1392 18.5137 12.3166 19.4189L12.4436 20.0482C12.3826 20.0886 12.3323 20.1432 12.297 20.2073C12.2618 20.2714 12.2426 20.3431 12.2412 20.4162V23.04C12.2412 23.162 12.2897 23.279 12.3759 23.3652C12.4622 23.4515 12.5792 23.4999 12.7012 23.4999H18.2588C18.3807 23.4999 18.4977 23.4515 18.584 23.3652C18.6703 23.279 18.7187 23.162 18.7187 23.04V20.4217C18.7178 20.3092 18.6752 20.201 18.5991 20.1181L21.8871 15.176C21.9387 15.101 21.9669 15.0123 21.9681 14.9212ZM17.8024 22.58H13.1649V20.8817H17.8024V22.58ZM17.6083 19.9553V19.9617H13.3765L13.232 19.2405C13.0966 18.5528 13.2124 17.8393 13.5585 17.2299C13.9046 16.6204 14.458 16.1554 15.118 15.9194L15.6102 15.7446C15.7041 15.7116 15.7848 15.6489 15.8401 15.5661L17.5596 12.9801C17.644 12.8567 17.7733 12.7711 17.9198 12.7416C18.0664 12.712 18.2187 12.7408 18.3443 12.8218C18.4079 12.8635 18.4624 12.9176 18.5046 12.9808C18.5468 13.044 18.5758 13.1151 18.5899 13.1898C18.6048 13.2638 18.6049 13.34 18.5902 13.4141C18.5755 13.4881 18.5464 13.5585 18.5044 13.6213L18.4519 13.7004L17.9312 14.4824L16.531 16.5864C16.4975 16.6366 16.4742 16.693 16.4625 16.7522C16.4507 16.8115 16.4508 16.8725 16.4626 16.9317C16.4744 16.991 16.4978 17.0473 16.5314 17.0975C16.565 17.1477 16.6082 17.1908 16.6585 17.2244C16.76 17.2921 16.8842 17.3167 17.0038 17.2928C17.0631 17.2809 17.1194 17.2576 17.1696 17.224C17.2198 17.1904 17.2629 17.1472 17.2965 17.0969L18.9681 14.5863L19.2716 14.1263L19.589 13.6489C19.6394 13.5734 19.6662 13.4848 19.6663 13.394V9.18333C19.6659 9.04748 19.7058 8.91454 19.7809 8.80138C19.8561 8.68821 19.9632 8.5999 20.0886 8.54763C20.1931 8.50361 20.3069 8.48613 20.4198 8.49676C20.5327 8.50739 20.6412 8.5458 20.7357 8.60856C20.8301 8.67132 20.9076 8.75648 20.9611 8.85645C21.0147 8.95642 21.0427 9.06809 21.0426 9.18149V14.7823L17.6083 19.9553Z" fill="#2C3743"/>
<path d="M9.64867 19.4218C9.82612 18.5166 9.67306 17.5777 9.21729 16.7758C8.76152 15.9738 8.03326 15.3618 7.16475 15.051L6.817 14.9287L5.18865 12.4705C4.98167 12.1566 4.66295 11.9333 4.29726 11.846C3.93157 11.7587 3.54636 11.8139 3.2199 12.0004V9.18527C3.2199 8.97385 3.17826 8.7645 3.09735 8.56917C3.01645 8.37384 2.89786 8.19636 2.74836 8.04686C2.59886 7.89736 2.42138 7.77878 2.22605 7.69787C2.03073 7.61696 1.82137 7.57532 1.60995 7.57532C1.39853 7.57532 1.18918 7.61696 0.99385 7.69787C0.798522 7.77878 0.621042 7.89736 0.471544 8.04686C0.322046 8.19636 0.203458 8.37384 0.12255 8.56917C0.0416427 8.7645 -3.15043e-09 8.97385 0 9.18527V14.9259C7.03949e-05 15.0166 0.0269566 15.1053 0.0772778 15.1807L3.36526 20.1228C3.28919 20.2057 3.24657 20.3139 3.24566 20.4264V23.0401C3.24566 23.1621 3.29413 23.2791 3.38039 23.3653C3.46665 23.4516 3.58365 23.5 3.70565 23.5H9.26412C9.38612 23.5 9.50312 23.4516 9.58938 23.3653C9.67565 23.2791 9.72411 23.1621 9.72411 23.0401V20.4218C9.7227 20.3487 9.70354 20.277 9.66828 20.2129C9.63303 20.1488 9.58273 20.0942 9.52172 20.0538L9.64867 19.4218ZM0.920893 14.7815V9.18159C0.9206 9.06787 0.948493 8.95586 1.00208 8.85556C1.05566 8.75526 1.13327 8.6698 1.22796 8.60683C1.32264 8.54385 1.43146 8.50533 1.54468 8.49469C1.6579 8.48406 1.77199 8.50165 1.87674 8.54589C2.00232 8.59828 2.10955 8.68672 2.18487 8.80003C2.26019 8.91334 2.30023 9.04645 2.29993 9.18251V13.3932C2.3 13.4839 2.32689 13.5726 2.37721 13.6481L4.6707 17.0943C4.70423 17.1445 4.74732 17.1877 4.79753 17.2213C4.84774 17.2549 4.90407 17.2783 4.96331 17.2901C5.02256 17.3019 5.08355 17.302 5.14281 17.2903C5.20208 17.2785 5.25844 17.2552 5.3087 17.2217C5.35896 17.1882 5.40212 17.1451 5.43573 17.0949C5.46933 17.0447 5.49271 16.9883 5.50455 16.9291C5.51638 16.8698 5.51642 16.8088 5.50468 16.7496C5.49294 16.6903 5.46964 16.6339 5.43612 16.5837L4.035 14.4843L3.46186 13.6232C3.419 13.5601 3.38919 13.4891 3.37417 13.4144C3.35915 13.3396 3.35923 13.2626 3.3744 13.1878C3.38957 13.1131 3.41953 13.0421 3.46251 12.9791C3.50549 12.9162 3.56063 12.8624 3.62469 12.821C3.75163 12.7376 3.90606 12.7069 4.05524 12.7354C4.12974 12.7498 4.20064 12.7788 4.26381 12.8208C4.32699 12.8629 4.38118 12.917 4.42323 12.9802L6.14358 15.5662C6.1989 15.649 6.27961 15.7117 6.37357 15.7447L6.86668 15.9195C7.52648 16.1556 8.07962 16.6207 8.42555 17.2302C8.77147 17.8396 8.8872 18.553 8.7517 19.2406L8.60727 19.9618H4.37539V19.9554L0.920893 14.7815ZM8.80414 22.5801H4.16656V20.8818H8.80414V22.5801Z" fill="#2C3743"/>
<path d="M16.964 7.60471V3.34156C16.9642 3.25194 16.9381 3.16423 16.8891 3.08922C16.8401 3.0142 16.7702 2.95514 16.6881 2.91929L11.1682 0.538402C11.1102 0.513074 11.0475 0.5 10.9842 0.5C10.9209 0.5 10.8583 0.513074 10.8002 0.538402L5.28039 2.91929C5.19826 2.95514 5.12838 3.0142 5.07935 3.08922C5.03032 3.16423 5.00427 3.25194 5.0044 3.34156V7.60471C5.00313 8.47218 5.19326 9.32925 5.56123 10.1148C5.9292 10.9004 6.46595 11.5951 7.13322 12.1494L10.6898 15.1135C10.7725 15.1824 10.8767 15.2201 10.9842 15.2201C11.0918 15.2201 11.196 15.1824 11.2786 15.1135L14.8352 12.1494C15.5025 11.5951 16.0392 10.9004 16.4072 10.1148C16.7752 9.32925 16.9653 8.47218 16.964 7.60471ZM14.2455 11.4484L10.9842 14.1623L7.722 11.4484C7.15807 10.9794 6.70457 10.3917 6.39384 9.72734C6.08311 9.06294 5.92281 8.33817 5.92437 7.60471V3.64883L10.9842 1.46205L16.0441 3.64423V7.60471C16.0457 8.33828 15.8854 9.06316 15.5745 9.72758C15.2635 10.392 14.8098 10.9796 14.2455 11.4484Z" fill="#2C3743"/>
<path d="M12.7328 5.23487L10.2949 7.67004L9.23692 6.61483C9.19415 6.57206 9.14338 6.53814 9.0875 6.51499C9.03162 6.49185 8.97173 6.47993 8.91125 6.47993C8.85077 6.47993 8.79088 6.49185 8.735 6.51499C8.67912 6.53814 8.62835 6.57206 8.58558 6.61483C8.54281 6.6576 8.50889 6.70837 8.48574 6.76425C8.4626 6.82013 8.45068 6.88002 8.45068 6.9405C8.45068 7.00098 8.4626 7.06088 8.48574 7.11675C8.50889 7.17263 8.54281 7.2234 8.58558 7.26617L9.96554 8.64613C10.0083 8.68897 10.059 8.72295 10.1149 8.74614C10.1708 8.76933 10.2307 8.78127 10.2912 8.78127C10.3517 8.78127 10.4116 8.76933 10.4675 8.74614C10.5234 8.72295 10.5742 8.68897 10.6169 8.64613L13.3768 5.88621C13.4632 5.79984 13.5117 5.68269 13.5117 5.56054C13.5117 5.43839 13.4632 5.32125 13.3768 5.23487C13.2904 5.1485 13.1733 5.09998 13.0511 5.09998C12.929 5.09998 12.8118 5.1485 12.7255 5.23487H12.7328Z" fill="#2C3743"/>
</svg>
