<svg width="551" height="551" viewBox="0 0 551 551" fill="none" xmlns="http://www.w3.org/2000/svg">
<g id="counter">
<rect width="550.508" height="550.508" fill="white"/>
<g id="Frame 5989">
<g id="Frame 15">
<g id="Frame 13">
<circle id="Ellipse 5" cx="51.5" cy="157" r="1.5" fill="#F9EB1E"/>
<circle id="Ellipse 6" cx="74.5" cy="157" r="1.5" fill="#F9EB1E"/>
<circle id="Ellipse 7" cx="97.5" cy="157" r="1.5" fill="#F9EB1E"/>
<circle id="Ellipse 17" cx="120.5" cy="157" r="1.5" fill="#F9EB1E"/>
<circle id="Ellipse 18" cx="143.5" cy="157" r="1.5" fill="#F9EB1E"/>
<circle id="Ellipse 19" cx="166.5" cy="157" r="1.5" fill="#F9EB1E"/>
<circle id="Ellipse 20" cx="189.5" cy="157" r="1.5" fill="#F9EB1E"/>
<circle id="Ellipse 8" cx="212.5" cy="157" r="1.5" fill="#F9EB1E"/>
<circle id="Ellipse 9" cx="235.5" cy="157" r="1.5" fill="#F9EB1E"/>
<circle id="Ellipse 10" cx="258.5" cy="157" r="1.5" fill="#F9EB1E"/>
<circle id="Ellipse 11" cx="281.5" cy="157" r="1.5" fill="#F9EB1E"/>
<circle id="Ellipse 12" cx="304.5" cy="157" r="1.5" fill="#F9EB1E"/>
<circle id="Ellipse 13" cx="327.5" cy="157" r="1.5" fill="#F9EB1E"/>
<circle id="Ellipse 16" cx="350.5" cy="157" r="1.5" fill="#F9EB1E"/>
</g>
<g id="Frame 27">
<circle id="Ellipse 5_2" cx="51.5" cy="180" r="1.5" fill="#F9EB1E"/>
<circle id="Ellipse 6_2" cx="74.5" cy="180" r="1.5" fill="#F9EB1E"/>
<circle id="Ellipse 7_2" cx="97.5" cy="180" r="1.5" fill="#F9EB1E"/>
<circle id="Ellipse 17_2" cx="120.5" cy="180" r="1.5" fill="#F9EB1E"/>
<circle id="Ellipse 18_2" cx="143.5" cy="180" r="1.5" fill="#F9EB1E"/>
<circle id="Ellipse 19_2" cx="166.5" cy="180" r="1.5" fill="#F9EB1E"/>
<circle id="Ellipse 20_2" cx="189.5" cy="180" r="1.5" fill="#F9EB1E"/>
<circle id="Ellipse 8_2" cx="212.5" cy="180" r="1.5" fill="#F9EB1E"/>
<circle id="Ellipse 9_2" cx="235.5" cy="180" r="1.5" fill="#F9EB1E"/>
<circle id="Ellipse 10_2" cx="258.5" cy="180" r="1.5" fill="#F9EB1E"/>
<circle id="Ellipse 11_2" cx="281.5" cy="180" r="1.5" fill="#F9EB1E"/>
<circle id="Ellipse 12_2" cx="304.5" cy="180" r="1.5" fill="#F9EB1E"/>
<circle id="Ellipse 13_2" cx="327.5" cy="180" r="1.5" fill="#F9EB1E"/>
<circle id="Ellipse 16_2" cx="350.5" cy="180" r="1.5" fill="#F9EB1E"/>
</g>
<g id="Frame 14">
<circle id="Ellipse 5_3" cx="51.5" cy="203" r="1.5" fill="#F9EB1E"/>
<circle id="Ellipse 6_3" cx="74.5" cy="203" r="1.5" fill="#F9EB1E"/>
<circle id="Ellipse 7_3" cx="97.5" cy="203" r="1.5" fill="#F9EB1E"/>
<circle id="Ellipse 17_3" cx="120.5" cy="203" r="1.5" fill="#F9EB1E"/>
<circle id="Ellipse 18_3" cx="143.5" cy="203" r="1.5" fill="#F9EB1E"/>
<circle id="Ellipse 19_3" cx="166.5" cy="203" r="1.5" fill="#F9EB1E"/>
<circle id="Ellipse 20_3" cx="189.5" cy="203" r="1.5" fill="#F9EB1E"/>
<circle id="Ellipse 8_3" cx="212.5" cy="203" r="1.5" fill="#F9EB1E"/>
<circle id="Ellipse 9_3" cx="235.5" cy="203" r="1.5" fill="#F9EB1E"/>
<circle id="Ellipse 10_3" cx="258.5" cy="203" r="1.5" fill="#F9EB1E"/>
<circle id="Ellipse 11_3" cx="281.5" cy="203" r="1.5" fill="#F9EB1E"/>
<circle id="Ellipse 12_3" cx="304.5" cy="203" r="1.5" fill="#F9EB1E"/>
<circle id="Ellipse 13_3" cx="327.5" cy="203" r="1.5" fill="#F9EB1E"/>
<circle id="Ellipse 16_3" cx="350.5" cy="203" r="1.5" fill="#F9EB1E"/>
</g>
<g id="Frame 15_2">
<circle id="Ellipse 5_4" cx="51.5" cy="226" r="1.5" fill="#F9EB1E"/>
<circle id="Ellipse 6_4" cx="74.5" cy="226" r="1.5" fill="#F9EB1E"/>
<circle id="Ellipse 7_4" cx="97.5" cy="226" r="1.5" fill="#F9EB1E"/>
<circle id="Ellipse 17_4" cx="120.5" cy="226" r="1.5" fill="#F9EB1E"/>
<circle id="Ellipse 18_4" cx="143.5" cy="226" r="1.5" fill="#F9EB1E"/>
<circle id="Ellipse 19_4" cx="166.5" cy="226" r="1.5" fill="#F9EB1E"/>
<circle id="Ellipse 20_4" cx="189.5" cy="226" r="1.5" fill="#F9EB1E"/>
<circle id="Ellipse 8_4" cx="212.5" cy="226" r="1.5" fill="#F9EB1E"/>
<circle id="Ellipse 9_4" cx="235.5" cy="226" r="1.5" fill="#F9EB1E"/>
<circle id="Ellipse 10_4" cx="258.5" cy="226" r="1.5" fill="#F9EB1E"/>
<circle id="Ellipse 11_4" cx="281.5" cy="226" r="1.5" fill="#F9EB1E"/>
<circle id="Ellipse 12_4" cx="304.5" cy="226" r="1.5" fill="#F9EB1E"/>
<circle id="Ellipse 13_4" cx="327.5" cy="226" r="1.5" fill="#F9EB1E"/>
<circle id="Ellipse 16_4" cx="350.5" cy="226" r="1.5" fill="#F9EB1E"/>
</g>
<g id="Frame 16">
<circle id="Ellipse 5_5" cx="51.5" cy="249" r="1.5" fill="#F9EB1E"/>
<circle id="Ellipse 6_5" cx="74.5" cy="249" r="1.5" fill="#F9EB1E"/>
<circle id="Ellipse 7_5" cx="97.5" cy="249" r="1.5" fill="#F9EB1E"/>
<circle id="Ellipse 17_5" cx="120.5" cy="249" r="1.5" fill="#F9EB1E"/>
<circle id="Ellipse 18_5" cx="143.5" cy="249" r="1.5" fill="#F9EB1E"/>
<circle id="Ellipse 19_5" cx="166.5" cy="249" r="1.5" fill="#F9EB1E"/>
<circle id="Ellipse 20_5" cx="189.5" cy="249" r="1.5" fill="#F9EB1E"/>
<circle id="Ellipse 8_5" cx="212.5" cy="249" r="1.5" fill="#F9EB1E"/>
<circle id="Ellipse 9_5" cx="235.5" cy="249" r="1.5" fill="#F9EB1E"/>
<circle id="Ellipse 10_5" cx="258.5" cy="249" r="1.5" fill="#F9EB1E"/>
<circle id="Ellipse 11_5" cx="281.5" cy="249" r="1.5" fill="#F9EB1E"/>
<circle id="Ellipse 12_5" cx="304.5" cy="249" r="1.5" fill="#F9EB1E"/>
<circle id="Ellipse 13_5" cx="327.5" cy="249" r="1.5" fill="#F9EB1E"/>
<circle id="Ellipse 16_5" cx="350.5" cy="249" r="1.5" fill="#F9EB1E"/>
</g>
<g id="Frame 17">
<circle id="Ellipse 5_6" cx="51.5" cy="272" r="1.5" fill="#F9EB1E"/>
<circle id="Ellipse 6_6" cx="74.5" cy="272" r="1.5" fill="#F9EB1E"/>
<circle id="Ellipse 7_6" cx="97.5" cy="272" r="1.5" fill="#F9EB1E"/>
<circle id="Ellipse 17_6" cx="120.5" cy="272" r="1.5" fill="#F9EB1E"/>
<circle id="Ellipse 18_6" cx="143.5" cy="272" r="1.5" fill="#F9EB1E"/>
<circle id="Ellipse 19_6" cx="166.5" cy="272" r="1.5" fill="#F9EB1E"/>
<circle id="Ellipse 20_6" cx="189.5" cy="272" r="1.5" fill="#F9EB1E"/>
<circle id="Ellipse 8_6" cx="212.5" cy="272" r="1.5" fill="#F9EB1E"/>
<circle id="Ellipse 9_6" cx="235.5" cy="272" r="1.5" fill="#F9EB1E"/>
<circle id="Ellipse 10_6" cx="258.5" cy="272" r="1.5" fill="#F9EB1E"/>
<circle id="Ellipse 11_6" cx="281.5" cy="272" r="1.5" fill="#F9EB1E"/>
<circle id="Ellipse 12_6" cx="304.5" cy="272" r="1.5" fill="#F9EB1E"/>
<circle id="Ellipse 13_6" cx="327.5" cy="272" r="1.5" fill="#F9EB1E"/>
<circle id="Ellipse 16_6" cx="350.5" cy="272" r="1.5" fill="#F9EB1E"/>
</g>
<g id="Frame 18">
<circle id="Ellipse 5_7" cx="51.5" cy="295" r="1.5" fill="#F9EB1E"/>
<circle id="Ellipse 6_7" cx="74.5" cy="295" r="1.5" fill="#F9EB1E"/>
<circle id="Ellipse 7_7" cx="97.5" cy="295" r="1.5" fill="#F9EB1E"/>
<circle id="Ellipse 17_7" cx="120.5" cy="295" r="1.5" fill="#F9EB1E"/>
<circle id="Ellipse 18_7" cx="143.5" cy="295" r="1.5" fill="#F9EB1E"/>
<circle id="Ellipse 19_7" cx="166.5" cy="295" r="1.5" fill="#F9EB1E"/>
<circle id="Ellipse 20_7" cx="189.5" cy="295" r="1.5" fill="#F9EB1E"/>
<circle id="Ellipse 8_7" cx="212.5" cy="295" r="1.5" fill="#F9EB1E"/>
<circle id="Ellipse 9_7" cx="235.5" cy="295" r="1.5" fill="#F9EB1E"/>
<circle id="Ellipse 10_7" cx="258.5" cy="295" r="1.5" fill="#F9EB1E"/>
<circle id="Ellipse 11_7" cx="281.5" cy="295" r="1.5" fill="#F9EB1E"/>
<circle id="Ellipse 12_7" cx="304.5" cy="295" r="1.5" fill="#F9EB1E"/>
<circle id="Ellipse 13_7" cx="327.5" cy="295" r="1.5" fill="#F9EB1E"/>
<circle id="Ellipse 16_7" cx="350.5" cy="295" r="1.5" fill="#F9EB1E"/>
</g>
<g id="Frame 19">
<circle id="Ellipse 5_8" cx="51.5" cy="318" r="1.5" fill="#F9EB1E"/>
<circle id="Ellipse 6_8" cx="74.5" cy="318" r="1.5" fill="#F9EB1E"/>
<circle id="Ellipse 7_8" cx="97.5" cy="318" r="1.5" fill="#F9EB1E"/>
<circle id="Ellipse 17_8" cx="120.5" cy="318" r="1.5" fill="#F9EB1E"/>
<circle id="Ellipse 18_8" cx="143.5" cy="318" r="1.5" fill="#F9EB1E"/>
<circle id="Ellipse 19_8" cx="166.5" cy="318" r="1.5" fill="#F9EB1E"/>
<circle id="Ellipse 20_8" cx="189.5" cy="318" r="1.5" fill="#F9EB1E"/>
<circle id="Ellipse 8_8" cx="212.5" cy="318" r="1.5" fill="#F9EB1E"/>
<circle id="Ellipse 9_8" cx="235.5" cy="318" r="1.5" fill="#F9EB1E"/>
<circle id="Ellipse 10_8" cx="258.5" cy="318" r="1.5" fill="#F9EB1E"/>
<circle id="Ellipse 11_8" cx="281.5" cy="318" r="1.5" fill="#F9EB1E"/>
<circle id="Ellipse 12_8" cx="304.5" cy="318" r="1.5" fill="#F9EB1E"/>
<circle id="Ellipse 13_8" cx="327.5" cy="318" r="1.5" fill="#F9EB1E"/>
<circle id="Ellipse 16_8" cx="350.5" cy="318" r="1.5" fill="#F9EB1E"/>
</g>
<g id="Frame 20">
<circle id="Ellipse 5_9" cx="51.5" cy="341" r="1.5" fill="#F9EB1E"/>
<circle id="Ellipse 6_9" cx="74.5" cy="341" r="1.5" fill="#F9EB1E"/>
<circle id="Ellipse 7_9" cx="97.5" cy="341" r="1.5" fill="#F9EB1E"/>
<circle id="Ellipse 17_9" cx="120.5" cy="341" r="1.5" fill="#F9EB1E"/>
<circle id="Ellipse 18_9" cx="143.5" cy="341" r="1.5" fill="#F9EB1E"/>
<circle id="Ellipse 19_9" cx="166.5" cy="341" r="1.5" fill="#F9EB1E"/>
<circle id="Ellipse 20_9" cx="189.5" cy="341" r="1.5" fill="#F9EB1E"/>
<circle id="Ellipse 8_9" cx="212.5" cy="341" r="1.5" fill="#F9EB1E"/>
<circle id="Ellipse 9_9" cx="235.5" cy="341" r="1.5" fill="#F9EB1E"/>
<circle id="Ellipse 10_9" cx="258.5" cy="341" r="1.5" fill="#F9EB1E"/>
<circle id="Ellipse 11_9" cx="281.5" cy="341" r="1.5" fill="#F9EB1E"/>
<circle id="Ellipse 12_9" cx="304.5" cy="341" r="1.5" fill="#F9EB1E"/>
<circle id="Ellipse 13_9" cx="327.5" cy="341" r="1.5" fill="#F9EB1E"/>
<circle id="Ellipse 16_9" cx="350.5" cy="341" r="1.5" fill="#F9EB1E"/>
</g>
<g id="Frame 21">
<circle id="Ellipse 5_10" cx="51.5" cy="364" r="1.5" fill="#F9EB1E"/>
<circle id="Ellipse 6_10" cx="74.5" cy="364" r="1.5" fill="#F9EB1E"/>
<circle id="Ellipse 7_10" cx="97.5" cy="364" r="1.5" fill="#F9EB1E"/>
<circle id="Ellipse 17_10" cx="120.5" cy="364" r="1.5" fill="#F9EB1E"/>
<circle id="Ellipse 18_10" cx="143.5" cy="364" r="1.5" fill="#F9EB1E"/>
<circle id="Ellipse 19_10" cx="166.5" cy="364" r="1.5" fill="#F9EB1E"/>
<circle id="Ellipse 20_10" cx="189.5" cy="364" r="1.5" fill="#F9EB1E"/>
<circle id="Ellipse 8_10" cx="212.5" cy="364" r="1.5" fill="#F9EB1E"/>
<circle id="Ellipse 9_10" cx="235.5" cy="364" r="1.5" fill="#F9EB1E"/>
<circle id="Ellipse 10_10" cx="258.5" cy="364" r="1.5" fill="#F9EB1E"/>
<circle id="Ellipse 11_10" cx="281.5" cy="364" r="1.5" fill="#F9EB1E"/>
<circle id="Ellipse 12_10" cx="304.5" cy="364" r="1.5" fill="#F9EB1E"/>
<circle id="Ellipse 13_10" cx="327.5" cy="364" r="1.5" fill="#F9EB1E"/>
<circle id="Ellipse 16_10" cx="350.5" cy="364" r="1.5" fill="#F9EB1E"/>
</g>
<g id="Frame 22">
<circle id="Ellipse 5_11" cx="51.5" cy="387" r="1.5" fill="#F9EB1E"/>
<circle id="Ellipse 6_11" cx="74.5" cy="387" r="1.5" fill="#F9EB1E"/>
<circle id="Ellipse 7_11" cx="97.5" cy="387" r="1.5" fill="#F9EB1E"/>
<circle id="Ellipse 17_11" cx="120.5" cy="387" r="1.5" fill="#F9EB1E"/>
<circle id="Ellipse 18_11" cx="143.5" cy="387" r="1.5" fill="#F9EB1E"/>
<circle id="Ellipse 19_11" cx="166.5" cy="387" r="1.5" fill="#F9EB1E"/>
<circle id="Ellipse 20_11" cx="189.5" cy="387" r="1.5" fill="#F9EB1E"/>
<circle id="Ellipse 8_11" cx="212.5" cy="387" r="1.5" fill="#F9EB1E"/>
<circle id="Ellipse 9_11" cx="235.5" cy="387" r="1.5" fill="#F9EB1E"/>
<circle id="Ellipse 10_11" cx="258.5" cy="387" r="1.5" fill="#F9EB1E"/>
<circle id="Ellipse 11_11" cx="281.5" cy="387" r="1.5" fill="#F9EB1E"/>
<circle id="Ellipse 12_11" cx="304.5" cy="387" r="1.5" fill="#F9EB1E"/>
<circle id="Ellipse 13_11" cx="327.5" cy="387" r="1.5" fill="#F9EB1E"/>
<circle id="Ellipse 16_11" cx="350.5" cy="387" r="1.5" fill="#F9EB1E"/>
</g>
<g id="Frame 23">
<circle id="Ellipse 5_12" cx="51.5" cy="410" r="1.5" fill="#F9EB1E"/>
<circle id="Ellipse 6_12" cx="74.5" cy="410" r="1.5" fill="#F9EB1E"/>
<circle id="Ellipse 7_12" cx="97.5" cy="410" r="1.5" fill="#F9EB1E"/>
<circle id="Ellipse 17_12" cx="120.5" cy="410" r="1.5" fill="#F9EB1E"/>
<circle id="Ellipse 18_12" cx="143.5" cy="410" r="1.5" fill="#F9EB1E"/>
<circle id="Ellipse 19_12" cx="166.5" cy="410" r="1.5" fill="#F9EB1E"/>
<circle id="Ellipse 20_12" cx="189.5" cy="410" r="1.5" fill="#F9EB1E"/>
<circle id="Ellipse 8_12" cx="212.5" cy="410" r="1.5" fill="#F9EB1E"/>
<circle id="Ellipse 9_12" cx="235.5" cy="410" r="1.5" fill="#F9EB1E"/>
<circle id="Ellipse 10_12" cx="258.5" cy="410" r="1.5" fill="#F9EB1E"/>
<circle id="Ellipse 11_12" cx="281.5" cy="410" r="1.5" fill="#F9EB1E"/>
<circle id="Ellipse 12_12" cx="304.5" cy="410" r="1.5" fill="#F9EB1E"/>
<circle id="Ellipse 13_12" cx="327.5" cy="410" r="1.5" fill="#F9EB1E"/>
<circle id="Ellipse 16_12" cx="350.5" cy="410" r="1.5" fill="#F9EB1E"/>
</g>
<g id="Frame 24">
<circle id="Ellipse 5_13" cx="51.5" cy="433" r="1.5" fill="#F9EB1E"/>
<circle id="Ellipse 6_13" cx="74.5" cy="433" r="1.5" fill="#F9EB1E"/>
<circle id="Ellipse 7_13" cx="97.5" cy="433" r="1.5" fill="#F9EB1E"/>
<circle id="Ellipse 17_13" cx="120.5" cy="433" r="1.5" fill="#F9EB1E"/>
<circle id="Ellipse 18_13" cx="143.5" cy="433" r="1.5" fill="#F9EB1E"/>
<circle id="Ellipse 19_13" cx="166.5" cy="433" r="1.5" fill="#F9EB1E"/>
<circle id="Ellipse 20_13" cx="189.5" cy="433" r="1.5" fill="#F9EB1E"/>
<circle id="Ellipse 8_13" cx="212.5" cy="433" r="1.5" fill="#F9EB1E"/>
<circle id="Ellipse 9_13" cx="235.5" cy="433" r="1.5" fill="#F9EB1E"/>
<circle id="Ellipse 10_13" cx="258.5" cy="433" r="1.5" fill="#F9EB1E"/>
<circle id="Ellipse 11_13" cx="281.5" cy="433" r="1.5" fill="#F9EB1E"/>
<circle id="Ellipse 12_13" cx="304.5" cy="433" r="1.5" fill="#F9EB1E"/>
<circle id="Ellipse 13_13" cx="327.5" cy="433" r="1.5" fill="#F9EB1E"/>
<circle id="Ellipse 16_13" cx="350.5" cy="433" r="1.5" fill="#F9EB1E"/>
</g>
<g id="Frame 25">
<circle id="Ellipse 5_14" cx="51.5" cy="456" r="1.5" fill="#F9EB1E"/>
<circle id="Ellipse 6_14" cx="74.5" cy="456" r="1.5" fill="#F9EB1E"/>
<circle id="Ellipse 7_14" cx="97.5" cy="456" r="1.5" fill="#F9EB1E"/>
<circle id="Ellipse 17_14" cx="120.5" cy="456" r="1.5" fill="#F9EB1E"/>
<circle id="Ellipse 18_14" cx="143.5" cy="456" r="1.5" fill="#F9EB1E"/>
<circle id="Ellipse 19_14" cx="166.5" cy="456" r="1.5" fill="#F9EB1E"/>
<circle id="Ellipse 20_14" cx="189.5" cy="456" r="1.5" fill="#F9EB1E"/>
<circle id="Ellipse 8_14" cx="212.5" cy="456" r="1.5" fill="#F9EB1E"/>
<circle id="Ellipse 9_14" cx="235.5" cy="456" r="1.5" fill="#F9EB1E"/>
<circle id="Ellipse 10_14" cx="258.5" cy="456" r="1.5" fill="#F9EB1E"/>
<circle id="Ellipse 11_14" cx="281.5" cy="456" r="1.5" fill="#F9EB1E"/>
<circle id="Ellipse 12_14" cx="304.5" cy="456" r="1.5" fill="#F9EB1E"/>
<circle id="Ellipse 13_14" cx="327.5" cy="456" r="1.5" fill="#F9EB1E"/>
<circle id="Ellipse 16_14" cx="350.5" cy="456" r="1.5" fill="#F9EB1E"/>
</g>
<g id="Frame 26">
<circle id="Ellipse 5_15" cx="51.5" cy="479" r="1.5" fill="#F9EB1E"/>
<circle id="Ellipse 6_15" cx="74.5" cy="479" r="1.5" fill="#F9EB1E"/>
<circle id="Ellipse 7_15" cx="97.5" cy="479" r="1.5" fill="#F9EB1E"/>
<circle id="Ellipse 17_15" cx="120.5" cy="479" r="1.5" fill="#F9EB1E"/>
<circle id="Ellipse 18_15" cx="143.5" cy="479" r="1.5" fill="#F9EB1E"/>
<circle id="Ellipse 19_15" cx="166.5" cy="479" r="1.5" fill="#F9EB1E"/>
<circle id="Ellipse 20_15" cx="189.5" cy="479" r="1.5" fill="#F9EB1E"/>
<circle id="Ellipse 8_15" cx="212.5" cy="479" r="1.5" fill="#F9EB1E"/>
<circle id="Ellipse 9_15" cx="235.5" cy="479" r="1.5" fill="#F9EB1E"/>
<circle id="Ellipse 10_15" cx="258.5" cy="479" r="1.5" fill="#F9EB1E"/>
<circle id="Ellipse 11_15" cx="281.5" cy="479" r="1.5" fill="#F9EB1E"/>
<circle id="Ellipse 12_15" cx="304.5" cy="479" r="1.5" fill="#F9EB1E"/>
<circle id="Ellipse 13_15" cx="327.5" cy="479" r="1.5" fill="#F9EB1E"/>
<circle id="Ellipse 16_15" cx="350.5" cy="479" r="1.5" fill="#F9EB1E"/>
</g>
</g>
<g id="Frame 5988">
<g id="Polygon 3" filter="url(#filter0_d_31_1186)">
<path d="M168.731 110.75C172.303 104.562 178.906 100.75 186.051 100.75L364.457 100.75C371.602 100.75 378.205 104.562 381.778 110.75L470.981 265.254C474.553 271.442 474.553 279.066 470.981 285.254L381.778 439.758C378.205 445.946 371.602 449.758 364.457 449.758L186.051 449.758C178.906 449.758 172.303 445.946 168.731 439.758L79.5276 285.254C75.955 279.066 75.955 271.442 79.5276 265.254L168.731 110.75Z" fill="white"/>
</g>
<path id="Th&#225;&#187;&#145;ng k&#195;&#170;" d="M186.12 289.5V266.78H177.16V261.5H201.56V266.78H192.6V289.5H186.12ZM217.687 267.66C219.393 267.66 220.913 268.007 222.247 268.7C223.607 269.367 224.673 270.407 225.447 271.82C226.22 273.207 226.607 274.993 226.607 277.18V289.5H220.367V278.14C220.367 276.407 219.98 275.127 219.207 274.3C218.46 273.473 217.393 273.06 216.007 273.06C215.02 273.06 214.127 273.273 213.327 273.7C212.553 274.1 211.94 274.727 211.487 275.58C211.06 276.433 210.847 277.527 210.847 278.86V289.5H204.607V259.82H210.847V273.94L209.447 272.14C210.22 270.7 211.327 269.593 212.767 268.82C214.207 268.047 215.847 267.66 217.687 267.66ZM242.659 289.82C240.366 289.82 238.326 289.34 236.539 288.38C234.779 287.42 233.379 286.113 232.339 284.46C231.326 282.78 230.819 280.873 230.819 278.74C230.819 276.58 231.326 274.673 232.339 273.02C233.379 271.34 234.779 270.033 236.539 269.1C238.326 268.14 240.366 267.66 242.659 267.66C244.926 267.66 246.952 268.14 248.739 269.1C250.526 270.033 251.926 271.327 252.939 272.98C253.952 274.633 254.459 276.553 254.459 278.74C254.459 280.873 253.952 282.78 252.939 284.46C251.926 286.113 250.526 287.42 248.739 288.38C246.952 289.34 244.926 289.82 242.659 289.82ZM242.659 284.7C243.699 284.7 244.632 284.46 245.459 283.98C246.286 283.5 246.939 282.82 247.419 281.94C247.899 281.033 248.139 279.967 248.139 278.74C248.139 277.487 247.899 276.42 247.419 275.54C246.939 274.66 246.286 273.98 245.459 273.5C244.632 273.02 243.699 272.78 242.659 272.78C241.619 272.78 240.686 273.02 239.859 273.5C239.032 273.98 238.366 274.66 237.859 275.54C237.379 276.42 237.139 277.487 237.139 278.74C237.139 279.967 237.379 281.033 237.859 281.94C238.366 282.82 239.032 283.5 239.859 283.98C240.686 284.46 241.619 284.7 242.659 284.7ZM234.539 265.22L239.859 260.66H245.299L250.619 265.22H246.019L240.619 261.62H244.539L239.139 265.22H234.539ZM247.379 261.38L251.819 256.54H258.179L251.899 261.38H247.379ZM271.71 267.66C273.417 267.66 274.937 268.007 276.27 268.7C277.63 269.367 278.697 270.407 279.47 271.82C280.243 273.207 280.63 274.993 280.63 277.18V289.5H274.39V278.14C274.39 276.407 274.003 275.127 273.23 274.3C272.483 273.473 271.417 273.06 270.03 273.06C269.043 273.06 268.15 273.273 267.35 273.7C266.577 274.1 265.963 274.727 265.51 275.58C265.083 276.433 264.87 277.527 264.87 278.86V289.5H258.63V267.98H264.59V273.94L263.47 272.14C264.243 270.7 265.35 269.593 266.79 268.82C268.23 268.047 269.87 267.66 271.71 267.66ZM296.563 297.58C294.536 297.58 292.576 297.327 290.683 296.82C288.816 296.34 287.256 295.607 286.003 294.62L288.483 290.14C289.389 290.887 290.536 291.473 291.923 291.9C293.336 292.353 294.723 292.58 296.083 292.58C298.296 292.58 299.896 292.087 300.883 291.1C301.896 290.113 302.403 288.647 302.403 286.7V283.46L302.803 278.06L302.723 272.62V267.98H308.643V285.9C308.643 289.9 307.603 292.847 305.523 294.74C303.443 296.633 300.456 297.58 296.563 297.58ZM295.603 288.46C293.603 288.46 291.789 288.033 290.163 287.18C288.563 286.3 287.269 285.087 286.283 283.54C285.323 281.967 284.843 280.14 284.843 278.06C284.843 275.953 285.323 274.127 286.283 272.58C287.269 271.007 288.563 269.793 290.163 268.94C291.789 268.087 293.603 267.66 295.603 267.66C297.416 267.66 299.016 268.033 300.403 268.78C301.789 269.5 302.869 270.633 303.643 272.18C304.416 273.7 304.803 275.66 304.803 278.06C304.803 280.433 304.416 282.393 303.643 283.94C302.869 285.46 301.789 286.593 300.403 287.34C299.016 288.087 297.416 288.46 295.603 288.46ZM296.843 283.34C297.936 283.34 298.909 283.127 299.763 282.7C300.616 282.247 301.283 281.62 301.763 280.82C302.243 280.02 302.483 279.1 302.483 278.06C302.483 276.993 302.243 276.073 301.763 275.3C301.283 274.5 300.616 273.887 299.763 273.46C298.909 273.007 297.936 272.78 296.843 272.78C295.749 272.78 294.776 273.007 293.923 273.46C293.069 273.887 292.389 274.5 291.883 275.3C291.403 276.073 291.163 276.993 291.163 278.06C291.163 279.1 291.403 280.02 291.883 280.82C292.389 281.62 293.069 282.247 293.923 282.7C294.776 283.127 295.749 283.34 296.843 283.34ZM330.938 285.1L331.098 277.5L341.138 267.98H348.578L338.938 277.78L335.698 280.42L330.938 285.1ZM325.778 289.5V259.82H332.018V289.5H325.778ZM341.818 289.5L334.538 280.46L338.458 275.62L349.378 289.5H341.818ZM361.966 289.82C359.513 289.82 357.353 289.34 355.486 288.38C353.646 287.42 352.22 286.113 351.206 284.46C350.193 282.78 349.686 280.873 349.686 278.74C349.686 276.58 350.18 274.673 351.166 273.02C352.18 271.34 353.553 270.033 355.286 269.1C357.02 268.14 358.98 267.66 361.166 267.66C363.273 267.66 365.166 268.113 366.846 269.02C368.553 269.9 369.9 271.18 370.886 272.86C371.873 274.513 372.366 276.5 372.366 278.82C372.366 279.06 372.353 279.34 372.326 279.66C372.3 279.953 372.273 280.233 372.246 280.5H354.766V276.86H368.966L366.566 277.94C366.566 276.82 366.34 275.847 365.886 275.02C365.433 274.193 364.806 273.553 364.006 273.1C363.206 272.62 362.273 272.38 361.206 272.38C360.14 272.38 359.193 272.62 358.366 273.1C357.566 273.553 356.94 274.207 356.486 275.06C356.033 275.887 355.806 276.873 355.806 278.02V278.98C355.806 280.153 356.06 281.193 356.566 282.1C357.1 282.98 357.833 283.66 358.766 284.14C359.726 284.593 360.846 284.82 362.126 284.82C363.273 284.82 364.273 284.647 365.126 284.3C366.006 283.953 366.806 283.433 367.526 282.74L370.846 286.34C369.86 287.46 368.62 288.327 367.126 288.94C365.633 289.527 363.913 289.82 361.966 289.82ZM353.006 265.22L358.286 259.46H363.806L369.086 265.22H364.526L359.006 260.42H363.086L357.566 265.22H353.006Z" fill="#EE3227"/>
</g>
</g>
<g id="Frame 5987">
<g id="Polygon 5" filter="url(#filter1_d_31_1186)">
<path d="M163.2 79.6995C169.32 76.1659 172.38 74.3991 175.634 73.7076C178.512 73.0957 181.488 73.0957 184.366 73.7076C187.62 74.3991 190.68 76.1659 196.8 79.6995L198.707 80.8005C204.827 84.3341 207.888 86.1009 210.113 88.5726C212.082 90.7596 213.57 93.3361 214.479 96.135C215.507 99.2983 215.507 102.832 215.507 109.899V112.101C215.507 119.168 215.507 122.702 214.479 125.865C213.57 128.664 212.082 131.24 210.113 133.427C207.888 135.899 204.827 137.666 198.707 141.199L196.8 142.301C190.68 145.834 187.62 147.601 184.366 148.292C181.488 148.904 178.512 148.904 175.634 148.292C172.38 147.601 169.32 145.834 163.2 142.301L161.293 141.199C155.173 137.666 152.112 135.899 149.887 133.427C147.918 131.24 146.43 128.664 145.521 125.865C144.493 122.702 144.493 119.168 144.493 112.101V109.899C144.493 102.832 144.493 99.2983 145.521 96.135C146.43 93.3361 147.918 90.7596 149.887 88.5726C152.112 86.1009 155.173 84.3341 161.293 80.8005L163.2 79.6995Z" fill="#E5290F"/>
</g>
<path id="Polygon 6" d="M196.55 75.1325L202.787 78.7335C208.937 82.284 211.912 84.0082 214.072 86.4072C215.994 88.5421 217.446 91.0573 218.334 93.7895C219.331 96.8596 219.337 100.298 219.337 107.399V114.601C219.337 121.702 219.331 125.14 218.334 128.21C217.446 130.943 215.994 133.458 214.072 135.593C211.912 137.992 208.937 139.716 202.787 143.266L196.55 146.868C190.4 150.418 187.42 152.132 184.262 152.803C181.452 153.401 178.548 153.401 175.738 152.803C172.58 152.132 169.6 150.418 163.45 146.868L157.213 143.266C151.063 139.716 148.088 137.992 145.928 135.593C144.006 133.458 142.554 130.943 141.666 128.21C140.669 125.14 140.663 121.702 140.663 114.601V107.399C140.663 100.298 140.669 96.8596 141.666 93.7895C142.554 91.0573 144.006 88.5421 145.928 86.4072C148.088 84.0082 151.063 82.284 157.213 78.7335L163.45 75.1325C169.6 71.5821 172.58 69.8678 175.738 69.1967C178.548 68.5994 181.452 68.5994 184.262 69.1967C187.42 69.8678 190.4 71.5821 196.55 75.1325Z" fill="#E5290F" stroke="#F41818"/>
<g id="Frame 5991">
<path id="Vector" opacity="0.3" d="M183.18 93C182.597 93 182.125 93.4717 182.125 94.0547V108.891C182.125 109.474 182.597 109.945 183.18 109.945H197.945C198.528 109.945 199 109.474 199 108.891C199 100.167 191.903 93 183.18 93Z" fill="white"/>
<path id="Vector_2" d="M185.134 126.635L180.016 112.918V98.3438C180.016 97.7608 179.544 97.2891 178.961 97.2891C170.237 97.2891 163 104.386 163 113.109C163 121.833 170.237 129 178.961 129C180.87 129 182.74 128.661 184.517 127.994C185.061 127.789 185.338 127.181 185.134 126.635Z" fill="white"/>
<path id="Vector_3" opacity="0.8" d="M197.945 112.055H183.18C182.834 112.055 182.51 112.225 182.312 112.509C182.116 112.793 182.07 113.156 182.192 113.48L187.377 127.377C187.476 127.638 187.673 127.851 187.929 127.966C188.184 128.082 188.472 128.092 188.736 127.993C194.875 125.682 199 119.66 199 113.109C199 112.526 198.528 112.055 197.945 112.055Z" fill="white"/>
</g>
</g>
</g>
<defs>
<filter id="filter0_d_31_1186" x="26.8481" y="56.75" width="496.812" height="449.008" filterUnits="userSpaceOnUse" color-interpolation-filters="sRGB">
<feFlood flood-opacity="0" result="BackgroundImageFix"/>
<feColorMatrix in="SourceAlpha" type="matrix" values="0 0 0 0 0 0 0 0 0 0 0 0 0 0 0 0 0 0 127 0" result="hardAlpha"/>
<feOffset dy="6"/>
<feGaussianBlur stdDeviation="25"/>
<feComposite in2="hardAlpha" operator="out"/>
<feColorMatrix type="matrix" values="0 0 0 0 0.658333 0 0 0 0 0.617125 0 0 0 0 0.0137153 0 0 0 0.1 0"/>
<feBlend mode="normal" in2="BackgroundImageFix" result="effect1_dropShadow_31_1186"/>
<feBlend mode="normal" in="SourceGraphic" in2="effect1_dropShadow_31_1186" result="shape"/>
</filter>
<filter id="filter1_d_31_1186" x="113.493" y="50.2487" width="133.014" height="137.503" filterUnits="userSpaceOnUse" color-interpolation-filters="sRGB">
<feFlood flood-opacity="0" result="BackgroundImageFix"/>
<feColorMatrix in="SourceAlpha" type="matrix" values="0 0 0 0 0 0 0 0 0 0 0 0 0 0 0 0 0 0 127 0" result="hardAlpha"/>
<feOffset dy="8"/>
<feGaussianBlur stdDeviation="15.5"/>
<feComposite in2="hardAlpha" operator="out"/>
<feColorMatrix type="matrix" values="0 0 0 0 0.958333 0 0 0 0 0.0958334 0 0 0 0 0.0958334 0 0 0 0.7 0"/>
<feBlend mode="normal" in2="BackgroundImageFix" result="effect1_dropShadow_31_1186"/>
<feBlend mode="normal" in="SourceGraphic" in2="effect1_dropShadow_31_1186" result="shape"/>
</filter>
</defs>
</svg>
