<svg width="24" height="24" viewBox="0 0 24 24" fill="none" xmlns="http://www.w3.org/2000/svg">
<path d="M12 21C11.872 21.0013 11.7459 20.969 11.6344 20.9062C11.2312 20.6812 1.875 15.3656 1.875 8.625C1.875 7.44441 2.24646 6.29375 2.93676 5.336C3.62707 4.37826 4.60121 3.66199 5.72122 3.28866C6.84122 2.91532 8.0503 2.90385 9.17719 3.25586C10.3041 3.60787 11.2916 4.30553 12 5.25C12.7084 4.30553 13.6959 3.60787 14.8228 3.25586C15.9497 2.90385 17.1588 2.91532 18.2788 3.28866C19.3988 3.66199 20.3729 4.37826 21.0632 5.336C21.7535 6.29375 22.125 7.44441 22.125 8.625C22.125 11.4937 20.4656 14.4375 17.1937 17.3812C15.708 18.7169 14.0903 19.898 12.3656 20.9062C12.2541 20.969 12.128 21.0013 12 21ZM7.5 4.5C6.40598 4.5 5.35677 4.9346 4.58318 5.70818C3.8096 6.48177 3.375 7.53098 3.375 8.625C3.375 13.8 10.3125 18.3469 12 19.3781C13.6875 18.3469 20.625 13.8 20.625 8.625C20.6259 7.6714 20.2963 6.74695 19.6924 6.00894C19.0885 5.27093 18.2476 4.76495 17.3127 4.57708C16.3777 4.38922 15.4066 4.53107 14.5645 4.97851C13.7224 5.42595 13.0613 6.15134 12.6937 7.03125C12.6372 7.16881 12.5411 7.28646 12.4176 7.36926C12.2941 7.45206 12.1487 7.49627 12 7.49627C11.8513 7.49627 11.7059 7.45206 11.5824 7.36926C11.4589 7.28646 11.3628 7.16881 11.3062 7.03125C10.9941 6.27962 10.4656 5.63772 9.7879 5.18703C9.11021 4.73635 8.31387 4.49721 7.5 4.5Z" fill="#34210A"/>
</svg>
