<svg width="16" height="16" viewBox="0 0 16 16" fill="none" xmlns="http://www.w3.org/2000/svg">
<path fill-rule="evenodd" clip-rule="evenodd" d="M11.6333 0H4.36674C3.76403 0 3.19545 0.113595 2.66098 0.340788C2.13788 0.567983 1.67733 0.880367 1.27932 1.27796C0.881306 1.67555 0.568587 2.14128 0.341151 2.67519C0.113716 3.19773 0 3.76003 0 4.36209V11.6379C0 12.2286 0.113716 12.7909 0.341151 13.3248C0.568587 13.8587 0.881306 14.3216 1.27932 14.7135C1.67733 15.1054 2.13788 15.415 2.66098 15.6422C3.19545 15.8807 3.76403 16 4.36674 16H11.6333C12.236 16 12.8045 15.8807 13.339 15.6422C13.8621 15.415 14.3227 15.1054 14.7207 14.7135C15.1187 14.3216 15.4314 13.8587 15.6588 13.3248C15.8863 12.7909 16 12.2286 16 11.6379V4.36209C16 3.76003 15.8863 3.19773 15.6588 2.67519C15.4314 2.14128 15.1187 1.67555 14.7207 1.27796C14.3227 0.880367 13.8621 0.567983 13.339 0.340788C12.8045 0.113595 12.236 0 11.6333 0ZM14.5494 11.6374C14.5494 12.4326 14.2651 13.1142 13.6966 13.6822C13.128 14.2502 12.44 14.5341 11.6326 14.5341H4.36606C3.55867 14.5341 2.87068 14.2502 2.3021 13.6822C1.73351 13.1142 1.44922 12.4326 1.44922 11.6374V4.36161C1.44922 3.56644 1.73351 2.88203 2.3021 2.30837C2.87068 1.7347 3.55867 1.44788 4.36606 1.44788H11.6326C12.44 1.44788 13.128 1.7347 13.6966 2.30837C14.2651 2.88203 14.5494 3.56644 14.5494 4.36161V11.6374ZM8.57955 4.36166C8.3976 4.32759 8.21565 4.31055 8.03371 4.31055C7.85176 4.31055 7.66981 4.32759 7.48787 4.36166C6.99888 4.42982 6.5497 4.59454 6.14032 4.85581C5.73093 5.11708 5.38979 5.43515 5.11686 5.81001C4.84394 6.18488 4.64494 6.60518 4.51985 7.07093C4.39476 7.53668 4.36633 8.01378 4.43456 8.50224C4.50279 8.97935 4.66199 9.42521 4.91217 9.83983C5.16235 10.2545 5.48644 10.6094 5.88445 10.9048C6.21423 11.1206 6.56107 11.2967 6.92496 11.433C7.28886 11.5693 7.66981 11.6375 8.06782 11.6375C8.14742 11.6375 8.23555 11.6347 8.33221 11.629C8.42887 11.6233 8.51132 11.5977 8.57955 11.5523C9.05716 11.4841 9.5035 11.3251 9.91857 11.0752C10.3336 10.8253 10.689 10.5015 10.9847 10.1039C11.2803 9.70636 11.4822 9.27754 11.5902 8.81747C11.6982 8.3574 11.7125 7.88882 11.6329 7.41172C11.5305 6.61654 11.1979 5.93781 10.635 5.37551C10.0721 4.81321 9.38694 4.47526 8.57955 4.36166ZM9.82516 9.23525C9.64321 9.45108 9.42715 9.64135 9.17697 9.80607C8.92679 9.97078 8.65387 10.0702 8.3582 10.1043C7.77824 10.1724 7.24093 10.0333 6.74626 9.68679C6.25159 9.34032 5.96446 8.87175 5.88486 8.28104C5.78251 7.7017 5.91613 7.16497 6.28571 6.67082C6.65529 6.17668 7.13006 5.88985 7.71002 5.81033C7.74413 5.81033 7.79246 5.81033 7.85501 5.81033C7.91755 5.81033 7.96588 5.81033 7.99999 5.81033C8.03411 5.81033 8.08244 5.81033 8.14499 5.81033C8.20753 5.81033 8.25586 5.81033 8.28997 5.81033C8.76759 5.88985 9.17128 6.09432 9.50106 6.42375C9.83084 6.75318 10.0355 7.15644 10.1151 7.63354C10.1834 7.9289 10.1862 8.21572 10.1237 8.49404C10.0611 8.77235 9.96162 9.01942 9.82516 9.23525ZM11.4969 3.49321C11.4173 3.56137 11.3605 3.63521 11.3263 3.71473C11.2922 3.79424 11.2752 3.8908 11.2752 4.0044C11.2752 4.10663 11.2922 4.19751 11.3263 4.27703C11.3605 4.35655 11.4173 4.43606 11.4969 4.51558C11.5652 4.58374 11.6476 4.63485 11.7443 4.66893C11.8409 4.70301 11.929 4.72005 12.0086 4.72005C12.111 4.72005 12.202 4.70301 12.2816 4.66893C12.3612 4.63485 12.4408 4.58374 12.5204 4.51558C12.5886 4.43606 12.6398 4.34802 12.6739 4.25147C12.708 4.15491 12.7251 4.07255 12.7251 4.0044C12.7251 3.8908 12.708 3.79424 12.6739 3.71473C12.6398 3.63521 12.5886 3.56137 12.5204 3.49321C12.3725 3.34554 12.202 3.2717 12.0086 3.2717C11.8153 3.2717 11.6448 3.34554 11.4969 3.49321Z" fill="white"/>
</svg>
