<svg width="24" height="24" viewBox="0 0 24 24" fill="none" xmlns="http://www.w3.org/2000/svg">
<g clip-path="url(#clip0_0_826)">
<path d="M11.9972 0.0302734C5.38225 0.0302734 0.0244141 4.999 0.0244141 11.1351C0.0244141 14.6371 1.76047 17.7501 4.48429 19.7854L4.54415 23.6766C4.54415 23.8861 4.78361 24.0059 4.9632 23.9161L8.70471 21.8208C9.75233 22.0902 10.8598 22.2399 12.0272 22.2399C18.6422 22.2399 24 17.2711 24 11.1351C24 4.999 18.5823 0.0302734 11.9972 0.0302734V0.0302734ZM12.8653 14.7568L10.321 12.0929C10.1714 11.9432 9.93192 11.9133 9.75233 12.0031L5.26252 14.4276C5.08293 14.5174 4.93327 14.3079 5.053 14.1582L10.351 8.53098C10.5006 8.38132 10.77 8.38132 10.9197 8.53098L13.4639 11.2548C13.6136 11.4045 13.853 11.4643 14.0326 11.3446L18.4326 8.95003C18.6122 8.86023 18.7619 9.06976 18.6422 9.21942L13.434 14.7568C13.2843 14.9065 13.0149 14.9065 12.8653 14.7568V14.7568Z" fill="white"/>
</g>
<defs>
<clipPath id="clip0_0_826">
<rect width="24" height="24" fill="white"/>
</clipPath>
</defs>
</svg>
