<svg width="22" height="22" viewBox="0 0 22 22" fill="none" xmlns="http://www.w3.org/2000/svg">
<g clip-path="url(#clip0_0_816)">
<path d="M21.4015 16.1458L18.3314 13.0756C17.2349 11.9791 15.3709 12.4178 14.9323 13.8432C14.6033 14.83 13.5068 15.3783 12.52 15.1589C10.327 14.6107 7.36651 11.7598 6.81827 9.45721C6.48932 8.47032 7.14721 7.37384 8.13405 7.04493C9.55949 6.60634 9.99808 4.74231 8.90159 3.64582L5.83143 0.575656C4.95424 -0.191885 3.63845 -0.191885 2.87091 0.575656L0.787587 2.65898C-1.29574 4.85196 1.00688 10.6633 6.16038 15.8168C11.3139 20.9703 17.1252 23.3826 19.3182 21.1896L21.4015 19.1063C22.1691 18.2291 22.1691 16.9133 21.4015 16.1458Z" fill="white"/>
</g>
<defs>
<clipPath id="clip0_0_816">
<rect width="22" height="22" fill="white"/>
</clipPath>
</defs>
</svg>
