<svg width="24" height="24" viewBox="0 0 24 24" fill="none" xmlns="http://www.w3.org/2000/svg">
<path d="M9 20.25C9 20.5467 8.91203 20.8367 8.7472 21.0834C8.58238 21.33 8.34811 21.5223 8.07402 21.6358C7.79994 21.7494 7.49834 21.7791 7.20736 21.7212C6.91639 21.6633 6.64912 21.5204 6.43934 21.3107C6.22956 21.1009 6.0867 20.8336 6.02882 20.5426C5.97094 20.2517 6.00065 19.9501 6.11418 19.676C6.22771 19.4019 6.41997 19.1676 6.66664 19.0028C6.91332 18.838 7.20333 18.75 7.5 18.75C7.89782 18.75 8.27936 18.908 8.56066 19.1893C8.84196 19.4706 9 19.8522 9 20.25ZM17.25 18.75C16.9533 18.75 16.6633 18.838 16.4166 19.0028C16.17 19.1676 15.9777 19.4019 15.8642 19.676C15.7506 19.9501 15.7209 20.2517 15.7788 20.5426C15.8367 20.8336 15.9796 21.1009 16.1893 21.3107C16.3991 21.5204 16.6664 21.6633 16.9574 21.7212C17.2483 21.7791 17.5499 21.7494 17.824 21.6358C18.0981 21.5223 18.3324 21.33 18.4972 21.0834C18.662 20.8367 18.75 20.5467 18.75 20.25C18.75 19.8522 18.592 19.4706 18.3107 19.1893C18.0294 18.908 17.6478 18.75 17.25 18.75ZM21.5062 6.95625L19.0312 15.6188C18.8953 16.0883 18.6108 16.5012 18.2203 16.7953C17.8298 17.0894 17.3545 17.249 16.8656 17.25H7.88437C7.39551 17.249 6.92017 17.0894 6.52969 16.7953C6.13921 16.5012 5.85466 16.0883 5.71875 15.6188L3.24375 6.96563V6.94687L2.325 3.75H0.75C0.551088 3.75 0.360322 3.67098 0.21967 3.53033C0.0790176 3.38968 0 3.19891 0 3C0 2.80109 0.0790176 2.61032 0.21967 2.46967C0.360322 2.32902 0.551088 2.25 0.75 2.25H2.325C2.65078 2.25118 2.96744 2.35774 3.22766 2.55375C3.48788 2.74976 3.67769 3.0247 3.76875 3.3375L4.52812 6H20.7844C20.9005 5.99988 21.0152 6.02674 21.1192 6.07848C21.2232 6.13021 21.3138 6.20541 21.3838 6.29812C21.4537 6.39084 21.5012 6.49855 21.5225 6.61276C21.5438 6.72697 21.5382 6.84456 21.5062 6.95625ZM19.7906 7.5H4.95938L7.1625 15.2062C7.20735 15.363 7.30208 15.5009 7.43234 15.5991C7.5626 15.6972 7.72129 15.7502 7.88437 15.75H16.8656C17.0287 15.7502 17.1874 15.6972 17.3177 15.5991C17.4479 15.5009 17.5427 15.363 17.5875 15.2062L19.7906 7.5Z" fill="#34210A"/>
</svg>
