<svg width="24" height="24" viewBox="0 0 24 24" fill="none" xmlns="http://www.w3.org/2000/svg">
<path fill-rule="evenodd" clip-rule="evenodd" d="M18.2567 8.98741C18.2625 9.11785 18.2657 9.24935 18.2657 9.38085C18.2657 13.3847 15.2189 18 9.64443 18C7.93332 18 6.34046 17.5 5 16.6399C5.23702 16.668 5.47828 16.6823 5.72273 16.6823C7.14272 16.6823 8.44872 16.1977 9.48588 15.3854C8.16027 15.361 7.04092 14.485 6.65543 13.2808C6.83995 13.3158 7.03031 13.3354 7.22491 13.3354C7.50117 13.3354 7.76948 13.2994 8.02346 13.2299C6.6374 12.9521 5.59335 11.7277 5.59335 10.2589C5.59335 10.2462 5.59335 10.233 5.59388 10.2208C6.00217 10.4472 6.46931 10.584 6.96562 10.5994C6.15329 10.0569 5.61827 9.12898 5.61827 8.07803C5.61827 7.52234 5.76727 7.00163 6.02815 6.55411C7.52185 8.3877 9.75525 9.59348 12.2729 9.72074C12.2209 9.49856 12.1949 9.26791 12.1949 9.02983C12.1949 7.3569 13.5513 6 15.2242 6C16.0959 6 16.8823 6.36799 17.4359 6.95656C18.1268 6.82082 18.7737 6.56948 19.3607 6.22111C19.1326 6.92899 18.6538 7.52234 18.0266 7.89775C18.6401 7.82458 19.2254 7.66232 19.7668 7.42106C19.3628 8.02766 18.849 8.56162 18.2567 8.98741Z" fill="white"/>
</svg>
