<svg width="20" height="20" viewBox="0 0 20 20" fill="none" xmlns="http://www.w3.org/2000/svg">
<path fill-rule="evenodd" clip-rule="evenodd" d="M18.4079 5.44454C19.1657 6.84329 19.5626 8.40899 19.5625 9.99981C19.5636 11.3283 19.2873 12.6424 18.7514 13.858C18.2154 15.0736 17.4316 16.1639 16.45 17.0592L16.3375 17.1529C14.5909 18.7041 12.336 19.5609 10 19.5609C7.66399 19.5609 5.40911 18.7041 3.6625 17.1529L3.55 17.0592C2.37555 15.9862 1.48736 14.6371 0.965879 13.1342C0.444398 11.6312 0.306106 10.022 0.563531 8.45212C0.820957 6.88226 1.46596 5.40143 2.44013 4.14377C3.41429 2.88611 4.68683 1.89135 6.14246 1.24961C7.5981 0.60787 9.19084 0.339422 10.7764 0.468585C12.362 0.597749 13.8903 1.12044 15.2228 1.98932C16.5554 2.85819 17.6502 4.04579 18.4079 5.44454ZM2.53936 6.04742C1.896 7.26539 1.56062 8.62236 1.5625 9.99981C1.56069 12.1478 2.38276 14.2148 3.85938 15.7748C4.74537 14.4042 6.06596 13.3709 7.60938 12.8404C6.83891 12.3273 6.25402 11.5798 5.9412 10.7085C5.62837 9.83725 5.60421 8.88844 5.87228 8.00238C6.14035 7.11632 6.68643 6.34004 7.42978 5.78831C8.17312 5.23659 9.07428 4.9387 10 4.9387C10.9257 4.9387 11.8269 5.23659 12.5702 5.78831C13.3136 6.34004 13.8597 7.11632 14.1277 8.00238C14.3958 8.88844 14.3716 9.83725 14.0588 10.7085C13.746 11.5798 13.1611 12.3273 12.3906 12.8404C13.934 13.3709 15.2546 14.4042 16.1406 15.7748C17.0853 14.7723 17.7702 13.5538 18.1354 12.2257C18.5007 10.8975 18.5352 9.50016 18.2361 8.15559C17.9369 6.81103 17.313 5.56016 16.4191 4.51222C15.5251 3.46429 14.3881 2.65116 13.1075 2.14385C11.8269 1.63654 10.4415 1.45048 9.0724 1.60191C7.7033 1.75334 6.39209 2.23767 5.25329 3.01258C4.11448 3.7875 3.18272 4.82944 2.53936 6.04742ZM7.34969 7.47893C6.99944 8.00311 6.8125 8.61938 6.8125 9.24981C6.81497 10.0944 7.15159 10.9037 7.74883 11.501C8.34607 12.0982 9.15538 12.4348 10 12.4373C10.6304 12.4373 11.2467 12.2504 11.7709 11.9001C12.2951 11.5499 12.7036 11.052 12.9449 10.4696C13.1861 9.88717 13.2492 9.24627 13.1263 8.62796C13.0033 8.00964 12.6997 7.44168 12.2539 6.9959C11.8081 6.55012 11.2402 6.24654 10.6219 6.12355C10.0035 6.00056 9.36264 6.06369 8.7802 6.30494C8.19776 6.5462 7.69994 6.95474 7.34969 7.47893ZM6.95316 14.367C6.02349 14.8919 5.2452 15.6481 4.69375 16.5623C6.19622 17.7754 8.06896 18.437 10 18.437C11.931 18.437 13.8038 17.7754 15.3063 16.5623C14.7548 15.6481 13.9765 14.8919 13.0468 14.367C12.1172 13.842 11.0676 13.5662 10 13.5662C8.93237 13.5662 7.88284 13.842 6.95316 14.367Z" fill="black"/>
</svg>
