<svg width="24" height="24" viewBox="0 0 24 24" fill="none" xmlns="http://www.w3.org/2000/svg">
<path d="M19.8946 7.87771C19.6958 7.14347 19.1132 6.56467 18.3743 6.36696C17.0244 6 11.6248 6 11.6248 6C11.6248 6 6.22543 6 4.87556 6.35305C4.15088 6.55055 3.55401 7.14357 3.35523 7.87771C3 9.21879 3 12 3 12C3 12 3 14.7952 3.35523 16.1223C3.55422 16.8564 4.13667 17.4352 4.87567 17.6329C6.23965 18 11.625 18 11.625 18C11.625 18 17.0244 18 18.3743 17.6469C19.1133 17.4493 19.6958 16.8705 19.8948 16.1364C20.2499 14.7952 20.2499 12.0141 20.2499 12.0141C20.2499 12.0141 20.2641 9.21879 19.8946 7.87771V7.87771ZM9.9057 14.5694V9.43062L14.3957 12L9.9057 14.5694Z" fill="white"/>
</svg>
