<svg width="226" height="60" viewBox="0 0 226 60" fill="none" xmlns="http://www.w3.org/2000/svg">
<path d="M29.9984 0C30.5512 1.29533 31.1261 2.58755 31.5152 3.93822C32.43 7.03783 32.8812 10.2949 32.5242 13.509C32.335 15.212 31.8903 16.8931 31.154 18.4573C31.5168 18.4994 31.8796 18.5509 32.2416 18.6039C33.5217 15.233 34.1261 11.6455 34.1245 8.06583C34.7576 8.06505 35.3907 8.06505 36.0238 8.06583C36.0262 9.97922 35.8542 11.8903 35.543 13.7795C36.4472 12.0719 37.4996 10.4352 38.6798 8.8873C39.1949 9.23724 39.706 9.5942 40.2179 9.94804C38.0065 12.8489 36.2629 16.0904 35.2342 19.5438C35.561 19.6966 35.8829 19.8595 36.199 20.0309C36.7379 17.5618 37.9566 15.2642 39.5266 13.2472C41.1261 11.188 43.0729 9.38533 45.2056 7.82968C46.2621 7.0503 47.4201 6.40964 48.5422 5.72145C48.1654 7.0994 47.8403 8.49371 47.3014 9.82568C46.2498 12.5192 44.8165 15.0982 42.9017 17.3296C41.5455 18.9125 39.9189 20.2959 38.0549 21.3153C38.3219 21.5499 38.5856 21.7892 38.8395 22.0378C41.973 20.0379 44.6708 17.4558 46.8919 14.5612C47.4005 14.9174 47.9148 15.2665 48.4242 15.6227C47.258 17.1675 45.9361 18.5984 44.5414 19.9577C46.3178 19.0941 48.1654 18.3654 50.0614 17.7746C50.267 18.3467 50.466 18.9219 50.6495 19.5009C47.0704 20.5944 43.6699 22.2498 40.7019 24.4516C40.8706 24.761 41.0295 25.0759 41.1875 25.3915C43.493 23.4033 46.3939 22.1391 49.3882 21.4128C52.43 20.6895 55.5979 20.4097 58.7256 20.6521C59.145 20.6778 59.5651 20.6981 59.9853 20.7316C59.2064 21.3637 58.4202 21.9895 57.6093 22.5842C55.4505 24.0993 53.0844 25.3564 50.5749 26.2644C47.8198 27.2535 44.8387 27.7858 41.8935 27.4779C41.9648 27.8185 42.0254 28.1607 42.0794 28.5036C45.8428 28.6291 49.62 28.0702 53.1941 26.9534C53.4054 27.5231 53.5921 28.1014 53.7895 28.6766C51.8796 29.2611 49.923 29.7179 47.9378 29.9992C49.9189 30.3071 51.8804 30.735 53.7887 31.3327C53.6011 31.9056 53.3931 32.4722 53.2121 33.0474C49.6249 31.957 45.8518 31.367 42.0803 31.4988C42.027 31.844 41.9648 32.1885 41.8943 32.5307C44.7314 32.2329 47.6077 32.7146 50.276 33.6366C52.6011 34.4417 54.7993 35.5617 56.8362 36.8952C57.9509 37.6153 58.959 38.4688 60 39.2809C58.783 39.3448 57.5667 39.4594 56.3464 39.4453C53.7838 39.4103 51.2162 39.0977 48.7486 38.4298C45.9836 37.6894 43.3251 36.4595 41.1851 34.6147C41.0328 34.9304 40.8731 35.2429 40.7068 35.5523C43.674 37.7619 47.0803 39.4056 50.6552 40.5193C50.4562 41.0898 50.2662 41.6635 50.0663 42.2347C48.1605 41.6448 46.3055 40.909 44.5209 40.0416C45.9337 41.3938 47.2514 42.838 48.4234 44.3858C47.914 44.742 47.4005 45.0935 46.8894 45.4481C44.6732 42.5504 41.9722 39.9722 38.8411 37.9715C38.5856 38.2186 38.321 38.4571 38.0581 38.6956C40.1425 39.8327 41.9222 41.4296 43.3726 43.244C45.0262 45.311 46.2981 47.639 47.2563 50.0675C47.819 51.4338 48.1556 52.8686 48.5422 54.2856C47.4193 53.6005 46.2645 52.9575 45.208 52.1797C43.1638 50.6879 41.2916 48.9717 39.7289 47.0194C38.0622 44.9384 36.76 42.5535 36.199 39.9784C35.8812 40.1491 35.5594 40.3128 35.2334 40.4671C36.2654 43.919 38.0065 47.1604 40.2187 50.0613C39.7043 50.4136 39.1966 50.7729 38.679 51.1213C37.5004 49.5719 36.4447 47.9359 35.5422 46.2252C35.8542 48.1167 36.027 50.0294 36.0238 51.9443C35.3907 51.9451 34.7576 51.9451 34.1253 51.9443C34.1261 48.3646 33.5266 44.7779 32.2498 41.4063C31.8845 41.4554 31.5201 41.5084 31.154 41.552C32.3907 44.1668 32.774 47.0841 32.6143 49.9296C32.4701 52.44 31.9459 54.9286 31.1073 57.3119C30.7699 58.2183 30.3817 59.1068 30.0082 60C29.5749 59.0211 29.1548 58.0344 28.7961 57.029C27.8051 54.0821 27.2563 50.981 27.3726 47.8822C27.4496 45.7077 27.9255 43.5433 28.8403 41.5466C28.4816 41.5084 28.1245 41.4608 27.769 41.4016C26.475 44.7701 25.8796 48.363 25.8788 51.9443C25.2457 51.9451 24.6134 51.9451 23.9803 51.9443C23.9771 50.0286 24.1458 48.1152 24.4652 46.2244C23.5545 47.932 22.5078 49.575 21.3202 51.1221C20.8108 50.7643 20.2948 50.4167 19.7871 50.059C21.9975 47.1589 23.7355 43.9182 24.7707 40.4687C24.4447 40.3128 24.1229 40.1483 23.8051 39.9777C23.2703 42.4187 22.0745 44.6929 20.5283 46.6936C18.9345 48.7605 16.9918 50.571 14.8608 52.1337C13.7854 52.9326 12.6085 53.5911 11.4619 54.2887C11.8501 52.8632 12.1884 51.4198 12.7551 50.0457C13.7912 47.4309 15.1876 44.9267 17.0393 42.7507C18.4095 41.1389 20.0549 39.7244 21.9509 38.694C21.683 38.461 21.4218 38.2209 21.1695 37.9723C18.0303 39.9652 15.3325 42.5504 13.1147 45.4481C12.6028 45.0943 12.0917 44.7389 11.5799 44.3858C12.7477 42.8427 14.0639 41.407 15.4652 40.0533C13.6814 40.909 11.837 41.6549 9.93284 42.2324C9.74201 41.6588 9.54136 41.0875 9.35053 40.5131C12.9279 39.4126 16.3235 37.7556 19.2957 35.5586C19.1343 35.2452 18.9722 34.9327 18.8206 34.6155C16.5487 36.5718 13.6986 37.8312 10.7518 38.5607C7.68141 39.3089 4.4783 39.5989 1.31695 39.3596C0.877968 39.3339 0.438984 39.3082 0 39.2809C1.06306 38.4594 2.08599 37.5865 3.22441 36.857C5.66093 35.2741 8.32514 33.9811 11.163 33.1931C13.4079 32.5657 15.7772 32.2875 18.1106 32.5299C18.0393 32.1901 17.9762 31.8495 17.9247 31.5065C14.1581 31.3733 10.3825 31.9469 6.80262 33.0528C6.60524 32.48 6.40704 31.9079 6.21704 31.3335C8.12203 30.7396 10.0794 30.3118 12.0557 29.9992C10.0753 29.7101 8.12367 29.2596 6.21704 28.6774C6.40622 28.1022 6.60606 27.5301 6.8018 26.9565C10.3817 28.0593 14.1532 28.6345 17.9189 28.5129C17.9762 28.1677 18.0385 27.8224 18.1097 27.4795C14.6634 27.8357 11.1916 27.0508 8.05078 25.7266C5.55119 24.6581 3.181 23.2887 1.09746 21.5905C0.732186 21.3021 0.363635 21.0176 0.000817301 20.7277C1.38984 20.6568 2.77969 20.5188 4.17281 20.5734C7.50532 20.6755 10.855 21.2319 13.9361 22.4735C15.7142 23.1905 17.3866 24.1601 18.8206 25.3954C18.9689 25.0805 19.1245 24.7696 19.2998 24.4672C16.3423 22.2444 12.9271 20.603 9.34971 19.4947C9.54218 18.9219 9.74037 18.3506 9.93366 17.7777C11.8387 18.3521 13.6798 19.1019 15.4644 19.9538C14.0614 18.6023 12.7494 17.1643 11.5799 15.6243C12.0909 15.2689 12.6028 14.915 13.1155 14.5612C14.7961 16.7559 16.7461 18.7707 18.9599 20.4876C19.6765 21.0301 20.3948 21.5803 21.1777 22.0347C21.4218 21.7814 21.6863 21.5468 21.9533 21.3153C18.629 19.5095 16.1482 16.5712 14.3735 13.3914C13.2948 11.432 12.4103 9.36506 11.8632 7.21241C11.7297 6.7136 11.5921 6.21636 11.4611 5.71755C12.7559 6.50317 14.0819 7.25138 15.2735 8.17884C17.4824 9.85763 19.484 11.8053 21.0655 14.0414C22.344 15.8495 23.3309 17.8658 23.7961 20.0075C24.1327 19.8743 24.4455 19.6942 24.7715 19.5399C23.7363 16.0896 21.9975 12.8497 19.7879 9.94882C20.294 9.59342 20.8092 9.24893 21.3112 8.88886C22.5143 10.4227 23.5463 12.075 24.4636 13.7779C24.1458 11.8895 23.9771 9.97844 23.9803 8.06583C24.6134 8.06505 25.2457 8.06505 25.8788 8.06583C25.8788 11.6471 26.4767 15.2393 27.7682 18.6078C28.1237 18.547 28.4808 18.4994 28.8403 18.4659C28.2252 17.0903 27.778 15.6453 27.5651 14.1622C27.0565 10.715 27.5176 7.19214 28.5119 3.86028C28.8943 2.53611 29.4709 1.27507 29.9984 0ZM30.0016 16.2618C31.1138 12.8131 30.8354 9.10553 30.0074 5.62948C29.1532 9.10085 28.8968 12.8131 30.0016 16.2618ZM14.955 10.2917C15.4218 11.3618 15.9623 12.4023 16.5749 13.4038C17.8559 15.4918 19.4693 17.4317 21.5152 18.8868C21.0753 17.6569 20.4578 16.4894 19.7199 15.3983C18.4169 13.4786 16.774 11.7796 14.955 10.2917ZM42.4677 12.6969C40.7658 14.5082 39.3129 16.5759 38.4898 18.8899C39.5274 18.1487 40.4627 17.2836 41.2916 16.3351C42.8722 14.5261 44.1007 12.4553 45.0557 10.2902C44.14 11.0384 43.2719 11.8404 42.4677 12.6969ZM28.8665 20.2733C27.5839 20.4081 26.3342 20.7885 25.1949 21.3613C22.7584 22.5881 20.864 24.7742 20.1179 27.3041C19.2195 30.2362 19.864 33.5633 21.8575 35.9646C23.5061 38.0144 26.0344 39.3994 28.7265 39.7189C31.6961 40.0953 34.8002 39.118 36.9836 37.175C38.8182 35.5741 40.0049 33.3225 40.2318 30.9625C40.5397 28.1669 39.4939 25.2676 37.4316 23.2521C35.2645 21.0714 32.0041 19.9187 28.8665 20.2733ZM5.6552 22.4774C6.43079 22.9216 7.22359 23.3402 8.03931 23.7127C10.6036 24.8841 13.3939 25.7189 16.2572 25.7555C15.7158 25.3829 15.1409 25.0564 14.552 24.7586C11.8051 23.394 8.72809 22.7213 5.6552 22.4774ZM51.5872 22.8211C48.8108 23.3098 46.0606 24.1952 43.7404 25.7578C44.8051 25.7438 45.8665 25.6238 46.9075 25.4102C49.5487 24.8662 52.0508 23.8062 54.3554 22.4758C53.4275 22.5491 52.5029 22.659 51.5872 22.8211ZM13.5168 34.5212C10.7281 35.0348 8.08272 36.1298 5.66339 37.5312C9.38821 37.2249 13.1712 36.3138 16.2695 34.2508C15.3456 34.2648 14.4242 34.3552 13.5168 34.5212ZM43.7338 34.25C44.896 35.0278 46.1695 35.6466 47.4979 36.1228C49.6896 36.9053 52.0065 37.3496 54.3366 37.5281C53.4504 37.0098 52.5315 36.5421 51.588 36.1259C49.1278 35.041 46.4611 34.2874 43.7338 34.25ZM38.4873 41.1187C39.0344 42.6541 39.8608 44.0897 40.8509 45.4061C42.0549 46.9991 43.4791 48.4394 45.0483 49.7106C44.4578 48.3669 43.7568 47.0654 42.9361 45.8347C41.7428 44.0437 40.2776 42.3945 38.4873 41.1187ZM18.7707 43.6111C17.1679 45.4341 15.9173 47.5221 14.9574 49.7121C15.9042 48.9343 16.8026 48.1027 17.6314 47.2103C19.2907 45.4255 20.7019 43.3913 21.5127 41.1241C20.4971 41.8435 19.5848 42.6899 18.7707 43.6111ZM29.602 45.2455C28.9861 48.2672 29.2695 51.3956 29.9992 54.3752C30.1638 53.7018 30.3112 53.0245 30.421 52.341C30.8796 49.5095 30.9091 46.5533 30.0123 43.7943C29.8084 44.258 29.7158 44.7568 29.602 45.2455Z" fill="#756020"/>
<path fill-rule="evenodd" clip-rule="evenodd" d="M31.5741 24.3884C31.0254 24.5326 30.4562 24.595 29.8878 24.5942C28.4701 24.5934 27.0524 24.5926 25.6347 24.5942C24.9934 24.6059 24.3481 24.5529 23.7281 24.3908C23.7284 24.6808 23.7283 24.9709 23.7282 25.2609C23.7281 25.6473 23.728 26.0335 23.7289 26.4195L23.837 26.4156L23.839 26.3883C23.8604 26.0912 23.8833 25.7722 24.0852 25.5294C24.3055 25.2333 24.6912 25.0984 25.0622 25.0914C25.445 25.0828 25.8278 25.085 26.2109 25.0871C26.3827 25.0881 26.5545 25.0891 26.7264 25.0891C26.7248 27.3344 26.7256 29.5797 26.7264 31.8242V31.8339C26.7363 32.0887 26.6437 32.3553 26.421 32.5104C26.321 32.5958 26.1944 32.621 26.0678 32.6462C25.9495 32.6698 25.8312 32.6934 25.7346 32.766C26.3712 32.7889 27.0085 32.7857 27.6459 32.7825C28.0927 32.7802 28.5395 32.778 28.9861 32.7847C29.0289 32.7835 29.0726 32.7842 29.1164 32.7849C29.2718 32.7873 29.4298 32.7898 29.5659 32.7083C29.5042 32.6946 29.4401 32.6849 29.3756 32.6751C29.1908 32.647 29.0028 32.6184 28.8608 32.4948C28.6519 32.3374 28.5594 32.0825 28.5708 31.8346C28.5714 31.0247 28.5711 30.2147 28.5707 29.4047C28.57 27.9654 28.5694 26.5261 28.5741 25.0868C28.7955 25.0886 29.017 25.0876 29.2384 25.0866C29.5657 25.0851 29.893 25.0835 30.2203 25.0914C30.5889 25.0961 30.973 25.2255 31.1998 25.5146C31.3822 25.7253 31.4181 25.9949 31.4532 26.2585C31.463 26.3324 31.4728 26.4057 31.4857 26.4772C31.5761 26.388 31.5761 26.2659 31.5761 26.1489C31.5761 26.1207 31.5761 26.0928 31.5774 26.0657C31.5722 25.5627 31.573 25.0591 31.5739 24.556C31.5739 24.5002 31.574 24.4443 31.5741 24.3884ZM31.439 27.5134C30.6069 27.5089 29.7748 27.5045 28.9443 27.5356C29.0474 27.6007 29.1681 27.6259 29.2884 27.651C29.4357 27.6817 29.5826 27.7123 29.6962 27.8162C29.914 27.9712 29.9525 28.2433 29.9419 28.4841C29.9375 29.4366 29.9386 30.3892 29.9398 31.3417C29.9413 32.5184 29.9427 33.6952 29.9337 34.8719C29.9296 35.3684 29.3956 35.6092 28.9394 35.6209C29.0295 35.6684 29.1278 35.7004 29.2334 35.6941C29.3858 35.6939 29.5382 35.6937 29.6905 35.6934C30.6037 35.6919 31.5168 35.6904 32.43 35.6957C32.5536 35.6973 32.6822 35.6856 32.7912 35.6232C32.7228 35.6063 32.6512 35.5947 32.5794 35.5832C32.3905 35.5527 32.1994 35.522 32.0581 35.391C31.8501 35.2273 31.7715 34.967 31.7846 34.7184C31.7859 33.498 31.7858 32.2779 31.7857 31.0578C31.7856 30.0415 31.7855 29.0251 31.7862 28.0087C31.9112 28.0121 32.0392 28.0096 32.1683 28.0072C32.6291 27.9983 33.103 27.9893 33.4939 28.2456C34.0393 28.601 34.2162 29.2791 34.1785 29.8768C34.1507 30.4972 33.8452 31.1488 33.249 31.452C32.9755 31.6124 32.6577 31.6525 32.3448 31.6919C32.2792 31.7002 32.2138 31.7084 32.1491 31.7177C33.0008 32.4153 34.3776 32.367 35.2375 31.7014C36.353 30.8939 36.4816 29.1021 35.4341 28.1957C34.7862 27.6244 33.855 27.5075 33.0066 27.513C32.4843 27.519 31.9616 27.5162 31.439 27.5134Z" fill="#C32215"/>
<path d="M84.6272 12.1995C84.5444 12.356 84.4891 12.4619 84.4615 12.5171L83.5224 14.1743C83.2002 14.7636 82.901 15.5001 82.6248 16.3839L82.5972 16.453L82.4591 16.3563L82.4176 16.1768C82.1506 15.1272 81.7686 14.3999 81.2714 13.9948C80.7834 13.5897 80.0331 13.3872 79.0204 13.3872C78.6061 13.3872 78.1918 13.4056 77.7775 13.4424H77.6117V28.4124L79.2413 29.9177H72.9302L74.8636 28.302V14.561L73.8831 14.5472C72.9348 14.5472 72.2581 14.7359 71.853 15.1134C71.4571 15.4817 71.2223 16.1354 71.1487 17.0744H70.7896C70.8909 15.9973 71.1671 15.2469 71.6182 14.8234C72.0785 14.3999 72.8335 14.1882 73.8831 14.1882L74.7117 14.202H74.8636V13.5253C74.394 13.47 73.9475 13.4424 73.524 13.4424C72.3363 13.4424 71.4801 13.6864 70.9553 14.1743C70.4306 14.6531 70.1405 15.4679 70.0853 16.6187H69.9196C69.5237 15.339 68.9115 13.912 68.0829 12.3376L68 12.1995H84.6272ZM85.4972 13.0695C84.862 13.8797 84.1945 15.2239 83.4948 17.1021L83.4396 17.2402L83.1357 16.9778L83.1772 16.8535C83.8585 14.9477 84.5167 13.6219 85.152 12.8762L85.221 12.7933L85.4972 13.0695ZM81.81 15.2239C81.1011 14.7636 80.2725 14.5334 79.3242 14.5334C79.1124 14.5334 78.8915 14.5472 78.6613 14.5748L78.7165 28.4539L80.9123 31.0501H73.8554L73.5378 30.6773H80.1528L78.3022 28.5643V14.1743L79.048 14.1605C79.941 14.1605 80.5717 14.2342 80.94 14.3815C81.3174 14.5196 81.6074 14.8004 81.81 15.2239Z" fill="#C11315"/>
<path d="M85.9392 12.1995H92.4299L90.5517 14.0362V20.0022C90.7635 20.039 91.012 20.0666 91.2974 20.085V14.1743L92.8027 12.6829L93.0789 12.9314L91.6565 14.3401V20.0988L92.1122 20.1403C92.8211 20.2047 93.507 20.2369 94.1699 20.2369C95.1274 20.2369 95.9514 20.1909 96.6419 20.0988V13.7462L94.9571 12.1995H101.337L99.4315 14.0362V28.4262L101.103 29.9177H94.7499L96.6419 28.302V22.4465C95.8685 22.6307 95.0722 22.7227 94.2528 22.7227C93.4794 22.7227 92.6784 22.6813 91.8498 22.5984L91.6565 22.5846V28.4262L93.9351 31.0501H86.7954L86.4363 30.6773H93.1756L91.2974 28.6196V22.267L91.6979 22.2946C92.9132 22.3867 93.7924 22.4327 94.3356 22.4327C95.2195 22.4327 95.9882 22.313 96.6419 22.0737V21.5765C95.7765 21.7054 94.7683 21.7698 93.6175 21.7698C93.0007 21.7698 92.5495 21.756 92.2641 21.7284L90.8693 21.6041C90.8141 21.5949 90.7082 21.5857 90.5517 21.5765V28.4262L92.3194 29.9177H85.9392L87.7897 28.302V22.267C87.0163 22.267 86.3995 22.5708 85.9392 23.1784L85.6492 23.0403C86.1831 22.3683 86.8967 21.9954 87.7897 21.9217V21.4108C86.7586 21.4108 85.9438 21.8021 85.3453 22.5846L85.1382 22.4465C85.6814 21.1208 86.5652 20.3382 87.7897 20.0988V13.8843L85.9392 12.1995ZM101.917 12.9729L100.509 14.3401V28.4262L102.801 31.0501H95.6338L95.2885 30.6773H102.014L100.163 28.592V14.202L101.696 12.6829L101.917 12.9729Z" fill="#C11315"/>
<path d="M103.367 12.1995H109.913L108.063 14.0777V28.4539L109.803 29.9177H103.367L105.287 28.3296V13.9258L103.367 12.1995ZM110.535 12.9867L109.126 14.3815V28.4539L111.446 31.0501H104.265L103.92 30.6773H110.631L108.739 28.592V14.2572L110.3 12.7105L110.535 12.9867Z" fill="#C11315"/>
<path d="M127.77 12.1995C126.72 12.7427 126.043 13.2399 125.74 13.691C125.279 14.3907 125.049 15.4449 125.049 16.8535V29.9177H122.715L116.197 17.2678V24.7666L116.183 25.388L116.349 27.3767C116.533 28.2973 116.952 28.9786 117.605 29.4206L117.716 29.5172C116.445 29.0937 115.81 27.7357 115.81 25.4433L115.824 24.1451V16.5911L115.078 15.141V23.0956C115.078 25.6182 115.244 27.2708 115.575 28.0534C115.907 28.8359 116.685 29.4068 117.909 29.7658L119.111 31.0501H111.626L111.405 30.6773H118.324L117.605 29.9177H111.17C112.293 29.5126 113.039 28.9694 113.407 28.2881C113.775 27.6068 113.96 26.4376 113.96 24.7804V13.7324L112.123 12.1995H119.111L117.15 13.5115L123.834 26.5481V24.8909L118.103 13.7324L120.036 12.4205L120.298 12.6829L118.586 13.8429L123.834 24.1451V16.964C123.834 15.362 123.7 14.294 123.433 13.76C123.175 13.2168 122.531 12.6967 121.5 12.1995H127.77ZM128.253 13.2215L128.004 13.6358C127.295 13.8015 126.812 14.1099 126.554 14.561C126.306 15.0029 126.181 15.7533 126.181 16.812V31.0501H123.212L123.033 30.6773H125.809V16.9501C125.809 15.652 125.974 14.7498 126.306 14.2434C126.646 13.7278 127.295 13.3872 128.253 13.2215Z" fill="#C11315"/>
<path d="M129.33 12.1995H135.821L133.943 14.0362V20.0022C134.154 20.039 134.403 20.0666 134.688 20.085V14.1743L136.194 12.6829L136.47 12.9314L135.047 14.3401V20.0988L135.503 20.1403C136.212 20.2047 136.898 20.2369 137.561 20.2369C138.518 20.2369 139.342 20.1909 140.033 20.0988V13.7462L138.348 12.1995H144.728L142.822 14.0362V28.4262L144.493 29.9177H138.141L140.033 28.302V22.4465C139.26 22.6307 138.463 22.7227 137.644 22.7227C136.87 22.7227 136.069 22.6813 135.241 22.5984L135.047 22.5846V28.4262L137.326 31.0501H130.186L129.827 30.6773H136.567L134.688 28.6196V22.267L135.089 22.2946C136.304 22.3867 137.183 22.4327 137.727 22.4327C138.61 22.4327 139.379 22.313 140.033 22.0737V21.5765C139.167 21.7054 138.159 21.7698 137.008 21.7698C136.392 21.7698 135.941 21.756 135.655 21.7284L134.26 21.6041C134.205 21.5949 134.099 21.5857 133.943 21.5765V28.4262L135.71 29.9177H129.33L131.181 28.302V22.267C130.407 22.267 129.79 22.5708 129.33 23.1784L129.04 23.0403C129.574 22.3683 130.288 21.9954 131.181 21.9217V21.4108C130.15 21.4108 129.335 21.8021 128.736 22.5846L128.529 22.4465C129.072 21.1208 129.956 20.3382 131.181 20.0988V13.8843L129.33 12.1995ZM145.308 12.9729L143.9 14.3401V28.4262L146.192 31.0501H139.025L138.679 30.6773H145.405L143.554 28.592V14.202L145.087 12.6829L145.308 12.9729Z" fill="#C11315"/>
<path d="M154.602 12.1995H160.803C163.436 12.1995 165.31 12.5632 166.424 13.2905C167.842 14.202 168.55 15.4679 168.55 17.0882C168.55 18.0734 168.279 18.9296 167.736 19.6569C167.192 20.3842 166.433 20.909 165.457 21.2312C164.481 21.5535 162.93 21.7146 160.803 21.7146H159.104V28.3986L160.789 29.9177H154.368L156.287 28.302V22.7642C156.177 22.7549 156.098 22.7503 156.052 22.7503C155.39 22.7503 154.754 22.893 154.147 23.1784L154.022 22.9299C154.639 22.58 155.192 22.4051 155.68 22.4051H156.177L156.287 22.3913V21.7146C156.075 21.687 155.933 21.6732 155.859 21.6732C154.874 21.6732 154.087 21.9125 153.498 22.3913L153.359 22.1841C153.921 21.153 154.823 20.6374 156.066 20.6374H156.287V13.8705L154.602 12.1995ZM159.104 13.6219V20.5407H159.284L159.643 20.5546C159.68 20.5546 159.74 20.5499 159.823 20.5407V14.3815H161.342C162.52 14.3815 163.349 14.4874 163.827 14.6991C164.315 14.9017 164.73 15.3298 165.07 15.9834C164.73 15.5139 164.302 15.1871 163.786 15.0029C163.28 14.8096 162.562 14.7129 161.632 14.7129H160.209V20.5407C162.032 20.5407 163.367 20.2737 164.214 19.7398C165.07 19.2058 165.498 18.368 165.498 17.2263C165.498 15.9466 165.116 15.0168 164.352 14.4367C163.597 13.8567 162.377 13.5667 160.693 13.5667C160.26 13.5667 159.73 13.5851 159.104 13.6219ZM167.846 13.6772C168.408 13.9534 168.859 14.4413 169.2 15.141C169.54 15.8315 169.711 16.6187 169.711 17.5025C169.711 19.5004 168.937 20.9366 167.39 21.8113C166.221 22.4741 164.223 22.8056 161.397 22.8056C160.927 22.8056 160.531 22.7964 160.209 22.778V28.4815L162.377 31.0501H155.459L155.086 30.6773H161.59L159.823 28.6334V22.4051C160.624 22.4511 161.475 22.4741 162.377 22.4741C164.753 22.4741 166.516 22.0552 167.667 21.2174C168.817 20.3796 169.393 19.0953 169.393 17.3644C169.393 16.6463 169.282 16.0249 169.061 15.5001C168.84 14.9661 168.435 14.3585 167.846 13.6772Z" fill="#C11315"/>
<path d="M170.898 12.1995H177.389L175.511 14.0362V20.0022C175.722 20.039 175.971 20.0666 176.256 20.085V14.1743L177.762 12.6829L178.038 12.9314L176.616 14.3401V20.0988L177.071 20.1403C177.78 20.2047 178.466 20.2369 179.129 20.2369C180.086 20.2369 180.91 20.1909 181.601 20.0988V13.7462L179.916 12.1995H186.296L184.391 14.0362V28.4262L186.062 29.9177H179.709L181.601 28.302V22.4465C180.828 22.6307 180.031 22.7227 179.212 22.7227C178.438 22.7227 177.637 22.6813 176.809 22.5984L176.616 22.5846V28.4262L178.894 31.0501H171.754L171.395 30.6773H178.135L176.256 28.6196V22.267L176.657 22.2946C177.872 22.3867 178.751 22.4327 179.295 22.4327C180.178 22.4327 180.947 22.313 181.601 22.0737V21.5765C180.735 21.7054 179.727 21.7698 178.577 21.7698C177.96 21.7698 177.509 21.756 177.223 21.7284L175.828 21.6041C175.773 21.5949 175.667 21.5857 175.511 21.5765V28.4262L177.278 29.9177H170.898L172.749 28.302V22.267C171.975 22.267 171.359 22.5708 170.898 23.1784L170.608 23.0403C171.142 22.3683 171.856 21.9954 172.749 21.9217V21.4108C171.718 21.4108 170.903 21.8021 170.304 22.5846L170.097 22.4465C170.64 21.1208 171.524 20.3382 172.749 20.0988V13.8843L170.898 12.1995ZM186.876 12.9729L185.468 14.3401V28.4262L187.76 31.0501H180.593L180.248 30.6773H186.973L185.122 28.592V14.202L186.655 12.6829L186.876 12.9729Z" fill="#C11315"/>
<path d="M201.114 12.1995L199.678 13.8291L201.943 19.8502L202.495 19.5464L200.452 14.1053L201.915 12.4205L202.274 12.5724L200.88 14.1882L202.813 19.3393C202.924 19.2564 202.988 19.2058 203.006 19.1874L203.462 18.8007C203.738 18.5797 203.913 18.4232 203.987 18.3311C204.226 19.3807 204.595 20.3198 205.092 21.1484C204.825 21.13 204.631 21.1208 204.512 21.1208C203.637 21.1208 202.997 21.2589 202.592 21.5351L205.092 28.3158L207.163 29.9177H200.189L202.095 28.3158L200.562 24.2832C199.549 25.3052 198.771 26.2765 198.228 27.1972L197.91 27.1143C198.454 26.212 199.264 25.2039 200.341 24.0899L200.452 23.9518L200.189 23.3442C199.094 24.2556 198.187 25.3144 197.469 26.5205L197.22 26.12C196.741 25.3558 196.129 24.4858 195.383 23.5099L195.245 23.3442C194.536 24.9185 194.182 26.1982 194.182 27.1833C194.182 27.7634 194.278 28.2559 194.472 28.661C194.674 29.0569 195.153 29.7244 195.908 30.6635C195.972 30.7463 196.074 30.8752 196.212 31.0501H188.754L188.478 30.6773H195.508L195.273 30.3873C194.665 29.6507 194.265 29.0799 194.071 28.6748C193.887 28.2605 193.795 27.7772 193.795 27.2248C193.795 26.2857 194.177 24.8863 194.941 23.0265L194.334 22.3913C194.214 22.6859 194.062 23.1186 193.878 23.6894L193.422 25.098C193.174 25.853 193.049 26.479 193.049 26.9762C193.049 27.4918 193.137 27.9199 193.312 28.2605C193.487 28.6012 193.855 29.0661 194.417 29.6553C194.472 29.7106 194.555 29.798 194.665 29.9177H187.76C189.077 29.2364 190.117 28.3204 190.881 27.1695C191.655 26.0187 192.419 24.2418 193.174 21.8389L193.229 21.6455C192.741 21.2312 192.037 20.9781 191.116 20.886C191.622 20.131 192.014 19.3439 192.29 18.5245C192.419 18.6442 192.497 18.7178 192.525 18.7454L193.146 19.3255C193.358 19.528 193.611 19.7352 193.906 19.9469L194.154 19.3393L193.988 19.2012C193.528 18.7961 193.141 18.4692 192.828 18.2207L192.704 18.124L192.925 17.8202C193.413 18.1424 193.883 18.5153 194.334 18.9388L196.212 13.7739L194.748 12.1995H201.114ZM197.703 16.6325L196.184 20.6374C196.267 20.7295 196.313 20.7847 196.322 20.8031L196.889 21.4384C197.192 21.7698 197.579 22.2854 198.049 22.9851L198.187 23.1923C198.583 22.6951 199.052 22.2025 199.595 21.7146L197.703 16.6325ZM197.082 15.0306L194.886 20.8308C195.586 21.5489 196.189 22.2578 196.695 22.9575L197.33 23.8413C197.34 23.8505 197.386 23.9104 197.469 24.0209C197.551 23.938 197.597 23.8874 197.607 23.8689L197.8 23.6342C197.828 23.5974 197.878 23.5375 197.952 23.4546C197.307 22.4603 196.557 21.5627 195.701 20.7617L197.469 16.0939L197.082 15.0306ZM205.202 18.994C205.405 19.8226 205.911 20.9596 206.721 22.4051C206.519 22.3775 206.404 22.3637 206.376 22.3637L205.257 22.267C204.751 22.221 204.383 22.1979 204.153 22.1979C204.116 22.1979 204.024 22.2025 203.876 22.2118L206.183 28.3296L209.262 31.0501H201.266L201.004 30.6773H208.337L205.851 28.4815L203.393 21.977C203.706 21.8941 204.065 21.8527 204.47 21.8527C204.967 21.8527 205.52 21.8941 206.127 21.977L205.962 21.6732C205.372 20.5868 204.977 19.6063 204.774 18.7316L205.202 18.994ZM202.371 6.68933L199.001 9.42371H197.538L199.554 6.68933H202.371ZM198.131 10.5837L197.814 10.1971H199.512L202.91 7.44888L203.172 7.78032L199.706 10.5837H198.131Z" fill="#C11315"/>
<path d="M225.13 12.1995C225.047 12.356 224.992 12.4619 224.964 12.5171L224.025 14.1743C223.703 14.7636 223.404 15.5001 223.128 16.3839L223.1 16.453L222.962 16.3563L222.92 16.1768C222.653 15.1272 222.271 14.3999 221.774 13.9948C221.286 13.5897 220.536 13.3872 219.523 13.3872C219.109 13.3872 218.695 13.4056 218.28 13.4424H218.115V28.4124L219.744 29.9177H213.433L215.366 28.302V14.561L214.386 14.5472C213.438 14.5472 212.761 14.7359 212.356 15.1134C211.96 15.4817 211.725 16.1354 211.651 17.0744H211.292C211.394 15.9973 211.67 15.2469 212.121 14.8234C212.581 14.3999 213.336 14.1882 214.386 14.1882L215.214 14.202H215.366V13.5253C214.897 13.47 214.45 13.4424 214.027 13.4424C212.839 13.4424 211.983 13.6864 211.458 14.1743C210.933 14.6531 210.643 15.4679 210.588 16.6187H210.422C210.026 15.339 209.414 13.912 208.586 12.3376L208.503 12.1995H225.13ZM226 13.0695C225.365 13.8797 224.697 15.2239 223.998 17.1021L223.942 17.2402L223.638 16.9778L223.68 16.8535C224.361 14.9477 225.019 13.6219 225.655 12.8762L225.724 12.7933L226 13.0695ZM222.313 15.2239C221.604 14.7636 220.775 14.5334 219.827 14.5334C219.615 14.5334 219.394 14.5472 219.164 14.5748L219.219 28.4539L221.415 31.0501H214.358L214.041 30.6773H220.656L218.805 28.5643V14.1743L219.551 14.1605C220.444 14.1605 221.074 14.2342 221.443 14.3815C221.82 14.5196 222.11 14.8004 222.313 15.2239Z" fill="#C11315"/>
<path d="M106.785 32.6153C107.282 32.6153 107.706 32.7902 108.055 33.1401C108.405 33.4899 108.58 33.9134 108.58 34.4106C108.58 34.8986 108.405 35.3175 108.055 35.6673C107.706 36.0172 107.282 36.1921 106.785 36.1921C106.297 36.1921 105.878 36.0172 105.528 35.6673C105.178 35.3175 105.003 34.8986 105.003 34.4106C105.003 33.9134 105.178 33.4899 105.528 33.1401C105.878 32.7902 106.297 32.6153 106.785 32.6153ZM109.05 33.1953C109.556 33.6649 109.809 34.2541 109.809 34.963C109.809 35.589 109.574 36.1368 109.105 36.6064C108.645 37.0759 108.106 37.3107 107.489 37.3107C106.743 37.3107 106.14 37.0345 105.68 36.4821L105.777 36.3854C106.366 36.7353 106.9 36.9102 107.379 36.9102C107.959 36.9102 108.451 36.7123 108.856 36.3164C109.271 35.9113 109.478 35.4325 109.478 34.8801C109.478 34.3554 109.294 33.826 108.925 33.292L109.05 33.1953Z" fill="#C11315"/>
<path d="M68.468 50.1417L68.221 48.2437C68.572 48.4907 68.689 48.5427 68.91 48.6597C69.651 49.0367 70.379 49.2317 71.107 49.2317C72.342 49.2317 73.135 48.6987 73.135 47.8667C73.135 47.6457 73.083 47.4507 72.966 47.2687C72.797 46.9697 72.524 46.8137 71.809 46.5797C71.666 46.5407 71.458 46.4627 71.133 46.3457C70.236 46.0337 69.872 45.8777 69.508 45.6437C68.819 45.2277 68.481 44.6687 68.481 43.9537C68.481 42.3807 69.729 41.4837 71.952 41.4837C72.459 41.4837 72.68 41.4967 73.642 41.6397L73.876 41.6787L74.123 43.5377C73.603 43.2127 73.434 43.1217 73.187 43.0177C72.732 42.8227 72.173 42.7057 71.692 42.7057C70.717 42.7057 70.119 43.0957 70.119 43.7067C70.119 43.9537 70.184 44.1357 70.327 44.2787C70.548 44.5387 70.977 44.7467 72.069 45.0847C73.343 45.5007 73.629 45.6567 74.045 46.0077C74.5 46.4237 74.76 47.0217 74.76 47.6977C74.76 49.3747 73.278 50.4667 70.977 50.4667C70.262 50.4667 69.417 50.3627 68.468 50.1417ZM75.5375 50.3107C75.8885 50.1027 75.9925 49.8557 75.9925 49.3227V42.6407C75.9925 42.0817 75.8885 41.8607 75.5375 41.6397H78.0205C77.6695 41.8607 77.5655 42.0817 77.5655 42.6407V49.3227C77.5655 49.8557 77.6695 50.1027 78.0205 50.3107H75.5375ZM78.8002 50.3107C79.1512 50.1027 79.2552 49.8557 79.2552 49.3227V42.7057C79.2552 42.1467 79.1252 41.8607 78.8002 41.6397H80.5682L85.2352 46.8137V42.6407C85.2352 42.0817 85.1312 41.8607 84.7802 41.6397H87.0032C86.6522 41.8607 86.5482 42.0817 86.5482 42.6407V50.4667L80.5682 43.8367V49.3227C80.5682 49.8557 80.6722 50.1027 81.0232 50.3107H78.8002ZM94.9774 41.6657L95.1854 43.3817C94.7174 43.1607 94.5744 43.0827 94.3274 42.9917C93.8594 42.8227 93.3654 42.7317 92.8584 42.7317C90.8694 42.7317 89.5304 44.0317 89.5304 45.9557C89.5304 47.9447 90.9734 49.2187 93.2224 49.2187C93.9374 49.2187 94.5354 49.0497 95.5624 48.5297L95.7184 48.4517L95.2634 50.2717L95.0814 50.2977C94.2364 50.4407 93.7814 50.4667 93.2224 50.4667C89.9984 50.4667 87.8274 48.6727 87.8274 45.9817C87.8274 43.2907 89.9984 41.4837 93.1704 41.4837C93.7164 41.4837 94.1324 41.5227 94.9774 41.6657ZM98.1319 49.0887H100.576C101.603 49.0887 101.928 49.0107 102.435 48.6077L102.513 48.5557L102.123 50.3107H96.1039C96.4549 50.1027 96.5589 49.8557 96.5589 49.3227V42.6407C96.5589 42.0817 96.4549 41.8607 96.1039 41.6397H101.837L101.993 43.2517L101.941 43.2127C101.525 42.9397 101.356 42.8617 100.706 42.8617H98.1319V44.9157H100.732C101.187 44.9157 101.265 44.9027 101.408 44.8377L101.486 46.4497C101.291 46.2807 101.213 46.2417 101.096 46.2027C100.979 46.1637 100.719 46.1377 100.342 46.1377H98.1319V49.0887Z" fill="#C11315"/>
<path d="M112.434 50.3107H109.938C110.289 50.1027 110.393 49.8557 110.393 49.3227V44.0057H108.937V42.9787C109.158 42.9657 109.353 42.9527 109.509 42.9137C109.86 42.8617 110.198 42.7057 110.406 42.5107C110.666 42.2637 110.783 42.0167 110.874 41.4967H111.979V49.3227C111.979 49.8557 112.083 50.1027 112.434 50.3107ZM114.257 50.3627L114.153 48.8937C114.738 49.1017 115.128 49.1797 115.557 49.1797C116.701 49.1797 117.611 48.3477 117.988 46.8917C117.507 47.2167 116.935 47.3857 116.285 47.3857C114.504 47.3857 113.217 46.1897 113.217 44.5127C113.217 42.7447 114.569 41.4707 116.441 41.4707C118.521 41.4707 119.769 42.9007 119.769 45.2407C119.769 48.2957 117.949 50.4797 115.388 50.4797H115.18C115.011 50.4797 114.803 50.4407 114.257 50.3627ZM116.441 42.6797C115.505 42.6797 114.881 43.3817 114.881 44.4217C114.881 45.4097 115.544 46.0987 116.467 46.0987C117.39 46.0987 117.975 45.4357 117.975 44.4087C117.975 43.3817 117.338 42.6797 116.441 42.6797ZM121.633 50.3627L121.529 48.8937C122.114 49.1017 122.504 49.1797 122.933 49.1797C124.077 49.1797 124.987 48.3477 125.364 46.8917C124.883 47.2167 124.311 47.3857 123.661 47.3857C121.88 47.3857 120.593 46.1897 120.593 44.5127C120.593 42.7447 121.945 41.4707 123.817 41.4707C125.897 41.4707 127.145 42.9007 127.145 45.2407C127.145 48.2957 125.325 50.4797 122.764 50.4797H122.556C122.387 50.4797 122.179 50.4407 121.633 50.3627ZM123.817 42.6797C122.881 42.6797 122.257 43.3817 122.257 44.4217C122.257 45.4097 122.92 46.0987 123.843 46.0987C124.766 46.0987 125.351 45.4357 125.351 44.4087C125.351 43.3817 124.714 42.6797 123.817 42.6797ZM127.744 48.4777L128.29 48.7377C129.044 49.0757 129.707 49.2447 130.292 49.2447C131.527 49.2447 132.359 48.5167 132.359 47.4767C132.359 46.4887 131.618 45.8257 130.526 45.8257C130.227 45.8257 129.98 45.8777 129.759 45.9817C129.512 46.0857 129.395 46.2027 129.122 46.5017L128.16 46.1377L128.602 41.6397H133.438L133.646 43.3037C133.321 42.9787 133.113 42.9137 132.45 42.9137H130.006L129.837 44.6817C130.188 44.5907 130.409 44.5647 130.812 44.5647C132.736 44.5647 134.036 45.6827 134.036 47.3987C134.036 49.2317 132.489 50.4797 130.201 50.4797C129.655 50.4797 129.122 50.4147 128.056 50.2457L127.744 48.4777Z" fill="#C11315"/>
</svg>
