<svg width="207" height="30" viewBox="0 0 207 30" fill="none" xmlns="http://www.w3.org/2000/svg">
<path d="M50.728 24V6.24H53.992V21.168H62.824V24H50.728ZM72.2918 24.24C70.8998 24.24 69.7158 23.928 68.7398 23.304C67.7638 22.68 67.0198 21.872 66.5078 20.88C66.0118 19.872 65.7638 18.792 65.7638 17.64C65.7638 16.488 66.0118 15.416 66.5078 14.424C67.0198 13.416 67.7638 12.6 68.7398 11.976C69.7158 11.352 70.8998 11.04 72.2918 11.04C73.6998 11.04 74.8838 11.352 75.8438 11.976C76.8198 12.6 77.5558 13.416 78.0518 14.424C78.5638 15.416 78.8198 16.488 78.8198 17.64C78.8198 18.792 78.5638 19.872 78.0518 20.88C77.5558 21.872 76.8198 22.68 75.8438 23.304C74.8838 23.928 73.6998 24.24 72.2918 24.24ZM72.2918 21.576C73.0118 21.576 73.6118 21.392 74.0918 21.024C74.5878 20.656 74.9638 20.176 75.2198 19.584C75.4758 18.976 75.6038 18.328 75.6038 17.64C75.6038 16.936 75.4758 16.288 75.2198 15.696C74.9638 15.104 74.5878 14.624 74.0918 14.256C73.6118 13.888 73.0118 13.704 72.2918 13.704C71.5878 13.704 70.9878 13.888 70.4918 14.256C69.9958 14.624 69.6198 15.104 69.3638 15.696C69.1078 16.288 68.9798 16.936 68.9798 17.64C68.9798 18.328 69.1078 18.976 69.3638 19.584C69.6198 20.176 69.9958 20.656 70.4918 21.024C70.9878 21.392 71.5878 21.576 72.2918 21.576ZM88.0737 24.24C87.2097 24.24 86.4977 24.112 85.9377 23.856C85.3777 23.6 84.9377 23.264 84.6177 22.848C84.3137 22.432 84.0977 21.976 83.9697 21.48C83.8417 20.984 83.7777 20.496 83.7777 20.016V13.848H81.5937V11.28H83.7777V8.112H86.9697V11.28H89.8257V13.848H86.9697V19.944C86.9697 21.08 87.6097 21.648 88.8897 21.648C89.1937 21.648 89.4737 21.632 89.7297 21.6C90.0017 21.552 90.1377 21.528 90.1377 21.528V24.024C90.1377 24.024 89.9297 24.056 89.5137 24.12C89.1137 24.2 88.6337 24.24 88.0737 24.24ZM97.7359 24.24C96.4079 24.24 95.3999 23.832 94.7119 23.016C94.0399 22.2 93.7039 21.152 93.7039 19.872V11.28H96.8719V19.344C96.8719 20.032 97.0559 20.584 97.4239 21C97.7919 21.4 98.3119 21.6 98.9839 21.6C99.5759 21.6 100.056 21.448 100.424 21.144C100.792 20.84 101.056 20.448 101.216 19.968C101.392 19.488 101.48 18.992 101.48 18.48V11.28H104.672V24H101.48V22.176H101.336C101.176 22.464 100.944 22.768 100.64 23.088C100.352 23.408 99.9679 23.68 99.4879 23.904C99.0239 24.128 98.4399 24.24 97.7359 24.24ZM113.745 24.24C112.705 24.24 111.849 24.104 111.177 23.832C110.505 23.544 109.969 23.192 109.569 22.776C109.185 22.344 108.897 21.92 108.705 21.504C108.513 21.088 108.385 20.744 108.321 20.472C108.273 20.184 108.249 20.04 108.249 20.04H111.273C111.273 20.04 111.297 20.128 111.345 20.304C111.409 20.48 111.521 20.688 111.681 20.928C111.857 21.152 112.121 21.352 112.473 21.528C112.825 21.704 113.289 21.792 113.865 21.792C114.553 21.792 115.049 21.648 115.353 21.36C115.657 21.056 115.809 20.72 115.809 20.352C115.809 20 115.673 19.72 115.401 19.512C115.145 19.288 114.761 19.12 114.249 19.008L112.497 18.648C111.793 18.504 111.137 18.296 110.529 18.024C109.921 17.736 109.425 17.352 109.041 16.872C108.657 16.376 108.465 15.744 108.465 14.976C108.465 13.84 108.897 12.904 109.761 12.168C110.625 11.416 111.801 11.04 113.289 11.04C114.233 11.04 115.009 11.168 115.617 11.424C116.241 11.68 116.737 12 117.105 12.384C117.489 12.768 117.769 13.152 117.945 13.536C118.137 13.92 118.257 14.248 118.305 14.52C118.369 14.776 118.401 14.904 118.401 14.904H115.473C115.473 14.904 115.449 14.832 115.401 14.688C115.353 14.528 115.249 14.352 115.089 14.16C114.945 13.968 114.721 13.8 114.417 13.656C114.129 13.496 113.737 13.416 113.241 13.416C112.569 13.416 112.089 13.56 111.801 13.848C111.529 14.136 111.393 14.44 111.393 14.76C111.393 15.112 111.545 15.384 111.849 15.576C112.153 15.768 112.545 15.912 113.025 16.008L114.681 16.368C115.865 16.608 116.833 17.024 117.585 17.616C118.353 18.208 118.737 19.064 118.737 20.184C118.737 20.936 118.537 21.624 118.137 22.248C117.753 22.856 117.185 23.344 116.433 23.712C115.697 24.064 114.801 24.24 113.745 24.24ZM133.685 24V9.072H128.213V6.24H142.421V9.072H136.949V24H133.685ZM144.466 24V11.28H147.634V13.032H147.754C147.978 12.536 148.346 12.08 148.858 11.664C149.37 11.248 150.138 11.04 151.162 11.04C151.482 11.04 151.746 11.064 151.954 11.112C152.162 11.144 152.266 11.16 152.266 11.16V14.256C152.266 14.256 152.146 14.24 151.906 14.208C151.682 14.176 151.402 14.16 151.066 14.16C149.946 14.16 149.098 14.472 148.522 15.096C147.946 15.72 147.658 16.728 147.658 18.12V24H144.466ZM160.179 11.04C160.995 11.04 161.667 11.176 162.195 11.448C162.723 11.704 163.139 11.992 163.443 12.312C163.747 12.616 163.955 12.864 164.067 13.056H164.211V11.28H167.403V24H164.211V22.224H164.067C163.955 22.416 163.747 22.672 163.443 22.992C163.139 23.312 162.723 23.6 162.195 23.856C161.667 24.112 160.995 24.24 160.179 24.24C159.235 24.24 158.411 24.056 157.707 23.688C157.003 23.304 156.411 22.8 155.931 22.176C155.467 21.536 155.115 20.824 154.875 20.04C154.651 19.256 154.539 18.456 154.539 17.64C154.539 16.824 154.651 16.024 154.875 15.24C155.115 14.456 155.467 13.752 155.931 13.128C156.411 12.488 157.003 11.984 157.707 11.616C158.411 11.232 159.235 11.04 160.179 11.04ZM161.019 13.656C160.299 13.656 159.691 13.856 159.195 14.256C158.715 14.64 158.355 15.136 158.115 15.744C157.875 16.352 157.755 16.984 157.755 17.64C157.755 18.296 157.875 18.928 158.115 19.536C158.355 20.144 158.715 20.648 159.195 21.048C159.691 21.432 160.299 21.624 161.019 21.624C161.739 21.624 162.339 21.432 162.819 21.048C163.299 20.648 163.659 20.144 163.899 19.536C164.139 18.928 164.259 18.296 164.259 17.64C164.259 16.984 164.139 16.352 163.899 15.744C163.659 15.136 163.299 14.64 162.819 14.256C162.339 13.856 161.739 13.656 161.019 13.656ZM174.766 24L170.038 11.28H173.278L176.47 20.352L179.614 11.28H182.854L178.102 24H174.766ZM191.505 24.24C190.417 24.24 189.473 24.056 188.673 23.688C187.889 23.304 187.233 22.8 186.705 22.176C186.193 21.536 185.809 20.824 185.553 20.04C185.297 19.256 185.169 18.456 185.169 17.64C185.169 16.824 185.289 16.032 185.529 15.264C185.785 14.48 186.161 13.768 186.657 13.128C187.169 12.488 187.817 11.984 188.601 11.616C189.385 11.232 190.313 11.04 191.385 11.04C192.537 11.04 193.553 11.296 194.433 11.808C195.313 12.32 196.001 13.072 196.497 14.064C196.993 15.04 197.241 16.256 197.241 17.712V18.528H188.385C188.433 19.392 188.729 20.144 189.273 20.784C189.817 21.408 190.561 21.72 191.505 21.72C192.049 21.72 192.497 21.632 192.849 21.456C193.201 21.28 193.473 21.08 193.665 20.856C193.857 20.616 193.993 20.416 194.073 20.256C194.153 20.08 194.193 19.992 194.193 19.992H197.145C197.145 19.992 197.105 20.136 197.025 20.424C196.945 20.696 196.793 21.048 196.569 21.48C196.361 21.896 196.049 22.32 195.633 22.752C195.217 23.168 194.673 23.52 194.001 23.808C193.329 24.096 192.497 24.24 191.505 24.24ZM188.385 16.44H194.169C194.121 15.448 193.825 14.712 193.281 14.232C192.737 13.752 192.097 13.512 191.361 13.512C190.545 13.512 189.865 13.776 189.321 14.304C188.777 14.816 188.465 15.528 188.385 16.44ZM201.14 24L201.164 5.76H204.332V24H201.14Z" fill="#0C141D"/>
<path fill-rule="evenodd" clip-rule="evenodd" d="M16.1236 9.21297C15.8263 9.88763 15.0395 10.1956 14.3648 9.89831C13.6902 9.60281 13.3822 8.81423 13.6795 8.13957C15.4151 4.18774 18.395 2.22429 18.395 2.22429C18.8436 1.92524 19.4274 1.92524 19.876 2.22429C19.876 2.22429 22.8559 4.18774 24.5915 8.13957C24.8888 8.81423 24.5808 9.60281 23.9062 9.89831C23.2315 10.1956 22.4447 9.88763 22.1474 9.21297C21.2485 7.16763 19.9454 5.7756 19.1355 5.04753C18.3256 5.7756 17.0225 7.16763 16.1236 9.21297Z" fill="#3CBCB9"/>
<path fill-rule="evenodd" clip-rule="evenodd" d="M31.0127 5.60673C31.0127 5.60673 34.1937 11.9688 30.2579 18.7848C28.3319 22.1189 25.7845 24.579 23.4757 25.6916C21.596 26.5959 19.8265 26.6368 18.4683 25.8536C17.1101 25.0686 16.261 23.5163 16.1043 21.4354C15.9139 18.8809 16.7701 15.4436 18.6944 12.1094C22.6302 5.29343 29.731 4.86621 29.731 4.86621C30.2686 4.8306 30.7742 5.12254 31.0127 5.60673ZM28.962 7.67877C27.2068 8.04903 23.3974 9.30756 21.0067 13.4445C19.3958 16.2375 18.6072 19.0963 18.7674 21.236C18.8457 22.2845 19.1181 23.1461 19.8034 23.5412C20.4887 23.9364 21.3699 23.7424 22.3187 23.2849C24.2519 22.3539 26.3328 20.2427 27.9456 17.4497C30.3345 13.3128 29.5174 9.3841 28.962 7.67877Z" fill="#3CBCB9"/>
<path fill-rule="evenodd" clip-rule="evenodd" d="M20.0874 13.4267C20.4132 14.0871 20.1408 14.8882 19.4804 15.2139C18.82 15.5397 18.0189 15.2673 17.6932 14.6069C17.5027 14.2189 17.2944 13.8308 17.0719 13.4445C14.683 9.30756 10.8718 8.04903 9.11665 7.67877C8.56126 9.3841 7.74598 13.3128 10.1349 17.4497C11.7459 20.2427 13.8286 22.3539 15.7618 23.2849C16.7088 23.7424 17.5899 23.9364 18.2753 23.5412C18.9143 23.1728 19.7314 23.3917 20.0999 24.029C20.4684 24.6681 20.2494 25.4851 19.6104 25.8536C18.2521 26.6368 16.4827 26.5959 14.6029 25.6916C12.2941 24.579 9.74681 22.1189 7.82252 18.7848C3.88672 11.9688 7.06598 5.60673 7.06598 5.60673C7.30451 5.12254 7.81006 4.8306 8.34943 4.86621C8.34943 4.86621 15.4485 5.29343 19.3843 12.1094C19.6371 12.5473 19.872 12.987 20.0874 13.4267Z" fill="#3CBCB9"/>
<path fill-rule="evenodd" clip-rule="evenodd" d="M30.9945 13.5401C30.2611 13.5971 29.6185 13.047 29.5615 12.3118C29.5046 11.5784 30.0546 10.9358 30.7898 10.8788C34.6846 10.578 37.5275 12.0056 37.5275 12.0056C38.0117 12.2442 38.3036 12.7497 38.268 13.2891C38.268 13.2891 37.8586 20.114 31.306 23.8985C28.2389 25.6679 25.0828 26.4992 22.669 26.4031H15.6251C13.2095 26.5046 10.0427 25.675 6.9649 23.8985C0.412348 20.114 0.00292443 13.2891 0.00292443 13.2891C-0.0326776 12.7497 0.259259 12.2442 0.743447 12.0056C0.743447 12.0056 3.21245 10.7649 6.70323 10.8397C7.44019 10.8557 8.02584 11.468 8.00982 12.2032C7.9938 12.9402 7.38323 13.5258 6.64626 13.5098C5.00679 13.4742 3.65035 13.7946 2.81905 14.0599C3.18397 15.7528 4.398 19.3325 8.29998 21.5861C10.8704 23.069 13.5014 23.822 15.5183 23.7347C15.5379 23.7347 15.5557 23.7329 15.5753 23.7329H22.6885C22.774 23.7329 22.8541 23.7365 22.9253 23.7401C24.919 23.7775 27.4717 23.028 29.9709 21.5861C33.8729 19.3325 35.0869 15.751 35.4519 14.0599C34.5173 13.7608 32.9152 13.3923 30.9945 13.5401Z" fill="#3CBCB9"/>
</svg>
