<svg width="86" height="26" viewBox="0 0 86 26" fill="none" xmlns="http://www.w3.org/2000/svg">
<path d="M31.5654 25.3193L35.9215 0.81665H42.7277L38.5078 25.3193H31.5654Z" fill="#3C58BF"/>
<path d="M31.5654 25.3193L37.1466 0.81665H42.7277L38.5078 25.3193H31.5654Z" fill="#293688"/>
<path d="M63.1466 1.089C61.7853 0.544502 59.6073 0 56.8848 0C50.0785 0 45.178 3.40314 45.178 8.30367C45.178 11.9791 48.5811 13.8848 51.3036 15.11C54.0261 16.3351 54.8429 17.1518 54.8429 18.2408C54.8429 19.8744 52.6649 20.6911 50.7591 20.6911C48.0366 20.6911 46.5392 20.2827 44.2251 19.3299L43.2722 18.9215L42.3193 24.5026C43.9528 25.1833 46.9476 25.8639 50.0785 25.8639C57.2932 25.8639 62.0576 22.4607 62.0576 17.288C62.0576 14.4293 60.2879 12.2513 56.2042 10.4817C53.7539 9.25655 52.2565 8.57592 52.2565 7.35079C52.2565 6.26178 53.4816 5.17278 56.2042 5.17278C58.5183 5.17278 60.1518 5.58115 61.3769 6.12566L62.0576 6.39791L63.1466 1.089Z" fill="#3C58BF"/>
<path d="M63.1466 1.089C61.7853 0.544502 59.6073 0 56.8848 0C50.0785 0 46.4031 3.40314 46.4031 8.30367C46.4031 11.9791 48.5811 13.8848 51.3036 15.11C54.0261 16.3351 54.8429 17.1518 54.8429 18.2408C54.8429 19.8744 52.6649 20.6911 50.7591 20.6911C48.0366 20.6911 46.5392 20.2827 44.2251 19.3299L43.2722 18.9215L42.3193 24.5026C43.9528 25.1833 46.9476 25.8639 50.0785 25.8639C57.2932 25.8639 62.0576 22.4607 62.0576 17.288C62.0576 14.4293 60.2879 12.2513 56.2042 10.4817C53.7539 9.25655 52.2565 8.57592 52.2565 7.35079C52.2565 6.26178 53.4816 5.17278 56.2042 5.17278C58.5183 5.17278 60.1518 5.58115 61.3769 6.12566L62.0576 6.39791L63.1466 1.089Z" fill="#293688"/>
<path d="M74.8532 0.81665C73.2197 0.81665 71.9946 0.952778 71.3139 2.58629L61.1045 25.3193H68.4553L69.8165 21.2355H78.5286L79.3453 25.3193H85.8794L80.1621 0.81665H74.8532ZM71.7223 17.1517C72.1307 15.9266 74.4448 9.93707 74.4448 9.93707C74.4448 9.93707 74.9893 8.43969 75.3977 7.48681L75.8061 9.80095C75.8061 9.80095 77.1673 15.9266 77.4396 17.2879H71.7223V17.1517Z" fill="#3C58BF"/>
<path d="M76.4867 0.81665C74.8532 0.81665 73.6281 0.952778 72.9474 2.58629L61.1045 25.3193H68.4553L69.8165 21.2355H78.5286L79.3453 25.3193H85.8794L80.1621 0.81665H76.4867ZM71.7223 17.1517C72.2668 15.7905 74.4448 9.93707 74.4448 9.93707C74.4448 9.93707 74.9893 8.43969 75.3977 7.48681L75.8061 9.80095C75.8061 9.80095 77.1673 15.9266 77.4396 17.2879H71.7223V17.1517Z" fill="#293688"/>
<path d="M19.0415 17.9686L18.3608 14.4293C17.1357 10.3456 13.1881 5.85341 8.83203 3.6754L14.9577 25.4555H22.3085L33.3347 0.952881H25.9839L19.0415 17.9686Z" fill="#3C58BF"/>
<path d="M19.0415 17.9686L18.3608 14.4293C17.1357 10.3456 13.1881 5.85341 8.83203 3.6754L14.9577 25.4555H22.3085L33.3347 0.952881H27.3451L19.0415 17.9686Z" fill="#293688"/>
<path d="M0.120117 0.81665L1.34525 1.0889C10.0573 3.13079 16.0468 8.30357 18.361 14.4292L15.9107 2.85854C15.5023 1.22503 14.2772 0.81665 12.7798 0.81665H0.120117Z" fill="#FFBC00"/>
<path d="M0.120117 0.81665C8.83216 2.85854 16.0468 8.16744 18.361 14.2931L16.0468 4.62817C15.6385 2.99466 14.2772 2.04178 12.7798 2.04178L0.120117 0.81665Z" fill="#F7981D"/>
<path d="M0.120117 0.81665C8.83216 2.85854 16.0468 8.16744 18.361 14.2931L16.7275 8.98419C16.3191 7.35069 15.7746 5.71718 13.8688 5.03655L0.120117 0.81665Z" fill="#ED7C00"/>
<path d="M25.8474 17.1519L21.2191 12.5236L19.0411 17.6964L18.4966 14.2932C17.2714 10.2095 13.3238 5.71732 8.96777 3.53931L15.0934 25.3194H22.4442L25.8474 17.1519Z" fill="#051244"/>
<path d="M38.5069 25.3194L32.6535 19.3298L31.5645 25.3194H38.5069Z" fill="#051244"/>
<path d="M54.1613 16.8796C54.7058 17.4241 54.9781 17.8325 54.8419 18.377C54.8419 20.0105 52.6639 20.8273 50.7582 20.8273C48.0356 20.8273 46.5383 20.4189 44.2241 19.466L43.2712 19.0577L42.3184 24.6388C43.9519 25.3194 46.9466 26.0001 50.0775 26.0001C54.4336 26.0001 57.9728 24.7749 60.0147 22.5969L54.1613 16.8796Z" fill="#051244"/>
<path d="M62.0566 25.3195H68.4546L69.8158 21.2358H78.5279L79.3446 25.3195H85.8786L83.5645 15.3824L75.397 7.48706L75.8053 9.66507C75.8053 9.66507 77.1666 15.7907 77.4388 17.152H71.7216C72.2661 15.7907 74.4441 9.93732 74.4441 9.93732C74.4441 9.93732 74.9886 8.43994 75.397 7.48706" fill="#051244"/>
</svg>
