<svg width="101" height="26" viewBox="0 0 101 26" fill="none" xmlns="http://www.w3.org/2000/svg">
<path fill-rule="evenodd" clip-rule="evenodd" d="M86.2833 12.2749H83.8385L85.0241 8.89671L86.2833 12.2749ZM18.6842 8.46937L16.2127 10.9408L16.0895 11.0622L14.7188 12.4347L13.4695 13.6844L13.3478 13.8074H13.3465L12.1881 14.9641V14.9658L12.0666 15.0872C11.7194 15.4345 11.3356 15.7192 10.9277 15.9446C10.7212 16.0583 10.5102 16.1557 10.2942 16.2388C9.81272 16.4245 9.30734 16.5333 8.79868 16.5653C8.48684 16.5863 8.1701 16.5781 7.85973 16.5398C7.18796 16.4595 6.52878 16.2453 5.92736 15.8968C5.66984 15.7481 5.40594 15.5929 5.18654 15.3753C5.18507 15.3753 5.18507 15.3753 5.18343 15.3736L0.44371 10.6342C0.365342 10.5475 0.29499 10.4538 0.235928 10.3528C0.0854085 10.0983 -0.000976562 9.80327 -0.000976562 9.48718C-0.000976562 9.43744 0.000823131 9.38787 0.00540416 9.33977C0.0117849 9.26647 0.0230738 9.19546 0.0374713 9.12691L0.0661028 9.01337C0.130074 8.80215 0.234128 8.60255 0.378267 8.42291C0.416551 8.37726 0.456471 8.33227 0.499664 8.28727L0.579668 8.20842L5.37371 3.41274H5.37551L8.28037 0.508369C8.92826 -0.139682 9.96013 -0.168804 10.6398 0.424765L18.6842 8.46937ZM74.0423 6.43621L76.3562 6.42754H79.166C80.7113 6.42754 81.9758 7.69207 81.9758 9.23735V9.58338C81.9758 11.1293 80.7105 12.3071 79.166 12.3538L77.8841 12.3932C78.9145 11.9194 79.3458 10.7226 79.2172 9.64489C79.114 8.77924 78.6685 7.94746 77.9258 7.93175L77.4576 7.92145V15.6231C77.4576 15.773 77.4836 15.8355 77.5625 15.967C77.6878 16.1766 77.8558 16.3862 78.0284 16.5955C78.0741 16.6498 78.1191 16.7041 78.1641 16.7584H74.1789C74.2388 16.6853 74.2972 16.611 74.3531 16.5349C74.4737 16.3697 74.581 16.1954 74.6614 16.0009C74.7134 15.8756 74.7386 15.783 74.7386 15.6498V7.37663C74.7226 6.94552 74.2937 6.70028 74.0423 6.43621ZM93.179 11.9532L89.5603 6.76507L89.1922 6.42771H92.7595L95.1767 10.3499L95.3714 10.1913L96.8322 8.01945C97.1917 7.48576 97.1429 6.86601 96.6312 6.42771H100.001L96.1053 11.9526L96.1037 15.9611L96.7903 16.7775H92.6033L93.1929 15.9734C93.1933 14.6371 93.1452 13.2857 93.179 11.9532ZM83.3537 6.42754C83.6423 6.82413 83.7282 6.96368 83.7604 7.3161C83.7825 7.562 83.766 7.70237 83.6871 7.93175L80.9956 15.7365C80.8695 16.0573 80.6093 16.4119 80.2301 16.7561H83.1675C82.9491 16.5629 82.8104 16.3325 82.7592 16.0583C82.7135 15.8078 82.715 15.7139 82.7695 15.4729L83.3663 13.6191H86.7847L87.3176 15.0474C87.3736 15.1971 87.4051 15.3362 87.4194 15.4967C87.4658 16.03 87.2949 16.4693 86.8714 16.7793H91.4764C91.0246 16.377 90.6099 15.9557 90.3758 15.4445L87.0141 6.42738H83.3537V6.42754Z" fill="#005AAA"/>
<path fill-rule="evenodd" clip-rule="evenodd" d="M45.4648 8.1329L49.2427 5.9664L49.9876 7.33416L46.3465 8.67199L45.4648 8.1329ZM46.4301 15.2476V10.8764C46.4301 10.5422 46.3895 10.2891 46.3085 10.1165C46.2324 9.94927 46.1007 9.77749 45.9132 9.60013V9.53944H47.7983C48.0923 9.53944 48.3405 9.52602 48.5434 9.50082C48.7309 9.48119 48.9083 9.41967 49.0755 9.31873H49.1363V15.3084C49.1363 15.6533 49.1717 15.9165 49.2427 16.0991C49.3134 16.3069 49.4604 16.492 49.6834 16.6539V16.7148H45.8827V16.6539C46.121 16.4512 46.273 16.2485 46.3386 16.0455C46.3997 15.8482 46.4301 15.5821 46.4301 15.2476ZM52.4345 6.3818H55.6519L58.352 14.1237L60.6422 7.71095C60.6839 7.46177 60.6478 7.38063 60.5524 7.16614C60.4254 6.906 60.2898 6.6529 60.1637 6.39276H62.5666C62.4239 6.91631 62.2134 7.4909 62.0321 8.01837L58.9291 17.0351C58.0824 16.8663 57.1379 16.5311 56.4079 15.839C55.8583 15.3182 55.6628 14.7261 55.3917 14.02L52.7972 7.1488C52.6946 6.8777 52.5685 6.6349 52.4345 6.3818ZM38.6617 14.3091L36.3885 8.03506C36.3329 7.88765 36.2771 7.74024 36.2214 7.59365C36.1352 7.38079 36.0618 7.21358 36.0011 7.09153C35.9098 6.90944 35.7628 6.70918 35.56 6.49076V6.46H39.0947V6.52152L39.0643 6.62001C39.1049 6.89913 39.1836 7.24205 39.2999 7.64813L41.521 14.1041L43.3714 8.44359L43.4634 8.17232L43.5586 7.84429C43.5732 7.77803 43.5827 7.72993 43.5876 7.69917C43.5925 7.66841 43.5946 7.62277 43.5946 7.56125C43.5946 7.12295 43.3616 6.76661 42.8953 6.4906V6.45984H45.6775V6.49845L42.0974 17.0394L40.8888 16.6212C40.6807 16.5451 40.4936 16.4691 40.3262 16.3933C40.159 16.3171 40.0095 16.2359 39.8778 16.1495C39.6397 15.9923 39.4228 15.7732 39.2279 15.4918C39.033 15.2104 38.8441 14.8163 38.6617 14.3091ZM65.2794 10.01V15.5419C65.2794 15.7665 65.3314 15.8068 65.4693 15.9867L66.1031 16.8128H63.0751C63.2462 16.5525 63.4164 16.2922 63.5867 16.0321C63.7184 15.8172 63.7752 15.7443 63.7752 15.4953V7.76642L62.9237 6.38196H66.0622L71.1432 12.9261V7.71111C71.1432 7.46194 71.0935 7.38079 70.962 7.1663C70.7916 6.90616 70.6135 6.65306 70.4432 6.39292H73.4681L72.8374 7.21915C72.6995 7.39895 72.6475 7.43903 72.6475 7.66383V17.0773C71.502 16.9263 70.4345 16.6461 69.4852 15.4334L65.2794 10.01ZM5.13805 15.3299C5.1531 15.3447 5.16815 15.3595 5.18304 15.3739C5.40211 15.5911 5.66781 15.748 5.9268 15.8969C6.52822 16.2456 7.1874 16.4599 7.85917 16.5401C8.16937 16.5783 8.48612 16.5864 8.79812 16.5654C9.30678 16.5335 9.81233 16.4245 10.2937 16.2392C10.5096 16.1561 10.7208 16.0584 10.927 15.945C11.335 15.7192 11.7187 15.4346 12.066 15.0875L12.1876 14.966V14.9645L13.3458 13.808H13.3472L13.9328 13.2206L15.3038 11.8501L16.0891 11.0625L16.2123 10.9411L21.1919 5.96182L23.2459 3.73626L23.3692 3.61486C23.9962 2.98808 25.0136 2.98808 25.6404 3.61486L26.7651 4.73901H26.7667L26.8033 4.77599C26.306 4.75226 25.8037 4.93125 25.4277 5.29953L21.6222 9.04272L21.5838 9.08918L14.9614 15.6057L14.9517 15.5977L12.5127 17.994L12.3496 18.1666C12.1575 18.3538 11.756 18.7077 11.2184 18.9618C10.9753 19.077 10.7274 19.1601 10.4828 19.2114C10.3372 19.2401 10.1883 19.2594 10.0429 19.2658H9.93225C9.54532 19.2658 9.1646 19.1794 8.79992 19.013L7.65286 17.8695L7.18576 17.4006L5.03906 15.2299L5.13805 15.3299ZM32.8568 13.1036L27.3411 18.7023L21.677 24.4531C21.4962 24.6339 21.3074 24.7969 21.1077 24.9441C21.1011 24.9506 21.0931 24.9569 21.0851 24.9632C21.0579 24.9826 21.0308 25.0033 21.002 25.0225C20.9987 25.0257 20.9956 25.0271 20.9925 25.0305C20.1381 25.6417 19.0904 26 17.961 26C16.5661 26 15.2991 25.4529 14.3619 24.5619L14.2324 24.4467L13.2579 23.4726L10.5211 20.7341L9.47971 19.6928C9.62843 19.7167 9.77879 19.7278 9.92914 19.7278L10.0556 19.7263C10.23 19.7198 10.4044 19.6992 10.5754 19.664C10.8553 19.6062 11.1384 19.5102 11.4167 19.3793C12.015 19.0959 12.4613 18.7043 12.674 18.4962C12.7573 18.4144 12.8196 18.3458 12.8453 18.3154L14.9504 16.2472L14.9585 16.2567L22.1966 9.13548L22.2351 9.08902L25.7512 5.62888C26.2247 5.16603 26.9638 5.10533 27.5011 5.47508L28.3346 6.30834C28.3364 6.30834 28.3364 6.30998 28.3364 6.30998L32.8568 10.8305C32.8968 10.8707 32.9352 10.9124 32.9704 10.955C33.4823 11.5875 33.4439 12.5186 32.8568 13.1036Z" fill="#ED1C24"/>
<path d="M17.9384 9.2152L17.4744 9.6787L16.6603 8.85952C16.5321 8.73027 16.5338 8.52216 16.6617 8.39602C16.7915 8.26824 16.9978 8.26824 17.1257 8.39766L17.9384 9.2152ZM16.5659 10.5877L16.1019 11.0497L13.5425 8.47095C12.5923 7.51466 11.2054 7.17877 9.92091 7.59434C9.74978 7.65029 9.56441 7.55654 9.50813 7.38541C9.45218 7.21199 9.54658 7.02678 9.71918 6.97066C11.2388 6.47788 12.8834 6.8761 14.008 8.00892L16.5659 10.5877ZM13.8225 13.3309L13.3585 13.7949L10.7879 11.205C10.6598 11.0772 10.6617 10.8691 10.7893 10.7407C10.9191 10.6129 11.1269 10.6145 11.2533 10.743L13.8225 13.3309ZM15.1933 11.9602L14.7294 12.4237L12.1651 9.83871C11.5398 9.20718 10.5158 9.20326 9.88557 9.82923C9.25536 10.456 9.25061 11.4786 9.87756 12.1084L11.5298 13.7756C11.6579 13.9036 11.6579 14.1113 11.5284 14.2396C11.4003 14.3674 11.1923 14.3657 11.0644 14.2378L9.41078 12.5711C8.5309 11.6834 8.53564 10.2446 9.42354 9.36327C10.3113 8.48273 11.751 8.48894 12.6308 9.37668L15.1933 11.9602ZM10.9415 15.9367C10.9369 15.94 10.932 15.9413 10.9271 15.9447C10.7255 16.055 10.5207 16.1512 10.3096 16.2328L8.03484 13.9391C6.61129 12.5044 6.40809 10.2567 7.55023 8.59251C7.65249 8.44428 7.85716 8.40567 8.00604 8.50809C8.1564 8.61051 8.19321 8.81551 8.09079 8.96537C7.12632 10.3686 7.29909 12.2655 8.50047 13.4765L10.9415 15.9367ZM15.3854 7.11022C15.2575 7.23636 15.0479 7.23325 14.92 7.10548C12.7859 4.95567 9.30198 4.94225 7.15217 7.07472C5.00384 9.20882 4.98944 12.6927 7.12338 14.8423L8.79333 16.5268C8.80462 16.538 8.81574 16.5507 8.82212 16.5638C8.8141 16.5638 8.80625 16.5651 8.79823 16.5651C8.49425 16.5861 8.187 16.5779 7.88465 16.5427L6.65775 15.3047C4.26956 12.899 4.28396 8.99744 6.68982 6.60876C9.09731 4.22074 12.9972 4.23661 15.3854 6.64263L15.39 6.64737C15.5183 6.77515 15.5148 6.98162 15.3854 7.11022ZM70.4989 19.9047C70.4989 20.0937 70.3507 20.2407 70.1599 20.2407C69.9621 20.2407 69.8067 20.0937 69.8067 19.9047C69.8067 19.7152 69.9619 19.5613 70.1599 19.5613C70.3507 19.5611 70.4989 19.7152 70.4989 19.9047ZM58.5717 20.591C58.4377 20.591 58.4235 20.5421 58.4022 20.458C58.381 20.262 58.5087 20.1776 58.7208 19.9536C58.7767 19.8975 58.8122 19.8484 58.8122 19.7925C58.8122 19.673 58.7555 19.6172 58.6844 19.6104C58.6143 19.6033 58.4732 19.6243 58.3737 19.6732C58.2965 19.7015 58.2326 19.7015 58.183 19.5961L58.1553 19.5402C58.1128 19.4355 58.183 19.3998 58.2538 19.3651C58.4233 19.2953 58.536 19.2807 58.67 19.2807C58.9459 19.2807 59.1722 19.4353 59.1651 19.7926C59.1651 20.1005 58.7551 20.2273 58.7339 20.4582C58.7339 20.5141 58.6779 20.5776 58.6069 20.5912H58.5717V20.591ZM80.2589 19.8414C80.1533 19.6802 80.1817 19.638 80.3725 19.638H80.4427C80.6334 19.638 80.7044 19.6802 80.7959 19.8482L81.0932 20.4158C81.1634 20.556 81.1421 20.5909 80.9867 20.5909H80.9157C80.7817 20.5909 80.683 20.5349 80.6122 20.4228L80.2589 19.8414ZM51.5804 20.4232C51.5102 20.5352 51.4109 20.5912 51.2769 20.5912H51.2067C51.0577 20.5912 51.023 20.5563 51.1004 20.4161L51.3969 19.8482C51.4891 19.6806 51.56 19.6382 51.7509 19.6382H51.8211C52.0119 19.6382 52.0403 19.6804 51.9338 19.8415L51.5804 20.4232ZM68.5438 22.126C68.5438 21.6283 68.2324 21.3832 67.6183 21.3832C66.99 21.3832 66.6793 21.6281 66.6793 22.126V22.2098C66.6793 22.7142 66.9048 22.9665 67.6183 22.9665C68.3318 22.9665 68.5438 22.7142 68.5438 22.2098V22.126ZM77.2086 23.0368C77.2086 23.7096 77.4419 24.0108 78.2264 24.0108C78.9959 24.0108 79.2434 23.7096 79.2434 23.0368V22.385C79.2434 21.7126 78.9959 21.411 78.2264 21.411C77.4562 21.411 77.2086 21.7126 77.2086 22.385V23.0368ZM62.9361 22.848H62.1099C61.4808 22.848 61.1914 23.0159 61.1914 23.4571C61.1914 23.8568 61.4524 24.053 61.9821 24.053C62.6318 24.053 62.9361 23.9056 62.9361 23.3799V22.848ZM73.4576 22.848H72.6314C72.0031 22.848 71.7129 23.0159 71.7129 23.4571C71.7129 23.8568 71.9746 24.053 72.5044 24.053C73.1541 24.053 73.4576 23.9056 73.4576 23.3799V22.848ZM69.8919 21.2078C69.8919 21.0328 69.9274 20.9834 70.1182 20.9834H70.1954C70.3719 20.9834 70.4217 21.0329 70.4217 21.2078V24.2143C70.4217 24.4033 70.3719 24.4379 70.1954 24.4379H70.1182C69.9274 24.4379 69.8919 24.4033 69.8919 24.2143V21.2078ZM80.6688 21.2078C80.6688 21.0328 80.7185 20.9834 80.8951 20.9834H80.9723C81.163 20.9834 81.1985 21.0329 81.1985 21.2078V24.2143C81.1985 24.4033 81.163 24.4379 80.9723 24.4379H80.8951C80.7185 24.4379 80.6688 24.4033 80.6688 24.2143V21.2078ZM51.023 21.208C51.023 21.0329 51.0719 20.9835 51.2485 20.9835H51.3265C51.5173 20.9835 51.552 21.0331 51.552 21.208V24.2143C51.552 24.4034 51.5173 24.4383 51.3265 24.4383H51.2485C51.0719 24.4383 51.023 24.4036 51.023 24.2143V21.208ZM85.943 19.7573C85.943 19.5683 85.9934 19.5331 86.1693 19.5331H86.2473C86.4381 19.5331 86.4736 19.5683 86.4736 19.7573V21.3899C86.6848 21.0745 87.0523 20.9137 87.582 20.9137C88.4508 20.9137 88.8883 21.3199 88.8883 22.1397V24.2143C88.8883 24.4034 88.8536 24.4381 88.662 24.4381H88.5776C88.3868 24.4381 88.3513 24.4034 88.3513 24.2143V22.2029C88.3513 21.6494 88.1046 21.4107 87.4479 21.4107C86.7699 21.4107 86.4734 21.6776 86.4734 22.3223V24.2143C86.4734 24.4034 86.4379 24.4381 86.2472 24.4381H86.1691C85.9932 24.4381 85.9428 24.4034 85.9428 24.2143V19.7573H85.943ZM82.6247 24.2143C82.6247 24.4033 82.5892 24.4381 82.3984 24.4381H82.3204C82.1439 24.4381 82.0949 24.4033 82.0949 24.2143V22.224C82.0949 21.3477 82.5892 20.9135 83.5715 20.9135C84.609 20.9135 85.0402 21.3757 85.0402 22.224V24.2143C85.0402 24.4033 85.0047 24.4381 84.814 24.4381H84.7289C84.5389 24.4381 84.5034 24.4033 84.5034 24.2143V22.224C84.5034 21.6632 84.2842 21.4107 83.5715 21.4107C82.8572 21.4107 82.6247 21.6702 82.6247 22.224V24.2143ZM49.5618 23.4715C49.456 23.8707 49.3428 24.1439 49.2086 24.2914C49.0743 24.4311 48.8624 24.5013 48.5587 24.5013C48.2552 24.5013 48.0362 24.4311 47.902 24.2914C47.768 24.1439 47.6548 23.8707 47.549 23.4715L46.6872 20.1215C46.6377 19.9323 46.6732 19.8836 46.8706 19.8836H46.9485C47.1462 19.8836 47.2098 19.9322 47.2594 20.1215L48.1208 23.534C48.2127 23.9196 48.3119 24.0106 48.5587 24.0106C48.7922 24.0106 48.8981 23.9196 48.9897 23.534L49.8514 20.1215C49.9007 19.9323 49.9641 19.8836 50.1623 19.8836H50.2395C50.4373 19.8836 50.4728 19.9322 50.4232 20.1215L49.5618 23.4715ZM80.3944 20.3949C80.3944 20.5424 80.3447 20.5912 80.1964 20.5912H79.7724V23.0442C79.7724 24.0181 79.2568 24.5081 78.2264 24.5081C77.1597 24.5081 76.6797 24.0181 76.6797 23.0442V22.3922C76.6797 21.4042 77.1669 20.9138 78.1414 20.9138C78.6854 20.9138 79.0527 21.0815 79.2434 21.4253V20.591H78.2824C78.1199 20.591 78.0844 20.5423 78.0844 20.3947V20.3387C78.0844 20.1917 78.1199 20.1424 78.2824 20.1424H79.2434V19.7571C79.2434 19.5682 79.2781 19.533 79.4689 19.533H79.5469C79.7234 19.533 79.7724 19.5682 79.7724 19.7571V20.1424H80.1964C80.3447 20.1424 80.3944 20.1917 80.3944 20.3387V20.3949ZM54.1016 22.3639C54.1016 21.4459 54.6031 20.9137 55.6768 20.9137C55.9101 20.9137 56.1151 20.9413 56.2989 21.0048C56.4676 21.0607 56.5101 21.11 56.5101 21.271V21.3413C56.5101 21.5164 56.4676 21.5652 56.2989 21.5094C56.1223 21.4462 55.9165 21.411 55.6911 21.411C54.9004 21.411 54.6315 21.7194 54.6315 22.3713V23.051C54.6315 23.7591 54.9493 24.0111 55.7336 24.0111C55.9733 24.0111 56.1853 23.983 56.3691 23.9203C56.5315 23.8638 56.5811 23.9203 56.5811 24.0955V24.1652C56.5811 24.3125 56.5314 24.3687 56.3548 24.4177C56.157 24.4808 55.9386 24.5085 55.6981 24.5085C54.6173 24.5085 54.1016 24.0459 54.1016 23.0584V22.3639ZM63.4651 23.4012C63.4651 24.1788 63.0063 24.5081 61.9893 24.5081C61.1773 24.5081 60.6616 24.186 60.6616 23.457C60.6616 22.7284 61.1418 22.4341 62.1027 22.4341H62.936V22.0134C62.936 21.537 62.6112 21.3757 62.0104 21.3757C61.6997 21.3757 61.4389 21.404 61.2339 21.4526C61.0644 21.4878 61.0077 21.4456 61.0077 21.2775V21.2216C61.0077 21.0603 61.0502 21.0182 61.2197 20.983C61.4524 20.9344 61.7069 20.9133 61.9821 20.9133C62.9708 20.9133 63.4651 21.2774 63.4651 22.0133V23.4012ZM73.9874 23.4012C73.9874 24.1788 73.5286 24.5081 72.5115 24.5081C71.6995 24.5081 71.1838 24.186 71.1838 23.457C71.1838 22.7284 71.664 22.4341 72.6242 22.4341H73.4574V22.0134C73.4574 21.537 73.1327 21.3757 72.5327 21.3757C72.222 21.3757 71.9604 21.404 71.7554 21.4526C71.5859 21.4878 71.5291 21.4456 71.5291 21.2775V21.2216C71.5291 21.0603 71.5717 21.0182 71.7412 20.983C71.9745 20.9344 72.2292 20.9133 72.5042 20.9133C73.4929 20.9133 73.9872 21.2774 73.9872 22.0133V23.4012H73.9874ZM57.6115 23.1983C57.6115 23.7516 57.844 24.0109 58.5575 24.0109C59.271 24.0109 59.4972 23.7588 59.4972 23.1983V21.2078C59.4972 21.0328 59.5462 20.9834 59.7227 20.9834H59.8007C59.9915 20.9834 60.027 21.0329 60.027 21.2078V23.1983C60.027 24.0458 59.5957 24.5083 58.5575 24.5083C57.576 24.5083 57.0816 24.0741 57.0816 23.1983V21.2078C57.0816 21.0328 57.1313 20.9834 57.3078 20.9834H57.3851C57.5758 20.9834 57.6113 21.0329 57.6113 21.2078V23.1983H57.6115ZM66.926 24.3614C66.7076 24.4666 66.5941 24.6624 66.5941 24.9356C66.5941 25.3911 66.8558 25.5106 67.6181 25.5106C68.3529 25.5106 68.6351 25.3911 68.6351 24.9152C68.6351 24.4733 68.3741 24.3964 67.6181 24.3964C67.3146 24.3962 67.0813 24.3823 66.926 24.3614ZM69.0806 22.2098C69.0806 23.0229 68.5925 23.4293 67.6181 23.4293C67.2366 23.4293 66.9898 23.4502 66.8699 23.4853C66.7564 23.5204 66.7004 23.59 66.7004 23.6955C66.7004 23.7937 66.7564 23.8568 66.8763 23.8915C66.9969 23.9198 67.2436 23.9337 67.6181 23.9337C68.2046 23.9337 68.6068 24.0036 68.8259 24.1511C69.0521 24.2915 69.1648 24.5364 69.1648 24.8939C69.1648 25.2933 69.0521 25.5665 68.8188 25.728C68.5925 25.8892 68.1906 25.9662 67.6181 25.9662C67.0324 25.9662 66.6224 25.8892 66.3961 25.728C66.1769 25.5739 66.0641 25.3281 66.0641 24.9923C66.0641 24.6555 66.1981 24.4036 66.4599 24.2421C66.2691 24.1513 66.1698 23.9972 66.1698 23.7799C66.1698 23.4717 66.3606 23.2894 66.7421 23.2333C66.3464 23.072 66.1492 22.7289 66.1492 22.2101V22.1263C66.1492 21.3624 66.6932 20.9142 67.6179 20.9142C67.8938 20.9142 68.1335 20.9627 68.3457 21.054L68.7485 20.6967C68.8682 20.5915 68.9243 20.5915 69.0377 20.6967L69.0866 20.7455C69.2002 20.8507 69.2002 20.9066 69.0866 21.0187L68.7689 21.3415C68.9739 21.5305 69.0803 21.79 69.0803 22.1263V22.2098H69.0806Z" fill="#009EDB"/>
</svg>
