<svg width="92" height="26" viewBox="0 0 92 26" fill="none" xmlns="http://www.w3.org/2000/svg">
<g clip-path="url(#clip0_46_859)">
<path d="M27.3132 9.79057C26.9566 9.42648 26.5038 9.24336 25.9531 9.24336C25.1436 9.24336 24.5528 9.63205 24.1813 10.4084C23.3876 9.47593 22.3028 9.01025 20.9276 9.01025C19.2766 9.01025 17.8876 9.64756 16.7627 10.9211C15.6384 12.1949 15.0762 13.7489 15.0762 15.5819C15.0762 17.4149 15.6384 18.9684 16.7627 20.2427C17.8876 21.5168 19.2766 22.1533 20.9276 22.1533C22.3028 22.1533 23.3876 21.6876 24.1813 20.7546C24.5528 21.532 25.1436 21.9199 25.9531 21.9199C26.5038 21.9199 26.9566 21.7378 27.3132 21.3724C27.669 21.0083 27.8468 20.5614 27.8468 20.0326V11.1307C27.8468 10.6027 27.669 10.156 27.3132 9.79057ZM23.3678 17.7892C22.9061 18.384 22.2701 18.681 21.4615 18.681C20.6515 18.681 20.0166 18.384 19.5555 17.7892C19.0946 17.1936 18.8636 16.4582 18.8636 15.5816C18.8636 14.7056 19.0946 13.9699 19.5555 13.3746C20.0166 12.7798 20.6515 12.4825 21.4615 12.4825C22.2701 12.4825 22.9061 12.7798 23.3678 13.3746C23.8292 13.9699 24.0599 14.7056 24.0599 15.5816C24.0599 16.4579 23.8292 17.1936 23.3678 17.7892Z" fill="#0FA8E0"/>
<path d="M32.1347 21.3724C31.7784 21.7379 31.3247 21.9196 30.7754 21.9196C30.2244 21.9196 29.7711 21.7379 29.4152 21.3724C29.0586 21.0078 28.8809 20.5606 28.8809 20.0323V4.10191C28.8809 3.57395 29.0586 3.12671 29.4152 2.76181C29.7711 2.39665 30.2244 2.2146 30.7754 2.2146C31.3247 2.2146 31.7784 2.39665 32.1347 2.76181C32.4908 3.12671 32.6686 3.57395 32.6686 4.10191V20.0326C32.6686 20.5606 32.4908 21.0078 32.1347 21.3724Z" fill="#0FA8E0"/>
<path d="M44.6823 10.9211C43.4687 9.64756 41.9227 9.01025 40.0445 9.01025C38.1668 9.01025 36.634 9.63954 35.4444 10.8978C34.254 12.1561 33.6592 13.7173 33.6592 15.5816C33.6592 17.4457 34.254 19.0069 35.4444 20.2654C36.634 21.5237 38.1668 22.1533 40.0445 22.1533C41.9227 22.1533 43.4687 21.5165 44.6823 20.2427C45.8478 18.9994 46.4306 17.446 46.4306 15.5819C46.4306 13.7173 45.8481 12.1642 44.6823 10.9211ZM41.9511 17.7892C41.4894 18.384 40.854 18.681 40.0445 18.681C39.2348 18.681 38.5999 18.384 38.139 17.7892C37.6773 17.1936 37.4466 16.4582 37.4466 15.5816C37.4466 14.7056 37.6773 13.9699 38.139 13.3746C38.5999 12.7798 39.2348 12.4825 40.0445 12.4825C40.854 12.4825 41.4894 12.7798 41.9511 13.3746C42.4125 13.9699 42.6424 14.7056 42.6424 15.5816C42.6424 16.4579 42.4127 17.1936 41.9511 17.7892Z" fill="#0FA8E0"/>
<path d="M12.9797 9.45091C14.3174 7.72452 14.9871 6.56139 14.9871 5.96285C14.9871 4.57811 14.1156 3.88574 12.3723 3.88574H3.17825C2.45594 3.88574 1.89723 4.05656 1.50079 4.39767C1.10488 4.73958 0.906526 5.1828 0.906526 5.72868C0.906526 6.27536 1.10488 6.71912 1.50079 7.06049C1.89723 7.40186 2.45594 7.57242 3.17825 7.57242H9.49273L1.40856 18.0176C0.880328 18.7011 0.616211 19.3069 0.616211 19.8362C0.616211 21.3546 1.62028 22.1141 3.62762 22.1141H13.1115C14.6267 22.1141 15.3838 21.4781 15.3838 20.2062C15.3838 18.9348 14.6267 18.2988 13.1115 18.2988H6.13753L12.9797 9.45091Z" fill="#0FA8E0"/>
<path d="M58.5785 7.53711H56.041V12.8112H58.5785C59.3409 12.8112 59.9589 12.5623 60.4316 12.0648C60.9042 11.5673 61.1405 10.9372 61.1405 10.174C61.1405 9.41159 60.9039 8.78097 60.4316 8.28348C59.9592 7.78599 59.3406 7.53711 58.5785 7.53711Z" fill="#32B34A"/>
<path d="M71.238 12.4973C70.4325 12.4973 69.8011 12.7927 69.3424 13.3846C68.8839 13.9767 68.6543 14.7078 68.6543 15.5793C68.6543 16.451 68.8839 17.1827 69.3424 17.7751C69.8011 18.3662 70.4325 18.6618 71.238 18.6618C72.0424 18.6618 72.6749 18.3662 73.1339 17.7751C73.5931 17.1827 73.8222 16.451 73.8222 15.5793C73.8222 14.7078 73.5931 13.9767 73.1339 13.3846C72.6749 12.7924 72.0424 12.4973 71.238 12.4973Z" fill="#32B34A"/>
<path d="M89.1623 0H52.3766C51.149 0 50.1543 0.994982 50.1543 2.22227V23.7777C50.1543 25.005 51.1493 26 52.3766 26H81.4163C81.11 25.7097 80.9563 25.3699 80.9563 24.9804C80.9563 24.6626 81.0276 24.329 81.1704 23.9801L82.5401 20.9339L78.7527 11.4771C78.6415 11.2073 78.5862 10.9135 78.5862 10.5957C78.5862 10.1829 78.7607 9.83327 79.1101 9.5475C79.4595 9.26173 79.8247 9.11898 80.2061 9.11898C81.0474 9.11898 81.6195 9.52371 81.9213 10.3337L84.2791 16.7891L86.8042 10.3337C87.1218 9.52371 87.6931 9.11898 88.5194 9.11898C88.9003 9.11898 89.2655 9.26173 89.6152 9.5475C89.964 9.83327 90.1394 10.1829 90.1394 10.5957C90.1394 10.9135 90.0832 11.2073 89.9723 11.4771L84.3628 25.0994C84.2093 25.4801 84.0243 25.7797 83.8091 26H89.1626C90.3899 26 91.3848 25.005 91.3848 23.7777V2.22227C91.3843 0.994982 90.3896 0 89.1623 0ZM63.1802 14.5029C62.019 15.5644 60.5596 16.0951 58.802 16.0951H56.0408V20.1747C56.0408 20.7888 55.8665 21.2654 55.5182 21.6049C55.1698 21.9452 54.7218 22.115 54.1754 22.115C53.6276 22.115 53.1799 21.9452 52.8318 21.6049C52.4832 21.2654 52.3095 20.7888 52.3095 20.1747V6.19418C52.3095 4.9006 52.9561 4.25367 54.2497 4.25367H58.6534C60.4939 4.25367 62.0152 4.80543 63.2182 5.90788C64.4201 7.01112 65.0213 8.44158 65.0213 10.1992C65.0208 11.974 64.407 13.4079 63.1802 14.5029ZM77.5885 20.006C77.5885 20.5316 77.4115 20.9759 77.0579 21.3384C76.7031 21.7017 76.2524 21.8829 75.7052 21.8829C74.8997 21.8829 74.3122 21.4974 73.9427 20.7238C73.153 21.6517 72.0744 22.1147 70.7065 22.1147C69.0646 22.1147 67.6833 21.4819 66.5648 20.2146C65.4461 18.9477 64.8871 17.402 64.8871 15.5789C64.8871 13.7563 65.4463 12.2106 66.5648 10.944C67.6836 9.67742 69.0648 9.04359 70.7065 9.04359C72.0744 9.04359 73.153 9.5066 73.9427 10.4339C74.3122 9.66192 74.8997 9.27536 75.7052 9.27536C76.2524 9.27536 76.7028 9.45741 77.0579 9.81964C77.4115 10.1835 77.5885 10.6275 77.5885 11.1525V20.006Z" fill="#32B34A"/>
</g>
<defs>
<clipPath id="clip0_46_859">
<rect width="90.7685" height="26" fill="white" transform="translate(0.616211)"/>
</clipPath>
</defs>
</svg>
