<svg width="22" height="20" viewBox="0 0 22 20" fill="none" xmlns="http://www.w3.org/2000/svg">
<path d="M8.9142 4.40649C9.44835 4.18249 9.67235 3.54495 9.43112 3.02803L8.58681 1.25325C8.34558 0.753733 7.75973 0.52956 7.24281 0.753733C5.77819 1.37404 4.52034 2.18389 3.52095 3.16605C2.29756 4.32034 1.47049 5.64711 1.02248 7.11173C0.574483 8.59375 0.333252 10.6096 0.333252 13.177V18.4668C0.333252 19.0355 0.798484 19.5007 1.3671 19.5007H8.13881C8.70743 19.5007 9.17266 19.0355 9.17266 18.4668V11.6951C9.17266 11.1263 8.70743 10.6613 8.13881 10.6613H4.89942C4.93388 8.92079 5.34742 7.52527 6.10557 6.47402C6.72588 5.63005 7.65635 4.94082 8.9142 4.40649Z" fill="white"/>
<path d="M21.0793 4.40627C21.6135 4.18227 21.8373 3.54473 21.5963 3.02781L20.752 1.27044C20.5107 0.770746 19.9249 0.546745 19.408 0.770746C17.9606 1.39105 16.7198 2.2009 15.7033 3.16583C14.4798 4.33752 13.6356 5.6643 13.1875 7.12892C12.7395 8.57613 12.5156 10.5923 12.5156 13.1769V18.4668C12.5156 19.0354 12.9809 19.5006 13.5495 19.5006H20.3212C20.8898 19.5006 21.355 19.0354 21.355 18.4668V11.6951C21.355 11.1263 20.8898 10.6612 20.3212 10.6612H17.0646C17.099 8.92075 17.5127 7.52522 18.2707 6.47397C18.891 5.62983 19.8215 4.9406 21.0793 4.40627Z" fill="white"/>
</svg>
