<svg width="375" height="627" viewBox="0 0 375 627" fill="none" xmlns="http://www.w3.org/2000/svg">
<mask id="mask0_2_460" style="mask-type:alpha" maskUnits="userSpaceOnUse" x="0" y="0" width="375" height="627">
<path d="M0 0H375V626.5H0V0Z" fill="url(#paint0_linear_2_460)"/>
</mask>
<g mask="url(#mask0_2_460)">
<rect width="375" height="1086" fill="url(#paint1_linear_2_460)"/>
<g opacity="0.2">
<path opacity="0.0144928" d="M564.569 195.776L598.932 133.873C602.066 128.227 602.845 121.573 601.098 115.356L569.142 1.59604C567.769 -3.2929 564.91 -7.63427 560.961 -10.8277L484.568 -72.6126C477.408 -78.4027 467.607 -79.69 459.196 -75.945L406.232 -52.3639C397.82 -48.6188 392.219 -40.4739 391.731 -31.2792L386.529 66.8347C386.26 71.9058 387.574 76.935 390.288 81.227L453.445 181.096C456.896 186.553 462.363 190.427 468.655 191.876L537.651 207.76C548.292 210.21 559.269 205.322 564.569 195.776Z" stroke="white"/>
<path opacity="0.0289855" d="M551.287 199.894L588.607 140.463C592.046 134.987 593.18 128.373 591.762 122.063L566.13 7.98057C565.013 3.01102 562.375 -1.487 558.583 -4.88774L486.177 -69.8255C479.331 -75.9652 469.624 -77.7545 461.039 -74.4591L407.327 -53.8407C398.742 -50.5453 392.725 -42.7202 391.746 -33.5768L381.389 63.1306C380.847 68.1951 381.897 73.3028 384.392 77.743L441.68 179.675C444.848 185.312 450.117 189.468 456.337 191.237L523.838 210.431C534.312 213.409 545.496 209.116 551.287 199.894Z" stroke="white"/>
<path opacity="0.0434783" d="M537.953 203.599L578.066 146.778C581.801 141.487 583.289 134.933 582.205 128.548L562.841 14.4895C561.986 9.45261 559.578 4.80901 555.953 1.20848L487.654 -66.6365C481.138 -73.1086 471.551 -75.3934 462.816 -72.5556L408.518 -54.9131C399.784 -52.0752 393.371 -44.5912 391.904 -35.5256L376.527 59.5075C375.711 64.551 376.492 69.7233 378.761 74.3009L430.137 177.958C433.013 183.761 438.069 188.189 444.201 190.274L510.051 212.665C520.333 216.161 531.69 212.471 537.953 203.599Z" stroke="white"/>
<path opacity="0.057971" d="M524.592 206.891L567.326 152.807C571.348 147.718 573.187 141.242 572.44 134.799L559.272 21.1061C558.682 16.0153 556.511 11.2376 553.063 7.44537L488.976 -63.0575C482.807 -69.8439 473.364 -72.6167 464.505 -70.243L409.784 -55.5805C400.926 -53.2068 394.134 -46.0842 392.185 -37.1225L371.935 55.9786C370.846 60.9864 371.354 66.2096 373.389 70.9132L418.831 175.959C421.406 181.912 426.237 186.6 432.264 188.997L496.315 214.468C506.379 218.47 517.877 215.389 524.592 206.891Z" stroke="white"/>
<path opacity="0.0724638" d="M511.223 209.775L556.405 158.544C560.702 153.672 562.888 147.293 562.482 140.81L555.416 27.8154C555.096 22.6845 553.169 17.7845 549.909 13.8092L490.123 -59.0992C484.315 -66.1812 475.043 -69.4328 466.084 -67.5286L411.101 -55.8416C402.142 -53.9374 394.994 -47.1955 392.569 -38.3635L367.606 52.559C366.245 57.5164 366.478 62.7764 368.272 67.5943L407.775 173.694C410.042 179.781 414.634 184.72 420.541 187.423L482.653 215.847C492.474 220.342 504.08 217.875 511.223 209.775Z" stroke="white"/>
<path opacity="0.0869565" d="M497.872 212.253L545.32 163.981C549.881 159.341 552.409 153.077 552.346 146.572L551.274 34.6005C551.224 29.4435 549.549 24.4335 546.486 20.2843L491.076 -54.7752C485.644 -62.1335 476.566 -65.8535 467.532 -64.4227L412.447 -55.6981C403.413 -54.2673 395.929 -47.9241 393.037 -39.2474L363.534 49.2611C361.903 54.1537 361.857 59.4362 363.404 64.3561L396.985 171.178C398.936 177.385 403.276 182.561 409.047 185.564L469.089 216.811C478.643 221.783 490.323 219.933 497.872 212.253Z" stroke="white"/>
<path opacity="0.101449" d="M484.559 214.33L534.088 169.112C538.9 164.718 541.764 158.589 542.046 152.079L546.84 41.4456C547.064 36.2765 545.646 31.1692 542.789 26.8556L491.816 -50.0995C486.772 -57.7138 477.912 -61.8907 468.829 -60.936L413.799 -55.1521C404.716 -54.1974 396.918 -48.2697 393.568 -39.7733L359.709 46.0981C357.811 50.9114 357.485 56.202 358.779 61.2116L386.47 168.43C388.099 174.74 392.175 180.14 397.796 183.437L455.644 217.369C464.907 222.803 476.628 221.571 484.559 214.33Z" stroke="white"/>
<path opacity="0.115942" d="M471.305 216.013L522.727 173.931C527.778 169.798 530.97 163.82 531.597 157.324L542.114 48.3334C542.613 43.1665 541.457 37.9747 538.814 33.5069L492.325 -45.088C487.681 -52.9375 479.063 -57.5584 469.955 -57.0811L415.135 -54.208C406.027 -53.7307 397.939 -48.2343 394.142 -39.9424L356.122 43.0814C353.961 47.801 353.354 53.0851 354.39 58.1716L376.242 165.466C377.544 171.861 381.344 177.472 386.8 181.055L442.339 217.531C451.289 223.409 463.018 222.794 471.305 216.013Z" stroke="white"/>
<path opacity="0.130435" d="M458.131 217.309L511.255 178.436C516.53 174.576 520.044 168.768 521.015 162.304L537.096 55.2487C537.869 50.0984 536.982 44.8354 534.561 40.2238L492.586 -39.7552C488.354 -47.8187 479.999 -52.8696 470.892 -52.8696H416.433C407.327 -52.8696 398.972 -47.8187 394.74 -39.7552L352.764 40.2238C350.344 44.8354 349.456 50.0983 350.23 55.2487L366.31 162.304C367.281 168.768 370.795 174.576 376.071 178.436L429.195 217.309C437.81 223.614 449.515 223.614 458.131 217.309Z" stroke="white"/>
<path opacity="0.144928" d="M445.057 218.227L499.689 182.623C505.175 179.048 509.001 173.427 510.315 167.013L531.786 62.1741C532.834 57.0546 532.218 51.734 530.028 46.9894L492.584 -34.1194C488.773 -42.3751 480.703 -47.8409 471.622 -48.3168L417.674 -51.1441C408.593 -51.62 399.996 -47.0277 395.343 -39.2156L349.625 37.5349C346.951 42.0245 345.782 47.2516 346.29 52.4527L356.685 158.961C357.321 165.477 360.539 171.468 365.62 175.597L416.232 216.716C424.492 223.427 436.14 224.038 445.057 218.227Z" stroke="white"/>
<path opacity="0.15942" d="M432.103 218.774L488.049 186.489C493.729 183.212 497.858 177.794 499.511 171.448L526.185 69.0938C527.507 64.0196 527.167 58.6551 525.213 53.7888L492.304 -28.1976C488.922 -36.6232 481.157 -42.4877 472.128 -43.4368L418.834 -49.0382C409.805 -49.9872 400.991 -45.8651 395.931 -38.3268L346.695 35.0258C343.772 39.3795 342.324 44.5561 342.562 49.7943L347.372 155.457C347.671 162.008 350.583 168.166 355.457 172.553L403.468 215.765C411.354 222.863 422.913 224.078 432.103 218.774Z" stroke="white"/>
<path opacity="0.173913" d="M419.288 218.963L476.351 190.035C482.21 187.065 486.631 181.867 488.621 175.607L520.296 75.9921C521.891 70.9776 521.828 65.5831 520.119 60.6067L491.733 -22.0077C488.787 -30.5808 481.348 -36.8267 472.395 -38.2448L419.896 -46.5598C410.943 -47.9779 401.938 -44.3363 396.487 -37.0931L343.961 32.7062C340.797 36.9106 339.071 42.0219 339.038 47.2836L338.38 151.811C338.339 158.38 340.937 164.69 345.591 169.325L390.922 214.47C398.416 221.934 409.854 223.746 419.288 218.963Z" stroke="white"/>
<path opacity="0.188406" d="M406.63 218.805L464.613 193.26C470.635 190.607 475.336 185.644 477.658 179.489L514.122 82.8533C515.986 77.9129 516.204 72.5024 514.744 67.428L490.857 -15.5685C488.354 -24.2662 481.26 -30.8753 472.407 -32.7571L420.839 -43.7182C411.986 -45.5999 402.817 -42.4477 396.992 -35.5201L341.413 30.5855C338.015 34.6272 336.014 39.6586 335.707 44.9302L329.713 148.042C329.331 154.61 331.607 161.056 336.029 165.928L378.61 212.849C385.695 220.656 396.981 223.055 406.63 218.805Z" stroke="white"/>
<path opacity="0.202899" d="M394.145 218.311L452.854 196.165C459.02 193.838 463.99 189.126 466.639 183.092L507.666 89.6616C509.797 84.8094 510.297 79.3972 509.091 74.2369L489.667 -8.90002C487.611 -17.6991 480.878 -24.6523 472.15 -26.991L421.644 -40.524C412.916 -42.8627 403.609 -40.2073 397.429 -33.615L339.039 28.6714C335.414 32.5376 333.141 37.4747 332.56 42.7421L321.376 144.168C320.653 150.719 322.6 157.285 326.778 162.383L366.548 210.916C373.209 219.045 384.312 222.02 394.145 218.311Z" stroke="white"/>
<path opacity="0.217391" d="M381.851 217.494L441.09 198.751C447.384 196.759 452.608 192.312 455.579 186.417L500.934 96.4017C503.327 91.6519 504.11 86.2524 503.164 81.0186L488.151 -2.02194C486.546 -10.8993 480.192 -18.1764 471.613 -20.9641L422.295 -36.9885C413.715 -39.7762 404.297 -37.6234 397.781 -31.3849L336.825 26.9719C332.983 30.65 330.443 35.4783 329.587 40.7276L313.371 140.21C312.309 146.726 313.921 153.395 317.843 158.706L354.751 208.689C360.973 217.115 371.864 220.654 381.851 217.494Z" stroke="white"/>
<path opacity="0.231884" d="M369.762 216.369L429.338 201.022C435.742 199.373 441.207 195.204 444.491 189.464L493.931 103.059C496.582 98.4258 497.647 93.0533 496.965 87.7589L486.301 5.04584C485.149 -3.88635 479.19 -11.4666 470.782 -14.6941L422.772 -33.1234C414.364 -36.3509 404.863 -34.7053 398.031 -28.8379L334.76 25.4942C330.71 28.972 327.907 33.6774 326.777 38.8946L305.701 136.188C304.301 142.651 305.573 149.405 309.229 154.917L343.233 206.186C349.003 214.886 359.653 218.974 369.762 216.369Z" stroke="white"/>
<path opacity="0.246377" d="M357.895 214.95L417.617 202.982C424.112 201.68 429.803 197.804 433.393 192.236L486.664 109.619C489.568 105.116 490.915 99.7849 490.5 94.4428L484.11 12.2821C483.413 3.31849 477.863 -4.54327 469.649 -8.20012L423.062 -28.9422C414.848 -32.599 405.292 -31.4634 398.164 -25.9836L332.831 24.2442C328.583 27.51 325.523 32.0784 324.119 37.2496L298.368 132.119C296.633 138.513 297.561 145.336 300.939 151.034L332.007 203.424C337.314 212.373 347.693 216.995 357.895 214.95Z" stroke="white"/>
<path opacity="0.26087" d="M346.26 213.253L405.94 204.634C412.508 203.686 418.41 200.114 422.297 194.735L479.14 116.068C482.29 111.708 483.918 106.433 483.772 101.056L481.571 19.666C481.328 10.6943 476.2 2.57334 468.203 -1.50123L423.146 -24.4586C415.15 -28.5332 405.565 -27.9091 398.164 -22.832L331.024 23.2271C326.589 26.2698 323.278 30.6875 321.602 35.7986L291.371 128.025C289.304 134.331 289.883 141.205 292.976 147.076L321.083 200.424C325.916 209.597 335.999 214.734 346.26 213.253Z" stroke="white"/>
<path opacity="0.275362" d="M334.873 211.292L394.326 205.986C400.947 205.395 407.044 202.138 411.218 196.964L471.366 122.392C474.756 118.189 476.662 112.984 476.789 107.586L478.679 27.1768C478.889 18.2203 474.194 9.86302 466.436 5.38351L423.012 -19.6868C415.254 -24.1663 405.669 -24.0537 398.017 -19.3931L329.326 22.4482C324.714 25.2571 321.16 29.5106 319.215 34.5477L284.708 123.923C282.313 130.125 282.542 137.033 285.341 143.063L310.472 197.204C314.822 206.575 324.582 212.21 334.873 211.292Z" stroke="white"/>
<path opacity="0.289855" d="M323.743 209.086L382.789 207.043C389.445 206.812 395.72 203.883 400.17 198.928L463.351 128.579C466.973 124.546 469.156 119.425 469.556 114.019L475.43 34.7936C476.091 25.8754 471.841 17.3053 464.341 12.4348L422.647 -14.6417C415.147 -19.5123 405.589 -19.9095 397.71 -15.6781L327.723 21.9118C322.947 24.4767 319.157 28.5529 316.946 33.5022L278.377 119.835C275.661 125.915 275.537 132.839 278.033 139.013L300.183 193.785C304.042 203.329 313.456 209.441 323.743 209.086Z" stroke="white"/>
<path opacity="0.304348" d="M312.883 206.649L371.345 207.811C378.016 207.944 384.452 205.35 389.167 200.63L455.105 134.615C458.951 130.764 461.406 125.742 462.081 120.342L471.822 42.494C472.93 33.6369 469.133 24.878 461.912 19.6314L422.036 -9.3403C414.814 -14.5869 405.311 -15.491 397.23 -11.7001L326.202 21.6199C321.275 23.9312 317.257 27.8174 314.784 32.6651L272.376 115.776C269.343 121.719 268.866 128.641 271.053 134.944L290.224 190.186C293.587 199.876 302.629 206.445 312.883 206.649Z" stroke="white"/>
<path opacity="0.318841" d="M302.301 204L360.009 208.3C366.674 208.797 373.253 206.549 378.221 202.077L446.638 140.489C450.699 136.833 453.421 131.924 454.372 126.543L467.853 50.258C469.403 41.4847 466.069 32.5613 459.145 26.9546L421.169 -3.79764C414.245 -9.40438 404.824 -10.8107 396.564 -7.47016L324.749 21.5762C319.683 23.6251 315.448 27.3087 312.716 32.0414L266.699 111.768C263.357 117.557 262.526 124.459 264.398 130.876L280.602 186.428C283.463 196.238 292.111 203.241 302.301 204Z" stroke="white"/>
<path opacity="0.333333" d="M292.006 201.157L348.794 208.517C355.434 209.378 362.138 207.483 367.345 203.274L437.959 146.19C442.226 142.74 445.212 137.958 446.438 132.61L463.523 58.0633C465.509 49.3961 462.644 40.333 456.036 34.3831L420.035 1.96833C413.427 -3.98155 404.114 -5.88405 395.702 -3.00254L323.35 21.7813C318.159 23.5594 313.715 27.0286 310.731 31.6328L261.341 107.827C257.698 113.446 256.515 120.31 258.065 126.825L271.321 182.532C273.678 192.434 281.912 199.848 292.006 201.157Z" stroke="white"/>
<path opacity="0.347826" d="M282.006 198.137L337.713 208.473C344.309 209.697 351.119 208.163 356.552 204.228L429.081 151.707C433.543 148.476 436.786 143.834 438.286 138.532L458.833 65.89C461.248 57.3506 458.857 48.1727 452.582 41.8976L418.626 7.94107C412.351 1.66595 403.173 -0.725274 394.633 1.6901L321.991 22.2371C316.689 23.7367 312.048 26.9799 308.816 31.4426L256.295 103.971C252.36 109.404 250.826 116.214 252.05 122.81L262.386 178.518C264.236 188.487 272.036 196.287 282.006 198.137Z" stroke="white"/>
<path opacity="0.362319" d="M272.306 194.959L326.781 208.177C333.312 209.762 340.208 208.594 345.854 204.947L420.014 157.031C424.662 154.028 428.156 149.54 429.928 144.298L453.786 73.7167C456.622 65.3266 454.709 56.0591 448.783 49.4775L416.932 14.1026C411.006 7.52098 401.989 4.64998 393.348 6.59348L320.659 22.9432C315.261 24.1575 310.432 27.1636 306.96 31.472L251.555 100.217C247.337 105.451 245.455 112.187 246.349 118.848L253.801 174.407C255.143 184.417 262.491 192.577 272.306 194.959Z" stroke="white"/>
<path opacity="0.376812" d="M262.912 191.64L316.007 207.64C322.455 209.583 329.418 208.787 335.261 205.437L410.771 162.152C415.592 159.388 419.331 155.067 421.373 149.899L448.385 81.5233C451.633 73.3033 450.201 63.9715 444.639 57.103L414.946 20.4351C409.384 13.5665 400.554 10.2261 391.838 11.6934L319.341 23.8993C313.86 24.822 308.857 27.5805 305.151 31.7219L247.112 96.5827C242.621 101.601 240.394 108.246 240.954 114.957L245.565 170.219C246.402 180.243 253.281 188.738 262.912 191.64Z" stroke="white"/>
<path opacity="0.391304" d="M253.828 188.2L305.405 206.873C311.749 209.17 318.76 208.749 324.783 205.709L401.364 167.062C406.348 164.547 410.323 160.406 412.632 155.324L442.635 89.2897C446.283 81.2601 445.334 71.8894 440.15 64.7543L412.662 26.9203C407.478 19.7852 398.859 15.9869 390.095 16.9754L318.021 25.1041C312.475 25.7297 307.308 28.2306 303.376 32.1929L242.956 93.0831C238.204 97.8725 235.637 104.41 235.861 111.153L237.681 165.977C238.014 175.989 244.408 184.79 253.828 188.2Z" stroke="white"/>
<path opacity="0.405797" d="M245.056 184.657L294.984 205.887C301.206 208.533 308.243 208.49 314.432 205.769L391.806 171.753C396.939 169.496 401.143 165.547 403.715 160.565L436.54 96.9957C440.578 89.1762 440.112 79.7919 435.319 72.4112L410.075 33.5394C405.282 26.1587 396.899 21.9157 388.113 22.4239L316.688 26.5551C311.09 26.8789 305.773 29.1128 301.624 32.8841L239.077 89.7334C234.075 94.2803 231.173 100.692 231.059 107.452L230.147 161.698C229.979 171.673 235.876 180.753 245.056 184.657Z" stroke="white"/>
<path opacity="0.42029" d="M236.601 181.029L284.755 204.696C290.834 207.684 297.879 208.022 304.216 205.629L382.111 176.218C387.381 174.229 391.804 170.484 394.636 165.615L430.11 104.623C434.524 97.0329 434.539 87.6602 430.149 80.0556L407.182 40.275C402.791 32.6704 394.667 27.9971 385.886 28.0251L315.328 28.2507C309.696 28.2687 304.241 30.2268 299.884 33.7955L235.465 86.5493C230.225 90.8409 226.995 97.1107 226.543 103.869L222.962 157.406C222.299 167.317 227.686 176.648 236.601 181.029Z" stroke="white"/>
<path opacity="0.434783" d="M228.461 177.335L274.727 203.311C280.645 206.634 287.677 207.353 294.145 205.296L372.292 180.451C377.685 178.736 382.318 175.208 385.404 170.465L423.35 112.153C428.128 104.81 428.622 95.4735 424.645 87.6673L403.978 47.1073C400.001 39.3011 392.158 34.2129 383.408 33.7625L313.928 30.186C308.277 29.8951 302.7 31.5694 298.143 34.9244L232.109 83.5435C226.643 87.5675 223.092 93.6785 222.301 100.419L216.122 153.118C214.97 162.941 219.837 172.493 228.461 177.335Z" stroke="white"/>
<path opacity="0.449275" d="M220.637 173.593L264.908 201.746C270.647 205.395 277.644 206.495 284.226 204.782L362.363 184.447C367.865 183.015 372.698 179.714 376.033 175.11L416.27 119.567C421.398 112.489 422.367 103.214 418.811 95.2289L400.463 54.019C396.908 46.0338 389.368 40.5475 380.676 39.6218L312.476 32.3582C306.823 31.7561 301.136 33.1389 296.39 36.2696L228.994 80.7302C223.317 84.4751 219.452 90.4111 218.325 97.1176L209.623 148.856C207.99 158.565 212.328 168.309 220.637 173.593Z" stroke="white"/>
<path opacity="0.463768" d="M213.127 169.82L255.305 200.013C260.846 203.98 267.789 205.459 274.466 204.096L352.338 188.2C357.935 187.058 362.957 183.995 366.535 179.542L408.88 126.848C414.342 120.051 415.78 110.862 412.655 102.721L396.636 60.9904C393.511 52.8494 386.294 46.983 377.687 45.5866L310.959 34.7614C305.32 33.8466 299.539 34.9311 294.615 37.8273L226.109 78.1206C220.235 81.5755 216.065 87.3207 214.601 93.9762L203.46 144.636C201.355 154.209 205.157 164.115 213.127 169.82Z" stroke="white"/>
<path opacity="0.478261" d="M205.931 166.036L245.926 198.127C251.252 202.401 258.12 204.258 264.874 203.25L342.23 191.709C347.908 190.862 353.108 188.048 356.923 183.758L401.191 133.98C406.972 127.48 408.872 118.401 406.184 110.128L392.497 68.0047C389.809 59.7314 382.936 53.5039 374.438 51.6428L309.366 37.3915C303.758 36.1634 297.897 36.9434 292.806 39.5953L223.439 75.7276C217.383 78.8823 212.918 84.4213 211.121 91.0092L197.627 140.48C195.06 149.892 198.321 159.931 205.931 166.036Z" stroke="white"/>
<path opacity="0.492754" d="M199.043 162.257L236.775 196.102C241.869 200.671 248.642 202.901 255.454 202.254L332.056 194.969C337.799 194.423 343.165 191.867 347.209 187.753L393.214 140.947C399.296 134.758 401.652 125.814 399.406 117.432L388.048 75.0428C385.802 66.661 379.29 60.0925 370.928 57.7743L307.684 40.2415C302.124 38.7003 296.199 39.1704 290.952 41.569L220.971 73.5609C214.748 76.4059 209.998 81.7239 207.871 88.2278L192.116 136.404C189.098 145.633 191.815 155.774 199.043 162.257Z" stroke="white"/>
<path opacity="0.507246" d="M192.461 158.502L227.859 193.952C232.705 198.804 239.362 201.404 246.213 201.119L321.828 197.979C327.621 197.738 333.141 195.45 337.407 191.523L384.961 147.734C391.329 141.871 394.13 133.083 392.33 124.617L383.29 82.0879C381.491 73.6216 375.358 66.7331 367.156 63.9667L305.902 43.3059C300.408 41.4527 294.435 41.6082 289.044 43.7447L218.689 71.6311C212.315 74.1578 207.291 79.2404 204.838 85.6439L186.919 132.427C183.462 141.451 185.633 151.664 192.461 158.502Z" stroke="white"/>
<path opacity="0.521739" d="M186.179 154.784L219.182 191.689C223.762 196.812 230.284 199.775 237.155 199.856L311.561 200.736C317.389 200.805 323.051 198.794 327.529 195.064L376.447 154.326C383.081 148.801 386.318 140.193 384.967 131.667L378.229 89.1212C376.878 80.5946 371.14 73.4081 363.124 70.2039L304.011 46.5761C298.599 44.4129 292.593 44.2499 287.072 46.1163L216.579 69.9458C210.069 72.1464 204.783 76.9797 202.009 83.2669L182.027 128.564C178.146 137.362 179.77 147.616 186.179 154.784Z" stroke="white"/>
<path opacity="0.536232" d="M180.192 151.123L210.746 189.331C215.047 194.709 221.413 198.029 228.284 198.478L301.271 203.241C307.117 203.623 312.907 201.897 317.59 198.376L367.685 160.711C374.567 155.537 378.227 147.13 377.327 138.568L372.867 96.1271C371.967 87.5644 366.638 80.1026 358.831 76.4723L302 50.0459C296.687 47.5755 290.665 47.0908 285.025 48.6796L214.625 68.514C207.996 70.3815 202.46 74.9524 199.371 81.1074L177.429 124.833C173.138 133.384 174.217 143.651 180.192 151.123Z" stroke="white"/>
<path opacity="0.550725" d="M174.492 147.532L202.554 186.889C206.561 192.509 212.752 196.177 219.605 196.994L290.97 205.495C296.819 206.191 302.723 204.758 307.601 201.456L358.689 166.876C365.8 162.063 369.872 153.879 369.422 145.304L367.21 103.088C366.761 94.5133 361.855 86.7998 354.281 82.7565L299.858 53.7061C294.662 50.9323 288.64 50.1235 282.896 51.4278L212.81 67.3418C206.08 68.87 200.307 73.1658 196.909 79.1731L173.114 121.248C168.429 129.533 168.966 139.782 174.492 147.532Z" stroke="white"/>
<path opacity="0.565217" d="M169.072 144.028L194.609 184.38C198.308 190.225 204.305 194.233 211.119 195.417L280.674 207.498C286.509 208.511 292.514 207.376 297.577 204.304L349.476 172.81C356.795 168.368 361.265 160.427 361.265 151.865V109.988C361.265 101.426 356.795 93.4849 349.476 89.043L297.577 57.5488C292.514 54.4763 286.509 53.3418 280.674 54.3552L211.119 66.4358C204.305 67.6194 198.308 71.6282 194.609 77.4727L169.072 117.825C164.009 125.825 164.009 136.027 169.072 144.028Z" stroke="white"/>
<path opacity="0.57971" d="M163.923 140.624L186.91 181.817C190.288 187.87 196.072 192.209 202.829 193.758L270.397 209.251C276.201 210.582 282.292 209.753 287.53 206.92L340.059 178.502C347.568 174.44 352.421 166.761 352.868 158.235L355.039 116.811C355.486 108.286 351.462 100.142 344.419 95.3171L295.148 61.5642C290.235 58.1985 284.264 56.7375 278.352 57.4545L209.535 65.8002C202.653 66.6347 196.447 70.3453 192.455 76.0122L165.289 114.576C159.865 122.275 159.334 132.401 163.923 140.624Z" stroke="white"/>
<path opacity="0.594203" d="M159.037 137.336L179.458 179.214C182.504 185.458 188.057 190.116 194.736 192.029L260.152 210.759C265.909 212.408 272.072 211.89 277.474 209.305L330.457 183.944C338.135 180.268 343.355 172.871 344.244 164.406L348.539 123.544C349.429 115.078 345.861 106.757 339.115 101.566L292.563 65.7436C287.816 62.0911 281.896 60.3037 275.922 60.7192L208.041 65.4397C201.11 65.9217 194.71 69.3234 190.433 74.7984L161.751 111.515C155.985 118.896 154.932 128.918 159.037 137.336Z" stroke="white"/>
<path opacity="0.608696" d="M154.403 134.175L172.253 176.585C174.954 183.003 180.259 187.969 186.841 190.241L249.953 212.025C255.647 213.99 261.866 213.789 267.421 211.46L320.685 189.126C328.511 185.845 334.081 178.747 335.409 170.365L341.775 130.17C343.103 121.788 339.998 113.316 333.569 107.777L289.814 70.0767C285.25 66.1448 279.398 64.0319 273.376 64.1415L206.62 65.3569C199.658 65.4837 193.079 68.5668 188.527 73.8358L158.446 108.654C152.357 115.702 150.791 125.592 154.403 134.175Z" stroke="white"/>
<path opacity="0.623188" d="M150.012 131.156L165.292 173.946C167.639 180.518 172.678 185.778 179.144 188.405L239.814 213.053C245.428 215.333 251.688 215.453 257.384 213.388L310.76 194.042C318.714 191.16 324.617 184.378 326.376 176.103L334.756 136.677C336.515 128.402 333.88 119.805 327.787 113.937L286.894 74.5538C282.53 70.3506 276.763 67.9137 270.707 67.7139L205.256 65.554C198.281 65.3238 191.539 68.0793 186.721 73.129L155.358 106.004C148.966 112.704 146.898 122.435 150.012 131.156Z" stroke="white"/>
<path opacity="0.637681" d="M145.85 128.288L158.573 171.308C160.557 178.016 165.313 183.556 171.644 186.532L229.748 213.847C235.264 216.44 241.549 216.884 247.375 215.092L300.7 198.686C308.76 196.207 314.978 189.756 317.161 181.611L327.492 143.052C329.675 134.906 327.515 126.211 321.775 120.033L283.797 79.1639C279.648 74.6986 273.983 71.9404 267.909 71.428L203.932 66.0317C196.961 65.4437 190.072 67.8633 185 72.6807L152.472 103.576C145.798 109.915 143.24 119.461 145.85 128.288Z" stroke="white"/>
<path opacity="0.652174" d="M141.909 125.583L152.094 168.685C153.706 175.509 158.165 181.315 164.341 184.633L219.767 214.414C225.17 217.317 231.465 218.088 237.408 216.574L290.522 203.052C298.667 200.979 305.181 194.874 307.778 186.881L319.995 149.282C322.592 141.288 320.911 132.521 315.54 126.055L280.518 83.8962C276.599 79.1786 271.053 76.1024 264.976 75.2753L202.631 66.7897C195.683 65.8441 188.664 67.9203 183.349 72.4929L149.774 101.376C142.838 107.344 139.805 116.679 141.909 125.583Z" stroke="white"/>
<path opacity="0.666667" d="M138.174 123.053L145.85 166.091C147.084 173.01 151.229 179.066 157.233 182.719L209.884 214.76C215.156 217.968 221.445 219.068 227.493 217.841L280.244 207.137C288.453 205.471 295.243 199.727 298.244 191.907L312.275 155.355C315.277 147.535 314.075 138.723 309.089 131.992L277.05 88.7402C273.377 83.7812 267.967 80.3912 261.903 79.2478L201.336 67.8276C194.429 66.5254 187.297 68.2517 181.75 72.5677L147.248 99.4158C140.071 105 136.578 114.101 138.174 123.053Z" stroke="white"/>
<path opacity="0.681159" d="M134.634 120.705L139.836 163.539C140.686 170.532 144.504 176.821 150.317 180.801L200.111 214.892C205.236 218.4 211.502 219.831 217.642 218.896L269.883 210.937C278.135 209.68 285.18 204.308 288.575 196.682L304.345 161.262C307.74 153.636 307.019 144.806 302.431 137.833L273.39 93.6842C269.976 88.4955 264.72 84.7967 258.684 83.336L200.03 69.1428C193.183 67.4859 185.954 68.8566 180.189 72.9048L144.876 97.7002C137.481 102.893 133.545 111.735 134.634 120.705Z" stroke="white"/>
<path opacity="0.695652" d="M131.276 118.549L134.049 161.04C134.509 168.086 137.987 174.592 143.591 178.888L190.46 214.818C195.421 218.621 201.648 220.384 207.867 219.746L259.458 214.451C267.732 213.602 275.01 208.613 278.787 201.202L296.217 166.993C299.993 159.581 299.751 150.761 295.575 143.568L269.533 98.7175C266.395 93.3115 261.308 89.3099 255.315 87.5317L198.699 70.7331C191.929 68.7244 184.622 69.7344 178.651 73.5042L142.644 96.2361C135.053 101.029 130.691 109.59 131.276 118.549Z" stroke="white"/>
<path opacity="0.710145" d="M128.085 116.591L128.481 158.606C128.548 165.684 131.673 172.388 137.052 176.99L180.94 214.545C185.722 218.636 191.894 220.731 198.177 220.395L248.986 217.678C257.261 217.236 264.751 212.64 268.895 205.463L287.905 172.537C292.048 165.36 292.283 156.575 288.529 149.188L265.478 103.828C262.627 98.218 257.727 93.9201 251.793 91.8251L197.325 72.5938C190.65 70.2371 183.282 70.8826 177.119 74.3639L140.535 95.028C132.769 99.4141 128.001 107.673 128.085 116.591Z" stroke="white"/>
<path opacity="0.724638" d="M125.049 114.84L123.127 156.249C122.798 163.337 125.558 170.22 130.694 175.117L171.563 214.084C176.149 218.456 182.249 220.881 188.585 220.852L238.484 220.618C246.739 220.579 254.42 216.385 258.916 209.462L279.421 177.888C283.917 170.964 284.624 162.241 281.302 154.684L261.219 109.004C258.67 103.204 253.972 98.6176 248.113 96.207L195.892 74.7204C189.33 72.0203 181.92 72.298 175.578 75.4816L138.531 94.08C130.614 98.0541 125.46 105.992 125.049 114.84Z" stroke="white"/>
<path opacity="0.73913" d="M122.153 113.3L117.979 153.98C117.253 161.056 119.638 168.099 124.515 173.277L162.339 213.442C166.713 218.087 172.725 220.842 179.098 221.122L227.97 223.272C236.185 223.633 244.034 219.849 248.867 213.196L270.779 183.037C275.613 176.385 276.786 167.751 273.904 160.049L256.757 114.234C254.521 108.259 250.043 103.393 244.274 100.668L194.387 77.1071C187.955 74.0693 180.52 73.977 174.014 76.8543L136.616 93.3949C128.571 96.9528 123.051 104.55 122.153 113.3Z" stroke="white"/>
<path opacity="0.753623" d="M119.385 111.979L113.03 151.81C111.907 158.852 113.907 166.034 118.509 171.481L153.277 212.632C157.423 217.54 163.331 220.622 169.728 221.216L217.461 225.644C225.616 226.4 233.61 223.032 238.764 216.667L261.994 187.981C267.148 181.616 268.781 173.096 266.346 165.276L252.09 119.507C250.179 113.373 245.936 108.235 240.273 105.2L192.793 79.7482C186.508 76.379 179.067 75.9155 172.413 78.4785L134.773 92.9755C126.623 96.1144 120.76 103.354 119.385 111.979Z" stroke="white"/>
<path opacity="0.768116" d="M116.727 110.877L108.271 149.747C106.751 156.733 108.358 164.034 112.671 169.735L144.384 211.662C148.288 216.823 154.075 220.23 160.482 221.139L206.974 227.735C215.049 228.881 223.165 225.933 228.623 219.872L253.079 192.71C258.537 186.649 260.62 178.269 258.636 170.358L247.216 124.811C245.642 118.534 241.649 113.135 236.108 109.792L191.097 82.6349C184.975 78.9418 177.547 78.1065 170.758 80.3482L132.985 92.8212C124.753 95.5395 118.57 102.406 116.727 110.877Z" stroke="white"/>
<path opacity="0.782609" d="M114.169 110.001L103.694 147.802C101.781 154.709 102.987 162.107 106.996 168.048L135.671 210.543C139.317 215.947 144.967 219.674 151.37 220.901L196.525 229.552C204.502 231.08 212.717 228.556 218.459 222.813L244.049 197.223C249.792 191.481 252.316 183.266 250.788 175.289L242.137 130.134C240.91 123.731 237.183 118.081 231.779 114.435L189.284 85.76C183.343 81.751 175.945 80.5445 169.038 82.4583L131.237 92.9326C122.945 95.2302 116.466 101.709 114.169 110.001Z" stroke="white"/>
<path opacity="0.797101" d="M111.693 109.352L99.2904 145.984C96.986 152.789 97.7854 160.264 101.477 166.428L127.143 209.287C130.518 214.922 136.014 218.967 142.398 220.512L186.132 231.099C193.99 233.001 202.281 230.904 208.29 225.494L234.919 201.516C240.928 196.106 243.88 188.08 242.81 180.065L236.852 135.465C235.983 128.954 232.535 123.066 227.284 119.12L187.342 89.1148C181.597 84.799 174.248 83.2226 167.238 84.803L129.511 93.309C121.182 95.1868 114.432 101.265 111.693 109.352Z" stroke="white"/>
<path opacity="0.811594" d="M109.288 108.931L95.05 144.299C92.3599 150.981 92.747 158.509 96.1086 164.881L118.809 207.905C121.898 213.76 127.224 218.115 133.575 219.98L175.808 232.381C183.531 234.649 191.875 232.979 198.129 227.914L225.703 205.585C231.958 200.52 235.326 192.706 234.714 184.681L231.364 140.792C230.861 134.192 227.708 128.076 222.623 123.838L185.259 92.6884C179.725 88.0756 172.442 86.1318 165.346 87.3738L127.791 93.947C119.448 95.4073 112.451 101.074 109.288 108.931Z" stroke="white"/>
<path opacity="0.826087" d="M106.937 108.74L90.963 142.756C87.893 149.294 87.8639 156.853 90.8836 163.413L110.673 206.41C113.462 212.471 118.602 217.132 124.906 219.316L165.571 233.408C173.14 236.031 181.513 234.788 187.993 230.08L216.415 209.43C222.896 204.721 226.665 197.142 226.51 189.133L225.674 146.105C225.544 139.434 222.7 133.105 217.798 128.579L183.021 96.472C177.714 91.5727 170.516 89.2645 163.35 90.164L126.062 94.8447C117.726 95.891 110.508 101.135 106.937 108.74Z" stroke="white"/>
<path opacity="0.84058" d="M104.628 108.778L87.0196 141.362C83.577 147.732 83.1289 155.299 85.7955 162.032L102.741 204.813C105.218 211.066 110.156 216.026 116.399 218.53L155.433 234.186C162.832 237.154 171.211 236.336 177.897 231.994L207.071 213.049C213.756 208.707 217.912 201.384 218.21 193.418L219.784 151.391C220.036 144.67 217.513 138.141 212.808 133.335L180.618 100.453C175.552 95.2791 168.457 92.6107 161.237 93.1645L124.308 95.9972C116.002 96.6343 108.588 101.449 104.628 108.778Z" stroke="white"/>
<path opacity="0.855072" d="M102.345 109.044L83.2087 140.122C79.4021 146.304 78.5333 153.856 80.8368 160.741L95.0177 203.127C97.1694 209.558 101.891 214.81 108.057 217.632L145.409 234.725C152.621 238.025 160.985 237.63 167.854 233.664L197.683 216.442C204.552 212.476 209.076 205.431 209.824 197.535L213.697 156.641C214.337 149.889 212.149 143.175 207.656 138.096L178.039 104.622C173.228 99.1844 166.253 96.1607 158.996 96.3663L122.513 97.3998C114.258 97.6337 106.676 102.011 102.345 109.044Z" stroke="white"/>
<path opacity="0.869565" d="M100.076 109.537L79.5201 139.042C75.3591 145.015 74.0694 152.529 76.0006 159.547L87.5071 201.365C89.3216 207.959 93.8098 213.494 99.8864 216.633L135.513 235.033C142.523 238.654 150.848 238.677 157.878 235.095L188.267 219.611C195.297 216.029 200.172 209.28 201.364 201.48L207.418 161.843C208.451 155.082 206.611 148.197 202.342 142.853L175.275 108.964C170.732 103.277 163.895 99.9037 156.617 99.7594L120.664 99.0465C112.48 98.8843 104.755 102.82 100.076 109.537Z" stroke="white"/>
<path opacity="0.884058" d="M97.8073 110.253L75.9431 138.127C71.4386 143.87 69.7289 151.321 71.2796 158.453L80.2127 199.538C81.6785 206.279 85.9185 212.09 91.891 215.543L125.757 235.121C132.551 239.049 140.815 239.485 147.984 236.293L178.837 222.556C186.006 219.364 191.212 212.931 192.84 205.254L200.951 166.986C202.381 160.238 200.9 153.198 196.871 147.598L172.317 113.469C168.054 107.544 161.372 103.828 154.091 103.333L118.746 100.93C110.654 100.38 102.813 103.871 97.8073 110.253Z" stroke="white"/>
<path opacity="0.898551" d="M95.525 111.191L72.4657 137.381C67.6299 142.873 65.5025 150.24 66.6655 157.465L73.1362 197.661C74.2424 204.533 78.2193 210.61 84.0736 214.374L116.152 235.002C122.716 239.223 130.898 240.064 138.184 237.268L169.406 225.282C176.691 222.486 182.209 216.386 184.262 208.857L194.299 172.063C196.13 165.348 195.019 158.171 191.243 152.324L169.156 118.123C165.185 111.975 158.675 107.924 151.406 107.078L116.745 103.045C108.764 102.116 100.835 105.16 95.525 111.191Z" stroke="white"/>
<path opacity="0.913043" d="M93.2168 112.344L69.0774 136.807C63.9236 142.029 61.382 149.287 62.1512 156.584L66.2798 195.746C67.0162 202.731 70.7152 209.064 76.4375 213.137L106.711 234.685C113.032 239.184 121.11 240.424 128.489 238.026L159.987 227.792C167.366 225.394 173.173 219.643 175.642 212.288L187.468 177.061C189.704 170.403 188.974 163.105 185.464 157.021L165.785 122.911C162.118 116.556 155.796 112.178 148.557 110.982L114.649 105.381C106.798 104.084 98.8061 106.68 93.2168 112.344Z" stroke="white"/>
<path opacity="0.927536" d="M90.8706 113.71L65.7669 136.407C60.3097 141.341 57.3586 148.467 57.7291 155.814L59.6446 193.806C60.0016 200.887 63.4084 207.466 68.9849 211.843L97.4428 234.184C103.509 238.946 111.463 240.574 118.912 238.578L150.594 230.089C158.043 228.093 164.118 222.706 166.99 215.549L180.465 181.972C183.106 175.393 182.766 167.992 179.535 161.681L162.198 127.822C158.845 121.273 152.727 116.578 145.534 115.034L112.445 107.929C104.742 106.276 96.7143 108.427 90.8706 113.71Z" stroke="white"/>
<path opacity="0.942029" d="M88.4737 115.282L62.5222 136.185C56.7773 140.812 53.423 147.781 53.3907 155.158L53.2302 191.855C53.1989 199.012 56.2993 205.826 61.7166 210.504L88.3569 233.511C94.1573 238.52 101.968 240.527 109.464 238.933L141.238 232.179C148.735 230.586 155.054 225.576 158.315 218.641L173.295 186.788C176.341 180.31 176.402 172.825 173.462 166.299L158.389 132.84C155.36 126.114 149.461 121.111 142.33 119.221L110.121 110.681C102.584 108.683 94.5461 110.391 88.4737 115.282Z" stroke="white"/>
<path opacity="0.956522" d="M86.0152 117.055L59.3328 136.14C53.3168 140.443 49.5668 147.233 49.129 154.617L47.0369 189.904C46.609 197.12 49.3894 204.156 54.634 209.131L79.4625 232.679C84.9872 237.919 92.6343 240.293 100.155 239.102L131.933 234.068C139.454 232.877 145.993 228.257 149.628 221.566L165.965 191.498C169.416 185.146 169.885 177.595 167.249 170.865L154.355 137.951C151.657 131.064 145.992 125.765 138.941 123.531L107.666 113.626C100.312 111.296 92.2899 112.567 86.0152 117.055Z" stroke="white"/>
<path opacity="0.971014" d="M83.484 119.021L56.1869 136.274C49.9178 140.236 45.7809 146.825 44.936 154.193L41.063 187.969C40.2312 195.223 42.6781 202.47 47.7369 207.735L70.7668 231.703C76.0071 237.157 83.4725 239.885 90.9944 239.094L122.69 235.763C130.212 234.972 136.947 230.752 140.938 224.328L158.482 196.095C162.335 189.893 163.222 182.296 160.9 175.373L150.09 143.141C147.731 136.109 142.315 130.525 135.359 127.952L105.071 116.752C97.9148 114.105 89.9338 114.944 83.484 119.021Z" stroke="white"/>
<path opacity="0.985507" d="M80.8696 121.173L53.0736 136.586C46.5703 140.192 42.0566 146.556 40.8042 153.886L35.307 186.06C34.0645 193.332 36.1649 200.777 41.025 206.327L62.2769 230.596C67.2248 236.246 74.4909 239.315 81.9912 238.922L113.519 237.27C121.019 236.877 127.925 233.065 132.255 226.929L150.854 200.571C155.107 194.543 156.418 186.92 154.422 179.817L145.592 148.394C143.58 141.235 138.426 135.378 131.581 132.471L102.326 120.049C95.3823 117.1 87.4672 117.515 80.8696 121.173Z" stroke="white"/>
<path d="M78.162 123.504L49.9814 137.075C43.2639 140.31 38.385 146.428 36.7259 153.697L29.7658 184.191C28.1067 191.46 29.848 199.089 34.4967 204.918L53.9983 229.372C58.647 235.201 65.6972 238.597 73.1531 238.597H104.431C111.887 238.597 118.937 235.201 123.586 229.372L143.088 204.918C147.736 199.089 149.478 191.46 147.818 184.191L140.858 153.697C139.199 146.428 134.32 140.31 127.603 137.075L99.4223 123.504C92.7047 120.269 84.8796 120.269 78.162 123.504Z" stroke="white"/>
</g>
</g>
<defs>
<linearGradient id="paint0_linear_2_460" x1="449.805" y1="799.152" x2="-201.39" y2="701.041" gradientUnits="userSpaceOnUse">
<stop stop-color="#EE3227"/>
<stop offset="1" stop-color="#F9EB1E"/>
</linearGradient>
<linearGradient id="paint1_linear_2_460" x1="449.805" y1="1023.44" x2="-207.08" y2="946.163" gradientUnits="userSpaceOnUse">
<stop stop-color="#EE3227"/>
<stop offset="1" stop-color="#F9EB1E"/>
</linearGradient>
</defs>
</svg>
