<svg width="1920" height="654" viewBox="0 0 1920 654" fill="none" xmlns="http://www.w3.org/2000/svg">
<mask id="mask0_2_157" style="mask-type:alpha" maskUnits="userSpaceOnUse" x="0" y="0" width="1920" height="654">
<rect width="1920" height="654" fill="url(#paint0_linear_2_157)"/>
</mask>
<g mask="url(#mask0_2_157)">
<rect width="1920" height="1116" fill="url(#paint1_linear_2_157)"/>
<g opacity="0.2">
<path opacity="0.0144928" d="M1675.89 522.415L1788.03 320.393C1790.97 315.093 1791.7 308.846 1790.06 303.01L1698.93 -21.4307C1697.64 -26.0203 1694.95 -30.0959 1691.25 -33.0938L1463.27 -217.473C1456.55 -222.909 1447.35 -224.118 1439.45 -220.602L1256.65 -139.213C1248.75 -135.698 1243.5 -128.051 1243.04 -119.42L1227.51 173.374C1227.26 178.134 1228.49 182.855 1231.04 186.885L1411.16 471.707C1414.4 476.83 1419.54 480.467 1425.44 481.827L1650.62 533.666C1660.6 535.965 1670.91 531.377 1675.89 522.415Z" stroke="white" stroke-width="4"/>
<path opacity="0.0289855" d="M1639.97 532.193L1761.94 337.954C1765.17 332.812 1766.23 326.603 1764.9 320.68L1691.72 -5.04501C1690.67 -9.71034 1688.19 -13.9329 1684.63 -17.1255L1468.27 -211.168C1461.85 -216.931 1452.74 -218.611 1444.68 -215.517L1259.01 -144.247C1250.95 -141.153 1245.3 -133.807 1244.38 -125.224L1213.44 163.75C1212.93 168.504 1213.91 173.299 1216.26 177.467L1379.82 468.499C1382.8 473.792 1387.74 477.693 1393.58 479.354L1614.2 542.085C1624.03 544.881 1634.53 540.851 1639.97 532.193Z" stroke="white" stroke-width="4"/>
<path opacity="0.0434783" d="M1603.97 540.827L1735.27 354.839C1738.78 349.872 1740.17 343.719 1739.16 337.725L1683.8 11.6973C1683 6.96875 1680.74 2.60947 1677.34 -0.770649L1472.98 -203.77C1466.86 -209.846 1457.86 -211.991 1449.66 -209.327L1261.69 -148.25C1253.49 -145.586 1247.47 -138.56 1246.09 -130.05L1200.08 154.3C1199.31 159.034 1200.05 163.89 1202.18 168.187L1349.03 464.484C1351.73 469.931 1356.48 474.088 1362.23 476.045L1577.78 549.338C1587.43 552.62 1598.09 549.156 1603.97 540.827Z" stroke="white" stroke-width="4"/>
<path opacity="0.057971" d="M1567.96 548.322L1708.06 371.025C1711.83 366.247 1713.56 360.168 1712.86 354.119L1675.17 28.7552C1674.62 23.9761 1672.58 19.4909 1669.34 15.9309L1477.32 -195.308C1471.53 -201.679 1462.67 -204.282 1454.35 -202.054L1264.62 -151.216C1256.31 -148.987 1249.93 -142.301 1248.1 -133.888L1187.43 145.06C1186.4 149.761 1186.88 154.665 1188.79 159.08L1318.84 459.697C1321.25 465.286 1325.79 469.687 1331.45 471.937L1541.42 555.435C1550.87 559.192 1561.66 556.3 1567.96 548.322Z" stroke="white" stroke-width="4"/>
<path opacity="0.0724638" d="M1532.01 554.69L1680.35 386.489C1684.38 381.915 1686.43 375.927 1686.05 369.84L1665.81 46.0876C1665.51 41.2708 1663.7 36.6709 1660.64 32.939L1481.26 -185.811C1475.8 -192.459 1467.1 -195.512 1458.69 -193.724L1267.76 -153.14C1259.35 -151.352 1252.63 -145.023 1250.36 -136.732L1175.46 136.066C1174.18 140.72 1174.4 145.658 1176.09 150.181L1289.27 454.178C1291.4 459.893 1295.71 464.529 1301.26 467.067L1505.19 560.391C1514.4 564.61 1525.3 562.294 1532.01 554.69Z" stroke="white" stroke-width="4"/>
<path opacity="0.0869565" d="M1496.16 559.944L1652.18 401.211C1656.46 396.855 1658.83 390.976 1658.78 384.868L1655.7 63.6527C1655.65 58.8114 1654.08 54.1082 1651.2 50.213L1484.72 -175.31C1479.62 -182.217 1471.1 -185.71 1462.62 -184.367L1271.03 -154.022C1262.55 -152.679 1255.52 -146.724 1252.81 -138.579L1164.16 127.353C1162.63 131.946 1162.59 136.905 1164.04 141.524L1260.38 447.968C1262.21 453.795 1266.28 458.654 1271.7 461.473L1469.14 564.223C1478.11 568.891 1489.07 567.154 1496.16 559.944Z" stroke="white" stroke-width="4"/>
<path opacity="0.101449" d="M1460.48 564.101L1623.6 415.176C1628.12 411.051 1630.81 405.297 1631.07 399.186L1644.84 81.409C1645.05 76.5564 1643.72 71.7618 1641.04 67.7123L1487.67 -163.84C1482.93 -170.988 1474.61 -174.909 1466.09 -174.013L1274.39 -153.865C1265.86 -152.968 1258.54 -147.404 1255.4 -139.427L1153.52 118.953C1151.73 123.472 1151.43 128.438 1152.64 133.141L1232.18 441.111C1233.71 447.034 1237.54 452.103 1242.81 455.198L1433.33 566.954C1442.03 572.055 1453.03 570.898 1460.48 564.101Z" stroke="white" stroke-width="4"/>
<path opacity="0.115942" d="M1425.03 567.182L1594.66 428.366C1599.4 424.486 1602.39 418.874 1602.98 412.776L1633.23 99.3132C1633.7 94.4626 1632.61 89.5887 1630.13 85.3945L1490.04 -151.44C1485.68 -158.809 1477.59 -163.147 1469.04 -162.699L1277.77 -152.675C1269.22 -152.227 1261.63 -147.067 1258.06 -139.282L1143.5 110.898C1141.47 115.328 1140.9 120.289 1141.87 125.064L1204.72 433.648C1205.94 439.652 1209.51 444.919 1214.63 448.283L1397.84 568.607C1406.24 574.125 1417.25 573.548 1425.03 567.182Z" stroke="white" stroke-width="4"/>
<path opacity="0.130435" d="M1389.86 569.209L1565.39 440.772C1570.34 437.148 1573.64 431.695 1574.55 425.627L1620.86 117.324C1621.59 112.489 1620.75 107.548 1618.48 103.219L1491.8 -138.149C1487.83 -145.719 1479.99 -150.46 1471.44 -150.46H1281.13C1272.58 -150.46 1264.73 -145.719 1260.76 -138.149L1134.08 103.219C1131.81 107.548 1130.98 112.489 1131.7 117.324L1178.01 425.627C1178.93 431.695 1182.22 437.148 1187.18 440.772L1362.7 569.209C1370.79 575.127 1381.78 575.127 1389.86 569.209Z" stroke="white" stroke-width="4"/>
<path opacity="0.144928" d="M1355.04 570.209L1535.84 452.382C1540.99 449.026 1544.58 443.749 1545.81 437.728L1607.73 135.398C1608.71 130.592 1608.14 125.597 1606.08 121.143L1492.9 -124.01C1489.33 -131.76 1481.75 -136.891 1473.23 -137.338L1284.39 -147.234C1275.87 -147.681 1267.8 -143.37 1263.43 -136.036L1125.25 95.9441C1122.74 100.159 1121.64 105.066 1122.12 109.948L1152.1 417.094C1152.69 423.211 1155.71 428.835 1160.48 432.711L1327.98 568.791C1335.73 575.091 1346.67 575.664 1355.04 570.209Z" stroke="white" stroke-width="4"/>
<path opacity="0.15942" d="M1320.6 570.211L1506.06 463.191C1511.39 460.114 1515.26 455.027 1516.82 449.07L1593.84 153.495C1595.08 148.732 1594.77 143.695 1592.93 139.127L1493.31 -109.067C1490.13 -116.977 1482.84 -122.482 1474.37 -123.373L1287.52 -143.011C1279.05 -143.902 1270.77 -140.032 1266.02 -132.955L1116.97 89.1018C1114.23 93.189 1112.87 98.0486 1113.09 102.966L1126.98 408.097C1127.26 414.247 1130 420.028 1134.57 424.146L1293.72 567.385C1301.12 574.049 1311.98 575.189 1320.6 570.211Z" stroke="white" stroke-width="4"/>
<path opacity="0.173913" d="M1286.61 569.246L1476.08 473.192C1481.58 470.404 1485.73 465.524 1487.6 459.647L1579.2 171.572C1580.7 166.865 1580.64 161.8 1579.04 157.129L1492.97 -93.3668C1490.2 -101.415 1483.22 -107.279 1474.81 -108.61L1290.46 -137.809C1282.05 -139.14 1273.6 -135.721 1268.48 -128.922L1109.22 82.7171C1106.25 86.6641 1104.63 91.4625 1104.6 96.4021L1102.7 398.684C1102.66 404.85 1105.1 410.774 1109.47 415.126L1259.98 565.028C1267.02 572.035 1277.76 573.735 1286.61 569.246Z" stroke="white" stroke-width="4"/>
<path opacity="0.188406" d="M1253.11 567.348L1445.97 482.385C1451.62 479.895 1456.03 475.236 1458.22 469.457L1563.82 189.589C1565.57 184.951 1565.77 179.872 1564.4 175.108L1491.86 -76.9576C1489.51 -85.1228 1482.85 -91.3273 1474.54 -93.0938L1293.15 -131.648C1284.84 -133.414 1276.23 -130.455 1270.77 -123.952L1101.97 76.8151C1098.78 80.6094 1096.9 85.3328 1096.61 90.2816L1079.25 388.906C1078.89 395.072 1081.03 401.124 1085.18 405.698L1226.81 561.757C1233.46 569.087 1244.05 571.339 1253.11 567.348Z" stroke="white" stroke-width="4"/>
<path opacity="0.202899" d="M1220.15 564.555L1415.75 490.77C1421.54 488.586 1426.21 484.162 1428.7 478.497L1547.69 207.505C1549.69 202.95 1550.16 197.869 1549.03 193.025L1489.94 -59.8894C1488.01 -68.1497 1481.69 -74.6772 1473.49 -76.8728L1295.55 -124.552C1287.36 -126.747 1278.62 -124.255 1272.82 -118.066L1095.19 71.4178C1091.79 75.0473 1089.65 79.6821 1089.11 84.627L1056.67 378.812C1055.99 384.962 1057.82 391.126 1061.74 395.911L1194.24 557.613C1200.5 565.244 1210.92 568.037 1220.15 564.555Z" stroke="white" stroke-width="4"/>
<path opacity="0.217391" d="M1187.77 560.906L1385.48 498.349C1391.39 496.479 1396.3 492.304 1399.09 486.77L1530.84 225.28C1533.09 220.821 1533.82 215.752 1532.93 210.839L1487.18 -42.2132C1485.68 -50.5471 1479.71 -57.3787 1471.66 -59.9957L1297.61 -116.547C1289.56 -119.164 1280.72 -117.143 1274.6 -111.286L1088.85 66.5466C1085.24 69.9995 1082.86 74.5322 1082.05 79.4601L1034.95 368.454C1033.95 374.57 1035.46 380.831 1039.14 385.816L1162.33 552.639C1168.17 560.55 1178.39 563.872 1187.77 560.906Z" stroke="white" stroke-width="4"/>
<path opacity="0.231884" d="M1156.01 556.44L1355.2 505.127C1361.21 503.579 1366.34 499.665 1369.43 494.277L1513.27 242.876C1515.76 238.526 1516.76 233.483 1516.12 228.512L1483.57 -23.982C1482.49 -32.3673 1476.89 -39.4835 1469 -42.5134L1299.29 -107.66C1291.39 -110.69 1282.47 -109.145 1276.06 -103.637L1082.91 62.22C1079.11 65.4849 1076.48 69.9021 1075.42 74.8L1014.1 357.88C1012.79 363.948 1013.98 370.289 1017.41 375.463L1131.1 546.88C1136.52 555.047 1146.52 558.885 1156.01 556.44Z" stroke="white" stroke-width="4"/>
<path opacity="0.246377" d="M1124.91 551.201L1324.95 511.113C1331.04 509.891 1336.39 506.252 1339.76 501.025L1495.01 260.254C1497.73 256.026 1499 251.022 1498.61 246.007L1479.07 -5.24918C1478.41 -13.6641 1473.2 -21.0444 1465.49 -24.4774L1300.53 -97.9237C1292.82 -101.357 1283.85 -100.291 1277.15 -95.1463L1077.36 58.4554C1073.37 61.5214 1070.5 65.8101 1069.18 70.6646L994.135 347.144C992.506 353.146 993.377 359.551 996.549 364.9L1100.61 540.381C1105.59 548.781 1115.33 553.12 1124.91 551.201Z" stroke="white" stroke-width="4"/>
<path opacity="0.26087" d="M1094.51 545.233L1294.77 516.315C1300.93 515.424 1306.47 512.071 1310.12 507.021L1476.05 277.378C1479.01 273.285 1480.54 268.333 1480.4 263.285L1473.66 13.9309C1473.43 5.50844 1468.62 -2.11532 1461.11 -5.94044L1301.3 -87.3692C1293.79 -91.1943 1284.79 -90.6084 1277.84 -85.8422L1072.15 55.2684C1067.98 58.1248 1064.88 62.2721 1063.3 67.0702L975.051 336.295C973.111 342.215 973.655 348.669 976.559 354.18L1070.87 533.19C1075.41 541.801 1084.87 546.624 1094.51 545.233Z" stroke="white" stroke-width="4"/>
<path opacity="0.275362" d="M1064.83 538.583L1264.7 520.745C1270.91 520.19 1276.64 517.133 1280.55 512.276L1456.44 294.211C1459.62 290.266 1461.41 285.379 1461.53 280.312L1467.33 33.5026C1467.53 25.0944 1463.12 17.2488 1455.84 13.0436L1301.55 -76.0318C1294.27 -80.2371 1285.27 -80.1313 1278.09 -75.7561L1067.25 52.6721C1062.92 55.309 1059.58 59.3022 1057.76 64.0308L956.849 325.384C954.601 331.206 954.815 337.691 957.443 343.352L1041.93 525.358C1046.01 534.155 1055.17 539.445 1064.83 538.583Z" stroke="white" stroke-width="4"/>
<path opacity="0.289855" d="M1035.92 531.298L1234.78 524.418C1241.03 524.201 1246.92 521.451 1251.1 516.8L1436.18 310.72C1439.58 306.934 1441.63 302.127 1442.01 297.052L1460.07 53.4107C1460.69 45.0385 1456.7 36.9931 1449.66 32.4208L1301.26 -63.948C1294.22 -68.5203 1285.25 -68.8933 1277.85 -64.9209L1062.62 50.6785C1058.14 53.0863 1054.58 56.913 1052.51 61.5593L939.523 314.46C936.973 320.168 936.856 326.669 939.2 332.465L1013.8 516.935C1017.42 525.894 1026.26 531.632 1035.92 531.298Z" stroke="white" stroke-width="4"/>
<path opacity="0.304348" d="M1007.79 523.428L1205.06 527.349C1211.32 527.473 1217.36 525.039 1221.79 520.608L1415.3 326.871C1418.91 323.256 1421.21 318.542 1421.85 313.473L1451.86 73.5994C1452.9 65.2846 1449.34 57.062 1442.56 52.1366L1300.39 -51.1558C1293.61 -56.0812 1284.69 -56.9299 1277.1 -53.3711L1058.24 49.2975C1053.62 51.4673 1049.85 55.1155 1047.52 59.6665L923.068 303.575C920.221 309.153 919.773 315.652 921.826 321.569L986.516 507.973C989.673 517.069 998.161 523.236 1007.79 523.428Z" stroke="white" stroke-width="4"/>
<path opacity="0.318841" d="M980.466 515.021L1175.56 529.557C1181.82 530.023 1188 527.913 1192.66 523.715L1393.82 342.633C1397.63 339.201 1400.19 334.593 1401.08 329.541L1442.7 94.0124C1444.16 85.7763 1441.03 77.3993 1434.53 72.1358L1298.9 -37.6954C1292.4 -42.9589 1283.55 -44.2791 1275.8 -41.1431L1054.07 48.5365C1049.32 50.4599 1045.34 53.918 1042.77 58.361L907.474 292.775C904.337 298.209 903.557 304.689 905.314 310.713L960.095 498.524C962.781 507.733 970.9 514.308 980.466 515.021Z" stroke="white" stroke-width="4"/>
<path opacity="0.333333" d="M953.975 506.128L1146.33 531.061C1152.57 531.869 1158.86 530.09 1163.75 526.138L1371.77 357.975C1375.78 354.737 1378.58 350.247 1379.73 345.227L1432.59 114.594C1434.45 106.457 1431.76 97.9489 1425.56 92.3632L1296.76 -23.6083C1290.56 -29.1939 1281.81 -30.9799 1273.92 -28.2748L1050.07 48.4016C1045.2 50.0708 1041.03 53.3275 1038.23 57.6499L892.729 282.109C889.309 287.384 888.198 293.829 889.653 299.944L934.557 488.643C936.769 497.939 944.499 504.899 953.975 506.128Z" stroke="white" stroke-width="4"/>
<path opacity="0.347826" d="M928.332 496.801L1117.4 531.883C1123.6 533.032 1129.99 531.591 1135.09 527.898L1349.18 372.869C1353.37 369.835 1356.41 365.478 1357.82 360.501L1421.52 135.288C1423.79 127.271 1421.54 118.655 1415.65 112.764L1293.95 -8.93653C1288.06 -14.8275 1279.44 -17.0723 1271.43 -14.8048L1046.21 48.8971C1041.24 50.3049 1036.88 53.3495 1033.85 57.539L878.818 271.625C875.124 276.726 873.684 283.118 874.833 289.311L909.914 478.383C911.651 487.742 918.973 495.065 928.332 496.801Z" stroke="white" stroke-width="4"/>
<path opacity="0.362319" d="M903.552 487.092L1088.81 532.046C1094.94 533.534 1101.41 532.438 1106.71 529.013L1326.07 387.288C1330.43 384.469 1333.71 380.256 1335.37 375.335L1409.5 156.04C1412.16 148.163 1410.37 139.463 1404.8 133.284L1290.44 6.27575C1284.88 0.0970846 1276.42 -2.59815 1268.3 -0.773624L1042.46 50.0247C1037.39 51.1647 1032.86 53.9867 1029.6 58.0313L865.724 261.367C861.765 266.28 859.997 272.604 860.836 278.858L886.18 467.799C887.44 477.196 894.338 484.856 903.552 487.092Z" stroke="white" stroke-width="4"/>
<path opacity="0.376812" d="M879.645 477.053L1060.58 531.576C1066.63 533.4 1073.17 532.652 1078.65 529.508L1302.47 401.208C1307 398.613 1310.5 394.557 1312.42 389.705L1396.53 176.794C1399.58 169.078 1398.24 160.317 1393.02 153.869L1286.22 21.9845C1281 15.5365 1272.71 12.4005 1264.53 13.778L1038.78 51.7853C1033.64 52.6515 1028.94 55.2411 1025.46 59.129L853.428 251.38C849.212 256.091 847.122 262.33 847.647 268.63L863.361 456.944C864.146 466.355 870.603 474.329 879.645 477.053Z" stroke="white" stroke-width="4"/>
<path opacity="0.391304" d="M856.621 466.737L1032.74 530.499C1038.7 532.655 1045.28 532.26 1050.93 529.406L1278.42 414.604C1283.1 412.243 1286.83 408.356 1288.99 403.585L1382.63 197.499C1386.06 189.961 1385.16 181.164 1380.3 174.465L1281.25 38.144C1276.39 31.4457 1268.3 27.88 1260.07 28.8079L1035.13 54.177C1029.93 54.7643 1025.08 57.1121 1021.39 60.8318L841.907 241.708C837.445 246.204 835.035 252.341 835.246 258.671L841.463 445.874C841.775 455.273 847.778 463.536 856.621 466.737Z" stroke="white" stroke-width="4"/>
<path opacity="0.405797" d="M834.485 456.195L1005.33 528.842C1011.17 531.325 1017.77 531.285 1023.58 528.731L1253.94 427.456C1258.76 425.338 1262.71 421.631 1265.12 416.954L1367.8 218.099C1371.59 210.758 1371.16 201.949 1366.66 195.02L1275.54 54.7083C1271.04 47.7795 1263.17 43.7963 1254.92 44.2734L1031.49 57.1964C1026.24 57.5003 1021.25 59.5975 1017.35 63.1378L831.137 232.39C826.44 236.659 823.716 242.678 823.61 249.023L820.488 434.643C820.331 444.006 825.866 452.53 834.485 456.195Z" stroke="white" stroke-width="4"/>
<path opacity="0.42029" d="M813.239 445.48L978.36 526.634C984.067 529.439 990.68 529.756 996.629 527.51L1229.08 439.744C1234.02 437.876 1238.18 434.361 1240.84 429.79L1352.07 238.545C1356.21 231.419 1356.23 222.62 1352.1 215.481L1269.05 71.6312C1264.93 64.4922 1257.3 60.1049 1249.06 60.1313L1027.82 60.8385C1022.53 60.8554 1017.41 62.6937 1013.32 66.0438L821.091 223.467C816.171 227.496 813.139 233.382 812.714 239.727L800.435 423.303C799.812 432.608 804.87 441.367 813.239 445.48Z" stroke="white" stroke-width="4"/>
<path opacity="0.434783" d="M792.883 434.644L951.868 523.906C957.424 527.025 964.025 527.7 970.097 525.77L1203.86 451.451C1208.92 449.841 1213.27 446.529 1216.17 442.076L1335.44 258.785C1339.93 251.891 1340.39 243.127 1336.66 235.798L1261.79 88.866C1258.06 81.5377 1250.69 76.761 1242.48 76.3382L1024.09 65.0964C1018.78 64.8233 1013.54 66.395 1009.27 69.5447L811.74 214.978C806.609 218.755 803.276 224.492 802.534 230.82L781.299 411.91C780.218 421.131 784.787 430.098 792.883 434.644Z" stroke="white" stroke-width="4"/>
<path opacity="0.449275" d="M773.412 423.737L925.872 520.689C931.259 524.115 937.828 525.148 944.006 523.54L1178.32 462.56C1183.48 461.216 1188.02 458.117 1191.15 453.795L1317.94 278.771C1322.76 272.126 1323.67 263.419 1320.33 255.923L1253.74 106.366C1250.4 98.8695 1243.32 93.7192 1235.17 92.8501L1020.26 69.9615C1014.95 69.3962 1009.61 70.6943 1005.16 73.6334L803.055 206.957C797.725 210.472 794.097 216.045 793.038 222.341L763.073 400.514C761.54 409.629 765.613 418.777 773.412 423.737Z" stroke="white" stroke-width="4"/>
<path opacity="0.463768" d="M754.822 412.81L900.392 517.015C905.594 520.739 912.112 522.128 918.38 520.848L1152.49 473.06C1157.74 471.987 1162.46 469.112 1165.82 464.932L1299.6 298.456C1304.73 292.074 1306.08 283.448 1303.14 275.806L1244.9 124.084C1241.97 116.441 1235.19 110.934 1227.11 109.623L1016.3 75.4233C1011.01 74.5646 1005.58 75.5826 1000.96 78.3015L795.002 199.438C789.488 202.682 785.573 208.075 784.199 214.323L745.747 389.168C743.77 398.154 747.34 407.454 754.822 412.81Z" stroke="white" stroke-width="4"/>
<path opacity="0.478261" d="M737.102 401.913L875.447 512.917C880.447 516.929 886.894 518.672 893.235 517.726L1126.41 482.938C1131.74 482.142 1136.63 479.501 1140.21 475.474L1280.43 317.794C1285.86 311.691 1287.64 303.169 1285.12 295.402L1235.27 141.974C1232.74 134.207 1226.29 128.361 1218.31 126.614L1012.19 81.4705C1006.92 80.3175 1001.42 81.0498 996.641 83.5394L787.547 192.454C781.862 195.416 777.67 200.616 775.983 206.8L729.307 377.921C726.897 386.757 729.959 396.181 737.102 401.913Z" stroke="white" stroke-width="4"/>
<path opacity="0.492754" d="M720.241 391.094L851.053 508.429C855.835 512.718 862.193 514.812 868.588 514.204L1100.12 492.184C1105.52 491.672 1110.55 489.273 1114.35 485.41L1260.47 336.741C1266.18 330.931 1268.4 322.534 1266.29 314.666L1224.84 159.99C1222.73 152.121 1216.62 145.955 1208.77 143.778L1007.89 88.0892C1002.67 86.6424 997.107 87.0837 992.181 89.3354L780.655 186.034C774.813 188.705 770.354 193.697 768.357 199.803L713.737 366.824C710.904 375.488 713.455 385.008 720.241 391.094Z" stroke="white" stroke-width="4"/>
<path opacity="0.507246" d="M704.223 380.401L827.226 503.584C831.774 508.139 838.024 510.58 844.456 510.313L1073.66 500.793C1079.1 500.567 1084.28 498.42 1088.28 494.733L1239.75 355.257C1245.73 349.753 1248.36 341.503 1246.67 333.555L1213.63 178.085C1211.94 170.137 1206.18 163.671 1198.48 161.074L1003.37 95.2649C998.216 93.5251 992.608 93.6711 987.548 95.6769L774.289 180.205C768.305 182.578 763.588 187.349 761.286 193.36L699.02 355.923C695.775 364.394 697.813 373.982 704.223 380.401Z" stroke="white" stroke-width="4"/>
<path opacity="0.521739" d="M689.032 369.88L803.977 498.417C808.277 503.226 814.399 506.008 820.849 506.084L1047.05 508.759C1052.52 508.823 1057.84 506.935 1062.04 503.434L1218.3 373.301C1224.53 368.115 1227.57 360.034 1226.3 352.029L1201.62 196.216C1200.36 188.211 1194.97 181.465 1187.44 178.457L998.616 102.981C993.536 100.95 987.898 100.797 982.714 102.549L768.41 174.993C762.298 177.059 757.336 181.596 754.732 187.499L685.134 345.265C681.49 353.524 683.015 363.151 689.032 369.88Z" stroke="white" stroke-width="4"/>
<path opacity="0.536232" d="M674.648 359.575L781.316 492.964C785.354 498.013 791.33 501.13 797.781 501.551L1020.34 516.078C1025.83 516.436 1031.27 514.816 1035.66 511.51L1196.16 390.838C1202.62 385.98 1206.06 378.088 1205.21 370.05L1188.85 214.338C1188 206.299 1183 199.294 1175.67 195.886L993.59 111.22C988.602 108.901 982.949 108.446 977.655 109.937L762.978 170.42C756.755 172.173 751.558 176.464 748.658 182.242L672.054 334.894C668.025 342.922 669.038 352.56 674.648 359.575Z" stroke="white" stroke-width="4"/>
<path opacity="0.550725" d="M661.048 349.529L759.253 487.26C763.014 492.535 768.826 495.979 775.26 496.745L993.566 522.75C999.057 523.404 1004.6 522.058 1009.18 518.958L1173.36 407.831C1180.03 403.312 1183.86 395.629 1183.43 387.58L1175.3 232.407C1174.88 224.357 1170.27 217.116 1163.16 213.32L988.268 119.963C983.39 117.359 977.737 116.6 972.345 117.824L757.953 166.505C751.634 167.94 746.215 171.972 743.025 177.612L659.755 324.854C655.357 332.632 655.861 342.253 661.048 349.529Z" stroke="white" stroke-width="4"/>
<path opacity="0.565217" d="M648.209 339.783L737.793 481.338C741.266 486.825 746.895 490.589 753.293 491.7L966.76 528.775C972.238 529.727 977.875 528.662 982.628 525.777L1149.94 424.248C1156.81 420.078 1161 412.623 1161 404.586V250.381C1161 242.343 1156.81 234.889 1149.94 230.719L982.628 129.189C977.875 126.305 972.238 125.24 966.76 126.191L753.293 163.267C746.895 164.378 741.266 168.142 737.793 173.628L648.209 315.184C643.456 322.695 643.456 332.272 648.209 339.783Z" stroke="white" stroke-width="4"/>
<path opacity="0.57971" d="M636.104 330.377L716.941 475.236C720.112 480.919 725.542 484.992 731.885 486.446L939.961 534.158C945.41 535.408 951.128 534.629 956.045 531.969L1125.93 440.06C1132.98 436.247 1137.54 429.039 1137.96 421.035L1145.97 268.22C1146.39 260.217 1142.61 252.572 1136 248.042L976.646 138.878C972.034 135.719 966.429 134.347 960.879 135.02L748.956 160.721C742.496 161.504 736.67 164.988 732.922 170.308L637.386 305.923C632.294 313.151 631.796 322.657 636.104 330.377Z" stroke="white" stroke-width="4"/>
<path opacity="0.594203" d="M624.704 321.349L696.699 468.987C699.558 474.849 704.771 479.222 711.041 481.018L913.204 538.903C918.609 540.451 924.394 539.965 929.465 537.537L1101.39 455.24C1108.6 451.79 1113.5 444.846 1114.34 436.899L1130.21 285.884C1131.05 277.937 1127.7 270.126 1121.36 265.252L970.301 149.008C965.845 145.579 960.288 143.901 954.679 144.291L744.899 158.879C738.393 159.332 732.384 162.525 728.369 167.665L627.252 297.109C621.839 304.038 620.85 313.446 624.704 321.349Z" stroke="white" stroke-width="4"/>
<path opacity="0.608696" d="M613.98 312.733L677.067 462.627C679.603 468.652 684.583 473.313 690.762 475.446L886.524 543.017C891.869 544.862 897.707 544.673 902.922 542.487L1076.36 469.763C1083.71 466.683 1088.94 460.019 1090.18 452.151L1113.75 303.335C1115 295.466 1112.08 287.513 1106.05 282.313L963.573 159.554C959.289 155.863 953.795 153.879 948.141 153.982L741.08 157.752C734.544 157.871 728.368 160.765 724.094 165.712L617.774 288.774C612.058 295.39 610.588 304.675 613.98 312.733Z" stroke="white" stroke-width="4"/>
<path opacity="0.623188" d="M603.898 304.563L658.044 456.19C660.247 462.36 664.977 467.298 671.047 469.764L859.956 546.51C865.226 548.651 871.103 548.763 876.451 546.824L1050.87 483.607C1058.34 480.901 1063.88 474.534 1065.53 466.766L1096.61 320.536C1098.26 312.767 1095.79 304.697 1090.07 299.188L956.442 170.493C952.345 166.547 946.931 164.259 941.246 164.072L737.454 157.346C730.906 157.13 724.576 159.717 720.054 164.457L608.916 280.952C602.916 287.242 600.974 296.377 603.898 304.563Z" stroke="white" stroke-width="4"/>
<path opacity="0.637681" d="M594.425 296.871L639.625 449.709C641.488 456.007 645.953 461.208 651.896 464.001L833.535 549.391C838.714 551.826 844.614 552.243 850.083 550.56L1024.98 496.754C1032.54 494.426 1038.38 488.37 1040.43 480.723L1078.82 337.452C1080.87 329.805 1078.84 321.642 1073.45 315.843L948.893 181.799C944.997 177.607 939.679 175.018 933.977 174.537L733.978 157.667C727.434 157.115 720.967 159.387 716.205 163.909L600.641 273.671C594.375 279.622 591.974 288.584 594.425 296.871Z" stroke="white" stroke-width="4"/>
<path opacity="0.652174" d="M585.527 289.684L621.807 443.219C623.32 449.625 627.506 455.075 633.304 458.19L807.293 551.675C812.365 554.4 818.274 555.124 823.854 553.703L998.718 509.185C1006.36 507.239 1012.48 501.508 1014.92 494.004L1060.39 354.05C1062.83 346.545 1061.25 338.315 1056.21 332.245L940.908 193.447C937.229 189.018 932.023 186.131 926.318 185.354L730.609 158.717C724.087 157.829 717.497 159.778 712.507 164.071L592.91 266.959C586.399 272.561 583.551 281.324 585.527 289.684Z" stroke="white" stroke-width="4"/>
<path opacity="0.666667" d="M577.166 283.029L604.58 436.751C605.738 443.246 609.63 448.931 615.266 452.361L781.262 553.375C786.211 556.387 792.115 557.42 797.793 556.268L972.143 520.89C979.85 519.326 986.223 513.933 989.042 506.592L1041.36 370.298C1044.18 362.957 1043.05 354.684 1038.37 348.365L932.474 205.411C929.026 200.756 923.947 197.573 918.254 196.5L727.303 160.495C720.82 159.273 714.123 160.893 708.917 164.945L585.684 260.839C578.946 266.082 575.667 274.625 577.166 283.029Z" stroke="white" stroke-width="4"/>
<path opacity="0.681159" d="M569.305 276.93L587.937 430.337C588.734 436.902 592.319 442.807 597.776 446.543L755.474 554.508C760.285 557.802 766.168 559.146 771.932 558.268L945.298 531.856C953.045 530.675 959.658 525.632 962.845 518.473L1021.75 386.168C1024.94 379.009 1024.26 370.72 1019.96 364.173L923.578 217.663C920.374 212.792 915.44 209.32 909.773 207.949L724.018 162.999C717.59 161.443 710.804 162.73 705.391 166.53L578.92 255.334C571.978 260.209 568.282 268.509 569.305 276.93Z" stroke="white" stroke-width="4"/>
<path opacity="0.695652" d="M561.906 271.409L571.866 424.009C572.298 430.624 575.563 436.732 580.824 440.765L729.959 555.092C734.616 558.662 740.462 560.317 746.3 559.718L918.229 542.075C925.996 541.278 932.829 536.594 936.374 529.637L1001.6 401.631C1005.14 394.674 1004.91 386.393 1000.99 379.64L914.21 230.177C911.263 225.102 906.488 221.345 900.862 219.676L720.71 166.223C714.355 164.337 707.495 165.285 701.889 168.824L572.578 250.463C565.452 254.962 561.357 262.999 561.906 271.409Z" stroke="white" stroke-width="4"/>
<path opacity="0.710145" d="M554.928 266.485L556.356 417.797C556.418 424.442 559.352 430.735 564.401 435.055L704.745 555.146C709.234 558.987 715.028 560.953 720.927 560.638L890.982 551.544C898.75 551.128 905.783 546.814 909.672 540.076L980.925 416.663C984.815 409.926 985.035 401.679 981.511 394.743L904.359 242.924C901.683 237.658 897.082 233.623 891.512 231.656L717.338 170.16C711.072 167.947 704.155 168.553 698.369 171.822L566.616 246.241C559.326 250.359 554.849 258.113 554.928 266.485Z" stroke="white" stroke-width="4"/>
<path opacity="0.724638" d="M548.332 262.173L541.391 411.728C541.083 418.382 543.674 424.844 548.495 429.441L679.86 554.691C684.165 558.795 689.892 561.072 695.839 561.044L863.604 560.259C871.354 560.222 878.564 556.286 882.786 549.786L959.77 431.24C963.991 424.74 964.655 416.552 961.536 409.457L894.018 255.877C891.624 250.432 887.214 246.126 881.714 243.863L713.861 174.799C707.701 172.265 700.744 172.525 694.791 175.514L560.989 242.684C553.557 246.415 548.718 253.867 548.332 262.173Z" stroke="white" stroke-width="4"/>
<path opacity="0.73913" d="M542.077 258.489L526.958 405.832C526.277 412.475 528.516 419.086 533.094 423.948L655.33 553.75C659.436 558.11 665.081 560.696 671.064 560.959L836.14 568.221C843.853 568.56 851.221 565.008 855.759 558.762L938.164 445.341C942.702 439.096 943.803 430.99 941.097 423.76L883.179 269.007C881.08 263.398 876.876 258.829 871.461 256.272L710.239 180.129C704.2 177.277 697.221 177.19 691.113 179.892L555.654 239.802C548.102 243.142 542.92 250.275 542.077 258.489Z" stroke="white" stroke-width="4"/>
<path opacity="0.753623" d="M536.123 255.443L513.04 400.134C511.985 406.745 513.863 413.488 518.183 418.601L631.181 552.345C635.073 556.953 640.62 559.846 646.625 560.404L808.638 575.434C816.294 576.144 823.798 572.982 828.637 567.007L916.141 458.947C920.98 452.972 922.513 444.974 920.227 437.633L871.84 282.286C870.047 276.528 866.063 271.704 860.747 268.855L706.432 186.134C700.532 182.971 693.546 182.536 687.299 184.942L550.569 237.603C542.918 240.55 537.414 247.347 536.123 255.443Z" stroke="white" stroke-width="4"/>
<path opacity="0.768116" d="M530.426 253.044L499.617 394.661C498.19 401.219 499.699 408.072 503.748 413.425L607.434 550.504C611.099 555.349 616.532 558.547 622.546 559.401L781.14 581.904C788.721 582.979 796.34 580.212 801.464 574.522L893.736 472.043C898.86 466.352 900.816 458.486 898.953 451.059L859.996 295.686C858.519 289.793 854.77 284.725 849.568 281.586L702.402 192.797C696.656 189.33 689.682 188.546 683.309 190.65L545.689 236.094C537.961 238.646 532.156 245.092 530.426 253.044Z" stroke="white" stroke-width="4"/>
<path opacity="0.782609" d="M524.947 251.299L486.671 389.435C484.875 395.919 486.007 402.864 489.771 408.442L584.112 548.25C587.536 553.323 592.84 556.823 598.85 557.974L753.693 587.638C761.181 589.073 768.893 586.704 774.284 581.313L870.984 484.612C876.375 479.221 878.745 471.509 877.31 464.021L847.646 309.179C846.494 303.168 842.995 297.864 837.922 294.441L698.113 200.099C692.536 196.336 685.591 195.203 679.107 197L540.971 235.276C533.186 237.433 527.104 243.515 524.947 251.299Z" stroke="white" stroke-width="4"/>
<path opacity="0.797101" d="M519.644 250.211L474.182 384.48C472.019 390.869 472.769 397.886 476.235 403.673L561.236 545.612C564.404 550.902 569.564 554.699 575.557 556.15L726.338 592.65C733.715 594.435 741.499 592.467 747.139 587.388L847.921 496.644C853.562 491.565 856.333 484.03 855.328 476.506L834.789 322.736C833.973 316.624 830.736 311.095 825.806 307.392L693.53 208.02C688.136 203.968 681.237 202.488 674.656 203.972L536.371 235.15C528.552 236.913 522.215 242.619 519.644 250.211Z" stroke="white" stroke-width="4"/>
<path opacity="0.811594" d="M514.476 249.781L462.128 379.816C459.603 386.09 459.966 393.157 463.122 399.138L538.823 542.618C541.723 548.114 546.723 552.202 552.685 553.953L699.119 596.951C706.369 599.08 714.201 597.512 720.073 592.757L824.582 508.128C830.454 503.373 833.616 496.037 833.041 488.503L821.428 336.329C820.955 330.133 817.995 324.392 813.222 320.413L688.617 216.536C683.423 212.205 676.586 210.381 669.924 211.546L531.846 235.714C524.014 237.085 517.445 242.404 514.476 249.781Z" stroke="white" stroke-width="4"/>
<path opacity="0.826087" d="M509.402 250.008L450.487 375.464C447.605 381.602 447.578 388.698 450.412 394.857L516.89 539.296C519.509 544.985 524.334 549.361 530.252 551.412L672.076 600.559C679.182 603.022 687.043 601.855 693.126 597.435L801.004 519.057C807.088 514.637 810.627 507.521 810.481 500.003L807.565 349.933C807.443 343.67 804.773 337.729 800.171 333.48L683.344 225.622C678.362 221.023 671.605 218.856 664.878 219.701L527.356 236.963C519.53 237.946 512.754 242.869 509.402 250.008Z" stroke="white" stroke-width="4"/>
<path opacity="0.84058" d="M504.381 250.888L439.235 371.442C436.003 377.422 435.583 384.526 438.086 390.846L495.452 535.676C497.778 541.547 502.414 546.203 508.274 548.553L645.25 603.492C652.196 606.278 660.062 605.511 666.339 601.435L777.223 529.426C783.499 525.35 787.4 518.476 787.68 510.997L793.204 363.518C793.44 357.208 791.072 351.079 786.655 346.567L677.679 235.253C672.924 230.395 666.263 227.89 659.485 228.41L522.857 238.89C515.059 239.488 508.099 244.008 504.381 250.888Z" stroke="white" stroke-width="4"/>
<path opacity="0.855072" d="M499.375 252.416L428.349 367.765C424.775 373.569 423.96 380.658 426.122 387.122L474.523 531.79C476.543 537.827 480.975 542.757 486.764 545.406L618.678 605.771C625.449 608.869 633.301 608.498 639.749 604.776L753.275 539.231C759.723 535.508 763.97 528.894 764.672 521.482L778.352 377.058C778.952 370.72 776.899 364.417 772.68 359.649L671.595 245.398C667.078 240.294 660.531 237.455 653.718 237.648L518.309 241.484C510.559 241.704 503.441 245.814 499.375 252.416Z" stroke="white" stroke-width="4"/>
<path opacity="0.869565" d="M494.345 254.582L417.803 364.449C413.897 370.056 412.686 377.11 414.499 383.699L454.114 527.667C455.817 533.857 460.03 539.054 465.735 542L592.398 607.419C598.979 610.818 606.794 610.839 613.394 607.476L729.195 548.473C735.795 545.11 740.371 538.775 741.49 531.453L763.015 390.528C763.985 384.181 762.257 377.718 758.25 372.701L665.063 256.03C660.798 250.691 654.38 247.524 647.547 247.389L513.673 244.734C505.99 244.582 498.738 248.277 494.345 254.582Z" stroke="white" stroke-width="4"/>
<path opacity="0.884058" d="M489.253 257.377L407.573 361.508C403.344 366.899 401.739 373.895 403.195 380.59L434.233 523.339C435.609 529.668 439.59 535.123 445.197 538.364L566.443 608.46C572.821 612.147 580.58 612.556 587.31 609.559L705.019 557.152C711.75 554.155 716.637 548.116 718.165 540.909L747.203 403.902C748.546 397.567 747.155 390.958 743.373 385.701L658.059 267.117C654.057 261.555 647.785 258.067 640.949 257.602L508.91 248.625C501.313 248.109 493.952 251.386 489.253 257.377Z" stroke="white" stroke-width="4"/>
<path opacity="0.898551" d="M484.062 260.788L397.633 358.953C393.093 364.109 391.096 371.024 392.187 377.807L414.891 518.838C415.929 525.29 419.662 530.994 425.158 534.528L540.848 608.921C547.01 612.884 554.691 613.674 561.531 611.048L680.782 565.272C687.622 562.646 692.801 556.92 694.729 549.852L730.925 417.156C732.645 410.852 731.602 404.114 728.057 398.625L650.56 278.627C646.833 272.856 640.721 269.053 633.898 268.259L503.983 253.141C496.49 252.269 489.047 255.126 484.062 260.788Z" stroke="white" stroke-width="4"/>
<path opacity="0.913043" d="M478.736 264.798L387.956 356.793C383.118 361.696 380.732 368.509 381.454 375.359L396.091 514.196C396.782 520.754 400.254 526.699 405.626 530.523L515.644 608.832C521.578 613.056 529.162 614.219 536.089 611.968L656.518 572.838C663.446 570.588 668.897 565.189 671.215 558.284L714.193 430.264C716.291 424.013 715.606 417.162 712.311 411.45L642.546 290.525C639.103 284.559 633.168 280.449 626.372 279.327L498.856 258.261C491.486 257.044 483.983 259.481 478.736 264.798Z" stroke="white" stroke-width="4"/>
<path opacity="0.927536" d="M473.242 269.393L378.517 355.038C373.394 359.67 370.623 366.359 370.971 373.256L377.838 509.446C378.173 516.093 381.371 522.269 386.606 526.379L490.86 608.222C496.554 612.693 504.022 614.221 511.015 612.347L632.261 579.859C639.254 577.985 644.957 572.928 647.653 566.209L697.018 443.204C699.496 437.027 699.178 430.08 696.145 424.155L633.997 302.779C630.849 296.631 625.105 292.224 618.353 290.774L493.496 263.966C486.265 262.414 478.728 264.433 473.242 269.393Z" stroke="white" stroke-width="4"/>
<path opacity="0.942029" d="M467.547 274.553L369.289 353.693C363.895 358.037 360.747 364.58 360.716 371.505L360.134 504.618C360.105 511.338 363.015 517.734 368.101 522.126L466.522 607.123C471.967 611.826 479.299 613.709 486.337 612.213L608.042 586.344C615.079 584.848 621.011 580.145 624.073 573.635L679.414 455.954C682.273 449.874 682.331 442.846 679.571 436.72L624.897 315.352C622.053 309.038 616.515 304.341 609.821 302.567L487.868 270.233C480.793 268.357 473.247 269.961 467.547 274.553Z" stroke="white" stroke-width="4"/>
<path opacity="0.956522" d="M461.618 280.256L360.245 352.765C354.598 356.805 351.077 363.18 350.666 370.111L342.98 499.746C342.579 506.52 345.189 513.125 350.112 517.795L442.656 605.569C447.843 610.488 455.021 612.716 462.082 611.598L583.893 592.305C590.954 591.186 597.093 586.849 600.505 580.568L661.396 468.493C664.636 462.53 665.077 455.441 662.602 449.123L615.232 328.208C612.7 321.743 607.382 316.768 600.762 314.671L481.944 277.037C475.04 274.85 467.509 276.043 461.618 280.256Z" stroke="white" stroke-width="4"/>
<path opacity="0.971014" d="M455.428 286.482L351.36 352.257C345.475 355.977 341.591 362.162 340.798 369.079L326.375 494.861C325.594 501.671 327.891 508.474 332.64 513.417L419.285 603.593C424.204 608.713 431.213 611.274 438.274 610.532L559.846 597.754C566.907 597.012 573.23 593.05 576.977 587.019L642.98 480.799C646.598 474.977 647.43 467.845 645.251 461.346L604.991 341.311C602.777 334.71 597.692 329.468 591.162 327.053L475.693 284.352C468.975 281.868 461.483 282.655 455.428 286.482Z" stroke="white" stroke-width="4"/>
<path opacity="0.985507" d="M448.946 293.206L342.606 352.17C336.501 355.555 332.264 361.53 331.088 368.411L310.314 489.995C309.148 496.822 311.12 503.811 315.682 509.021L396.428 601.232C401.073 606.536 407.895 609.417 414.936 609.048L535.928 602.707C542.969 602.338 549.452 598.76 553.517 592.999L624.182 492.853C628.175 487.195 629.406 480.038 627.532 473.371L594.163 354.624C592.274 347.903 587.436 342.404 581.01 339.676L469.089 292.151C462.571 289.383 455.14 289.772 448.946 293.206Z" stroke="white" stroke-width="4"/>
<path d="M442.148 300.403L333.959 352.505C327.652 355.542 323.072 361.285 321.515 368.109L294.794 485.18C293.237 492.004 294.871 499.166 299.235 504.638L374.105 598.521C378.469 603.994 385.087 607.181 392.087 607.181H512.168C519.168 607.181 525.786 603.994 530.15 598.521L605.02 504.638C609.384 499.166 611.019 492.004 609.461 485.18L582.741 368.109C581.183 361.285 576.603 355.542 570.297 352.505L462.107 300.403C455.801 297.366 448.455 297.366 442.148 300.403Z" stroke="white" stroke-width="4"/>
</g>
</g>
<defs>
<linearGradient id="paint0_linear_2_157" x1="2303" y1="616.327" x2="598.482" y2="-1088.57" gradientUnits="userSpaceOnUse">
<stop stop-color="#EE3227"/>
<stop offset="1" stop-color="#F9EB1E"/>
</linearGradient>
<linearGradient id="paint1_linear_2_157" x1="2303" y1="1051.71" x2="-234.855" y2="-435.856" gradientUnits="userSpaceOnUse">
<stop stop-color="#EE3227"/>
<stop offset="1" stop-color="#F9EB1E"/>
</linearGradient>
</defs>
</svg>
