<svg width="40" height="40" viewBox="0 0 40 40" fill="none" xmlns="http://www.w3.org/2000/svg">
<g clip-path="url(#clip0_1_537)">
<path d="M38.9562 26.2672L34.2045 31.0189L32.5642 32.6591C31.9024 33.1035 30.7812 32.8327 30.7812 32.8327L28.4202 30.4716L31.8229 25.4597L35.5619 23.3301L36.7687 22.928L38.9562 25.1155C39.2749 25.4334 39.2749 25.9493 38.9562 26.2672Z" fill="#F2F6FC"/>
<path d="M39.7614 25.1151L36.7691 22.1228L35.5618 23.3301L37.3469 25.1152C37.665 25.4334 37.665 25.9491 37.3469 26.2671L30.7812 32.8328L31.4126 33.4641C31.7307 33.7823 32.2464 33.7823 32.5645 33.4641L33.3508 32.6779L33.486 31.9793L34.2048 31.824L39.7616 26.2672C40.0795 25.949 40.0795 25.4333 39.7614 25.1151Z" fill="#FFAF88"/>
<path d="M34.2045 31.8238L33.3506 32.6777L29.7828 29.1099L29.7772 29.1042C29.5414 28.8684 29.5414 28.4861 29.7772 28.2503C30.013 28.0145 30.3953 28.0145 30.6311 28.2503L34.2045 31.8238Z" fill="#9CA1AF"/>
<path d="M10.775 30.4717L8.58752 32.6592C8.26963 32.9771 6.804 32.8331 6.804 32.8331L6.40807 32.4363L6.76439 31.1834L5.55416 31.5831L0.239004 26.2673C-0.079668 25.9494 -0.079668 25.4334 0.239004 25.1156L2.02416 23.3304L3.23143 22.928L10.775 30.4717Z" fill="#F2F6FC"/>
<path d="M3.23095 22.1228L2.02368 23.3301L8.76696 30.0733C8.98696 30.2933 8.98696 30.6501 8.76696 30.8701L6.80431 32.8328L7.43564 33.4641C7.75376 33.7823 8.26946 33.7823 8.58759 33.4641L11.5799 30.4718L8.24321 25.5254L3.23095 22.1228Z" fill="#FFAF88"/>
<path d="M9.9792 28.8652L9.57436 29.2709L6.40811 32.4363L5.5542 31.5831L8.72037 28.417L9.12521 28.0113C9.361 27.7763 9.74334 27.7763 9.97912 28.0113C10.215 28.2471 10.215 28.6295 9.9792 28.8652Z" fill="#9CA1AF"/>
<path d="M35.964 22.1232L28.4203 29.6669C28.0235 29.7232 26.413 30.5255 26.0105 30.4667C24.2321 30.2068 22.5604 29.3829 21.2597 28.0821L16.4783 23.3006C14.5072 21.3296 14.5072 18.1344 16.4783 16.1634L21.2687 11.3738C21.9444 10.6977 22.7644 10.2536 23.6297 10.0413C25.2871 9.6347 26.962 10.9457 27.6002 11.3738L29.5809 13.3537L30.5443 13.6732C30.6932 13.8221 31.6332 14.3469 31.9029 14.3565C32.587 14.3823 33.284 14.6712 33.7822 15.1694L35.2872 16.6752C36.9233 18.3115 36.6923 19.926 35.964 22.1232Z" fill="#FA7A48"/>
<path d="M35.287 15.87L33.7819 14.3649C33.003 13.586 31.7406 13.3195 30.8002 13.7686L28.4051 11.3736C27.1103 10.0788 25.2868 9.63464 23.6294 10.0413C24.4946 10.2535 25.3146 10.6976 25.9906 11.3736L27.8735 13.2565C28.1501 13.5331 28.5448 13.6652 28.9292 13.5928C29.7718 13.4342 30.731 13.7285 31.3674 14.3649L32.8726 15.8701C34.509 17.5065 35.0824 19.926 34.3545 22.1228L26.0103 30.467C26.8002 30.5824 27.6112 30.5867 28.42 30.4717L31.7567 27.1349L31.981 25.7034L33.4322 25.4595L36.7689 22.1228C37.4969 19.926 36.9235 17.5064 35.287 15.87Z" fill="#FB5819"/>
<path d="M33.0159 18.3702L32.1242 19.262C31.6115 19.7746 30.9306 20.0563 30.2054 20.0563H30.2038C29.5438 20.0563 28.9201 19.8213 28.4267 19.3916L24.6874 23.1317C23.9076 23.9107 22.8838 24.3002 21.8601 24.3002C20.8363 24.3002 19.8126 23.9107 19.0335 23.1317C18.7977 22.8959 18.7977 22.5135 19.0335 22.2777C19.2693 22.042 19.6517 22.042 19.8874 22.2777C20.9756 23.3659 22.7454 23.3659 23.8335 22.2777L27.708 18.4033C27.2911 17.4149 27.4842 16.2278 28.2883 15.4246L30.3857 13.3538L30.5443 13.5124C30.6932 13.6613 30.9113 13.7088 31.1125 13.6484C31.3652 13.5735 31.6332 13.5421 31.9028 13.5518L29.1414 16.2786C28.6288 16.7913 28.5635 17.5849 28.9459 18.1692C28.9507 18.1756 28.9556 18.182 28.9595 18.1884C29.0119 18.2657 29.0722 18.3389 29.1399 18.4074C29.424 18.6923 29.8022 18.8492 30.2046 18.8492H30.2054C30.6078 18.8492 30.9861 18.6931 31.2702 18.4082L32.1627 17.5165C32.3985 17.2807 32.78 17.2807 33.0159 17.5165C33.2517 17.7521 33.2517 18.1345 33.0159 18.3702Z" fill="#FB5819"/>
<path d="M31.7567 27.1349L33.4322 25.4595L31.1362 23.1635C30.6736 22.7009 29.9234 22.7009 29.4608 23.1635C28.9981 23.6262 28.9981 24.3763 29.4608 24.839L31.7567 27.1349Z" fill="#FA7A48"/>
<path d="M22.717 23.3005L18.6422 27.3746C17.9211 28.0418 14.6591 30.5062 12.0877 30.5062C11.9146 30.5062 11.7456 30.495 11.5799 30.4716L8.24321 27.135L8.29392 25.576L6.56774 25.4595L3.23142 22.1232C2.50306 19.926 3.07689 17.5067 4.71314 15.8705L6.21814 14.3646C6.72196 13.8608 7.42939 13.571 8.12079 13.5509C8.38235 13.5437 9.20571 14.3799 9.45118 14.4531C9.65235 14.5135 9.87048 14.466 10.0194 14.3171L9.62423 13.344L11.5952 11.3738C12.2713 10.6977 13.0906 10.2535 13.9558 10.041C15.6138 9.63459 17.4367 10.8837 18.7317 12.1787L22.7172 16.1633C24.6881 18.1344 24.6881 21.3295 22.717 23.3005Z" fill="#FF894F"/>
<path d="M23.5221 16.1636L18.732 11.3735C17.4372 10.0787 15.6137 9.63452 13.9563 10.0412C14.8215 10.2534 15.6415 10.6975 16.3175 11.3735L21.1076 16.1636C23.0784 18.1344 23.0784 21.3298 21.1076 23.3005L16.3261 28.082C15.0256 29.3826 13.3539 30.2069 11.5754 30.4669L11.5801 30.4716C14.2099 30.8454 16.8623 29.9602 18.7406 28.0819L23.5221 23.3005C25.4929 21.3297 25.4929 18.1344 23.5221 16.1636Z" fill="#FFCCB3"/>
<path d="M20.9668 23.1317C20.1877 23.9107 19.164 24.3002 18.1402 24.3002C17.1165 24.3002 16.0927 23.9107 15.3129 23.1317L11.5737 19.3916C11.0803 19.8213 10.4566 20.0563 9.79656 20.0563H9.79492C9.06977 20.0563 8.38891 19.7746 7.87617 19.262L6.98445 18.3702C6.74867 18.1345 6.74867 17.7521 6.98445 17.5163C7.22023 17.2806 7.6018 17.2806 7.83758 17.5163L8.73016 18.4081C9.0143 18.693 9.3925 18.8491 9.79492 18.8491H9.7957C10.1981 18.8491 10.5764 18.6921 10.8605 18.4072C10.9289 18.3388 10.9892 18.2656 11.0416 18.1883C11.0455 18.1819 11.0496 18.1754 11.0537 18.169C11.4368 17.5847 11.3716 16.7911 10.8589 16.2784L8.12086 13.5509C8.38242 13.5436 8.64242 13.575 8.88789 13.6482C9.08906 13.7086 9.30719 13.6611 9.45609 13.5122L9.6243 13.344L11.712 15.4245C12.5161 16.2277 12.7092 17.4149 12.2923 18.4031L16.1668 22.2776C17.2549 23.3657 19.0248 23.3657 20.1129 22.2776C20.3487 22.0418 20.731 22.0418 20.9668 22.2776C21.2026 22.5135 21.2026 22.8958 20.9668 23.1317Z" fill="#FFCCB3"/>
<path d="M8.24334 27.1349L6.56787 25.4595L8.86381 23.1635C9.32646 22.7009 10.0766 22.7009 10.5393 23.1635C11.0019 23.6262 11.0019 24.3763 10.5393 24.839L8.24334 27.1349Z" fill="#FFCCB3"/>
<path d="M19.9998 9.35136C19.6062 9.33949 19.2622 9.00058 19.4361 8.53199L20.6228 5.42918L18.5485 6.10714C18.3273 6.17957 18.0842 6.11816 17.9237 5.94957C17.7633 5.78097 17.714 5.53519 17.7972 5.31777L19.4361 1.03207C19.5553 0.720739 19.904 0.564567 20.2156 0.683864C20.5269 0.802926 20.6829 1.15191 20.5638 1.46324L19.3772 4.56613L21.4515 3.88816C21.6727 3.81574 21.9158 3.87715 22.0762 4.04574C22.2367 4.21433 22.2859 4.46019 22.2028 4.67754L20.5638 8.96316C20.4718 9.20363 20.2427 9.35136 19.9998 9.35136Z" fill="#FFAF88"/>
<path d="M16.5617 8.84882C16.2703 8.84882 16.0138 8.63726 15.9664 8.34031L15.4426 5.05976L13.9852 6.68414C13.8297 6.85742 13.5884 6.92585 13.3654 6.86007C13.1421 6.79429 12.9765 6.60601 12.9398 6.37625L12.2164 1.84523C12.1638 1.51601 12.3881 1.20656 12.7172 1.15398C13.0462 1.10203 13.3559 1.32562 13.4085 1.65484L13.9322 4.93539L15.3897 3.31101C15.5451 3.13773 15.7864 3.06937 16.0095 3.13507C16.2328 3.20086 16.3983 3.38914 16.4351 3.6189L17.1585 8.14992C17.2118 8.48375 16.8969 8.84882 16.5617 8.84882Z" fill="#FFAF88"/>
<path d="M23.057 7.77654L25.6361 5.68264L23.5007 5.23264C23.273 5.18459 23.0931 5.00998 23.0385 4.78381C22.9838 4.55764 23.064 4.32006 23.2447 4.17342L26.807 1.28139C27.0657 1.07123 27.446 1.11076 27.656 1.36951C27.8662 1.62834 27.8267 2.0085 27.5678 2.21858L24.9887 4.31248L27.1241 4.76248C27.3518 4.81053 27.5317 4.98514 27.5863 5.21131C27.641 5.43748 27.5608 5.67506 27.3801 5.8217L23.8178 8.71373C23.0583 9.35131 22.401 8.34326 23.057 7.77654Z" fill="#FFAF88"/>
<path d="M19.9998 39.3561C19.6062 39.3442 19.2454 39.0745 19.4361 38.5367L20.6228 35.4338L18.5485 36.1118C18.3273 36.1841 18.0842 36.1228 17.9237 35.9542C17.7633 35.7856 17.714 35.5398 17.7972 35.3224L19.4361 31.0368C19.5553 30.7255 19.904 30.5694 20.2156 30.6886C20.5269 30.8077 20.6829 31.1566 20.5638 31.468L19.3772 34.5708L21.4515 33.8928C21.6727 33.8205 21.9158 33.8819 22.0762 34.0504C22.2367 34.219 22.2859 34.4648 22.2028 34.6822L20.5638 38.9679C20.4718 39.2084 20.2427 39.3561 19.9998 39.3561Z" fill="#FFAF88"/>
<path d="M27.1867 38.8536C26.8953 38.8536 26.6388 38.642 26.5914 38.3451L26.0677 35.0645L24.6102 36.6889C24.4548 36.8621 24.2135 36.9306 23.9904 36.8648C23.7671 36.799 23.6016 36.6108 23.5648 36.381L22.8414 31.85C22.7184 31.0792 23.9104 30.8891 24.0336 31.6596L24.5573 34.9401L26.0148 33.3158C26.1702 33.1425 26.4116 33.074 26.6346 33.1398C26.8579 33.2056 27.0234 33.3939 27.0602 33.6236L27.7836 38.1547C27.8368 38.4885 27.5219 38.8536 27.1867 38.8536Z" fill="#FFAF88"/>
<path d="M12.432 37.7813L15.0111 35.6874L12.8757 35.2374C12.648 35.1893 12.4682 35.0147 12.4135 34.7885C12.3588 34.5624 12.439 34.3248 12.6197 34.1782L16.182 31.2861C16.4408 31.076 16.821 31.1156 17.031 31.3743C17.2412 31.6331 17.2017 32.0132 16.9428 32.2233L14.3637 34.3172L16.4991 34.7672C16.7268 34.8153 16.9067 34.9899 16.9614 35.216C17.016 35.4422 16.9358 35.6798 16.7551 35.8264L13.1928 38.7185C12.5753 39.2153 11.68 38.4909 12.432 37.7813Z" fill="#FFAF88"/>
</g>
<defs>
<clipPath id="clip0_1_537">
<rect width="40" height="40" fill="white"/>
</clipPath>
</defs>
</svg>
