<svg width="40" height="40" viewBox="0 0 40 40" fill="none" xmlns="http://www.w3.org/2000/svg">
<g clip-path="url(#clip0_1_610)">
<path d="M31.27 22.9825L34.7037 17.0354L37.1532 18.4497L33.7195 24.3968L31.27 22.9825Z" fill="#FF8B5E"/>
<path d="M32.9431 26.1136L32.7394 26.4658C32.2081 27.3864 32.1099 28.4169 32.3913 29.2502C32.3961 29.2629 32.3992 29.2764 32.4024 29.2899C32.408 29.3142 32.4113 29.339 32.4125 29.3639C32.4137 29.3888 32.4128 29.4135 32.4097 29.4382C32.4026 29.496 32.3835 29.5524 32.3541 29.6039L27.8918 37.3327L22.7231 34.9438L27.4431 26.7686C27.4692 26.7225 27.5033 26.6829 27.5438 26.6496C27.5485 26.6457 27.5533 26.6406 27.5588 26.6374C27.5898 26.6144 27.6231 26.5949 27.6588 26.5814C27.6675 26.5774 27.677 26.5735 27.6865 26.571C27.7008 26.5663 27.7159 26.5625 27.731 26.5593C27.8118 26.5434 27.8927 26.5227 27.9728 26.4997C28.0267 26.4839 28.0798 26.4664 28.1329 26.4474C28.2122 26.4189 28.2915 26.3864 28.3699 26.3514C28.4477 26.3158 28.5253 26.2761 28.6014 26.2341C28.7798 26.1343 28.9527 26.0169 29.116 25.8813C29.1628 25.8424 29.2087 25.802 29.2539 25.7607C29.5259 25.511 29.7684 25.2106 29.9682 24.8657L30.1713 24.5135L32.9431 26.1136Z" fill="#FDCCB4"/>
<path d="M28.584 30.4633L25.3079 36.1387L22.7231 34.9439L27.4431 26.7686C27.4692 26.7226 27.5033 26.683 27.5438 26.6497C27.5485 26.645 27.5533 26.6414 27.5588 26.6375L28.584 30.4633Z" fill="#FDCCB4"/>
<path d="M32.4097 29.4381C32.4174 29.3752 32.4117 29.3111 32.3913 29.2502C32.1095 28.4168 32.2078 27.3865 32.7394 26.4659L32.9431 26.1137L30.1714 24.5137L29.9683 24.8659C29.4367 25.7866 28.5936 26.3867 27.7309 26.5594C27.668 26.5721 27.6095 26.5992 27.5588 26.6375L28.584 30.4634L32.4097 29.4381Z" fill="#FFF7E6"/>
<path d="M33.965 15.1972C33.5936 15.8403 33.7561 16.6293 34.3278 16.9594L37.4072 18.7372C37.9789 19.0673 38.7434 18.8136 39.1147 18.1704C39.4861 17.5272 39.3236 16.7383 38.7519 16.4082L35.6725 14.6303C35.1007 14.3002 34.3363 14.554 33.965 15.1972Z" fill="#FA7A48"/>
<path d="M27.8869 23.0425L28.7282 21.5854C28.8598 21.3574 29.1512 21.2794 29.3792 21.411L36.0261 25.2485C36.2541 25.3801 36.3321 25.6716 36.2005 25.8996L35.3593 27.3567C35.2277 27.5846 34.9362 27.6627 34.7083 27.5311L28.0614 23.6935C27.8334 23.5619 27.7553 23.2705 27.8869 23.0425Z" fill="#FFCCB3"/>
<path d="M19.2114 1.62927H21.5664V32.3536H19.2114V1.62927Z" fill="#FFCCB3"/>
<path d="M33.3122 0H19.2114V11.3182H33.3122C33.8806 11.3182 34.1698 10.6349 33.7739 10.2269L29.777 6.10703C29.5349 5.85742 29.5349 5.4607 29.777 5.21109L33.7739 1.09125C34.1698 0.683281 33.8806 0 33.3122 0Z" fill="#FA7A48"/>
<path d="M29.7769 6.10703C29.5348 5.8575 29.5348 5.46063 29.7769 5.21109L33.7739 1.09125C34.1697 0.683281 33.8806 0 33.3121 0H30.5005C31.0689 0 31.3581 0.683281 30.9622 1.09133L26.9653 5.21117C26.7232 5.4607 26.7232 5.85758 26.9653 6.10711L30.9622 10.227C31.3581 10.6349 31.0689 11.3183 30.5005 11.3183H33.3121C33.8806 11.3183 34.1697 10.635 33.7739 10.227L29.7769 6.10703Z" fill="#FB5819"/>
<path d="M34.7058 39.4053H6.07227C8.75453 34.626 14.1587 31.361 20.389 31.361C26.6193 31.361 32.0235 34.626 34.7058 39.4053Z" fill="#FFCCB3"/>
<path d="M20.389 31.361C19.7796 31.361 19.1782 31.3926 18.5864 31.4535C24.0452 32.0146 28.6807 35.0934 31.1006 39.4053H34.7057C32.0235 34.626 26.6193 31.361 20.389 31.361Z" fill="#FA7A48"/>
<path d="M2.56589 22.491C1.96808 22.491 1.43612 22.8788 1.26175 23.4506C0.887607 24.6776 0.686279 25.9799 0.686279 27.3295C0.686279 32.5714 3.7223 37.1031 8.13136 39.2653C8.51214 39.452 8.958 39.452 9.33878 39.2653C13.7478 37.103 16.7839 32.5714 16.7839 27.3295C16.7839 25.9799 16.5825 24.6776 16.2084 23.4506C16.034 22.8787 15.5021 22.491 14.9042 22.491H2.56589Z" fill="#FF8B5E"/>
<path d="M16.2083 23.4507C16.0498 22.9308 15.5955 22.5641 15.0651 22.5016C15.2257 23.3271 15.3104 24.1798 15.3104 25.0524C15.3104 30.2943 12.2744 34.826 7.8654 36.9881C7.48462 37.1749 7.03868 37.1749 6.65798 36.9881C4.89415 36.1231 3.35095 34.8782 2.13306 33.3609C3.43931 35.9192 5.54923 37.999 8.13134 39.2653C8.51212 39.452 8.95806 39.452 9.33876 39.2653C13.7477 37.1031 16.7838 32.5714 16.7838 27.3295C16.7838 25.98 16.5824 24.6777 16.2083 23.4507Z" fill="#FA7A48"/>
<path d="M8.96994 36.7668C8.82463 36.8513 8.64572 36.8513 8.50041 36.7668C6.98908 35.8888 5.7065 34.6589 4.76213 33.1751C3.65182 31.4307 3.06494 29.4093 3.06494 27.3295C3.06494 26.6251 3.13174 25.9268 3.26416 25.2427C3.30611 25.0258 3.49697 24.8695 3.71783 24.8695H13.7524C13.9733 24.8695 14.1642 25.0258 14.2061 25.2427C14.3385 25.9268 14.4053 26.6251 14.4053 27.3295C14.4053 29.4093 13.8185 31.4307 12.7081 33.1751C11.7638 34.659 10.4811 35.8889 8.96994 36.7668Z" fill="#FFCCB3"/>
<path d="M8.40186 36.7077C8.43475 36.7273 8.46717 36.7476 8.50029 36.7668C8.64561 36.8513 8.82451 36.8513 8.96982 36.7668C10.481 35.8889 11.7637 34.6589 12.708 33.1751C12.9594 32.7801 13.1826 32.3702 13.3796 31.9493C12.1682 33.939 10.4493 35.5849 8.40186 36.7077Z" fill="#FFCCB3"/>
<path d="M12.7924 33.0372L4.62481 24.8695H3.71778C3.51708 24.8695 3.34255 24.9992 3.28052 25.1854C3.30388 25.2226 3.33122 25.2579 3.36356 25.2903L12.0398 33.9665C12.0614 33.9881 12.0846 34.0069 12.1083 34.0244C12.3208 33.7515 12.5212 33.4686 12.708 33.1751C12.737 33.1295 12.7642 33.083 12.7924 33.0372Z" fill="#FA7A48"/>
<path d="M12.7051 32.9498C12.4675 33.2705 12.2155 33.5798 11.9507 33.8774L12.0399 33.9666C12.0615 33.9882 12.0847 34.0069 12.1084 34.0245C12.3975 33.6532 12.6015 33.3475 12.7924 33.0373L12.7051 32.9498Z" fill="#FA7A48"/>
<path d="M8.73509 27.6759C7.5504 27.6759 6.59009 28.6362 6.59009 29.8209C6.59009 31.0056 7.55048 31.9659 8.73509 31.9659C9.9197 31.9659 10.8801 31.0055 10.8801 29.8209C10.8801 28.6362 9.91978 27.6759 8.73509 27.6759Z" fill="#FB5819"/>
<path d="M37.5734 40H3.20472C2.87628 40 2.61011 39.7338 2.61011 39.4054C2.61011 39.0769 2.87636 38.8107 3.20472 38.8107H37.5734C37.9018 38.8107 38.1681 39.0768 38.1681 39.4054C38.1681 39.7339 37.9017 40 37.5734 40Z" fill="#FA7A48"/>
</g>
<defs>
<clipPath id="clip0_1_610">
<rect width="40" height="40" fill="white"/>
</clipPath>
</defs>
</svg>
