<svg width="40" height="40" viewBox="0 0 40 40" fill="none" xmlns="http://www.w3.org/2000/svg">
<g clip-path="url(#clip0_1_727)">
<path d="M10.187 23.3228V30.2762C10.187 31.8017 11.4239 33.0383 12.9491 33.0383H18.752V23.3228H10.187Z" fill="#FFF7E6"/>
<path d="M29.8128 23.3228V30.2762C29.8128 31.8017 28.576 33.0383 27.0507 33.0383H21.2478V23.3228H29.8128Z" fill="#FFF7E6"/>
<path d="M35.562 14.5704H38.6611V31.258H35.562V14.5704Z" fill="#FFCCB3"/>
<path d="M29.0076 4.38306H32.1066V21.0709H29.0076V4.38306Z" fill="#FFCCB3"/>
<path d="M4.43791 31.258H1.33887V14.5704H4.43791V31.258Z" fill="#FFCCB3"/>
<path d="M10.9924 21.0709H7.89331V4.38306H10.9924V21.0709Z" fill="#FFCCB3"/>
<path d="M19.9998 26.1957C17.3433 27.3306 15.4817 29.967 15.4817 33.0383C15.4817 35.8972 17.0945 38.3789 19.4599 39.624C19.7981 39.8019 20.2015 39.8019 20.5397 39.624C22.9051 38.3789 24.5179 35.8972 24.5179 33.0383C24.5179 29.967 22.6563 27.3306 19.9998 26.1957Z" fill="#FFCCB3"/>
<path d="M19.9999 26.0358C18.5717 27.0666 17.697 28.7314 17.697 30.5432C17.697 31.9458 18.2213 33.2605 19.121 34.2608C19.5922 34.7848 20.4076 34.7848 20.8788 34.2608C21.7784 33.2605 22.3027 31.9458 22.3027 30.5432C22.3027 28.7314 21.4281 27.0666 19.9999 26.0358Z" fill="#FA7A48"/>
<path d="M4.43773 18.9811L1.33838 24.0766V31.2579H4.43773V18.9811Z" fill="#FDAD8C"/>
<path d="M10.9924 8.20374L7.89331 13.2992V21.0708H10.9924V8.20374Z" fill="#FDAD8C"/>
<path d="M29.0076 8.2041V21.0709H32.1066V13.2993L29.0076 8.2041Z" fill="#FDAD8C"/>
<path d="M38.6614 24.0766L35.562 18.9811V31.2579H38.6614V24.0766Z" fill="#FDAD8C"/>
<path d="M38.969 29.2291L22.0275 1.37463C21.5969 0.666624 20.8285 0.234497 19.9999 0.234497C19.1714 0.234497 18.4029 0.666624 17.9723 1.37463L1.03088 29.2291C0.356444 30.3375 0 31.6098 0 32.9074V33.9755C0 34.7168 0.83099 35.1544 1.44225 34.7354L14.606 25.7089C14.8638 25.5319 15.169 25.4373 15.4818 25.4373C16.3372 25.4373 17.0306 26.1307 17.0306 26.9861V28.5236H22.9693V26.9861C22.9693 26.1307 23.6629 25.4373 24.5183 25.4373C24.8308 25.4373 25.1363 25.5319 25.3942 25.7089L38.5576 34.7354C39.1692 35.1544 40.0001 34.7168 40.0001 33.9755V32.9074C39.9998 31.6098 39.6434 30.3375 38.969 29.2291Z" fill="#FFCCB3"/>
<path d="M28.4292 18.193L25.2258 12.926C24.0344 10.9671 22.0172 9.98779 20 9.98779C17.9828 9.98779 15.9656 10.9671 14.7742 12.926L11.5707 18.193C11.4902 18.3252 11.4478 18.4768 11.4478 18.6316V19.9572C11.4478 20.6079 12.153 21.015 12.7154 20.6875C14.3048 19.7616 17.1658 18.37 20 18.37C22.8341 18.37 25.6948 19.7616 27.2842 20.6875C27.8466 21.015 28.5522 20.6079 28.5522 19.9572V18.6316C28.5522 18.4768 28.5098 18.3252 28.4292 18.193Z" fill="#FA7A48"/>
<path d="M13.8623 19.9569C13.8623 18.9355 14.1431 17.9333 14.6741 17.0605L17.1887 12.926C18.1408 11.3602 19.6212 10.4208 21.2072 10.1068C20.8093 10.0281 20.4046 9.98779 20 9.98779C17.9828 9.98779 15.9656 10.9671 14.7742 12.926L11.5707 18.1927C11.4902 18.3252 11.4478 18.4768 11.4478 18.6316V19.9569C11.4478 20.6079 12.153 21.015 12.7158 20.6875C13.0484 20.4937 13.4372 20.2795 13.8693 20.0619C13.865 20.0277 13.8623 19.9929 13.8623 19.9569Z" fill="#FDAD8C"/>
<path d="M38.6613 12.5891H35.5619C35.0081 12.5891 34.5588 13.038 34.5588 13.5922V15.5484C34.5588 16.1023 35.0081 16.5515 35.5619 16.5515H38.661C39.2152 16.5515 39.6641 16.1023 39.6641 15.5484V13.5922C39.6644 13.038 39.2152 12.5891 38.6613 12.5891Z" fill="#FDAD8C"/>
<path d="M32.1066 2.40186H29.0075C28.4533 2.40186 28.0044 2.85107 28.0044 3.40496V5.36113C28.0044 5.91533 28.4533 6.36424 29.0075 6.36424H32.1066C32.6604 6.36424 33.1097 5.91533 33.1097 5.36113V3.40496C33.1097 2.85107 32.6604 2.40186 32.1066 2.40186Z" fill="#FDAD8C"/>
<path d="M30.4186 5.36113V3.40496C30.4186 2.85107 30.8678 2.40186 31.422 2.40186H29.0075C28.4533 2.40186 28.0044 2.85107 28.0044 3.40496V5.36113C28.0044 5.91533 28.4533 6.36424 29.0075 6.36424H31.422C30.8678 6.36424 30.4186 5.91533 30.4186 5.36113Z" fill="#FA7A48"/>
<path d="M1.33856 12.5891H4.43791C4.9918 12.5891 5.44102 13.038 5.44102 13.5922V15.5484C5.44102 16.1023 4.9918 16.5515 4.43791 16.5515H1.33856C0.784666 16.5515 0.335449 16.1023 0.335449 15.5484V13.5922C0.335449 13.038 0.784666 12.5891 1.33856 12.5891Z" fill="#FDAD8C"/>
<path d="M2.74999 15.5484V13.5922C2.74999 13.038 3.19921 12.5891 3.7531 12.5891H1.33856C0.784666 12.5891 0.335449 13.038 0.335449 13.5922V15.5484C0.335449 16.1023 0.784666 16.5515 1.33856 16.5515H3.7531C3.19921 16.5515 2.74999 16.1023 2.74999 15.5484Z" fill="#FA7A48"/>
<path d="M7.89325 2.40186H10.9923C11.5465 2.40186 11.9954 2.85107 11.9954 3.40496V5.36113C11.9954 5.91533 11.5465 6.36424 10.9923 6.36424H7.89325C7.33935 6.36424 6.89014 5.91533 6.89014 5.36113V3.40496C6.89014 2.85107 7.33935 2.40186 7.89325 2.40186Z" fill="#FDAD8C"/>
<path d="M9.30468 5.36113V3.40496C9.30468 2.85107 9.75389 2.40186 10.3078 2.40186H7.89325C7.33935 2.40186 6.89014 2.85107 6.89014 3.40496V5.36113C6.89014 5.91533 7.33935 6.36424 7.89325 6.36424H10.3078C9.75389 6.36424 9.30468 5.91533 9.30468 5.36113Z" fill="#FA7A48"/>
<path d="M36.9734 15.5484V13.5922C36.9734 13.038 37.4226 12.5891 37.9765 12.5891H35.5619C35.0081 12.5891 34.5588 13.038 34.5588 13.5922V15.5484C34.5588 16.1023 35.0081 16.5515 35.5619 16.5515H37.9765C37.4226 16.5515 36.9734 16.1023 36.9734 15.5484Z" fill="#FA7A48"/>
</g>
<defs>
<clipPath id="clip0_1_727">
<rect width="40" height="40" fill="white"/>
</clipPath>
</defs>
</svg>
