<svg width="40" height="40" viewBox="0 0 40 40" fill="none" xmlns="http://www.w3.org/2000/svg">
<path d="M24.6869 2.46029C23.9378 2.37802 23.1817 2.33083 22.4119 2.35997C16.4107 2.5763 11.1534 6.14224 8.23408 9.40841L8.23291 25.5503L9.25141 25.6658C12.3218 26.016 14.447 26.9922 15.5696 28.5692C16.8101 30.3122 16.4794 32.3561 16.349 32.942C15.9144 34.8883 17.0619 36.8697 19.028 37.2484C20.1392 37.4613 21.2561 37.5665 22.365 37.5665C23.146 37.5665 23.9192 37.4958 24.687 37.3933C33.3679 36.2348 40.0708 28.8498 39.9993 19.8591C39.9208 10.2989 32.1977 3.28443 24.6869 2.46029Z" fill="#FDAD8C"/>
<path d="M39.9993 19.859C39.9209 10.2987 32.1978 3.28422 24.687 2.46008V37.3932C33.3679 36.2346 40.0708 28.8497 39.9993 19.859Z" fill="#FA7A48"/>
<path d="M26.486 15.8583C25.1162 14.4862 25.1162 12.2557 26.4848 10.8847C27.8581 9.51369 30.0874 9.51369 31.4584 10.8847C32.8293 12.2557 32.8293 14.4862 31.4584 15.8571V15.8583C30.0876 17.2269 27.8571 17.2271 26.486 15.8583Z" fill="#2F80ED"/>
<path d="M16.5217 11.8528C16.0229 10.0002 17.1108 8.05569 19.0073 7.54866C20.8749 7.04859 22.8101 8.16093 23.3124 10.0343C23.8158 11.9084 22.7052 13.8367 20.8269 14.3395C18.9443 14.8441 17.0228 13.7271 16.5217 11.8528Z" fill="#FF500C"/>
<path d="M12.3781 20.9691C10.5048 20.4667 9.39011 18.535 9.89245 16.6639C10.3917 14.7966 12.3111 13.6718 14.1965 14.1783C16.0744 14.6803 17.1877 16.6054 16.6833 18.4835C16.1791 20.3674 14.2471 21.4698 12.3781 20.9691Z" fill="#E35D32"/>
<path d="M30.4892 25.8214C28.6163 25.3201 27.4981 23.3977 28.0036 21.5162C28.5075 19.6337 30.4398 18.5292 32.3088 19.0306C34.1821 19.533 35.2968 21.4647 34.7944 23.3358C34.2923 25.2138 32.3626 26.3253 30.4892 25.8214Z" fill="#FFCC33"/>
<path d="M7.10932 -0.00012207C4.20374 -0.00012207 3.59375 10.9121 3.59375 19.9999C3.59375 20.4083 3.59891 20.7831 3.60203 21.1718L6.08387 22.3436H7.10932H8.76937L10.6172 21.1718C10.62 20.7829 10.6249 20.4149 10.6249 19.9999C10.6249 10.9121 10.0149 -0.00012207 7.10932 -0.00012207Z" fill="#B35324"/>
<path d="M10.617 21.1718C10.6199 20.7829 10.6247 20.4149 10.6247 19.9999C10.6247 10.9121 10.0147 -0.00012207 7.10913 -0.00012207V22.3436H8.76918L10.617 21.1718Z" fill="#99341F"/>
<path d="M7.10909 21.1719H3.60181C3.64368 26.3542 3.94071 29.7587 3.95743 30.072H7.10909H10.2608C10.2915 29.4998 10.5782 26.5787 10.6169 21.1719H7.10909Z" fill="#FFF7E6"/>
<path d="M10.617 21.1719H7.10913V30.072H10.2608C10.2915 29.4997 10.5782 26.5786 10.617 21.1719Z" fill="#FFCCB3"/>
<path d="M7.10926 28.203C4.52407 28.203 2.42184 30.3053 2.42184 32.8905V35.2343C2.42184 36.5263 1.29201 37.6561 0 37.6561V39.9999H4.76555C5.59139 39.9999 6.37255 39.8307 7.10926 39.568C9.83148 38.5974 11.7967 35.9419 11.7967 32.8905C11.7967 30.3053 9.69445 28.203 7.10926 28.203Z" fill="#FDAD8C"/>
<path d="M11.7966 32.8905C11.7966 30.3053 9.69432 28.203 7.10913 28.203V39.568C9.83135 38.5974 11.7966 35.9419 11.7966 32.8905Z" fill="#FA7A48"/>
<path d="M24.687 32.8905C26.6286 32.8905 28.2025 31.3165 28.2025 29.3749C28.2025 27.4333 26.6286 25.8593 24.687 25.8593C22.7454 25.8593 21.1714 27.4333 21.1714 29.3749C21.1714 31.3165 22.7454 32.8905 24.687 32.8905Z" fill="#FFF7E6"/>
<path d="M28.2026 29.3749C28.2026 27.4332 26.6286 25.8593 24.687 25.8593V32.8905C26.6286 32.8905 28.2026 31.3165 28.2026 29.3749Z" fill="#FFE6CC"/>
</svg>
