<svg width="40" height="40" viewBox="0 0 40 40" fill="none" xmlns="http://www.w3.org/2000/svg">
<g clip-path="url(#clip0_1_1337)">
<path d="M27.0778 19.9865H36.6758V24.5598H27.0778V19.9865Z" fill="#FFAD8A"/>
<path d="M38.8825 18.2894C38.8825 18.2894 40.023 18.41 39.9996 18.9122C39.898 20.8117 39.4509 22.6767 38.6801 24.4157H37.1895L38.8825 18.2894Z" fill="#FFAD8A"/>
<path d="M31.9274 21.3876C29.9348 21.3876 28.3193 23.0029 28.3193 24.9956C28.3193 26.9883 29.9347 28.6037 31.9274 28.6037C33.92 28.6037 35.5354 26.9883 35.5354 24.9956C35.5354 24.9944 35.5354 24.993 35.5354 24.9917C35.5354 23.0013 33.9218 21.3876 31.9313 21.3876C31.93 21.3876 31.9287 21.3876 31.9274 21.3876Z" fill="#FFAD8A"/>
<path d="M31.9274 22.8549C30.7451 22.8527 29.785 23.8093 29.7828 24.9917C29.7807 26.1739 30.7373 27.1341 31.9196 27.1362C33.1019 27.1384 34.0621 26.1818 34.0642 24.9994C34.0642 24.9968 34.0642 24.9942 34.0642 24.9917C34.0642 23.8116 33.1075 22.8549 31.9274 22.8549Z" fill="#EBF0F3"/>
<path d="M31.9274 24.2795C31.5234 24.2795 31.1957 24.6072 31.1957 25.0112C31.1957 25.4153 31.5234 25.743 31.9274 25.743C32.3314 25.743 32.6591 25.4153 32.6591 25.0112C32.6591 24.6071 32.3316 24.2795 31.9274 24.2795Z" fill="#FFAD8A"/>
<path d="M38.112 24.3846L36.8275 24.6415C36.5561 24.6944 36.2849 24.5499 36.1776 24.2951L35.3992 22.349C35.1405 21.7176 34.5246 21.3064 33.8424 21.3098H30.2888C29.5574 21.3066 28.9091 21.7799 28.6891 22.4775L27.8407 25.2409C27.6149 25.9493 26.9495 26.4248 26.206 26.4086L13.4981 26.1439C12.7311 26.1275 12.0734 25.5918 11.9023 24.8439L11.7195 24.0655C11.5437 23.3066 10.8676 22.7693 10.0886 22.7694H6.6712C6.09403 22.7665 5.55603 23.0606 5.24672 23.5478L4.54611 24.7076C4.24304 25.204 3.70314 25.5064 3.12162 25.5054H0.396973C0.396973 25.5054 0.396973 24.1043 0.677248 20.8776C0.957523 17.651 5.65146 17.0945 5.65146 17.0945V17.0206C5.65146 16.9855 5.65146 16.935 5.67868 16.8765V16.8103C5.82278 16.2576 6.30531 14.9576 7.93616 13.3813C10.1079 11.2796 19.2234 11.1433 21.7417 11.6299C22.2627 11.7496 22.7505 11.9836 23.1701 12.3149C23.4688 13.0352 23.8322 13.727 24.256 14.3816C24.8243 15.1367 25.7545 15.6037 26.0191 16.0747C26.1048 16.2304 26.3228 16.3822 26.3656 16.464C26.4094 16.5514 26.4975 16.6081 26.5952 16.6119C30.7178 16.8111 34.815 17.3712 38.8399 18.2856C40.1436 20.111 38.112 24.3846 38.112 24.3846Z" fill="#FA7A48"/>
<path d="M0.451606 24.4467L0.478827 23.7968C0.246266 23.7942 0.045041 23.9579 1.64967e-05 24.186V25.124C-0.00211999 25.3798 0.203537 25.5889 0.459282 25.591H0.463159H1.78651V24.4623C1.34181 24.4943 0.895283 24.4891 0.451606 24.4467Z" fill="#FFAD8A"/>
<path d="M37.1078 23.8396H38.474C38.7126 23.8396 38.906 24.033 38.906 24.2716V24.5636C38.906 24.8021 38.7126 24.9956 38.474 24.9956H37.1078C36.8693 24.9956 36.6758 24.8022 36.6758 24.5636V24.2716C36.6759 24.033 36.8693 23.8396 37.1078 23.8396Z" fill="#FFAD8A"/>
<path d="M25.1589 16.8222L22.2436 12.891C21.9515 12.4967 21.4963 12.2563 21.0059 12.2371L16.2886 12.0581C12.3459 12.1243 10.3998 13.0194 9.46171 13.759C8.43026 14.5724 8.3486 15.3587 8.34473 15.3937V20.7766C8.34686 21.321 8.78888 21.7613 9.33337 21.7612H11.4118C12.1937 21.7631 12.8886 22.2598 13.1437 22.999L13.7432 24.7309H24.4193C24.9272 24.7288 25.3379 24.3164 25.3379 23.8085V17.3708C25.3388 17.1735 25.276 16.981 25.1589 16.8222ZM13.2412 22.9795C12.9691 22.2013 12.2362 21.6789 11.4118 21.6756H9.33337C8.84538 21.6757 8.44981 21.2802 8.44973 20.7922C8.44973 20.787 8.44973 20.7818 8.44981 20.7765V15.4014C8.44981 15.3547 8.55877 14.5997 9.5357 13.8446C10.5126 13.0896 12.373 12.2449 16.238 12.1749L16.7869 24.6532H13.8171L13.2412 22.9795ZM25.2367 23.824C25.2367 24.2755 24.8708 24.6414 24.4194 24.6414H16.8842L16.3433 12.1631L21.0138 12.3421C21.476 12.353 21.9071 12.5772 22.1816 12.9493L25.0578 16.8843C25.1634 17.0246 25.2207 17.1952 25.2212 17.3708L25.2367 23.824Z" fill="#FE9367"/>
<path d="M17.0088 13.4631L17.0827 16.1526C17.0951 16.3712 17.2762 16.5422 17.4953 16.5418H22.9443C23.1721 16.5397 23.355 16.3533 23.3529 16.1254C23.3522 16.0496 23.3306 15.9756 23.2906 15.9112L21.6092 13.2724C21.5345 13.1552 21.4057 13.0834 21.2667 13.0816L17.4213 13.0349C17.2068 13.0209 17.0215 13.1834 17.0075 13.3979C17.0062 13.4196 17.0065 13.4414 17.0088 13.4631Z" fill="#FFAD8A"/>
<path d="M15.3546 16.1447L15.2145 13.4591C15.2145 13.2442 15.0403 13.0699 14.8253 13.0699C13.6576 12.9998 10.0146 13.0309 9.09215 15.9772C9.05876 16.0877 9.07142 16.207 9.12721 16.3081L9.27906 16.5689C9.35368 16.7115 9.50829 16.7934 9.66829 16.7751L14.9772 16.5765C15.1988 16.5581 15.3659 16.367 15.3546 16.1447Z" fill="#FFAD8A"/>
<path d="M26.4084 16.464C25.7077 15.4132 24.073 13.1012 23.213 12.3149C23.1663 12.3149 22.563 12.3149 22.7303 12.673C22.8626 12.9688 24.0031 14.2298 24.6764 15.1912C25.1026 15.7899 25.7096 16.2359 26.4084 16.464Z" fill="#FFAD8A"/>
<path d="M8.34487 21.3875C6.35224 21.3875 4.73682 23.0028 4.73682 24.9955C4.73682 26.9882 6.35216 28.6036 8.34487 28.6036C10.3376 28.6036 11.9529 26.9882 11.9529 24.9955C11.9529 24.9942 11.9529 24.9929 11.9529 24.9916C11.9529 23.0011 10.3392 21.3875 8.34874 21.3875C8.34748 21.3875 8.34621 21.3875 8.34487 21.3875Z" fill="#FFAD8A"/>
<path d="M8.34478 22.8549C7.16251 22.8549 6.2041 23.8133 6.2041 24.9955C6.2041 26.1778 7.16259 27.1362 8.34478 27.1362C9.52697 27.1362 10.4855 26.1777 10.4855 24.9955C10.4855 24.9943 10.4855 24.9929 10.4855 24.9917C10.4855 23.8116 9.52879 22.8549 8.34866 22.8549C8.34739 22.8549 8.34613 22.8549 8.34478 22.8549Z" fill="#EBF0F3"/>
<path d="M8.34487 24.2795C7.94083 24.2795 7.61316 24.6072 7.61316 25.0112C7.61316 25.4153 7.94083 25.743 8.34487 25.743C8.7489 25.743 9.07657 25.4153 9.07657 25.0112C9.07657 24.6071 8.74906 24.2795 8.34487 24.2795Z" fill="#FFAD8A"/>
</g>
<defs>
<clipPath id="clip0_1_1337">
<rect width="40" height="40" fill="white"/>
</clipPath>
</defs>
</svg>
