<svg width="40" height="40" viewBox="0 0 40 40" fill="none" xmlns="http://www.w3.org/2000/svg">
<path d="M6.875 30.625L5 1.875H18.75L16.875 30.625H6.875Z" fill="#FA7A48"/>
<path d="M6.875 30.625H16.875V35.625C16.875 36.288 16.6116 36.9239 16.1428 37.3928C15.6739 37.8616 15.038 38.125 14.375 38.125H9.375C8.71196 38.125 8.07607 37.8616 7.60723 37.3928C7.13839 36.9239 6.875 36.288 6.875 35.625V30.625Z" fill="#FBE9D8"/>
<path d="M9.375 38.125H14.375C15.038 38.125 15.6739 37.8616 16.1428 37.3928C16.6116 36.9239 16.875 36.288 16.875 35.625H6.875C6.875 36.288 7.13839 36.9239 7.60723 37.3928C8.07607 37.8616 8.71196 38.125 9.375 38.125Z" fill="#FA7A48"/>
<path d="M18.75 1.875H5L5.16305 4.375H18.587L18.75 1.875Z" fill="#FBE9D8"/>
<path d="M11.25 33.125H12.5C12.8315 33.125 13.1495 33.2567 13.3839 33.4911C13.6183 33.7255 13.75 34.0435 13.75 34.375V35.625H10V34.375C10 34.0435 10.1317 33.7255 10.3661 33.4911C10.6005 33.2567 10.9185 33.125 11.25 33.125Z" fill="#FF5B1B"/>
<path d="M32.5 24.375H16.25C14.8693 24.375 13.75 25.4943 13.75 26.875V35.625C13.75 37.0057 14.8693 38.125 16.25 38.125H32.5C33.8807 38.125 35 37.0057 35 35.625V26.875C35 25.4943 33.8807 24.375 32.5 24.375Z" fill="#FED1BE"/>
<path d="M15.625 21.875H33.125V24.375H15.625V21.875Z" fill="#FFA275"/>
<path d="M13.75 26.875H35V35.625H13.75V26.875Z" fill="#FFA275"/>
<path d="M15.6406 21.875C15.6406 21.875 15.0376 18.2291 21.3289 18.2291C27.6201 18.2291 28.75 15.625 28.75 15.625C28.75 15.625 33.125 17.1875 33.125 21.875H15.6406Z" fill="#FBE9D8"/>
<path d="M24.375 33.125C26.7912 33.125 28.75 32.2855 28.75 31.25C28.75 30.2145 26.7912 29.375 24.375 29.375C21.9588 29.375 20 30.2145 20 31.25C20 32.2855 21.9588 33.125 24.375 33.125Z" fill="#FBE9D8"/>
<path d="M8.125 6.875H15.625V10.625H8.125V6.875Z" fill="#FBE9D8"/>
<path d="M14.375 13.75H9.375C9.20924 13.75 9.05027 13.6842 8.93306 13.5669C8.81585 13.4497 8.75 13.2908 8.75 13.125C8.75 12.9592 8.81585 12.8003 8.93306 12.6831C9.05027 12.5658 9.20924 12.5 9.375 12.5H14.375C14.5408 12.5 14.6997 12.5658 14.8169 12.6831C14.9342 12.8003 15 12.9592 15 13.125C15 13.2908 14.9342 13.4497 14.8169 13.5669C14.6997 13.6842 14.5408 13.75 14.375 13.75Z" fill="#FBE9D8"/>
</svg>
