<svg width="40" height="40" viewBox="0 0 40 40" fill="none" xmlns="http://www.w3.org/2000/svg">
<path d="M20.2043 6.04272L37.9575 8.77397L34.1758 33.3551L16.4226 30.6239L20.2043 6.04272Z" fill="#FA7A48"/>
<path d="M35.8376 10.348L32.6259 31.2242L18.5778 29.0629L21.7895 8.18677L35.8376 10.348Z" fill="#FDAD8C"/>
<path d="M32.5913 19.6172C32.5631 19.6173 32.535 19.6152 32.5072 19.6109C32.4361 19.6 32.3679 19.5752 32.3064 19.5378C32.245 19.5005 32.1915 19.4513 32.149 19.3933C32.1066 19.3352 32.076 19.2694 32.0591 19.1995C32.0421 19.1296 32.0392 19.057 32.0503 18.9859L32.3219 17.2216C32.3322 17.15 32.3565 17.0812 32.3936 17.0192C32.4306 16.9571 32.4796 16.903 32.5377 16.86C32.5958 16.817 32.6618 16.7859 32.732 16.7685C32.8021 16.7512 32.875 16.7479 32.9465 16.7589C33.0179 16.77 33.0864 16.795 33.1481 16.8327C33.2098 16.8703 33.2634 16.9198 33.3059 16.9784C33.3483 17.0369 33.3787 17.1032 33.3954 17.1735C33.412 17.2439 33.4145 17.3168 33.4028 17.3881L33.1313 19.1525C33.1116 19.2817 33.0463 19.3995 32.9472 19.4848C32.8482 19.57 32.7219 19.617 32.5913 19.6172Z" fill="#FA7A48"/>
<path d="M25.7495 22.9014L27.602 23.1864L27.0162 26.9942L25.1637 26.7092L25.7495 22.9014Z" fill="#EFEFFB"/>
<path d="M27.4843 27.6272C27.4562 27.6271 27.4283 27.625 27.4005 27.621L24.6193 27.1932C24.5477 27.1829 24.4789 27.1585 24.4169 27.1215C24.3548 27.0844 24.3007 27.0354 24.2577 26.9774C24.2147 26.9193 24.1836 26.8532 24.1662 26.7831C24.1489 26.7129 24.1456 26.64 24.1566 26.5686C24.1677 26.4971 24.1927 26.4286 24.2304 26.3669C24.268 26.3052 24.3176 26.2516 24.3761 26.2092C24.4346 26.1667 24.5009 26.1363 24.5712 26.1197C24.6416 26.103 24.7145 26.1005 24.7858 26.1122L27.5671 26.54C27.703 26.5613 27.8259 26.633 27.9113 26.7408C27.9967 26.8486 28.0384 26.9847 28.0279 27.1219C28.0175 27.2591 27.9557 27.3872 27.855 27.4809C27.7542 27.5746 27.6218 27.6268 27.4843 27.6272Z" fill="#FFCCB3"/>
<path d="M28.2974 12.5559L26.6102 14.2722L25.2905 22.8431L26.6805 23.0572L28.0702 23.2712L29.3902 14.7003L28.2974 12.5559Z" fill="#EFEFFB"/>
<path d="M28.634 24.4137C27.2064 24.3497 25.79 24.1315 24.4093 23.7631C24.2875 23.7306 24.1735 23.6737 24.0744 23.5958C23.9752 23.5179 23.8929 23.4207 23.8324 23.3101C23.7719 23.1995 23.7345 23.0777 23.7225 22.9522C23.7105 22.8267 23.7241 22.7001 23.7624 22.58L23.7681 22.5622C23.8403 22.3358 23.9969 22.146 24.2054 22.032C24.4139 21.9181 24.6582 21.8888 24.8877 21.9503C26.1411 22.2848 27.4271 22.4829 28.7231 22.5409C28.9604 22.5514 29.1845 22.6529 29.3491 22.8242C29.5136 22.9956 29.6059 23.2237 29.6068 23.4612V23.48C29.6072 23.606 29.582 23.7309 29.5328 23.8469C29.4836 23.963 29.4113 24.0678 29.3203 24.1551C29.2294 24.2424 29.1216 24.3104 29.0037 24.3548C28.8857 24.3993 28.7599 24.4193 28.634 24.4137Z" fill="#FFCCB3"/>
<path d="M28.634 24.4137C27.2064 24.3497 25.79 24.1315 24.4093 23.7631C24.2875 23.7306 24.1735 23.6737 24.0744 23.5958C23.9752 23.5179 23.8929 23.4207 23.8324 23.3101C23.7719 23.1995 23.7345 23.0777 23.7225 22.9522C23.7105 22.8267 23.7241 22.7001 23.7624 22.58L23.7681 22.5622C23.8403 22.3358 23.9969 22.146 24.2054 22.032C24.4139 21.9181 24.6582 21.8888 24.8877 21.9503C26.1411 22.2848 27.4271 22.4829 28.7231 22.5409C28.9604 22.5514 29.1845 22.6529 29.3491 22.8242C29.5136 22.9956 29.6059 23.2237 29.6068 23.4612V23.48C29.6072 23.606 29.582 23.7309 29.5328 23.8469C29.4836 23.963 29.4113 24.0678 29.3203 24.1551C29.2294 24.2424 29.1216 24.3104 29.0037 24.3548C28.8857 24.3993 28.7599 24.4193 28.634 24.4137Z" fill="#FFCCB3"/>
<path d="M15.1737 33.75L15.4678 32.625C15.4678 32.625 13.8278 28.4744 13.8278 25.7812H10.7419C10.7419 28.4731 9.10217 32.625 9.10217 32.625L9.39624 33.75H15.1737Z" fill="#FA7A48"/>
<path d="M15.4688 32.715H9.10228C9.10293 33.6375 9.0184 34.558 8.84978 35.465L8.66821 36.095V37.0325H15.902V36.095L15.7204 35.465C15.5521 34.558 15.4679 33.6374 15.4688 32.715Z" fill="#FDAD8C"/>
<path d="M12.285 24.6875C13.5795 24.6875 14.6288 23.6382 14.6288 22.3438C14.6288 21.0493 13.5795 20 12.285 20C10.9906 20 9.94128 21.0493 9.94128 22.3438C9.94128 23.6382 10.9906 24.6875 12.285 24.6875Z" fill="#FA7A48"/>
<path d="M9.94128 24.2191H14.6288V26.0941H9.94128V24.2191Z" fill="#FDAD8C"/>
<path d="M8.73035 36.0938H15.8397C16.0884 36.0938 16.3268 36.1925 16.5026 36.3683C16.6784 36.5442 16.7772 36.7826 16.7772 37.0312V37.9688H7.79285V37.0312C7.79285 36.7826 7.89162 36.5442 8.06743 36.3683C8.24325 36.1925 8.48171 36.0938 8.73035 36.0938Z" fill="#FA7A48"/>
<path d="M21.9911 12.1887L18.9011 2.67867C18.7411 2.18628 18.2123 1.91681 17.7199 2.0768L8.20989 5.1668C7.71749 5.32679 7.44802 5.85565 7.60801 6.34805L10.698 15.858C10.858 16.3504 11.3869 16.6199 11.8793 16.4599L21.3893 13.3699C21.8817 13.2099 22.1511 12.6811 21.9911 12.1887Z" fill="#FFCCB3"/>
<path d="M13.349 12.9772C13.8668 12.9772 14.2865 12.5574 14.2865 12.0397C14.2865 11.5219 13.8668 11.1022 13.349 11.1022C12.8312 11.1022 12.4115 11.5219 12.4115 12.0397C12.4115 12.5574 12.8312 12.9772 13.349 12.9772Z" fill="#FA7A48"/>
<path d="M11.9974 8.81628C12.5152 8.81628 12.9349 8.39655 12.9349 7.87878C12.9349 7.36102 12.5152 6.94128 11.9974 6.94128C11.4797 6.94128 11.0599 7.36102 11.0599 7.87878C11.0599 8.39655 11.4797 8.81628 11.9974 8.81628Z" fill="#FA7A48"/>
<path d="M17.599 11.5968C18.1168 11.5968 18.5365 11.1771 18.5365 10.6593C18.5365 10.1415 18.1168 9.7218 17.599 9.7218C17.0812 9.7218 16.6615 10.1415 16.6615 10.6593C16.6615 11.1771 17.0812 11.5968 17.599 11.5968Z" fill="#FA7A48"/>
<path d="M16.2471 7.43591C16.7648 7.43591 17.1846 7.01618 17.1846 6.49841C17.1846 5.98065 16.7648 5.56091 16.2471 5.56091C15.7293 5.56091 15.3096 5.98065 15.3096 6.49841C15.3096 7.01618 15.7293 7.43591 16.2471 7.43591Z" fill="#FA7A48"/>
</svg>
