<svg width="40" height="40" viewBox="0 0 40 40" fill="none" xmlns="http://www.w3.org/2000/svg">
<path d="M12.7703 4.13252V8.69111L11.989 10.2536L12.7703 11.8161V31.0622L3.56482 30.281V11.8161L4.34607 10.2536L3.56482 8.69111V4.13252C3.56482 3.90674 3.74763 3.72314 3.97341 3.72314H12.3609C12.5867 3.72314 12.7703 3.90674 12.7703 4.13252Z" fill="#F16438"/>
<path d="M12.7703 4.13252V8.69111L11.989 10.2536L12.7703 11.8161V36.0247H3.56482V33.4466H9.56873C10.4304 33.4466 11.1297 32.7474 11.1297 31.8856V4.13252C11.1297 3.90674 10.9461 3.72314 10.7203 3.72314H12.3609C12.5867 3.72314 12.7703 3.90674 12.7703 4.13252Z" fill="#E36F4B"/>
<path d="M12.7703 30.281V34.9302L3.56482 35.7115V30.281H12.7703Z" fill="#56788B"/>
<path d="M3.56482 8.69116H12.7703V11.8162H3.56482V8.69116Z" fill="#FDEDA5"/>
<path d="M11.1296 8.69116H12.7703V11.8162H11.1296V8.69116Z" fill="#FBDF63"/>
<path d="M11.1297 30.281H12.7703V34.9302H3.56482V33.4466H9.56873C10.4304 33.4466 11.1297 32.7474 11.1297 31.8857V30.281Z" fill="#415E6F"/>
<path d="M6.8114 14.8326C6.48781 14.8326 6.22546 15.095 6.22546 15.4186V26.8492C6.22546 27.1728 6.48781 27.4351 6.8114 27.4351C7.135 27.4351 7.39734 27.1728 7.39734 26.8492V15.4186C7.39734 15.095 7.135 14.8326 6.8114 14.8326Z" fill="white"/>
<path d="M9.52307 16.6417C9.19948 16.6417 8.93713 16.9041 8.93713 17.2277V25.0402C8.93713 25.3638 9.19948 25.6261 9.52307 25.6261C9.84667 25.6261 10.109 25.3638 10.109 25.0402V17.2277C10.109 16.9041 9.84674 16.6417 9.52307 16.6417Z" fill="white"/>
<path d="M35.886 27.695L34.4016 28.7208L32.1446 30.281L27.0383 30.2372L22.1258 13.1388L22.4539 11.5646L21.2625 10.1356L19.993 5.71611C19.9313 5.50127 20.0555 5.27705 20.2703 5.21611L26.2719 3.49189L28.3407 2.89736C28.5555 2.83564 28.7789 2.95908 28.8407 3.17393L30.111 7.59424L29.7414 9.02705L30.9735 10.5966L35.886 27.695Z" fill="#FDAD8C"/>
<path d="M35.8859 27.695L34.4015 28.7208L27.2594 4.03721C27.1375 3.61455 26.6953 3.37002 26.2719 3.49189L28.3406 2.89736C28.5554 2.83564 28.7789 2.95908 28.8406 3.17393L30.1109 7.59424L29.7414 9.02705L30.9734 10.5966L35.8859 27.695Z" fill="#FA7A48"/>
<path d="M30.9735 10.5966L29.2969 11.0786L22.1259 13.1388L21.2626 10.1356L28.4282 8.07783L30.111 7.59424L30.9735 10.5966Z" fill="#FDEDA5"/>
<path d="M36.9579 32.8912L28.4993 35.3208L27.9891 33.5458L27.0383 30.2373L34.2415 28.1677L35.886 27.6951L37.2352 32.3904C37.2961 32.6052 37.1727 32.8294 36.9579 32.8912Z" fill="#56788B"/>
<path d="M36.9579 32.8912L28.4993 35.3208L27.9891 33.5458L33.5891 31.8529C34.4649 31.588 34.9649 30.6677 34.711 29.7888L34.2415 28.1677L35.886 27.6951L37.2352 32.3904C37.2962 32.6052 37.1727 32.8294 36.9579 32.8912Z" fill="#415E6F"/>
<path d="M26.9011 15.4344C26.8117 15.1234 26.487 14.9435 26.1761 15.033C25.8651 15.1223 25.6854 15.4469 25.7747 15.7579L28.9311 26.744C29.0049 27.001 29.2393 27.1683 29.494 27.1683C29.5476 27.1683 29.602 27.1609 29.656 27.1454C29.967 27.056 30.1467 26.7315 30.0574 26.4205L26.9011 15.4344Z" fill="white"/>
<path d="M32.1642 23.933L30.0068 16.4242C29.9174 16.1132 29.593 15.9334 29.2818 16.0228C28.9708 16.1122 28.7911 16.4367 28.8805 16.7478L31.0378 24.2565C31.1117 24.5135 31.346 24.6808 31.6007 24.6808C31.6543 24.6808 31.7088 24.6734 31.7627 24.6579C32.0738 24.5686 32.2535 24.244 32.1642 23.933Z" fill="white"/>
<path d="M20.4132 7.27627V34.9302H12.7703V6.84814H19.9851C20.2218 6.84814 20.4132 7.03955 20.4132 7.27627Z" fill="#FFB393"/>
<path d="M20.4132 7.27627V34.9302H18.7726V7.27627C18.7726 7.03955 18.5812 6.84814 18.3445 6.84814H19.9851C20.2218 6.84814 20.4132 7.03955 20.4132 7.27627Z" fill="#FFA402"/>
<path d="M20.4132 30.281V35.7115L12.7703 34.9302V30.281H20.4132Z" fill="#56788B"/>
<path d="M18.7726 30.281H20.4132V34.9302H11.2078V33.4466H17.2117C18.0734 33.4466 18.7726 32.7474 18.7726 31.8857V30.281Z" fill="#415E6F"/>
<path d="M12.7703 11.8162H20.4132V14.9412H12.7703V11.8162Z" fill="#FDEDA5"/>
<path d="M18.7726 11.8162H20.4132V14.9412H18.7726V11.8162Z" fill="#FBDF63"/>
<path d="M16.6198 17.8795C16.2962 17.8795 16.0338 18.1419 16.0338 18.4655V26.7711C16.0338 27.0947 16.2962 27.357 16.6198 27.357C16.9433 27.357 17.2057 27.0947 17.2057 26.7711V18.4655C17.2057 18.1419 16.9433 17.8795 16.6198 17.8795Z" fill="white"/>
<path d="M40 36.0247C40 36.6286 39.5102 37.1185 38.9062 37.1185H1.09375C0.792188 37.1185 0.51875 36.9958 0.320312 36.7981C0.122656 36.6005 0 36.3271 0 36.0247C0 35.42 0.489844 34.9302 1.09375 34.9302H38.9062C39.2078 34.9302 39.4813 35.0528 39.6797 35.2505C39.8773 35.4489 40 35.7224 40 36.0247Z" fill="#FC8A5A"/>
<path d="M39.6797 35.2505C39.8773 35.4489 40 35.7224 40 36.0247C40 36.6286 39.5102 37.1185 38.9062 37.1185H36.7969C37.4008 37.1185 37.8906 36.6286 37.8906 36.0247C37.8906 35.7224 37.768 35.4489 37.5703 35.2505C37.3719 35.0528 37.0984 34.9302 36.7969 34.9302H38.9062C39.2078 34.9302 39.4812 35.0528 39.6797 35.2505Z" fill="#B5612A"/>
<path d="M29.2969 11.0786L28.4281 8.07783L30.1109 7.59424L30.9734 10.5966L29.2969 11.0786Z" fill="#FBDF63"/>
</svg>
