<svg width="40" height="40" viewBox="0 0 40 40" fill="none" xmlns="http://www.w3.org/2000/svg">
<path d="M27.6466 38.3657H17.0083C18.3044 37.6473 19.1085 36.2822 19.1085 34.8003V32.8605H25.5463V34.8003C25.5463 36.2822 26.3505 37.6473 27.6466 38.3657Z" fill="#474747"/>
<path d="M39.507 8.7572V30.846C39.507 31.9592 38.6046 32.8616 37.4914 32.8616H7.16382C6.05062 32.8616 5.14819 31.9592 5.14819 30.846V8.7572C5.14819 7.644 6.05062 6.74158 7.16382 6.74158H37.4914C38.6046 6.74166 39.507 7.644 39.507 8.7572Z" fill="#FA7A48"/>
<path opacity="0.12" d="M39.506 8.75899V30.8473C39.506 31.9584 38.6032 32.8613 37.492 32.8613H7.16487C6.05003 32.8613 5.14722 31.9584 5.14722 30.8473V30.617H13.1593C26.3948 30.617 37.1374 19.9512 37.258 6.74133H37.4919C38.6031 6.74133 39.506 7.64415 39.506 8.75899Z" fill="#B35324"/>
<path d="M7.96997 9.56335H36.685V28.4098H7.96997V9.56335Z" fill="#E8F1F8"/>
<path d="M30.2922 38.7808H14.3628C14.1336 38.7808 13.9478 38.595 13.9478 38.3658C13.9478 38.1365 14.1336 37.9507 14.3628 37.9507H30.2922C30.5214 37.9507 30.7073 38.1365 30.7073 38.3658C30.7073 38.595 30.5213 38.7808 30.2922 38.7808Z" fill="#474747"/>
<path d="M34.5472 17.7566V25.9305C34.5472 26.1679 34.3548 26.3603 34.1174 26.3603H32.2084C31.971 26.3603 31.7786 26.1679 31.7786 25.9305V17.7566C31.7786 17.5192 31.971 17.3268 32.2084 17.3268H34.1174C34.3547 17.3268 34.5472 17.5192 34.5472 17.7566Z" fill="#FFA275"/>
<path opacity="0.1" d="M34.5478 17.7566V25.9305C34.5478 26.1683 34.3543 26.3603 34.1179 26.3603H32.2079C31.9715 26.3603 31.7781 26.1683 31.7781 25.9305V25.8875C32.89 25.7083 33.7396 24.7426 33.7396 23.5806V17.3268H34.1179C34.3543 17.3268 34.5478 17.5187 34.5478 17.7566Z" fill="#B35324"/>
<path d="M30.1837 15.8863V25.9305C30.1837 26.1679 29.9913 26.3603 29.7539 26.3603H27.8449C27.6075 26.3603 27.415 26.1679 27.415 25.9305V15.8863C27.415 15.6488 27.6075 15.4564 27.8449 15.4564H29.7539C29.9913 15.4564 30.1837 15.6488 30.1837 15.8863Z" fill="#FDCF17"/>
<path opacity="0.1" d="M30.1842 15.8863V25.9305C30.1842 26.1683 29.9908 26.3603 29.7544 26.3603H27.8444C27.608 26.3603 27.4146 26.1683 27.4146 25.9305V25.8875C28.5264 25.7084 29.3761 24.7427 29.3761 23.5806V15.4564H29.7544C29.9908 15.4564 30.1842 15.6484 30.1842 15.8863Z" fill="#B35324"/>
<path d="M25.8199 19.3766V25.9304C25.8199 26.1679 25.6275 26.3603 25.3901 26.3603H23.4811C23.2437 26.3603 23.0513 26.1679 23.0513 25.9304V19.3766C23.0513 19.1392 23.2437 18.9468 23.4811 18.9468H25.3901C25.6274 18.9468 25.8199 19.1392 25.8199 19.3766Z" fill="#F14F4A"/>
<path opacity="0.1" d="M25.8205 19.3766V25.9304C25.8205 26.1683 25.627 26.3603 25.3906 26.3603H23.4806C23.2442 26.3603 23.0508 26.1683 23.0508 25.9304V25.8875C24.1627 25.7083 25.0123 24.7426 25.0123 23.5806V18.9468H25.3906C25.627 18.9468 25.8205 19.1387 25.8205 19.3766Z" fill="#B35324"/>
<path d="M21.4564 16.72V25.9304C21.4564 26.1678 21.264 26.3602 21.0266 26.3602H19.1176C18.8802 26.3602 18.6877 26.1678 18.6877 25.9304V16.72C18.6877 16.4826 18.8802 16.2902 19.1176 16.2902H21.0266C21.264 16.2901 21.4564 16.4826 21.4564 16.72Z" fill="#F78721"/>
<path opacity="0.1" d="M21.4569 16.7201V25.9305C21.4569 26.1683 21.2635 26.3603 21.0271 26.3603H19.1171C18.8807 26.3603 18.6873 26.1683 18.6873 25.9305V25.8875C19.7991 25.7084 20.6488 24.7427 20.6488 23.5806V16.2902H21.0271C21.2635 16.2902 21.4569 16.4822 21.4569 16.7201Z" fill="#B35324"/>
<path d="M20.0721 3.31201V11.7045C20.0721 12.8604 19.135 13.7974 17.9792 13.7974H16.4985L15.3834 16.6745C15.1431 17.2945 14.2657 17.294 14.026 16.6738L12.9144 13.7973H2.58605C1.4302 13.7973 0.493164 12.8603 0.493164 11.7044V3.31201C0.493164 2.15615 1.4302 1.21912 2.58605 1.21912H17.9792C19.135 1.21912 20.0721 2.15615 20.0721 3.31201Z" fill="#FFA275"/>
<path opacity="0.1" d="M17.9792 1.21912H17.5514C17.5514 6.63794 13.1586 11.0308 7.73973 11.0308H0.493164V11.7044C0.493164 12.8603 1.4302 13.7973 2.58605 13.7973H12.9144L14.026 16.6738C14.2657 17.294 15.1431 17.2945 15.3834 16.6745L16.4985 13.7974H17.9792C19.135 13.7974 20.0721 12.8604 20.0721 11.7045V3.31201C20.0721 2.15615 19.135 1.21912 17.9792 1.21912Z" fill="#B35324"/>
<path d="M6.79855 10.7024L4.05683 9.14663C3.85762 9.03358 3.78769 8.78023 3.90082 8.58085C4.01387 8.38147 4.26683 8.31155 4.4666 8.42483L6.92723 9.82116L9.44519 7.19288C9.57269 7.05976 9.77348 7.0271 9.93683 7.11202L12.3215 8.35632L14.8661 3.81257C14.9781 3.61273 15.2311 3.54163 15.4311 3.65327C15.6311 3.7653 15.7024 4.01827 15.5903 4.21827L12.8488 9.11366C12.7389 9.30905 12.4941 9.38241 12.2947 9.27882L9.82902 7.99218L7.30308 10.6287C7.17144 10.766 6.96355 10.7962 6.79855 10.7024Z" fill="#E8F1F8"/>
<path d="M15.7017 5.40148L13.7568 4.42305C13.4393 4.26336 13.4573 3.80422 13.7863 3.66976L15.3202 3.04281C15.5528 2.94773 15.8157 3.08008 15.8781 3.32344L16.289 4.92875C16.3772 5.27312 16.0192 5.56117 15.7017 5.40148Z" fill="#E8F1F8"/>
<path d="M16.1611 26.361H10.9095C10.6802 26.361 10.4944 26.1752 10.4944 25.946C10.4944 25.7167 10.6802 25.5309 10.9095 25.5309H16.1611C16.3903 25.5309 16.5762 25.7167 16.5762 25.946C16.5761 26.1752 16.3903 26.361 16.1611 26.361Z" fill="#474747"/>
<path d="M16.1611 23.2888H10.9095C10.6802 23.2888 10.4944 23.1029 10.4944 22.8737C10.4944 22.6445 10.6802 22.4586 10.9095 22.4586H16.1611C16.3903 22.4586 16.5762 22.6445 16.5762 22.8737C16.5761 23.1029 16.3903 23.2888 16.1611 23.2888Z" fill="#474747"/>
<path d="M16.1611 20.2165H14.2237C13.9945 20.2165 13.8086 20.0306 13.8086 19.8014C13.8086 19.5722 13.9945 19.3864 14.2237 19.3864H16.1611C16.3903 19.3864 16.5762 19.5722 16.5762 19.8014C16.5761 20.0306 16.3903 20.2165 16.1611 20.2165Z" fill="#474747"/>
</svg>
