<svg width="40" height="40" viewBox="0 0 40 40" fill="none" xmlns="http://www.w3.org/2000/svg">
<path d="M36.25 1.25H16.25C14.8693 1.25 13.75 2.36929 13.75 3.75V31.25C13.75 32.6307 14.8693 33.75 16.25 33.75H36.25C37.6307 33.75 38.75 32.6307 38.75 31.25V3.75C38.75 2.36929 37.6307 1.25 36.25 1.25Z" fill="#FF6E33"/>
<path d="M38.75 3.75V31.25C38.75 31.913 38.4866 32.5489 38.0178 33.0178C37.5489 33.4866 36.913 33.75 36.25 33.75H26.25V1.25H36.25C36.913 1.25 37.5489 1.51339 38.0178 1.98223C38.4866 2.45107 38.75 3.08696 38.75 3.75Z" fill="#FFA884"/>
<path d="M32.5001 15.8375L28.3001 10.9375C28.038 10.6558 27.7208 10.4312 27.3681 10.2776C27.0154 10.124 26.6348 10.0447 26.2501 10.0447C25.8654 10.0447 25.4848 10.124 25.1321 10.2776C24.7794 10.4312 24.4621 10.6558 24.2001 10.9375L20.0001 15.8375C19.5924 16.2953 19.3672 16.8869 19.3672 17.5C19.3672 18.113 19.5924 18.7046 20.0001 19.1625L24.2126 24.0625C24.4672 24.3563 24.782 24.592 25.1357 24.7535C25.4894 24.9151 25.8737 24.9987 26.2626 24.9987C26.6514 24.9987 27.0357 24.9151 27.3894 24.7535C27.7431 24.592 28.0579 24.3563 28.3126 24.0625L32.5001 19.1625C32.9077 18.7046 33.133 18.113 33.133 17.5C33.133 16.8869 32.9077 16.2953 32.5001 15.8375Z" fill="#DB2208"/>
<path d="M32.5 19.1626L28.2875 24.0626C28.0371 24.3583 27.7249 24.5955 27.3728 24.7575C27.0208 24.9195 26.6375 25.0023 26.25 25.0001V10.0001C26.6354 9.99233 27.0179 10.0676 27.3716 10.2207C27.7253 10.3738 28.0419 10.6013 28.3 10.8876L32.5 15.8376C32.9077 16.2954 33.1329 16.887 33.1329 17.5001C33.1329 18.1131 32.9077 18.7047 32.5 19.1626Z" fill="#FF723B"/>
<path d="M23.75 6.25H3.75C2.36929 6.25 1.25 7.36929 1.25 8.75V36.25C1.25 37.6307 2.36929 38.75 3.75 38.75H23.75C25.1307 38.75 26.25 37.6307 26.25 36.25V8.75C26.25 7.36929 25.1307 6.25 23.75 6.25Z" fill="#FDAD8C"/>
<path d="M26.25 8.75V36.25C26.25 36.913 25.9866 37.5489 25.5178 38.0178C25.0489 38.4866 24.413 38.75 23.75 38.75H13.75V6.25H23.75C24.413 6.25 25.0489 6.51339 25.5178 6.98223C25.9866 7.45107 26.25 8.08696 26.25 8.75Z" fill="#FE9367"/>
<path d="M19.9999 17.35C19.605 16.8763 19.1124 16.4936 18.5557 16.2282C17.999 15.9628 17.3915 15.821 16.7749 15.8125C16.2074 15.8182 15.647 15.9385 15.1271 16.1662C14.6073 16.3939 14.1389 16.7243 13.7499 17.1375C13.3595 16.7228 12.889 16.3915 12.3669 16.1638C11.8448 15.936 11.282 15.8165 10.7124 15.8125C10.0979 15.8228 9.4928 15.9655 8.93841 16.2308C8.38403 16.4961 7.89337 16.8779 7.49989 17.35C6.70626 18.3295 6.27319 19.5519 6.27319 20.8125C6.27319 22.0731 6.70626 23.2955 7.49989 24.275L10.2499 27.5L10.7874 28.1125L10.9124 28.2625C11.2644 28.6699 11.7001 28.9968 12.1897 29.2208C12.6793 29.4448 13.2115 29.5607 13.7499 29.5607C14.2883 29.5607 14.8205 29.4448 15.3101 29.2208C15.7997 28.9968 16.2354 28.6699 16.5874 28.2625L17.7374 26.925L19.9999 24.2875C20.7967 23.307 21.2317 22.0822 21.2317 20.8188C21.2317 19.5553 20.7967 18.3305 19.9999 17.35Z" fill="#FF9C72"/>
<path d="M20 24.275L17.725 26.925L16.575 28.2625C16.2186 28.6611 15.7809 28.9789 15.2915 29.1945C14.8021 29.4101 14.2723 29.5185 13.7375 29.5125V17.1375C14.128 16.7228 14.5984 16.3915 15.1205 16.1638C15.6426 15.936 16.2055 15.8165 16.775 15.8125C17.3917 15.821 17.9992 15.9628 18.5559 16.2282C19.1125 16.4936 19.6052 16.8763 20 17.35C20.7937 18.3295 21.2267 19.5519 21.2267 20.8125C21.2267 22.0731 20.7937 23.2955 20 24.275Z" fill="#FF723C"/>
</svg>
