<svg width="40" height="40" viewBox="0 0 40 40" fill="none" xmlns="http://www.w3.org/2000/svg">
<g clip-path="url(#clip0_1_940)">
<path d="M40 20C40 31.0457 31.0457 40 20 40C8.9543 40 0 31.0457 0 20C0 8.9543 8.9543 0 20 0C31.0457 0 40 8.9543 40 20Z" fill="#FFBFA5"/>
<path d="M21.8436 11.5928L15.499 17.9374C14.915 18.5214 13.9681 18.5214 13.3842 17.9374L7.03955 11.5928C6.45557 11.0088 6.45557 10.062 7.03955 9.47791L13.3842 3.1333C13.9681 2.54932 14.915 2.54932 15.499 3.1333L21.8436 9.47791C22.4277 10.062 22.4277 11.0088 21.8436 11.5928Z" fill="#FFF5F5"/>
<path d="M13.3368 2.80143L6.70765 9.43057C6.09749 10.0407 6.09741 11.0301 6.70765 11.6403L13.3368 18.2694C13.947 18.8796 14.9363 18.8796 15.5465 18.2694L22.1756 11.6403C22.7858 11.0301 22.7858 10.0407 22.1756 9.43057L15.5465 2.80143C14.9362 2.19119 13.9469 2.19119 13.3368 2.80143ZM15.446 15.9592C14.8913 16.5139 13.9919 16.514 13.4372 15.9592C12.8825 15.4046 12.8825 14.5052 13.4372 13.9504C13.9919 13.3956 14.8912 13.3956 15.446 13.9504C16.0008 14.5051 16.0008 15.4045 15.446 15.9592ZM11.0266 11.5398C10.4719 12.0945 9.57257 12.0946 9.0178 11.5398C8.46312 10.9851 8.46312 10.0857 9.0178 9.53096C9.57249 8.97627 10.4719 8.97619 11.0266 9.53096C11.5814 10.0857 11.5813 10.9851 11.0266 11.5398ZM15.446 11.5398C14.8913 12.0945 13.9919 12.0946 13.4372 11.5398C12.8825 10.9851 12.8825 10.0857 13.4372 9.53096C13.9919 8.97619 14.8912 8.97619 15.446 9.53096C16.0008 10.0857 16.0008 10.9851 15.446 11.5398ZM19.8655 11.5398C19.3108 12.0945 18.4114 12.0946 17.8566 11.5398C17.3019 10.9851 17.3019 10.0857 17.8566 9.53096C18.4113 8.97619 19.3107 8.97619 19.8655 9.53096C20.4201 10.0857 20.4201 10.9851 19.8655 11.5398ZM15.446 7.12041C14.8913 7.6751 13.9919 7.67518 13.4372 7.12041C12.8825 6.56572 12.8825 5.66635 13.4372 5.11158C13.9919 4.55682 14.8912 4.55682 15.446 5.11158C16.0008 5.66635 16.0008 6.56564 15.446 7.12041Z" fill="#FA7A48"/>
<path d="M16.7413 17.0745L15.5465 18.2694C14.9363 18.8796 13.947 18.8796 13.3368 18.2694L6.70768 11.6402C6.09744 11.03 6.09744 10.0407 6.70768 9.43056L7.90252 8.23572C7.29229 8.84595 7.29229 9.83525 7.90252 10.4454L14.5317 17.0745C15.1418 17.6847 16.1311 17.6847 16.7413 17.0745Z" fill="#FF7B44"/>
<path d="M38.8621 13.3382L31.1481 32.4925C30.987 32.8928 30.5318 33.0866 30.1316 32.9254L19.5511 28.6643C19.1509 28.5031 18.9571 28.0479 19.1183 27.6477L27.7571 6.19692C27.9183 5.79669 28.3734 5.60286 28.7737 5.76403L36.6666 8.94278C37.5692 10.3006 38.3099 11.7748 38.8621 13.3382Z" fill="#FDAD8C"/>
<path d="M32.102 29.692L18.207 27.5279C17.7807 27.4615 17.4889 27.062 17.5553 26.6357L21.1141 3.78614C21.1806 3.35981 21.58 3.06801 22.0063 3.13442L35.9013 5.29856C36.3277 5.36497 36.6195 5.76442 36.5531 6.19075L32.9942 29.0403C32.9278 29.4667 32.5284 29.7584 32.102 29.692Z" fill="#FDAD8C"/>
<path d="M32.1019 29.6919L20.8315 27.9365C20.4052 27.8701 20.1134 27.4707 20.1798 27.0444L23.7387 4.19483C23.8051 3.7685 24.2045 3.4767 24.6308 3.54311L35.9012 5.2985C36.3276 5.36491 36.6194 5.76436 36.553 6.19069L32.9941 29.0402C32.9277 29.4666 32.5283 29.7583 32.1019 29.6919Z" fill="#FFCCB3"/>
<path d="M24.3715 5.71667C24.2719 6.3562 23.6727 6.79386 23.0332 6.69425C22.3937 6.59464 21.956 5.9955 22.0556 5.35597C22.1552 4.71643 22.7544 4.27878 23.3939 4.37839C24.0334 4.47808 24.4711 5.07722 24.3715 5.71667ZM31.0751 26.1322C30.4356 26.0326 29.8364 26.4703 29.7368 27.1098C29.6372 27.7493 30.0749 28.3485 30.7144 28.4481C31.3539 28.5477 31.9531 28.11 32.0527 27.4705C32.1523 26.831 31.7146 26.2318 31.0751 26.1322Z" fill="#FA7A48"/>
<path d="M30.5958 19.328C29.6016 20.0542 28.2069 19.8371 27.4806 18.8428L27.0073 18.1949L28.3667 21.2007C28.3873 21.2464 28.3789 21.2999 28.3454 21.3371C28.296 21.3919 28.2221 21.4182 28.1492 21.4067L24.45 20.8306C24.3779 20.8193 24.3162 20.773 24.2854 20.7069L24.2849 20.7059C24.2632 20.6595 24.2718 20.6046 24.3065 20.567L26.5768 18.1104L25.9093 18.5981C24.915 19.3243 23.5203 19.1071 22.794 18.1129C22.0678 17.1187 22.285 15.724 23.2793 14.9977L27.6615 11.7966C27.7312 11.7457 27.8289 11.7609 27.8799 11.8306L31.0811 16.2128C31.8073 17.207 31.59 18.6017 30.5958 19.328Z" fill="#FA7A48"/>
<path d="M24.4806 26.9809C24.4806 33.5198 19.1799 38.8206 12.641 38.8206C6.10205 38.8206 0.80127 33.5198 0.80127 26.9809C0.80127 20.442 6.10205 15.1412 12.641 15.1412C19.1799 15.1412 24.4806 20.442 24.4806 26.9809Z" fill="#FBA07A"/>
<path d="M13.4081 38.7951C13.1543 38.8113 12.8986 38.8205 12.6407 38.8205C6.10181 38.8205 0.801025 33.5197 0.801025 26.9808C0.801025 20.4419 6.10181 15.1411 12.6407 15.1411C12.8986 15.1411 13.1543 15.1503 13.4081 15.1665C7.22704 15.5622 2.33587 20.6999 2.33587 26.9809C2.33587 33.2619 7.22704 38.3996 13.4081 38.7951Z" fill="#FA7A48"/>
<path d="M23.7692 28.8075H17.0507L21.8014 33.5582C21.4572 34.0536 21.0656 34.5249 20.6253 34.9652C20.185 35.4055 19.7137 35.7971 19.2183 36.1413L14.4676 31.3906V38.1092C13.8738 38.2161 13.2637 38.2725 12.641 38.2725C12.0183 38.2725 11.4081 38.2161 10.8144 38.1092V31.3906L6.06358 36.1414C5.56819 35.7972 5.09687 35.4056 4.65655 34.9653C4.21624 34.525 3.82468 34.0537 3.48038 33.5583L8.23108 28.8076H1.51265C1.40577 28.2138 1.34937 27.6038 1.34937 26.981C1.34937 26.3583 1.40577 25.7481 1.51265 25.1545H8.23124L3.48054 20.4038C3.82476 19.9084 4.21632 19.437 4.65671 18.9967C5.09702 18.5564 5.56835 18.1648 6.06374 17.8206L10.8144 22.5713V15.8527C11.4082 15.7459 12.0183 15.6895 12.641 15.6895C13.2637 15.6895 13.8739 15.7458 14.4676 15.8527V22.5713L19.2183 17.8206C19.7137 18.1648 20.185 18.5564 20.6253 18.9967C21.0656 19.437 21.4572 19.9084 21.8014 20.4038L17.0507 25.1545H23.7692C23.8761 25.7482 23.9325 26.3583 23.9325 26.981C23.9325 27.6038 23.8761 28.2137 23.7692 28.8075Z" fill="#FFF5F5"/>
<path d="M20.6604 26.981C20.6604 31.41 17.0699 35.0005 12.6409 35.0005C8.21181 35.0005 4.62134 31.41 4.62134 26.981C4.62134 22.5519 8.21181 18.9614 12.6409 18.9614C17.0699 18.9614 20.6604 22.5519 20.6604 26.981Z" fill="#FA7A48"/>
<path d="M8.68797 24.2473V29.7146C8.68797 29.8242 8.59914 29.913 8.48961 29.913H7.58313C7.47359 29.913 7.38477 29.8242 7.38477 29.7146V24.2473C7.38477 24.1378 7.47359 24.0489 7.58313 24.0489H8.48953C8.59914 24.0489 8.68797 24.1378 8.68797 24.2473ZM13.2923 25.971V27.9909C13.2923 29.0704 12.4172 29.9456 11.3377 29.9456C10.2581 29.9456 9.38297 29.0704 9.38297 27.9909V25.971C9.38297 24.8915 10.2581 24.0164 11.3377 24.0164C12.4172 24.0164 13.2923 24.8915 13.2923 25.971ZM11.9892 25.971C11.9892 25.6112 11.6975 25.3195 11.3377 25.3195C10.9778 25.3195 10.6861 25.6112 10.6861 25.971V27.9909C10.6861 28.3507 10.9778 28.6425 11.3377 28.6425C11.6975 28.6425 11.9892 28.3507 11.9892 27.9909V25.971ZM17.8967 25.971V27.9909C17.8967 29.0704 17.0216 29.9456 15.942 29.9456C14.8625 29.9456 13.9873 29.0704 13.9873 27.9909V25.971C13.9873 24.8915 14.8625 24.0164 15.942 24.0164C17.0216 24.0164 17.8967 24.8915 17.8967 25.971ZM16.5936 25.971C16.5936 25.6112 16.3019 25.3195 15.942 25.3195C15.5822 25.3195 15.2905 25.6112 15.2905 25.971V27.9909C15.2905 28.3507 15.5822 28.6425 15.942 28.6425C16.3019 28.6425 16.5936 28.3507 16.5936 27.9909V25.971Z" fill="#FFF5F5"/>
</g>
<defs>
<clipPath id="clip0_1_940">
<rect width="40" height="40" fill="white"/>
</clipPath>
</defs>
</svg>
