<svg width="40" height="40" viewBox="0 0 40 40" fill="none" xmlns="http://www.w3.org/2000/svg">
<path d="M35.8979 10.9441V37.6443C35.8979 38.9449 34.8436 40 33.5422 40H6.45886C5.15745 40 4.10229 38.9449 4.10229 37.6443V10.9441C4.10229 9.64346 5.15745 8.58838 6.45886 8.58838H33.5421C34.8435 8.58838 35.8979 9.64346 35.8979 10.9441Z" fill="#FA7A48"/>
<path d="M35.8979 2.3557V10.9441H4.10229V2.3557C4.10229 1.05516 5.15745 0 6.45886 0H33.5421C34.8435 0 35.8979 1.05516 35.8979 2.3557Z" fill="#FFCCB3"/>
<path d="M31.8951 9.03065C30.2576 9.03065 28.9255 7.69854 28.9255 6.06104C28.9255 4.42354 30.2576 3.09143 31.8951 3.09143C32.4901 3.09143 33.0644 3.2669 33.5559 3.59893C33.8321 3.78557 33.9048 4.16081 33.7181 4.43706C33.5316 4.71331 33.1562 4.78588 32.8801 4.59932C32.589 4.4026 32.2484 4.2987 31.8951 4.2987C30.9234 4.2987 30.1328 5.08924 30.1328 6.06104C30.1328 7.03284 30.9234 7.82338 31.8951 7.82338C32.2542 7.82338 32.5561 7.71674 32.7923 7.50643C32.8384 7.46542 32.8823 7.41995 32.923 7.37135C33.1372 7.11588 33.518 7.08237 33.7733 7.29651C34.0289 7.51065 34.0624 7.89135 33.8483 8.1469C33.7701 8.2401 33.6849 8.32792 33.5952 8.40799C33.1376 8.81534 32.5498 9.03065 31.8951 9.03065Z" fill="#FA7A48"/>
<path d="M8.78496 9.03065C7.14754 9.03065 5.81543 7.69854 5.81543 6.06104C5.81543 4.42354 7.14754 3.09143 8.78496 3.09143C9.38004 3.09143 9.95426 3.2669 10.4457 3.59893C10.722 3.78557 10.7946 4.16081 10.608 4.43706C10.4214 4.71331 10.0462 4.78588 9.76996 4.59932C9.47887 4.4026 9.13816 4.2987 8.78496 4.2987C7.81316 4.2987 7.0227 5.08924 7.0227 6.06104C7.0227 7.03284 7.81324 7.82338 8.78496 7.82338C9.1441 7.82338 9.4459 7.71674 9.68199 7.50651C9.72809 7.46549 9.77215 7.42002 9.81316 7.37112C10.0275 7.11573 10.4082 7.08245 10.6636 7.29674C10.9189 7.51104 10.9521 7.89182 10.7379 8.14713C10.6593 8.24073 10.5742 8.32854 10.4848 8.40815C10.0275 8.81534 9.43973 9.03065 8.78496 9.03065Z" fill="#FA7A48"/>
<path d="M14.2513 9.03065C12.6138 9.03065 11.2817 7.69854 11.2817 6.06104C11.2817 4.42354 12.6138 3.09143 14.2513 3.09143C15.8888 3.09143 17.2209 4.42354 17.2209 6.06104C17.2209 7.69854 15.8888 9.03065 14.2513 9.03065ZM14.2513 4.2987C13.2795 4.2987 12.489 5.08924 12.489 6.06104C12.489 7.03284 13.2796 7.82338 14.2513 7.82338C15.2231 7.82338 16.0136 7.03284 16.0136 6.06104C16.0136 5.08924 15.2231 4.2987 14.2513 4.2987Z" fill="#FA7A48"/>
<path d="M24.883 3.72059C24.5291 3.35036 24.0273 3.16254 23.3919 3.16254C22.7476 3.16254 22.213 3.38622 21.8298 3.78356C21.4894 3.35434 20.9922 3.13809 20.3404 3.13809C19.9151 3.13809 19.5298 3.25192 19.2013 3.45934C19.1168 3.22801 18.8955 3.06262 18.6348 3.06262C18.3014 3.06262 18.0312 3.33286 18.0312 3.66622V8.427C18.0312 8.76036 18.3015 9.03059 18.6348 9.03059C18.9682 9.03059 19.2384 8.76036 19.2384 8.427C19.2384 8.427 19.2388 5.9677 19.2388 5.96504C19.2388 4.98106 19.6712 4.34528 20.3404 4.34528C20.6737 4.34528 21.1303 4.34528 21.1713 5.73684C21.1743 5.83848 21.1728 8.427 21.1728 8.427C21.1728 8.76036 21.443 9.03059 21.7764 9.03059C22.1098 9.03059 22.38 8.76036 22.38 8.427C22.38 8.427 22.3765 5.66676 22.3759 5.64926L22.3813 5.64434C22.3814 4.79856 22.7214 4.36973 23.3919 4.36973C23.8334 4.36973 23.9666 4.50895 24.0102 4.55473C24.1509 4.70192 24.31 5.06848 24.269 5.97942C24.2686 5.98848 24.2684 8.42692 24.2684 8.42692C24.2684 8.76028 24.5386 9.03051 24.872 9.03051C25.2054 9.03051 25.4755 8.76028 25.4755 8.42692V6.02004C25.5232 4.92418 25.3348 4.19317 24.883 3.72059Z" fill="#FA7A48"/>
<path d="M27.326 9.03067C26.9926 9.03067 26.7224 8.76044 26.7224 8.42708V3.51302C26.7224 3.17966 26.9926 2.90942 27.326 2.90942C27.6594 2.90942 27.9296 3.17966 27.9296 3.51302V8.427C27.9297 8.76036 27.6594 9.03067 27.326 9.03067Z" fill="#FA7A48"/>
<path d="M27.326 2.55943C26.9926 2.55943 26.7224 2.2892 26.7224 1.95584V1.91561C26.7224 1.58225 26.9926 1.31201 27.326 1.31201C27.6594 1.31201 27.9296 1.58225 27.9296 1.91561V1.95584C27.9297 2.2892 27.6594 2.55943 27.326 2.55943Z" fill="#FA7A48"/>
<path d="M22.5713 28.9173L9.47829 32.593C8.42688 32.8882 7.33532 32.2751 7.04016 31.2238C6.74501 30.1724 7.35805 29.0808 8.40938 28.7857L21.5023 25.11C22.5538 24.8148 23.6453 25.4279 23.9405 26.4792C24.2356 27.5306 23.6226 28.6222 22.5713 28.9173Z" fill="#D2A572"/>
<path d="M17.7405 36.8674C14.6965 37.7219 11.5361 35.9471 10.6816 32.9031L9.21575 27.6816C8.36122 24.6377 10.1361 21.4773 13.18 20.6227C16.224 19.7682 19.3844 21.543 20.239 24.587L21.7048 29.8085C22.5593 32.8524 20.7845 36.0128 17.7405 36.8674Z" fill="#ECCDA0"/>
<path d="M19.104 36.2875C18.6863 36.5342 18.2308 36.7303 17.7412 36.8677C14.6968 37.7224 11.5364 35.9476 10.6818 32.9032L9.21606 27.6823C8.36137 24.638 10.1362 21.4776 13.1807 20.6229C13.6703 20.4855 14.1612 20.4159 14.6464 20.4091C12.4622 21.6963 11.3274 24.3334 12.0447 26.8883L13.5104 32.1091C14.2275 34.6639 16.5689 36.3251 19.104 36.2875Z" fill="#EAB57F"/>
<path d="M13.793 28.9374C13.5293 28.9374 13.287 28.7632 13.2122 28.4968L12.8996 27.3834C12.8094 27.0624 12.9966 26.7292 13.3176 26.6391C13.6386 26.5489 13.9717 26.7362 14.0619 27.0571L14.3744 28.1705C14.4646 28.4915 14.2775 28.8247 13.9565 28.9147C13.902 28.9301 13.847 28.9374 13.793 28.9374Z" fill="#4D5961"/>
<path d="M16.6693 28.1299C16.4055 28.1299 16.1632 27.9557 16.0884 27.6893L15.7758 26.5759C15.6857 26.255 15.8728 25.9217 16.1938 25.8316C16.5146 25.7414 16.8479 25.9286 16.9381 26.2496L17.2507 27.3629C17.3408 27.6839 17.1537 28.0171 16.8327 28.1072C16.7782 28.1226 16.7232 28.1299 16.6693 28.1299Z" fill="#4D5961"/>
<path d="M8.1529 20.867L8.63711 20.7311C10.1058 20.3187 11.6306 21.1751 12.0429 22.6437L12.0486 22.6641C12.4609 24.1328 11.6045 25.6576 10.1359 26.0699L9.65172 26.2058C8.18305 26.6182 6.65829 25.7618 6.24594 24.2932L6.24024 24.2728C5.8279 22.8041 6.6843 21.2793 8.1529 20.867Z" fill="#5E6B75"/>
<path d="M10.8188 25.7734C10.6105 25.9006 10.3816 26.0007 10.1361 26.0697L9.65231 26.2054C8.1834 26.6178 6.65833 25.7621 6.2459 24.2932L6.2402 24.2729C5.82786 22.804 6.68473 21.2795 8.15364 20.8672L8.63739 20.7314C8.88294 20.6625 9.13051 20.6288 9.37458 20.629C8.33692 21.254 7.80051 22.5152 8.14395 23.7385L8.14965 23.7588C8.49301 24.9821 9.60747 25.7798 10.8188 25.7734Z" fill="#4D5961"/>
<path d="M11.3639 21.999C11.9566 24.1101 14.1484 25.341 16.2594 24.7483C19.6931 23.7843 21.6951 20.2194 20.7311 16.7857L20.5889 16.2792L13.3115 18.3222C11.7309 18.766 10.8431 20.4421 11.3639 21.999Z" fill="#5E6B75"/>
<path d="M17.4655 24.2761C17.0876 24.4698 16.6841 24.6289 16.2594 24.7482C14.1479 25.341 11.9568 24.1105 11.3641 21.999C10.8433 20.4419 11.7314 18.7663 13.3121 18.3226L15.5223 17.702C13.9417 18.1458 13.0535 19.8214 13.5743 21.3784C14.073 23.1548 15.7034 24.3076 17.4655 24.2761Z" fill="#4D5961"/>
<path d="M18.6269 30.3561C18.2368 28.9666 17.5005 30.6723 16.111 31.0624C14.7216 31.4525 13.2052 30.3793 13.5952 31.7686C13.9852 33.158 15.4278 33.9682 16.8173 33.5782C18.2067 33.1882 19.0169 31.7455 18.6269 30.3561Z" fill="#4D5961"/>
<path d="M31.1603 13.4608H26.135C24.5665 13.4608 23.2949 14.7324 23.2949 16.3009V19.9551C23.2949 21.5236 24.5665 22.7952 26.135 22.7952H26.8835C28.1727 25.1567 27.2266 27.2681 27.2266 27.2681C30.3607 26.4711 30.268 24.1771 29.8905 22.7952H31.1602C32.7287 22.7952 34.0003 21.5236 34.0003 19.9551V16.3009C34.0004 14.7324 32.7288 13.4608 31.1603 13.4608Z" fill="#F7F9F9"/>
<path d="M31.723 17.3803H26.1561C25.8226 17.3803 25.5525 17.11 25.5525 16.7767C25.5525 16.4433 25.8227 16.1731 26.1561 16.1731H31.723C32.0564 16.1731 32.3266 16.4433 32.3266 16.7767C32.3266 17.11 32.0564 17.3803 31.723 17.3803Z" fill="#5986CB"/>
<path d="M29.5818 19.9496H26.1561C25.8226 19.9496 25.5525 19.6794 25.5525 19.346C25.5525 19.0127 25.8227 18.7424 26.1561 18.7424H29.5818C29.9152 18.7424 30.1854 19.0127 30.1854 19.346C30.1854 19.6794 29.9151 19.9496 29.5818 19.9496Z" fill="#5986CB"/>
<path d="M29.5159 37.8006C31.7996 37.8006 33.6509 35.9493 33.6509 33.6656C33.6509 31.3819 31.7996 29.5306 29.5159 29.5306C27.2322 29.5306 25.3809 31.3819 25.3809 33.6656C25.3809 35.9493 27.2322 37.8006 29.5159 37.8006Z" fill="#5986CB"/>
<path d="M29.3991 34.7759C29.3539 34.7759 29.308 34.7708 29.2621 34.7602C28.9373 34.6849 28.7352 34.3606 28.8104 34.0358L29.4088 31.4547C29.4842 31.1299 29.8087 30.9276 30.1333 31.0029C30.458 31.0783 30.6602 31.4026 30.585 31.7273L29.9866 34.3085C29.9219 34.5874 29.6736 34.7759 29.3991 34.7759Z" fill="#FFCCB3"/>
<path d="M29.0352 36.3456C28.9898 36.3456 28.9439 36.3405 28.8978 36.3297C28.5731 36.2542 28.3713 35.9297 28.4467 35.605L28.4559 35.5659C28.5314 35.2412 28.8557 35.039 29.1806 35.1148C29.5053 35.1904 29.7072 35.5148 29.6317 35.8395L29.6226 35.8786C29.5577 36.1573 29.3095 36.3456 29.0352 36.3456Z" fill="#FFCCB3"/>
</svg>
