<svg width="40" height="40" viewBox="0 0 40 40" fill="none" xmlns="http://www.w3.org/2000/svg">
<g clip-path="url(#clip0_1_1388)">
<path d="M40 20C40 31.0457 31.0457 40 20 40C8.9543 40 0 31.0457 0 20C0 8.9543 8.9543 0 20 0C31.0457 0 40 8.9543 40 20Z" fill="#FDAD8C"/>
<path d="M35.1562 14.4531V23.8281C35.1562 24.4753 34.6316 25 33.9844 25H24.6094C23.9622 25 23.4375 24.4753 23.4375 23.8281V14.4531C23.4375 13.8059 23.9622 13.2812 24.6094 13.2812H33.9844C34.6316 13.2812 35.1562 13.8059 35.1562 14.4531ZM12.5 18.3594V8.98438C12.5 8.33719 11.9753 7.8125 11.3281 7.8125H4.14109C2.63523 9.76906 1.48336 12.0123 0.78125 14.4461V18.3594C0.78125 19.0066 1.30594 19.5312 1.95312 19.5312H11.3281C11.9753 19.5312 12.5 19.0066 12.5 18.3594ZM14.4531 21.0938H5.07812C4.43094 21.0938 3.90625 21.6184 3.90625 22.2656V31.6406C3.90625 31.7377 3.91805 31.8319 3.94031 31.922C4.13086 32.1783 4.32742 32.4298 4.52977 32.6765C4.69336 32.7633 4.88 32.8125 5.07812 32.8125H14.4531C15.1003 32.8125 15.625 32.2878 15.625 31.6406V22.2656C15.625 21.6184 15.1003 21.0938 14.4531 21.0938Z" fill="#FA7A48"/>
<path d="M26.25 39.4141H13.75C12.4555 39.4141 11.4062 38.3648 11.4062 37.0703V8.16406C11.4062 6.86961 12.4555 5.82031 13.75 5.82031H26.25C27.5445 5.82031 28.5938 6.86961 28.5938 8.16406V37.0703C28.5938 38.3648 27.5445 39.4141 26.25 39.4141Z" fill="#60C8DD"/>
<path d="M16.8617 39.4141H13.75C12.4555 39.4141 11.4062 38.3648 11.4062 37.0703V8.16406C11.4062 6.86961 12.4555 5.82031 13.75 5.82031H16.8617C15.5673 5.82031 14.518 6.86961 14.518 8.16406V37.0703C14.518 38.3648 15.5673 39.4141 16.8617 39.4141Z" fill="#2CB3CD"/>
<path d="M17.8154 29.5151H14.386C13.9545 29.5151 13.6047 29.1653 13.6047 28.7338V25.3045C13.6047 24.873 13.9545 24.5232 14.386 24.5232H17.8154C18.2468 24.5232 18.5966 24.873 18.5966 25.3045V28.7338C18.5966 29.1652 18.2468 29.5151 17.8154 29.5151ZM25 28.7338V25.3045C25 24.873 24.6503 24.5232 24.2188 24.5232H20.7894C20.3579 24.5232 20.0082 24.873 20.0082 25.3045V28.7338C20.0082 29.1653 20.3579 29.5151 20.7894 29.5151H24.2188C24.6503 29.5151 25 29.1652 25 28.7338ZM18.5966 35.4606V32.0312C18.5966 31.5998 18.2468 31.25 17.8154 31.25H14.386C13.9545 31.25 13.6047 31.5998 13.6047 32.0312V35.4606C13.6047 35.8921 13.9545 36.2419 14.386 36.2419H17.8154C18.2468 36.2419 18.5966 35.8921 18.5966 35.4606ZM25 35.4606V32.0312C25 31.5998 24.6503 31.25 24.2188 31.25H20.7894C20.3579 31.25 20.0082 31.5998 20.0082 32.0312V35.4606C20.0082 35.8921 20.3579 36.2419 20.7894 36.2419H24.2188C24.6503 36.2419 25 35.8921 25 35.4606ZM18.5966 22.1794V18.75C18.5966 18.3185 18.2468 17.9688 17.8154 17.9688H14.386C13.9545 17.9688 13.6047 18.3185 13.6047 18.75V22.1794C13.6047 22.6109 13.9545 22.9606 14.386 22.9606H17.8154C18.2468 22.9606 18.5966 22.6109 18.5966 22.1794ZM18.5966 15.9294V12.5C18.5966 12.0685 18.2468 11.7188 17.8154 11.7188H14.386C13.9545 11.7188 13.6047 12.0685 13.6047 12.5V15.9294C13.6047 16.3609 13.9545 16.7106 14.386 16.7106H17.8154C18.2468 16.7106 18.5966 16.3609 18.5966 15.9294ZM26.5626 8.59375C26.5626 8.16227 26.2128 7.8125 25.7813 7.8125H22.3519C21.9204 7.8125 21.5707 8.16227 21.5707 8.59375C21.5707 9.02523 21.9204 9.375 22.3519 9.375H25.7813C26.2128 9.375 26.5626 9.02523 26.5626 8.59375ZM25 22.1794V18.75C25 18.3185 24.6503 17.9688 24.2188 17.9688H20.7894C20.3579 17.9688 20.0082 18.3185 20.0082 18.75V22.1794C20.0082 22.6109 20.3579 22.9606 20.7894 22.9606H24.2188C24.6503 22.9606 25 22.6109 25 22.1794Z" fill="#A6E0EC"/>
<path d="M26.25 5.23438H13.75C12.1345 5.23438 10.8203 6.54859 10.8203 8.16406V37.0703C10.8203 38.6858 12.1345 40 13.75 40H26.25C27.8655 40 29.1797 38.6858 29.1797 37.0703V8.16406C29.1797 6.54859 27.8655 5.23438 26.25 5.23438ZM28.0078 37.0703C28.0078 38.0395 27.2192 38.8281 26.25 38.8281H13.75C12.7808 38.8281 11.9922 38.0395 11.9922 37.0703V8.16406C11.9922 7.19484 12.7808 6.40625 13.75 6.40625H26.25C27.2192 6.40625 28.0078 7.19484 28.0078 8.16406V37.0703Z" fill="#0A3575"/>
<path d="M7.03125 16.3672H4.25781C3.61062 16.3672 3.08594 15.8425 3.08594 15.1953V3.47656C3.08594 2.82937 3.61062 2.30469 4.25781 2.30469H7.03125C7.67844 2.30469 8.20312 2.82937 8.20312 3.47656V15.1953C8.20312 15.8425 7.67844 16.3672 7.03125 16.3672Z" fill="#C2EAF2"/>
<path d="M15.9766 16.3672H6.39258C5.74539 16.3672 5.2207 15.8425 5.2207 15.1953V3.47656C5.2207 2.82937 5.74539 2.30469 6.39258 2.30469H15.9766C16.6238 2.30469 17.1485 2.82937 17.1485 3.47656V15.1953C17.1485 15.8425 16.6238 16.3672 15.9766 16.3672Z" fill="#DEF4F8"/>
<path d="M22.7627 21.875H20.7031C20.0559 21.875 19.5312 21.3503 19.5312 20.7031V11.3281C19.5312 10.6809 20.0559 10.1562 20.7031 10.1562H22.7627C23.4098 10.1562 23.9345 10.6809 23.9345 11.3281V20.7031C23.9345 21.3503 23.4098 21.875 22.7627 21.875Z" fill="#FFE1AA"/>
<path d="M30.078 21.875H22.5913C21.9441 21.875 21.4194 21.3503 21.4194 20.7031V11.3281C21.4194 10.6809 21.9441 10.1562 22.5913 10.1562H30.078C30.7252 10.1562 31.2499 10.6809 31.2499 11.3281V20.7031C31.2499 21.3503 30.7252 21.875 30.078 21.875Z" fill="#FFFAC1"/>
<path d="M16.7969 30.4688H7.42188C6.77469 30.4688 6.25 29.9441 6.25 29.2969V19.9219C6.25 19.2747 6.77469 18.75 7.42188 18.75H16.7969C17.4441 18.75 17.9688 19.2747 17.9688 19.9219V29.2969C17.9688 29.9441 17.4441 30.4688 16.7969 30.4688Z" fill="#0956C6"/>
<path d="M9.19547 30.4688H7.42188C6.77469 30.4688 6.25 29.9441 6.25 29.2969V19.9219C6.25 19.2747 6.77469 18.75 7.42188 18.75H9.19547C8.54828 18.75 8.02359 19.2747 8.02359 19.9219V29.2969C8.02359 29.9441 8.54828 30.4688 9.19547 30.4688Z" fill="#0A4499"/>
<path d="M33.2031 35.1562H23.8281C23.1809 35.1562 22.6562 34.6316 22.6562 33.9844V24.6094C22.6562 23.9622 23.1809 23.4375 23.8281 23.4375H33.2031C33.8503 23.4375 34.375 23.9622 34.375 24.6094V33.9844C34.375 34.6316 33.8503 35.1562 33.2031 35.1562Z" fill="#FB5858"/>
<path d="M25.8627 35.1562H23.8281C23.1809 35.1562 22.6562 34.6316 22.6562 33.9844V24.6094C22.6562 23.9622 23.1809 23.4375 23.8281 23.4375H25.8627C25.2155 23.4375 24.6908 23.9622 24.6908 24.6094V33.9844C24.6908 34.6316 25.2155 35.1562 25.8627 35.1562Z" fill="#F44545"/>
<path d="M12.6032 11.8219C11.2302 13.1949 9.00426 13.1949 7.63129 11.8219C6.25832 10.4489 6.25832 8.22301 7.63129 6.85004C9.00426 5.47707 11.2302 5.47707 12.6032 6.85004C13.9761 8.22301 13.9761 10.4489 12.6032 11.8219Z" fill="#0956C6"/>
<path d="M14.0234 10.5078H6.21094C5.56375 10.5078 5.03906 9.98312 5.03906 9.33594C5.03906 8.68875 5.56375 8.16406 6.21094 8.16406H14.0234C14.6706 8.16406 15.1953 8.68875 15.1953 9.33594C15.1953 9.98312 14.6706 10.5078 14.0234 10.5078Z" fill="#44BFD7"/>
<path d="M28.9062 14.7656V15.9375C28.9062 18.0948 27.1573 19.8438 25 19.8438C22.8427 19.8438 21.0938 18.0948 21.0938 15.9375H25V14.7656C25 13.687 25.8745 12.8125 26.9531 12.8125C28.0318 12.8125 28.9062 13.687 28.9062 14.7656Z" fill="#FFCC33"/>
<path d="M29.8474 15.1947C30.0762 15.4235 30.0762 15.7945 29.8474 16.0233C29.6186 16.2522 29.2475 16.2522 29.0188 16.0233L28.3559 15.3604C28.2408 15.2454 28.1836 15.0943 28.1843 14.9435C28.1836 14.7926 28.2408 14.6416 28.3559 14.5265L29.0188 13.8636C29.2476 13.6348 29.6186 13.6348 29.8474 13.8636C30.0762 14.0925 30.0762 14.4635 29.8474 14.6923L29.5961 14.9436L29.8474 15.1947Z" fill="#FB5858"/>
<path d="M26.9849 26.4566L30.9514 29.0964C31.0945 29.1917 31.0945 29.402 30.9514 29.4973L26.9849 32.1371C26.8249 32.2436 26.6108 32.1289 26.6108 31.9366V26.657C26.6108 26.4648 26.8249 26.3501 26.9849 26.4566ZM15.625 22.6562V25C15.625 25.4315 15.2752 25.7812 14.8438 25.7812H13.9844V27.8393C13.9844 28.1177 13.6477 28.2571 13.4509 28.0602L11.1719 25.7812H9.375C8.94352 25.7812 8.59375 25.4315 8.59375 25V22.6562C8.59375 22.2248 8.94352 21.875 9.375 21.875H14.8438C15.2752 21.875 15.625 22.2248 15.625 22.6562Z" fill="white"/>
</g>
<defs>
<clipPath id="clip0_1_1388">
<rect width="40" height="40" fill="white"/>
</clipPath>
</defs>
</svg>
