<svg width="40" height="40" viewBox="0 0 40 40" fill="none" xmlns="http://www.w3.org/2000/svg">
<path d="M34.6666 27.3333C34.6666 34 29.8533 39.3333 20.3266 39.3333C10.5466 39.3333 5.33325 34.6133 5.33325 27.1926C5.33325 15.7193 18.3733 15.046 18.3733 5.59997C18.3801 4.17404 18.1318 2.75839 17.6399 1.41997C17.5987 1.32004 17.5884 1.21004 17.6103 1.10418C17.6322 0.998324 17.6853 0.901463 17.7628 0.826107C17.8403 0.750752 17.9387 0.700361 18.0451 0.681441C18.1515 0.662521 18.2612 0.675942 18.3599 0.719969C20.4266 1.69997 24.2399 4.23997 24.2399 9.6533C24.2399 13.334 23.1533 15.514 22.3399 17.4473C22.199 17.7685 22.1391 18.1193 22.1656 18.469C22.1921 18.8187 22.304 19.1566 22.4917 19.4529C22.6793 19.7491 22.9369 19.9948 23.2417 20.1682C23.5466 20.3416 23.8894 20.4374 24.2399 20.4473C24.7986 20.4347 25.3294 20.2008 25.7156 19.797C26.1019 19.3933 26.3121 18.8526 26.2999 18.294V18.1806C26.1733 15.4673 26.8266 11.6533 30.4799 9.99997C30.5715 9.9639 30.6712 9.95332 30.7684 9.96934C30.8655 9.98536 30.9566 10.0274 31.0317 10.091C31.1069 10.1545 31.1635 10.2373 31.1955 10.3304C31.2274 10.4236 31.2336 10.5236 31.2133 10.62C29.8466 18.326 34.6666 20 34.6666 27.3333Z" fill="#F17544"/>
<path d="M27.3334 28.05C27.3334 33.3 20.0001 36 20.0001 36C20.0001 36 12.6668 33.3 12.6668 28.05C12.6608 27.524 12.7585 27.002 12.9542 26.5138C13.15 26.0256 13.4401 25.5808 13.8078 25.2047C14.1755 24.8286 14.6138 24.5286 15.0974 24.3219C15.5811 24.1152 16.1008 24.0058 16.6268 24C17.3074 24.0026 17.9759 24.1814 18.567 24.5189C19.1581 24.8564 19.6518 25.3412 20.0001 25.926C20.3484 25.3412 20.8421 24.8564 21.4332 24.5189C22.0243 24.1814 22.6927 24.0026 23.3734 24C23.8994 24.0058 24.4191 24.1152 24.9027 24.3219C25.3864 24.5286 25.8247 24.8286 26.1924 25.2047C26.5601 25.5808 26.8502 26.0256 27.0459 26.5138C27.2417 27.002 27.3394 27.524 27.3334 28.05Z" fill="white"/>
</svg>
