<svg width="40" height="40" viewBox="0 0 40 40" fill="none" xmlns="http://www.w3.org/2000/svg">
<g clip-path="url(#clip0_1_1409)">
<path d="M20.0001 40C31.0156 40 40 31.0155 40 19.9999C40 8.98438 31.0156 0 20.0001 0C8.98438 0 0 8.98438 0 19.9999C0 31.0155 8.98438 40 20.0001 40Z" fill="#FFB393"/>
<path d="M13.6903 11.3805H31.1508L35.113 28.8701L33.662 28.8774L33.6274 35.0524L35.1229 35.0602L35.1133 36.092H11.5103C9.27651 35.9186 9.47565 31.9481 9.3562 30.8851L11.3448 13.1064C11.3526 12.3162 12.1745 11.3807 13.6905 11.3807L13.6903 11.3805Z" fill="#FA7A48"/>
<path d="M13.6901 11.3805H15.3624L13.8402 36.0917H11.5097C8.77234 35.7815 8.66804 31.4277 9.55679 29.0879L11.3441 13.1059C11.3519 12.3159 12.1741 11.3802 13.6898 11.3802L13.6901 11.3805Z" fill="#FDAD8C"/>
<path d="M11.8138 28.868H34.6601C33.6234 30.9861 33.6502 33.0748 34.6601 35.1359H11.8138C9.36297 35.136 9.36336 28.868 11.8138 28.868Z" fill="white"/>
<path d="M10.1525 30.5913H34.0486C34.0347 30.654 34.0217 30.7167 34.0098 30.7794H10.1068C10.121 30.7159 10.1359 30.653 10.1525 30.5913ZM33.9369 31.2508C33.9293 31.3135 33.923 31.3762 33.9175 31.4389H10.0025C10.0082 31.3758 10.0158 31.313 10.0238 31.2508H33.9369ZM33.8934 31.9102C33.8926 31.973 33.8926 32.0356 33.8934 32.0983H9.97708C9.97606 32.0356 9.97606 31.973 9.97708 31.9102H33.8934ZM33.9179 32.5692C33.9234 32.6321 33.93 32.6948 33.9373 32.7576H10.0244C10.0162 32.6951 10.009 32.6323 10.0029 32.5692H33.9179ZM34.0103 33.2287C34.0224 33.2914 34.0353 33.354 34.0492 33.4168H10.1537C10.1372 33.3549 10.1219 33.2922 10.1076 33.2287H34.0104H34.0103ZM34.1705 33.8881C34.189 33.9508 34.2084 34.0135 34.2287 34.0762H10.3951C10.3658 34.0154 10.3378 33.9525 10.3115 33.8881H34.1703H34.1705ZM34.3988 34.5475C34.4238 34.61 34.4496 34.6729 34.4765 34.7356H10.8558C10.796 34.678 10.7394 34.6151 10.6858 34.5475H34.3986H34.3988Z" fill="#ECF0F1"/>
<path d="M18.7637 32.0796H22.3338V39.9996L20.534 37.4159L18.7639 39.9996V32.0796H18.7637Z" fill="#FF5B61"/>
<path d="M7.73066 22.4626L31.9341 13.8047C34.6452 13.5799 35.4571 19.0951 33.679 19.6156L10.032 28.4908C8.68894 28.9967 7.37582 26.8372 7.25878 24.72C7.19652 23.5954 7.50246 23.6293 8.78339 23.1275L7.73074 22.4628L7.73066 22.4626Z" fill="white"/>
<path d="M34.4398 18.7909C34.2856 19.2081 34.0342 19.5116 33.6789 19.6157L10.0319 28.4908C9.62063 28.6457 9.2122 28.5504 8.84009 28.2832C9.51103 28.3504 9.87782 28.2613 10.5161 27.6593L34.4398 18.7909Z" fill="#ECF0F1"/>
<path d="M23.615 16.7831C25.4126 17.0421 26.6967 21.31 25.7985 22.5736L22.5304 23.8C23.1232 21.7984 21.8314 18.4625 20.0359 18.0645L23.615 16.7831Z" fill="#FFBA1B"/>
<path d="M29.4047 25.4198L25.7983 22.5735L22.5303 23.8L25.2592 26.9715L26.5199 25.0873L29.4047 25.4198Z" fill="#F5A209"/>
<path d="M8.62542 23.1933L8.78339 23.1273C9.77175 23.3276 11.505 26.8694 9.60573 27.6557C8.25472 28.2147 7.62558 25.2845 7.6748 24.313C8.25394 23.898 8.87909 25.6481 8.67894 25.6879L8.27792 25.7672C8.27792 25.7672 8.29019 26.5332 8.67894 26.586L10.2302 26.084C10.2302 26.084 10.1042 23.8258 8.62565 23.1933H8.62542Z" fill="#ECF0F1"/>
<path d="M14.2044 30.1822H32.6051H33.6543H34.1516C34.2754 29.7469 34.4438 29.3105 34.6582 28.8723C34.6588 28.8709 34.6595 28.8694 34.6602 28.868H33.027H14.2852H11.8136C9.54594 28.868 9.37649 34.2358 11.3058 35.0366C10.6525 33.188 11.1745 30.1822 12.8716 30.1822H14.2041H14.2044Z" fill="#ECF0F1"/>
<path d="M21.8148 10.6385L22.0113 14.0718C20.8949 15.9641 17.3313 17.3686 13.8226 17.3329C10.4789 17.2991 7.18027 15.9118 6.27332 14.1646L6.25488 10.8009L13.7255 12.8632L21.8148 10.6388V10.6385Z" fill="#579DFC"/>
<path d="M1.646 9.44394L13.7253 5.36316L25.8047 9.44394L13.7253 13.5246L1.646 9.44394Z" fill="#2F80ED"/>
<path d="M5.93957 17.7978L5.38652 21.3393C5.37769 21.3968 5.57215 21.4751 5.66504 21.3597C5.78699 21.5058 5.94863 21.446 5.99699 21.345C6.05824 21.4452 6.20254 21.5005 6.30722 21.3509C6.40004 21.4663 6.60746 21.386 6.5923 21.2892L6.04269 17.7945C6.02879 17.7425 5.94699 17.7513 5.9398 17.7975L5.93957 17.7978Z" fill="#FF5B61"/>
<path d="M13.8074 8.41044C13.8804 8.38872 13.9574 8.43013 13.9791 8.50325C14.0008 8.57622 13.9594 8.65325 13.8863 8.67497L6.11731 11.0108V17.7855C6.11731 17.8618 6.05544 17.9236 5.97919 17.9236C5.90294 17.9236 5.84106 17.8618 5.84106 17.7855V10.9082C5.84106 10.8487 5.87981 10.7938 5.93966 10.776L13.8072 8.41036L13.8074 8.41044Z" fill="white"/>
<path d="M5.98953 18.2482C6.29141 18.2482 6.53773 18.0019 6.53773 17.6999C6.53773 17.3978 6.29141 17.1517 5.98953 17.1517C5.6875 17.1517 5.44141 17.3981 5.44141 17.6999C5.44141 18.002 5.68773 18.2482 5.98953 18.2482Z" fill="white"/>
<path d="M6.43422 17.5603C6.43422 17.7899 6.28828 17.9849 6.08445 18.0585C6.02828 18.0785 5.96805 18.0896 5.90492 18.0896C5.90141 18.0896 5.89797 18.0896 5.89469 18.0896C5.71414 18.0861 5.55578 17.9923 5.46289 17.8517C5.51805 18.0435 5.67516 18.1923 5.87187 18.2356C5.90977 18.2438 5.9493 18.2483 5.98992 18.2483C6.03172 18.2483 6.07273 18.2436 6.11203 18.2346C6.35609 18.179 6.53805 17.961 6.53805 17.6999C6.53805 17.5434 6.4725 17.4024 6.36758 17.3024C6.41 17.3786 6.43437 17.4665 6.43437 17.5602L6.43422 17.5603Z" fill="#ECF0F1"/>
</g>
<defs>
<clipPath id="clip0_1_1409">
<rect width="40" height="40" fill="white"/>
</clipPath>
</defs>
</svg>
