<svg width="40" height="40" viewBox="0 0 40 40" fill="none" xmlns="http://www.w3.org/2000/svg">
<g clip-path="url(#clip0_1_1263)">
<path d="M15.5476 27.6245H24.2318V34.4227H15.5476V27.6245Z" fill="#DAE7EF"/>
<path d="M18.5735 27.6245H24.2316V34.4227H18.5735V27.6245Z" fill="#C1D5E4"/>
<path d="M26.582 35.0074H13.1973C12.8743 35.0074 12.6125 34.7456 12.6125 34.4227C12.6125 34.0996 12.8743 33.8379 13.1973 33.8379H26.582C26.905 33.8379 27.1668 34.0997 27.1668 34.4227C27.1668 34.7456 26.905 35.0074 26.582 35.0074Z" fill="#98B9D3"/>
<path d="M1.36448 21.7837L0.584717 23.4673V27.1232C0.584717 27.9845 1.28292 28.6827 2.14417 28.6827H37.8557C38.7169 28.6827 39.4151 27.9845 39.4151 27.1232V23.4673L38.6354 21.7837H1.36448Z" fill="#DAE7EF"/>
<path d="M38.6354 21.7837H35.895V23.6031C35.895 24.4643 35.1968 25.1625 34.3355 25.1625H0.584717V27.1232C0.584717 27.9845 1.28292 28.6827 2.14417 28.6827H37.8557C38.7169 28.6827 39.4151 27.9845 39.4151 27.1232V23.4673L38.6354 21.7837Z" fill="#C1D5E4"/>
<path d="M37.8557 2.91724H2.14417C1.28292 2.91724 0.584717 3.61544 0.584717 4.47669V23.4672H39.4151V4.47669C39.4152 3.61544 38.717 2.91724 37.8557 2.91724Z" fill="#FFB393"/>
<path d="M37.8557 2.91724H35.895V23.4672H39.4152V4.47669C39.4152 3.61544 38.717 2.91724 37.8557 2.91724Z" fill="#FA7A48"/>
<path d="M37.8558 29.2675H2.14422C0.961875 29.2675 0 28.3056 0 27.1232V4.47674C0 3.29439 0.961875 2.33252 2.14422 2.33252H37.8557C39.038 2.33252 39.9999 3.29447 39.9999 4.47674V27.1232C40 28.3056 39.0381 29.2675 37.8558 29.2675ZM2.14422 3.50205C1.6068 3.50205 1.16953 3.93924 1.16953 4.47674V27.1232C1.16953 27.6606 1.60672 28.0979 2.14422 28.0979H37.8557C38.3931 28.0979 38.8304 27.6607 38.8304 27.1232V4.47674C38.8304 3.93932 38.3932 3.50205 37.8557 3.50205H2.14422Z" fill="#98B9D3"/>
<path d="M23.1883 9.59186L18.6147 6.95131C18.3022 6.77092 17.9116 6.99639 17.9116 7.35725V12.6383C17.9116 12.9992 18.3022 13.2247 18.6147 13.0443L23.1883 10.4037C23.5008 10.2233 23.5008 9.77225 23.1883 9.59186Z" fill="#FF500C"/>
<path d="M31.926 17.7326H6.0916C5.76863 17.7326 5.50684 17.4708 5.50684 17.1479C5.50684 16.8249 5.76863 16.5631 6.0916 16.5631H31.926C32.2489 16.5631 32.5107 16.8249 32.5107 17.1479C32.5107 17.4709 32.2489 17.7326 31.926 17.7326Z" fill="#407093"/>
<path d="M9.91482 18.8054C10.8302 18.8054 11.5723 18.0633 11.5723 17.1479C11.5723 16.2324 10.8302 15.4904 9.91482 15.4904C8.99941 15.4904 8.25732 16.2324 8.25732 17.1479C8.25732 18.0633 8.99941 18.8054 9.91482 18.8054Z" fill="#407093"/>
<path d="M10.543 15.6139C10.6224 15.8076 10.6665 16.0196 10.6665 16.242C10.6665 17.1574 9.92438 17.8995 9.00898 17.8995C8.78664 17.8995 8.57461 17.8555 8.38086 17.776C8.62836 18.3799 9.2218 18.8055 9.91484 18.8055C10.8302 18.8055 11.5723 18.0633 11.5723 17.148C11.5723 16.4548 11.1469 15.8614 10.543 15.6139Z" fill="#FF500C"/>
<path d="M34.6639 16.7411C34.4643 16.7203 34.2698 16.7272 34.0834 16.7583C33.9066 16.7879 33.7619 16.6185 33.812 16.4464C33.8671 16.257 33.8967 16.0567 33.8967 15.8495C33.8967 14.6688 32.9396 13.7117 31.7589 13.7117C31.7581 13.7117 31.7573 13.7117 31.7564 13.7117C31.6315 13.7118 31.5235 13.6226 31.5082 13.4986C31.3696 12.3723 30.3557 11.5169 29.1674 11.6354C28.2173 11.7301 27.4346 12.4646 27.2787 13.4066C27.2467 13.5998 27.2416 13.7888 27.2596 13.9711C27.2762 14.14 27.1263 14.2741 26.9603 14.2381C26.8135 14.2062 26.6612 14.1894 26.5049 14.1894C25.8465 14.1894 25.2577 14.487 24.8655 14.955C24.7683 15.0711 24.5856 15.0711 24.4885 14.955C24.0963 14.487 23.5074 14.1894 22.8491 14.1894C21.6684 14.1894 20.7113 15.1465 20.7113 16.3272C20.7113 16.4515 20.7225 16.5731 20.7428 16.6915C20.7323 16.6914 20.7219 16.6907 20.7113 16.6907C19.4849 16.6907 18.4996 17.7235 18.5778 18.9668C18.6444 20.0245 19.4992 20.8861 20.5564 20.9609C21.0128 20.9932 21.4411 20.8815 21.8014 20.6675C22.1339 20.8807 22.5291 21.0048 22.9534 21.0048C23.5004 21.0048 23.9992 20.7991 24.3773 20.4611C24.7496 20.7761 25.231 20.9665 25.7569 20.9665C25.9989 20.9665 26.2311 20.9257 26.448 20.8516C26.8228 21.4693 27.5017 21.8822 28.277 21.8822C29.0587 21.8822 29.7421 21.4623 30.115 20.8361C30.3446 20.9204 30.5928 20.9665 30.8517 20.9665C31.5944 20.9665 32.2484 20.5875 32.6316 20.0127C33.011 20.6089 33.6771 21.0048 34.436 21.0048C35.694 21.0048 36.6982 19.9182 36.5613 18.6324C36.456 17.6411 35.6554 16.8443 34.6639 16.7411Z" fill="#F6F9F9"/>
<path d="M36.5616 18.6323C36.456 17.6411 35.6555 16.8444 34.664 16.7411C34.4644 16.7203 34.2698 16.7272 34.0834 16.7583C33.9066 16.7879 33.762 16.6185 33.812 16.4464C33.8671 16.257 33.8967 16.0567 33.8967 15.8495C33.8967 14.6688 32.9396 13.7117 31.7589 13.7117C31.7581 13.7117 31.7573 13.7117 31.7565 13.7117C31.6316 13.7118 31.5234 13.6227 31.5082 13.4986C31.3697 12.3723 30.3557 11.5169 29.1675 11.6354C28.9113 11.6609 28.6681 11.7343 28.4453 11.8443C29.0771 12.1561 29.5327 12.7705 29.6223 13.4986C29.6375 13.6226 29.7455 13.7118 29.8705 13.7117H29.873C31.0537 13.7117 32.0108 14.6688 32.0108 15.8495C32.0108 16.0567 31.9812 16.2569 31.9261 16.4464C31.876 16.6185 32.0207 16.7879 32.1975 16.7583C32.3839 16.7272 32.5785 16.7203 32.778 16.7411C33.7695 16.8444 34.5701 17.6411 34.6756 18.6323C34.7757 19.5721 34.2659 20.4047 33.4934 20.7853C33.7778 20.9255 34.0977 21.0047 34.4363 21.0047C35.6943 21.0047 36.6984 19.9182 36.5616 18.6323Z" fill="#DAE7EF"/>
<path d="M35.5974 20.0464H34.3533L33.7548 20.3125L33.1811 20.0464H31.2563L30.6933 20.3272L30.086 20.0464H28.1586L27.5738 20.3565L26.989 20.0464H25.0615L24.4824 20.3272L23.8913 20.0464H21.9665L21.3916 20.2686L20.7943 20.0464H19.5503C18.9891 20.0464 18.5541 20.537 18.6214 21.0942L20.5221 36.8439C20.5788 37.3139 20.9776 37.6675 21.451 37.6675H21.9754L22.5635 37.3487L23.1476 37.6675H24.4913L25.0909 37.334L25.6615 37.6675H26.989L27.5737 37.3487L28.1585 37.6675H29.486L30.1093 37.3487L30.6562 37.6675H32L32.5976 37.3487L33.1722 37.6675H33.6967C34.1701 37.6675 34.5689 37.3139 34.6256 36.8439L36.5263 21.0942C36.5936 20.537 36.1586 20.0464 35.5974 20.0464Z" fill="#B35324"/>
<path d="M24.2316 17.8149C24.6459 17.8149 24.9818 17.479 24.9818 17.0647C24.9818 16.6504 24.6459 16.3146 24.2316 16.3146C23.8173 16.3146 23.4814 16.6504 23.4814 17.0647C23.4814 17.479 23.8173 17.8149 24.2316 17.8149Z" fill="#F6E266"/>
<path d="M27.3322 18.6483C27.7465 18.6483 28.0823 18.3124 28.0823 17.8981C28.0823 17.4838 27.7465 17.1479 27.3322 17.1479C26.9179 17.1479 26.582 17.4838 26.582 17.8981C26.582 18.3124 26.9179 18.6483 27.3322 18.6483Z" fill="#F6E266"/>
<path d="M35.5975 20.0464H34.3534L34.1096 20.2561L32.3789 34.5972C32.3222 35.0672 31.9234 35.4208 31.45 35.4208H20.3503L20.5221 36.844C20.5788 37.314 20.9776 37.6676 21.451 37.6676H21.9754L22.5635 37.3487L23.1476 37.6676H24.4913L25.0909 37.3341L25.6615 37.6676H26.9889L27.5737 37.3487L28.1585 37.6676H29.486L30.1093 37.3487L30.6562 37.6676H32L32.5977 37.3487L33.1723 37.6676H33.6967C34.1702 37.6676 34.5689 37.314 34.6257 36.844L36.5264 21.0943C36.5936 20.537 36.1586 20.0464 35.5975 20.0464Z" fill="#B35324"/>
<path d="M26.989 20.0463H28.1586V37.664H26.989V20.0463Z" fill="#DAE7EF"/>
<path d="M21.9753 37.6674H23.1476L21.9665 20.0464H20.7942L21.9753 37.6674Z" fill="#DAE7EF"/>
<path d="M24.4914 37.6674H25.6616L25.0616 20.0464H23.8914L24.4914 37.6674Z" fill="#DAE7EF"/>
<path d="M29.4861 37.6674H30.6564L31.2564 20.0464H30.0861L29.4861 37.6674Z" fill="#DAE7EF"/>
<path d="M32 37.6674H33.1723L34.3534 20.0464H33.1811L32 37.6674Z" fill="#DAE7EF"/>
<path d="M27.5739 31.3728C30.144 31.3728 32.2274 29.8793 32.2274 28.0369C32.2274 26.1945 30.144 24.7009 27.5739 24.7009C25.0039 24.7009 22.9204 26.1945 22.9204 28.0369C22.9204 29.8793 25.0039 31.3728 27.5739 31.3728Z" fill="#F6F9F9"/>
<path d="M27.5738 31.9575C26.2096 31.9575 24.92 31.5716 23.9426 30.8709C22.9062 30.128 22.3354 29.1215 22.3354 28.0368C22.3354 26.952 22.9062 25.9455 23.9426 25.2027C24.92 24.5019 26.2096 24.1161 27.5738 24.1161C28.938 24.1161 30.2276 24.502 31.2051 25.2027C32.2414 25.9455 32.8122 26.952 32.8122 28.0368C32.8122 29.1215 32.2414 30.128 31.2051 30.8709C30.2276 31.5716 28.938 31.9575 27.5738 31.9575ZM27.5738 25.2857C25.3303 25.2857 23.5051 26.5198 23.5051 28.0368C23.5051 29.5537 25.3303 30.7879 27.5738 30.7879C29.8173 30.7879 31.6426 29.5537 31.6426 28.0368C31.6426 26.5198 29.8173 25.2857 27.5738 25.2857Z" fill="#DAE7EF"/>
<path d="M34.1349 20.0464L32.3789 34.5972C32.3569 34.7795 32.283 34.9439 32.1736 35.0773L32 37.6675H33.1723L34.3534 20.0465H34.1349V20.0464Z" fill="#C1D5E4"/>
<path d="M29.5626 35.4207L29.4861 37.6674H30.6564L30.7329 35.4207H29.5626Z" fill="#C1D5E4"/>
<path d="M26.9893 35.4207H28.1589V37.664H26.9893V35.4207Z" fill="#C1D5E4"/>
<path d="M24.415 35.4207L24.4915 37.6674H25.6618L25.5853 35.4207H24.415Z" fill="#C1D5E4"/>
<path d="M21.825 35.4207L21.9755 37.6674H23.1478L22.9971 35.4207H21.825Z" fill="#C1D5E4"/>
</g>
<defs>
<clipPath id="clip0_1_1263">
<rect width="40" height="40" fill="white"/>
</clipPath>
</defs>
</svg>
