<svg width="40" height="40" viewBox="0 0 40 40" fill="none" xmlns="http://www.w3.org/2000/svg">
<g clip-path="url(#clip0_1_1208)">
<path d="M31.7676 40H0V10H40V31.7676L31.7676 40Z" fill="#FFA275"/>
<path d="M0 10H40V15H0V10Z" fill="#FED1BE"/>
<path d="M7.5 5H5V1.25C5 0.559692 5.55969 0 6.25 0C6.94031 0 7.5 0.559692 7.5 1.25V5Z" fill="#FFCCB3"/>
<path d="M35 5H32.5V1.25C32.5 0.559692 33.0597 0 33.75 0C34.4403 0 35 0.559692 35 1.25V5Z" fill="#FFCCB3"/>
<path d="M31.7676 31.7676V40L40 31.7676H31.7676Z" fill="#FED1BE"/>
<path d="M40 12.5H0V6.25C0 4.86938 1.11938 3.75 2.5 3.75H37.5C38.8806 3.75 40 4.86938 40 6.25V12.5Z" fill="#FF7761"/>
<path d="M26.3037 34.1226L20 30.9274L13.6963 34.1226L14.8999 27.3474L9.74121 22.5012L16.8661 21.5035L20 15.3823L23.1339 21.5035L30.2588 22.5012L25.1001 27.3474L26.3037 34.1226Z" fill="#FFC5AE"/>
<path d="M26.3037 34.1226L20 30.9274L13.6963 34.1226L14.8999 27.3474L23.1339 21.5035L30.2588 22.5012L25.1001 27.3474L26.3037 34.1226Z" fill="#F17544"/>
</g>
<defs>
<clipPath id="clip0_1_1208">
<rect width="40" height="40" fill="white"/>
</clipPath>
</defs>
</svg>
