<svg width="40" height="40" viewBox="0 0 40 40" fill="none" xmlns="http://www.w3.org/2000/svg">
<g clip-path="url(#clip0_1_977)">
<path d="M35.3322 39.1991L25.6648 29.5316L29.5317 25.6647L39.1992 35.3322C40.2671 36.4 40.2671 38.1313 39.1992 39.1991C38.1314 40.2669 36.4001 40.2669 35.3322 39.1991Z" fill="#FDAD8C"/>
<path d="M35.3322 39.1992L25.6648 29.5317L27.5983 27.5981L39.1992 39.1991C38.1314 40.267 36.4001 40.267 35.3322 39.1992Z" fill="#FF936B"/>
<path d="M0.434063 10.3443C0.159453 10.1218 0 9.78727 0 9.43383V1.17188C0 0.524687 0.524688 0 1.17188 0H9.43383C9.78719 0 10.1217 0.159453 10.3443 0.434063L29.5631 24.1486L24.1484 29.5632L0.434063 10.3443Z" fill="#FA7A48"/>
<path d="M24.1485 29.5632L0.434062 10.3444C0.159453 10.1219 0 9.78732 0 9.43389V1.17193C0 0.84834 0.131172 0.555371 0.343203 0.343262L26.8558 26.8558L24.1485 29.5632Z" fill="#FFA27D"/>
<path d="M26.031 27.6884L27.6883 26.0311L10.2869 8.62974C9.82923 8.17208 9.08728 8.17208 8.62962 8.62974C8.17196 9.0874 8.17196 9.82935 8.62962 10.287L26.031 27.6884Z" fill="#FDAD8C"/>
<path d="M26.031 27.6883L8.62962 10.2869C8.17196 9.82925 8.17196 9.08729 8.62962 8.62964L26.8597 26.8597L26.031 27.6883Z" fill="#FA7A48"/>
<path d="M22.9928 29.6219L29.6219 22.9928C30.6897 21.9249 32.421 21.9249 33.4888 22.9928L34.0413 23.5452C34.4989 24.0028 34.4989 24.7448 34.0413 25.2024L25.2024 34.0413C24.7448 34.499 24.0028 34.499 23.5452 34.0413L22.9928 33.4889C21.9249 32.421 21.9249 30.6898 22.9928 29.6219Z" fill="#FFA47D"/>
<path d="M25.2024 34.0414C24.7448 34.499 24.0028 34.499 23.5452 34.0414L22.9928 33.4889C21.9249 32.4211 21.9249 30.6898 22.9928 29.622L26.3074 26.3074L29.6219 29.622L25.2024 34.0414Z" fill="#FF7E48"/>
<path d="M22.172 4.65233C22.1044 4.65233 22.036 4.64647 21.9671 4.63436C21.3297 4.52193 20.9042 3.91412 21.0165 3.2767L21.4236 0.968575C21.5359 0.331232 22.1436 -0.0944714 22.7812 0.0180286C23.4186 0.13045 23.8441 0.738263 23.7318 1.37568L23.3247 3.68381C23.2244 4.25225 22.7299 4.65233 22.172 4.65233Z" fill="#FDAD8C"/>
<path d="M17.8281 4.65238C17.27 4.65238 16.7757 4.25231 16.6754 3.68379L16.2685 1.37566C16.1561 0.738321 16.5817 0.130508 17.219 0.0180865C17.856 -0.0946479 18.4642 0.331368 18.5766 0.968711L18.9836 3.27684C19.0959 3.91418 18.6704 4.52199 18.033 4.63441C17.9641 4.64652 17.8956 4.65238 17.8281 4.65238Z" fill="#FDAD8C"/>
<path d="M0.800859 39.1991C-0.266953 38.1313 -0.266953 36.4 0.800859 35.3322L10.4684 25.6647L14.3353 29.5316L4.66789 39.1991C3.6 40.2669 1.86875 40.2669 0.800859 39.1991Z" fill="#FDAD8C"/>
<path d="M4.66781 39.1992L14.3353 29.5317L12.4018 27.5981L0.800781 39.1992C1.86867 40.267 3.59992 40.267 4.66781 39.1992Z" fill="#FF936B"/>
<path d="M15.8515 29.5631L10.4368 24.1485L29.6557 0.434063C29.8782 0.159453 30.2127 0 30.5661 0H38.8281C39.4753 0 40 0.524688 40 1.17188V9.43383C40 9.78719 39.8405 10.1217 39.5659 10.3443L15.8515 29.5631Z" fill="#FDAD8C"/>
<path d="M15.8514 29.5632L39.5658 10.3444C39.8404 10.1219 39.9999 9.78732 39.9999 9.43389V1.17193C39.9999 0.84834 39.8687 0.555371 39.6567 0.343262L13.144 26.8559L15.8514 29.5632Z" fill="#FA7A48"/>
<path d="M13.9688 27.6884L12.3115 26.0311L29.7129 8.62974C30.1706 8.17208 30.9125 8.17208 31.3702 8.62974C31.8279 9.0874 31.8279 9.82935 31.3702 10.287L13.9688 27.6884Z" fill="#FFBEA3"/>
<path d="M13.9688 27.6883L31.3702 10.2869C31.8279 9.82925 31.8279 9.08729 31.3702 8.62964L13.1401 26.8597L13.9688 27.6883Z" fill="#FA7A48"/>
<path d="M17.0072 29.6219L10.3781 22.9928C9.31028 21.9249 7.57895 21.9249 6.51114 22.9928L5.95872 23.5452C5.50106 24.0028 5.50106 24.7448 5.95872 25.2024L14.7975 34.0413C15.2552 34.4989 15.9972 34.4989 16.4548 34.0413L17.0072 33.4888C18.075 32.421 18.075 30.6898 17.0072 29.6219Z" fill="#FFA47D"/>
<path d="M14.7976 34.0414C15.2553 34.499 15.9972 34.499 16.4549 34.0414L17.0073 33.4889C18.0751 32.4211 18.0751 30.6898 17.0073 29.622L13.6927 26.3074L10.3782 29.6219L14.7976 34.0414Z" fill="#FF7E48"/>
</g>
<defs>
<clipPath id="clip0_1_977">
<rect width="40" height="40" fill="white"/>
</clipPath>
</defs>
</svg>
