<svg width="40" height="40" viewBox="0 0 40 40" fill="none" xmlns="http://www.w3.org/2000/svg">
<g clip-path="url(#clip0_1_364)">
<path d="M38.1818 25.4545H1.8182C0.818203 25.4545 0 24.6363 0 23.6363V3.63632C0 2.63632 0.818203 1.81812 1.8182 1.81812H38.1819C39.1819 1.81812 40.0001 2.63632 40.0001 3.63632V23.6363C40 24.6363 39.1818 25.4545 38.1818 25.4545Z" fill="#FFA275"/>
<path d="M33.6364 18.1818C31.5455 18.1818 29.6364 19.1818 28.5455 20.8181C27.6364 20.3636 26.6364 20 25.4546 20C22.2728 20 19.6364 22.3636 19.1819 25.4545H38.1819C39.0909 25.4545 39.8182 24.8182 40.0001 23.909C39.6364 20.7272 36.9092 18.1818 33.6364 18.1818Z" fill="#FF7761"/>
<path d="M34.5454 23.6363H5.45444C5.45444 21.6363 3.81812 19.9999 1.81812 19.9999V7.27268C3.81812 7.27268 5.45444 5.63635 5.45444 3.63635H34.5454C34.5454 5.63635 36.1817 7.27268 38.1817 7.27268V19.9999C36.1817 19.9999 34.5454 21.6363 34.5454 23.6363Z" fill="#FA7A48"/>
<path d="M33.6364 18.1819C31.5454 18.1819 29.6364 19.1819 28.5454 20.8182C27.6364 20.3638 26.6364 20.0001 25.4546 20.0001C22.9091 20.0001 20.7273 21.4546 19.7273 23.6364H34.5455C34.5455 21.6364 36.091 20.0909 38.091 20.0001C36.9091 18.9092 35.3637 18.1819 33.6364 18.1819Z" fill="#FFA275"/>
<path d="M20 21.8182C24.0167 21.8182 27.2728 18.1551 27.2728 13.6364C27.2728 9.1177 24.0167 5.45459 20 5.45459C15.9834 5.45459 12.7273 9.1177 12.7273 13.6364C12.7273 18.1551 15.9834 21.8182 20 21.8182Z" fill="#FFA275"/>
<path d="M9.09091 15.4546C10.0951 15.4546 10.9091 14.6406 10.9091 13.6364C10.9091 12.6323 10.0951 11.8182 9.09091 11.8182C8.08674 11.8182 7.27271 12.6323 7.27271 13.6364C7.27271 14.6406 8.08674 15.4546 9.09091 15.4546Z" fill="#FFA275"/>
<path d="M30.909 15.4546C31.9132 15.4546 32.7272 14.6406 32.7272 13.6364C32.7272 12.6323 31.9132 11.8182 30.909 11.8182C29.9049 11.8182 29.0908 12.6323 29.0908 13.6364C29.0908 14.6406 29.9049 15.4546 30.909 15.4546Z" fill="#FFA275"/>
<path d="M20.9092 12.7273H19.091C18.5455 12.7273 18.1819 12.3636 18.1819 11.8183C18.1819 11.2728 18.5456 10.9092 19.091 10.9092H21.8182C22.3637 10.9092 22.7273 10.5455 22.7273 10.0001C22.7273 9.45466 22.3636 9.09107 21.8182 9.09107H20.9092C20.9092 8.5456 20.5455 8.18201 20.0001 8.18201C19.4546 8.18201 19.091 8.54568 19.091 9.09107C17.5456 9.09107 16.3638 10.2729 16.3638 11.8183C16.3638 13.3638 17.5456 14.5456 19.091 14.5456H20.9092C21.4547 14.5456 21.8183 14.9093 21.8183 15.4547C21.8183 16.0001 21.4546 16.3637 20.9092 16.3637H18.182C17.6365 16.3637 17.2729 16.7274 17.2729 17.2728C17.2729 17.8183 17.6366 18.1819 18.182 18.1819H19.091C19.091 18.7273 19.4547 19.0909 20.0001 19.0909C20.5456 19.0909 20.9092 18.7272 20.9092 18.1819C22.4546 18.1819 23.6364 17.0001 23.6364 15.4546C23.6364 13.9091 22.4546 12.7273 20.9092 12.7273Z" fill="#FED1BE"/>
<path d="M23.6364 32.7273C27.1509 32.7273 30 29.8782 30 26.3637C30 22.8491 27.1509 20 23.6364 20C20.1218 20 17.2727 22.8491 17.2727 26.3637C17.2727 29.8782 20.1218 32.7273 23.6364 32.7273Z" fill="#FFCA5D"/>
<path d="M31.8183 30.9091C35.3328 30.9091 38.1819 28.06 38.1819 24.5454C38.1819 21.0309 35.3328 18.1818 31.8183 18.1818C28.3037 18.1818 25.4546 21.0309 25.4546 24.5454C25.4546 28.06 28.3037 30.9091 31.8183 30.9091Z" fill="#F6B545"/>
<path d="M31.8183 18.1818C28.2728 18.1818 25.4546 21 25.4546 24.5454C25.4546 28.0909 28.2728 30.9091 31.8183 30.9091C35.3637 30.9091 38.1819 28.0909 38.1819 24.5454C38.1819 21 35.3637 18.1818 31.8183 18.1818ZM31.8183 29.0909C29.2728 29.0909 27.2728 27.0909 27.2728 24.5454C27.2728 22 29.2728 20 31.8183 20C34.3637 20 36.3637 22 36.3637 24.5454C36.3637 27.0909 34.3637 29.0909 31.8183 29.0909Z" fill="#FFCB5B"/>
<path d="M31.8181 30.8181C35.3636 30.9091 38.1818 27.9999 38.1818 24.5454H38.0908C37.6363 24.5454 37.2726 24.9091 37.1818 25.3636C37 26.6363 36.3636 27.8181 35.4545 28.6363C34.7273 29.3636 33.7273 29.8181 32.6363 29.9999C32.1817 29.9999 31.8181 30.3636 31.8181 30.8181Z" fill="#F6B545"/>
<path d="M31.8183 18.2727C28.2728 18.1818 25.4546 21.0909 25.4546 24.5454H25.5455C26.0001 24.5454 26.3637 24.1818 26.4546 23.7272C26.6364 22.4545 27.2728 21.2727 28.1819 20.4545C28.9091 19.7272 29.9091 19.2727 31.0001 19.0908C31.4546 19.0909 31.8183 18.7272 31.8183 18.2727Z" fill="#FFE27A"/>
<path d="M27.909 25.1818C27.909 22.6363 29.909 20.6363 32.4545 20.6363C33.5454 20.6363 34.5454 21 35.3636 21.7273C34.4545 20.6363 33.2727 20 31.8182 20C29.2727 20 27.2727 22 27.2727 24.5455C27.2727 26 27.909 27.1818 28.909 28C28.2727 27.2727 27.909 26.2727 27.909 25.1818Z" fill="#F19920"/>
<path d="M34.5456 27.3637C34.4546 27.3637 34.3638 27.3637 34.2728 27.2727C34.091 27.0909 34.091 26.8182 34.2728 26.6364C34.8183 26.0909 35.091 25.2727 35.091 24.5455C35.091 24.2727 35.2728 24.0909 35.5456 24.0909C35.8183 24.0909 36.0001 24.2727 36.0001 24.5455C36.0001 25.5455 35.6364 26.5455 35.0001 27.2727C34.8183 27.3637 34.6364 27.3637 34.5456 27.3637Z" fill="#FFCB5B"/>
<path d="M31.8182 27.2727C31.2728 27.2727 30.9092 26.909 30.9092 26.3636V22.7273C30.9092 22.1818 31.2729 21.8182 31.8182 21.8182C32.3636 21.8182 32.7273 22.1819 32.7273 22.7273V26.3636C32.7273 26.909 32.3637 27.2727 31.8182 27.2727Z" fill="#F19920"/>
<path d="M35.1818 29.9091C34.5455 27.6363 32.9091 25.8181 30.8181 25C30.4545 22.9091 29.0909 21.0909 27.3636 20C26.2727 21.1818 25.5454 22.7273 25.5454 24.4545C25.5454 28 28.3636 30.8182 31.9091 30.8182C33.091 30.9091 34.1818 30.5455 35.1818 29.9091Z" fill="#F19920"/>
<path d="M28.9091 28C28.2728 27.1818 27.8182 26.1818 27.8182 25.0909C27.8182 23.8182 28.3636 22.6364 29.2727 21.8182C29.0909 21.5455 28.909 21.3637 28.7272 21.1819C27.8182 22.0001 27.2727 23.1819 27.2727 24.5456C27.2728 26 27.9091 27.1818 28.9091 28Z" fill="#E78825"/>
<path d="M30.9092 25.0909V26.3637C30.9092 26.9091 31.2729 27.2727 31.8182 27.2727C32.3636 27.2727 32.7273 26.9091 32.7273 26.3637V26.1819C32.1819 25.7273 31.5456 25.3637 30.9092 25.0909Z" fill="#E78825"/>
<path d="M35.1819 29.9091C35.0001 29.2728 34.8182 28.7273 34.4546 28.1818C33.7273 28.7273 32.8183 29.0909 31.8183 29.0909C29.2728 29.0909 27.2728 27.0909 27.2728 24.5454C27.2728 23.1818 27.8183 22 28.7273 21.1818C28.2728 20.7272 27.8183 20.3636 27.2728 20.0908C26.1819 21.2726 25.4546 22.8181 25.4546 24.5454C25.4546 28.0908 28.2728 30.909 31.8183 30.909C33.091 30.9091 34.1819 30.5455 35.1819 29.9091Z" fill="#F6B545"/>
<path d="M34.9091 29.0909C34.2727 29.5455 33.4545 29.8182 32.6363 30C32.1818 30.0909 31.8181 30.4545 31.8181 30.9091C33.0908 30.9091 34.1818 30.5454 35.1818 29.9091C35.0909 29.6363 35 29.3637 34.9091 29.0909Z" fill="#F19920"/>
<path d="M27.2728 20.0909C26.1819 21.2727 25.4546 22.8182 25.4546 24.5455H25.5455C26.0001 24.5455 26.3637 24.1818 26.4546 23.7273C26.6364 22.4545 27.2728 21.3636 28.0909 20.5455C27.8183 20.4545 27.5455 20.2727 27.2728 20.0909Z" fill="#FFCB5B"/>
<path d="M23.6364 32.7273C27.1509 32.7273 30 29.8782 30 26.3637C30 22.8491 27.1509 20 23.6364 20C20.1218 20 17.2727 22.8491 17.2727 26.3637C17.2727 29.8782 20.1218 32.7273 23.6364 32.7273Z" fill="#F6B545"/>
<path d="M22.7273 30.9091C22.7273 31.5454 22.8182 32.0909 23 32.7273C23.1818 32.7273 23.4546 32.7273 23.6364 32.7273C27.1818 32.7273 30 29.9091 30 26.3636C30 25.7273 29.9091 25.1818 29.7273 24.5454C29.5455 24.5454 29.2728 24.5454 29.091 24.5454C25.5455 24.5455 22.7273 27.3637 22.7273 30.9091Z" fill="#F19920"/>
<path d="M23.6364 20C20.0909 20 17.2727 22.8182 17.2727 26.3637C17.2727 29.9091 20.0909 32.7273 23.6364 32.7273C27.1818 32.7273 30 29.9091 30 26.3637C30 22.8183 27.1818 20 23.6364 20ZM23.6364 30.9091C21.0909 30.9091 19.0909 28.9091 19.0909 26.3636C19.0909 23.8181 21.0909 21.8181 23.6364 21.8181C26.1818 21.8181 28.1818 23.8181 28.1818 26.3636C28.1818 28.9091 26.1818 30.9091 23.6364 30.9091Z" fill="#FFCB5B"/>
<path d="M23.6362 32.6363C27.1817 32.7272 29.9999 29.8182 29.9999 26.3636H29.909C29.4544 26.3636 29.0908 26.7273 28.9999 27.1819C28.8181 28.4546 28.1817 29.6364 27.2726 30.4546C26.5454 31.1819 25.5454 31.6364 24.4544 31.8183C23.9999 31.8182 23.6362 32.1818 23.6362 32.6363Z" fill="#F6B545"/>
<path d="M23.6364 20.0909C20.0909 20 17.2727 22.9091 17.2727 26.3637H17.3636C17.8182 26.3637 18.1818 26 18.2727 25.5455C18.4545 24.2727 19.0909 23.0909 20 22.2727C20.7272 21.5455 21.7272 21.0909 22.8182 20.9091C23.2728 20.9091 23.6364 20.5455 23.6364 20.0909Z" fill="#FFE27A"/>
<path d="M19.7272 27C19.7272 24.4546 21.7272 22.4546 24.2727 22.4546C25.3636 22.4546 26.3636 22.8182 27.1818 23.5455C26.2727 22.4546 25.0908 21.8182 23.6363 21.8182C21.0908 21.8182 19.0908 23.8182 19.0908 26.3637C19.0908 27.8182 19.7271 29 20.7271 29.8182C20.0909 29.091 19.7272 28.091 19.7272 27Z" fill="#F19920"/>
<path d="M26.3637 29.1818C26.2727 29.1818 26.1819 29.1818 26.0909 29.0909C25.9091 28.9091 25.9091 28.6363 26.0909 28.4545C26.6364 27.9091 26.9091 27.0909 26.9091 26.3636C26.9091 26.0909 27.0909 25.9091 27.3637 25.9091C27.6364 25.9091 27.8182 26.0909 27.8182 26.3636C27.8182 27.3636 27.4545 28.3636 26.8182 29.0909C26.6363 29.1818 26.4545 29.1818 26.3637 29.1818Z" fill="#FFCB5B"/>
<path d="M23.6364 29.0909C23.0909 29.0909 22.7273 28.7273 22.7273 28.1819V24.5455C22.7273 24.0001 23.091 23.6365 23.6364 23.6365C24.1818 23.6365 24.5454 24.0001 24.5454 24.5455V28.1819C24.5455 28.7273 24.1818 29.0909 23.6364 29.0909Z" fill="#F19920"/>
<path d="M27.8182 24.6363C28 25.1818 28.1818 25.7273 28.1818 26.3636C28.1818 28.9091 26.1818 30.9091 23.6364 30.9091C23.3636 30.9091 23 30.9091 22.7273 30.8181V30.9091C22.7273 31.5454 22.8182 32.0909 23 32.7273C23.1818 32.7273 23.4546 32.7273 23.6364 32.7273C27.1818 32.7273 30 29.9091 30 26.3636C30 25.7273 29.9091 25.1818 29.7273 24.5454C29.5455 24.5454 29.2728 24.5454 29.091 24.5454C28.6363 24.5455 28.2727 24.5455 27.8182 24.6363Z" fill="#F6B545"/>
<path d="M28.1818 38.1819C31.6963 38.1819 34.5455 35.3328 34.5455 31.8183C34.5455 28.3037 31.6963 25.4546 28.1818 25.4546C24.6672 25.4546 21.8181 28.3037 21.8181 31.8183C21.8181 35.3328 24.6672 38.1819 28.1818 38.1819Z" fill="#F6B545"/>
<path d="M28.1818 25.4546C24.6363 25.4546 21.8181 28.2728 21.8181 31.8183C21.8181 35.3637 24.6363 38.1819 28.1818 38.1819C31.7273 38.1819 34.5455 35.3637 34.5455 31.8183C34.5455 28.2728 31.7273 25.4546 28.1818 25.4546ZM28.1818 36.3637C25.6363 36.3637 23.6363 34.3637 23.6363 31.8183C23.6363 29.2728 25.6363 27.2728 28.1818 27.2728C30.7273 27.2728 32.7273 29.2728 32.7273 31.8183C32.7273 34.3637 30.7273 36.3637 28.1818 36.3637Z" fill="#FFCB5B"/>
<path d="M28.1819 38.091C31.7274 38.1819 34.5456 35.2728 34.5456 31.8182H34.4546C34.0001 31.8182 33.6364 32.1819 33.5456 32.6364C33.3638 33.9092 32.7274 35.091 31.8183 35.9092C31.091 36.6364 30.091 37.091 29.0001 37.2728C28.5456 37.2728 28.1819 37.6364 28.1819 38.091Z" fill="#F6B545"/>
<path d="M28.1818 25.5454C24.6363 25.4545 21.8181 28.3636 21.8181 31.8181H21.9091C22.3636 31.8181 22.7273 31.4545 22.8181 30.9999C22.9999 29.7272 23.6363 28.5454 24.5454 27.7272C25.2726 26.9999 26.2726 26.5454 27.3636 26.3635C27.8182 26.3636 28.1818 25.9999 28.1818 25.5454Z" fill="#FFE27A"/>
<path d="M24.2726 32.4545C24.2726 29.909 26.2726 27.909 28.8181 27.909C29.909 27.909 30.909 28.2727 31.7272 29C30.8181 27.909 29.6362 27.2727 28.1817 27.2727C25.6362 27.2727 23.6362 29.2727 23.6362 31.8182C23.6362 33.2727 24.2726 34.4545 25.2726 35.2727C24.6362 34.5454 24.2726 33.5454 24.2726 32.4545Z" fill="#F19920"/>
<path d="M30.9091 34.6364C30.8181 34.6364 30.7273 34.6364 30.6363 34.5454C30.4546 34.3636 30.4546 34.0909 30.6363 33.9091C31.1818 33.3636 31.4546 32.5454 31.4546 31.8182C31.4546 31.5454 31.6363 31.3636 31.9091 31.3636C32.1818 31.3636 32.3636 31.5454 32.3636 31.8182C32.3636 32.8182 31.9999 33.8182 31.3636 34.5454C31.1818 34.6364 31 34.6364 30.9091 34.6364Z" fill="#FFCB5B"/>
<path d="M28.1818 34.5455C27.6363 34.5455 27.2727 34.1818 27.2727 33.6364V30C27.2727 29.4545 27.6364 29.0909 28.1818 29.0909C28.7272 29.0909 29.0908 29.4546 29.0908 30V33.6363C29.0909 34.1818 28.7272 34.5455 28.1818 34.5455Z" fill="#F19920"/>
</g>
<defs>
<clipPath id="clip0_1_364">
<rect width="40" height="40" fill="white"/>
</clipPath>
</defs>
</svg>
