<svg width="40" height="40" viewBox="0 0 40 40" fill="none" xmlns="http://www.w3.org/2000/svg">
<path d="M8.7515 2.41297H13.1604V7.27602H15.5757V0.670313C15.5757 0.301641 15.2738 0 14.9048 0H8.7515C8.38244 0 8.08057 0.301641 8.08057 0.670313V1.74273C8.08057 2.11125 8.38244 2.41297 8.7515 2.41297Z" fill="#E6E9ED"/>
<path d="M17.4621 14.394H4.48901L5.67112 27.244L17.4621 14.394Z" fill="#F17544"/>
<path d="M6.39819 35.1463L6.80788 39.5994C6.82811 39.8198 7.02601 40.0001 7.24749 40.0001H21.2819C21.5034 40.0001 21.7013 39.8197 21.7216 39.5994L23.8844 16.0897L6.39819 35.1463Z" fill="#F17544"/>
<path d="M17.4622 14.394L5.67114 27.244L6.39802 35.1462L23.8842 16.0896L24.0401 14.394H17.4622Z" fill="#E6E9ED"/>
<path opacity="0.1" d="M9.02229 39.5993L6.70355 14.394H4.48901L6.80776 39.5993C6.828 39.8197 7.02589 40 7.24737 40H9.46206C9.24042 40 9.04253 39.8196 9.02229 39.5993Z" fill="black"/>
<path d="M23.3813 11.0068V7.27889C23.3813 7.05756 23.2 6.87646 22.9785 6.87646H5.62474C5.40317 6.87646 5.22192 7.05756 5.22192 7.27889V11.0067H23.3813V11.0068Z" fill="#FED1BE"/>
<path opacity="0.1" d="M7.83505 11.0068V7.27889C7.83505 7.05756 8.01622 6.87646 8.23778 6.87646H5.62474C5.40317 6.87646 5.22192 7.05756 5.22192 7.27889V11.0067H7.83505V11.0068Z" fill="black"/>
<path d="M26.563 13.9916C26.563 14.2129 26.3818 14.394 26.1602 14.394H2.44334C2.22178 14.394 2.04053 14.2129 2.04053 13.9916V10.9594C2.04053 10.7381 2.22178 10.557 2.44334 10.557H26.1601C26.3817 10.557 26.5629 10.7381 26.5629 10.9594L26.563 13.9916Z" fill="#FF500C"/>
<path opacity="0.1" d="M4.69311 13.9916V10.9594C4.69311 10.7381 4.87436 10.557 5.09584 10.557H2.44334C2.22178 10.557 2.04053 10.7381 2.04053 10.9594V13.9916C2.04053 14.2129 2.22178 14.394 2.44334 14.394H5.09584C4.87443 14.394 4.69311 14.2129 4.69311 13.9916Z" fill="black"/>
<path d="M22.2424 40C20.8857 40 19.6042 39.4782 18.634 38.5307C17.6657 37.585 17.1142 36.3201 17.081 34.969C17.0775 34.8295 17.1306 34.6945 17.2279 34.5947C17.3256 34.4948 17.4593 34.4385 17.5991 34.4385H36.7603C36.8997 34.4385 37.0335 34.4948 37.1311 34.5947C37.2286 34.6944 37.2817 34.8294 37.2783 34.969C37.2449 36.3201 36.6936 37.585 35.7254 38.5307C34.755 39.4782 33.4736 40 32.1166 40H22.2424Z" fill="#FFAF68"/>
<path d="M37.9594 33.6891C37.9594 34.1317 37.5969 34.4939 37.1538 34.4939H17.2057C16.7626 34.4939 16.4001 34.1317 16.4001 33.6891V32.0694C16.4001 31.6267 16.7627 31.2645 17.2057 31.2645H37.1537C37.5969 31.2645 37.9593 31.6267 37.9593 32.0694V33.6891H37.9594Z" fill="#AB5436"/>
<path d="M17.5727 28.7225C17.4274 28.7225 17.29 28.6585 17.1966 28.5476C17.103 28.4367 17.0634 28.2902 17.0884 28.1474C17.9413 23.2382 22.1852 19.675 27.1797 19.675C32.1741 19.675 36.4184 23.2382 37.2712 28.1472C37.2959 28.2901 37.2566 28.4366 37.1632 28.5476C37.0698 28.6585 36.9319 28.7225 36.787 28.7225H17.5727Z" fill="#FFAF68"/>
<path d="M37.9594 29.0596C37.9594 28.8383 37.7782 28.6572 37.5566 28.6572H16.8029C16.5814 28.6572 16.4001 28.8383 16.4001 29.0596V30.8787C16.4001 31.1 16.5814 31.2811 16.8029 31.2811H29.8105C30.032 31.2811 30.3553 31.3936 30.5288 31.5312L31.6911 32.4523C31.8647 32.5899 32.1486 32.5899 32.3222 32.4523L33.4845 31.5312C33.6581 31.3936 33.9813 31.2811 34.2029 31.2811H37.5566C37.7781 31.2811 37.9593 31.1 37.9593 30.8787V29.0596H37.9594Z" fill="#FFB393"/>
<path opacity="0.1" d="M19.5905 34.9691C19.587 34.8296 19.6401 34.6946 19.7375 34.5947C19.7783 34.553 19.8255 34.5194 19.8767 34.4939H19.7152C19.2722 34.4939 18.9097 34.1317 18.9097 33.689V32.0693C18.9097 31.6823 19.1868 31.3569 19.5525 31.2812H19.3124C19.0909 31.2812 18.9097 31.1001 18.9097 30.8788V29.0597C18.9097 28.8384 19.0909 28.6573 19.3124 28.6573H19.8383C19.7887 28.629 19.7437 28.5923 19.706 28.5476C19.6125 28.4367 19.5729 28.2902 19.5978 28.1474C20.3783 23.6552 23.9983 20.2908 28.4344 19.7515C28.0226 19.7014 27.604 19.675 27.1797 19.675C22.1852 19.675 17.9413 23.2382 17.0883 28.1474C17.0634 28.2902 17.103 28.4367 17.1966 28.5476C17.2342 28.5923 17.2793 28.629 17.3289 28.6573H16.803C16.5815 28.6573 16.4002 28.8384 16.4002 29.0597V30.8788C16.4002 31.1001 16.5815 31.2812 16.803 31.2812H17.043C16.6773 31.357 16.4001 31.6824 16.4001 32.0693V33.689C16.4001 34.1317 16.7627 34.4939 17.2057 34.4939H17.3672C17.316 34.5194 17.2687 34.553 17.228 34.5947C17.1306 34.6945 17.0775 34.8295 17.081 34.9691C17.1142 36.3202 17.6657 37.585 18.6341 38.5308C19.6044 39.4783 20.8858 40 22.2425 40H24.7519C23.3951 40 22.1137 39.4783 21.1435 38.5308C20.1752 37.585 19.6237 36.3202 19.5905 34.9691Z" fill="black"/>
<path d="M29.2745 23.1218H28.8535C28.5298 23.1218 28.2676 22.8595 28.2676 22.5359C28.2676 22.2123 28.5298 21.95 28.8535 21.95H29.2745C29.5981 21.95 29.8604 22.2123 29.8604 22.5359C29.8604 22.8595 29.5981 23.1218 29.2745 23.1218Z" fill="white"/>
<path d="M23.1472 24.5955H22.7261C22.4024 24.5955 22.1401 24.3331 22.1401 24.0095C22.1401 23.6859 22.4024 23.4236 22.7261 23.4236H23.1472C23.4708 23.4236 23.7331 23.6859 23.7331 24.0095C23.7331 24.3331 23.4708 24.5955 23.1472 24.5955Z" fill="white"/>
<path d="M31.9171 24.5956H31.4963C31.1727 24.5956 30.9104 24.3332 30.9104 24.0096C30.9104 23.686 31.1727 23.4237 31.4963 23.4237H31.9171C32.2407 23.4237 32.5031 23.686 32.5031 24.0096C32.5031 24.3332 32.2408 24.5956 31.9171 24.5956Z" fill="#FFCFAB"/>
<path d="M27.2793 25.049H26.8586C26.535 25.049 26.2727 24.7866 26.2727 24.463C26.2727 24.1394 26.535 23.8771 26.8586 23.8771H27.2793C27.603 23.8771 27.8653 24.1394 27.8653 24.463C27.8653 24.7866 27.6029 25.049 27.2793 25.049Z" fill="white"/>
<path d="M25.5628 22.7251H25.1416C24.8179 22.7251 24.5557 22.4628 24.5557 22.1392C24.5557 21.8156 24.8179 21.5532 25.1416 21.5532H25.5628C25.8864 21.5532 26.1487 21.8156 26.1487 22.1392C26.1487 22.4628 25.8864 22.7251 25.5628 22.7251Z" fill="#FFCFAB"/>
</svg>
