<svg width="40" height="40" viewBox="0 0 40 40" fill="none" xmlns="http://www.w3.org/2000/svg">
<g clip-path="url(#clip0_1_1461)">
<path d="M30.6626 4.53126C27.725 4.53553 25.1075 5.89906 23.4016 8.02583C23.1257 8.36945 22.6017 8.36945 22.3261 8.02583C20.6202 5.89906 18.0024 4.53553 15.0648 4.53126C9.93782 4.52424 5.73677 8.7085 5.72731 13.8355C5.70961 23.5043 18.7363 32.9861 22.0859 35.2646C22.5556 35.5838 23.1721 35.5838 23.6414 35.2646C26.9913 32.9861 40.0178 23.5043 40.0001 13.8358C39.9906 8.70881 35.7896 4.52424 30.6626 4.53126Z" fill="#FA7A48"/>
<path d="M15.7375 4.55725C15.9734 4.82367 16.3653 4.8606 16.6442 4.66742C16.3467 4.61615 16.0443 4.57953 15.7375 4.55725Z" fill="#FA7A48"/>
<path d="M31.3481 4.55566C32.6204 6.14654 33.3852 8.15857 33.3892 10.3421C33.4069 19.8053 20.9304 29.0881 17.2588 31.6147C19.3141 33.3264 21.1104 34.6011 22.0858 35.2646C22.5554 35.5838 23.1716 35.5838 23.6412 35.2646C26.9911 32.9861 40.0176 23.5043 39.9999 13.8357C39.9907 8.93921 36.1586 4.90295 31.3481 4.55566Z" fill="#F96C35"/>
<path d="M17.0088 20.4648C16.7436 20.4648 16.5093 20.2911 16.4321 20.0372L14.5998 14.0186H9.11212C8.77887 14.0186 8.50879 13.7485 8.50879 13.4155C8.50879 13.0826 8.77887 12.8125 9.11212 12.8125H15.0469C15.3121 12.8125 15.5464 12.9858 15.6237 13.2397L17.0092 17.7905L19.0322 11.1444C19.1094 10.8905 19.3437 10.7172 19.6089 10.7172C19.8744 10.7172 20.1088 10.8905 20.186 11.1444L21.0616 14.021H26.3655C26.6988 14.021 26.9689 14.2911 26.9689 14.624C26.9689 14.9573 26.6988 15.2274 26.3655 15.2274H20.6148C20.3493 15.2274 20.1149 15.0537 20.0377 14.7998L19.6089 13.3911L17.5859 20.0372C17.5087 20.2911 17.2743 20.4648 17.0088 20.4648Z" fill="#FDAD8C"/>
<path d="M4.65112 23.7637H21.6805V27.4963H4.65112V23.7637Z" fill="#848489"/>
<path d="M18.2125 23.7637V24.6966C18.2125 25.3884 17.6516 25.9493 16.9598 25.9493H4.65112V27.4963H21.6805V23.7637H18.2125Z" fill="#545353"/>
<path d="M22.6281 31.3477H21.2686C20.837 31.3477 20.4873 30.9976 20.4873 30.5664V20.7532C20.4873 20.3217 20.837 19.9719 21.2686 19.9719H22.6281C23.0596 19.9719 23.4094 20.3217 23.4094 20.7532V30.5664C23.4094 30.9976 23.0596 31.3477 22.6281 31.3477Z" fill="#848489"/>
<path d="M25.5505 29.9054H24.1907C23.7592 29.9054 23.4094 29.5554 23.4094 29.1241V22.1954C23.4094 21.7639 23.7592 21.4142 24.1907 21.4142H25.5505C25.9821 21.4142 26.3318 21.7639 26.3318 22.1954V29.1241C26.3318 29.5554 25.9821 29.9054 25.5505 29.9054Z" fill="#848489"/>
<path d="M3.70337 19.9719H5.06323C5.49475 19.9719 5.84448 20.3217 5.84448 20.7532V30.5664C5.84448 30.9976 5.49475 31.3477 5.06323 31.3477H3.70337C3.27216 31.3477 2.92212 30.9976 2.92212 30.5664V20.7532C2.92212 20.3217 3.27216 19.9719 3.70337 19.9719Z" fill="#848489"/>
<path d="M0.78125 21.4142H2.14081C2.57233 21.4142 2.92206 21.7639 2.92206 22.1954V29.1241C2.92206 29.5554 2.57233 29.9054 2.14081 29.9054H0.78125C0.349731 29.9054 0 29.5554 0 29.1241V22.1954C0 21.7639 0.349731 21.4142 0.78125 21.4142Z" fill="#848489"/>
<path d="M22.5809 19.9719H21.3376C21.7954 19.9719 22.1662 20.343 22.1662 20.8005V30.5191C22.1662 30.9766 21.7954 31.3477 21.3376 31.3477H22.5809C23.0387 31.3477 23.4095 30.9766 23.4095 30.5191V20.8005C23.4095 20.343 23.0387 19.9719 22.5809 19.9719Z" fill="#545353"/>
<path d="M25.5033 21.4142H24.26C24.7175 21.4142 25.0886 21.7853 25.0886 22.2427V29.0768C25.0886 29.5343 24.7175 29.9054 24.26 29.9054H25.5033C25.9608 29.9054 26.3318 29.5343 26.3318 29.0768V22.2427C26.3318 21.7853 25.9608 21.4142 25.5033 21.4142Z" fill="#545353"/>
<path d="M5.01575 19.9719H3.77246C4.22992 19.9719 4.60101 20.343 4.60101 20.8005V30.5191C4.60101 30.9766 4.22992 31.3477 3.77246 31.3477H5.01575C5.4732 31.3477 5.8443 30.9766 5.8443 30.5191V20.8005C5.8443 20.343 5.4732 19.9719 5.01575 19.9719Z" fill="#545353"/>
<path d="M2.09338 21.4142H0.850098C1.30786 21.4142 1.67865 21.7853 1.67865 22.2427V29.0768C1.67865 29.5343 1.30786 29.9054 0.850098 29.9054H2.09338C2.55115 29.9054 2.92194 29.5343 2.92194 29.0768V22.2427C2.92194 21.7853 2.55115 21.4142 2.09338 21.4142Z" fill="#545353"/>
</g>
<defs>
<clipPath id="clip0_1_1461">
<rect width="40" height="40" fill="white"/>
</clipPath>
</defs>
</svg>
