<svg width="40" height="40" viewBox="0 0 40 40" fill="none" xmlns="http://www.w3.org/2000/svg">
<g clip-path="url(#clip0_1_264)">
<path d="M17.4637 9.86254C17.5896 11.0462 17.4319 12.2429 17.0037 13.3536C16.5755 14.4643 15.8891 15.4572 15.0012 16.25C13.856 17.2335 12.9931 18.5041 12.5012 19.9313C12.4637 20.0313 13.0137 20 7.50119 20C6.99686 18.519 6.11337 17.1959 4.93869 16.1625C4.03664 15.3449 3.34719 14.32 2.9299 13.1763C2.51261 12.0325 2.38002 10.8044 2.54358 9.598C2.70714 8.39157 3.16193 7.2431 3.86868 6.25178C4.57543 5.26045 5.51288 4.45608 6.60007 3.90814C7.68726 3.36019 8.89149 3.08515 10.1088 3.10677C11.326 3.12839 12.5197 3.44602 13.5868 4.03222C14.6538 4.61842 15.5621 5.45557 16.2332 6.47137C16.9043 7.48716 17.3181 8.65106 17.4387 9.86254H17.4637Z" fill="#D9D9D9"/>
<path d="M9.37518 22.0568L6.87518 13.9318C6.84611 13.8362 6.84038 13.7351 6.85848 13.6368C6.87658 13.5385 6.91797 13.4461 6.97918 13.3671C7.0404 13.2881 7.11965 13.225 7.2103 13.183C7.30095 13.1409 7.40036 13.1213 7.50018 13.1256H12.5002C12.6 13.1213 12.6994 13.1409 12.7901 13.183C12.8807 13.225 12.96 13.2881 13.0212 13.3671C13.0824 13.4461 13.1238 13.5385 13.1419 13.6368C13.16 13.7351 13.1543 13.8362 13.1252 13.9318L10.6252 22.0568C10.6252 22.2226 10.5593 22.3816 10.4421 22.4988C10.3249 22.616 10.1659 22.6818 10.0002 22.6818C9.83442 22.6818 9.67545 22.616 9.55824 22.4988C9.44103 22.3816 9.37518 22.2226 9.37518 22.0568ZM8.34393 14.3756L10.0002 19.7506L11.6564 14.3756H8.34393Z" fill="#F3F3F3"/>
<path d="M35 8.75V21.25H22.5V6.25C22.5 5.91848 22.6317 5.60054 22.8661 5.36612C23.1005 5.1317 23.4185 5 23.75 5H31.25L35 8.75Z" fill="#F3F3F3"/>
<path d="M30 17.5438V16.2063C30.0008 16.0476 29.9702 15.8904 29.9099 15.7437C29.8496 15.597 29.7607 15.4636 29.6486 15.3515C29.5364 15.2393 29.4031 15.1505 29.2564 15.0901C29.1096 15.0298 28.9524 14.9992 28.7938 15C28.5434 14.9986 28.2996 14.919 28.0968 14.7721C27.8939 14.6253 27.7421 14.4187 27.6625 14.1813C27.5624 13.9025 27.4477 13.6292 27.3188 13.3625C27.208 13.1375 27.1702 12.8835 27.2105 12.6359C27.2508 12.3884 27.3673 12.1595 27.5438 11.9813C27.7686 11.7542 27.8947 11.4476 27.8947 11.1281C27.8947 10.8086 27.7686 10.5021 27.5438 10.275L26.6 9.33127C26.373 9.10646 26.0664 8.98035 25.7469 8.98035C25.4274 8.98035 25.1208 9.10646 24.8938 9.33127C24.7155 9.50772 24.4867 9.62422 24.2391 9.66455C23.9915 9.70488 23.7376 9.66703 23.5125 9.55627C23.2458 9.42736 22.9725 9.31262 22.6938 9.21252C22.4563 9.13296 22.2497 8.98111 22.1029 8.77825C21.9561 8.57539 21.8764 8.33168 21.875 8.08127C21.8734 7.76186 21.7458 7.45599 21.5199 7.23013C21.294 7.00427 20.9882 6.87666 20.6688 6.87502H19.3313C19.1726 6.87419 19.0154 6.90482 18.8687 6.96515C18.722 7.02548 18.5886 7.1143 18.4765 7.22647C18.3643 7.33865 18.2755 7.47195 18.2151 7.61868C18.1548 7.7654 18.1242 7.92263 18.125 8.08127C18.1236 8.33168 18.044 8.57539 17.8971 8.77825C17.7503 8.98111 17.5437 9.13296 17.3063 9.21252C17.0275 9.31262 16.7542 9.42736 16.4875 9.55627C16.2625 9.66703 16.0085 9.70488 15.7609 9.66455C15.5134 9.62422 15.2845 9.50772 15.1063 9.33127C14.8792 9.10646 14.5726 8.98035 14.2531 8.98035C13.9336 8.98035 13.6271 9.10646 13.4 9.33127L12.4563 10.275C12.2315 10.5021 12.1054 10.8086 12.1054 11.1281C12.1054 11.4476 12.2315 11.7542 12.4563 11.9813C12.6327 12.1595 12.7492 12.3884 12.7895 12.6359C12.8299 12.8835 12.792 13.1375 12.6813 13.3625C12.5524 13.6292 12.4376 13.9025 12.3375 14.1813C12.258 14.4187 12.1061 14.6253 11.9033 14.7721C11.7004 14.919 11.4567 14.9986 11.2063 15C10.8869 15.0017 10.581 15.1293 10.3551 15.3551C10.1293 15.581 10.0017 15.8869 10 16.2063V17.5438C9.99919 17.7024 10.0298 17.8596 10.0901 18.0064C10.1505 18.1531 10.2393 18.2864 10.3515 18.3986C10.4636 18.5107 10.597 18.5996 10.7437 18.6599C10.8904 18.7202 11.0476 18.7508 11.2063 18.75C11.4567 18.7514 11.7004 18.8311 11.9033 18.9779C12.1061 19.1247 12.258 19.3313 12.3375 19.5688C12.4376 19.8475 12.5524 20.1208 12.6813 20.3875C12.792 20.6126 12.8299 20.8665 12.7895 21.1141C12.7492 21.3617 12.6327 21.5905 12.4563 21.7688C12.2315 21.9958 12.1054 22.3024 12.1054 22.6219C12.1054 22.9414 12.2315 23.248 12.4563 23.475L13.4 24.4188C13.6271 24.6436 13.9336 24.7697 14.2531 24.7697C14.5726 24.7697 14.8792 24.6436 15.1063 24.4188C15.2845 24.2423 15.5134 24.1258 15.7609 24.0855C16.0085 24.0452 16.2625 24.083 16.4875 24.1938C16.7542 24.3227 17.0275 24.4374 17.3063 24.5375C17.5437 24.6171 17.7503 24.7689 17.8971 24.9718C18.044 25.1746 18.1236 25.4184 18.125 25.6688C18.1267 25.9882 18.2543 26.294 18.4801 26.5199C18.706 26.7458 19.0119 26.8734 19.3313 26.875H20.6688C20.8274 26.8758 20.9846 26.8452 21.1314 26.7849C21.2781 26.7246 21.4114 26.6357 21.5236 26.5236C21.6357 26.4114 21.7246 26.2781 21.7849 26.1314C21.8452 25.9846 21.8758 25.8274 21.875 25.6688C21.8764 25.4184 21.9561 25.1746 22.1029 24.9718C22.2497 24.7689 22.4563 24.6171 22.6938 24.5375C22.9725 24.4374 23.2458 24.3227 23.5125 24.1938C23.7376 24.083 23.9915 24.0452 24.2391 24.0855C24.4867 24.1258 24.7155 24.2423 24.8938 24.4188C25.1253 24.6349 25.4302 24.7552 25.7469 24.7552C26.0636 24.7552 26.3685 24.6349 26.6 24.4188L27.5438 23.475C27.7686 23.248 27.8947 22.9414 27.8947 22.6219C27.8947 22.3024 27.7686 21.9958 27.5438 21.7688C27.3673 21.5905 27.2508 21.3617 27.2105 21.1141C27.1702 20.8665 27.208 20.6126 27.3188 20.3875C27.4477 20.1208 27.5624 19.8475 27.6625 19.5688C27.7421 19.3313 27.8939 19.1247 28.0968 18.9779C28.2996 18.8311 28.5434 18.7514 28.7938 18.75C29.1132 18.7484 29.419 18.6208 29.6449 18.3949C29.8708 18.169 29.9984 17.8632 30 17.5438Z" fill="#FF9B6A"/>
<path d="M20 21.25C22.4162 21.25 24.375 19.2912 24.375 16.875C24.375 14.4588 22.4162 12.5 20 12.5C17.5838 12.5 15.625 14.4588 15.625 16.875C15.625 19.2912 17.5838 21.25 20 21.25Z" fill="#F3F3F3"/>
<path d="M3.75 18.75H20V40H5C4.66848 40 4.35054 39.8683 4.11612 39.6339C3.8817 39.3995 3.75 39.0815 3.75 38.75V18.75Z" fill="#FFC9AF"/>
<path d="M20 18.75H36.25V38.75C36.25 39.0815 36.1183 39.3995 35.8839 39.6339C35.6495 39.8683 35.3315 40 35 40H20V18.75Z" fill="#FA7A48"/>
<path d="M3.75121 18.75L0.882463 22.0937C0.804803 22.1845 0.754794 22.2957 0.738362 22.414C0.721929 22.5324 0.739762 22.653 0.789746 22.7615C0.839731 22.87 0.919773 22.9619 1.02039 23.0263C1.12101 23.0908 1.23799 23.125 1.35746 23.125H14.5887C14.9171 23.1253 15.2423 23.0608 15.5458 22.9353C15.8493 22.8099 16.1251 22.6258 16.3575 22.3938L20.0012 18.75H3.75121Z" fill="#FA7A48"/>
<path d="M36.25 18.75L39.1187 22.0937C39.1964 22.1845 39.2464 22.2957 39.2629 22.414C39.2793 22.5324 39.2615 22.653 39.2115 22.7615C39.1615 22.87 39.0814 22.9619 38.9808 23.0263C38.8802 23.0908 38.7632 23.125 38.6438 23.125H25.4125C25.0841 23.1253 24.7589 23.0608 24.4554 22.9353C24.1519 22.8099 23.8761 22.6258 23.6438 22.3938L20 18.75H36.25Z" fill="#FFC9AF"/>
<path d="M10 35.625H6.25C5.90482 35.625 5.625 35.9048 5.625 36.25V37.5C5.625 37.8452 5.90482 38.125 6.25 38.125H10C10.3452 38.125 10.625 37.8452 10.625 37.5V36.25C10.625 35.9048 10.3452 35.625 10 35.625Z" fill="#F3F3F3"/>
<path d="M23.125 38.125C23.8154 38.125 24.375 37.5654 24.375 36.875C24.375 36.1846 23.8154 35.625 23.125 35.625C22.4346 35.625 21.875 36.1846 21.875 36.875C21.875 37.5654 22.4346 38.125 23.125 38.125Z" fill="#F3F3F3"/>
<path d="M27.5 38.125C28.1904 38.125 28.75 37.5654 28.75 36.875C28.75 36.1846 28.1904 35.625 27.5 35.625C26.8096 35.625 26.25 36.1846 26.25 36.875C26.25 37.5654 26.8096 38.125 27.5 38.125Z" fill="#F3F3F3"/>
<path d="M35 8.75H32.5C32.1685 8.75 31.8505 8.6183 31.6161 8.38388C31.3817 8.14946 31.25 7.83152 31.25 7.5V5L35 8.75Z" fill="#D9D9D9"/>
<path d="M36.8762 17.5C36.7521 17.5007 36.6305 17.4645 36.5271 17.3958C36.4236 17.3272 36.3429 17.2293 36.2953 17.1147C36.2477 17 36.2354 16.8738 36.2598 16.7521C36.2842 16.6304 36.3443 16.5187 36.4324 16.4312L38.9324 13.9312C39.0501 13.8136 39.2098 13.7474 39.3762 13.7474C39.5426 13.7474 39.7023 13.8136 39.8199 13.9312C39.9376 14.0489 40.0037 14.2086 40.0037 14.375C40.0037 14.5414 39.9376 14.7011 39.8199 14.8187L37.3199 17.3187C37.2615 17.3767 37.1923 17.4225 37.1161 17.4536C37.04 17.4847 36.9584 17.5005 36.8762 17.5Z" fill="#FF9B6A"/>
<path d="M36.8762 13.75C36.7521 13.7507 36.6305 13.7145 36.5271 13.6458C36.4236 13.5772 36.3429 13.4793 36.2953 13.3647C36.2477 13.25 36.2354 13.1238 36.2598 13.0021C36.2842 12.8804 36.3443 12.7687 36.4324 12.6812L37.6824 11.4312C37.8001 11.3136 37.9598 11.2474 38.1262 11.2474C38.2926 11.2474 38.4523 11.3136 38.5699 11.4312C38.6876 11.5489 38.7537 11.7086 38.7537 11.875C38.7537 12.0414 38.6876 12.2011 38.5699 12.3187C37.2074 13.6812 37.2137 13.75 36.8762 13.75Z" fill="#FF9B6A"/>
<path d="M3.12512 17.5C3.04286 17.5005 2.96132 17.4847 2.88517 17.4536C2.80903 17.4225 2.73977 17.3767 2.68137 17.3187L0.181366 14.8187C0.063676 14.7011 -0.00244141 14.5414 -0.00244141 14.375C-0.00244141 14.2086 0.063676 14.0489 0.181366 13.9312C0.299056 13.8136 0.458677 13.7474 0.625116 13.7474C0.791554 13.7474 0.951176 13.8136 1.06887 13.9312L3.56887 16.4312C3.65701 16.5187 3.71712 16.6304 3.74154 16.7521C3.76596 16.8738 3.75358 17 3.70597 17.1147C3.65837 17.2293 3.5777 17.3272 3.47425 17.3958C3.3708 17.4645 3.24926 17.5007 3.12512 17.5Z" fill="#FF9B6A"/>
<path d="M36.875 6.875C37.2202 6.875 37.5 6.59518 37.5 6.25C37.5 5.90482 37.2202 5.625 36.875 5.625C36.5298 5.625 36.25 5.90482 36.25 6.25C36.25 6.59518 36.5298 6.875 36.875 6.875Z" fill="#FA7A48"/>
<path d="M1.25 8.125C1.59518 8.125 1.875 7.84518 1.875 7.5C1.875 7.15482 1.59518 6.875 1.25 6.875C0.904822 6.875 0.625 7.15482 0.625 7.5C0.625 7.84518 0.904822 8.125 1.25 8.125Z" fill="#FA7A48"/>
<path d="M8.125 1.25C8.47018 1.25 8.75 0.970178 8.75 0.625C8.75 0.279822 8.47018 0 8.125 0C7.77982 0 7.5 0.279822 7.5 0.625C7.5 0.970178 7.77982 1.25 8.125 1.25Z" fill="#FA7A48"/>
<path d="M20 3.125C20.3452 3.125 20.625 2.84518 20.625 2.5C20.625 2.15482 20.3452 1.875 20 1.875C19.6548 1.875 19.375 2.15482 19.375 2.5C19.375 2.84518 19.6548 3.125 20 3.125Z" fill="#FA7A48"/>
<path d="M28.75 3.125C29.0952 3.125 29.375 2.84518 29.375 2.5C29.375 2.15482 29.0952 1.875 28.75 1.875C28.4048 1.875 28.125 2.15482 28.125 2.5C28.125 2.84518 28.4048 3.125 28.75 3.125Z" fill="#FA7A48"/>
</g>
<defs>
<clipPath id="clip0_1_264">
<rect width="40" height="40" fill="white"/>
</clipPath>
</defs>
</svg>
