<svg width="40" height="40" viewBox="0 0 40 40" fill="none" xmlns="http://www.w3.org/2000/svg">
<g clip-path="url(#clip0_1_1430)">
<path d="M29.0745 10.9713C29.0745 9.06396 27.5587 7.51154 25.666 7.4505V6.54016H30.2916C32.2377 6.54016 33.8154 8.11761 33.8154 10.0637V16.7535C33.8154 16.9598 33.6479 17.127 33.4416 17.127C31.0295 17.127 29.0742 15.1718 29.0742 12.7599V10.9713H29.0745Z" fill="#FFA300"/>
<path d="M27.0909 8.85284H27.4263C27.9585 8.85284 28.3897 8.42133 28.3897 7.8894V6.53534C28.3897 6.00342 27.9582 5.5719 27.4263 5.5719H27.0909C26.5587 5.5719 26.1274 6.00342 26.1274 6.53534V7.8894C26.1274 8.42133 26.5587 8.85284 27.0909 8.85284Z" fill="#DD5298"/>
<path d="M30.2915 6.54016H28.137C30.0831 6.54016 31.6605 8.11761 31.6605 10.0637V16.7474C32.2047 16.9906 32.8071 17.127 33.4415 17.127C33.6478 17.127 33.8154 16.9598 33.8154 16.7532V10.0637C33.8154 8.11761 32.2376 6.54016 30.2915 6.54016Z" fill="#FF8B00"/>
<path d="M27.4017 5.5719H27.1149C27.0306 5.5719 26.9495 5.5838 26.8713 5.60364C27.2989 5.71228 27.6154 6.09833 27.6154 6.55975V7.8653C27.6154 8.32642 27.2989 8.71277 26.8713 8.82141C26.9495 8.84125 27.0306 8.85284 27.1149 8.85284H27.4017C27.9474 8.85284 28.3896 8.41064 28.3896 7.8653V6.55975C28.3896 6.0141 27.9474 5.5719 27.4017 5.5719Z" fill="#C93F84"/>
<path d="M11.0266 10.9713C11.0266 9.06396 12.5421 7.51154 14.4348 7.4505V6.54016H9.80927C7.86316 6.54016 6.2854 8.11761 6.2854 10.0637V16.7535C6.2854 16.9598 6.45294 17.127 6.65924 17.127C9.07135 17.127 11.0266 15.1718 11.0266 12.7599V10.9713Z" fill="#FFA300"/>
<path d="M12.2803 7.45056C10.3876 7.5116 8.87177 9.06403 8.87177 10.9714V12.76C8.87177 14.5374 7.80945 16.0657 6.2854 16.7474V16.7535C6.2854 16.9598 6.45294 17.1271 6.65924 17.1271C9.07135 17.1271 11.0266 15.1718 11.0266 12.76V10.9714C11.0266 9.06403 12.5421 7.5116 14.4348 7.45056H12.2803Z" fill="#FF8B00"/>
<path d="M13.01 8.85284H12.6746C12.1427 8.85284 11.7112 8.42133 11.7112 7.8894V6.53534C11.7112 6.00342 12.1427 5.5719 12.6746 5.5719H13.01C13.5422 5.5719 13.9734 6.00342 13.9734 6.53534V7.8894C13.9734 8.42133 13.5422 8.85284 13.01 8.85284Z" fill="#DD5298"/>
<path d="M12.9857 5.5719H12.6989C12.6146 5.5719 12.5331 5.5838 12.4553 5.60364C12.8826 5.71228 13.1993 6.09833 13.1993 6.55975V7.8653C13.1993 8.32642 12.8826 8.71277 12.4553 8.82141C12.5331 8.84125 12.6146 8.85284 12.6989 8.85284H12.9857C13.5311 8.85284 13.9733 8.41064 13.9733 7.8653V6.55975C13.9733 6.0141 13.5311 5.5719 12.9857 5.5719Z" fill="#C93F84"/>
<path d="M27.9196 11.5213H27.7703V10.3186C27.7703 6.56128 24.7244 3.51562 20.9673 3.51562H19.154C15.3967 3.51562 12.351 6.56128 12.351 10.3186V11.5213H12.0159C11.2121 11.5213 10.5605 12.1732 10.5605 12.977V13.6481C10.5605 14.765 11.466 15.6705 12.5829 15.6705C12.6714 15.6705 12.7581 15.6613 12.8423 15.6461C13.8485 18.1458 16.2942 19.9109 19.154 19.9109H20.9673C23.8244 19.9109 26.2686 18.1485 27.2766 15.6525C27.3507 15.6631 27.4261 15.6705 27.5036 15.6705C28.6062 15.6705 29.5001 14.7766 29.5001 13.674V13.1021C29.5004 12.229 28.7927 11.5213 27.9196 11.5213Z" fill="#FFC5B2"/>
<path d="M27.9197 11.5213H27.7704V10.3186C27.7704 6.56128 24.7245 3.51562 20.9675 3.51562H19.1541C19.1227 3.51562 19.0922 3.51746 19.061 3.51807C22.775 3.56812 25.7706 6.59271 25.7706 10.3186V13.1079C25.7706 16.8338 22.775 19.8584 19.061 19.9084C19.0922 19.9091 19.1227 19.9109 19.1541 19.9109H20.9675C23.8245 19.9109 26.2687 18.1485 27.2767 15.6525C27.3508 15.6631 27.4262 15.6705 27.5037 15.6705C28.6063 15.6705 29.5002 14.7766 29.5002 13.674V13.1021C29.5005 12.229 28.7928 11.5213 27.9197 11.5213Z" fill="#FFAE92"/>
<path d="M17.8265 8.48297H22.2949C24.5404 8.48297 26.5314 9.57153 27.7704 11.2494V10.3186C27.7704 6.56128 24.7247 3.51562 20.9674 3.51562H19.1541C15.3967 3.51562 12.3511 6.56128 12.3511 10.3186V11.2494C13.5901 9.57153 15.5807 8.48297 17.8265 8.48297Z" fill="#FFA300"/>
<path d="M20.9673 3.51562H19.1539C18.9037 3.51562 18.6568 3.52997 18.4136 3.55652C21.3094 3.86993 23.6583 6.00006 24.3007 8.78387C25.7057 9.21692 26.9164 10.0934 27.7703 11.2494V10.3186C27.7703 6.56128 24.7243 3.51562 20.9673 3.51562Z" fill="#FF8B00"/>
<path d="M18.0613 12.4426C18.0613 12.936 17.6613 13.3361 17.1675 13.3361C16.674 13.3361 16.2739 12.936 16.2739 12.4426C16.2739 11.9488 16.674 11.5487 17.1675 11.5487C17.6613 11.5487 18.0613 11.9488 18.0613 12.4426Z" fill="#BC693F"/>
<path d="M23.8474 12.4426C23.8474 12.936 23.4476 13.3361 22.9539 13.3361C22.4604 13.3361 22.0603 12.936 22.0603 12.4426C22.0603 11.9488 22.4604 11.5487 22.9539 11.5487C23.4476 11.5487 23.8474 11.9488 23.8474 12.4426Z" fill="#BC693F"/>
<path d="M20.0608 17.6153C21.6117 17.6153 22.8885 16.4425 23.0533 14.9355C23.0725 14.7595 22.9346 14.6047 22.7573 14.6047H17.3642C17.1869 14.6047 17.049 14.7595 17.0682 14.9355C17.233 16.4425 18.5098 17.6153 20.0608 17.6153Z" fill="white"/>
<path d="M38.4191 28.2159H38.2698V27.0132C38.2698 23.2559 35.2242 20.2102 31.4669 20.2102H29.6535C25.8965 20.2102 22.8505 23.2559 22.8505 27.0132V28.2159H22.5157C21.7116 28.2159 21.0601 28.8677 21.0601 29.6716V30.3427C21.0601 31.4596 21.9655 32.3651 23.0825 32.3651C23.1713 32.3651 23.2576 32.3559 23.3419 32.3406C24.348 34.84 26.794 36.6055 29.6535 36.6055H31.4669C34.3242 36.6055 36.7684 34.8431 37.7761 32.347C37.8505 32.3577 37.9259 32.3651 38.0031 32.3651C39.106 32.3651 39.9999 31.4712 39.9999 30.3686V29.7967C39.9999 28.9236 39.2922 28.2159 38.4191 28.2159Z" fill="#FFC5B2"/>
<path d="M38.4192 28.2159H38.27V27.0132C38.27 23.2559 35.2243 20.2102 31.467 20.2102H29.6536C29.6225 20.2102 29.5917 20.212 29.5605 20.2126C33.2745 20.2627 36.2704 23.2873 36.2704 27.0132V29.8025C36.2704 33.5284 33.2745 36.553 29.5605 36.603C29.5917 36.6036 29.6225 36.6055 29.6536 36.6055H31.467C34.3243 36.6055 36.7685 34.8431 37.7762 32.347C37.8506 32.3577 37.926 32.3651 38.0032 32.3651C39.1061 32.3651 40 31.4712 40 30.3686V29.7967C40 28.9236 39.2923 28.2159 38.4192 28.2159Z" fill="#FFAE92"/>
<path d="M28.326 25.1776H32.7944C35.0402 25.1776 37.0309 26.2661 38.2699 27.944V27.0132C38.2699 23.2559 35.2242 20.2102 31.4669 20.2102H29.6536C25.8965 20.2102 22.8506 23.2559 22.8506 27.0132V27.944C24.0896 26.2661 26.0806 25.1776 28.326 25.1776Z" fill="#FFC50D"/>
<path d="M28.5608 29.137C28.5608 29.6307 28.1607 30.0308 27.6672 30.0308C27.1738 30.0308 26.7737 29.6307 26.7737 29.137C26.7737 28.6435 27.1738 28.2434 27.6672 28.2434C28.1607 28.2434 28.5608 28.6435 28.5608 29.137Z" fill="#257EDF"/>
<path d="M34.3472 29.137C34.3472 29.6307 33.9471 30.0308 33.4536 30.0308C32.9601 30.0308 32.5601 29.6307 32.5601 29.137C32.5601 28.6435 32.9601 28.2434 33.4536 28.2434C33.9471 28.2434 34.3472 28.6435 34.3472 29.137Z" fill="#257EDF"/>
<path d="M30.5603 34.31C32.1112 34.31 33.388 33.1372 33.5528 31.6302C33.572 31.4539 33.4341 31.2994 33.2568 31.2994H27.8637C27.6867 31.2994 27.5485 31.4539 27.5677 31.6302C27.7325 33.1372 29.0094 34.31 30.5603 34.31Z" fill="white"/>
<path d="M17.359 28.2159H17.2098V27.0132C17.2098 23.2559 14.1641 20.2102 10.4068 20.2102H8.59344C4.83612 20.2102 1.79047 23.2559 1.79047 27.0132V28.2159H1.45569C0.65155 28.2159 0 28.8677 0 29.6716V30.3427C0 31.4596 0.905457 32.3651 2.0224 32.3651C2.11121 32.3651 2.19757 32.3559 2.2818 32.3406C3.28796 34.84 5.73395 36.6055 8.59344 36.6055H10.4068C13.2639 36.6055 15.7083 34.8431 16.716 32.347C16.7902 32.3577 16.8658 32.3651 16.9431 32.3651C18.0457 32.3651 18.9398 31.4712 18.9398 30.3686V29.7967C18.9398 28.9236 18.2321 28.2159 17.359 28.2159Z" fill="#BC663B"/>
<path d="M17.3589 28.2159H17.2097V27.0132C17.2097 23.2559 14.164 20.2102 10.4067 20.2102H8.59332C8.56219 20.2102 8.53137 20.212 8.50024 20.2126C12.2142 20.2627 15.2101 23.2873 15.2101 27.0132V29.8025C15.2101 33.5284 12.2142 36.553 8.50024 36.603C8.53137 36.6036 8.56219 36.6055 8.59332 36.6055H10.4067C13.2637 36.6055 15.7082 34.8431 16.7159 32.347C16.79 32.3577 16.8657 32.3651 16.9429 32.3651C18.0455 32.3651 18.9397 31.4712 18.9397 30.3686V29.7967C18.9397 28.9236 18.232 28.2159 17.3589 28.2159Z" fill="#AD5731"/>
<path d="M7.26599 25.1776H11.7344C13.9802 25.1776 15.9708 26.2661 17.2098 27.944V27.0132C17.2098 23.2559 14.1642 20.2102 10.4069 20.2102H8.59351C4.83649 20.2102 1.79053 23.2559 1.79053 27.0132V27.944C3.02954 26.2661 5.02051 25.1776 7.26599 25.1776Z" fill="#824A25"/>
<path d="M31.467 20.2102H29.6536C29.4254 20.2102 29.1998 20.2218 28.9771 20.2438C31.9174 20.5343 34.3057 22.6968 34.9377 25.523C36.2842 25.9698 37.4442 26.8258 38.27 27.944V27.0132C38.27 23.2559 35.2243 20.2102 31.467 20.2102Z" fill="#FFA300"/>
<path d="M10.4067 20.2102H8.59332C8.36505 20.2102 8.13922 20.2218 7.91675 20.2438C10.8571 20.5343 13.2454 22.6968 13.8774 25.523C15.2239 25.9698 16.3839 26.8258 17.2097 27.944V27.0132C17.2097 23.2559 14.164 20.2102 10.4067 20.2102Z" fill="#703E23"/>
<path d="M7.50049 29.1368C7.50049 29.6306 7.1004 30.0307 6.60693 30.0307C6.11346 30.0307 5.71338 29.6306 5.71338 29.1368C5.71338 28.6434 6.11346 28.2433 6.60693 28.2433C7.1004 28.2433 7.50049 28.6434 7.50049 29.1368Z" fill="#703E23"/>
<path d="M13.2869 29.1368C13.2869 29.6306 12.8868 30.0307 12.3934 30.0307C11.8996 30.0307 11.4995 29.6306 11.4995 29.1368C11.4995 28.6434 11.8996 28.2433 12.3934 28.2433C12.8868 28.2433 13.2869 28.6434 13.2869 29.1368Z" fill="#703E23"/>
<path d="M9.50021 34.31C11.0511 34.31 12.328 33.1372 12.4928 31.6302C12.512 31.4539 12.374 31.2994 12.1967 31.2994H6.80367C6.62636 31.2994 6.48843 31.4539 6.50765 31.6302C6.67245 33.1372 7.9493 34.31 9.50021 34.31Z" fill="white"/>
</g>
<defs>
<clipPath id="clip0_1_1430">
<rect width="40" height="40" fill="white"/>
</clipPath>
</defs>
</svg>
