<svg width="40" height="40" viewBox="0 0 40 40" fill="none" xmlns="http://www.w3.org/2000/svg">
<g clip-path="url(#clip0_1_193)">
<path d="M20 40C31.0457 40 40 31.0457 40 20C40 8.9543 31.0457 0 20 0C8.9543 0 0 8.9543 0 20C0 31.0457 8.9543 40 20 40Z" fill="#FFD9C6"/>
<path fill-rule="evenodd" clip-rule="evenodd" d="M10.6018 27.6101H36.3503V34.0412H10.6018V27.6101Z" fill="#FA7A48"/>
<path fill-rule="evenodd" clip-rule="evenodd" d="M3.6499 27.6101H10.6021V34.0412H3.6499V27.6101Z" fill="#FFA480"/>
<path fill-rule="evenodd" clip-rule="evenodd" d="M3.6499 28.8647H10.6021V32.7868H3.6499V28.8647Z" fill="#E1E3E8"/>
<path fill-rule="evenodd" clip-rule="evenodd" d="M7.12573 21.179H32.8742V27.6101H7.12573V21.179Z" fill="#6EC276" stroke="#FA7A48" stroke-width="0.216"/>
<path fill-rule="evenodd" clip-rule="evenodd" d="M0.173584 21.179H7.12575V27.6101H0.173584V21.179Z" fill="#5DA764"/>
<path fill-rule="evenodd" clip-rule="evenodd" d="M0.173584 22.4336H7.12575V26.3557H0.173584V22.4336Z" fill="#E1E3E8"/>
<path fill-rule="evenodd" clip-rule="evenodd" d="M9.29443 22.2739H10.1098V26.4729H9.29443V22.2739Z" fill="#5DA764"/>
<path fill-rule="evenodd" clip-rule="evenodd" d="M11.366 22.2739H12.1813V26.4729H11.366V22.2739Z" fill="#5DA764"/>
<path fill-rule="evenodd" clip-rule="evenodd" d="M27.3706 22.2739H28.186V26.4729H27.3706V22.2739Z" fill="#5DA764"/>
<path fill-rule="evenodd" clip-rule="evenodd" d="M29.4421 22.2739H30.2575V26.4729H29.4421V22.2739Z" fill="#5DA764"/>
<path fill-rule="evenodd" clip-rule="evenodd" d="M13.2578 28.8307H14.0732V33.0297H13.2578V28.8307Z" fill="#FFA480"/>
<path fill-rule="evenodd" clip-rule="evenodd" d="M15.3296 28.8307H16.145V33.0297H15.3296V28.8307Z" fill="#FFA480"/>
<path fill-rule="evenodd" clip-rule="evenodd" d="M31.3342 28.8307H32.1496V33.0297H31.3342V28.8307Z" fill="#FFA480"/>
<path fill-rule="evenodd" clip-rule="evenodd" d="M33.4058 28.8307H34.2211V33.0297H33.4058V28.8307Z" fill="#FFA480"/>
<path fill-rule="evenodd" clip-rule="evenodd" d="M10.9094 14.7478H36.6579V21.1789H10.9094V14.7478Z" fill="#FFC42E"/>
<path fill-rule="evenodd" clip-rule="evenodd" d="M3.95728 14.7478H10.9094V21.1789H3.95728V14.7478Z" fill="#EAA43A"/>
<path fill-rule="evenodd" clip-rule="evenodd" d="M3.95728 16.0024H10.9094V19.9245H3.95728V16.0024Z" fill="#E1E3E8"/>
<path fill-rule="evenodd" clip-rule="evenodd" d="M13.5657 15.9684H14.381V20.1674H13.5657V15.9684Z" fill="#EAA43A"/>
<path fill-rule="evenodd" clip-rule="evenodd" d="M15.6372 15.9684H16.4526V20.1674H15.6372V15.9684Z" fill="#EAA43A"/>
<path fill-rule="evenodd" clip-rule="evenodd" d="M31.6418 15.9684H32.4572V20.1674H31.6418V15.9684Z" fill="#EAA43A"/>
<path fill-rule="evenodd" clip-rule="evenodd" d="M33.7134 15.9684H34.5287V20.1674H33.7134V15.9684Z" fill="#EAA43A"/>
<path fill-rule="evenodd" clip-rule="evenodd" d="M17.8271 11.1179H19.1202L25.7025 39.3743H24.4094L17.8271 11.1179Z" fill="white"/>
<path fill-rule="evenodd" clip-rule="evenodd" d="M18.6809 11.1179H19.1218L25.7041 39.3743H25.2632L18.6809 11.1179Z" fill="#E1E3E8"/>
<path fill-rule="evenodd" clip-rule="evenodd" d="M24.8125 11.1179H26.1056L32.6879 39.3743H31.3948L24.8125 11.1179Z" fill="white"/>
<path fill-rule="evenodd" clip-rule="evenodd" d="M25.6663 11.1179H26.1071L32.6894 39.3743H32.2486L25.6663 11.1179Z" fill="#E1E3E8"/>
<path fill-rule="evenodd" clip-rule="evenodd" d="M19.5803 14.0897H25.7372L25.993 15.1858H19.8361L19.5803 14.0897Z" fill="white"/>
<path fill-rule="evenodd" clip-rule="evenodd" d="M19.7546 14.8369H25.9116L25.9931 15.1861H19.8362L19.7546 14.8369Z" fill="#E1E3E8"/>
<path fill-rule="evenodd" clip-rule="evenodd" d="M20.5701 18.3352H26.727L26.9827 19.4312H20.8258L20.5701 18.3352Z" fill="white"/>
<path fill-rule="evenodd" clip-rule="evenodd" d="M20.7444 19.0824H26.9013L26.9829 19.4316H20.826L20.7444 19.0824Z" fill="#E1E3E8"/>
<path fill-rule="evenodd" clip-rule="evenodd" d="M21.5601 22.5807H27.717L27.9727 23.6767H21.8158L21.5601 22.5807Z" fill="white"/>
<path fill-rule="evenodd" clip-rule="evenodd" d="M21.7344 23.3279H27.8913L27.9729 23.6771H21.8159L21.7344 23.3279Z" fill="#E1E3E8"/>
<path fill-rule="evenodd" clip-rule="evenodd" d="M22.5498 26.8263H28.7067L28.9625 27.9223H22.8055L22.5498 26.8263Z" fill="white"/>
<path fill-rule="evenodd" clip-rule="evenodd" d="M22.7241 27.5734H28.881L28.9626 27.9226H22.8057L22.7241 27.5734Z" fill="#E1E3E8"/>
<path fill-rule="evenodd" clip-rule="evenodd" d="M23.5396 31.0717H29.6965L29.9522 32.1677H23.7953L23.5396 31.0717Z" fill="white"/>
<path fill-rule="evenodd" clip-rule="evenodd" d="M23.7139 31.819H29.8708L29.9524 32.1682H23.7954L23.7139 31.819Z" fill="#E1E3E8"/>
<path fill-rule="evenodd" clip-rule="evenodd" d="M24.5295 35.3171H30.6865L30.9422 36.4132H24.7853L24.5295 35.3171Z" fill="white"/>
<path fill-rule="evenodd" clip-rule="evenodd" d="M24.7036 36.0645H30.8605L30.9421 36.4137H24.7852L24.7036 36.0645Z" fill="#E1E3E8"/>
<path fill-rule="evenodd" clip-rule="evenodd" d="M36.5522 9.2824C37.3152 9.32035 37.943 9.87226 38.097 10.599C38.6296 10.6254 39.0529 11.0657 39.0529 11.6046C39.0529 12.1609 38.6021 12.6117 38.0461 12.6117H36.4677H31.7161H30.6791C29.9548 12.6117 29.3677 12.0245 29.3677 11.3002C29.3677 10.6176 29.8895 10.0566 30.5562 9.99493C30.7807 6.62058 35.5468 6.07382 36.5522 9.2824Z" fill="white"/>
<path fill-rule="evenodd" clip-rule="evenodd" d="M30.5562 9.99491C30.5691 9.79976 30.5978 9.61441 30.6396 9.43835C30.6715 9.44129 31.8137 9.55148 32.0662 10.6536C32.0662 10.6536 31.551 10.0498 30.5562 9.99491Z" fill="#E1E3E8"/>
<path fill-rule="evenodd" clip-rule="evenodd" d="M36.5523 9.28235C36.5523 9.28235 36.9534 10.8685 36.0374 11.5419C36.0374 11.5419 37.3708 11.7774 37.4387 9.59234C37.1867 9.41139 36.8821 9.29875 36.5523 9.28235Z" fill="#E1E3E8"/>
<path fill-rule="evenodd" clip-rule="evenodd" d="M30.6791 12.6116H31.7161H36.4677H38.0461C38.6021 12.6116 39.0529 12.1608 39.0529 11.6045C39.0529 11.521 39.0429 11.4397 39.0238 11.3621C38.9151 11.8011 38.5186 12.1265 38.0461 12.1265H36.4677H31.7161H30.6791C30.3253 12.1265 30.0041 11.9865 29.7683 11.7588C29.5765 11.5734 29.4411 11.3305 29.3902 11.058C29.3755 11.1363 29.3677 11.2174 29.3677 11.3001C29.3677 11.5861 29.4593 11.8503 29.6142 12.0658C29.8525 12.3964 30.2408 12.6116 30.6791 12.6116Z" fill="#E1E3E8"/>
<path fill-rule="evenodd" clip-rule="evenodd" d="M13.1692 5.49477C14.3151 5.55157 15.2583 6.38065 15.4897 7.47197C16.2891 7.51188 16.925 8.17274 16.925 8.98224C16.925 9.81768 16.248 10.4947 15.4128 10.4947H13.0426H5.90653H4.34876C3.26112 10.4947 2.37939 9.61298 2.37939 8.52534C2.37939 7.49988 3.16318 6.65758 4.16414 6.56454C4.50155 1.49702 11.6592 0.675775 13.1692 5.49477Z" fill="white"/>
<path fill-rule="evenodd" clip-rule="evenodd" d="M4.16406 6.56482C4.18365 6.27172 4.22675 5.99357 4.28967 5.72913C4.33742 5.73353 6.05312 5.89881 6.43215 7.55428C6.43215 7.55428 5.65841 6.64733 4.16406 6.56482Z" fill="#E1E3E8"/>
<path fill-rule="evenodd" clip-rule="evenodd" d="M13.1692 5.49475C13.1692 5.49475 13.7718 7.87695 12.3962 8.8882C12.3962 8.8882 14.3987 9.24152 14.5005 5.96022C14.122 5.68819 13.6648 5.51924 13.1692 5.49475Z" fill="#E1E3E8"/>
<path fill-rule="evenodd" clip-rule="evenodd" d="M4.34876 10.4947H5.90629H13.0423H15.4128C16.248 10.4947 16.925 9.8177 16.925 8.9825C16.925 8.85689 16.9098 8.73495 16.8812 8.61815C16.7181 9.27755 16.1226 9.76652 15.4128 9.76652H13.0423H5.90629H4.34876C3.81743 9.76652 3.33531 9.55595 2.98076 9.21389C2.69305 8.93549 2.48958 8.57065 2.41294 8.16125C2.3909 8.27927 2.37939 8.40097 2.37939 8.52535C2.37939 8.95459 2.51676 9.35149 2.74962 9.67519C3.10735 10.1715 3.69035 10.4947 4.34876 10.4947Z" fill="#E1E3E8"/>
</g>
<defs>
<clipPath id="clip0_1_193">
<rect width="40" height="40" fill="white"/>
</clipPath>
</defs>
</svg>
