<svg width="40" height="40" viewBox="0 0 40 40" fill="none" xmlns="http://www.w3.org/2000/svg">
<g clip-path="url(#clip0_1_1477)">
<path d="M7.0421 34.9456L32.0205 35.7538C36.3629 32.2449 39.1407 26.8769 39.1407 20.8593C39.1407 10.2881 30.5711 1.71851 19.9999 1.71851C9.42874 1.71851 0.859131 10.2881 0.859131 20.8593C0.859209 26.4319 3.2414 31.4476 7.0421 34.9456Z" fill="#FC8A5A"/>
<path d="M19.0713 2.62964H21.8644V4.81815H19.0713V2.62964Z" fill="#1E9EF4"/>
<path d="M18.9251 2.62964H17.0918C16.4875 2.62964 15.9976 3.11956 15.9976 3.72386C15.9976 4.32823 16.4875 4.81808 17.0918 4.81808H18.9251C19.5294 4.81808 20.0194 4.32815 20.0194 3.72386C20.0194 3.11956 19.5295 2.62964 18.9251 2.62964Z" fill="#49B1F7"/>
<path d="M7.22707 5.78801C7.22145 5.67808 7.08942 5.6241 7.0095 5.6998C6.80864 5.88996 6.39793 6.15347 5.56996 6.3648C4.46184 6.64762 4.37543 7.21027 4.41293 7.69816C4.43403 7.97301 4.59262 8.21863 4.832 8.35519C4.9677 8.43262 5.12254 8.47121 5.27864 8.46457C7.16043 8.38418 7.26684 6.55957 7.22707 5.78801Z" fill="#88CE65"/>
<path d="M5.55962 9.39075C5.30306 9.53669 5.01361 9.60294 4.72689 9.59106C4.75923 9.74778 4.75548 9.85005 4.7497 9.89997C4.63384 9.92083 4.31517 9.99044 3.99259 10.1701C3.46118 10.4661 3.18025 10.9194 3.18025 11.4811L3.18009 11.6144C3.1779 12.9393 3.17353 15.674 5.0115 17.2002C5.05376 17.2061 5.09587 17.2129 5.13775 17.2222C6.07001 17.4268 7.06368 17.0615 7.6354 16.2454C8.3604 15.2104 9.10509 13.8624 9.10509 12.6918V11.4567C9.10493 9.45888 6.96728 8.59013 5.55962 9.39075Z" fill="#FF4155"/>
<path d="M4.44594 17.2221C4.67422 17.1719 4.90922 17.1719 5.1375 17.2221C3.17141 15.6796 3.24266 12.7958 3.24266 11.481C3.24266 10.1662 4.80312 9.95458 4.80312 9.95458C4.80312 9.95458 4.83961 9.83763 4.79125 9.5931C4.52609 9.59302 4.26094 9.5256 4.02391 9.39075C2.61625 8.59013 0.478516 9.45888 0.478516 11.4567V12.6918C0.478516 13.8624 1.22312 15.2103 1.9482 16.2454C2.52 17.0615 3.51367 17.4268 4.44594 17.2221Z" fill="#E80054"/>
<path d="M3.88467 11.5744C3.9617 11.9058 3.75545 12.2369 3.42404 12.3138C3.09264 12.3909 2.76154 12.1846 2.68459 11.8532C2.60756 11.5218 2.81381 11.1907 3.14521 11.1138C3.47662 11.0368 3.80764 11.2431 3.88467 11.5744Z" fill="#E80054"/>
<path d="M4.5706 13.4308C4.68218 12.8752 4.3222 12.3343 3.76657 12.2227C3.21094 12.1112 2.67006 12.4711 2.55848 13.0268C2.4469 13.5824 2.80687 14.1233 3.36251 14.2349C3.91814 14.3464 4.45902 13.9865 4.5706 13.4308Z" fill="#E80054"/>
<path d="M4.24304 15.7712C4.71531 15.5563 4.92398 14.9993 4.70913 14.527C4.49427 14.0547 3.93725 13.8461 3.46498 14.0609C2.99271 14.2758 2.78404 14.8328 2.99889 15.3051C3.21375 15.7773 3.77077 15.986 4.24304 15.7712Z" fill="#E80054"/>
<path d="M6.89115 11.988C7.2617 11.988 7.56209 11.6876 7.56209 11.3171C7.56209 10.9465 7.2617 10.6461 6.89115 10.6461C6.5206 10.6461 6.22021 10.9465 6.22021 11.3171C6.22021 11.6876 6.5206 11.988 6.89115 11.988Z" fill="#FF7186"/>
<path d="M4.79166 10.5524C5.24156 10.5524 5.60627 10.318 5.60627 10.0289C5.60627 9.73984 5.24156 9.50549 4.79166 9.50549C4.34176 9.50549 3.97705 9.73984 3.97705 10.0289C3.97705 10.318 4.34176 10.5524 4.79166 10.5524Z" fill="#E80054"/>
<path d="M38.353 11.4388L38.2358 11.2985V14.1809C38.2358 14.4223 38.0393 14.6188 37.798 14.6188L37.788 14.6192C37.3322 14.658 36.3737 14.4765 34.9626 14.9786C34.6509 15.0896 34.3204 15.1324 33.9936 15.11C33.9995 15.191 34.0026 15.2345 34.0026 15.2345C34.0026 15.2345 33.1069 16.0392 34.0026 16.7721H38.2677C38.9574 16.7721 39.5217 16.2078 39.5217 15.5181V11.4388C38.826 12.3712 38.353 11.4388 38.353 11.4388Z" fill="#FF9A70"/>
<path d="M38.2675 7.91138H38.2356V11.3766L38.3528 11.5169C38.3528 11.5169 38.8258 12.4494 39.5215 11.5169V9.16528C39.5215 8.47567 38.9572 7.91138 38.2675 7.91138Z" fill="#FFB393"/>
<path d="M34.1587 15.2345C34.1587 15.2345 34.1558 15.1934 34.1503 15.1166C33.8811 15.1157 33.6121 15.0701 33.3559 14.9791C31.9406 14.4764 30.9829 14.6585 30.5296 14.6192L30.5196 14.6188C30.2782 14.6188 30.0818 14.4224 30.0818 14.1809V7.91138H30.0499C29.3602 7.91138 28.7959 8.47567 28.7959 9.16536V15.5183C28.7959 16.2079 29.3602 16.7722 30.0499 16.7722H34.1587C33.263 16.0393 34.1587 15.2345 34.1587 15.2345Z" fill="#FFB393"/>
<path d="M34.1587 7.91565L33.4415 7.64237C32.7669 7.38534 32.0509 7.25354 31.329 7.25354H30.5196C30.213 7.25354 29.9646 7.50206 29.9646 7.80854V14.1807C29.9646 14.4873 30.2131 14.7358 30.5196 14.7358H31.2994C32.1974 14.7358 32.8905 14.9385 33.3112 15.0874C33.5833 15.1839 33.8694 15.2344 34.1582 15.2344H34.1588L34.1798 15.0555C34.4587 12.6833 34.4517 10.2862 34.1587 7.91565Z" fill="#D3DCFB"/>
<path d="M37.7978 7.25354H36.9885C36.2665 7.25354 35.5506 7.38526 34.876 7.64237L34.1587 7.91565V15.2345C34.4462 15.2345 34.7309 15.1853 35.0017 15.0889C35.421 14.9397 36.1139 14.7358 37.018 14.7358H37.7978C38.1044 14.7358 38.3529 14.4873 38.3529 14.1807V7.80854C38.3529 7.50206 38.1044 7.25354 37.7978 7.25354Z" fill="#E9EFFF"/>
<path d="M4.80397 10.2046C4.48037 10.2046 4.21803 9.94232 4.21803 9.61865C4.21803 8.11834 2.88178 7.78365 2.72944 7.75045C2.41233 7.68584 2.20959 7.37677 2.2742 7.05966C2.33881 6.74248 2.64998 6.5381 2.96725 6.60294C3.80522 6.7738 5.38991 7.6238 5.38991 9.61865C5.38991 9.94224 5.12756 10.2046 4.80397 10.2046Z" fill="#B4D667"/>
<path d="M32.3891 9.67456H31.7788C31.4552 9.67456 31.1929 9.41229 31.1929 9.08862C31.1929 8.76495 31.4552 8.50269 31.7788 8.50269H32.3891C32.7127 8.50269 32.9751 8.76495 32.9751 9.08862C32.9751 9.41222 32.7127 9.67456 32.3891 9.67456Z" fill="#BEC8F7"/>
<path d="M32.3891 11.517H31.7788C31.4552 11.517 31.1929 11.2547 31.1929 10.931C31.1929 10.6074 31.4552 10.3451 31.7788 10.3451H32.3891C32.7127 10.3451 32.9751 10.6074 32.9751 10.931C32.9751 11.2546 32.7127 11.517 32.3891 11.517Z" fill="#BEC8F7"/>
<path d="M32.3891 13.3594H31.7788C31.4552 13.3594 31.1929 13.0971 31.1929 12.7734C31.1929 12.4498 31.4552 12.1875 31.7788 12.1875H32.3891C32.7127 12.1875 32.9751 12.4498 32.9751 12.7734C32.9751 13.097 32.7127 13.3594 32.3891 13.3594Z" fill="#BEC8F7"/>
<path d="M36.5388 9.67456H35.9285C35.6049 9.67456 35.3425 9.41229 35.3425 9.08862C35.3425 8.76495 35.6049 8.50269 35.9285 8.50269H36.5388C36.8624 8.50269 37.1247 8.76495 37.1247 9.08862C37.1247 9.41222 36.8624 9.67456 36.5388 9.67456Z" fill="#BEC8F7"/>
<path d="M36.5388 11.517H35.9285C35.6049 11.517 35.3425 11.2547 35.3425 10.931C35.3425 10.6074 35.6049 10.3451 35.9285 10.3451H36.5388C36.8624 10.3451 37.1247 10.6074 37.1247 10.931C37.1247 11.2546 36.8624 11.517 36.5388 11.517Z" fill="#BEC8F7"/>
<path d="M36.5388 13.3594H35.9285C35.6049 13.3594 35.3425 13.0971 35.3425 12.7734C35.3425 12.4498 35.6049 12.1875 35.9285 12.1875H36.5388C36.8624 12.1875 37.1247 12.4498 37.1247 12.7734C37.1247 13.097 36.8624 13.3594 36.5388 13.3594Z" fill="#BEC8F7"/>
<path d="M28.9995 20.6649C25.8383 25.0049 25.1107 28.059 28.3143 29.1842C31.2305 30.2085 33.4088 30.9353 33.7762 34.1435C37.0967 30.7012 39.1408 26.0197 39.1408 20.8592C39.1408 20.6031 39.1342 20.3485 39.1243 20.0949C36.7131 19.0816 31.4021 17.3664 28.9995 20.6649Z" fill="#FA7A48"/>
<path d="M10.7099 29.1842C13.9134 28.059 13.1859 25.005 10.0247 20.665C7.91344 17.7664 3.55672 18.7393 0.895 19.7055C0.872266 20.0873 0.859375 20.4717 0.859375 20.8592C0.859375 25.5859 2.57367 29.9114 5.41328 33.2504C6.06117 30.7875 8.08656 30.1056 10.7099 29.1842Z" fill="#FA7A48"/>
<path d="M23.2417 29.3736C22.7443 28.8762 22.5393 28.1455 22.4585 27.7239C22.2231 27.9639 21.9846 28.174 21.7535 28.3535C21.0915 28.8676 20.2746 29.1467 19.4334 29.1467C19.3771 29.1467 19.3209 29.1452 19.2648 29.1427L19.291 29.188C19.3047 29.5669 19.3897 32.9643 18.1111 34.2954C18.0421 34.3112 17.9056 34.3479 17.7485 34.4166C18.2733 34.6118 18.8405 34.7197 19.4333 34.7197C21.9957 34.7197 24.0913 32.7263 24.2573 30.2058C24.0912 30.1104 23.7469 29.8788 23.2417 29.3736Z" fill="#FFAA7B"/>
<path d="M16.4084 27.7239C16.3276 28.1455 16.1226 28.8762 15.6252 29.3736C15.1201 29.8787 14.7758 30.1104 14.6096 30.2059C14.7422 32.2204 16.1081 33.897 17.9592 34.4894C18.0909 34.4442 18.1836 34.4272 18.1836 34.4272C19.6247 32.9862 19.4335 29.1468 19.4335 29.1468C18.5923 29.1468 17.7754 28.8675 17.1134 28.3536C16.8823 28.1741 16.6438 27.964 16.4084 27.7239Z" fill="#FC9460"/>
<path d="M24.3719 30.2647C24.3719 30.2647 24.3289 30.2475 24.2463 30.1993C24.0221 32.6619 21.9543 34.5917 19.4333 34.5917C18.9053 34.5917 18.3976 34.5061 17.9221 34.3496C17.6524 34.4406 17.2228 34.6443 17.0192 35.0597C16.8582 35.3887 16.8718 35.7786 17.0593 36.2212C16.9687 36.2262 16.8524 36.2346 16.7173 36.2479C17.5403 36.6401 18.4608 36.8608 19.4332 36.8608C22.7997 36.8608 25.5512 34.2297 25.7444 30.9117C24.9116 30.5396 24.3719 30.2647 24.3719 30.2647Z" fill="#73C3F9"/>
<path d="M18.1836 34.4272C16.2578 33.9126 14.8063 32.2394 14.6205 30.1993C14.5379 30.2475 14.495 30.2647 14.495 30.2647C14.495 30.2647 13.9553 30.5395 13.1223 30.9117C13.2658 33.3758 14.821 35.4601 16.9905 36.3702C17.1755 36.3578 17.2832 36.3574 17.2832 36.3574C16.4385 34.7418 18.1835 34.4272 18.1836 34.4272Z" fill="#49B1F7"/>
<path d="M26.4447 14.87C26.125 13.9786 25.17 11.8948 23.0874 11.339C22.9765 11.3094 22.9471 11.1658 23.0374 11.0949L23.3495 10.8497C23.491 10.7385 23.4366 10.5126 23.2599 10.4785C22.4591 10.324 20.6898 10.0587 18.9544 10.3001C18.8191 10.5693 18.7236 10.8941 18.7818 11.231C18.8647 11.7111 19.2358 12.1022 19.8847 12.3931C20.2979 12.5783 20.5233 12.8194 20.5543 13.1097C20.6298 13.8142 19.5958 14.7424 19.1911 15.0407L19.1251 15.0893L19.1271 15.2473C19.4995 15.2975 19.8827 15.2648 20.2402 15.1459C21.0188 14.8869 22.1383 14.6646 23.0497 15.0747C23.5033 15.279 24.242 15.9334 24.0908 18.023C24.044 18.6687 24.3433 18.8704 24.538 19.3787C24.6559 19.6864 24.71 19.9707 24.7241 20.2558H25.343C25.3638 19.4128 25.5043 17.1814 26.3854 15.5918C26.5082 15.3707 26.53 15.108 26.4447 14.87Z" fill="#6E5D76"/>
<path d="M19.2857 15.1692C19.2857 15.1692 22.0046 13.1688 19.9499 12.2477C18.6568 11.668 18.8376 10.822 19.1492 10.2743C17.4885 10.4697 15.8248 11.1082 15.0348 12.7327C14.9402 12.9272 14.7619 13.0673 14.5524 13.1215C14.0912 13.2409 13.2615 13.6007 12.7208 14.6789C12.615 14.8898 12.597 15.1344 12.6728 15.3577C12.9357 16.1323 13.5759 18.2119 13.6427 20.2557H14.1967C14.2107 19.9663 14.2664 19.6781 14.3884 19.3645C14.5701 18.8982 14.8771 18.6603 14.8308 18.0301C14.6769 15.9352 15.4167 15.2793 15.8714 15.0748C16.725 14.6906 17.7892 14.8494 18.6808 15.1459C18.8771 15.2112 19.0812 15.2502 19.287 15.2644L19.2857 15.1692Z" fill="#56415E"/>
<path d="M25.7975 19.9148C25.5356 19.6748 24.9499 19.7965 24.7243 19.9434C24.7738 20.2513 24.7766 20.5661 24.7338 20.877L24.4676 22.8161C24.4676 22.9724 24.4627 23.1258 24.4536 23.2764C25.1028 23.4723 25.4892 22.8895 25.5435 22.4895C25.5668 22.3173 25.6051 22.1476 25.6581 21.982C25.8308 21.4427 26.4538 20.5163 25.7975 19.9148Z" fill="#FFAA7B"/>
<path d="M13.1238 19.9148C13.3858 19.6748 13.9714 19.7965 14.197 19.9434C14.1476 20.2513 14.1447 20.5661 14.1875 20.877L14.4537 22.8161C14.4537 22.9724 14.4586 23.1258 14.4677 23.2764C13.8185 23.4723 13.4322 22.8895 13.3779 22.4895C13.3545 22.3173 13.3162 22.1476 13.2633 21.982C13.0904 21.4427 12.4675 20.5163 13.1238 19.9148Z" fill="#FC9460"/>
<path d="M24.6279 19.3443C24.568 19.188 24.4925 19.0296 24.3973 18.8803C24.2361 18.6274 24.1652 18.3282 24.1868 18.0299C24.249 17.172 24.2156 15.494 23.0894 14.9872C22.1326 14.5567 20.9588 14.8059 20.2102 15.0549C19.8422 15.1773 19.4509 15.2066 19.0715 15.1436C18.3783 15.8613 18.3639 17.1992 18.418 17.9367C18.4403 18.2402 18.3656 18.5437 18.2016 18.8011C18.1071 18.9494 18.0315 19.1064 17.971 19.2618C17.7748 19.7659 17.7176 20.3125 17.7911 20.8477L18.0641 22.8363C18.0641 25.6951 19.5902 27.6381 20.8883 28.6462C20.9855 28.7217 21.0873 28.7902 21.1908 28.8554C21.3963 28.7497 21.5929 28.6256 21.7771 28.4826C23.0432 27.4995 24.5315 25.6042 24.5315 22.816L24.7978 20.8769C24.8687 20.36 24.8149 19.8321 24.6279 19.3443Z" fill="#FFC7AB"/>
<path d="M20.8993 28.4827C19.6332 27.4995 18.1447 25.6043 18.1447 22.816L17.8784 20.8766C17.8067 20.3545 17.8626 19.8213 18.0539 19.3297C18.1129 19.1781 18.1866 19.025 18.2789 18.8804C18.4389 18.6294 18.5117 18.3333 18.49 18.0373C18.4333 17.2655 18.4527 15.8184 19.2858 15.1692C19.0912 15.1549 18.8982 15.1171 18.7111 15.0549C17.9626 14.8059 16.7888 14.5567 15.832 14.9872C14.7025 15.4954 14.6722 17.1815 14.7351 18.0372C14.7568 18.3332 14.684 18.6293 14.524 18.8803C14.4318 19.025 14.358 19.1781 14.299 19.3296C14.1077 19.8212 14.0519 20.3544 14.1236 20.8765L14.3898 22.816C14.3898 25.6042 15.8783 27.4995 17.1444 28.4826C17.8052 28.9958 18.6208 29.2745 19.4607 29.2745C20.1231 29.2745 20.77 29.1005 21.3381 28.7755C21.1858 28.6884 21.0389 28.5911 20.8993 28.4827Z" fill="#FFAA7B"/>
<path d="M31.6943 34.4397C31.4344 33.4561 30.6761 32.682 29.6989 32.3986C28.238 31.975 26.7629 31.3669 25.7365 30.9081C25.4828 34.1673 22.7578 36.733 19.4335 36.733C18.6071 36.733 17.8178 36.5742 17.0942 36.2858C16.7679 36.3534 14.0812 36.9849 14.8505 39.2978C16.4892 39.7545 18.2159 40 20.0002 40C24.5537 40 28.7349 38.4089 32.0208 35.7537C31.9055 35.2603 31.7949 34.8202 31.6943 34.4397Z" fill="#49B1F7"/>
<path d="M17.2832 36.3575L17.2834 36.3565C14.9993 35.5303 13.3266 33.4269 13.1304 30.9081C12.1041 31.3669 10.629 31.9751 9.16802 32.3986C8.19083 32.682 7.43255 33.4561 7.17263 34.4397C7.13083 34.5981 7.08716 34.7671 7.04224 34.9456C9.26989 36.9958 11.985 38.5244 14.994 39.3379C14.2191 36.9089 17.2832 36.3575 17.2832 36.3575Z" fill="#1E9EF4"/>
<path d="M14.81 6.71119C14.2057 6.71119 13.7158 6.22127 13.7158 5.61697V1.83104C13.7158 1.22674 14.2057 0.736816 14.81 0.736816C15.4144 0.736816 15.9043 1.22674 15.9043 1.83104V5.61697C15.9043 6.22127 15.4143 6.71119 14.81 6.71119Z" fill="#49B1F7"/>
<path d="M16.9144 3.37616C16.3101 3.37616 15.8201 2.88631 15.8201 2.28202V6.35366C15.8201 6.95795 16.31 7.44788 16.9143 7.44788C17.5186 7.44788 18.0085 6.95795 18.0085 6.35366V2.28186C18.0086 2.88624 17.5187 3.37616 16.9144 3.37616Z" fill="#73C3F9"/>
<path d="M24.8972 6.71119C25.5016 6.71119 25.9914 6.22127 25.9914 5.61697V1.83104C25.9914 1.22674 25.5015 0.736816 24.8972 0.736816C24.2928 0.736816 23.803 1.22674 23.803 1.83104V5.61697C23.803 6.22127 24.2929 6.71119 24.8972 6.71119Z" fill="#49B1F7"/>
<path d="M22.7929 3.3762C22.1886 3.3762 21.6987 2.88628 21.6987 2.28198V6.35378C21.6987 6.95808 22.1887 7.448 22.7929 7.448C23.3972 7.448 23.8872 6.95808 23.8872 6.35378V2.28206C23.8872 2.88628 23.3972 3.3762 22.7929 3.3762Z" fill="#73C3F9"/>
<path d="M16.9144 0C16.3101 0 15.8201 0.489922 15.8201 1.09422V2.43812C15.8201 3.04242 16.31 3.53234 16.9143 3.53234C17.5186 3.53234 18.0085 3.04242 18.0085 2.43812V1.09422C18.0086 0.489922 17.5187 0 16.9144 0Z" fill="#9BD8F9"/>
<path d="M22.7929 0C22.1886 0 21.6987 0.489922 21.6987 1.09422V2.43812C21.6987 3.04242 22.1887 3.53234 22.7929 3.53234C23.3972 3.53234 23.8872 3.04242 23.8872 2.43812V1.09422C23.8872 0.489922 23.3973 0 22.7929 0Z" fill="#9BD8F9"/>
</g>
<defs>
<clipPath id="clip0_1_1477">
<rect width="40" height="40" fill="white"/>
</clipPath>
</defs>
</svg>
