<svg width="40" height="40" viewBox="0 0 40 40" fill="none" xmlns="http://www.w3.org/2000/svg">
<path d="M30.6999 40H11.4193C10.5303 40 9.80957 39.2793 9.80957 38.3903V1.60969C9.80957 0.720703 10.5303 0 11.4193 0H30.6999C31.5889 0 32.3096 0.720703 32.3096 1.60969V38.3903C32.3096 39.2793 31.5889 40 30.6999 40Z" fill="#FDAD8C"/>
<path d="M29.2462 2.5H26.3095C26.1507 2.5 25.9999 2.56898 25.896 2.68898L25.1368 3.56594C25.0329 3.68594 24.8821 3.75492 24.7233 3.75492H17.3956C17.2369 3.75492 17.086 3.68594 16.9821 3.56594L16.223 2.68898C16.1191 2.56898 15.9682 2.5 15.8095 2.5H14.5873C14.2761 2.5 14.0239 2.75227 14.0239 3.06336V12.5L15.1092 14.0473L14.0239 15.9508V20.7745L15.1093 22.5L14.0241 24.2254V34.4366C14.0241 34.7478 14.2763 35 14.5874 35H14.8096L21.0596 32.5386L27.3096 35H29.2462C29.5574 35 29.8096 34.7477 29.8096 34.4366V24.2254L28.3942 22.1478L29.8096 20.7745V3.06336C29.8096 2.75227 29.5573 2.5 29.2462 2.5Z" fill="#FA7A48"/>
<path d="M14.6533 34.4366V24.2254L15.7386 22.5L14.6533 20.7746V15.9509L15.7386 14.0473L14.6533 12.5V3.06336C14.6533 2.75219 14.9056 2.5 15.2167 2.5H12.8729C12.5618 2.5 12.3096 2.75227 12.3096 3.06336V12.5L13.3948 14.0473L12.3096 15.9508V20.7745L13.3948 22.5L12.3096 24.2254V34.4366C12.3096 34.7478 12.5618 35 12.8729 35H14.8096L14.9628 34.9397C14.7792 34.8468 14.6533 34.6564 14.6533 34.4366Z" fill="#FA7A48"/>
<path d="M22.9346 36.7935H19.1846C18.8513 36.7935 18.5811 37.0637 18.5811 37.3971C18.5811 37.7304 18.8513 38.0006 19.1846 38.0006H22.9346C23.268 38.0006 23.5382 37.7304 23.5382 37.3971C23.5383 37.0638 23.268 36.7935 22.9346 36.7935Z" fill="#F7F0FF"/>
<path d="M25.874 15.9509H29.8095V12.5H25.3863C25.1068 12.5 24.8724 12.2893 24.8425 12.0115L24.4108 7.98852C24.3809 7.7107 24.1465 7.5 23.867 7.5H18.252C17.9726 7.5 17.7381 7.7107 17.7083 7.98852L17.2766 12.0115C17.2467 12.2893 17.0123 12.5 16.7328 12.5H14.6533L13.3948 14.0473L14.6533 15.9508H16.2451C16.5702 15.9508 16.8235 16.2327 16.7888 16.556L16.3885 20.286C16.3587 20.5639 16.1242 20.7745 15.8448 20.7745H14.6532L13.3948 22.5L14.6533 24.2254H15.3571C15.6823 24.2254 15.9356 24.5073 15.9009 24.8306L14.8095 35H27.3095L26.2182 24.8306C26.1835 24.5073 26.4368 24.2254 26.762 24.2254H29.8095V20.7746H26.2742C25.9948 20.7746 25.7603 20.5639 25.7305 20.2861L25.3302 16.5561C25.2956 16.2328 25.5488 15.9509 25.874 15.9509Z" fill="#F7F0FF"/>
<path d="M12.3096 12.5H14.6533V15.9509H12.3096V12.5Z" fill="#FDAD8C"/>
<path d="M12.3096 20.7747H14.6533V24.2254H12.3096V20.7747Z" fill="#FDAD8C"/>
<path d="M14.8264 34.8429L14.8096 35L14.9628 34.9397C14.9125 34.9142 14.8666 34.8815 14.8264 34.8429Z" fill="#FDAD8C"/>
<path d="M33.5551 5.15643C33.4694 5.13448 29.2808 5.15627 29.2808 10.3501C29.2808 13.8143 33.5494 18.5885 33.5494 18.5885C35.0301 16.7516 37.3094 13.3758 37.3094 10C37.3094 7.6687 35.7138 5.71002 33.5551 5.15643Z" fill="#FD6470"/>
<path d="M29.7977 10.3502C29.6858 7.89919 31.2952 5.74239 33.5552 5.15653C33.1554 5.05403 32.7362 4.99966 32.3043 5.00013C29.4252 5.00302 27.1863 7.47411 27.3175 10.3503C27.5003 14.3573 30.7479 18.2893 31.9045 19.5685C32.1212 19.8081 32.4977 19.8082 32.7144 19.5685C32.9308 19.3291 33.2205 18.9968 33.5495 18.5886C32.1199 16.8151 29.9463 13.6075 29.7977 10.3502Z" fill="#FD4852"/>
<path d="M32.3093 12.5347C33.6996 12.5347 34.8267 11.4076 34.8267 10.0173C34.8267 8.62705 33.6996 7.5 32.3093 7.5C30.919 7.5 29.792 8.62705 29.792 10.0173C29.792 11.4076 30.919 12.5347 32.3093 12.5347Z" fill="#F7F0FF"/>
<path d="M13.3948 27.5C13.3948 30.456 10.9985 32.8522 8.04257 32.8522C5.08663 32.8522 4.37085 30.456 4.37085 27.5C4.37085 24.5441 5.08671 22.1478 8.04265 22.1478C10.9986 22.1478 13.3948 24.5441 13.3948 27.5Z" fill="#5BBAFB"/>
<path d="M5.03418 27.5C5.03418 24.9467 6.82223 22.8109 9.21449 22.2766C5.86473 21.5285 2.69043 24.0776 2.69043 27.5C2.69043 30.9191 5.8609 33.4725 9.21449 32.7235C6.82223 32.1892 5.03418 30.0534 5.03418 27.5Z" fill="#49B1F7"/>
<path d="M21.0594 10.6443C20.726 10.6443 20.4558 10.374 20.4558 10.0407V9.99996C20.4558 9.66652 20.726 9.39636 21.0594 9.39636C21.3928 9.39636 21.663 9.6666 21.663 9.99996V10.0406C21.663 10.374 21.3928 10.6443 21.0594 10.6443Z" fill="#FFCCB3"/>
<path d="M21.0594 30.641C20.726 30.641 20.4558 30.3707 20.4558 30.0374V29.9597C20.4558 29.6263 20.726 29.3561 21.0594 29.3561C21.3928 29.3561 21.663 29.6264 21.663 29.9597V30.0374C21.663 30.3708 21.3928 30.641 21.0594 30.641ZM21.0594 28.1414C20.726 28.1414 20.4558 27.8711 20.4558 27.5378V27.4602C20.4558 27.1267 20.726 26.8566 21.0594 26.8566C21.3928 26.8566 21.663 27.1268 21.663 27.4602V27.5378C21.663 27.8711 21.3928 28.1414 21.0594 28.1414ZM21.0594 25.6418C20.726 25.6418 20.4558 25.3716 20.4558 25.0382V24.9606C20.4558 24.6271 20.726 24.357 21.0594 24.357C21.3928 24.357 21.663 24.6272 21.663 24.9606V25.0382C21.663 25.3716 21.3928 25.6418 21.0594 25.6418ZM21.0594 23.1422C20.726 23.1422 20.4558 22.872 20.4558 22.5386V22.4609C20.4558 22.1274 20.726 21.8573 21.0594 21.8573C21.3928 21.8573 21.663 22.1275 21.663 22.4609V22.5385C21.663 22.872 21.3928 23.1422 21.0594 23.1422ZM21.0594 20.6426C20.726 20.6426 20.4558 20.3724 20.4558 20.039V19.9614C20.4558 19.6279 20.726 19.3578 21.0594 19.3578C21.3928 19.3578 21.663 19.628 21.663 19.9614V20.039C21.663 20.3724 21.3928 20.6426 21.0594 20.6426ZM21.0594 18.143C20.726 18.143 20.4558 17.8728 20.4558 17.5394V17.4617C20.4558 17.1283 20.726 16.8581 21.0594 16.8581C21.3928 16.8581 21.663 17.1284 21.663 17.4617V17.5394C21.663 17.8728 21.3928 18.143 21.0594 18.143ZM21.0594 15.6435C20.726 15.6435 20.4558 15.3732 20.4558 15.0399V14.9622C20.4558 14.6288 20.726 14.3586 21.0594 14.3586C21.3928 14.3586 21.663 14.6289 21.663 14.9622V15.0399C21.663 15.3732 21.3928 15.6435 21.0594 15.6435ZM21.0594 13.1439C20.726 13.1439 20.4558 12.8736 20.4558 12.5403V12.4626C20.4558 12.1292 20.726 11.859 21.0594 11.859C21.3928 11.859 21.663 12.1292 21.663 12.4626V12.5403C21.663 12.8736 21.3928 13.1439 21.0594 13.1439Z" fill="#FFCCB3"/>
<path d="M21.0594 33.1036C20.726 33.1036 20.4558 32.8334 20.4558 32.5001V32.4594C20.4558 32.126 20.726 31.8558 21.0594 31.8558C21.3928 31.8558 21.663 32.1261 21.663 32.4594V32.5C21.663 32.8334 21.3928 33.1036 21.0594 33.1036Z" fill="#FFCCB3"/>
<path d="M4.97444 27.8447C4.62968 27.8447 4.37085 27.5631 4.37085 27.2411C4.37085 26.5838 6.1653 25.3761 8.02515 25.3761C9.90726 25.3761 11.679 26.5995 11.679 27.2408C11.679 27.5857 11.3972 27.8444 11.0754 27.8444C10.5209 27.8444 9.98812 26.5828 8.02507 26.5828C6.05569 26.5828 5.53952 27.8447 4.97444 27.8447Z" fill="white"/>
<path d="M6.89046 29.5465C6.54569 29.5465 6.28687 29.2648 6.28687 28.9429C6.28687 28.3508 7.28733 27.8704 8.02515 27.8704C8.73999 27.8704 9.76312 28.3418 9.76312 28.9428C9.76312 29.2877 9.48132 29.5464 9.15952 29.5464C8.69101 29.5464 8.67882 29.0771 8.02515 29.0771C7.36968 29.077 7.36155 29.5465 6.89046 29.5465Z" fill="white"/>
</svg>
