<svg width="40" height="40" viewBox="0 0 40 40" fill="none" xmlns="http://www.w3.org/2000/svg">
<g clip-path="url(#clip0_1_330)">
<path fill-rule="evenodd" clip-rule="evenodd" d="M20.5316 37.1431C21.0126 37.5369 21.252 37.751 21.4936 37.7602C21.7329 37.751 21.9745 37.5368 22.4556 37.1431L35.1376 24.157C38.8886 20.1438 38.8886 13.5748 35.1376 9.55924C31.7295 5.91205 26.1329 6.7226 22.582 10.2154L21.9147 10.8717C21.5281 11.2516 21.4545 11.2516 21.0586 10.8624L20.4027 10.2154C16.8588 6.72025 11.2553 5.91205 7.8472 9.55924C4.09618 13.5748 4.09618 20.1438 7.8472 24.157L9.36829 25.7159L20.5316 37.1431Z" fill="#FA7A48"/>
<path fill-rule="evenodd" clip-rule="evenodd" d="M24.1446 8.9376C25.9694 11.5855 27.028 14.7306 27.028 18.1038C27.028 18.4722 27.0142 18.836 26.9889 19.1953C26.7864 22.1908 25.7462 24.9768 24.0847 27.3553C23.3529 28.403 22.5014 29.3723 21.5442 30.2473C20.5225 31.1821 19.3833 32.0064 18.1475 32.6995C17.7241 32.9367 17.2892 33.1599 16.8428 33.3672L20.5317 37.1433C21.0126 37.537 21.252 37.7512 21.4936 37.7603C21.7329 37.7511 21.9746 37.537 22.4556 37.1433L26.3354 33.1692L35.1375 24.157C38.1015 20.9865 38.7229 16.2181 37.0039 12.3775C36.5459 11.3575 35.9246 10.402 35.1375 9.55924C34.6197 9.00666 34.0514 8.55533 33.4484 8.2008C31.4832 7.04728 29.1428 6.91603 26.9336 7.59291C25.9648 7.88994 25.019 8.34588 24.1446 8.9376Z" fill="#FFB997"/>
<path d="M25.233 22.7511C25.2294 22.7511 25.2258 22.751 25.2223 22.751C25.0058 22.7472 24.808 22.6276 24.7038 22.4377L21.5836 16.7489L19.2605 20.8101C19.1552 20.9941 18.9612 21.1094 18.7492 21.1139C18.5357 21.1178 18.3385 21.0112 18.2257 20.8318L16.7827 18.5376L15.6937 20.3472C15.5846 20.5287 15.3883 20.6397 15.1766 20.6397H11.4049C11.0715 20.6397 10.8013 20.3693 10.8013 20.0358C10.8013 19.7022 11.0715 19.4319 11.4049 19.4319H14.8354L16.2542 17.0741C16.3623 16.8945 16.5557 16.7837 16.7653 16.7817C16.7674 16.7816 16.7693 16.7816 16.7713 16.7816C16.9786 16.7816 17.1716 16.8881 17.2821 17.0639L18.712 19.3371L21.0708 15.2136C21.1784 15.0255 21.3784 14.9097 21.5946 14.9097C21.5965 14.9097 21.5982 14.9097 21.6001 14.9097C21.8185 14.9117 22.0188 15.0315 22.1238 15.2231L25.2544 20.931L26.8338 18.2784C26.9426 18.0956 27.1396 17.9836 27.3524 17.9836H32.3828C32.7162 17.9836 32.9864 18.254 32.9864 18.5875C32.9864 18.921 32.7162 19.1914 32.3828 19.1914H27.6954L25.7515 22.4562C25.6425 22.6392 25.4454 22.7511 25.233 22.7511Z" fill="#F8F2F0"/>
<path fill-rule="evenodd" clip-rule="evenodd" d="M33.4484 13.4252C37.0568 13.4252 40.0001 10.4803 40.0001 6.86773C40.0001 3.25742 37.0568 0.3125 33.4484 0.3125C29.8378 0.3125 26.8945 3.25742 26.8945 6.86773C26.8945 10.4803 29.8378 13.4252 33.4484 13.4252Z" fill="#F8F2F0"/>
<path fill-rule="evenodd" clip-rule="evenodd" d="M31.0987 0.745391C33.4022 1.76313 35.0085 4.06563 35.0085 6.7457C35.0085 6.78711 35.0085 6.82859 35.0062 6.86773C34.9924 7.62984 34.8497 8.35977 34.5966 9.03438C33.9431 10.7935 32.5531 12.1957 30.8042 12.868C31.6119 13.2273 32.5071 13.4252 33.4483 13.4252C34.7577 13.4252 35.9797 13.0407 37.0037 12.3776C38.8079 11.2079 39.9999 9.17711 39.9999 6.86773C39.9999 3.2482 37.0658 0.3125 33.4483 0.3125C32.6198 0.3125 31.8283 0.464453 31.0987 0.745391Z" fill="#D6DCEA"/>
<path d="M35.8324 6.26373H34.0519V4.48232C34.0519 4.14881 33.7817 3.87842 33.4483 3.87842C33.115 3.87842 32.8448 4.14881 32.8448 4.48232V6.26381H31.0643C30.7309 6.26381 30.4607 6.5342 30.4607 6.86771C30.4607 7.20123 30.7309 7.47162 31.0643 7.47162H32.8448V9.25311C32.8448 9.58662 33.115 9.85701 33.4483 9.85701C33.7817 9.85701 34.0519 9.58662 34.0519 9.25311V7.47154H35.8324C36.1658 7.47154 36.436 7.20115 36.436 6.86764C36.436 6.53412 36.1658 6.26373 35.8324 6.26373Z" fill="#FA7A48"/>
<path fill-rule="evenodd" clip-rule="evenodd" d="M5.58976 27.1757L4.24585 31.5366L5.58976 36.1577L11.7801 37.8431L16.8013 39.2085C19.7308 40.1203 21.0241 39.5999 23.7188 38.7342L33.5934 35.566C36.4285 34.6566 36.0051 30.7561 31.856 32.0892L26.3354 33.1691L25.4333 33.3463C24.094 33.6065 23.9098 33.7147 22.5591 33.5052L18.1476 32.6994L17.3467 32.552C15.538 31.9741 16.2421 29.5519 17.8208 29.7913C18.8885 29.9272 20.3199 30.1205 21.5441 30.2472C21.5694 30.2495 21.5948 30.2518 21.6178 30.2541C23.9812 30.4935 24.9293 28.7275 24.0848 27.3552C23.7649 26.8326 23.1826 26.3652 22.3197 26.0912L18.9944 25.481C16.8381 25.085 15.3055 25.5777 11.9595 26.128L10.0748 26.4389L5.58976 27.1757Z" fill="#FED1A3"/>
<path fill-rule="evenodd" clip-rule="evenodd" d="M0 26.3951V37.0211C0 37.1546 0.140391 37.2629 0.310703 37.2629H5.2768C5.44938 37.2629 5.58977 37.1547 5.58977 37.0211V36.1577V27.1757V26.3951C5.58977 26.2616 5.44938 26.1533 5.2768 26.1533H0.310703C0.140391 26.1534 0 26.2616 0 26.3951Z" fill="#FFDDCC"/>
<path fill-rule="evenodd" clip-rule="evenodd" d="M0 35.3887V37.0212C0 37.1547 0.140391 37.263 0.310703 37.263H5.2768C5.44938 37.263 5.58977 37.1548 5.58977 37.0212V36.1577V35.3887C5.58977 35.5199 5.44938 35.6305 5.2768 35.6305H0.310703C0.140391 35.6305 0 35.5199 0 35.3887Z" fill="#FFB79B"/>
<path fill-rule="evenodd" clip-rule="evenodd" d="M5.5896 35.3887V36.1578L11.7799 37.8432L16.8012 39.2086C19.7306 40.1204 21.0239 39.6 23.7187 38.7343L33.5933 35.5661C35.1926 35.0549 35.7541 33.5905 35.1973 32.6488C34.9234 33.1922 34.3873 33.6803 33.5933 33.9336L23.7187 37.1018C21.0239 37.9652 19.7306 38.4879 16.8012 37.5761L11.7799 36.2107L5.5896 34.5229V35.3887Z" fill="#FFBC85"/>
<path fill-rule="evenodd" clip-rule="evenodd" d="M17.8207 28.1589C16.5688 27.9701 15.867 29.4506 16.5297 30.3601C16.7943 29.9663 17.25 29.7062 17.8207 29.7913C18.8884 29.9272 20.3199 30.1206 21.5441 30.2472L21.6177 30.2541C23.8706 30.4821 24.8372 28.891 24.1928 27.5532C24.0156 27.894 23.7188 28.1864 23.3092 28.3821C22.8719 28.5917 22.3035 28.6906 21.6177 28.6216L21.5441 28.6147C20.3199 28.4881 18.8885 28.2947 17.8207 28.1589Z" fill="#FFBC85"/>
</g>
<defs>
<clipPath id="clip0_1_330">
<rect width="40" height="40" fill="white"/>
</clipPath>
</defs>
</svg>
