<svg width="40" height="40" viewBox="0 0 40 40" fill="none" xmlns="http://www.w3.org/2000/svg">
<g clip-path="url(#clip0_1_1044)">
<path d="M31.875 33.75H2.34375C1.30828 33.75 0.46875 32.9105 0.46875 31.875V2.34375C0.46875 1.30828 1.30828 0.46875 2.34375 0.46875H31.875C32.9105 0.46875 33.75 1.30828 33.75 2.34375V31.875C33.75 32.9105 32.9105 33.75 31.875 33.75Z" fill="#FDAD8C"/>
<path d="M31.875 34.0625H2.34375C1.1375 34.0625 0.15625 33.0812 0.15625 31.875V2.34375C0.15625 1.1375 1.1375 0.15625 2.34375 0.15625H31.875C33.0812 0.15625 34.0625 1.1375 34.0625 2.34375V31.875C34.0625 33.0812 33.0812 34.0625 31.875 34.0625ZM2.34375 0.78125C1.48219 0.78125 0.78125 1.48219 0.78125 2.34375V31.875C0.78125 32.7366 1.48219 33.4375 2.34375 33.4375H31.875C32.7366 33.4375 33.4375 32.7366 33.4375 31.875V2.34375C33.4375 1.48219 32.7366 0.78125 31.875 0.78125H2.34375Z" fill="#FA7A48"/>
<path d="M21.1388 12.2352H13.08C12.3257 12.2352 11.7141 11.6236 11.7141 10.8693V2.81052C11.7141 2.05614 12.3257 1.44458 13.08 1.44458H21.1388C21.8932 1.44458 22.5047 2.05614 22.5047 2.81052V10.8693C22.5047 11.6236 21.8932 12.2352 21.1388 12.2352Z" fill="#FFF7E6"/>
<path d="M20.95 6.65094L17.9146 2.85688C17.7229 2.6161 17.4189 2.46985 17.1093 2.46985C16.7946 2.46985 16.4926 2.62016 16.304 2.85688L13.2687 6.65094C12.9129 7.09563 12.9851 7.74469 13.4298 8.10047C13.8746 8.45641 14.5234 8.38422 14.8793 7.93938L16.0781 6.44094V10.1788C16.0781 10.7483 16.5398 11.21 17.1093 11.21C17.6789 11.21 18.1406 10.7483 18.1406 10.1788V6.44079L19.3393 7.93922C19.6954 8.38438 20.3448 8.45579 20.7889 8.10032C21.2335 7.74469 21.3057 7.09579 20.95 6.65094Z" fill="#FFF7E6"/>
<path d="M21.1388 12.5477H13.08C12.1546 12.5477 11.4016 11.7949 11.4016 10.8694V2.81036C11.4016 1.88489 12.1546 1.13208 13.08 1.13208H21.1388C22.0643 1.13208 22.8172 1.88489 22.8172 2.81036V10.8693C22.8172 11.7947 22.0643 12.5477 21.1388 12.5477ZM13.08 1.75708C12.4993 1.75708 12.0266 2.22958 12.0266 2.81036V10.8693C12.0266 11.45 12.4991 11.9225 13.08 11.9225H21.1388C21.7196 11.9225 22.1922 11.45 22.1922 10.8693V2.81036C22.1922 2.22958 21.7197 1.75708 21.1388 1.75708H13.08Z" fill="#FA7A48"/>
<path d="M17.1095 11.5223C16.3686 11.5223 15.7658 10.9197 15.7658 10.1786V7.33172L15.1234 8.13454C14.8992 8.415 14.5792 8.59125 14.2225 8.63094C13.8661 8.67079 13.515 8.56891 13.2347 8.34454C12.6561 7.88157 12.562 7.03438 13.0248 6.45594L16.0602 2.66172C16.3113 2.3461 16.7038 2.15735 17.1094 2.15735C17.515 2.15735 17.9073 2.3461 18.1591 2.66204L21.1939 6.45579C21.6567 7.03422 21.5627 7.88141 20.9841 8.34438C20.7041 8.56844 20.3538 8.67079 19.9967 8.63063C19.6397 8.5911 19.3197 8.41485 19.0953 8.13438L18.4531 7.33157V10.1786C18.4533 10.9197 17.8505 11.5223 17.1095 11.5223ZM16.0783 6.12844C16.1128 6.12844 16.1478 6.13422 16.1817 6.14594C16.3069 6.18985 16.3908 6.30813 16.3908 6.44094V10.1788C16.3908 10.575 16.7131 10.8975 17.1095 10.8975C17.5059 10.8975 17.8283 10.5752 17.8283 10.1788V6.44094C17.8283 6.30813 17.9122 6.19 18.0373 6.14594C18.1625 6.1025 18.302 6.14204 18.3848 6.24579L19.5836 7.74422C19.7036 7.89422 19.8748 7.98844 20.0658 8.00954C20.2563 8.03079 20.4441 7.97625 20.5939 7.85657C20.9033 7.60891 20.9538 7.15579 20.7063 6.84625L17.6709 3.05204C17.5383 2.88563 17.3233 2.78235 17.1097 2.78235C16.8959 2.78235 16.6809 2.88547 16.5489 3.05157L13.513 6.84625C13.2655 7.15563 13.3158 7.60891 13.6253 7.85657C13.7752 7.97657 13.963 8.03141 14.1536 8.00969C14.3444 7.98844 14.5155 7.89422 14.6355 7.74422L15.8344 6.24579C15.8947 6.17 15.9852 6.12844 16.0783 6.12844Z" fill="#FA7A48"/>
<path d="M13.08 21.9836H21.1388C21.8932 21.9836 22.5047 22.5952 22.5047 23.3496V31.4083C22.5047 32.1627 21.8932 32.7743 21.1388 32.7743H13.08C12.3257 32.7743 11.7141 32.1627 11.7141 31.4083V23.3496C11.7141 22.5952 12.3257 21.9836 13.08 21.9836Z" fill="#FFF7E6"/>
<path d="M20.7889 26.1183C20.3439 25.7624 19.6951 25.8346 19.3393 26.2794L18.1406 27.7779V24.04C18.1406 23.4705 17.6789 23.0088 17.1093 23.0088C16.5398 23.0088 16.0781 23.4705 16.0781 24.04V27.7779L14.8793 26.2794C14.5234 25.8344 13.8745 25.7624 13.4298 26.1183C12.9851 26.4741 12.9129 27.123 13.2687 27.5679C17.1982 32.4796 16.1081 31.1174 16.3084 31.3669C16.5089 31.6138 16.8117 31.7491 17.1093 31.7491C17.4242 31.7491 17.7248 31.6005 17.9146 31.3621L20.95 27.568C21.3057 27.123 21.2335 26.4741 20.7889 26.1183Z" fill="#FF8555"/>
<path d="M21.1388 33.0867H13.08C12.1546 33.0867 11.4016 32.3339 11.4016 31.4085V23.3495C11.4016 22.4241 12.1546 21.6713 13.08 21.6713H21.1388C22.0643 21.6713 22.8172 22.4241 22.8172 23.3495V31.4085C22.8172 32.3339 22.0643 33.0867 21.1388 33.0867ZM13.08 22.2961C12.4993 22.2961 12.0266 22.7686 12.0266 23.3494V31.4083C12.0266 31.9891 12.4991 32.4616 13.08 32.4616H21.1388C21.7196 32.4616 22.1922 31.9891 22.1922 31.4083V23.3494C22.1922 22.7686 21.7197 22.2961 21.1388 22.2961H13.08Z" fill="#FA7A48"/>
<path d="M15.8711 31.3208L13.0248 27.7629C12.562 27.1844 12.6561 26.3372 13.2347 25.8743C13.5147 25.6497 13.8653 25.5477 14.2225 25.5879C14.5792 25.6275 14.8992 25.8038 15.1236 26.0843L15.7658 26.8871V24.04C15.7658 23.2991 16.3686 22.6963 17.1095 22.6963C17.8505 22.6963 18.4533 23.2989 18.4533 24.04V26.8871L19.0956 26.0843C19.3198 25.8038 19.6397 25.6275 19.9964 25.5879C20.3533 25.548 20.7041 25.6499 20.9844 25.8743C21.563 26.3372 21.657 27.1844 21.1942 27.7629L18.1589 31.5571C17.9077 31.8727 17.5152 32.0614 17.1097 32.0614C16.7166 32.0614 16.3242 31.8825 16.0611 31.5574L16.0609 31.5575C16.0036 31.4807 15.9308 31.3954 15.8711 31.3208ZM16.5417 31.1583C16.7042 31.3519 16.9047 31.4364 17.1095 31.4364C17.3266 31.4364 17.5361 31.3358 17.6703 31.1672L20.7061 27.3725C20.9536 27.0632 20.9033 26.6099 20.5938 26.3622C20.4438 26.2421 20.2555 26.1874 20.0653 26.2091C19.8745 26.2304 19.7036 26.3246 19.5836 26.4746L18.3847 27.973C18.3019 28.0769 18.1627 28.1163 18.0372 28.0729C17.912 28.0289 17.8281 27.9107 17.8281 27.7779V24.04C17.8281 23.6438 17.5058 23.3213 17.1094 23.3213C16.713 23.3213 16.3906 23.6436 16.3906 24.04V27.7779C16.3906 27.9107 16.3067 28.0288 16.1816 28.0729C16.0563 28.1161 15.917 28.0768 15.8341 27.973L14.6353 26.4746C14.5153 26.3246 14.3441 26.2304 14.1533 26.2091C13.9625 26.1871 13.775 26.2422 13.6252 26.3622C13.3156 26.6099 13.2653 27.063 13.5128 27.3725L15.4484 29.7919C16.2167 30.7522 16.4608 31.0574 16.5273 31.1405L16.5417 31.1583C16.5416 31.1583 16.5416 31.1582 16.5417 31.1583Z" fill="#FA7A48"/>
<path d="M21.9836 21.1388V13.08C21.9836 12.3257 22.5952 11.7141 23.3496 11.7141H31.4083C32.1627 11.7141 32.7743 12.3257 32.7743 13.08V21.1388C32.7743 21.8932 32.1627 22.5047 31.4083 22.5047H23.3496C22.5952 22.5047 21.9836 21.8932 21.9836 21.1388Z" fill="#FFF7E6"/>
<path d="M31.749 17.1094C31.749 16.8581 31.6517 16.5941 31.4604 16.3952C31.3825 16.3138 27.6559 13.3392 27.5678 13.2688C27.1228 12.913 26.474 12.985 26.1182 13.4298C25.7624 13.8745 25.8346 14.5236 26.2793 14.8794L27.7778 16.0781H24.0398C23.4703 16.0781 23.0085 16.5398 23.0085 17.1094C23.0085 17.6789 23.4703 18.1406 24.0398 18.1406H27.7778L26.2793 19.3394C25.8346 19.6952 25.7624 20.3441 26.1182 20.7889C26.322 21.0436 26.6217 21.1759 26.9242 21.1759C27.1501 21.1759 27.3776 21.1022 27.5678 20.95L31.3618 17.9147C31.5848 17.7419 31.749 17.4378 31.749 17.1094Z" fill="#FFD9C9"/>
<path d="M31.4083 22.8172H23.3496C22.4241 22.8172 21.6711 22.0643 21.6711 21.1388V13.08C21.6711 12.1546 22.4241 11.4016 23.3496 11.4016H31.4083C32.3338 11.4016 33.0868 12.1546 33.0868 13.08V21.1388C33.0868 22.0643 32.3338 22.8172 31.4083 22.8172ZM23.3496 12.0266C22.7686 12.0266 22.2961 12.4991 22.2961 13.08V21.1388C22.2961 21.7197 22.7686 22.1922 23.3496 22.1922H31.4083C31.9891 22.1922 32.4618 21.7197 32.4618 21.1388V13.08C32.4618 12.4991 31.9893 12.0266 31.4083 12.0266H23.3496Z" fill="#FA7A48"/>
<path d="M26.9243 21.4885C26.5135 21.4885 26.1307 21.3045 25.8743 20.9839C25.4114 20.4053 25.5057 19.5581 26.0841 19.0953L26.8871 18.453H24.04C23.2991 18.453 22.6963 17.8503 22.6963 17.1092C22.6963 16.3681 23.2991 15.7655 24.04 15.7655H26.8871L26.0841 15.1231C25.5055 14.6603 25.4114 13.8131 25.8743 13.2345C26.0985 12.9541 26.4183 12.7778 26.7752 12.7383C27.1321 12.6981 27.4827 12.8002 27.7632 13.0244L27.8254 13.0741C31.5989 16.0877 31.66 16.1513 31.6861 16.1786C31.9246 16.4269 32.0616 16.7661 32.0616 17.1091C32.0616 17.515 31.8669 17.9183 31.5536 18.1613L27.7632 21.1936C27.5258 21.3839 27.2279 21.4885 26.9243 21.4885ZM24.04 16.3906C23.6436 16.3906 23.3213 16.713 23.3213 17.1094C23.3213 17.5058 23.6436 17.8281 24.04 17.8281H27.7779C27.9105 17.8281 28.0288 17.9119 28.0727 18.0372C28.1166 18.1625 28.0766 18.3017 27.973 18.3847L26.4746 19.5836C26.1652 19.8311 26.1147 20.2842 26.3624 20.5939C26.4994 20.7653 26.7043 20.8638 26.9243 20.8638C27.0888 20.8638 27.2438 20.8092 27.3727 20.7063L31.1668 17.671C31.3321 17.5427 31.4366 17.3233 31.4366 17.1095C31.4366 16.9264 31.3632 16.745 31.2352 16.6117C31.1474 16.5336 29.6874 15.3613 27.4352 13.5628L27.3727 13.5128C27.2225 13.3927 27.0344 13.3388 26.8441 13.3597C26.6533 13.381 26.4822 13.4752 26.3624 13.6252C26.1149 13.9347 26.1652 14.388 26.4746 14.6355L27.973 15.8344C28.0766 15.9172 28.1166 16.0566 28.0727 16.1819C28.0288 16.3072 27.9105 16.391 27.7779 16.391H24.04V16.3906Z" fill="#FA7A48"/>
<path d="M12.2352 13.08V21.1388C12.2352 21.8932 11.6236 22.5047 10.8693 22.5047H2.81052C2.05614 22.5047 1.44458 21.8932 1.44458 21.1388V13.08C1.44458 12.3257 2.05614 11.7141 2.81052 11.7141H10.8693C11.6236 11.7141 12.2352 12.3257 12.2352 13.08Z" fill="#FFF7E6"/>
<path d="M10.1789 16.0782H6.44106L7.9395 14.8794C8.38419 14.5236 8.45638 13.8747 8.10059 13.4299C7.74466 12.9849 7.09575 12.913 6.65106 13.2688C6.62138 13.2926 2.88091 16.2847 2.85153 16.309C2.60794 16.5065 2.46997 16.8051 2.46997 17.1094C2.46997 17.4357 2.63263 17.7407 2.857 17.9147L6.65106 20.9501C6.84138 21.1022 7.06872 21.176 7.29466 21.176C7.59716 21.176 7.89684 21.0436 8.10059 20.789C8.45638 20.3443 8.38419 19.6952 7.9395 19.3394L6.44106 18.1407H10.179C10.7486 18.1407 11.2103 17.679 11.2103 17.1094C11.2103 16.5399 10.7484 16.0782 10.1789 16.0782Z" fill="#FFAA86"/>
<path d="M10.8693 22.8172H2.81052C1.88505 22.8172 1.13208 22.0643 1.13208 21.1388V13.08C1.13208 12.1546 1.88505 11.4016 2.81052 11.4016H10.8693C11.7947 11.4016 12.5477 12.1546 12.5477 13.08V21.1388C12.5477 22.0643 11.7947 22.8172 10.8693 22.8172ZM2.81052 12.0266C2.22974 12.0266 1.75708 12.4991 1.75708 13.08V21.1388C1.75708 21.7197 2.22958 22.1922 2.81052 22.1922H10.8693C11.4502 22.1922 11.9227 21.7197 11.9227 21.1388V13.08C11.9227 12.4991 11.4502 12.0266 10.8693 12.0266H2.81052Z" fill="#FA7A48"/>
<path d="M7.29457 21.4885C6.99113 21.4885 6.69332 21.384 6.45582 21.1941L2.6616 18.1586C2.35191 17.9185 2.15723 17.5152 2.15723 17.1093C2.15723 16.7088 2.34301 16.3186 2.65441 16.0661C2.67004 16.0532 3.60754 15.303 5.99551 13.3927L6.45535 13.0249C6.73598 12.8004 7.08738 12.6985 7.44348 12.7385C7.80019 12.778 8.12019 12.9543 8.34457 13.2347C8.80738 13.8133 8.71316 14.6605 8.13473 15.1233L7.33176 15.7657H10.1788C10.9197 15.7657 11.5225 16.3683 11.5225 17.1094C11.5225 17.8505 10.9197 18.4532 10.1788 18.4532H7.33176L8.13473 19.0955C8.71332 19.5583 8.80738 20.4055 8.34457 20.9841C8.08816 21.3047 7.70535 21.4885 7.29457 21.4885ZM7.29379 13.3552C7.13129 13.3552 6.97488 13.4099 6.84613 13.5129L6.38598 13.881C5.40285 14.6674 3.10035 16.5093 3.04926 16.551C2.88176 16.6868 2.78238 16.8954 2.78238 17.1094C2.78238 17.3232 2.88676 17.5424 3.04848 17.6679L6.84629 20.706C6.9752 20.809 7.1302 20.8635 7.29473 20.8635C7.51473 20.8635 7.71957 20.7651 7.8566 20.5936C8.1041 20.2841 8.05379 19.8308 7.74441 19.5833L6.24598 18.3844C6.14238 18.3016 6.10238 18.1622 6.14629 18.0369C6.19019 17.9116 6.30848 17.8279 6.44113 17.8279H10.1789C10.5753 17.8279 10.8977 17.5055 10.8977 17.1091C10.8977 16.7127 10.5753 16.3904 10.1789 16.3904H6.44098C6.30832 16.3904 6.19004 16.3066 6.14613 16.1813C6.10223 16.056 6.14223 15.9168 6.24582 15.8338L7.74426 14.6349C8.05363 14.3874 8.1041 13.9343 7.85644 13.6246C7.73644 13.4746 7.56535 13.3804 7.37457 13.3591C7.34738 13.3566 7.32051 13.3552 7.29379 13.3552Z" fill="#FA7A48"/>
<path d="M32.2917 39.323C36.175 39.323 39.323 36.175 39.323 32.2917C39.323 28.4085 36.175 25.2605 32.2917 25.2605C28.4085 25.2605 25.2605 28.4085 25.2605 32.2917C25.2605 36.175 28.4085 39.323 32.2917 39.323Z" fill="#FF8555"/>
<path d="M32.2917 37.7605C35.3121 37.7605 37.7605 35.3121 37.7605 32.2917C37.7605 29.2714 35.3121 26.823 32.2917 26.823C29.2714 26.823 26.823 29.2714 26.823 32.2917C26.823 35.3121 29.2714 37.7605 32.2917 37.7605Z" fill="#FFF7E6"/>
<path d="M34.6292 29.4352L33.5476 28.0494C33.4414 27.9135 33.2448 27.8889 33.109 27.9952C32.927 28.1372 32.9817 27.821 32.9817 33.8428C32.5134 33.5113 31.7847 33.3997 31.0384 33.5997C29.9148 33.9008 29.1778 34.7933 29.392 35.5931C29.6064 36.393 30.6909 36.7974 31.8145 36.4963C32.8364 36.2225 33.5384 35.4596 33.4959 34.7219V28.9989L34.1365 29.8199C34.4712 30.2488 34.6556 30.7844 34.6556 31.3283V32.5647C34.6556 32.7372 34.7956 32.8772 34.9681 32.8772C35.1406 32.8772 35.2806 32.7372 35.2806 32.5647V31.3281C35.2804 30.6456 35.0492 29.9733 34.6292 29.4352Z" fill="#FF723C"/>
<path d="M32.2917 39.6355C28.2424 39.6355 24.948 36.3411 24.948 32.2917C24.948 28.2424 28.2424 24.948 32.2917 24.948C36.3411 24.948 39.6355 28.2424 39.6355 32.2917C39.6355 36.3411 36.3411 39.6355 32.2917 39.6355ZM32.2917 25.573C28.5871 25.573 25.573 28.5871 25.573 32.2917C25.573 35.9964 28.5871 39.0105 32.2917 39.0105C35.9964 39.0105 39.0105 35.9964 39.0105 32.2917C39.0105 28.5871 35.9964 25.573 32.2917 25.573Z" fill="#FA7A48"/>
<path d="M32.2917 38.073C29.1039 38.073 26.5105 35.4796 26.5105 32.2917C26.5105 29.1039 29.1039 26.5105 32.2917 26.5105C35.4796 26.5105 38.073 29.1039 38.073 32.2917C38.073 35.4796 35.4794 38.073 32.2917 38.073ZM32.2917 27.1355C29.4486 27.1355 27.1355 29.4486 27.1355 32.2917C27.1355 35.1349 29.4486 37.448 32.2917 37.448C35.1349 37.448 37.448 35.1349 37.448 32.2917C37.448 29.4486 35.1349 27.1355 32.2917 27.1355Z" fill="#FA7A48"/>
</g>
<defs>
<clipPath id="clip0_1_1044">
<rect width="40" height="40" fill="white"/>
</clipPath>
</defs>
</svg>
