<svg width="40" height="40" viewBox="0 0 40 40" fill="none" xmlns="http://www.w3.org/2000/svg">
<path d="M9.375 36.25H5.78125C5.40829 36.25 5.0506 36.1018 4.78688 35.8381C4.52316 35.5744 4.375 35.2167 4.375 34.8438V26.4062C4.375 26.0333 4.52316 25.6756 4.78688 25.4119C5.0506 25.1482 5.40829 25 5.78125 25H9.375V36.25Z" fill="#FA7A48"/>
<path d="M4.375 34.375L4.36047 34.3713C3.65054 34.1939 3.02031 33.7842 2.56997 33.2074C2.11962 32.6306 1.875 31.9198 1.875 31.188V30.062C1.875 29.3302 2.11962 28.6194 2.56997 28.0426C3.02031 27.4658 3.65054 27.0561 4.36047 26.8787L4.375 26.875V34.375Z" fill="#FA7A48"/>
<path d="M6.875 28.125C6.70924 28.125 6.55027 28.0592 6.43306 27.9419C6.31585 27.8247 6.25 27.6658 6.25 27.5V25C6.25 24.8342 6.31585 24.6753 6.43306 24.5581C6.55027 24.4408 6.70924 24.375 6.875 24.375C7.04076 24.375 7.19973 24.4408 7.31694 24.5581C7.43415 24.6753 7.5 24.8342 7.5 25V27.5C7.5 27.6658 7.43415 27.8247 7.31694 27.9419C7.19973 28.0592 7.04076 28.125 6.875 28.125Z" fill="#FDAD8C"/>
<path d="M6.25 36.25V30C6.25 29.8342 6.31585 29.6753 6.43306 29.5581C6.55027 29.4408 6.70924 29.375 6.875 29.375C7.04076 29.375 7.19973 29.4408 7.31694 29.5581C7.43415 29.6753 7.5 29.8342 7.5 30V36.25H6.25Z" fill="#FDAD8C"/>
<path d="M10.8385 34.8932L9.375 35.625V25.625L10.8385 26.3568C11.15 26.5125 11.4119 26.7519 11.595 27.0481C11.778 27.3443 11.875 27.6856 11.875 28.0338V33.2162C11.875 33.5644 11.778 33.9057 11.595 34.2019C11.4119 34.4981 11.15 34.7375 10.8385 34.8932Z" fill="#FA7A48"/>
<path d="M5.625 21.25H8.125V25H5.625V21.25Z" fill="#FA7A48"/>
<path d="M30.625 36.25H34.2188C34.5917 36.25 34.9494 36.1018 35.2131 35.8381C35.4768 35.5744 35.625 35.2167 35.625 34.8438V26.4062C35.625 26.0333 35.4768 25.6756 35.2131 25.4119C34.9494 25.1482 34.5917 25 34.2188 25H30.625V36.25Z" fill="#FA7A48"/>
<path d="M35.625 34.375L35.6395 34.3713C36.3495 34.1939 36.9797 33.7842 37.43 33.2074C37.8804 32.6306 38.125 31.9198 38.125 31.188V30.062C38.125 29.3302 37.8804 28.6194 37.43 28.0426C36.9797 27.4658 36.3495 27.0561 35.6395 26.8787L35.625 26.875V34.375Z" fill="#FA7A48"/>
<path d="M33.125 28.125C32.9592 28.125 32.8003 28.0592 32.6831 27.9419C32.5658 27.8247 32.5 27.6658 32.5 27.5V25.625C32.5 25.4592 32.5658 25.3003 32.6831 25.1831C32.8003 25.0658 32.9592 25 33.125 25C33.2908 25 33.4497 25.0658 33.5669 25.1831C33.6842 25.3003 33.75 25.4592 33.75 25.625V27.5C33.75 27.6658 33.6842 27.8247 33.5669 27.9419C33.4497 28.0592 33.2908 28.125 33.125 28.125Z" fill="#FDAD8C"/>
<path d="M32.5 36.25V30C32.5 29.8342 32.5658 29.6753 32.6831 29.5581C32.8003 29.4408 32.9592 29.375 33.125 29.375C33.2908 29.375 33.4497 29.4408 33.5669 29.5581C33.6842 29.6753 33.75 29.8342 33.75 30V36.25H32.5Z" fill="#FDAD8C"/>
<path d="M29.1615 34.8932L30.625 35.625V25.625L29.1615 26.3568C28.85 26.5125 28.5881 26.7519 28.405 27.0481C28.222 27.3443 28.125 27.6856 28.125 28.0338V33.2162C28.125 33.5644 28.222 33.9057 28.405 34.2019C28.5881 34.4981 28.85 34.7375 29.1615 34.8932Z" fill="#FA7A48"/>
<path d="M20 3.75C11.7157 3.75 5 10.4657 5 18.75V21.25H8.75V18.75C8.75 15.7663 9.93526 12.9048 12.045 10.795C14.1548 8.68526 17.0163 7.5 20 7.5C22.9837 7.5 25.8452 8.68526 27.955 10.795C30.0647 12.9048 31.25 15.7663 31.25 18.75V21.25H35V18.75C35 10.4657 28.2843 3.75 20 3.75Z" fill="#FA7A48"/>
<path d="M31.875 21.25H34.375V25H31.875V21.25Z" fill="#FA7A48"/>
<path d="M20 35.625C19.8664 35.625 19.7363 35.5821 19.6288 35.5027C19.5213 35.4233 19.4421 35.3116 19.4028 35.1838L17.423 28.75L16.8303 30.232C16.7839 30.348 16.7039 30.4474 16.6004 30.5175C16.497 30.5875 16.3749 30.625 16.25 30.625H14.375C14.2092 30.625 14.0503 30.5592 13.9331 30.4419C13.8158 30.3247 13.75 30.1658 13.75 30C13.75 29.8342 13.8158 29.6753 13.9331 29.5581C14.0503 29.4409 14.2092 29.375 14.375 29.375H15.8269L16.9197 26.6429C16.9677 26.5229 17.0518 26.4207 17.1603 26.3504C17.2688 26.2801 17.3964 26.2452 17.5256 26.2505C17.6548 26.2558 17.7791 26.301 17.8815 26.38C17.9839 26.4589 18.0593 26.5676 18.0973 26.6912L19.9024 32.5578L21.8898 23.6145C21.9198 23.4794 21.9937 23.3581 22.1 23.2696C22.2063 23.1811 22.339 23.1303 22.4772 23.1253C22.6155 23.1203 22.7515 23.1612 22.8639 23.2418C22.9764 23.3223 23.0589 23.4379 23.0987 23.5704L24.84 29.375H25.625C25.7908 29.375 25.9497 29.4409 26.0669 29.5581C26.1842 29.6753 26.25 29.8342 26.25 30C26.25 30.1658 26.1842 30.3247 26.0669 30.4419C25.9497 30.5592 25.7908 30.625 25.625 30.625H24.375C24.2406 30.625 24.1098 30.5817 24.0019 30.5015C23.8941 30.4213 23.815 30.3084 23.7763 30.1797L22.5902 26.2256L20.6102 35.1356C20.5802 35.2702 20.5066 35.3912 20.4008 35.4797C20.2949 35.5681 20.1628 35.619 20.0249 35.6245C20.0165 35.6248 20.0082 35.625 20 35.625Z" fill="#2F80ED"/>
<path d="M15 18.75C14.8342 18.75 14.6753 18.6842 14.5581 18.5669C14.4408 18.4497 14.375 18.2908 14.375 18.125V16.25C14.375 16.0842 14.4408 15.9253 14.5581 15.8081C14.6753 15.6908 14.8342 15.625 15 15.625C15.1658 15.625 15.3247 15.6908 15.4419 15.8081C15.5592 15.9253 15.625 16.0842 15.625 16.25V18.125C15.625 18.2908 15.5592 18.4497 15.4419 18.5669C15.3247 18.6842 15.1658 18.75 15 18.75Z" fill="#FBB540"/>
<path d="M17.5 20.625C17.3342 20.625 17.1753 20.5592 17.0581 20.4419C16.9408 20.3247 16.875 20.1658 16.875 20V15C16.875 14.8342 16.9408 14.6753 17.0581 14.5581C17.1753 14.4408 17.3342 14.375 17.5 14.375C17.6658 14.375 17.8247 14.4408 17.9419 14.5581C18.0592 14.6753 18.125 14.8342 18.125 15V20C18.125 20.1658 18.0592 20.3247 17.9419 20.4419C17.8247 20.5592 17.6658 20.625 17.5 20.625Z" fill="#EA9D2D"/>
<path d="M20 21.875C19.8342 21.875 19.6753 21.8092 19.5581 21.6919C19.4408 21.5747 19.375 21.4158 19.375 21.25V13.75C19.375 13.5842 19.4408 13.4253 19.5581 13.3081C19.6753 13.1908 19.8342 13.125 20 13.125C20.1658 13.125 20.3247 13.1908 20.4419 13.3081C20.5592 13.4253 20.625 13.5842 20.625 13.75V21.25C20.625 21.4158 20.5592 21.5747 20.4419 21.6919C20.3247 21.8092 20.1658 21.875 20 21.875Z" fill="#FBB540"/>
<path d="M22.5 20.625C22.3342 20.625 22.1753 20.5592 22.0581 20.4419C21.9408 20.3247 21.875 20.1658 21.875 20V15C21.875 14.8342 21.9408 14.6753 22.0581 14.5581C22.1753 14.4408 22.3342 14.375 22.5 14.375C22.6658 14.375 22.8247 14.4408 22.9419 14.5581C23.0592 14.6753 23.125 14.8342 23.125 15V20C23.125 20.1658 23.0592 20.3247 22.9419 20.4419C22.8247 20.5592 22.6658 20.625 22.5 20.625Z" fill="#EA9D2D"/>
<path d="M25 18.75C24.8342 18.75 24.6753 18.6842 24.5581 18.5669C24.4408 18.4497 24.375 18.2908 24.375 18.125V16.25C24.375 16.0842 24.4408 15.9253 24.5581 15.8081C24.6753 15.6908 24.8342 15.625 25 15.625C25.1658 15.625 25.3247 15.6908 25.4419 15.8081C25.5592 15.9253 25.625 16.0842 25.625 16.25V18.125C25.625 18.2908 25.5592 18.4497 25.4419 18.5669C25.3247 18.6842 25.1658 18.75 25 18.75Z" fill="#FBB540"/>
<path d="M27.5 18.125C27.3342 18.125 27.1753 18.0592 27.0581 17.9419C26.9408 17.8247 26.875 17.6658 26.875 17.5V16.875C26.875 16.7092 26.9408 16.5503 27.0581 16.4331C27.1753 16.3158 27.3342 16.25 27.5 16.25C27.6658 16.25 27.8247 16.3158 27.9419 16.4331C28.0592 16.5503 28.125 16.7092 28.125 16.875V17.5C28.125 17.6658 28.0592 17.8247 27.9419 17.9419C27.8247 18.0592 27.6658 18.125 27.5 18.125Z" fill="#EA9D2D"/>
<path d="M12.5 18.125C12.3342 18.125 12.1753 18.0592 12.0581 17.9419C11.9408 17.8247 11.875 17.6658 11.875 17.5V16.875C11.875 16.7092 11.9408 16.5503 12.0581 16.4331C12.1753 16.3158 12.3342 16.25 12.5 16.25C12.6658 16.25 12.8247 16.3158 12.9419 16.4331C13.0592 16.5503 13.125 16.7092 13.125 16.875V17.5C13.125 17.6658 13.0592 17.8247 12.9419 17.9419C12.8247 18.0592 12.6658 18.125 12.5 18.125Z" fill="#EA9D2D"/>
</svg>
