<svg width="40" height="40" viewBox="0 0 40 40" fill="none" xmlns="http://www.w3.org/2000/svg">
<g clip-path="url(#clip0_1_1596)">
<path d="M20 40C31.0457 40 40 31.0457 40 20C40 8.95431 31.0457 0 20 0C8.95431 0 0 8.95431 0 20C0 31.0457 8.95431 40 20 40Z" fill="#FA7A48"/>
<path d="M7.53686 27.6251L26.5334 33.0674L32.4609 12.3772L13.4643 6.93488L7.53686 27.6251Z" fill="#E6E9EE"/>
<path d="M29.881 9.23804H10.1191V30.7618H29.881V9.23804Z" fill="white"/>
<path d="M16.2777 14.8096H15.492L14.0714 12.6429C13.9841 12.5159 13.9285 12.4207 13.8968 12.3572H13.8888C13.9047 12.4762 13.9047 12.6667 13.9047 12.9127V14.8096H13.1746V11.3651H14.0079L15.373 13.4604C15.4365 13.5556 15.492 13.6508 15.5476 13.7381H15.5555C15.5396 13.6588 15.5396 13.5 15.5396 13.2619V11.3572H16.2698V14.8096H16.2777Z" fill="#FA7A48"/>
<path d="M19.135 14.8096H17.0715V11.3651H19.0557V12H17.8414V12.7699H18.9684V13.3969H17.8414V14.1826H19.135V14.8096Z" fill="#FA7A48"/>
<path d="M24.1986 11.3651L23.2859 14.8096H22.4287L21.8573 12.5953C21.8256 12.4762 21.8097 12.3492 21.8018 12.2064H21.7938C21.7779 12.3651 21.7621 12.4921 21.7303 12.5953L21.143 14.8096H20.2383L19.3335 11.3651H20.1827L20.6668 13.6588C20.6906 13.754 20.7065 13.8889 20.7144 14.0556H20.7303C20.7383 13.9286 20.7621 13.7937 20.8018 13.6508L21.4287 11.3651H22.2621L22.8256 13.6826C22.8494 13.7699 22.8652 13.8889 22.8811 14.0556H22.8891C22.897 13.9286 22.9129 13.8016 22.9367 13.6746L23.4129 11.373H24.1986V11.3651Z" fill="#FA7A48"/>
<path d="M24.4763 14.6826V13.9127C24.6192 14.0318 24.77 14.1191 24.9287 14.1746C25.0954 14.2302 25.2541 14.2619 25.4208 14.2619C25.516 14.2619 25.6033 14.254 25.6747 14.2381C25.7462 14.2223 25.8097 14.1985 25.8573 14.1667C25.9049 14.135 25.9446 14.0953 25.9684 14.0556C25.9922 14.0159 26.0081 13.9683 26.0081 13.9207C26.0081 13.8572 25.9922 13.7937 25.9525 13.7381C25.9128 13.6826 25.8652 13.635 25.7938 13.5953C25.7303 13.5477 25.6509 13.508 25.5557 13.4683C25.4604 13.4286 25.3652 13.381 25.262 13.3413C24.9922 13.2302 24.7938 13.0953 24.6589 12.9286C24.5239 12.7699 24.4604 12.5715 24.4604 12.3413C24.4604 12.1588 24.5001 12.008 24.5716 11.881C24.643 11.754 24.7382 11.6429 24.8652 11.5635C24.9922 11.4842 25.1351 11.4207 25.2938 11.381C25.4604 11.3413 25.6271 11.3254 25.8097 11.3254C25.9922 11.3254 26.1509 11.3334 26.2858 11.3572C26.4208 11.381 26.5557 11.4127 26.6668 11.4604V12.1826C26.6112 12.1429 26.5478 12.1112 26.4763 12.0794C26.4049 12.0477 26.3414 12.0239 26.27 12C26.1985 11.9762 26.1271 11.9683 26.0557 11.9524C25.9843 11.9445 25.9128 11.9366 25.8493 11.9366C25.762 11.9366 25.6827 11.9445 25.6112 11.9604C25.5398 11.9762 25.4763 12 25.4287 12.0318C25.3811 12.0635 25.3414 12.0953 25.3097 12.1429C25.2858 12.1826 25.27 12.2302 25.27 12.2858C25.27 12.3413 25.2858 12.3969 25.3176 12.4445C25.3493 12.4921 25.389 12.5318 25.4446 12.5715C25.5001 12.6112 25.5716 12.6508 25.6509 12.6905C25.7303 12.7302 25.8255 12.7699 25.9208 12.8096C26.0557 12.8651 26.1827 12.9286 26.2938 12.9921C26.4049 13.0556 26.5001 13.127 26.5795 13.2143C26.6589 13.2937 26.7144 13.3889 26.762 13.4921C26.8017 13.5953 26.8255 13.7223 26.8255 13.8572C26.8255 14.0477 26.7858 14.2143 26.7144 14.3413C26.643 14.4683 26.5398 14.5794 26.4208 14.6588C26.2938 14.7381 26.1509 14.8016 25.9843 14.8334C25.8176 14.8651 25.643 14.8889 25.4604 14.8889C25.27 14.8889 25.0954 14.8731 24.9208 14.8413C24.7462 14.7937 24.5954 14.7461 24.4763 14.6826Z" fill="#FA7A48"/>
<path d="M27.3175 16.8651H12.6826V17.754H27.3175V16.8651Z" fill="#FA7A48"/>
<path d="M27.3175 19.5555H12.6826V20.4444H27.3175V19.5555Z" fill="#FA7A48"/>
<path d="M20.4763 22.2461H12.6826V23.135H20.4763V22.2461Z" fill="#FA7A48"/>
<path d="M20.4763 24.9286H12.6826V25.8175H20.4763V24.9286Z" fill="#FA7A48"/>
<path d="M20.4763 27.6191H12.6826V28.508H20.4763V27.6191Z" fill="#FA7A48"/>
<path d="M27.3175 22.246H21.762V28.5158H27.3175V22.246Z" fill="#FFCC33"/>
</g>
<defs>
<clipPath id="clip0_1_1596">
<rect width="40" height="40" fill="white"/>
</clipPath>
</defs>
</svg>
