<svg width="40" height="40" viewBox="0 0 40 40" fill="none" xmlns="http://www.w3.org/2000/svg">
<path d="M29.0927 12.5795C29.0927 10.6673 30.0901 8.9846 31.5911 8.02101C28.9178 4.24625 24.5161 1.7821 19.5386 1.7821C16.1519 1.7821 13.0323 2.92359 10.5417 4.84179C10.7767 5.44773 10.9071 6.10546 10.9071 6.79343C10.9071 9.77898 8.47807 12.208 5.49252 12.208C5.47057 12.208 5.449 12.2066 5.42721 12.2063C5.00666 13.577 4.77979 15.0325 4.77979 16.5411C4.77979 18.5338 5.17564 20.4339 5.8915 22.1682C6.99057 21.1341 8.46869 20.4985 10.0933 20.4985C10.821 20.4985 11.5334 20.6247 12.2106 20.8735L12.2236 20.8784H26.8538L26.8668 20.8735C27.544 20.6247 28.2563 20.4985 28.9841 20.4985C30.6087 20.4985 32.0868 21.1341 33.1859 22.1682C33.7265 20.8586 34.0842 19.4543 34.2272 17.987C31.3712 17.8407 29.0927 15.4712 29.0927 12.5795Z" fill="#FFD1BD"/>
<path d="M8.05627 11.561C7.29268 11.9733 6.41955 12.2078 5.49252 12.2078C5.47057 12.2078 5.449 12.2064 5.42721 12.2062C5.00666 13.5769 4.77979 15.0324 4.77979 16.541C4.77979 18.5337 5.17564 20.4338 5.8915 22.1681C6.45674 21.6363 7.12213 21.2106 7.8565 20.9222C7.42666 19.5379 7.19432 18.0667 7.19432 16.541C7.19424 14.7932 7.49854 13.1168 8.05627 11.561Z" fill="#FFAD8A"/>
<path d="M10.9061 6.75526C12.5778 4.87011 14.7245 3.41565 17.1589 2.57995C17.905 2.06315 18.7055 1.78198 19.5387 1.78198C16.152 1.78198 13.0324 2.92355 10.5417 4.84167C10.7724 5.43644 10.9014 6.0812 10.9061 6.75526Z" fill="#FFAD8A"/>
<path d="M26.5386 20.8782C26.7475 19.5068 26.8602 18.0505 26.8602 16.541C26.8602 8.38992 23.5823 1.7821 19.5389 1.7821C15.4954 1.7821 12.2175 8.38992 12.2175 16.541C12.2175 18.0505 12.3302 19.5067 12.5391 20.8782H26.5386Z" fill="#FDAD8C"/>
<path d="M14.9535 20.8782C14.7446 19.5068 14.632 18.0505 14.632 16.541C14.632 9.21898 17.2771 3.14335 20.7461 1.98296C20.3533 1.85156 19.9502 1.7821 19.5389 1.7821C15.4954 1.7821 12.2175 8.38992 12.2175 16.541C12.2175 18.0505 12.3302 19.5067 12.5391 20.8782H14.9535Z" fill="#FDAD8C"/>
<path d="M30.2644 15.9373H27.4573C27.4179 13.9178 27.1816 11.9663 26.7664 10.1718H29.6594C29.8786 9.7323 30.1552 9.32636 30.4803 8.96456H26.4531C26.1274 7.83698 25.7271 6.7855 25.2564 5.83651C24.6517 4.61761 23.9581 3.62097 23.2004 2.8669C26.4324 3.73323 29.2112 5.71808 31.096 8.37862C31.408 8.12472 31.7488 7.90519 32.1126 7.72503C29.3306 3.76894 24.7317 1.17847 19.5387 1.17847C16.0682 1.17847 12.8632 2.33581 10.2882 4.28401C10.4824 4.65378 10.636 5.04808 10.741 5.46167C12.2373 4.27097 13.9787 3.37573 15.877 2.8669C15.1193 3.62097 14.4256 4.61761 13.821 5.83651C13.3502 6.7855 12.9499 7.83698 12.6242 8.96456H10.4512C10.2598 9.39987 10.0128 9.80519 9.71916 10.1718H12.311C11.8958 11.9663 11.6595 13.9178 11.6201 15.9373H5.39627C5.45135 14.6303 5.68525 13.3689 6.07307 12.1763C5.88229 12.1967 5.68877 12.2078 5.49268 12.2078C5.26221 12.2078 5.03564 12.1917 4.81268 12.1636C4.39939 13.5515 4.17627 15.0206 4.17627 16.541C4.17627 18.7071 4.62783 20.7694 5.44025 22.6401C5.72143 22.3132 6.03572 22.0158 6.379 21.7541C5.80775 20.3174 5.46471 18.766 5.39635 17.1446H11.6203C11.6445 18.3868 11.7437 19.6031 11.9127 20.7732C12.0127 20.8042 12.1121 20.8371 12.2106 20.8732L12.2237 20.8781H13.1481C12.9623 19.6812 12.8535 18.4285 12.8276 17.1446H18.9351V20.8781H20.1424V17.1446H26.2499C26.2239 18.4285 26.1152 19.6812 25.9294 20.8781H26.8538L26.8668 20.8732C26.9653 20.8371 27.0649 20.8042 27.1648 20.7732C27.3338 19.6031 27.433 18.3868 27.4572 17.1446H31.6013C31.0912 16.8187 30.6393 16.4101 30.2644 15.9373ZM18.9351 15.9373H12.8276C12.8686 13.9044 13.1165 11.9494 13.5508 10.1718H18.9351V15.9373ZM18.9351 8.96456H13.883C14.1691 8.03448 14.5097 7.16472 14.9025 6.373C16.0275 4.10526 17.4411 2.73675 18.9352 2.44511V8.96456H18.9351ZM20.1424 2.44519C21.6363 2.73683 23.0499 4.10534 24.1749 6.37308C24.5677 7.16479 24.9084 8.03456 25.1945 8.96464H20.1424V2.44519ZM20.1424 15.9373V10.1718H25.5267C25.961 11.9494 26.2088 13.9044 26.2499 15.9373H20.1424Z" fill="#E36F4B"/>
<path d="M34.5072 17.994C34.2072 17.994 33.9132 17.9683 33.6263 17.9211C33.4958 19.2618 33.1779 20.5484 32.6985 21.754C33.0417 22.0158 33.3561 22.3132 33.6372 22.64C34.2672 21.1895 34.679 19.6233 34.8327 17.9833C34.7249 17.9897 34.6166 17.994 34.5072 17.994Z" fill="#E36F4B"/>
<path d="M5.49266 12.286C8.52617 12.286 10.9853 9.82683 10.9853 6.79332C10.9853 3.75981 8.52617 1.30066 5.49266 1.30066C2.45915 1.30066 0 3.75981 0 6.79332C0 9.82683 2.45915 12.286 5.49266 12.286Z" fill="#FA7A48"/>
<path d="M1.60969 6.79332C1.60969 4.03332 3.64563 1.74941 6.2975 1.35996C6.03477 1.32136 5.76617 1.30066 5.49266 1.30066C2.45914 1.30066 0 3.7598 0 6.79332C0 9.82683 2.45914 12.286 5.49266 12.286C5.76617 12.286 6.03477 12.2653 6.2975 12.2267C3.64563 11.8372 1.60969 9.55332 1.60969 6.79332Z" fill="#FFA184"/>
<path d="M16.2314 26.6365C16.2314 27.5899 16.0124 28.4927 15.6227 29.2983C16.6162 29.4497 17.3799 30.3097 17.3799 31.3449C17.3799 31.4868 17.3655 31.6254 17.3382 31.7593H21.7389C21.7116 31.6254 21.6972 31.4868 21.6972 31.3449C21.6972 30.3097 22.4609 29.4496 23.4544 29.2983C23.0648 28.4927 22.8457 27.5899 22.8457 26.6365C22.8457 23.9143 24.6275 21.6015 27.0857 20.8H11.9912C14.4496 21.6015 16.2314 23.9143 16.2314 26.6365Z" fill="#FEA07C"/>
<path d="M17.0681 20.8L17.7319 22.8801C17.8267 23.1771 18.1026 23.3786 18.4143 23.3786H20.663C20.9748 23.3786 21.2507 23.1771 21.3454 22.8801L22.0092 20.8H17.0681Z" fill="white"/>
<path d="M19.3416 22.8801L18.6778 20.8H17.0681L17.7319 22.8801C17.8267 23.1771 18.1026 23.3786 18.4143 23.3786H20.024C19.7123 23.3786 19.4364 23.1771 19.3416 22.8801Z" fill="#EAF6FF"/>
<path d="M20.4135 28.0693H18.6637C18.3304 28.0693 18.0601 27.799 18.0601 27.4656C18.0601 27.1322 18.3303 26.8619 18.6637 26.8619H20.4135C20.7469 26.8619 21.0172 27.1322 21.0172 27.4656C21.0172 27.799 20.7469 28.0693 20.4135 28.0693Z" fill="#FFBDA2"/>
<path d="M10.0933 32.7747C6.70867 32.7747 3.95508 30.0211 3.95508 26.6365C3.95508 26.5739 3.95797 26.5121 3.95984 26.45L3.87695 26.458V35.3218C3.87695 37.2548 5.44391 38.8217 7.37688 38.8217C8.7268 38.8217 9.95641 38.0453 10.5369 36.8266L12.7559 32.1667C11.95 32.5561 11.0467 32.7747 10.0933 32.7747Z" fill="#FFCCB3"/>
<path d="M6.29141 35.3218V31.5531C4.8232 30.416 3.87695 28.6373 3.87695 26.6366V35.3218C3.87695 37.2548 5.44391 38.8218 7.37688 38.8218C7.7957 38.8218 8.20281 38.7468 8.58266 38.6073C7.24531 38.1151 6.29141 36.8299 6.29141 35.3218Z" fill="#FEA37F"/>
<path d="M13.2394 31.3449C13.2394 30.2033 14.1681 29.2745 15.3097 29.2745C15.4449 29.2745 15.577 29.288 15.7051 29.3128C16.0923 28.5022 16.3096 27.5948 16.3096 26.6365C16.3096 23.2033 13.5265 20.4202 10.0933 20.4202C6.66008 20.4202 3.87695 23.2033 3.87695 26.6365C3.87695 30.0697 6.66008 32.8528 10.0933 32.8528C11.2784 32.8528 12.3859 32.5209 13.3284 31.9453C13.2708 31.7552 13.2394 31.5536 13.2394 31.3449Z" fill="#F9804D"/>
<path d="M10.0933 30.6268C12.297 30.6268 14.0835 28.8403 14.0835 26.6366C14.0835 24.4328 12.297 22.6464 10.0933 22.6464C7.88952 22.6464 6.10303 24.4328 6.10303 26.6366C6.10303 28.8403 7.88952 30.6268 10.0933 30.6268Z" fill="#FFCCB3"/>
<path d="M7.71271 26.6365C7.71271 24.7085 9.08021 23.0998 10.8981 22.7275C10.6382 22.6743 10.369 22.6464 10.0933 22.6464C7.88951 22.6464 6.10303 24.4328 6.10303 26.6366C6.10303 28.8403 7.88951 30.6268 10.0933 30.6268C10.369 30.6268 10.6381 30.5989 10.8981 30.5457C9.08021 30.1732 7.71271 28.5646 7.71271 26.6365Z" fill="#FEA37F"/>
<path d="M15.3096 33.4933C16.4961 33.4933 17.458 32.5314 17.458 31.3448C17.458 30.1583 16.4961 29.1964 15.3096 29.1964C14.123 29.1964 13.1611 30.1583 13.1611 31.3448C13.1611 32.5314 14.123 33.4933 15.3096 33.4933Z" fill="#FFAD8A"/>
<path d="M14.9077 31.3448C14.9077 30.4694 15.4317 29.7167 16.1829 29.382C15.916 29.2631 15.6206 29.1964 15.3096 29.1964C14.123 29.1964 13.1611 30.1583 13.1611 31.3448C13.1611 32.5314 14.123 33.4933 15.3096 33.4933C15.6207 33.4933 15.916 33.4266 16.1829 33.3077C15.4317 32.973 14.9077 32.2203 14.9077 31.3448Z" fill="#E46F4B"/>
<path d="M11.7856 26.0328H10.697V24.9442C10.697 24.6108 10.4267 24.3406 10.0933 24.3406C9.75986 24.3406 9.48963 24.6108 9.48963 24.9442V26.0328H8.40103C8.06768 26.0328 7.79736 26.3031 7.79736 26.6365C7.79736 26.97 8.0676 27.2402 8.40103 27.2402H9.48963V28.3288C9.48963 28.6622 9.75986 28.9325 10.0933 28.9325C10.4267 28.9325 10.697 28.6622 10.697 28.3288V27.2402H11.7856C12.1189 27.2402 12.3892 26.97 12.3892 26.6365C12.3892 26.3031 12.119 26.0328 11.7856 26.0328Z" fill="#E36F4B"/>
<path d="M35.1186 26.7832C35.0401 30.1002 32.3195 32.7748 28.9841 32.7748C28.0307 32.7748 27.1274 32.5562 26.3215 32.1666L28.5405 36.8266C29.1209 38.0454 30.3505 38.8217 31.7004 38.8217C33.6334 38.8217 35.2004 37.2548 35.2004 35.3218V26.7934L35.1186 26.7832Z" fill="#FFCCB3"/>
<path d="M30.9551 36.8266L29.062 32.851C29.0359 32.8513 29.0103 32.8529 28.9842 32.8529C28.052 32.8529 27.1686 32.6463 26.375 32.2787L28.5406 36.8265C29.121 38.0453 30.3506 38.8217 31.7006 38.8217C32.1255 38.8217 32.5326 38.746 32.9094 38.6073C32.0647 38.2972 31.3554 37.6673 30.9551 36.8266Z" fill="#FEA37F"/>
<path d="M28.9842 20.4203C25.5509 20.4203 22.7678 23.2034 22.7678 26.6366C22.7678 27.5949 22.9851 28.5023 23.3724 29.3129C23.5004 29.2881 23.6325 29.2747 23.7677 29.2747C24.9093 29.2747 25.8381 30.2034 25.8381 31.345C25.8381 31.5537 25.8067 31.7553 25.7489 31.9454C26.6914 32.521 27.7989 32.8529 28.9841 32.8529C32.4173 32.8529 35.2004 30.0698 35.2004 26.6366C35.2004 23.2034 32.4174 20.4203 28.9842 20.4203Z" fill="#F9804D"/>
<path d="M25.1824 26.6366C25.1824 23.6166 27.3363 21.1005 30.1914 20.5385C29.8008 20.4616 29.3974 20.4203 28.9842 20.4203C25.5509 20.4203 22.7678 23.2034 22.7678 26.6366C22.7678 27.5949 22.9851 28.5023 23.3724 29.3129C23.5004 29.2881 23.6325 29.2747 23.7677 29.2747C24.9093 29.2747 25.8381 30.2034 25.8381 31.345C25.8381 31.5537 25.8067 31.7553 25.7489 31.9454C26.6914 32.521 27.7989 32.8529 28.9841 32.8529C29.3973 32.8529 29.8007 32.8117 30.1913 32.7348C27.3362 32.1726 25.1824 29.6566 25.1824 26.6366Z" fill="#FFCCB3"/>
<path d="M25.899 27.7878C26.5347 27.7878 27.0501 27.2724 27.0501 26.6366C27.0501 26.0009 26.5347 25.4855 25.899 25.4855C25.2632 25.4855 24.7478 26.0009 24.7478 26.6366C24.7478 27.2724 25.2632 27.7878 25.899 27.7878Z" fill="#FFAD8A"/>
<path d="M32.0694 27.7878C32.7052 27.7878 33.2206 27.2724 33.2206 26.6366C33.2206 26.0009 32.7052 25.4855 32.0694 25.4855C31.4336 25.4855 30.9182 26.0009 30.9182 26.6366C30.9182 27.2724 31.4336 27.7878 32.0694 27.7878Z" fill="#FDA286"/>
<path d="M28.9842 24.7026C29.62 24.7026 30.1354 24.1872 30.1354 23.5514C30.1354 22.9157 29.62 22.4003 28.9842 22.4003C28.3484 22.4003 27.833 22.9157 27.833 23.5514C27.833 24.1872 28.3484 24.7026 28.9842 24.7026Z" fill="#FDAD8C"/>
<path d="M28.9842 30.8729C29.62 30.8729 30.1354 30.3575 30.1354 29.7217C30.1354 29.086 29.62 28.5706 28.9842 28.5706C28.3484 28.5706 27.833 29.086 27.833 29.7217C27.833 30.3575 28.3484 30.8729 28.9842 30.8729Z" fill="#FFAD8A"/>
<path d="M23.7678 33.4933C24.9544 33.4933 25.9163 32.5314 25.9163 31.3448C25.9163 30.1583 24.9544 29.1964 23.7678 29.1964C22.5813 29.1964 21.6194 30.1583 21.6194 31.3448C21.6194 32.5314 22.5813 33.4933 23.7678 33.4933Z" fill="#FFAD8A"/>
<path d="M23.3659 31.3448C23.3659 30.4694 23.8899 29.7167 24.6411 29.382C24.3742 29.2631 24.0788 29.1964 23.7678 29.1964C22.5813 29.1964 21.6194 30.1583 21.6194 31.3448C21.6194 32.5314 22.5813 33.4933 23.7678 33.4933C24.0789 33.4933 24.3742 33.4266 24.6411 33.3077C23.8899 32.973 23.3659 32.2203 23.3659 31.3448Z" fill="#E46F4B"/>
<path d="M5.49269 6.41895C4.18941 6.41895 3.11035 7.3791 2.92433 8.63066C2.89417 8.83363 3.05347 9.01559 3.25863 9.01559H7.7266C7.93175 9.01559 8.09105 8.83355 8.06089 8.63066C7.87503 7.3791 6.79597 6.41895 5.49269 6.41895Z" fill="#EAF6FF"/>
<path d="M4.53394 8.63066C4.6798 7.64895 5.37535 6.84668 6.29746 6.54637C6.04402 6.46379 5.77363 6.41895 5.49261 6.41895C4.18933 6.41895 3.11027 7.3791 2.92433 8.63066C2.89417 8.83363 3.05347 9.01566 3.25863 9.01566H4.86831C4.66308 9.01566 4.50378 8.83363 4.53394 8.63066Z" fill="#D8ECFE"/>
<path d="M5.49267 6.67295C6.31691 6.67295 6.98509 6.00477 6.98509 5.18053C6.98509 4.35629 6.31691 3.68811 5.49267 3.68811C4.66842 3.68811 4.00024 4.35629 4.00024 5.18053C4.00024 6.00477 4.66842 6.67295 5.49267 6.67295Z" fill="white"/>
<path d="M5.24774 5.18058C5.24774 4.57933 5.60407 4.06245 6.11642 3.82612C5.92642 3.73847 5.71563 3.68823 5.49267 3.68823C4.66845 3.68823 4.00024 4.35644 4.00024 5.18065C4.00024 6.00487 4.66845 6.67308 5.49267 6.67308C5.71563 6.67308 5.92642 6.62284 6.11642 6.53519C5.60407 6.2987 5.24774 5.78183 5.24774 5.18058Z" fill="#EAF6FF"/>
<path d="M34.5073 18.0721C37.5408 18.0721 40 15.613 40 12.5794C40 9.54594 37.5408 7.08679 34.5073 7.08679C31.4738 7.08679 29.0146 9.54594 29.0146 12.5794C29.0146 15.613 31.4738 18.0721 34.5073 18.0721Z" fill="#FDC4AC"/>
<path d="M30.6243 12.5794C30.6243 9.81945 32.6603 7.53554 35.3121 7.14609C35.0494 7.1075 34.7808 7.08679 34.5073 7.08679C31.4738 7.08679 29.0146 9.54593 29.0146 12.5794C29.0146 15.613 31.4738 18.0721 34.5073 18.0721C34.7808 18.0721 35.0494 18.0514 35.3121 18.0128C32.6604 17.6234 30.6243 15.3394 30.6243 12.5794Z" fill="#FFDBCC"/>
<path d="M34.5073 12.2051C33.2041 12.2051 32.125 13.1652 31.939 14.4168C31.9088 14.6198 32.0681 14.8017 32.2733 14.8017H36.7412C36.9464 14.8017 37.1057 14.6197 37.0755 14.4168C36.8897 13.1652 35.8106 12.2051 34.5073 12.2051Z" fill="#FA7A48"/>
<path d="M33.5486 14.4168C33.6944 13.4351 34.39 12.6328 35.3121 12.3325C35.0587 12.2499 34.7883 12.2051 34.5073 12.2051C33.204 12.2051 32.1249 13.1652 31.939 14.4168C31.9088 14.6198 32.0681 14.8018 32.2733 14.8018H33.883C33.6777 14.8018 33.5184 14.6198 33.5486 14.4168Z" fill="#FFAD8A"/>
<path d="M34.5073 12.4591C35.3316 12.4591 35.9997 11.7909 35.9997 10.9667C35.9997 10.1424 35.3316 9.47424 34.5073 9.47424C33.6831 9.47424 33.0149 10.1424 33.0149 10.9667C33.0149 11.7909 33.6831 12.4591 34.5073 12.4591Z" fill="#FDAD8C"/>
<path d="M34.3832 10.9667C34.3832 10.3892 34.7117 9.88948 35.1915 9.64127C34.9864 9.53518 34.7542 9.47424 34.5073 9.47424C33.6831 9.47424 33.0149 10.1424 33.0149 10.9667C33.0149 11.7909 33.683 12.4591 34.5073 12.4591C34.7541 12.4591 34.9864 12.3981 35.1915 12.2921C34.7117 12.0439 34.3832 11.5441 34.3832 10.9667Z" fill="#FA7A48"/>
</svg>
