<svg width="40" height="40" viewBox="0 0 40 40" fill="none" xmlns="http://www.w3.org/2000/svg">
<g clip-path="url(#clip0_1_752)">
<path d="M30 37.3243L37.3244 30C39.0479 27.0205 40.0248 23.5553 39.9995 19.8599C39.924 8.83687 31.0233 0 20 0C8.9543 0 0 8.9543 0 20C0 31.0234 8.83719 39.9242 19.8602 39.9995C23.5555 40.0248 27.0207 39.0478 30 37.3243Z" fill="#FDA884"/>
<path d="M29.9999 30.2413C29.9999 30.1081 30.1079 30 30.2411 30H33.3344C35.4267 27.2145 36.6665 23.752 36.6665 20C36.6665 10.7952 29.2046 3.33337 19.9999 3.33337C10.7952 3.33337 3.33325 10.7952 3.33325 20C3.33325 29.2048 10.7951 36.6667 19.9999 36.6667C23.7519 36.6667 27.2143 35.4268 29.9999 33.3345V30.2413Z" fill="#F38461"/>
<path d="M25.7914 4.36707C30.4187 7.34652 33.4759 12.5538 33.4471 18.4731C33.4027 27.6337 25.8855 35.087 16.7248 35.0569C14.7085 35.0503 12.7765 34.6856 10.989 34.0232C13.5871 35.6961 16.6802 36.6667 20 36.6667C23.752 36.6667 27.2144 35.4268 30 33.3346L33.3346 30C35.4268 27.2144 36.6667 23.752 36.6667 20C36.6667 12.8316 32.1412 6.72027 25.7914 4.36707Z" fill="#FF9B71"/>
<path d="M39.7587 40H30.2413C30.108 40 30 39.892 30 39.7587V30.2413C30 30.108 30.108 30 30.2413 30H39.7588C39.892 30 40.0001 30.108 40.0001 30.2413V39.7588C40 39.892 39.892 40 39.7587 40Z" fill="#F8825D"/>
<path d="M26.1111 14.4445H13.8889C11.7411 14.4445 10 16.1856 10 18.3334V25.844C10 27.7638 12.5416 28.4448 13.5015 26.7822L16.0175 22.4244C16.0897 22.2993 16.2231 22.2223 16.3676 22.2223H23.6325C23.777 22.2223 23.9104 22.2993 23.9826 22.4244L26.4986 26.7822C27.4584 28.4448 30 27.7638 30 25.8439V18.3333C30 16.1856 28.2589 14.4445 26.1111 14.4445Z" fill="#FDA884"/>
<path d="M26.1111 14.4445H26.043C26.5071 15.0849 26.7807 15.8723 26.7807 16.7237V24.2343C26.7807 24.9495 26.4279 25.4928 25.9355 25.807L26.4985 26.7822C27.4584 28.4448 30 27.7637 30 25.8439V18.3333C30 16.1856 28.2589 14.4445 26.1111 14.4445Z" fill="#FFA884"/>
<path d="M37.691 33.8889H36.1976C36.1497 33.8889 36.111 33.8501 36.111 33.8023V32.3089C36.111 32.261 36.0722 32.2223 36.0244 32.2223H33.9754C33.9276 32.2223 33.8888 32.2611 33.8888 32.3089V33.8023C33.8888 33.8502 33.85 33.8889 33.8022 33.8889H32.3088C32.2609 33.8889 32.2222 33.9278 32.2222 33.9756V36.0245C32.2222 36.0724 32.261 36.1111 32.3088 36.1111H33.8022C33.8501 36.1111 33.8888 36.1499 33.8888 36.1978V37.6911C33.8888 37.739 33.9276 37.7778 33.9754 37.7778H36.0244C36.0722 37.7778 36.111 37.7389 36.111 37.6911V36.1978C36.111 36.1499 36.1498 36.1111 36.1976 36.1111H37.691C37.7389 36.1111 37.7776 36.0723 37.7776 36.0245V33.9756C37.7777 33.9277 37.7389 33.8889 37.691 33.8889Z" fill="#F1F4F6"/>
<path d="M15.5555 17.7297H14.4925V16.6666C14.4925 16.3331 14.2222 16.063 13.8889 16.063C13.5555 16.063 13.2853 16.3332 13.2853 16.6666V17.7297H12.2222C11.8889 17.7297 11.6187 17.9999 11.6187 18.3333C11.6187 18.6667 11.8889 18.9369 12.2222 18.9369H13.2853V19.9999C13.2853 20.3334 13.5555 20.6035 13.8889 20.6035C14.2222 20.6035 14.4925 20.3333 14.4925 19.9999V18.9369H15.5555C15.8889 18.9369 16.1591 18.6667 16.1591 18.3333C16.1592 17.9999 15.8889 17.7297 15.5555 17.7297Z" fill="#FED1BE"/>
<path d="M18.3333 19.3964H17.2222C16.8889 19.3964 16.6187 19.6666 16.6187 20C16.6187 20.3333 16.8889 20.6036 17.2222 20.6036H18.3333C18.6667 20.6036 18.9369 20.3333 18.9369 20C18.9369 19.6666 18.6667 19.3964 18.3333 19.3964Z" fill="#FED1BE"/>
<path d="M22.7777 19.3964H21.6666C21.3332 19.3964 21.063 19.6666 21.063 20C21.063 20.3333 21.3332 20.6036 21.6666 20.6036H22.7777C23.111 20.6036 23.3813 20.3333 23.3813 20C23.3813 19.6666 23.111 19.3964 22.7777 19.3964Z" fill="#FED1BE"/>
<path d="M38.245 15.715C38.2967 15.715 38.3493 15.7083 38.4016 15.6942L39.4704 15.4078C39.378 15.0145 39.2739 14.6256 39.1587 14.2416L38.0892 14.5281C37.7672 14.6144 37.5761 14.9454 37.6623 15.2674C37.7346 15.5371 37.9785 15.715 38.245 15.715Z" fill="#F38461"/>
<path d="M6.2168 7.07035C6.33469 7.18816 6.48914 7.24714 6.64359 7.24714C6.79805 7.24714 6.95258 7.18816 7.07039 7.07035C7.30617 6.83457 7.30617 6.45246 7.07039 6.2166L6.29117 5.43738C5.99813 5.71332 5.71344 5.99808 5.4375 6.29105L6.2168 7.07035Z" fill="#F38461"/>
<path d="M32.9298 7.07035C33.0477 7.18816 33.2021 7.24714 33.3566 7.24714C33.511 7.24714 33.6655 7.18816 33.7834 7.07035L34.5627 6.29105C34.2867 5.99808 34.002 5.71332 33.709 5.43738L32.9298 6.2166C32.694 6.45246 32.694 6.83457 32.9298 7.07035Z" fill="#F38461"/>
<path d="M24.7325 2.33775C24.7848 2.35182 24.8374 2.35854 24.8891 2.35854C25.1556 2.35854 25.3995 2.18064 25.4718 1.91104L25.7583 0.841504C25.3743 0.726191 24.9854 0.622207 24.592 0.529785L24.3056 1.59861C24.2194 1.92041 24.4105 2.25143 24.7325 2.33775Z" fill="#F38461"/>
<path d="M35.8356 10.8573C35.9474 11.051 36.1503 11.1592 36.3589 11.1592C36.4613 11.1592 36.5651 11.1331 36.6602 11.0783L37.6178 10.5254C37.4266 10.1705 37.2249 9.82203 37.0132 9.48047L36.0565 10.0328C35.7678 10.1995 35.6689 10.5687 35.8356 10.8573Z" fill="#F38461"/>
<path d="M29.4745 2.3822L28.9216 3.33994C28.7549 3.62861 28.8538 3.99783 29.1425 4.16447C29.2376 4.21931 29.3413 4.24541 29.4438 4.24541C29.6524 4.24541 29.8552 4.1372 29.967 3.94353L30.5195 2.98673C30.1779 2.77517 29.8295 2.57353 29.4745 2.3822Z" fill="#F38461"/>
<path d="M36.6601 28.9217C36.3714 28.755 36.0022 28.8539 35.8356 29.1426C35.6689 29.4313 35.7679 29.8005 36.0566 29.9672L36.1134 30H37.3244C37.4248 29.8265 37.5226 29.6513 37.6178 29.4746L36.6601 28.9217Z" fill="#F38461"/>
<path d="M38.2852 20C38.2852 20.3334 38.5554 20.6036 38.8888 20.6036H39.9909C39.997 20.4031 39.9999 20.2019 39.9999 20C39.9999 19.798 39.9969 19.5968 39.9909 19.3964H38.8888C38.5555 19.3964 38.2852 19.6665 38.2852 20Z" fill="#F38461"/>
<path d="M29.9673 36.0564C29.8006 35.7677 29.4314 35.6688 29.1428 35.8355C28.854 36.0022 28.7551 36.3713 28.9218 36.66L29.4747 37.6177C29.6514 37.5225 29.8266 37.4247 30.0001 37.3243V36.1133L29.9673 36.0564Z" fill="#F38461"/>
<path d="M7.07047 32.9296C6.83477 32.694 6.45258 32.694 6.2168 32.9296L5.4375 33.7089C5.71344 34.0019 5.99813 34.2867 6.29117 34.5626L7.07039 33.7834C7.30617 33.5475 7.30617 33.1654 7.07047 32.9296Z" fill="#F38461"/>
<path d="M1.71477 20C1.71477 19.6665 1.44453 19.3964 1.11117 19.3964H0.00898438C0.00304688 19.5968 0 19.798 0 20C0 20.2019 0.00304688 20.4031 0.00898438 20.6036H1.11117C1.44445 20.6036 1.71477 20.3334 1.71477 20Z" fill="#F38461"/>
<path d="M15.6944 38.4015C15.7806 38.0795 15.5895 37.7486 15.2676 37.6622C14.9456 37.5758 14.6146 37.767 14.5283 38.089L14.2417 39.1586C14.6258 39.2739 15.0147 39.3779 15.408 39.4703L15.6944 38.4015Z" fill="#F38461"/>
<path d="M11.0784 36.66C11.2451 36.3714 11.1462 36.0022 10.8574 35.8355C10.5687 35.6688 10.1995 35.7677 10.0329 36.0564L9.48047 37.0132C9.82203 37.2249 10.1705 37.4265 10.5254 37.6179L11.0784 36.66Z" fill="#F38461"/>
<path d="M20.0001 1.71477C20.3334 1.71477 20.6037 1.44453 20.6037 1.11117V0.00898438C20.4032 0.00304688 20.202 0 20.0001 0C19.7981 0 19.597 0.00304688 19.3965 0.00898438V1.11117C19.3965 1.44453 19.6667 1.71477 20.0001 1.71477Z" fill="#F38461"/>
<path d="M3.94357 29.9672C4.23225 29.8005 4.33123 29.4314 4.16451 29.1427C3.99779 28.854 3.62865 28.7551 3.33998 28.9218L2.38232 29.4747C2.57357 29.8296 2.77521 30.178 2.98693 30.5196L3.94357 29.9672Z" fill="#F38461"/>
<path d="M25.472 38.089C25.3856 37.767 25.0548 37.5755 24.7327 37.6622C24.4106 37.7486 24.2196 38.0795 24.3059 38.4015L24.5923 39.4703C24.9856 39.3779 25.3745 39.2738 25.7586 39.1586L25.472 38.089Z" fill="#F38461"/>
<path d="M38.4016 24.3057C38.0801 24.2195 37.7486 24.4104 37.6623 24.7325C37.5761 25.0546 37.7672 25.3856 38.0892 25.4718L39.1587 25.7584C39.2739 25.3744 39.378 24.9855 39.4704 24.5922L38.4016 24.3057Z" fill="#F38461"/>
<path d="M20.6037 39.9911V38.8889C20.6037 38.5554 20.3334 38.2853 20.0001 38.2853C19.6667 38.2853 19.3965 38.5555 19.3965 38.8889V39.9911C19.597 39.997 19.7981 40 20.0001 40C20.202 40 20.4032 39.9971 20.6037 39.9911Z" fill="#F38461"/>
<path d="M10.0329 3.94365C10.1447 4.13732 10.3476 4.24553 10.5562 4.24553C10.6586 4.24553 10.7623 4.21943 10.8574 4.16459C11.1462 3.99787 11.2451 3.62873 11.0784 3.34006L10.5254 2.38232C10.1705 2.57357 9.82203 2.77521 9.48047 2.98693L10.0329 3.94365Z" fill="#F38461"/>
<path d="M1.91104 25.4718C2.23307 25.3856 2.42416 25.0546 2.33791 24.7325C2.25166 24.4105 1.92041 24.2192 1.59861 24.3057L0.529785 24.5921C0.622207 24.9855 0.72627 25.3744 0.841504 25.7584L1.91104 25.4718Z" fill="#F38461"/>
<path d="M14.528 1.91099C14.6003 2.18068 14.8442 2.35849 15.1107 2.35849C15.1624 2.35849 15.215 2.35177 15.2673 2.33771C15.5893 2.25138 15.7804 1.92044 15.6941 1.59841L15.4078 0.529663C15.0144 0.622085 14.6255 0.726148 14.2415 0.841382L14.528 1.91099Z" fill="#F38461"/>
<path d="M1.59861 15.6943C1.65096 15.7083 1.70346 15.7151 1.75525 15.7151C2.02174 15.7151 2.26564 15.5372 2.33791 15.2676C2.42416 14.9455 2.23307 14.6145 1.91104 14.5283L0.841504 14.2417C0.72627 14.6257 0.622207 15.0146 0.529785 15.4079L1.59861 15.6943Z" fill="#F38461"/>
<path d="M3.33981 11.0783C3.43489 11.1331 3.53864 11.1592 3.64106 11.1592C3.84966 11.1592 4.05255 11.051 4.16435 10.8573C4.33106 10.5687 4.23208 10.1995 3.94341 10.0328L2.98669 9.48047C2.77505 9.82203 2.57333 10.1705 2.38208 10.5254L3.33981 11.0783Z" fill="#F38461"/>
<path d="M26.1112 17.2702C26.4445 17.2702 26.7148 16.9999 26.7148 16.6666C26.7148 16.3332 26.4445 16.063 26.1112 16.063C25.7778 16.063 25.5076 16.3332 25.5076 16.6666C25.5076 16.9999 25.7778 17.2702 26.1112 17.2702Z" fill="#FED1BE"/>
<path d="M26.1112 20.6036C26.4445 20.6036 26.7148 20.3333 26.7148 20C26.7148 19.6666 26.4445 19.3964 26.1112 19.3964C25.7778 19.3964 25.5076 19.6666 25.5076 20C25.5076 20.3333 25.7778 20.6036 26.1112 20.6036Z" fill="#FED1BE"/>
<path d="M27.7779 18.9369C28.1113 18.9369 28.3815 18.6667 28.3815 18.3333C28.3815 18 28.1113 17.7297 27.7779 17.7297C27.4446 17.7297 27.1743 18 27.1743 18.3333C27.1743 18.6667 27.4446 18.9369 27.7779 18.9369Z" fill="#FFCCB3"/>
<path d="M24.4444 18.9369C24.7778 18.9369 25.048 18.6667 25.048 18.3333C25.048 18 24.7778 17.7297 24.4444 17.7297C24.1111 17.7297 23.8408 18 23.8408 18.3333C23.8408 18.6667 24.1111 18.9369 24.4444 18.9369Z" fill="#FED1BE"/>
</g>
<defs>
<clipPath id="clip0_1_752">
<rect width="40" height="40" fill="white"/>
</clipPath>
</defs>
</svg>
