<svg width="40" height="40" viewBox="0 0 40 40" fill="none" xmlns="http://www.w3.org/2000/svg">
<g clip-path="url(#clip0_1_1611)">
<path d="M25.1612 0.107422H1.29042C0.934092 0.107422 0.645264 0.39625 0.645264 0.752578V37.1402L4.25167 39.3801L6.45167 38.4516L7.93831 39.3435C8.3469 39.5887 8.85737 39.5887 9.26605 39.3435L10.7528 38.4515L12.2394 39.3434C12.648 39.5886 13.1585 39.5886 13.5671 39.3434L15.0538 38.4515L16.5405 39.3435C16.9491 39.5887 17.4596 39.5887 17.8682 39.3435L19.3549 38.4516L20.8415 39.3435C21.2501 39.5887 21.7606 39.5887 22.1693 39.3435L23.656 38.4515L24.8294 39.1555C25.2594 39.4135 25.8065 39.1038 25.8065 38.6023V0.752578C25.8064 0.39625 25.5175 0.107422 25.1612 0.107422Z" fill="#FFCCB3"/>
<path d="M39.1723 27.2646L15.0433 35.1379L11.3103 24.38L11.7788 23.4103L35.0366 15.6577C35.7126 15.4324 36.4434 15.7977 36.6687 16.4738L39.933 26.2666L39.1723 27.2646Z" fill="#2F80ED"/>
<path d="M22.7726 22.9418C22.5621 22.6973 22.2288 22.604 21.922 22.7074C21.6159 22.8094 21.4042 23.0835 21.3815 23.4218L21.0936 30.2527C21.0785 30.6086 21.3551 30.9092 21.711 30.9243C21.7205 30.925 21.7293 30.925 21.7388 30.925C22.0821 30.925 22.3681 30.6534 22.3827 30.3069L22.4356 29.0497L25.2996 28.0953L26.091 29.0689C26.3166 29.3454 26.7224 29.3871 26.9989 29.1628C27.2755 28.9379 27.3171 28.5314 27.0928 28.2549L22.7726 22.9418ZM22.4938 27.6707L22.6151 24.7928L24.43 27.0254L22.4938 27.6707Z" fill="white"/>
<path d="M27.6196 21.4882C27.5068 21.1505 27.1445 20.9666 26.8038 21.0806C26.466 21.1927 26.2834 21.5581 26.3961 21.8964L28.4456 28.0443C28.5357 28.3146 28.7871 28.4853 29.0574 28.4853C29.1249 28.4853 29.1935 28.4746 29.2616 28.452C29.5993 28.3398 29.782 27.9744 29.6692 27.6361L27.6196 21.4882Z" fill="white"/>
<path d="M35.539 22.2638C34.8227 20.1135 33.1241 19.0771 31.3196 19.6756L29.6292 20.2395C29.4667 20.2937 29.3325 20.4102 29.2563 20.5633C29.1794 20.7165 29.1674 20.8941 29.2216 21.0566L30.2177 24.0304C30.4942 24.8595 31.2232 27.0193 31.2232 27.0193C31.3139 27.289 31.5653 27.4584 31.8344 27.4584C31.9024 27.4584 31.9724 27.4477 32.0404 27.4244C32.0404 27.4244 33.2904 27.003 33.7717 26.8335C35.4779 26.2312 36.2213 24.3095 35.539 22.2638ZM33.3421 25.6162C33.0895 25.7057 32.622 25.8651 32.2395 25.9949C32.0027 25.293 31.624 24.1684 31.4419 23.6222L30.6506 21.2589L31.7273 20.8997C33.0535 20.4581 33.9331 21.526 34.3155 22.672C34.6891 23.793 34.5442 25.1929 33.3421 25.6162Z" fill="white"/>
<path d="M18.5596 24.5862C17.9617 24.2963 17.2876 24.2522 16.6613 24.4614L14.9501 25.0309L14.9503 25.0315C14.95 25.0315 14.9498 25.0315 14.9495 25.0315C14.6118 25.1437 14.4291 25.5091 14.5419 25.8474L16.5914 31.9959C16.6815 32.2662 16.9329 32.4369 17.2032 32.4369C17.2706 32.4369 17.3393 32.4262 17.4073 32.4036C17.7451 32.2915 17.9277 31.926 17.815 31.5877L17.1277 29.5259C17.5076 29.3971 17.9724 29.2396 18.2264 29.1545C18.852 28.946 19.3648 28.5062 19.6698 27.9165C19.9792 27.3179 20.0346 26.6426 19.8248 26.0144C19.6155 25.3863 19.1664 24.8791 18.5596 24.5862ZM18.5237 27.3237C18.3738 27.6135 18.1237 27.829 17.8175 27.931C17.5667 28.0148 17.1068 28.1704 16.7282 28.299C16.5965 27.9096 15.9715 26.051 15.9715 26.051L17.0697 25.685C17.6972 25.4783 18.3978 25.8141 18.6013 26.4227C18.6995 26.7169 18.6718 27.0369 18.5237 27.3237Z" fill="white"/>
<path d="M8.60948 11.0429C8.28386 10.9278 7.99214 10.8189 7.71737 10.7128V6.29528C8.55909 6.42474 9.07401 6.85325 9.11034 6.88536C9.37245 7.12474 9.77815 7.10653 10.0189 6.84567C10.2602 6.58419 10.2438 6.17591 9.98167 5.93403C9.93401 5.88958 9.08987 5.13599 7.7173 4.98802V3.97841C7.7173 3.62185 7.4287 3.33325 7.07214 3.33325C6.71558 3.33325 6.42698 3.62185 6.42698 3.97841V5.03958C6.25323 5.07153 6.0762 5.11075 5.89269 5.16599C4.7473 5.51122 3.89105 6.49349 3.6573 7.73021C3.4462 8.85169 3.80097 9.92903 4.58284 10.5427C5.03995 10.9014 5.61706 11.2295 6.42698 11.5814V17.0493C5.6062 17.0191 5.11214 16.8749 4.24269 16.3056C3.94401 16.1109 3.54526 16.1947 3.34933 16.4921C3.15464 16.7901 3.23784 17.1901 3.53581 17.3854C4.66644 18.1256 5.38683 18.3076 6.42706 18.3415V19.462C6.42706 19.8186 6.71566 20.1072 7.07222 20.1072C7.42878 20.1072 7.71737 19.8186 7.71737 19.462V18.2923C9.63558 17.9954 10.7567 16.4529 10.9992 15.0102C11.3003 13.2197 10.3622 11.6623 8.60948 11.0429ZM5.37925 9.52708C4.97792 9.21208 4.80401 8.61544 4.92566 7.96966C5.03847 7.37239 5.44925 6.64724 6.26448 6.40153C6.3212 6.3845 6.37159 6.3813 6.42706 6.36747V10.1583C5.99105 9.94372 5.64745 9.73747 5.37925 9.52708ZM9.72651 14.7967C9.57198 15.7173 8.88456 16.6953 7.7173 16.9735V12.0911C7.86784 12.1465 8.01714 12.2015 8.17972 12.259C9.55323 12.7447 9.87964 13.8882 9.72651 14.7967Z" fill="#FA7A48"/>
<path d="M14.1935 6.55899H21.2902C21.6468 6.55899 21.9354 6.2704 21.9354 5.91383C21.9354 5.55727 21.6468 5.26868 21.2902 5.26868H14.1935C13.8369 5.26868 13.5483 5.55727 13.5483 5.91383C13.5483 6.2704 13.8369 6.55899 14.1935 6.55899Z" fill="#FA7A48"/>
<path d="M21.2902 8.49451H14.1935C13.8369 8.49451 13.5483 8.7831 13.5483 9.13966C13.5483 9.49623 13.8369 9.78482 14.1935 9.78482H21.2902C21.6468 9.78482 21.9354 9.49623 21.9354 9.13966C21.9354 8.7831 21.6468 8.49451 21.2902 8.49451Z" fill="#FA7A48"/>
<path d="M21.2902 11.7202H14.1935C13.8369 11.7202 13.5483 12.0088 13.5483 12.3654C13.5483 12.7219 13.8369 13.0105 14.1935 13.0105H21.2902C21.6468 13.0105 21.9354 12.7219 21.9354 12.3654C21.9354 12.0087 21.6468 11.7202 21.2902 11.7202Z" fill="#FA7A48"/>
<path d="M21.2902 14.946H14.1935C13.8369 14.946 13.5483 15.2346 13.5483 15.5912C13.5483 15.9478 13.8369 16.2364 14.1935 16.2364H21.2902C21.6468 16.2364 21.9354 15.9478 21.9354 15.5912C21.9354 15.2346 21.6468 14.946 21.2902 14.946Z" fill="#FA7A48"/>
<path d="M3.87099 23.9782H7.09677C7.45333 23.9782 7.74192 23.6896 7.74192 23.333C7.74192 22.9765 7.45333 22.6879 7.09677 22.6879H3.87099C3.51442 22.6879 3.22583 22.9765 3.22583 23.333C3.22583 23.6896 3.51435 23.9782 3.87099 23.9782Z" fill="#FA7A48"/>
<path d="M3.87099 30.4297H8.67755C9.03411 30.4297 9.3227 30.1411 9.3227 29.7846C9.3227 29.428 9.03411 29.1394 8.67755 29.1394H3.87099C3.51442 29.1394 3.22583 29.428 3.22583 29.7846C3.22583 30.1411 3.51435 30.4297 3.87099 30.4297Z" fill="#FA7A48"/>
<path d="M9.67739 32.3651H3.87099C3.51442 32.3651 3.22583 32.6537 3.22583 33.0103C3.22583 33.3668 3.51442 33.6554 3.87099 33.6554H9.67739C10.034 33.6554 10.3225 33.3668 10.3225 33.0103C10.3225 32.6537 10.034 32.3651 9.67739 32.3651Z" fill="#FA7A48"/>
<path d="M3.87099 27.2039H7.74192C8.09849 27.2039 8.38708 26.9153 8.38708 26.5587C8.38708 26.2022 8.09849 25.9136 7.74192 25.9136H3.87099C3.51442 25.9136 3.22583 26.2022 3.22583 26.5587C3.22583 26.9154 3.51435 27.2039 3.87099 27.2039Z" fill="#FA7A48"/>
<path d="M24.3198 37.7105C23.9112 37.4654 23.4006 37.4654 22.992 37.7106L21.5055 38.6026L20.0184 37.7105C19.6098 37.4653 19.0994 37.4654 18.6908 37.7105L17.2043 38.6025L15.7172 37.7104C15.3086 37.4652 14.7981 37.4653 14.3895 37.7105L12.903 38.6024L11.4166 37.7105C11.008 37.4652 10.4975 37.4652 10.0888 37.7105L8.60242 38.6024L7.11531 37.7103C6.70672 37.4652 6.19625 37.4652 5.78766 37.7104L4.30117 38.6023L2.21914 37.3346C1.64227 36.9834 1.29023 36.3569 1.29023 35.6815V0.107422H0.645078C0.288828 0.107422 0 0.39625 0 0.752578V38.9676C0 39.4691 0.547109 39.7788 0.977109 39.5208L2.15055 38.8167L3.63727 39.7087C4.04586 39.9538 4.55641 39.9538 4.965 39.7087L6.45164 38.8167L7.93828 39.7087C8.34688 39.9538 8.85742 39.9538 9.26602 39.7087L10.7527 38.8167L12.2394 39.7087C12.648 39.9538 13.1584 39.9538 13.5671 39.7087L15.0538 38.8167L16.5405 39.7087C16.9491 39.9538 17.4595 39.9538 17.8682 39.7087L19.3548 38.8167L20.8415 39.7087C21.2501 39.9538 21.7606 39.9538 22.1692 39.7087L23.6559 38.8167L24.8293 39.5208C25.2593 39.7788 25.8064 39.4691 25.8064 38.9676V38.6023L24.3198 37.7105Z" fill="#FDAD8C"/>
<path d="M39.1188 27.8981C39.7938 27.6731 40.1586 26.9435 39.9336 26.2685L39.9329 26.2665L17.2872 33.8147C16.2731 34.1527 15.177 33.6046 14.839 32.5905L11.7792 23.4102L11.7788 23.4103C11.0988 23.6143 10.7261 24.3323 10.9506 25.0059L14.227 34.8352C14.4524 35.5113 15.1831 35.8766 15.8592 35.6513L39.1188 27.8981Z" fill="#4B95FA"/>
</g>
<defs>
<clipPath id="clip0_1_1611">
<rect width="40" height="40" fill="white"/>
</clipPath>
</defs>
</svg>
