<svg width="40" height="40" viewBox="0 0 40 40" fill="none" xmlns="http://www.w3.org/2000/svg">
<g clip-path="url(#clip0_1_288)">
<path d="M20 35.8916L9.97055 36.5947L0 35.8916V29.8076C0 25.5484 3.45273 22.0957 7.71187 22.0957H12.288C16.5472 22.0957 19.9999 25.5484 19.9999 29.8076L20.703 32.7921L20 35.8916Z" fill="#FA7A48"/>
<path d="M0.403594 37.3446H3.345L3.95047 36.6414L4.55594 37.3446H15.444L16.0495 36.6414L16.6548 37.3446H20L20.7031 36.6181L20 35.8916H0V36.941C0 37.1639 0.180703 37.3446 0.403594 37.3446Z" fill="#FF966E"/>
<path d="M9.99997 25.1621C12.6375 25.1621 12.574 22.2125 12.5706 22.1009C12.48 22.0978 12.3893 22.0956 12.298 22.0956H7.72185C7.62388 22.0956 7.52646 22.098 7.42935 22.1017C7.42567 22.2284 7.36966 25.1621 9.99997 25.1621Z" fill="#E2AE84"/>
<path d="M4.55591 30.7607V35.8915L3.95044 36.5946L3.34497 35.8915V30.7607C3.34497 30.4264 3.61622 30.1553 3.95044 30.1553C4.28466 30.1552 4.55591 30.4264 4.55591 30.7607Z" fill="#FF9267"/>
<path d="M16.6547 30.7607V35.8915L16.0493 36.5946L15.4438 35.8915V30.7607C15.4438 30.4264 15.7151 30.1553 16.0493 30.1553C16.3835 30.1552 16.6547 30.4264 16.6547 30.7607Z" fill="#FF9267"/>
<path d="M3.34497 35.8915H4.55583V37.3445H3.34497V35.8915Z" fill="#FFA275"/>
<path d="M15.4438 35.8915H16.6547V37.3445H15.4438V35.8915Z" fill="#FFA275"/>
<path d="M1.7281 13.6133C-0.214011 9.1853 -0.580339 4.96452 3.74091 3.66124C13.6536 0.671706 14.1605 5.29858 14.1605 5.29858C14.1605 5.29858 21.1816 5.60928 18.5248 14.2814L1.7281 13.6133Z" fill="#26457D"/>
<path d="M3.52506 12.5903C2.76139 12.5903 2.09186 13.0012 1.72803 13.6132C1.85412 13.8979 2.02381 14.2679 2.16225 14.5541L3.74084 14.6038V12.6014C3.6699 12.5942 3.59787 12.5903 3.52506 12.5903Z" fill="#21386B"/>
<path d="M18.2674 15.0613C18.3619 14.7937 18.4472 14.5346 18.5248 14.2814C18.3397 13.3184 17.4922 12.5903 16.4751 12.5903C16.4022 12.5903 16.3302 12.5942 16.2593 12.6014V14.998L18.2674 15.0613Z" fill="#21386B"/>
<path d="M3.30358 17.3665L3.7439 16.7529L4.32077 16.3833L3.74077 14.0544C3.66983 14.0472 3.5978 14.0433 3.52499 14.0433C2.62788 14.0433 1.86312 14.6094 1.56812 15.4039C1.56804 16.1954 2.40647 17.3665 3.30358 17.3665Z" fill="#E2AE84"/>
<path d="M3.52502 16.7645C2.62791 16.7645 1.86314 16.1984 1.56814 15.4039C1.48408 15.6302 1.43799 15.8749 1.43799 16.1304C1.43799 17.2831 2.37236 18.2174 3.52502 18.2174C3.6708 18.2174 3.81314 18.2024 3.95049 18.1739L4.32072 17.2935L3.74385 16.7529C3.67197 16.7605 3.59893 16.7645 3.52502 16.7645Z" fill="#D7A379"/>
<path d="M16.6964 17.3665L16.2561 16.7529L15.6792 16.3833L16.2592 14.0544C16.3301 14.0472 16.4022 14.0433 16.475 14.0433C17.3721 14.0433 18.1369 14.6094 18.4319 15.4039C18.4319 16.1954 17.5935 17.3665 16.6964 17.3665Z" fill="#E2AE84"/>
<path d="M16.4749 16.7645C17.372 16.7645 18.1368 16.1984 18.4318 15.4039C18.5158 15.6302 18.5619 15.8749 18.5619 16.1304C18.5619 17.2831 17.6276 18.2174 16.4749 18.2174C16.329 18.2174 16.1868 18.2024 16.0494 18.1739L15.6792 17.2935L16.2561 16.7529C16.3279 16.7605 16.401 16.7645 16.4749 16.7645Z" fill="#D7A379"/>
<path d="M10 22.0723C14.6042 22.0723 16.2592 18.5669 16.2592 15.11V12.6392C16.2592 12.4941 16.1807 12.361 16.0547 12.289C14.5409 11.4235 13.4675 9.42914 13.0375 8.5168C12.9277 8.28383 12.629 8.21195 12.4261 8.37062C8.72776 11.2635 5.29183 11.5265 4.14464 11.5245C3.92144 11.5241 3.74097 11.7048 3.74097 11.928V15.1101C3.74089 18.5669 5.65894 22.0723 10 22.0723Z" fill="#F0C69E"/>
<path d="M10.0001 21.3691C6.54331 21.3691 3.74097 18.5669 3.74097 15.11V16.563C3.74097 20.0199 6.54331 22.8222 10.0001 22.8222C13.4569 22.8222 16.2592 20.0199 16.2592 16.563V15.11C16.2592 18.5669 13.4569 21.3691 10.0001 21.3691Z" fill="#E6BA94"/>
<path d="M9.97042 18.7908C10.5734 19.9475 11.8765 19.8861 12.4901 19.7832C12.6921 19.7493 12.8362 19.5671 12.8232 19.3626C12.777 18.6318 12.4012 17.0027 9.97065 17.0027C7.54003 17.0027 7.16433 18.6318 7.118 19.3626C7.10503 19.5671 7.24909 19.7493 7.45112 19.7832C8.06479 19.8861 9.36784 19.9475 9.97081 18.7908H9.97042Z" fill="#26457D"/>
<path d="M39.7462 22.0592C39.2675 21.7954 38.3029 21.0502 38.5831 19.4236C40.6458 7.45148 35.4559 3.01453 30 3.01453C24.5442 3.01453 19.3542 7.45148 21.4169 19.4236C21.6971 21.0502 20.7326 21.7954 20.2537 22.0592C20.0946 22.1469 20.0147 22.3287 20.0555 22.5057C20.1374 22.8616 20.3364 23.4564 20.8098 24.0329C20.8098 24.0327 20.81 24.0325 20.8102 24.0323C20.8098 24.0329 39.1898 24.0323 39.1898 24.0323C39.19 24.0325 39.1901 24.0327 39.1902 24.0329C39.6636 23.4564 39.8626 22.8616 39.9445 22.5057C39.9853 22.3287 39.9053 22.1469 39.7462 22.0592Z" fill="#26457D"/>
<path d="M33.1345 21.3691H26.8654C24.4687 21.3691 22.312 22.3955 20.8101 24.0325C21.1309 24.4234 21.5772 24.806 22.1997 25.0998H37.8002C38.4227 24.8059 38.8689 24.4234 39.1898 24.0325C37.688 22.3955 35.5312 21.3691 33.1345 21.3691Z" fill="#21386B"/>
<path d="M40 35.8916L29.99 36.5947L20 35.8916V29.8076C20 25.5484 23.4527 22.0957 27.7119 22.0957H32.288C36.5472 22.0957 39.9999 25.5484 39.9999 29.8076V35.8916H40Z" fill="#FFDA6E"/>
<path d="M20 37.3446H23.3452L23.9505 36.6414L24.556 37.3446H35.4441L36.0495 36.6414L36.6549 37.3446H39.5963C39.8192 37.3446 39.9999 37.1639 39.9999 36.941V35.8916H20V37.3446Z" fill="#FFC954"/>
<path d="M29.9899 25.1621C32.6274 25.1621 32.5639 22.2125 32.5606 22.1009C32.47 22.0978 32.3793 22.0956 32.288 22.0956H27.7118C27.6139 22.0956 27.5164 22.098 27.4193 22.1017C27.4157 22.2284 27.3597 25.1621 29.9899 25.1621Z" fill="#E2AE84"/>
<path d="M24.5561 30.7607V35.8915L23.9506 36.5946L23.3452 35.8915V30.7607C23.3452 30.4264 23.6165 30.1553 23.9506 30.1553C24.2848 30.1552 24.5561 30.4264 24.5561 30.7607Z" fill="#FFC954"/>
<path d="M36.655 30.7607V35.8915L36.0496 36.5946L35.4441 35.8915V30.7607C35.4441 30.4264 35.7153 30.1553 36.0496 30.1553C36.3837 30.1552 36.655 30.4264 36.655 30.7607Z" fill="#FFC954"/>
<path d="M23.3452 35.8915H24.5561V37.3445H23.3452V35.8915Z" fill="#FFC954"/>
<path d="M35.4441 35.8915H36.655V37.3445H35.4441V35.8915Z" fill="#FFC954"/>
<path d="M30.0001 22.0722C34.7976 22.0722 36.2592 18.5669 36.2592 15.11V13.5847C36.2592 13.4319 36.1724 13.2929 36.0357 13.2242C34.1699 12.287 32.9938 10.2258 32.4919 9.17349C32.3621 8.90131 31.9917 8.86193 31.808 9.10099C29.442 12.178 25.2621 13.1708 24.0679 13.3984C23.8778 13.4347 23.741 13.6012 23.741 13.7947V15.1101C23.741 18.5669 25.1766 22.0722 30.0001 22.0722Z" fill="#F0C69E"/>
<path d="M30.0001 21.3691C26.5433 21.3691 23.741 18.5669 23.741 15.11V16.563C23.741 20.0199 26.5433 22.8222 30.0001 22.8222C33.4569 22.8222 36.2592 20.0199 36.2592 16.563V15.11C36.2592 18.5669 33.4569 21.3691 30.0001 21.3691Z" fill="#E6BA94"/>
<path d="M6.92921 16.6391C7.26452 16.6391 7.5364 16.3673 7.5364 16.0319V14.6246C7.5364 14.2893 7.26452 14.0175 6.92921 14.0175C6.5939 14.0175 6.32202 14.2893 6.32202 14.6246V16.0319C6.32202 16.3673 6.5939 16.6391 6.92921 16.6391Z" fill="#5E6B75"/>
<path d="M13.0127 16.6391C13.348 16.6391 13.6199 16.3673 13.6199 16.0319V14.6246C13.6199 14.2893 13.348 14.0175 13.0127 14.0175C12.6774 14.0175 12.4055 14.2893 12.4055 14.6246V16.0319C12.4055 16.3673 12.6774 16.6391 13.0127 16.6391Z" fill="#5E6B75"/>
<path d="M26.9873 14.0175C26.6519 14.0175 26.3801 14.2893 26.3801 14.6246V16.0319C26.3801 16.3673 26.6519 16.6391 26.9873 16.6391C27.3227 16.6391 27.5945 16.3673 27.5945 16.0319V14.6246C27.5945 14.2893 27.3227 14.0175 26.9873 14.0175Z" fill="#5E6B75"/>
<path d="M33.0708 16.6391C33.4062 16.6391 33.678 16.3673 33.678 16.0319V14.6246C33.678 14.2893 33.4062 14.0175 33.0708 14.0175C32.7354 14.0175 32.4636 14.2893 32.4636 14.6246V16.0319C32.4636 16.3673 32.7354 16.6391 33.0708 16.6391Z" fill="#5E6B75"/>
<path d="M31.9485 18.7939C32.2894 18.0411 31.2077 17.5387 30.8484 18.2755C30.8297 18.3135 30.6473 18.6461 30.0291 18.6461C29.4109 18.6461 29.2286 18.3135 29.2098 18.2755C28.8505 17.5387 27.7689 18.0411 28.1098 18.7939C28.2988 19.2084 28.8947 19.8627 30.0291 19.8627C31.1637 19.8626 31.7594 19.2083 31.9485 18.7939Z" fill="#DC4955"/>
</g>
<defs>
<clipPath id="clip0_1_288">
<rect width="40" height="40" fill="white"/>
</clipPath>
</defs>
</svg>
