<svg width="40" height="40" viewBox="0 0 40 40" fill="none" xmlns="http://www.w3.org/2000/svg">
<path d="M16.0227 33.3953L16.9987 32.5449L23.0729 31.3674C24.4025 31.1911 25.6399 30.5911 26.6018 29.6565L34.4771 22.0051C35.2574 21.247 35.2534 19.993 34.4683 19.2399C33.7395 18.5409 32.5939 18.5249 31.8462 19.2036L27.7399 22.9308H18.6336C16.6233 22.9308 14.6953 23.7294 13.2739 25.1509L10.3016 27.9559C9.85577 28.404 9.86849 29.132 10.3297 29.5642L14.4544 33.4299C14.8995 33.847 15.5965 33.8316 16.0227 33.3953Z" fill="#FFCBBA"/>
<path d="M27.1109 22.9309C27.5541 22.8724 28.0271 23.0468 28.3717 23.3704C28.7142 23.6982 28.9131 24.1914 28.8806 24.6843C28.8626 25.1809 28.5998 25.6604 28.2048 25.9714C28.0072 26.1284 27.7724 26.2379 27.5265 26.2981C27.4033 26.328 27.2769 26.3441 27.1504 26.3482L26.815 26.353C25.054 26.346 23.2929 26.3017 21.5317 26.1076C23.2929 25.9135 25.054 25.8694 26.815 25.8624L27.14 25.8636C27.2336 25.8619 27.3268 25.8521 27.4177 25.8315C27.6005 25.7917 27.7722 25.7098 27.9256 25.6014C28.2355 25.3853 28.4468 25.0335 28.5008 24.6496C28.63 23.8755 28.0146 23.015 27.1109 22.9309Z" fill="#EFB7A8"/>
<path d="M11.9296 38.5951L5.20823 32.2958C4.86661 31.9757 4.84921 31.4392 5.16938 31.0975L8.24517 27.8155C8.56534 27.4739 9.10184 27.4565 9.44347 27.7767L16.1649 34.076C16.5065 34.3961 16.5239 34.9326 16.2037 35.2743L13.128 38.5562C12.8078 38.8979 12.2713 38.9153 11.9296 38.5951Z" fill="#2F80ED"/>
<path d="M27.7672 24.3584C27.7672 24.6232 27.6592 24.8638 27.4874 25.0356C27.3108 25.2122 27.0703 25.3203 26.8053 25.3203H26.043C25.6885 25.3203 25.6885 23.3962 26.043 23.3962H26.8053C27.3353 23.3962 27.7672 23.8283 27.7672 24.3584Z" fill="#EFB7A8"/>
<path d="M9.53027 29.4741C9.53027 29.7943 9.26992 30.0547 8.95528 30.0547C8.63535 30.0547 8.375 29.7943 8.375 29.4741C8.375 29.1595 8.63535 28.8994 8.95528 28.8994C9.26992 28.8994 9.53027 29.1595 9.53027 29.4741Z" fill="#E9E9FF"/>
<path d="M26.2474 19.3166C24.206 20.6259 21.7357 21.1355 19.2686 20.713C15.2246 20.0261 11.9932 16.8108 11.2805 12.7732C10.8515 10.3449 11.3256 7.90681 12.5801 5.87186C12.6285 5.79438 12.7317 5.77186 12.8059 5.82021L13.9475 6.55227C14.0217 6.60061 14.041 6.69415 13.9958 6.76847C13.1735 8.10994 12.7607 9.6643 12.8059 11.2542C12.9348 15.7177 16.75 19.3101 21.2132 19.1779C22.687 19.1328 24.1092 18.6941 25.3444 17.9041L26.2474 19.3166Z" fill="#FDC72E"/>
<path d="M24.3058 16.8169L28.3681 16.6279C28.6161 16.6164 28.7836 16.8776 28.6696 17.0981L26.8026 20.711C26.6887 20.9316 26.3787 20.946 26.2446 20.737L24.0493 17.3132C23.9153 17.1042 24.0578 16.8285 24.3058 16.8169Z" fill="#FDC72E"/>
<path d="M29.3496 16.1627C29.3013 16.24 29.1981 16.2627 29.1239 16.2143L27.9823 15.4821C27.9081 15.4338 27.8888 15.3371 27.9339 15.2629C28.753 13.931 29.1658 12.3894 29.1239 10.8028C29.0143 6.50725 25.4733 2.96628 21.1777 2.85652C19.5426 2.81464 17.9495 3.25649 16.5854 4.13043L15.6824 2.71795C17.7335 1.40215 20.2134 0.895895 22.6901 1.32468C26.7342 2.02777 29.9559 5.2527 30.6558 9.29678C31.075 11.7155 30.6009 14.1406 29.3496 16.1627Z" fill="#FA7A48"/>
<path d="M17.5584 5.31639L13.6632 5.49755C13.4152 5.50908 13.2477 5.24787 13.3617 5.02735L15.1519 1.56312C15.2659 1.34256 15.5759 1.32811 15.7099 1.5371L17.8149 4.82017C17.9489 5.02917 17.8064 5.30486 17.5584 5.31639Z" fill="#FA7A48"/>
<path d="M25.1939 8.69716V12.6766L24.7537 11.5992L23.9121 12.1044L22.6423 12.2193L20.7436 11.7054L18.8844 11.8929L17.2911 11.6298L16.9192 12.1969C16.9192 12.1969 16.8194 9.88832 16.5987 8.45226C16.5866 8.37062 16.5806 8.28899 16.5806 8.20736C16.5806 6.86813 18.192 5.72229 18.192 5.72229C18.7634 6.01857 19.4013 6.15763 20.0422 6.12736L22.3792 6.01547C23.9121 5.93988 25.1939 7.16441 25.1939 8.69716Z" fill="#4F5D99"/>
<path d="M25.7919 12.817C25.7919 13.502 25.2366 14.0573 24.5515 14.0573V11.5731C25.2366 11.5731 25.7919 12.1284 25.7919 12.817Z" fill="#FFCBBA"/>
<path d="M24.9259 11.6292V13.9992C24.8061 14.0367 24.6825 14.0555 24.5515 14.0555V11.5731C24.6825 11.5731 24.8061 11.5918 24.9259 11.6292Z" fill="#EFB7A8"/>
<path d="M16.1387 12.817C16.1387 13.502 16.694 14.0573 17.379 14.0573V11.5731C16.694 11.5731 16.1387 12.1284 16.1387 12.817Z" fill="#FFCBBA"/>
<path d="M17.3776 11.5731V14.0592C17.2466 14.0592 17.123 14.0367 17.0032 13.9992V11.6292C17.123 11.5918 17.2466 11.5731 17.3776 11.5731Z" fill="#EFB7A8"/>
<path d="M24.7537 11.5992V13.4975C24.7537 15.5756 23.0688 17.2605 20.9945 17.2605H20.987C18.9127 17.2605 17.2278 15.5756 17.2278 13.4975V11.5822L17.9355 10.7529V10.1015C17.9355 9.90312 18.0178 9.72322 18.1489 9.59232C18.2799 9.4574 18.4597 9.37878 18.6619 9.37878C18.9838 9.37878 19.2984 9.45374 19.5904 9.59964C19.9386 9.7757 20.474 9.99289 20.9908 9.96675C21.5074 9.99289 22.0428 9.7757 22.3911 9.59964C22.6832 9.45374 22.9976 9.37878 23.3197 9.37878C23.5219 9.37878 23.7016 9.4574 23.8327 9.59232C23.9637 9.72322 24.046 9.90312 24.046 10.1015V10.7529L24.7537 11.5992Z" fill="#FFCBBA"/>
<path d="M19.4346 13.0223C19.6094 13.0223 19.7511 12.8807 19.7511 12.7059C19.7511 12.5311 19.6094 12.3894 19.4346 12.3894C19.2599 12.3894 19.1182 12.5311 19.1182 12.7059C19.1182 12.8807 19.2599 13.0223 19.4346 13.0223Z" fill="#4F5D99"/>
<path d="M22.4688 13.0223C22.6436 13.0223 22.7853 12.8807 22.7853 12.7059C22.7853 12.5311 22.6436 12.3894 22.4688 12.3894C22.294 12.3894 22.1523 12.5311 22.1523 12.7059C22.1523 12.8807 22.294 13.0223 22.4688 13.0223Z" fill="#4F5D99"/>
<path d="M21.0225 13.3326V14.0333C21.0225 14.1075 20.9632 14.1698 20.886 14.1698C20.8118 14.1698 20.7524 14.1075 20.7524 14.0333V13.3326C20.7524 13.2585 20.8118 13.1962 20.886 13.1962C20.9632 13.1962 21.0225 13.2585 21.0225 13.3326Z" fill="#EFB7A8"/>
<path d="M23.1321 12.0088L21.9615 12.0087C21.8873 12.0087 21.825 11.9493 21.825 11.8721C21.8249 11.7978 21.8872 11.7384 21.9614 11.7384L23.132 11.7385C23.2062 11.7385 23.2685 11.798 23.2685 11.8722C23.2685 11.9495 23.2062 12.0088 23.1321 12.0088Z" fill="#4F5D99"/>
<path d="M20.02 12.0088L18.8494 12.0087C18.7752 12.0087 18.7129 11.9493 18.7129 11.8721C18.7129 11.7978 18.7752 11.7384 18.8494 11.7384L20.0199 11.7385C20.0941 11.7385 20.1564 11.798 20.1565 11.8722C20.1565 11.9495 20.0942 12.0088 20.02 12.0088Z" fill="#4F5D99"/>
<path d="M21.9504 14.8116C21.9504 15.0753 21.8449 15.316 21.6703 15.4907C21.4956 15.6622 21.2582 15.7709 20.9912 15.7709H20.7835C20.2528 15.7709 19.8242 15.3423 19.8242 14.8116H21.9504Z" fill="#EFB7A8"/>
<g opacity="0.2">
<path d="M25.946 30.2018C25.1049 30.8253 24.1226 31.2254 23.0755 31.3665L17.599 32.4255L14.7637 23.996C15.9225 23.3018 17.2578 22.9313 18.6343 22.9313H23.499L25.946 30.2018Z" fill="white"/>
<path d="M29.6695 26.6724L27.7283 28.5606L25.8342 22.9313H27.7401L28.2577 22.4606L29.6695 26.6724Z" fill="white"/>
</g>
</svg>
