<svg width="40" height="40" viewBox="0 0 40 40" fill="none" xmlns="http://www.w3.org/2000/svg">
<g clip-path="url(#clip0_1_1747)">
<path d="M39.9738 10.0989H7.8374V25.0132H37.2648C38.7609 25.0132 39.9738 23.8003 39.9738 22.3041V10.0989Z" fill="#6B78E3"/>
<path d="M12.3896 6.73631V4.63458C12.3896 3.97849 12.9212 3.44666 13.5769 3.44666H17.0387C17.6944 3.44666 18.2259 3.97849 18.2259 4.63458V4.68907V5.95812L12.3896 6.73631Z" fill="#FFAD8A"/>
<path d="M7.8374 10.2645C7.8374 8.49682 9.09809 6.98076 10.8353 6.65932L18.7446 5.04765C19.5774 4.89352 20.3312 4.45561 20.8776 3.80821L22.5314 1.32684C23.0839 0.497867 24.0138 0 25.0096 0H28.4241C29.4117 0 30.3351 0.489819 30.8894 1.30769L32.7579 4.06479C33.1697 4.55268 33.7018 4.92443 34.3014 5.14334L37.5655 6.33489C39.0117 6.86278 39.9739 8.23887 39.9739 9.77915V22.2574C39.9739 23.7795 38.7407 25.0133 37.2195 25.0133H7.8374V10.2645Z" fill="#F88758"/>
<path d="M37.5655 6.33481L34.3013 5.14334C33.7017 4.92451 33.1697 4.55268 32.7578 4.06479L30.8893 1.30769C30.3352 0.489819 29.4118 0 28.4241 0H25.2048C26.1924 0 27.1158 0.489819 27.6701 1.30769L29.5386 4.06479C29.9504 4.55268 30.4825 4.92443 31.0821 5.14334L34.3462 6.33481C35.7924 6.8627 36.7546 8.23879 36.7546 9.77907V22.2573C36.7546 23.7794 35.5215 25.0132 34.0003 25.0132H37.2196C38.7408 25.0132 39.9739 23.7793 39.9739 22.2573V9.77915C39.9738 8.23879 39.0117 6.86278 37.5655 6.33481Z" fill="#FFAD8A"/>
<path d="M39.9738 10.0989H7.8374V25.0132H37.2648C38.7609 25.0132 39.9738 23.8003 39.9738 22.3041V10.0989Z" fill="#F28664"/>
<path d="M36.7545 10.0989V22.3041C36.7545 23.8003 35.5416 25.0132 34.0454 25.0132H37.2647C38.7609 25.0132 39.9738 23.8004 39.9738 22.3041V10.0989H36.7545Z" fill="#E35D32"/>
<path d="M35.1426 15.0334H36.8346C37.7782 15.0334 38.5431 15.7988 38.5431 16.7428C38.5431 17.6869 37.7782 18.4522 36.8346 18.4522H35.224L35.1426 15.0334Z" fill="#2F80ED"/>
<path d="M21.7592 24.6337C19.1835 22.9917 17.4717 20.1084 17.4717 16.8327C17.4717 11.736 21.6157 7.58948 26.7095 7.58948C31.8033 7.58948 35.9473 11.736 35.9473 16.8327C35.9473 21.9294 31.8033 26.0758 26.7095 26.0758C25.5565 26.0758 24.4522 25.8634 23.4336 25.4756" fill="#ECF2FF"/>
<path d="M26.7095 23.0202C30.1248 23.0202 32.8934 20.2499 32.8934 16.8327C32.8934 13.4154 30.1248 10.6451 26.7095 10.6451C23.2943 10.6451 20.5256 13.4154 20.5256 16.8327C20.5256 20.2499 23.2943 23.0202 26.7095 23.0202Z" fill="#E35D32"/>
<path d="M29.2913 15.3745C29.5351 15.8054 29.6743 16.3031 29.6743 16.8327C29.6743 18.4693 28.3444 19.8008 26.7097 19.8008C25.075 19.8008 23.7451 18.4693 23.7451 16.8327C23.7451 15.196 25.075 13.8645 26.7097 13.8645C27.1244 13.8645 27.5194 13.9501 27.8781 14.1047" fill="#FFAD8A"/>
<path d="M28.7216 15.5654C28.1963 15.5654 27.769 15.1365 27.769 14.6093C27.769 14.0821 28.1963 13.6532 28.7216 13.6532C29.2468 13.6532 29.6741 14.0821 29.6741 14.6093C29.6741 15.1365 29.2468 15.5654 28.7216 15.5654Z" fill="white"/>
<path d="M23.0667 4.29807L24.1973 2.57292C24.354 2.3338 24.6205 2.18982 24.9062 2.18982H28.5254C28.8122 2.18982 29.0796 2.33501 29.236 2.57565L30.3565 4.29968C30.5705 4.62893 30.3344 5.06443 29.9419 5.06443H23.4803C23.087 5.06435 22.851 4.62724 23.0667 4.29807Z" fill="#E35D32"/>
<path d="M14.7452 23.7349V10.0989H7.8374V24.8709H14.7452V23.7349Z" fill="#FFAD8A"/>
<path d="M2.25513 30.0656L14.853 27.5203L15.6598 31.5138L3.06198 34.0591L2.25513 30.0656Z" fill="#FFAD8A"/>
<path d="M0.0319824 19.0797L12.6299 16.5344L14.9819 28.1759L2.38403 30.7212L0.0319824 19.0797Z" fill="#FFE9E2"/>
<path d="M9.14233 34.5322L21.8945 36.1648L21.4032 40.002L8.65108 38.3694L9.14233 34.5322Z" fill="#FFAD8A"/>
<path d="M9.08252 34.9865L10.5912 23.2024L23.3433 24.835L21.8346 36.619L9.08252 34.9865Z" fill="#FFE9E2"/>
</g>
<defs>
<clipPath id="clip0_1_1747">
<rect width="40" height="40" fill="white"/>
</clipPath>
</defs>
</svg>
