<svg width="40" height="40" viewBox="0 0 40 40" fill="none" xmlns="http://www.w3.org/2000/svg">
<g clip-path="url(#clip0_1_490)">
<path d="M39.1406 20.8594C39.1406 31.4304 30.571 40 20 40C9.42902 40 0.859375 31.4304 0.859375 20.8594C0.859375 10.2884 9.42902 1.71875 20 1.71875C30.571 1.71875 39.1406 10.2884 39.1406 20.8594Z" fill="#FED1BE"/>
<path d="M16.2625 4.21875C16.3973 4.21875 16.5072 4.32892 16.5072 4.4635V14.1022C16.5072 14.2368 16.3973 14.3469 16.2625 14.3469H3.63153C3.49695 14.3469 3.38647 14.2368 3.38647 14.1022V4.4635C3.38647 4.32892 3.49695 4.21875 3.63153 4.21875H16.2625Z" fill="#EEF6FF"/>
<path d="M4.45734 14.1022V4.4635C4.45734 4.32892 4.56781 4.21875 4.70239 4.21875H3.63153C3.49695 4.21875 3.38647 4.32892 3.38647 4.4635V14.1022C3.38647 14.2368 3.49695 14.3469 3.63153 14.3469H4.70209C4.56781 14.3469 4.45734 14.2368 4.45734 14.1022Z" fill="#D9EAFC"/>
<path d="M4.88654 13.1567C4.75867 13.1567 4.6543 13.0524 4.6543 12.9245V5.64087C4.6543 5.51331 4.75867 5.40894 4.88654 5.40894H15.008C15.1356 5.40894 15.2402 5.51331 15.2402 5.64087V12.9245C15.2402 13.0524 15.1356 13.1567 15.008 13.1567H4.88654Z" fill="#FFE1D5"/>
<path d="M7.56567 8.75826C7.42163 8.54738 7.18634 8.54738 7.0423 8.75826L4.6543 12.2617V12.9245C4.6543 13.0524 4.75897 13.1568 4.88654 13.1568H10.564L7.56567 8.75826Z" fill="#FFA275"/>
<path d="M7.91174 9.26607L7.56537 8.75826C7.42163 8.54738 7.18634 8.54738 7.0423 8.75826L4.6543 12.2617V12.9245C4.6543 13.0524 4.75867 13.1568 4.88654 13.1568H5.34064L7.91174 9.26607Z" fill="#FFDDCF"/>
<path d="M12.5757 7.94427C12.4317 7.73309 12.1964 7.73309 12.0527 7.94427L8.49951 13.1567H15.008C15.1356 13.1567 15.2402 13.0523 15.2402 12.9244V11.853L12.5757 7.94427Z" fill="#FFB191"/>
<path d="M12.5757 7.94427C12.4317 7.73309 12.1964 7.73309 12.0527 7.94427L8.49951 13.1567H9.68756L12.9084 8.43195L12.5757 7.94427Z" fill="#FFDDCF"/>
<path d="M7.11481 7.09784C7.11481 7.57239 6.73029 7.95691 6.25604 7.95691C5.78149 7.95691 5.39697 7.57239 5.39697 7.09784C5.39697 6.6236 5.78149 6.23877 6.25604 6.23877C6.73029 6.23877 7.11481 6.6236 7.11481 7.09784Z" fill="white"/>
<path d="M6.01648 7.09778C6.01648 6.73279 6.24445 6.42181 6.56549 6.2973C6.46936 6.26007 6.3653 6.23901 6.25604 6.23901C5.7818 6.23901 5.39697 6.62354 5.39697 7.09778C5.39697 7.57202 5.7818 7.95685 6.25604 7.95685C6.3653 7.95685 6.46936 7.93549 6.56549 7.89825C6.24445 7.77405 6.01648 7.46277 6.01648 7.09778Z" fill="#EEF6FF"/>
<path d="M36.772 0H18.543C18.3281 0 18.1523 0.175781 18.1523 0.390625V14.7656H22.9259C23.3043 14.7656 23.8161 15.0446 24.0212 15.3625L25.421 17.5345H30.9362C31.2886 17.5345 31.5755 17.821 31.5755 18.1735V28.5156H36.772C36.9869 28.5156 37.1627 28.3398 37.1627 28.125V0.390625C37.1627 0.175781 36.9869 0 36.772 0Z" fill="#EEF6FF"/>
<path d="M19.3489 14.7656V0.390625C19.3489 0.175781 19.5247 0 19.7396 0H18.543C18.3281 0 18.1523 0.175781 18.1523 0.390625V14.7656H19.3489Z" fill="#D9EAFC"/>
<path d="M34.5359 16.4429H26.7268C26.4033 16.4429 26.1409 16.1804 26.1409 15.8569C26.1409 15.5331 26.4033 15.271 26.7268 15.271H34.5359C34.8597 15.271 35.1219 15.5331 35.1219 15.8569C35.1219 16.1804 34.8597 16.4429 34.5359 16.4429Z" fill="#C3DDF4"/>
<path d="M34.5359 17.7561H31.4192C31.5162 17.8684 31.5754 18.014 31.5754 18.1736V18.928H34.5359C34.8597 18.928 35.1219 18.6658 35.1219 18.342C35.1219 18.0186 34.8597 17.7561 34.5359 17.7561Z" fill="#C3DDF4"/>
<path d="M34.5359 20.2411H31.5754V21.413H34.5359C34.8597 21.413 35.1219 21.1505 35.1219 20.827C35.1219 20.5032 34.8597 20.2411 34.5359 20.2411Z" fill="#C3DDF4"/>
<path d="M34.5359 22.7261H31.5754V23.8979H34.5359C34.8597 23.8979 35.1219 23.6358 35.1219 23.312C35.1219 22.9885 34.8597 22.7261 34.5359 22.7261Z" fill="#C3DDF4"/>
<path d="M24.0214 15.3625L24.6623 16.3571C24.8314 16.2543 24.9443 16.069 24.9443 15.8569C24.9443 15.5331 24.6821 15.271 24.3583 15.271H23.9521C23.9775 15.3012 24.0013 15.3314 24.0214 15.3625Z" fill="#C3DDF4"/>
<path d="M34.8497 2.323C35.0029 2.323 35.1284 2.44843 35.1284 2.60162V13.5785C35.1284 13.7317 35.0029 13.8571 34.8497 13.8571H20.465C20.3115 13.8571 20.186 13.7317 20.186 13.5785V2.60162C20.186 2.44843 20.3115 2.323 20.465 2.323H34.8497Z" fill="white"/>
<path d="M21.8942 12.5018C21.749 12.5018 21.6296 12.3831 21.6296 12.2375V3.9425C21.6296 3.79724 21.7487 3.67822 21.8942 3.67822H33.421C33.5663 3.67822 33.6853 3.79724 33.6853 3.9425V12.2375C33.6853 12.3831 33.5663 12.5018 33.421 12.5018H21.8942Z" fill="#FFCDB5"/>
<path d="M22.8125 12.2375V3.9425C22.8125 3.79724 22.9315 3.67822 23.0768 3.67822H21.8942C21.749 3.67822 21.6296 3.79724 21.6296 3.9425V12.2375C21.6296 12.3831 21.7487 12.5018 21.8942 12.5018H23.0768C22.9315 12.5018 22.8125 12.3831 22.8125 12.2375Z" fill="#FF894F"/>
<path d="M24.9451 7.49263C24.7812 7.25246 24.5132 7.25246 24.3494 7.49263L21.6296 11.4825V12.2375C21.6296 12.3828 21.7487 12.5018 21.8942 12.5018H28.3597L24.9451 7.49263Z" fill="#FFA275"/>
<path d="M22.2556 12.5018L25.2448 7.93208L24.9451 7.49263C24.7812 7.25246 24.5132 7.25246 24.3494 7.49263L21.6296 11.4825V12.2375C21.6296 12.3828 21.7487 12.5018 21.8942 12.5018H22.2556Z" fill="#FFDDCF"/>
<path d="M30.6512 6.56551C30.487 6.32533 30.2191 6.32533 30.0552 6.56551L26.0085 12.5018H33.421C33.5662 12.5018 33.6852 12.3831 33.6852 12.2375V11.0168L30.6512 6.56551Z" fill="#FFB191"/>
<path d="M30.6512 6.56551C30.487 6.32533 30.2191 6.32533 30.0552 6.56551L26.0085 12.5018H27.1874L30.9426 6.99336L30.6512 6.56551Z" fill="#FFDDCF"/>
<path d="M24.9999 5.6015C24.9999 6.14197 24.562 6.5799 24.0215 6.5799C23.4814 6.5799 23.0435 6.14197 23.0435 5.6015C23.0435 5.06165 23.4814 4.62341 24.0215 4.62341C24.562 4.62372 24.9999 5.06165 24.9999 5.6015Z" fill="#FED1BE"/>
<path d="M23.7499 5.6015C23.7499 5.18646 24.0093 4.83215 24.3749 4.69025C24.2654 4.64783 24.1464 4.62341 24.0215 4.62341C23.4814 4.62341 23.0435 5.06165 23.0435 5.6015C23.0435 6.14197 23.4814 6.5799 24.0215 6.5799C24.1464 6.5799 24.2654 6.55548 24.3749 6.51306C24.0093 6.37146 23.7499 6.01715 23.7499 5.6015Z" fill="#FED1BE"/>
<path d="M25.5566 17.4561L24.1525 15.278C23.9154 14.9103 23.3636 14.6094 22.926 14.6094H17.2815C16.8439 14.6094 16.2921 14.9103 16.055 15.278L14.6509 17.4561H25.5566Z" fill="#FF894F"/>
<path d="M17.0182 17.4561L18.4223 15.278C18.6594 14.9103 19.2112 14.6094 19.6488 14.6094H17.2812C16.8439 14.6094 16.2919 14.9103 16.0551 15.278L14.6506 17.4561H17.0182Z" fill="#FA7A48"/>
<path d="M11.2502 17.4561V16.6242C11.2502 16.1866 10.8922 15.8286 10.4546 15.8286H6.59167C6.15436 15.8286 5.79639 16.1866 5.79639 16.6242V17.4561H11.2502Z" fill="white"/>
<path d="M7.03113 17.4561V16.6242C7.03113 16.1866 7.3891 15.8286 7.82672 15.8286H6.59167C6.15436 15.8286 5.79639 16.1866 5.79639 16.6242V17.4561H7.03113Z" fill="#EEF6FF"/>
<path d="M30.9363 17.3779H9.44092C9.87854 17.3779 10.2365 17.7359 10.2365 18.1735V35.5014H30.9363C31.3739 35.5014 31.7319 35.1434 31.7319 34.7058V18.1735C31.7316 17.7359 31.3739 17.3779 30.9363 17.3779Z" fill="#FFA275"/>
<path d="M9.55811 17.3779H3.17841C2.74078 17.3779 2.38281 17.7359 2.38281 18.1735V28.3539C3.78601 31.6483 6.08643 34.4684 8.97675 36.5082H9.55811C9.99573 36.5082 10.3537 36.1502 10.3537 35.7129V18.1735C10.3537 17.7359 9.99573 17.3779 9.55811 17.3779Z" fill="#FA7A48"/>
<path d="M3.59161 18.1735C3.59161 17.7359 3.94958 17.3779 4.38721 17.3779H3.17841C2.74078 17.3779 2.38281 17.7359 2.38281 18.1735V28.3539C2.73193 29.173 3.13629 29.9631 3.59161 30.719V18.1735Z" fill="#FFA275"/>
<path d="M26.7155 25.0739C26.6883 25.0739 26.662 25.0763 26.6355 25.0778C26.6917 25.4318 26.7216 25.795 26.7216 26.1646C26.7216 26.7667 26.6434 27.3511 26.4976 27.9083C26.5687 27.9193 26.6413 27.9266 26.7155 27.9266C27.5034 27.9266 28.1422 27.2879 28.1422 26.4999C28.1422 25.7126 27.5031 25.0739 26.7155 25.0739Z" fill="#FED1BE"/>
<path d="M26.7993 26.1646C26.7993 30.0107 23.6816 33.1287 19.8352 33.1287C15.9891 33.1287 12.8711 30.0107 12.8711 26.1646C12.8711 22.3184 15.9891 19.2004 19.8352 19.2004C23.6816 19.2004 26.7993 22.3184 26.7993 26.1646Z" fill="#D9EAFC"/>
<path d="M14.0624 26.1646C14.0624 22.5189 16.8636 19.5285 20.4308 19.2261C20.2346 19.2096 20.0359 19.2004 19.8354 19.2004C15.989 19.2004 12.8713 22.3184 12.8713 26.1646C12.8713 30.011 15.989 33.1287 19.8354 33.1287C20.0359 33.1287 20.2346 33.1198 20.4308 33.103C16.8636 32.8009 14.0624 29.8102 14.0624 26.1646Z" fill="#C3DDF4"/>
<path d="M25.024 26.1645C25.024 29.0301 22.7007 31.3531 19.8351 31.3531C16.9695 31.3531 14.6465 29.0301 14.6465 26.1645C14.6465 23.2986 16.9695 20.9756 19.8351 20.9756C22.7007 20.9756 25.024 23.2989 25.024 26.1645Z" fill="white"/>
<path d="M23.4297 26.1646C23.4297 28.1497 21.8203 29.7592 19.8351 29.7592C17.8499 29.7592 16.2407 28.1497 16.2407 26.1646C16.2407 24.1794 17.8499 22.5702 19.8351 22.5702C21.8203 22.5702 23.4297 24.1794 23.4297 26.1646Z" fill="#FFCCB3"/>
<path d="M17.4202 26.1645C17.4202 24.3801 18.7203 22.9003 20.425 22.619C20.233 22.5872 20.0362 22.5698 19.8351 22.5698C17.8499 22.5698 16.2407 24.1793 16.2407 26.1645C16.2407 28.1497 17.8499 29.7589 19.8351 29.7589C20.0362 29.7589 20.233 29.7415 20.425 29.7097C18.7203 29.4283 17.4202 27.9489 17.4202 26.1645Z" fill="#1A2B63"/>
<path d="M7.41699 19.8114C7.41699 20.5063 6.85364 21.0699 6.15845 21.0699C5.46326 21.0699 4.8999 20.5063 4.8999 19.8114C4.8999 19.1162 5.46326 18.5529 6.15845 18.5529C6.85364 18.5529 7.41699 19.1162 7.41699 19.8114Z" fill="white"/>
<path d="M5.76416 19.8114C5.76416 19.2685 6.1087 18.8068 6.59058 18.6304C6.45569 18.5812 6.31042 18.5529 6.15845 18.5529C5.46356 18.5529 4.8999 19.1162 4.8999 19.8114C4.8999 20.5063 5.46326 21.0696 6.15845 21.0696C6.31073 21.0696 6.45569 21.0413 6.59058 20.9921C6.1087 20.8157 5.76416 20.3543 5.76416 19.8114Z" fill="#EEF6FF"/>
<path d="M14.2856 20.1168C14.2856 20.6512 13.8526 21.0845 13.3182 21.0845C12.7839 21.0845 12.3508 20.6512 12.3508 20.1168C12.3508 19.5825 12.7839 19.1494 13.3182 19.1494C13.8526 19.1494 14.2856 19.5825 14.2856 20.1168Z" fill="white"/>
<path d="M13.0649 20.1169C13.0649 19.7089 13.3182 19.3604 13.6756 19.2181C13.5648 19.1742 13.4446 19.1492 13.3182 19.1492C12.7842 19.1492 12.3508 19.5825 12.3508 20.1169C12.3508 20.6512 12.7842 21.0846 13.3182 21.0846C13.4446 21.0846 13.5648 21.0596 13.6756 21.0153C13.3182 20.8734 13.0649 20.5249 13.0649 20.1169Z" fill="#EEF6FF"/>
<path d="M30.4437 34.1516C30.4437 34.3563 30.2762 34.5239 30.0717 34.5239H27.1887C26.9839 34.5239 26.8164 34.3563 26.8164 34.1516V32.5942C26.8164 32.3895 26.9839 32.2219 27.1887 32.2219H30.0717C30.2762 32.2219 30.4437 32.3895 30.4437 32.5942V34.1516Z" fill="#D9EAFC"/>
<path d="M28.013 34.1516V32.5942C28.013 32.3895 28.1808 32.2219 28.3856 32.2219H27.1887C26.9839 32.2219 26.8164 32.3895 26.8164 32.5942V34.1516C26.8164 34.3563 26.9839 34.5239 27.1887 34.5239H28.3856C28.1808 34.5239 28.013 34.3563 28.013 34.1516Z" fill="#C3DDF4"/>
</g>
<defs>
<clipPath id="clip0_1_490">
<rect width="40" height="40" fill="white"/>
</clipPath>
</defs>
</svg>
