<svg width="40" height="40" viewBox="0 0 40 40" fill="none" xmlns="http://www.w3.org/2000/svg">
<g clip-path="url(#clip0_1_1776)">
<path d="M29.0414 20.3482H27.2031C26.9724 20.3482 26.7708 20.1973 26.6999 19.9777C26.5829 19.6154 26.4371 19.2659 26.2655 18.9319C26.1598 18.7262 26.1954 18.4765 26.3589 18.313L27.6597 17.0122C27.8658 16.8061 27.8658 16.472 27.6597 16.2659L25.8748 14.481C25.6687 14.2749 25.3346 14.2749 25.1285 14.481L23.8277 15.7818C23.6642 15.9453 23.4145 15.9808 23.2088 15.8752C22.8748 15.7036 22.5254 15.5578 22.1631 15.4408C21.9435 15.3698 21.7926 15.1683 21.7926 14.9375V13.0993C21.7926 12.8078 21.5563 12.5715 21.2649 12.5715H18.9946C19.0202 12.832 19.0335 13.0959 19.0335 13.363C19.0335 17.7893 15.4325 21.3903 11.0062 21.3903C10.8145 21.3903 10.6245 21.3831 10.436 21.3698V23.4003C10.436 23.6918 10.6723 23.928 10.9638 23.928H12.8021C13.0329 23.928 13.2344 24.0789 13.3053 24.2985C13.4224 24.6608 13.5681 25.0102 13.7398 25.3442C13.8455 25.5499 13.8099 25.7996 13.6463 25.9631L12.3456 27.2639C12.1395 27.47 12.1395 27.8041 12.3456 28.0102L14.1305 29.7951C14.3366 30.0012 14.6707 30.0012 14.8768 29.7951L16.1776 28.4943C16.3411 28.3308 16.5908 28.2953 16.7965 28.4009C17.1305 28.5725 17.4799 28.7183 17.8422 28.8354C18.0618 28.9063 18.2127 29.1078 18.2127 29.3386V31.1769C18.2127 31.4684 18.4489 31.7047 18.7404 31.7047H21.2647C21.5562 31.7047 21.7924 31.4684 21.7924 31.1769V29.3386C21.7924 29.1078 21.9433 28.9062 22.1629 28.8354C22.5253 28.7183 22.8746 28.5725 23.2086 28.4009C23.4143 28.2952 23.6639 28.3308 23.8275 28.4943L25.1283 29.7951C25.3344 30.0012 25.6685 30.0012 25.8746 29.7951L27.6596 28.0102C27.8656 27.8041 27.8656 27.47 27.6596 27.2639L26.3588 25.9631C26.1953 25.7996 26.1596 25.5499 26.2653 25.3442C26.4369 25.0102 26.5828 24.6608 26.6998 24.2985C26.7707 24.0789 26.9722 23.928 27.203 23.928H29.0413C29.3328 23.928 29.5691 23.6918 29.5691 23.4003V20.8761C29.5692 20.5845 29.3329 20.3482 29.0414 20.3482Z" fill="#FA7A48"/>
<path d="M14.9188 22.1381C14.9188 21.5187 14.9929 20.9166 15.1326 20.3401C13.9238 21.0565 12.5132 21.4683 11.0062 21.4683C10.8145 21.4683 10.6245 21.4612 10.436 21.4481V23.4002C10.436 23.6917 10.6723 23.9279 10.9638 23.9279H12.8021C13.0329 23.9279 13.2344 24.0788 13.3053 24.2984C13.4224 24.6607 13.5681 25.0101 13.7398 25.3441C13.8455 25.5498 13.8099 25.7995 13.6463 25.963L12.3456 27.2638C12.1395 27.4699 12.1395 27.804 12.3456 28.0101L14.1305 29.795C14.3366 30.0011 14.6707 30.0011 14.8768 29.795L16.1776 28.4942C16.3411 28.3307 16.5908 28.2952 16.7965 28.4008C17.1305 28.5724 17.4799 28.7182 17.8423 28.8352C18.0619 28.9062 18.2128 29.1077 18.2128 29.3384V31.1768C18.2128 31.4683 18.449 31.7045 18.7405 31.7045H21.2647C21.5562 31.7045 21.7924 31.4683 21.7924 31.1768V29.7132C17.9351 29.3424 14.9188 26.0927 14.9188 22.1381Z" fill="#FA7A48"/>
<path d="M20.0025 26.4974C22.4101 26.4974 24.3617 24.5457 24.3617 22.1381C24.3617 19.7306 22.4101 17.7789 20.0025 17.7789C17.595 17.7789 15.6433 19.7306 15.6433 22.1381C15.6433 24.5457 17.595 26.4974 20.0025 26.4974Z" fill="#E5E1E5"/>
<path d="M20.0025 17.193C19.1812 17.193 18.4067 17.3954 17.7243 17.7513C17.1527 18.6235 16.416 19.378 15.559 19.9704C15.2382 20.6254 15.0574 21.361 15.0574 22.1382C15.0574 24.865 17.2758 27.0834 20.0025 27.0834C22.7292 27.0834 24.9477 24.8649 24.9477 22.1382C24.9477 19.4114 22.7292 17.193 20.0025 17.193ZM20.0025 25.9114C17.922 25.9114 16.2292 24.2187 16.2292 22.1381C16.2292 20.0576 17.922 18.3649 20.0025 18.3649C22.0831 18.3649 23.7758 20.0576 23.7758 22.1381C23.7758 24.2188 22.0831 25.9114 20.0025 25.9114Z" fill="#D9D9D9"/>
<path d="M20.0027 24.2865C21.1892 24.2865 22.1511 23.3246 22.1511 22.1381C22.1511 20.9515 21.1892 19.9896 20.0027 19.9896C18.8161 19.9896 17.8542 20.9515 17.8542 22.1381C17.8542 23.3246 18.8161 24.2865 20.0027 24.2865Z" fill="#FA7A48"/>
<path d="M19.6701 22.1381C19.6701 21.2761 20.1779 20.5331 20.9105 20.1909C20.6346 20.062 20.3271 19.9896 20.0024 19.9896C18.8159 19.9896 17.854 20.9515 17.854 22.1381C17.854 23.3246 18.8159 24.2865 20.0024 24.2865C20.3271 24.2865 20.6346 24.2141 20.9105 24.0852C20.1779 23.743 19.6701 23 19.6701 22.1381Z" fill="#FA7A48"/>
<path d="M9.42065 2.66016V5.49328C9.93339 5.39016 10.4636 5.3357 11.0063 5.3357C11.549 5.3357 12.0792 5.39016 12.5919 5.49328V2.66016H9.42065Z" fill="#FA7A48"/>
<path d="M9.42065 2.66016V5.49328C9.93339 5.39016 10.4636 5.3357 11.0063 5.3357C11.0264 5.3357 11.0464 5.33633 11.0664 5.33648V2.66016H9.42065Z" fill="#FA7A48"/>
<path d="M4.49709 8.67115C5.12146 7.80732 5.91311 7.07209 6.82443 6.51365L5.57678 5.266C5.26248 4.9517 4.75287 4.9517 4.43857 5.266L3.33436 6.37022C3.02006 6.68451 3.02006 7.19412 3.33436 7.50842L4.49709 8.67115Z" fill="#FA7A48"/>
<path d="M4.49709 8.67109C4.85053 8.18219 5.25756 7.73453 5.70959 7.33672L4.19107 5.8182C4.13818 5.76531 4.09506 5.70664 4.0599 5.64453L3.33436 6.37008C3.02006 6.68438 3.02006 7.19398 3.33436 7.50828L4.49709 8.67109Z" fill="#FA7A48"/>
<path d="M14.3735 0.437656V2.30063C14.3735 2.54234 14.1776 2.73828 13.9359 2.73828H8.07682C7.8351 2.73828 7.63916 2.54234 7.63916 2.30063V0.437656C7.63916 0.195938 7.8351 0 8.07682 0H13.9359C14.1776 0 14.3735 0.195938 14.3735 0.437656Z" fill="#FDAD8C"/>
<path d="M10.1812 2.30062V0.437656C10.1812 0.195937 10.3771 0 10.6188 0H8.07682C7.8351 0 7.63916 0.195937 7.63916 0.437656V2.30062C7.63916 2.54234 7.8351 2.73828 8.07682 2.73828H10.6188C10.3771 2.73828 10.1812 2.54234 10.1812 2.30062Z" fill="#FA7A48"/>
<path d="M11.0063 21.4683C15.4828 21.4683 19.1117 17.8394 19.1117 13.363C19.1117 8.88648 15.4828 5.25757 11.0063 5.25757C6.52979 5.25757 2.90088 8.88648 2.90088 13.363C2.90088 17.8394 6.52979 21.4683 11.0063 21.4683Z" fill="#FDAD8C"/>
<path d="M11.0063 19.3017C14.2861 19.3017 16.945 16.6428 16.945 13.363C16.945 10.0832 14.2861 7.42432 11.0063 7.42432C7.72646 7.42432 5.06763 10.0832 5.06763 13.363C5.06763 16.6428 7.72646 19.3017 11.0063 19.3017Z" fill="white"/>
<path d="M7.6056 13.3629C7.6056 10.5239 9.60856 8.14518 12.2753 7.56221C11.8661 7.47275 11.4418 7.42432 11.0063 7.42432C7.73177 7.42432 5.06763 10.0884 5.06763 13.363C5.06763 16.6376 7.73169 19.3017 11.0063 19.3017C11.4418 19.3017 11.8661 19.2532 12.2753 19.1638C9.60856 18.5806 7.6056 16.2019 7.6056 13.3629Z" fill="#FFF3DE"/>
<path d="M11.0063 19.8876C7.40864 19.8876 4.48169 16.9607 4.48169 13.363C4.48169 9.76525 7.40864 6.83838 11.0063 6.83838C14.604 6.83838 17.5309 9.76525 17.5309 13.363C17.5309 16.9607 14.604 19.8876 11.0063 19.8876ZM11.0063 8.01025C8.05481 8.01025 5.65356 10.4114 5.65356 13.363C5.65356 16.3146 8.05474 18.7157 11.0063 18.7157C13.9579 18.7157 16.359 16.3146 16.359 13.363C16.359 10.4114 13.9579 8.01025 11.0063 8.01025Z" fill="#FA7A48"/>
<path d="M11.0063 12.2692C11.222 12.2692 11.4227 12.3328 11.5923 12.4409V9.2699C11.5923 8.9463 11.3299 8.68396 11.0063 8.68396C10.6828 8.68396 10.4204 8.9463 10.4204 9.2699V12.4409C10.59 12.3328 10.7907 12.2692 11.0063 12.2692Z" fill="#0182FC"/>
<path d="M11.0063 14.5348C11.6536 14.5348 12.1782 14.0101 12.1782 13.3629C12.1782 12.7157 11.6536 12.191 11.0063 12.191C10.3591 12.191 9.83447 12.7157 9.83447 13.3629C9.83447 14.0101 10.3591 14.5348 11.0063 14.5348Z" fill="#FEA184"/>
<path d="M37.6849 22.0545L34.2992 22.0543L34.1146 22.1324C34.1146 29.9221 27.7866 36.2501 19.9971 36.2499L19.9189 36.4281L19.919 39.836L19.9971 39.9999C29.8941 39.9999 37.8645 32.0296 37.8645 22.1325L37.6849 22.0545Z" fill="#FEA184"/>
<path d="M20.4468 4.27089C20.2005 4.2648 19.9971 4.46269 19.9971 4.70909V7.58487C19.9971 7.82128 20.185 8.01456 20.4214 8.02159C28.0218 8.24597 34.1143 14.4778 34.1144 22.1325L37.8643 22.1327C37.8644 12.4151 30.1068 4.50948 20.4468 4.27089Z" fill="#FA7A48"/>
<path d="M19.997 36.25C12.3423 36.25 6.11047 30.1575 5.88609 22.557C5.87914 22.3207 5.68586 22.1327 5.44938 22.1327H2.57359C2.32727 22.1327 2.1293 22.336 2.13539 22.5824C2.37406 32.2424 10.2797 40 19.9972 40L19.997 36.25Z" fill="#FF996F"/>
<path d="M3.82289 22.5824C3.81679 22.3361 4.01476 22.1327 4.26109 22.1327H2.57359C2.32726 22.1327 2.12937 22.336 2.13539 22.5824C2.37398 32.2425 10.2796 40 19.9971 40V39.9204C11.0675 39.0838 4.04758 31.6766 3.82289 22.5824Z" fill="#FF996F"/>
</g>
<defs>
<clipPath id="clip0_1_1776">
<rect width="40" height="40" fill="white"/>
</clipPath>
</defs>
</svg>
