<svg width="40" height="40" viewBox="0 0 40 40" fill="none" xmlns="http://www.w3.org/2000/svg">
<g clip-path="url(#clip0_1_873)">
<path fill-rule="evenodd" clip-rule="evenodd" d="M1.56421 22.1363V34.5885C1.56421 35.6562 2.43796 36.5299 3.50569 36.5299H5.28976C5.28976 38.4463 6.84335 40 8.75976 40C10.6784 40 12.232 38.4463 12.232 36.5299H15.9575V22.1363L8.20077 19.5834L1.56421 22.1363Z" fill="#FDAD8C"/>
<path fill-rule="evenodd" clip-rule="evenodd" d="M15.9575 7.74048H3.50569C2.43804 7.74048 1.56421 8.61431 1.56421 9.68423V22.1363H5.28968C5.28968 24.0527 6.84327 25.6064 8.75968 25.6064C10.6784 25.6064 12.2319 24.0527 12.2319 22.1363H15.9574V18.4084C14.0411 18.4084 12.4874 16.8548 12.4874 14.9384C12.4874 13.022 14.041 11.466 15.9574 11.466V7.74048H15.9575Z" fill="#FF8350"/>
<path fill-rule="evenodd" clip-rule="evenodd" d="M15.9575 22.1364L13.1697 29.2202L15.9575 36.5299H28.4092C29.4769 36.5299 30.3507 35.6561 30.3507 34.5885V31.8324C32.2694 31.8324 33.823 30.2788 33.823 28.3624C33.823 26.4437 32.2694 24.89 30.3507 24.89V22.1364H26.6252C26.6252 24.0528 25.0716 25.6064 23.1552 25.6064C21.2389 25.6064 19.683 24.0528 19.683 22.1364H15.9575Z" fill="#FD9A71"/>
<path fill-rule="evenodd" clip-rule="evenodd" d="M23.5704 13.7225L24.5834 17.3089L28.1697 16.296C28.6899 18.1417 30.6062 19.2162 32.4518 18.6938C34.2974 18.1736 35.3697 16.2572 34.8496 14.4115L38.4359 13.4008L35.0549 1.41642C34.7651 0.387514 33.686 -0.217095 32.6594 0.0726702L20.6753 3.45376L21.686 7.04017C19.8403 7.56033 18.7681 9.479 19.2882 11.3247C19.8084 13.1681 21.7271 14.2427 23.5704 13.7225Z" fill="#FDAD8C"/>
<path fill-rule="evenodd" clip-rule="evenodd" d="M28.3545 1.2863C29.9492 4.35028 30.9667 8.99981 30.9667 14.2061C30.9667 15.7734 30.8754 17.2906 30.7021 18.7301C31.261 18.8647 31.861 18.8625 32.4519 18.6936C34.2975 18.1735 35.3698 16.2571 34.8496 14.4114L38.436 13.4007L35.055 1.4163C34.7652 0.387392 33.6861 -0.217217 32.6595 0.0725482L28.3545 1.2863Z" fill="#FF8A58"/>
<path fill-rule="evenodd" clip-rule="evenodd" d="M30.3507 22.1364H26.6252C26.6252 23.4299 25.9157 24.5592 24.8663 25.157C26.048 29.2202 25.0465 35.4212 24.2275 36.5299H28.4093C29.477 36.5299 30.3508 35.6561 30.3508 34.5885V31.8324C32.2695 31.8324 33.8231 30.2788 33.8231 28.3624C33.8231 26.4437 32.2695 24.89 30.3508 24.89V22.1364H30.3507Z" fill="#FFB292"/>
<path fill-rule="evenodd" clip-rule="evenodd" d="M15.9574 22.1363V18.4084C14.0411 18.4084 12.4874 16.8548 12.4874 14.9384C12.4874 13.022 14.041 11.466 15.9574 11.466V7.74048H5.74365C7.27443 11.8927 8.3467 18.2693 8.62732 25.6042C8.67068 25.6064 8.71631 25.6064 8.75967 25.6064C10.6783 25.6064 12.2319 24.0527 12.2319 22.1363H15.9574Z" fill="#FE946B"/>
<path fill-rule="evenodd" clip-rule="evenodd" d="M15.9575 22.1364H12.2321C12.2321 24.0528 10.6785 25.6064 8.75979 25.6064C8.71643 25.6064 8.6708 25.6064 8.62744 25.6042C8.67533 26.8499 8.69814 28.1206 8.69814 29.4142C8.69814 33.1535 8.4951 36.7125 8.12549 39.943C8.3308 39.9817 8.54299 40 8.75971 40C10.6784 40 12.232 38.4464 12.232 36.5299H15.9574V22.1364H15.9575Z" fill="#FA7A48"/>
</g>
<defs>
<clipPath id="clip0_1_873">
<rect width="40" height="40" fill="white"/>
</clipPath>
</defs>
</svg>
