<svg width="40" height="40" viewBox="0 0 40 40" fill="none" xmlns="http://www.w3.org/2000/svg">
<g clip-path="url(#clip0_1_955)">
<path d="M36.918 8.26208L33.9139 9.66294L30.9099 11.0637L32.3107 14.0677L36.7155 15.6709L38.3187 11.2661L36.918 8.26208Z" fill="#FF8F6C"/>
<path d="M32.5129 6.65881L29.5089 8.05959L26.5049 9.46045L27.9057 12.4644L32.3105 14.0676L33.9137 9.66288L32.5129 6.65881Z" fill="#FFCCB3"/>
<path d="M28.1083 5.05557L24.8047 3.85315L22.3999 10.4603L27.9058 12.4644L29.5091 8.05956L28.1083 5.05557Z" fill="#FF8F6C"/>
<path d="M35.5169 5.25806L32.5129 6.65884L33.9137 9.6629L38.3186 11.2661L39.9999 6.86126L35.5169 5.25806Z" fill="#FFCCB3"/>
<path d="M31.1122 3.65479L35.517 5.25799L33.9138 9.66283L29.509 8.05955L28.0205 5.2965L31.1122 3.65479Z" fill="#FF8F6C"/>
<path d="M26.7073 2.05164L31.1121 3.65484L29.5089 8.0596L24.0029 6.05562L24.8796 3.64671L26.7073 2.05164Z" fill="#FFCCB3"/>
<path d="M24.5051 1.25L20 13.6275L15.6873 25.4764L17.8897 26.278L20 20.4801L26.7073 2.05148L24.5051 1.25Z" fill="#FFAD8A"/>
<path d="M24.5051 1.25L20 13.6275V20.4801L26.7073 2.05148L24.5051 1.25Z" fill="#FF8F6C"/>
<path d="M0 29.375L3.12422 34.0625L0 38.75H5.9375C9.1682 38.75 11.7969 36.1213 11.7969 32.8906V29.375H0Z" fill="#FF8761"/>
<path d="M40 29.375H28.2031V32.8906C28.2031 36.1213 30.8318 38.75 34.0625 38.75H40L36.8758 34.0625L40 29.375Z" fill="#FF9A73"/>
<path d="M3.08218 8.26208L6.08624 9.66294L9.09022 11.0637L7.68944 14.0677L3.2846 15.6709L1.6814 11.2661L3.08218 8.26208Z" fill="#FFAD8A"/>
<path d="M7.48696 6.65881L10.4909 8.05959L13.495 9.46045L12.0942 12.4644L7.68939 14.0676L6.08618 9.66288L7.48696 6.65881Z" fill="#ECECF1"/>
<path d="M11.8917 5.05557L15.1954 3.85315L17.6002 10.4603L12.0942 12.4644L10.491 8.05956L11.8917 5.05557Z" fill="#FFAD8A"/>
<path d="M4.48297 5.25806L7.48695 6.65884L6.08617 9.6629L1.68133 11.2661L0 6.86126L4.48297 5.25806Z" fill="#ECECF1"/>
<path d="M8.88768 3.65479L4.48291 5.25799L6.08611 9.66283L10.4909 8.05955L11.9794 5.2965L8.88768 3.65479Z" fill="#FFAD8A"/>
<path d="M13.2925 2.05164L8.8877 3.65484L10.4909 8.0596L15.9969 6.05562L15.1202 3.64671L13.2925 2.05164Z" fill="#ECECF1"/>
<path d="M20.0001 13.6275L15.495 1.25L13.2927 2.05148L20.0001 20.4801L22.1104 26.278L24.3128 25.4764L20.0001 13.6275Z" fill="#FA7A48"/>
<path d="M24.3127 25.4763L20 13.6274V20.48L22.1103 26.278L24.3127 25.4763Z" fill="#FFAD8A"/>
<path d="M20 24.6875H7.10938V34.0625H20H32.8906V24.6875H20Z" fill="#FF9A73"/>
<path d="M20 24.6875H32.8906V34.0625H20V24.6875Z" fill="#FF641A"/>
</g>
<defs>
<clipPath id="clip0_1_955">
<rect width="40" height="40" fill="white"/>
</clipPath>
</defs>
</svg>
