<svg width="40" height="40" viewBox="0 0 40 40" fill="none" xmlns="http://www.w3.org/2000/svg">
<path d="M37.134 40V39.0735C37.134 35.5056 35.2504 32.1584 32.0789 30.0903H7.86058C4.68901 32.1584 2.80542 35.5056 2.80542 39.0735V40H37.134Z" fill="#FFE0D1"/>
<path d="M29.6561 40L33.7589 29.842C25.0798 25.4543 23.1316 21.7219 23.1316 21.7219H19.9698H16.808C16.808 21.7219 14.8597 25.4543 6.18066 29.842L10.4259 40H29.6561Z" fill="#FFCCB5"/>
<path d="M17.7343 40L8.16406 33.502L11.1581 31.0328L19.9698 37.0159L28.8419 31.0328L31.8359 33.502L22.2001 40H17.7343Z" fill="#FFE0D1"/>
<path d="M13.7193 26.0391C13.7193 26.0391 17.0187 38.5034 1.25466 38.5034C1.25466 38.5034 0.93114 26.0391 13.7193 26.0391Z" fill="#F38461"/>
<path d="M26.2807 26.0391C26.2807 26.0391 22.9812 38.5034 38.7453 38.5034C38.7453 38.5034 39.0688 26.0391 26.2807 26.0391Z" fill="#F38461"/>
<path d="M26.2807 26.0391C26.2807 26.0391 26.2538 26.1409 26.2164 26.3259C35.0081 28.0368 35.5037 36.8683 35.5259 38.3055C36.4991 38.434 37.5692 38.5034 38.7454 38.5034C38.7454 38.5034 39.0689 26.0391 26.2807 26.0391Z" fill="#FA7A48"/>
<path d="M29.9696 14.788V24.8916L20 31.0328L10.0001 24.8916V14.788H29.9696Z" fill="#FFE0D1"/>
<path d="M26.7502 14.788V26.8746L29.9695 24.8916V14.788H26.7502Z" fill="#FFE0D1"/>
<path d="M29.9394 14.7879L19.9698 17.4516L10.0001 14.7879L9.98413 12.5759C10.2449 -0.859555 29.6996 -0.846977 29.9554 12.5759L29.9394 14.7879Z" fill="#FFCCB3"/>
<path d="M18.3585 2.62434C22.6983 3.27817 26.622 6.59645 26.736 12.5759L26.72 14.7879L18.3601 17.0215L19.9698 17.4516L29.9394 14.7879L29.9554 12.5759C29.8134 5.12934 23.7628 1.81005 18.3585 2.62434Z" fill="#FFB38C"/>
<path d="M21.568 12.9561V2.62187L19.9697 0H19.9744L18.3761 2.62187V12.9561" fill="#FF9372"/>
<path d="M19.9697 17.4516L10.0001 14.7879L19.9744 12.6064L29.9393 14.7879L19.9697 17.4516Z" fill="#FFE1D3"/>
<path d="M25.06 18.3756C24.7266 18.3756 24.4564 18.6458 24.4564 18.9792V24.7308C24.4564 25.0642 24.7267 25.3344 25.06 25.3344C25.3934 25.3344 25.6636 25.0642 25.6636 24.7308V18.9792C25.6636 18.6459 25.3934 18.3756 25.06 18.3756Z" fill="#FF9372"/>
<path d="M27.5788 17.8245C27.2454 17.8245 26.9752 18.0947 26.9752 18.4281V23.1923C26.9752 23.5256 27.2455 23.7959 27.5788 23.7959C27.9122 23.7959 28.1824 23.5256 28.1824 23.1923V18.4281C28.1824 18.0947 27.9123 17.8245 27.5788 17.8245Z" fill="#FF9372"/>
<path d="M14.9399 18.3756C14.6065 18.3756 14.3363 18.6458 14.3363 18.9792V24.7308C14.3363 25.0642 14.6065 25.3344 14.9399 25.3344C15.2733 25.3344 15.5435 25.0642 15.5435 24.7308V18.9792C15.5435 18.6459 15.2733 18.3756 14.9399 18.3756Z" fill="#FF9372"/>
<path d="M12.421 17.8245C12.0876 17.8245 11.8174 18.0947 11.8174 18.4281V23.1923C11.8174 23.5256 12.0876 23.7959 12.421 23.7959C12.7543 23.7959 13.0246 23.5256 13.0246 23.1923V18.4281C13.0246 18.0947 12.7543 17.8245 12.421 17.8245Z" fill="#FF9372"/>
<path d="M18.3761 30.0355V17.0258L19.9697 17.4516L21.5914 17.0183V30.0524L19.9999 31.0328L18.3761 30.0355Z" fill="#F38461"/>
<path d="M3.65236 36.4944C3.6133 36.4944 3.57361 36.4906 3.53384 36.4827C3.20689 36.4176 2.99463 36.0998 3.0597 35.7728C3.10158 35.5626 4.13252 30.603 8.29361 28.7167C8.5972 28.5792 8.95494 28.7135 9.09259 29.0172C9.23025 29.3208 9.09564 29.6785 8.79205 29.8162C5.18923 31.4494 4.25267 35.9631 4.24361 36.0085C4.18658 36.2957 3.93447 36.4944 3.65236 36.4944Z" fill="#FA7A48"/>
<path d="M4.66322 2.09258C4.31861 2.09258 4.03916 1.79266 4.06088 1.44953C4.08166 1.12172 4.37447 0.865313 4.70182 0.887578C5.01416 0.908906 5.26674 1.17391 5.26682 1.48891C5.26682 1.81695 4.9908 2.09258 4.66322 2.09258Z" fill="#FFE0D1"/>
<path d="M7.91304 6.03627C7.58539 6.03627 7.30945 5.76057 7.30945 5.43268C7.30945 5.11799 7.5621 4.85213 7.87445 4.83104C8.20179 4.80893 8.4946 5.06549 8.51539 5.39323C8.5371 5.73635 8.25773 6.03627 7.91304 6.03627Z" fill="#FFE0D1"/>
<path d="M2.14729 16.338C1.81831 16.338 1.5437 16.0631 1.5437 15.7344C1.54362 15.4053 1.81823 15.1317 2.1469 15.1307C2.47495 15.1298 2.75097 15.4067 2.75089 15.7344C2.75081 16.0624 2.47526 16.338 2.14729 16.338Z" fill="#FFE0D1"/>
<path d="M5.52752 23.5138C5.19159 23.5138 4.91409 23.2275 4.92448 22.892C4.9344 22.5718 5.2051 22.3056 5.52713 22.3066C5.84182 22.3077 6.11065 22.5593 6.13002 22.8738C6.15104 23.2152 5.86924 23.5138 5.52752 23.5138Z" fill="#FFE0D1"/>
<path d="M35.3368 2.09252C35.0151 2.09252 34.7436 1.82815 34.7338 1.50721C34.7236 1.17284 35.0016 0.884163 35.3369 0.885257C35.6656 0.886273 35.9407 1.15932 35.9404 1.48893C35.9402 1.81744 35.6659 2.09252 35.3368 2.09252Z" fill="#FFE0D1"/>
<path d="M32.0869 6.03624C31.7581 6.03624 31.483 5.7614 31.4833 5.43265C31.4835 5.11109 31.7455 4.84054 32.067 4.82968C32.3954 4.81859 32.6788 5.08491 32.6898 5.41296C32.7012 5.74827 32.4224 6.03624 32.0869 6.03624Z" fill="#FFE0D1"/>
<path d="M37.8527 16.338C37.5172 16.338 37.2383 16.05 37.2497 15.7147C37.2611 15.3801 37.5571 15.1082 37.8925 15.1321C38.205 15.1543 38.4572 15.4196 38.4572 15.7343C38.4572 16.0629 38.1806 16.338 37.8527 16.338Z" fill="#FFE0D1"/>
<path d="M34.4723 23.5138C34.137 23.5138 33.8579 23.2258 33.8694 22.8905C33.8803 22.5708 34.1515 22.3057 34.4723 22.3066C34.7856 22.3075 35.0547 22.5569 35.0747 22.8709C35.0964 23.214 34.817 23.5138 34.4723 23.5138Z" fill="#FFE0D1"/>
</svg>
