<svg width="40" height="40" viewBox="0 0 40 40" fill="none" xmlns="http://www.w3.org/2000/svg">
<path d="M16.1586 24.1762C16.0368 24.2981 15.8386 24.2981 15.7168 24.1762L13.8955 22.355L14.3374 21.9131L16.1586 23.7343C16.2805 23.8562 16.2805 24.0543 16.1586 24.1762Z" fill="#FFAD8A"/>
<path d="M6.24993 16.25V18.75H4.99993L2.82993 17.4063C2.29493 17.075 2.52993 16.25 3.1593 16.25H6.24993Z" fill="#FDAD8C"/>
<path d="M11.25 16.25H6.25V14.375C6.25 14.03 6.53 13.75 6.875 13.75H8.49125C8.65688 13.75 8.81625 13.8156 8.93313 13.9331L11.25 16.25Z" fill="#FDAD8C"/>
<path d="M5 18.75L6.2125 20.5625C7.04375 21.8125 7.4 23.3187 7.2125 24.8062L6.425 31.0938C6.33125 31.8438 6.9125 32.5 7.66875 32.5H12.375C13.1125 32.5 13.6875 31.8688 13.6188 31.1313L13.225 26.9312C13.1937 26.5687 13.4812 26.25 13.85 26.25H16.1375C17.8438 26.25 19.0125 24.7625 18.7 23.2625C18.6187 22.8688 18.9062 22.5 19.3062 22.5H26.6C27.1375 22.5 27.6125 22.1563 27.7875 21.6438L28.75 18.75H5ZM15.9375 25H15.3125C14.6313 25 14.0625 24.4437 14.0625 23.75C14.0625 23.0625 14.625 22.5 15.3125 22.5H15.9375C16.625 22.5 17.1875 23.0563 17.1875 23.75C17.1875 24.4375 16.625 25 15.9375 25Z" fill="#FA7A48"/>
<path d="M19.4874 18.75H18.2249C18.4249 20.1313 18.9436 21.4062 19.7061 22.5H21.2874C20.3624 21.4688 19.7249 20.1812 19.4874 18.75Z" fill="#FDAD8C"/>
<path d="M9.48548 21.25H12.0699C12.5555 21.25 12.8436 21.7731 12.6024 22.1944C12.1974 22.9006 12.0842 23.74 12.2817 24.5175C12.3324 24.7169 12.2674 24.9319 12.1186 25.0744C11.5492 25.6187 11.2892 26.3713 11.3624 27.1131L11.6242 29.9431C11.658 30.3088 11.3699 30.625 11.0017 30.625H9.08298C8.70673 30.625 8.4161 30.2956 8.46298 29.9225L9.07485 25.0375C9.20298 24.0238 9.13298 23.0025 8.88423 22.0281C8.78298 21.6331 9.07798 21.25 9.48548 21.25Z" fill="#FDAD8C"/>
<path d="M28.75 18.75H30.625C30.97 18.75 31.25 18.47 31.25 18.125V16.875C31.25 16.53 30.97 16.25 30.625 16.25H28.75V18.75Z" fill="#FDAD8C"/>
<path d="M28.125 16.25H26.875V14.375C26.875 14.03 27.155 13.75 27.5 13.75C27.845 13.75 28.125 14.03 28.125 14.375V16.25Z" fill="#FDAD8C"/>
<path d="M29.9999 15.625V19.375C29.9999 19.7188 29.7187 20 29.3749 20H4.54993C4.14368 20 3.84368 19.6188 3.94368 19.225L4.88118 15.475C4.94993 15.1938 5.19993 15 5.48743 15H29.3749C29.7187 15 29.9999 15.2812 29.9999 15.625Z" fill="#FFAD8A"/>
<path d="M26.875 18.125C27.2202 18.125 27.5 17.8452 27.5 17.5C27.5 17.1548 27.2202 16.875 26.875 16.875C26.5298 16.875 26.25 17.1548 26.25 17.5C26.25 17.8452 26.5298 18.125 26.875 18.125Z" fill="#FA7A48"/>
<path d="M27.5 18.125C27.8452 18.125 28.125 17.8452 28.125 17.5C28.125 17.1548 27.8452 16.875 27.5 16.875C27.1548 16.875 26.875 17.1548 26.875 17.5C26.875 17.8452 27.1548 18.125 27.5 18.125Z" fill="#FFCCB3"/>
<path d="M20 16.875H19.4062C19.4625 16.225 19.5938 15.5938 19.8063 15H18.5C18.3188 15.6 18.2 16.225 18.1562 16.875H17.5C17.1562 16.875 16.875 17.1562 16.875 17.5C16.875 17.8438 17.1562 18.125 17.5 18.125H18.1562C18.2 18.775 18.3188 19.4 18.5 20H19.8063C19.5938 19.4062 19.4625 18.775 19.4062 18.125H20C20.3438 18.125 20.625 17.8438 20.625 17.5C20.625 17.1562 20.3438 16.875 20 16.875Z" fill="#FA7A48"/>
<path d="M8.12492 19.0625C8.09992 19.0625 8.0743 19.0594 8.04867 19.0532C7.88117 19.0113 7.7793 18.8413 7.82117 18.6744L8.44617 16.1744C8.48742 16.0063 8.6568 15.9044 8.82492 15.9469C8.99242 15.9888 9.0943 16.1588 9.05242 16.3257L8.42742 18.8257C8.39242 18.9682 8.26555 19.0625 8.12492 19.0625Z" fill="#F0F0F0"/>
<path d="M9.37492 19.0625C9.34992 19.0625 9.3243 19.0594 9.29867 19.0532C9.13117 19.0113 9.0293 18.8413 9.07117 18.6744L9.69617 16.1744C9.73742 16.0063 9.90742 15.9044 10.0749 15.9469C10.2424 15.9894 10.3443 16.1588 10.3024 16.3257L9.67742 18.8257C9.64242 18.9682 9.51555 19.0625 9.37492 19.0625Z" fill="#F0F0F0"/>
<path d="M10.6249 19.0625C10.5999 19.0625 10.5743 19.0594 10.5487 19.0532C10.3812 19.0113 10.2793 18.8413 10.3212 18.6744L10.9462 16.1744C10.9874 16.0063 11.1574 15.9044 11.3249 15.9469C11.4924 15.9888 11.5943 16.1588 11.5524 16.3257L10.9274 18.8257C10.8924 18.9682 10.7655 19.0625 10.6249 19.0625Z" fill="#F0F0F0"/>
<path d="M11.8749 19.0625C11.8499 19.0625 11.8243 19.0594 11.7987 19.0532C11.6312 19.0113 11.5293 18.8413 11.5712 18.6744L12.1962 16.1744C12.2374 16.0063 12.4062 15.9044 12.5749 15.9469C12.7424 15.9888 12.8443 16.1588 12.8024 16.3257L12.1774 18.8257C12.1424 18.9682 12.0155 19.0625 11.8749 19.0625Z" fill="#F0F0F0"/>
<path d="M13.1249 19.0625C13.0999 19.0625 13.0743 19.0594 13.0487 19.0532C12.8812 19.0113 12.7793 18.8413 12.8212 18.6744L13.4462 16.1744C13.4874 16.0063 13.6562 15.9044 13.8249 15.9469C13.9924 15.9888 14.0943 16.1588 14.0524 16.3257L13.4274 18.8257C13.3924 18.9682 13.2655 19.0625 13.1249 19.0625Z" fill="#F0F0F0"/>
<path d="M27.5 8.75C22.6688 8.75 18.75 12.6688 18.75 17.5C18.75 22.3313 22.6688 26.25 27.5 26.25C32.3313 26.25 36.25 22.3313 36.25 17.5C36.25 12.6688 32.3313 8.75 27.5 8.75ZM27.5 25C23.3562 25 20 21.6438 20 17.5C20 13.3562 23.3562 10 27.5 10C31.6438 10 35 13.3562 35 17.5C35 21.6438 31.6438 25 27.5 25Z" fill="#FA7A48"/>
<path d="M27.5 8.75V10C27.075 10 26.6562 10.0375 26.25 10.1063V8.8375C26.6562 8.78125 27.075 8.75 27.5 8.75Z" fill="#FDAD8C"/>
<path d="M27.5 25V26.25C27.075 26.25 26.6562 26.2188 26.25 26.1625V24.8938C26.6562 24.9625 27.075 25 27.5 25Z" fill="#FDAD8C"/>
<path d="M27.5 11.25C27.155 11.25 26.875 10.97 26.875 10.625V8.125C26.875 7.78 27.155 7.5 27.5 7.5C27.845 7.5 28.125 7.78 28.125 8.125V10.625C28.125 10.97 27.845 11.25 27.5 11.25Z" fill="#FA7A48"/>
<path d="M27.5 27.5C27.155 27.5 26.875 27.22 26.875 26.875V24.375C26.875 24.03 27.155 23.75 27.5 23.75C27.845 23.75 28.125 24.03 28.125 24.375V26.875C28.125 27.22 27.845 27.5 27.5 27.5Z" fill="#FA7A48"/>
<path d="M27.5 11.25C27.155 11.25 26.875 10.97 26.875 10.625V8.125C26.875 7.78 27.155 7.5 27.5 7.5C27.845 7.5 28.125 7.78 28.125 8.125V10.625C28.125 10.97 27.845 11.25 27.5 11.25Z" fill="#FFCCB3"/>
<path d="M27.5 27.5C27.155 27.5 26.875 27.22 26.875 26.875V24.375C26.875 24.03 27.155 23.75 27.5 23.75C27.845 23.75 28.125 24.03 28.125 24.375V26.875C28.125 27.22 27.845 27.5 27.5 27.5Z" fill="#FFCCB3"/>
<path d="M33.75 17.5C33.75 17.155 34.03 16.875 34.375 16.875H36.875C37.22 16.875 37.5 17.155 37.5 17.5C37.5 17.845 37.22 18.125 36.875 18.125H34.375C34.03 18.125 33.75 17.845 33.75 17.5Z" fill="#FFCCB3"/>
<path d="M17.5 17.5C17.5 17.155 17.78 16.875 18.125 16.875H20.625C20.97 16.875 21.25 17.155 21.25 17.5C21.25 17.845 20.97 18.125 20.625 18.125H18.125C17.78 18.125 17.5 17.845 17.5 17.5Z" fill="#FFCCB3"/>
</svg>
