<svg width="40" height="40" viewBox="0 0 40 40" fill="none" xmlns="http://www.w3.org/2000/svg">
<g clip-path="url(#clip0_1_1818)">
<path d="M25.09 10.1693H14.9203C14.5459 10.1693 14.2422 9.86636 14.2422 9.49161V5.76278C14.2422 2.58559 16.8274 0 20.005 0C23.1825 0 25.7677 2.58559 25.7677 5.76278V9.49161C25.7677 9.86636 25.4644 10.1693 25.09 10.1693ZM15.5984 8.8135H24.4119V5.76278C24.4119 3.33275 22.435 1.35583 20.005 1.35583C17.5753 1.35583 15.5984 3.33275 15.5984 5.76278V8.8135Z" fill="#FA7A48"/>
<path d="M34.9204 12.8814H5.09009L7.12365 9.49158H32.8864L34.9204 12.8814Z" fill="#FFF7E6"/>
<path d="M34.9204 13.5712H5.09014C4.84148 13.5712 4.61182 13.4373 4.48962 13.2209C4.36703 13.0052 4.37013 12.7398 4.49854 12.5264L6.53249 9.13667C6.65662 8.92873 6.88163 8.80188 7.1237 8.80188H32.8865C33.1289 8.80188 33.3536 8.92873 33.4781 9.13667L35.512 12.5264C35.6401 12.7398 35.6435 13.0052 35.521 13.2212C35.3984 13.4373 35.1691 13.5712 34.9204 13.5712ZM6.30826 12.1917H33.7019L32.4958 10.1814H7.51435L6.30826 12.1917Z" fill="#FA7A48"/>
<path d="M22.3048 4.47522L31.5466 6.63641L29.231 16.5385L19.9893 14.3773L22.3048 4.47522Z" fill="#FFF7E6"/>
<path d="M29.2308 17.2185C29.1792 17.2185 29.1276 17.2127 29.0764 17.2007L19.8346 15.0391C19.47 14.9538 19.2434 14.5891 19.3288 14.2248L21.6448 4.32202C21.6859 4.14667 21.7945 3.99499 21.9473 3.90033C22.0998 3.80568 22.2845 3.77542 22.459 3.81615L31.7008 5.97811C32.0659 6.06346 32.292 6.42812 32.2067 6.79239L29.8907 16.6948C29.85 16.8706 29.7414 17.0222 29.5881 17.1165C29.4799 17.1836 29.3561 17.2185 29.2308 17.2185ZM20.8037 13.8734L28.725 15.7265L30.7321 7.14386L22.8105 5.29069L20.8037 13.8734Z" fill="#FA7A48"/>
<path d="M7.73438 4.07874L19.0737 2.73804L20.5099 14.8874L9.17051 16.2281L7.73438 4.07874Z" fill="#FDAD8C"/>
<path d="M9.16847 16.9062C8.8298 16.9062 8.53691 16.6525 8.49618 16.3076L7.06004 4.15868C7.03909 3.97984 7.08991 3.80023 7.20125 3.65941C7.3122 3.5182 7.47513 3.42703 7.65397 3.4057L18.9933 2.06577C19.3599 2.01999 19.7025 2.28767 19.7459 2.6597L21.1821 14.8087C21.2034 14.9875 21.1522 15.1671 21.0412 15.3079C20.9299 15.4491 20.767 15.5403 20.5881 15.5616L9.24877 16.9016C9.22239 16.9047 9.19563 16.9062 9.16847 16.9062ZM8.48648 4.67308L9.76317 15.4751L19.756 14.2943L18.4793 3.49182L8.48648 4.67308Z" fill="#FA7A48"/>
<path d="M12.7991 9.81285L23.721 7.18652L26.485 18.6814L15.5631 21.3078L12.7991 9.81285Z" fill="#FFF7E6"/>
<path d="M15.5627 21.9975C15.4362 21.9975 15.3117 21.963 15.2023 21.8962C15.046 21.8 14.9346 21.6464 14.8919 21.4691L12.1279 9.97422C12.0848 9.79577 12.1147 9.608 12.2101 9.45244C12.3056 9.2961 12.4592 9.18438 12.6373 9.14171L23.5592 6.51616C23.9293 6.42693 24.3025 6.65504 24.3909 7.02513L27.1554 18.5197C27.1984 18.6977 27.1685 18.8851 27.0731 19.041C26.9777 19.1974 26.8241 19.3095 26.646 19.3518L15.7241 21.9781C15.6705 21.9917 15.6162 21.9975 15.5627 21.9975ZM13.6312 10.3222L16.072 20.4752L25.6521 18.1713L23.2108 8.01902L13.6312 10.3222Z" fill="#FA7A48"/>
<path d="M36.2762 39.3219H3.73389L5.09011 12.8813H34.9204L36.2762 39.3219Z" fill="#FDAD8C"/>
<path d="M36.2763 40H3.73395C3.54813 40 3.37046 39.9239 3.24244 39.7889C3.11481 39.6543 3.0477 39.4732 3.05701 39.2877L4.41323 12.8468C4.43146 12.4861 4.72901 12.2032 5.09018 12.2032H34.9205C35.2812 12.2032 35.5788 12.4861 35.5974 12.8468L36.9532 39.2877C36.9629 39.4732 36.8958 39.6543 36.7678 39.7889C36.6402 39.9239 36.4621 40 36.2763 40ZM4.44776 38.6441H35.5629L34.2761 13.5595H5.73415L4.44776 38.6441Z" fill="#FA7A48"/>
<path d="M26.4459 16.9492C26.4459 17.698 25.8388 18.3051 25.0901 18.3051C24.341 18.3051 23.7339 17.698 23.7339 16.9492C23.7339 16.2001 24.341 15.593 25.0901 15.593C25.8388 15.593 26.4459 16.2001 26.4459 16.9492Z" fill="#FDAD8C"/>
<path d="M25.0901 18.9832C23.9686 18.9832 23.0562 18.0707 23.0562 16.9492C23.0562 15.8277 23.9686 14.9153 25.0901 14.9153C26.2116 14.9153 27.1237 15.8277 27.1237 16.9492C27.1237 18.0707 26.2116 18.9832 25.0901 18.9832ZM25.0901 16.2711C24.7161 16.2711 24.412 16.5749 24.412 16.9492C24.412 17.3232 24.7161 17.627 25.0901 17.627C25.4637 17.627 25.7678 17.3232 25.7678 16.9492C25.7678 16.5749 25.4637 16.2711 25.0901 16.2711Z" fill="#FA7A48"/>
<path d="M16.2761 16.9492C16.2761 17.698 15.669 18.3051 14.9203 18.3051C14.1716 18.3051 13.5645 17.698 13.5645 16.9492C13.5645 16.2001 14.1716 15.593 14.9203 15.593C15.669 15.593 16.2761 16.2001 16.2761 16.9492Z" fill="#FDAD8C"/>
<path d="M14.9204 18.9832C13.7989 18.9832 12.8865 18.0707 12.8865 16.9492C12.8865 15.8277 13.7989 14.9153 14.9204 14.9153C16.0419 14.9153 16.9544 15.8277 16.9544 16.9492C16.9544 18.0707 16.0419 18.9832 14.9204 18.9832ZM14.9204 16.2711C14.5468 16.2711 14.2423 16.5749 14.2423 16.9492C14.2423 17.3232 14.5468 17.627 14.9204 17.627C15.294 17.627 15.5985 17.3232 15.5985 16.9492C15.5985 16.5749 15.294 16.2711 14.9204 16.2711Z" fill="#FA7A48"/>
<path d="M20.0052 27.1186C16.8276 27.1186 14.2424 24.533 14.2424 21.3558V17.6269C14.2424 17.2522 14.5462 16.9492 14.9205 16.9492C15.2949 16.9492 15.5987 17.2522 15.5987 17.6269V21.3558C15.5987 23.7858 17.5756 25.7627 20.0052 25.7627C22.4352 25.7627 24.4122 23.7858 24.4122 21.3558V17.8069C24.3951 17.7499 24.3862 17.6894 24.3862 17.6269C24.3862 17.2522 24.6635 16.9492 25.0379 16.9492H25.0903C25.4646 16.9492 25.768 17.2522 25.768 17.6269V21.3558C25.768 24.533 23.1828 27.1186 20.0052 27.1186Z" fill="#FA7A48"/>
<path d="M3.73389 39.3218H36.2762L36.1723 37.2878H3.83824L3.73389 39.3218Z" fill="#FA7A48"/>
<path d="M36.2763 40H3.73395C3.54813 40 3.37046 39.924 3.24244 39.789C3.11481 39.6544 3.0477 39.4732 3.05701 39.2878L3.16136 37.2538C3.17998 36.893 3.47753 36.6102 3.83831 36.6102H36.1723C36.5331 36.6102 36.8307 36.893 36.8493 37.2538L36.9532 39.2878C36.9629 39.4732 36.8958 39.6544 36.7678 39.789C36.6402 39.924 36.4621 40 36.2763 40ZM4.44776 38.6442H35.5629L35.528 37.9661H4.48267L4.44776 38.6442Z" fill="#FA7A48"/>
<path d="M10.8525 38.6442C10.4782 38.6442 10.1748 38.3408 10.1748 37.9661V35.2544C10.1748 34.8797 10.4782 34.5763 10.8525 34.5763C11.2269 34.5763 11.5306 34.8797 11.5306 35.2544V37.9661C11.5306 38.3408 11.2269 38.6442 10.8525 38.6442Z" fill="white"/>
<path d="M12.2088 37.288H9.49671C9.12236 37.288 8.8186 36.985 8.8186 36.6102C8.8186 36.2355 9.12236 35.9321 9.49671 35.9321H12.2088C12.5831 35.9321 12.8865 36.2355 12.8865 36.6102C12.8865 36.985 12.5831 37.288 12.2088 37.288Z" fill="white"/>
<path d="M6.78504 18.3051C6.4103 18.3051 6.10693 18.0017 6.10693 17.627V14.9153C6.10693 14.5405 6.4103 14.2372 6.78504 14.2372H9.01451C9.38887 14.2372 9.69223 14.5405 9.69223 14.9153C9.69223 15.29 9.38887 15.593 9.01451 15.593H7.46277V17.627C7.46277 18.0017 7.1594 18.3051 6.78504 18.3051Z" fill="white"/>
</g>
<defs>
<clipPath id="clip0_1_1818">
<rect width="40" height="40" fill="white"/>
</clipPath>
</defs>
</svg>
