<svg width="40" height="40" viewBox="0 0 40 40" fill="none" xmlns="http://www.w3.org/2000/svg">
<path d="M24.3714 7.73493C24.0381 7.73493 23.7678 7.46469 23.7678 7.13133V2.5793C23.7678 2.24586 24.0381 1.97571 24.3714 1.97571C24.7048 1.97571 24.975 2.24594 24.975 2.5793V7.13133C24.9751 7.46469 24.7048 7.73493 24.3714 7.73493Z" fill="#FFAD8A"/>
<path d="M15.6285 7.73493C15.2951 7.73493 15.0249 7.46469 15.0249 7.13133V2.5793C15.0249 2.24586 15.2951 1.97571 15.6285 1.97571C15.9619 1.97571 16.2321 2.24594 16.2321 2.5793V7.13133C16.2321 7.46469 15.9619 7.73493 15.6285 7.73493Z" fill="#FFAD8A"/>
<path d="M3.97388 24.6001H13.867V27.0218H3.97388V24.6001Z" fill="#FFAD8A"/>
<path d="M2.30981 18.8473H4.78903V24.6383H2.30981V18.8473Z" fill="#FFAD8A"/>
<path d="M26.1331 24.6001H36.0262V27.0218H26.1331V24.6001Z" fill="#FFAD8A"/>
<path d="M13.9066 22.3811V29.2409H10.8422L8.14772 23.6296C7.86998 23.0511 8.29155 22.381 8.93319 22.381L13.9066 22.3811Z" fill="#FA7A48"/>
<path d="M26.0935 22.3811V29.2409H29.1579L31.8524 23.6296C32.1301 23.0511 31.7086 22.381 31.0669 22.381L26.0935 22.3811Z" fill="#FA7A48"/>
<path d="M35.2109 18.8473H37.6902V24.6383H35.2109V18.8473Z" fill="#FFAD8A"/>
<path d="M3.05898 20.3708H4.03992C5.72937 20.3708 7.09891 19.0012 7.09891 17.3117V14.2769C7.09891 13.9972 6.87211 13.7704 6.59234 13.7704H5.18375C4.90398 13.7704 4.67719 13.9972 4.67719 14.2769V17.3117C4.67719 17.6637 4.39187 17.949 4.03992 17.949H3.05898C2.70703 17.949 2.42172 17.6637 2.42172 17.3117V14.2769C2.42172 13.9972 2.19492 13.7704 1.91516 13.7704H0.506563C0.226797 13.7704 0 13.9972 0 14.2769V17.3117C0 19.0012 1.36953 20.3708 3.05898 20.3708Z" fill="#FFC0AC"/>
<path d="M36.941 20.3708H35.9601C34.2707 20.3708 32.9011 19.0012 32.9011 17.3117V14.2769C32.9011 13.9972 33.1279 13.7704 33.4077 13.7704H34.8163C35.096 13.7704 35.3228 13.9972 35.3228 14.2769V17.3117C35.3228 17.6637 35.6082 17.949 35.9601 17.949H36.941C37.293 17.949 37.5783 17.6637 37.5783 17.3117V14.2769C37.5783 13.9972 37.8051 13.7704 38.0849 13.7704H39.4935C39.7732 13.7704 40 13.9972 40 14.2769V17.3117C40 19.0012 38.6305 20.3708 36.941 20.3708Z" fill="#FFC0AC"/>
<path d="M3.67 28.1233C4.93894 28.0534 5.91099 26.9681 5.84112 25.6992C5.77126 24.4302 4.68595 23.4582 3.41701 23.528C2.14806 23.5979 1.17602 24.6832 1.24588 25.9522C1.31574 27.2211 2.40106 28.1931 3.67 28.1233Z" fill="#FFCCB3"/>
<path d="M38.7508 25.9103C38.8207 24.6414 37.8486 23.5561 36.5797 23.4862C35.3107 23.4163 34.2254 24.3884 34.1555 25.6573C34.0857 26.9263 35.0577 28.0116 36.3267 28.0815C37.5956 28.1513 38.6809 27.1793 38.7508 25.9103Z" fill="#FFCCB3"/>
<path d="M29.0808 10.6475H26.6223V13.95H29.0808C29.9928 13.95 30.7321 13.2107 30.7321 12.2988C30.7321 11.3868 29.9928 10.6475 29.0808 10.6475Z" fill="#FFCCB3"/>
<path d="M10.9191 10.6475H13.3776V13.95H10.9191C10.0071 13.95 9.26782 13.2107 9.26782 12.2988C9.26782 11.3868 10.0071 10.6475 10.9191 10.6475Z" fill="#FFCCB3"/>
<path d="M16.6187 17.8156H23.3812V23.4102H16.6187V17.8156Z" fill="#FFAD8A"/>
<path d="M12.5068 8.28856V17.8119C12.5068 18.3837 12.9704 18.8471 13.5421 18.8471H15.0514L19.9497 18.0423L24.9486 18.8471H26.458C27.0298 18.8471 27.4932 18.3836 27.4932 17.8119V8.28856C27.4932 7.22043 26.6273 6.35449 25.5592 6.35449H14.4409C13.3728 6.35449 12.5068 7.22043 12.5068 8.28856Z" fill="#FA7A48"/>
<path d="M25.5592 6.35449H22.9341C24.0022 6.35449 24.8681 7.22043 24.8681 8.28856V18.8471H26.458C27.0298 18.8471 27.4932 18.3836 27.4932 17.8119V8.28856C27.4932 7.22043 26.6273 6.35449 25.5592 6.35449Z" fill="#FB8C5D"/>
<path d="M24.6331 12.0287C24.7014 11.3424 24.2004 10.7307 23.5141 10.6624C22.8278 10.5941 22.2161 11.0951 22.1478 11.7814C22.0795 12.4677 22.5805 13.0794 23.2668 13.1477C23.9531 13.216 24.5648 12.715 24.6331 12.0287Z" fill="#FFC0AC"/>
<path d="M17.8675 12.0277C17.9358 11.3414 17.4348 10.7297 16.7485 10.6614C16.0622 10.5931 15.4505 11.0941 15.3822 11.7804C15.3139 12.4667 15.8149 13.0784 16.5012 13.1467C17.1875 13.215 17.7992 12.714 17.8675 12.0277Z" fill="#FFC0AC"/>
<path d="M15.0515 16.4454V18.8472H17.747L18.3098 18.5252L18.9542 18.8472H21.046L21.6496 18.5252L22.2532 18.8472H24.9485V16.4454C24.9485 16.1661 24.7221 15.9396 24.4427 15.9396H22.2532L21.6496 16.2615L21.046 15.9396H18.9542L18.3099 16.342L17.7471 15.9396H15.5575C15.278 15.9396 15.0515 16.1661 15.0515 16.4454Z" fill="#FFC0AC"/>
<path d="M17.7471 15.9396H18.9543V18.8472H17.7471V15.9396Z" fill="#FA7A48"/>
<path d="M21.0461 15.9396H22.2534V18.8472H21.0461V15.9396Z" fill="#FA7A48"/>
<path d="M25.7533 21.7881H14.2466C13.9027 21.7881 13.5761 21.9419 13.358 22.2078C9.95033 26.3609 8.43017 31.3377 8.79752 37.1382C8.829 37.6357 9.23986 38.0243 9.73837 38.0243H30.2615C30.76 38.0243 31.1709 37.6357 31.2024 37.1382C31.5697 31.3377 30.0495 26.3609 26.6419 22.2078C26.4238 21.9419 26.0972 21.7881 25.7533 21.7881Z" fill="#FFCCB3"/>
<path d="M26.7371 22.2078C26.5189 21.9419 26.1924 21.7881 25.8485 21.7881H23.1746C23.5185 21.7881 23.845 21.9419 24.0632 22.2078C27.4708 26.3609 28.991 31.3377 28.6236 37.1382C28.5921 37.6357 28.1813 38.0243 27.6828 38.0243H30.3567C30.8552 38.0243 31.266 37.6357 31.2975 37.1382C31.6649 31.3377 30.1447 26.3609 26.7371 22.2078Z" fill="#FFA782"/>
<path d="M25.5953 26.6555L24.2857 28.0215C24.1585 28.1542 23.9546 28.1725 23.8035 28.068C22.7234 27.3207 21.4126 26.883 20 26.883C18.5875 26.883 17.2767 27.3207 16.1966 28.068C16.0455 28.1725 15.8415 28.1542 15.7143 28.0215L14.4047 26.6555C14.2508 26.495 14.2699 26.2343 14.4483 26.1015C15.9982 24.9483 17.9192 24.2666 20 24.2666C22.0809 24.2666 24.0018 24.9484 25.5518 26.1015C25.7302 26.2343 25.7493 26.495 25.5953 26.6555Z" fill="#FFC0AC"/>
<path d="M20 35.2568C21.2546 35.2568 22.2717 34.2397 22.2717 32.9851C22.2717 31.7305 21.2546 30.7134 20 30.7134C18.7454 30.7134 17.7283 31.7305 17.7283 32.9851C17.7283 34.2397 18.7454 35.2568 20 35.2568Z" fill="#FA7A48"/>
<path d="M27.4537 36.0105H27.1861C26.8528 36.0105 26.5825 35.7403 26.5825 35.4069C26.5825 35.0736 26.8528 34.8033 27.1861 34.8033H27.4537C27.7871 34.8033 28.0573 35.0736 28.0573 35.4069C28.0573 35.7403 27.7871 36.0105 27.4537 36.0105Z" fill="#FFAD8A"/>
<path d="M12.8138 36.0105H12.5462C12.2129 36.0105 11.9426 35.7403 11.9426 35.4069C11.9426 35.0736 12.2129 34.8033 12.5462 34.8033H12.8138C13.1472 34.8033 13.4174 35.0736 13.4174 35.4069C13.4174 35.7403 13.1472 36.0105 12.8138 36.0105Z" fill="#FFAD8A"/>
<path d="M26.6468 31.1671H26.3792C26.0459 31.1671 25.7756 30.8969 25.7756 30.5636C25.7756 30.2302 26.0459 29.96 26.3792 29.96H26.6468C26.9802 29.96 27.2504 30.2302 27.2504 30.5636C27.2504 30.8969 26.9802 31.1671 26.6468 31.1671Z" fill="#FFAD8A"/>
<path d="M13.6212 31.1671H13.3536C13.0202 31.1671 12.75 30.8969 12.75 30.5636C12.75 30.2302 13.0202 29.96 13.3536 29.96H13.6212C13.9545 29.96 14.2248 30.2302 14.2248 30.5636C14.2248 30.8969 13.9545 31.1671 13.6212 31.1671Z" fill="#FFAD8A"/>
</svg>
