<svg width="40" height="40" viewBox="0 0 40 40" fill="none" xmlns="http://www.w3.org/2000/svg">
<g clip-path="url(#clip0_1_1242)">
<path d="M20.0705 36.1163C11.1368 36.1163 3.86841 28.8482 3.86841 19.9142C3.86841 10.9805 11.1368 3.7124 20.0705 3.7124C29.0042 3.7124 36.2723 10.9805 36.2723 19.9142C36.2723 28.8482 29.0042 36.1163 20.0705 36.1163ZM20.0705 5.03168C11.864 5.03168 5.18799 11.708 5.18799 19.9142C5.18799 28.1207 11.864 34.7967 20.0705 34.7967C28.2767 34.7967 34.953 28.1207 34.953 19.9142C34.953 11.708 28.2767 5.03168 20.0705 5.03168Z" fill="#FDAD8C"/>
<path d="M15.0201 7.39288C15.0201 11.5189 11.6751 14.8639 7.54913 14.8639C3.42285 14.8639 0.078125 11.5189 0.078125 7.39288C0.078125 3.26691 3.42285 -0.078125 7.54913 -0.078125C11.6751 -0.078125 15.0201 3.26691 15.0201 7.39288Z" fill="#64E8FF"/>
<path d="M7.54919 -0.078125C7.11493 -0.078125 6.68951 -0.0405884 6.27539 0.0305176C9.79468 0.635071 12.4729 3.70087 12.4729 7.39288C12.4729 11.0849 9.79468 14.1507 6.27539 14.7552C6.68951 14.8264 7.11493 14.8639 7.54919 14.8639C11.6752 14.8639 15.0202 11.5189 15.0202 7.39288C15.0202 3.26691 11.6752 -0.078125 7.54919 -0.078125Z" fill="#0FD9FF"/>
<path d="M40.0633 7.39288C40.0633 11.5189 36.7186 14.8639 32.5923 14.8639C28.4663 14.8639 25.1216 11.5189 25.1216 7.39288C25.1216 3.26691 28.4663 -0.078125 32.5923 -0.078125C36.7186 -0.078125 40.0633 3.26691 40.0633 7.39288Z" fill="#6193FF"/>
<path d="M40.0602 7.1789C39.9421 3.05445 36.5028 -0.193228 32.3787 -0.0751254C31.9856 -0.0638339 31.6008 -0.0223299 31.2257 0.0469449C34.6138 0.674386 37.2236 3.59553 37.3262 7.1789C37.4333 10.9103 34.785 14.0808 31.2251 14.7384C31.7366 14.8333 32.2654 14.876 32.8062 14.8608C36.9307 14.7424 40.1783 11.3034 40.0602 7.1789Z" fill="#407BFF"/>
<path d="M15.0201 32.4509C15.0201 36.5771 11.6751 39.9219 7.54913 39.9219C3.42285 39.9219 0.078125 36.5771 0.078125 32.4509C0.078125 28.3249 3.42285 24.9799 7.54913 24.9799C11.6751 24.9799 15.0201 28.3249 15.0201 32.4509Z" fill="#FF6969"/>
<path d="M7.54919 24.9799C6.97058 24.9799 6.40723 25.0458 5.86646 25.1703C9.18219 25.9335 11.6547 28.9035 11.6547 32.4509C11.6547 35.9985 9.18219 38.9682 5.86646 39.7314C6.40723 39.856 6.97058 39.9219 7.54919 39.9219C11.6752 39.9219 15.0202 36.5771 15.0202 32.4509C15.0202 28.3249 11.6752 24.9799 7.54919 24.9799Z" fill="#FF4848"/>
<path d="M40.0633 32.4509C40.0633 36.5771 36.7186 39.9219 32.5923 39.9219C28.4663 39.9219 25.1216 36.5771 25.1216 32.4509C25.1216 28.3249 28.4663 24.9799 32.5923 24.9799C36.7186 24.9799 40.0633 28.3249 40.0633 32.4509Z" fill="#FF95C2"/>
<path d="M32.5925 24.9799C32.0764 24.9799 31.5729 25.0323 31.0864 25.1318C34.4907 25.8286 37.0514 28.8406 37.0514 32.4509C37.0514 36.0611 34.4907 39.0732 31.0864 39.7699C31.5729 39.8694 32.0764 39.9219 32.5925 39.9219C36.7184 39.9219 40.0632 36.5771 40.0632 32.4509C40.0632 28.3249 36.7184 24.9799 32.5925 24.9799Z" fill="#FF758E"/>
<path d="M11.0797 4.48515C10.7946 4.65697 10.4892 4.79277 10.1696 4.8889C9.57516 4.20531 8.5394 4.13329 7.8558 4.72777C7.49203 5.04423 7.28573 5.50475 7.29214 5.98723V6.35313C6.04947 6.38548 4.86966 5.82396 4.11099 4.84831C4.05941 4.78209 3.95474 4.79887 3.92727 4.87791C3.67856 5.58989 2.99893 8.1967 5.82791 9.45403C5.19314 9.88463 4.45645 10.1349 3.69595 10.1816C3.58487 10.1883 3.55526 10.3381 3.65628 10.3848C6.87008 11.8692 10.5871 10.0207 10.5871 5.97594C10.5868 5.87401 10.5767 5.77238 10.5578 5.67229C10.8606 5.37352 11.0913 5.01097 11.2341 4.61272C11.2674 4.51964 11.1645 4.43419 11.0797 4.48515Z" fill="white"/>
<path d="M32.0658 12.1279C31.7014 12.1279 31.406 11.8325 31.406 11.4681V4.97278C31.406 3.69623 32.4445 2.65771 33.7211 2.65771H34.5023C34.8667 2.65771 35.1621 2.95312 35.1621 3.3175C35.1621 3.68188 34.8667 3.97699 34.5023 3.97699H33.7211C33.1721 3.97699 32.7253 4.42377 32.7253 4.97278V11.4681C32.7253 11.8325 32.4299 12.1279 32.0658 12.1279Z" fill="white"/>
<path d="M33.601 7.92505H30.6063C30.2419 7.92505 29.9465 7.62964 29.9465 7.26526C29.9465 6.90088 30.2419 6.60547 30.6063 6.60547H33.601C33.9654 6.60547 34.2608 6.90088 34.2608 7.26526C34.2608 7.62964 33.9654 7.92505 33.601 7.92505Z" fill="white"/>
<path d="M5.95264 32.369V29.9959C5.95264 29.8211 6.14154 29.7121 6.29291 29.7994L8.34705 30.9859L10.4015 32.1725C10.5526 32.26 10.5526 32.4782 10.4015 32.5658L8.34705 33.7524L6.29291 34.9389C6.14154 35.0262 5.95264 34.9169 5.95264 34.7423V32.369Z" fill="white"/>
<path d="M35.2147 36.7822H29.9697C29.0276 36.7822 28.261 36.0156 28.261 35.0735V29.8284C28.261 28.886 29.0276 28.1198 29.9697 28.1198H35.2147C36.1568 28.1198 36.9234 28.886 36.9234 29.8284V35.0735C36.9234 36.0156 36.1568 36.7822 35.2147 36.7822ZM29.9697 29.439C29.7548 29.439 29.5803 29.6136 29.5803 29.8284V35.0735C29.5803 35.288 29.7548 35.4626 29.9697 35.4626H35.2147C35.4293 35.4626 35.6041 35.288 35.6041 35.0735V29.8284C35.6041 29.6136 35.4293 29.439 35.2147 29.439H29.9697Z" fill="white"/>
<path d="M32.5922 34.3316C31.5552 34.3316 30.7117 33.4878 30.7117 32.4508C30.7117 31.4138 31.5552 30.5703 32.5922 30.5703C33.6292 30.5703 34.473 31.4138 34.473 32.4508C34.473 33.4878 33.6292 34.3316 32.5922 34.3316ZM32.5922 31.8896C32.2827 31.8896 32.0309 32.1414 32.0309 32.4508C32.0309 32.7603 32.2827 33.012 32.5922 33.012C32.9019 33.012 33.1534 32.7603 33.1534 32.4508C33.1537 32.1414 32.9019 31.8896 32.5922 31.8896Z" fill="white"/>
<path d="M17.7387 25.9231L17.4997 21.3263C17.4808 20.9625 17.1711 20.6839 16.8067 20.7019C16.4429 20.7208 16.1634 21.0312 16.1823 21.3949L16.4213 25.9918C16.4396 26.344 16.7307 26.6171 17.0795 26.6171C17.0911 26.6171 17.1024 26.6168 17.1143 26.6162C17.4781 26.5973 17.7576 26.2872 17.7387 25.9231Z" fill="#FDAD8C"/>
<path d="M18.4791 21.3608H15.7154C15.38 21.3608 15.1084 21.0889 15.1084 20.7535V17.5833C15.1084 17.2482 15.38 16.9763 15.7154 16.9763H18.4791C18.5313 16.9763 18.5737 17.0187 18.5737 17.0709V21.2662C18.5737 21.3184 18.5313 21.3608 18.4791 21.3608Z" fill="#FA7A48"/>
<path d="M24.4386 23.4689C23.6174 22.9657 22.5935 22.4255 21.3734 21.9565C20.3499 21.5628 19.4005 21.301 18.5737 21.124C18.5737 19.8203 18.5737 18.5168 18.5737 17.2134C19.4029 17.037 20.3575 16.7749 21.3878 16.3782C22.6036 15.9097 23.6226 15.3699 24.4386 14.8682V23.4689Z" fill="#FFE6CC"/>
<path d="M24.4386 24.7415C24.0742 24.7415 23.7788 24.4461 23.7788 24.0817V14.2554C23.7788 13.891 24.0742 13.5956 24.4386 13.5956C24.803 13.5956 25.0984 13.891 25.0984 14.2554V24.0817C25.0984 24.4461 24.803 24.7415 24.4386 24.7415Z" fill="#FA7A48"/>
</g>
<defs>
<clipPath id="clip0_1_1242">
<rect width="40" height="40" fill="white"/>
</clipPath>
</defs>
</svg>
