<svg width="40" height="40" viewBox="0 0 40 40" fill="none" xmlns="http://www.w3.org/2000/svg">
<path d="M21.897 23.6203C21.5548 23.1244 21.4079 22.5195 21.4845 21.9219C21.4978 21.8182 21.5046 21.7139 21.5048 21.6094C21.5047 21.1145 21.3541 20.6314 21.0727 20.2242L10.7673 5.29062C10.5791 5.01695 10.3388 4.78302 10.0602 4.60221C9.78157 4.42139 9.47007 4.29723 9.14347 4.23679C8.81687 4.17636 8.48156 4.18085 8.15669 4.25001C7.83183 4.31916 7.52376 4.45163 7.25009 4.63984C6.97642 4.82805 6.7425 5.06832 6.56168 5.34693C6.38087 5.62555 6.2567 5.93705 6.19627 6.26365C6.13584 6.59025 6.14033 6.92556 6.20948 7.25042C6.27863 7.57529 6.4111 7.88335 6.59931 8.15703L13.3267 17.9055L19.9032 25.8617C20.1368 24.9531 21.1642 24.3273 22.3751 24.3133L21.897 23.6203Z" fill="#FA7A48"/>
<path d="M15.6704 17.9055L8.94302 8.15702C8.75441 7.88392 8.62155 7.57629 8.55205 7.25176C8.48255 6.92723 8.47779 6.59217 8.53803 6.26579C8.59827 5.93941 8.72233 5.62812 8.90309 5.34978C9.08386 5.07143 9.31779 4.8315 9.59146 4.64373C9.67627 4.5857 9.76451 4.53281 9.85567 4.48537C9.35546 4.22226 8.78148 4.13442 8.22548 4.23589C7.66947 4.33737 7.16353 4.62231 6.78851 5.04517C6.4135 5.46803 6.19107 6.0044 6.15676 6.56855C6.12246 7.1327 6.27826 7.69207 6.59927 8.15725L13.3266 17.9057L19.9032 25.8619C20.0525 25.2812 20.5262 24.8165 21.1647 24.5526L15.6704 17.9055Z" fill="#FF9F7A"/>
<path d="M21.0243 38.0523C22.704 38.0523 24.0657 36.6906 24.0657 35.0109C24.0657 33.3312 22.704 31.9695 21.0243 31.9695C19.3446 31.9695 17.9829 33.3312 17.9829 35.0109C17.9829 36.6906 19.3446 38.0523 21.0243 38.0523Z" fill="#FF9F7A"/>
<path d="M24.6694 32.2094L28.8991 34.5L27.103 35.7351L24.6694 32.2094Z" fill="#FA7A48"/>
<path d="M28.8993 34.5L30.8024 35.5305C30.6935 35.915 30.4533 36.2492 30.1235 36.475L28.8907 37.3227C28.5152 37.5808 28.0526 37.6795 27.6045 37.597C27.1563 37.5146 26.7591 37.2577 26.5001 36.8828C26.4303 36.7827 26.3929 36.6635 26.3931 36.5414C26.3929 36.4434 26.4167 36.3469 26.4623 36.2602C26.5079 36.1734 26.574 36.0992 26.6548 36.0437L27.1032 35.7352L28.8993 34.5Z" fill="#FA7A48"/>
<path d="M28.0171 20.7562V20.757L26.1765 24.743L25.1367 24.8102L23.7625 24.5164L25.9406 19.8008C26.5652 20.2493 27.2702 20.5736 28.0171 20.7562Z" fill="#FFBCA0"/>
<path d="M23.2282 24.4024L21.7579 31.257L21.7243 31.25C21.4454 31.1906 20.0876 31.2578 19.4321 30.1508C19.9141 28.7757 20.0752 27.3086 19.9032 25.8617C20.1368 24.9531 21.1642 24.3274 22.3751 24.3133C22.6505 24.3098 22.9254 24.3373 23.1946 24.3953L23.2282 24.4024Z" fill="#FA7A48"/>
<path d="M25.1367 24.8102L24.5773 27.4203L24.2047 29.1563L23.6664 31.6656L21.7578 31.257L23.2281 24.4023L23.7625 24.5164L25.1367 24.8102Z" fill="#FFB698"/>
<path d="M35.3821 35.1812C35.4117 35.223 35.4307 35.2712 35.4376 35.3219C35.4444 35.3726 35.4389 35.4241 35.4214 35.4722C35.404 35.5203 35.3752 35.5634 35.3375 35.5979C35.2997 35.6324 35.2542 35.6572 35.2048 35.6703L33.1681 36.2187C32.699 36.3453 32.1992 36.2869 31.772 36.0555L30.8024 35.5305L28.8993 34.5L24.6696 32.2094V32.2086L23.6665 31.6656L24.2048 29.1562L33.0704 32.3703C33.3576 32.4758 33.6063 32.6656 33.7837 32.9148L35.3821 35.1812Z" fill="#FFA27D"/>
<path d="M37.0116 30.5383C37.051 30.5736 37.0809 30.6181 37.0986 30.6679C37.1164 30.7177 37.1214 30.7712 37.1133 30.8234C37.1051 30.8756 37.084 30.925 37.052 30.967C37.0199 31.0091 36.9778 31.0424 36.9296 31.064L33.414 32.5492C33.3077 32.4748 33.1921 32.4146 33.0702 32.3703L24.2046 29.1562L24.5772 27.4203L33.9569 28.1093C34.1303 28.1218 34.3045 28.1041 34.4718 28.057L37.0116 30.5383Z" fill="#FF8A5C"/>
<path d="M37.3024 25.818C37.3438 25.8487 37.3771 25.889 37.3995 25.9355C37.4218 25.9819 37.4325 26.0331 37.4307 26.0847C37.4288 26.1362 37.4145 26.1865 37.3889 26.2312C37.3633 26.2759 37.3271 26.3138 37.2836 26.3414L34.8727 27.8782C34.7487 27.9573 34.6136 28.0176 34.4719 28.0571C34.3046 28.1042 34.1304 28.1219 33.9571 28.1094L24.5774 27.4203L25.1368 24.8102L26.1766 24.743L34.361 24.2149C34.8149 24.1805 35.2661 24.3106 35.6321 24.5813L37.3024 25.818Z" fill="#FFA27D"/>
<path d="M7.48052 29.9203L3.65786 33.7359C2.13709 32.2235 1.17376 30.2404 0.925049 28.1101C2.08103 27.82 3.29244 27.8343 4.44127 28.1515C5.59011 28.4687 6.63719 29.0781 7.48052 29.9203Z" fill="#FF9267"/>
<path d="M7.48037 29.9203C8.32347 30.7604 8.93385 31.8051 9.25172 32.9521C9.56959 34.0991 9.58404 35.309 9.29365 36.4633C7.16114 36.2159 5.17492 35.2548 3.65771 33.7359L7.48037 29.9203Z" fill="#FA7A48"/>
<path d="M10.4148 26.9915L17.1711 33.736C16.1497 34.7565 14.9102 35.5322 13.5457 36.0046C12.1813 36.477 10.7275 36.6338 9.29375 36.4633C9.58414 35.3091 9.56969 34.0992 9.25182 32.9522C8.93395 31.8052 8.32356 30.7605 7.48047 29.9204L10.4148 26.9915Z" fill="#FF9267"/>
<path d="M10.4148 26.9914L7.48042 29.9203C6.63709 29.0781 5.59 28.4687 4.44117 28.1515C3.29234 27.8343 2.08093 27.82 0.924947 28.1101C0.754666 26.678 0.9122 25.2259 1.38564 23.8637C1.85908 22.5014 2.63603 21.2646 3.65776 20.2468L10.4148 26.9914Z" fill="#FCB185"/>
<path d="M19.9031 25.8618C20.0749 27.2955 19.9182 28.7496 19.4449 30.1139C18.9716 31.4781 18.194 32.7168 17.171 33.736L10.4148 26.9915L13.3617 24.05C14.2033 24.8902 15.2477 25.4986 16.3937 25.8163C17.5396 26.134 18.7482 26.1502 19.9023 25.8633C19.9023 25.8625 19.9023 25.8625 19.9031 25.8618Z" fill="#FFA27D"/>
<path d="M13.3616 24.05L10.4147 26.9914L3.65771 20.2469C4.68007 19.2249 5.92115 18.4484 7.28733 17.976C8.65352 17.5035 10.1091 17.3475 11.5444 17.5196V17.5203C11.2571 18.673 11.2734 19.8804 11.5919 21.0248C11.9104 22.1693 12.5201 23.2116 13.3616 24.05Z" fill="#FF8D60"/>
<path d="M17.171 20.2469L13.3616 24.05C12.5201 23.2115 11.9104 22.1692 11.5919 21.0248C11.2734 19.8804 11.2571 18.6729 11.5444 17.5203V17.5195C13.673 17.771 15.655 18.7317 17.171 20.2469Z" fill="#FF9267"/>
<path d="M19.9032 25.8617C19.9024 25.8625 19.9024 25.8625 19.9024 25.8632C18.7484 26.1501 17.5398 26.1339 16.3938 25.8162C15.2478 25.4985 14.2034 24.8901 13.3618 24.05L17.1712 20.2468C18.6888 21.757 19.6515 23.7356 19.9032 25.8617Z" fill="#FA7A48"/>
<path d="M3.25521 27.9352C2.47418 27.8614 1.6863 27.9206 0.925049 28.1101C1.17376 30.2404 2.13709 32.2235 3.65786 33.7359L4.93278 32.4633C4.02634 31.1728 3.45603 29.6766 3.27349 28.1101C3.26646 28.0519 3.26099 27.9935 3.25521 27.9352Z" fill="#FF9267"/>
<path d="M11.5507 17.532C11.5517 17.5281 11.5625 17.5242 11.5625 17.5203V17.5195C10.1258 17.347 8.66866 17.5028 7.30095 17.9752C5.93324 18.4476 4.69062 19.2244 3.66675 20.2469L4.94073 21.523C5.26199 21.0673 5.62217 20.6403 6.01722 20.2469C7.51011 18.754 9.45644 17.7991 11.5507 17.532Z" fill="#FA7A48"/>
<path d="M4.93264 32.4633L3.65771 33.7359C5.17492 35.2548 7.16114 36.2159 9.29365 36.4633C9.33834 36.2848 9.3749 36.1048 9.40506 35.9242C7.60004 35.2467 6.04135 34.0405 4.93264 32.4633V32.4633Z" fill="#FA7A48"/>
<path d="M4.9362 21.5229L3.65776 20.2468C2.63603 21.2646 1.85908 22.5014 1.38564 23.8637C0.9122 25.2259 0.754666 26.678 0.924947 28.1101C1.6862 27.9206 2.47408 27.8614 3.2551 27.9352C3.02899 25.6654 3.62556 23.3898 4.9362 21.5229Z" fill="#FA7A48"/>
<path d="M37.0738 11.6805L37.4744 10.8099L35.6843 9.98626L36.4244 8.38353L36.9466 8.62376L37.3472 7.75314L36.8261 7.51345L37.0728 6.97908L36.4453 6.01564L35.9555 7.11283L33.9949 6.21095L34.7228 4.63447L33.8528 4.23267L33.1242 5.81017L31.164 4.90814L31.581 3.97205H30.5403L30.293 4.50783L29.7734 4.26876L29.3728 5.13939L29.8913 5.37791L29.1512 6.98048L27.3621 6.15728L26.9616 7.02798L28.7495 7.85056L28.0094 9.45314L25.8263 8.44876L25.4257 9.31947L27.6076 10.3233L26.8675 11.926L24.9843 11.0595L24.5837 11.9302L26.4665 12.7963L25.7264 14.3991L24.9069 14.022L24.5063 14.8927L25.3246 15.2692L24.8879 16.2151L25.758 16.6168L26.1955 15.6698L28.1564 16.5718L27.2385 18.5599L28.1085 18.9616L29.0271 16.9724L30.9876 17.8744L30.5501 18.8221L31.4203 19.2238L31.8584 18.275L32.68 18.653L33.0806 17.7824L32.2603 17.4049L33.0003 15.8021L34.9066 16.6793L35.3072 15.8087L33.4018 14.932L34.1406 13.3292L36.3235 14.3336L36.7242 13.463L34.5423 12.4592L35.2824 10.8563L37.0738 11.6805ZM35.5537 7.98291L34.8136 9.58595L32.8527 8.68392L33.5928 7.08119L35.5537 7.98291ZM30.7619 5.7783L32.7228 6.68033L31.9828 8.28306L30.0219 7.38103L30.7619 5.7783ZM29.6201 8.25119L31.581 9.15322L30.841 10.756L28.8801 9.85392L29.6201 8.25119ZM28.4782 10.724L30.4392 11.626L29.6991 13.2288L27.7382 12.3268L28.4782 10.724ZM26.5963 14.7996L27.3364 13.1969L29.2968 14.0989L28.5568 15.7017L26.5963 14.7996ZM31.3881 17.0043L29.4272 16.1023L30.1673 14.4995L32.1282 15.4015L31.3881 17.0043ZM32.53 14.5313L30.5691 13.6292L31.3092 12.0265L33.2701 12.9285L32.53 14.5313ZM33.6718 12.0585L31.7109 11.1565L32.451 9.55376L34.4119 10.4558L33.6718 12.0585Z" fill="#FFCCB3"/>
<path d="M8.06516 7.39199C7.98785 7.3921 7.91171 7.37307 7.84355 7.33659C7.77539 7.30011 7.71732 7.24732 7.67453 7.18293L7.58531 7.04887C7.55013 6.99765 7.52548 6.93996 7.5128 6.87913C7.50012 6.81831 7.49965 6.75557 7.51143 6.69456C7.52321 6.63356 7.54701 6.5755 7.58143 6.52378C7.61585 6.47205 7.6602 6.42768 7.71193 6.39325C7.76365 6.35882 7.8217 6.33501 7.8827 6.32322C7.9437 6.31143 8.00644 6.31188 8.06727 6.32455C8.12809 6.33722 8.1858 6.36185 8.23702 6.39702C8.28824 6.43219 8.33195 6.4772 8.36563 6.52941L8.45492 6.66348C8.50191 6.73405 8.52887 6.81604 8.53294 6.90073C8.53701 6.98541 8.51804 7.06962 8.47805 7.14437C8.43805 7.21913 8.37853 7.28164 8.30582 7.32524C8.23311 7.36885 8.14994 7.39191 8.06516 7.39199Z" fill="#F4F8FC"/>
<path d="M12.1981 13.6009C12.1208 13.601 12.0446 13.582 11.9765 13.5455C11.9083 13.509 11.8503 13.4562 11.8075 13.3919L8.46637 8.37279C8.3991 8.26931 8.37535 8.14347 8.4003 8.02258C8.42524 7.9017 8.49685 7.79554 8.5996 7.72713C8.70234 7.65873 8.82791 7.63361 8.94906 7.65722C9.07021 7.68083 9.17715 7.75128 9.24668 7.85326L12.5878 12.8724C12.6348 12.943 12.6617 13.025 12.6658 13.1096C12.6699 13.1943 12.6509 13.2785 12.6109 13.3533C12.5709 13.428 12.5114 13.4905 12.4387 13.5341C12.366 13.5777 12.2829 13.6008 12.1981 13.6009Z" fill="#F4F8FC"/>
<path d="M37.2141 11.0969C37.3574 10.1009 37.3155 9.08704 37.0907 8.10626C36.9782 7.62892 36.8115 7.16601 36.5938 6.72658C36.0852 5.70939 35.3094 4.90079 34.2953 4.43361C34.2946 4.43361 34.2946 4.43283 34.2938 4.43283C33.2789 3.96642 32.1586 3.90314 31.0539 4.17892C30.5786 4.29905 30.1186 4.47309 29.6828 4.69767H29.6821C28.7894 5.16368 27.9902 5.79 27.3243 6.54533C26.723 7.22024 26.218 7.97504 25.8235 8.78829C25.7907 8.85392 25.7594 8.92111 25.7282 8.9883C25.381 9.73684 25.1286 10.5257 24.9766 11.3367C24.7922 12.2939 24.7737 13.2756 24.9219 14.2391C25.0246 14.9044 25.2277 15.5503 25.5243 16.1547C26.0328 17.1719 26.8086 17.9805 27.8227 18.4477C27.8235 18.4477 27.8235 18.4485 27.8243 18.4485C28.8375 18.9149 29.9571 18.9789 31.0625 18.7047V18.7039C31.7164 18.5374 32.341 18.2721 32.9149 17.9172H32.9157C33.7467 17.4027 34.4834 16.7494 35.0938 15.986C35.6112 15.3451 36.0468 14.6423 36.3907 13.8938C36.4219 13.8266 36.4516 13.7594 36.4805 13.6922C36.8438 12.8651 37.0906 11.9917 37.2141 11.0969ZM35.186 2.5047C39.0227 4.26955 40.2852 9.70158 38.0063 14.6375C35.9368 19.1188 31.6586 21.65 28.0172 20.757V20.7563C27.2702 20.5737 26.5653 20.2493 25.9407 19.8008C22.8938 17.618 22.043 12.7266 24.1125 8.24533C26.3914 3.30939 31.3493 0.739858 35.186 2.5047Z" fill="#FA7A48"/>
</svg>
