<svg width="40" height="40" viewBox="0 0 40 40" fill="none" xmlns="http://www.w3.org/2000/svg">
<path d="M29.6433 7.08704C34.4735 21.1542 34.4796 20.5059 34.3619 21.2917C33.5843 26.4814 21.5167 26.4814 20.7388 21.2918C20.6905 20.9696 20.7396 20.6402 20.8467 20.3326L25.4574 7.08704L29.6433 7.08704Z" fill="#FFCAB4"/>
<path d="M34.3614 21.291C33.7422 25.4332 25.9375 26.2691 22.4113 23.8017C22.0491 23.5509 21.7333 23.263 21.4763 22.941C24.9314 23.1732 28.6588 21.8853 29.0798 19.0774C29.1976 18.26 29.0355 18.4902 25.2967 7.55452L25.4576 7.08704H29.6432C34.4748 21.1553 34.4808 20.5132 34.3614 21.291Z" fill="#FF8761"/>
<path d="M31.7207 20.1826C31.2283 23.4673 26.2223 24.6716 22.4113 23.8017C22.0491 23.5509 21.7333 23.263 21.4763 22.941C24.9314 23.1732 28.6588 21.8853 29.0798 19.0774C29.1976 18.26 29.0355 18.4902 25.2967 7.55452L25.4576 7.08704H27.3895C31.802 19.9538 31.8392 19.4105 31.7207 20.1826Z" fill="#FFBCA0"/>
<path d="M34.3613 21.291C33.5842 26.4827 21.5165 26.4827 20.7395 21.291C20.6899 20.969 20.7395 20.6408 20.8479 20.3312L20.9903 19.9257C22.7766 23.9689 32.3242 23.9689 34.1106 19.9257C34.1771 20.1569 34.4549 20.6817 34.3613 21.291Z" fill="#FFAD8A"/>
<path d="M27.5503 9.98953C29.8843 9.98953 31.7764 8.09744 31.7764 5.76344C31.7764 3.42944 29.8843 1.53735 27.5503 1.53735C25.2163 1.53735 23.3242 3.42944 23.3242 5.76344C23.3242 8.09744 25.2163 9.98953 27.5503 9.98953Z" fill="#FFCAB4"/>
<path d="M31.7761 5.76453C31.7761 8.09771 29.8865 9.99052 27.5502 9.99052C26.5914 9.99052 25.7074 9.6688 24.9984 9.13158C24.761 8.95352 24.5455 8.75053 24.355 8.52566C24.4143 8.53191 24.4706 8.53191 24.5299 8.53191C28.1993 8.53191 30.0521 4.21849 27.7282 1.5448C29.9277 1.6136 31.7761 3.45291 31.7761 5.76453Z" fill="#FF9776"/>
<path d="M30.2675 5.03366C30.2675 7.36997 28.3748 9.25965 26.0416 9.25965C25.6824 9.25965 25.3326 9.21592 24.9984 9.13158C24.761 8.95352 24.5455 8.75053 24.355 8.52566C24.4143 8.53191 24.4706 8.53191 24.5299 8.53191C28.1993 8.53191 30.0521 4.21849 27.7282 1.5448C28.028 1.55418 28.3186 1.59791 28.5966 1.66662C29.6117 2.43813 30.2675 3.65936 30.2675 5.03366Z" fill="#FFBCA0"/>
<path d="M14.532 11.8661L19.1426 25.1117C19.2497 25.4193 19.2988 25.7486 19.2506 26.0708C18.473 31.2605 6.40538 31.2605 5.6275 26.0708C5.5792 25.7486 5.62831 25.4193 5.73541 25.1116L10.3461 11.8661H14.532Z" fill="#FDAD8C"/>
<path d="M19.2501 26.07C18.6309 30.2122 10.8262 31.0482 7.29995 28.5807C6.93776 28.33 6.62197 28.042 6.36499 27.7201C9.82003 27.9523 13.5475 26.6644 13.9685 23.8564C14.0149 23.5345 13.9685 23.2032 13.8601 22.8967L10.1854 12.3336L10.3462 11.8661H14.5319L19.1417 25.1103C19.2501 25.4198 19.2995 25.748 19.2501 26.07Z" fill="#FFAD8A"/>
<path d="M16.6093 24.9617C16.117 28.2464 11.111 29.4507 7.29995 28.5807C6.93776 28.33 6.62197 28.042 6.36499 27.7201C9.82004 27.9523 13.5475 26.6644 13.9685 23.8564C14.0149 23.5345 13.9685 23.2032 13.8601 22.8967L10.1854 12.3336L10.3462 11.8661H12.2781L16.501 24.005C16.6093 24.3115 16.6588 24.6397 16.6093 24.9617Z" fill="#FC784E"/>
<path d="M19.25 26.07C18.4729 31.2618 6.40516 31.2618 5.62816 26.07C5.57858 25.748 5.62816 25.4198 5.73655 25.1103L5.87895 24.7047C7.66527 28.7479 17.2129 28.7479 18.9992 24.7047L19.1416 25.1103C19.25 25.4198 19.2994 25.748 19.25 26.07Z" fill="#FF976B"/>
<path d="M12.439 14.7687C14.773 14.7687 16.6651 12.8766 16.6651 10.5426C16.6651 8.20861 14.773 6.31653 12.439 6.31653C10.105 6.31653 8.21289 8.20861 8.21289 10.5426C8.21289 12.8766 10.105 14.7687 12.439 14.7687Z" fill="#FDAD8C"/>
<path d="M16.6648 10.5437C16.6648 14.052 12.6455 16.0007 9.88709 13.9108C9.64963 13.7327 9.43414 13.5297 9.24365 13.3048C9.30298 13.3111 9.35925 13.3111 9.41858 13.3111C13.088 13.3111 14.9408 8.99767 12.6169 6.32397C14.8164 6.39278 16.6648 8.23209 16.6648 10.5437Z" fill="#FFCCB3"/>
<path d="M15.1562 9.81284C15.1562 12.1491 13.2635 14.0388 10.9303 14.0388C10.5711 14.0388 10.2212 13.9951 9.88709 13.9108C9.64963 13.7327 9.43414 13.5297 9.24365 13.3048C9.30298 13.3111 9.35925 13.3111 9.41858 13.3111C13.088 13.3111 14.9408 8.99767 12.6169 6.32397C12.9167 6.33335 13.2072 6.37709 13.4853 6.44579C14.5004 7.2173 15.1562 8.43853 15.1562 9.81284Z" fill="#FC784E"/>
<path d="M29.1631 20.3646L33.7737 33.6102C33.8808 33.9178 33.9299 34.2472 33.8817 34.5693C33.1041 39.759 21.0365 39.759 20.2586 34.5694C20.2103 34.2472 20.2594 33.9178 20.3665 33.6101L24.9772 20.3646H29.1631Z" fill="#FF825B"/>
<path d="M33.8812 34.5685C33.262 38.7108 25.4573 39.5467 21.9311 37.0793C21.5689 36.8285 21.2531 36.5406 20.9961 36.2186C24.4511 36.4508 28.1786 35.1629 28.5996 32.3549C28.646 32.033 28.5996 31.7018 28.4912 31.3953L24.8165 20.8321L24.9773 20.3646H29.163L33.7728 33.6088C33.8812 33.9184 33.9306 34.2466 33.8812 34.5685Z" fill="#FF6F42"/>
<path d="M31.2404 33.4602C30.7481 36.7449 25.7421 37.9492 21.9311 37.0792C21.5689 36.8285 21.2531 36.5406 20.9961 36.2186C24.4511 36.4508 28.1786 35.1629 28.5996 32.3549C28.646 32.033 28.5996 31.7018 28.4912 31.3953L24.8165 20.8321L24.9773 20.3646H26.9092L31.1321 32.5036C31.2404 32.8101 31.2899 33.1382 31.2404 33.4602Z" fill="#FF966A"/>
<path d="M33.8811 34.5685C33.104 39.7603 21.0363 39.7603 20.2593 34.5685C20.2097 34.2466 20.2593 33.9184 20.3677 33.6088L20.5101 33.2032C22.2964 37.2464 31.844 37.2464 33.6303 33.2032L33.7727 33.6088C33.8811 33.9184 33.9306 34.2466 33.8811 34.5685Z" fill="#FF6231"/>
<path d="M27.0703 23.2671C29.4043 23.2671 31.2964 21.375 31.2964 19.041C31.2964 16.707 29.4043 14.8149 27.0703 14.8149C24.7363 14.8149 22.8442 16.707 22.8442 19.041C22.8442 21.375 24.7363 23.2671 27.0703 23.2671Z" fill="#FF825B"/>
<path d="M31.2962 19.0422C31.2962 22.5506 27.2768 24.4993 24.5184 22.4093C24.281 22.2312 24.0655 22.0282 23.875 21.8034C23.9343 21.8096 23.9906 21.8096 24.0499 21.8096C27.7193 21.8096 29.5721 17.4962 27.2482 14.8225C29.4478 14.8913 31.2962 16.7306 31.2962 19.0422Z" fill="#FF6F42"/>
<path d="M29.7875 18.3114C29.7875 21.0668 27.1923 23.0842 24.5184 22.4093C24.281 22.2312 24.0655 22.0282 23.875 21.8034C23.9343 21.8096 23.9906 21.8096 24.0499 21.8096C27.7193 21.8096 29.5721 17.4962 27.2482 14.8225C27.5481 14.8319 27.8386 14.8756 28.1166 14.9443C29.1317 15.7158 29.7875 16.9371 29.7875 18.3114Z" fill="#FF966A"/>
<path d="M28.5083 28.7637C28.3585 28.159 28.1871 27.7074 28.2781 27.6968C28.3688 27.6862 28.6807 28.1807 28.8305 28.7854C28.9805 29.3905 28.9115 29.8765 28.8208 29.8871C28.7297 29.8977 28.6582 29.3689 28.5083 28.7637Z" fill="white"/>
<path d="M28.8717 29.8249C29.0142 29.0163 28.4352 27.8189 28.257 27.801C28.2056 27.4359 28.6509 28.0623 28.8303 28.7849C28.9501 29.2687 28.9308 29.6759 28.8717 29.8249Z" fill="#DCE0F4"/>
<path d="M27.8516 26.5817C27.8889 26.5646 28.0221 26.6733 28.0894 26.8416C28.1567 27.01 28.1324 27.1742 28.0951 27.1914C28.0189 27.2264 27.7625 26.6226 27.8516 26.5817Z" fill="white"/>
<path d="M28.1182 27.1495C28.1484 26.8803 27.9047 26.6104 27.8417 26.6401C27.8388 26.6405 27.835 26.6434 27.8332 26.6482C27.8102 26.412 28.2175 26.8419 28.1182 27.1495Z" fill="#DCE0F4"/>
<path d="M13.6279 19.3392C13.4781 18.7345 13.3067 18.2829 13.3977 18.2723C13.4885 18.2617 13.8003 18.7561 13.9502 19.3609C14.1001 19.966 14.0311 20.4519 13.9404 20.4625C13.8494 20.4731 13.7778 19.9443 13.6279 19.3392Z" fill="white"/>
<path d="M13.9914 20.4004C14.1338 19.5917 13.5548 18.3944 13.3767 18.3765C13.3252 18.0113 13.7705 18.6377 13.9499 19.3604C14.0698 19.8442 14.0504 20.2514 13.9914 20.4004Z" fill="#DCE0F4"/>
<path d="M12.9712 17.1572C13.0086 17.14 13.1418 17.2487 13.209 17.4171C13.2763 17.5855 13.2521 17.7496 13.2147 17.7668C13.1385 17.8018 12.8821 17.1981 12.9712 17.1572Z" fill="white"/>
<path d="M13.2378 17.725C13.268 17.4558 13.0244 17.1858 12.9614 17.2155C12.9584 17.216 12.9546 17.2188 12.9528 17.2236C12.9298 16.9874 13.3372 17.4173 13.2378 17.725Z" fill="#DCE0F4"/>
<path d="M28.061 12.9611C27.9112 12.3564 27.7398 11.9048 27.8308 11.8942C27.9216 11.8836 28.2335 12.3781 28.3833 12.9828C28.5332 13.5879 28.4642 14.0739 28.3735 14.0845C28.2825 14.0951 28.211 13.5662 28.061 12.9611Z" fill="white"/>
<path d="M28.4247 14.0223C28.4588 13.8292 28.4544 13.4833 28.3561 13.0863C28.2092 12.4952 27.9082 12.0082 27.81 11.9984C27.801 11.9341 27.8063 11.897 27.8311 11.8937C27.9217 11.8841 28.2332 12.3779 28.3833 12.9823C28.5031 13.4661 28.4838 13.8733 28.4247 14.0223Z" fill="#DCE0F4"/>
<path d="M27.4561 11.0923C27.3888 10.9239 27.367 10.7964 27.4045 10.7791C27.4418 10.7619 27.5751 10.8707 27.6423 11.039C27.7096 11.2074 27.6854 11.3716 27.648 11.3887C27.6105 11.406 27.5234 11.2607 27.4561 11.0923Z" fill="white"/>
<path d="M27.6711 11.3467C27.6783 11.2827 27.6685 11.1899 27.6313 11.0972C27.5644 10.9285 27.4312 10.82 27.3946 10.8372C27.3917 10.8377 27.3879 10.8406 27.3861 10.8454C27.3827 10.81 27.3895 10.7842 27.405 10.7794C27.4416 10.7622 27.5747 10.8706 27.6417 11.0393C27.6911 11.166 27.6903 11.2874 27.6711 11.3467Z" fill="#DCE0F4"/>
<path d="M26.5364 17.8767C26.0231 17.8767 25.6078 18.292 25.6078 18.8053C25.6078 18.5491 25.5035 18.3163 25.3363 18.1482C25.1682 17.981 24.9354 17.8767 24.6792 17.8767C24.9354 17.8767 25.1682 17.7724 25.3363 17.6052C25.5035 17.4371 25.6078 17.2043 25.6078 16.9481C25.6078 17.2043 25.7121 17.4371 25.8793 17.6052C26.0474 17.7724 26.2802 17.8767 26.5364 17.8767Z" fill="white"/>
</svg>
