<svg width="40" height="40" viewBox="0 0 40 40" fill="none" xmlns="http://www.w3.org/2000/svg">
<path d="M15.8334 30L7.23419 33.5825C6.71919 33.7975 6.20253 33.28 6.41669 32.765L10 24.1667L3.48336 20.5467C3.05503 20.3084 3.05503 19.6925 3.48336 19.4542L10 15.8334L6.41753 7.23419C6.20253 6.71919 6.71919 6.20253 7.23419 6.41753L15.8334 10L19.4534 3.48336C19.6917 3.05503 20.3075 3.05503 20.5459 3.48336L24.1667 10L32.7659 6.41753C33.2809 6.20253 33.7975 6.72003 33.5834 7.23503L30 15.8334L36.5167 19.4534C36.945 19.6917 36.945 20.3075 36.5167 20.5459L30 24.1667L33.5825 32.7659C33.7975 33.2809 33.28 33.7975 32.765 33.5834L24.1667 30L20.5467 36.5167C20.3084 36.945 19.6925 36.945 19.4542 36.5167L15.8334 30Z" fill="#FFAD8A"/>
<path d="M32.7659 6.41753L24.1667 10L20.5467 3.48336C20.3084 3.05503 19.6925 3.05503 19.4542 3.48336L15.8334 10L7.23419 6.41753C6.71919 6.20253 6.20253 6.71919 6.41753 7.23419L10 15.8334L3.48336 19.4534C3.05503 19.6917 3.05503 20.3084 3.48336 20.5459L10 24.1667L6.41753 32.7659C6.31003 33.0234 6.38586 33.2817 6.55253 33.4484L33.4484 6.55253C33.2809 6.38503 33.0234 6.31003 32.7659 6.41753Z" fill="#FF946A"/>
<path d="M11.6667 20.8333L27.9676 4.53246C28.2017 4.29829 28.5192 4.16663 28.8509 4.16663H35.0001C35.4601 4.16663 35.8334 4.53996 35.8334 4.99996V11.1491C35.8334 11.4808 35.7017 11.7983 35.4676 12.0333L19.1667 28.3333L11.6667 20.8333Z" fill="#FF9062"/>
<path d="M35.0001 4.16663H28.8509C28.5192 4.16663 28.2017 4.29829 27.9667 4.53246L11.6667 20.8333L15.4167 24.5833L35.5892 4.41079C35.4384 4.25996 35.2301 4.16663 35.0001 4.16663Z" fill="#FFB89A"/>
<path d="M17.9168 27.0834L8.9226 36.0775C8.59676 36.4034 8.06926 36.4034 7.74426 36.0775L3.9226 32.2559C3.59676 31.93 3.59676 31.4025 3.9226 31.0775L12.9168 22.0834L17.9168 27.0834Z" fill="#FF804A"/>
<path d="M15.4168 24.5834L12.9168 22.0834L3.9226 31.0775C3.59676 31.4034 3.59676 31.9309 3.9226 32.2559L5.83343 34.1667L15.4168 24.5834Z" fill="#FF9A70"/>
<path d="M21.9109 28.5776L11.4226 18.0892C11.0968 17.7634 10.5693 17.7634 10.2443 18.0892L8.9226 19.4109C8.59676 19.7367 8.59676 20.2642 8.9226 20.5892L19.4109 31.0776C19.7368 31.4034 20.2643 31.4034 20.5893 31.0776L21.9109 29.7559C22.2359 29.4309 22.2359 28.9026 21.9109 28.5776Z" fill="#FF7F49"/>
<path d="M16.6668 23.3334L11.4226 18.0892C11.0968 17.7634 10.5693 17.7634 10.2443 18.0892L8.9226 19.4109C8.59676 19.7367 8.59676 20.2642 8.9226 20.5892L14.1668 25.8334L16.6668 23.3334Z" fill="#FFA17C"/>
</svg>
