<svg width="40" height="40" viewBox="0 0 40 40" fill="none" xmlns="http://www.w3.org/2000/svg">
<path d="M29.9521 23.4331L21.3157 6.16039C21.2699 6.06878 21.1945 5.99532 21.1018 5.95191C21.009 5.9085 20.9043 5.89769 20.8047 5.92122C20.705 5.94475 20.6162 6.00126 20.5526 6.08157C20.4891 6.16188 20.4545 6.2613 20.4546 6.36371V21.0955C20.4546 21.1835 20.4801 21.2696 20.5281 21.3433C20.5761 21.4171 20.6444 21.4753 20.7249 21.511C21.1082 21.6776 21.4223 21.9712 21.6145 22.3423C21.8067 22.7134 21.8652 23.1394 21.7801 23.5486C21.695 23.9578 21.4716 24.3252 21.1473 24.5889C20.8231 24.8526 20.4179 24.9966 20 24.9966C19.5821 24.9966 19.1769 24.8526 18.8527 24.5889C18.5285 24.3252 18.305 23.9578 18.2199 23.5486C18.1348 23.1394 18.1933 22.7134 18.3855 22.3423C18.5777 21.9712 18.8919 21.6776 19.2751 21.511C19.3556 21.4753 19.4239 21.4171 19.4719 21.3433C19.5199 21.2696 19.5454 21.1835 19.5455 21.0955V6.36371C19.5455 6.2613 19.5109 6.16188 19.4474 6.08157C19.3838 6.00126 19.295 5.94475 19.1954 5.92122C19.0957 5.89769 18.991 5.9085 18.8982 5.95191C18.8055 5.99532 18.7301 6.06878 18.6843 6.16039L10.048 23.4331C10.0164 23.4963 10 23.5659 10 23.6364C10 23.707 10.0164 23.7766 10.048 23.8398L14.1389 32.0216C14.1766 32.0971 14.2347 32.1606 14.3065 32.2049C14.3783 32.2493 14.461 32.2728 14.5455 32.2728H25.4546C25.539 32.2728 25.6217 32.2493 25.6935 32.2049C25.7654 32.1606 25.8234 32.0971 25.8611 32.0216L29.9521 23.8398C29.9836 23.7766 30 23.707 30 23.6364C30 23.5659 29.9836 23.4963 29.9521 23.4331Z" fill="#FA7A48"/>
<path d="M25.1714 2.72733H33.1819C33.3025 2.72733 33.4181 2.67944 33.5033 2.59419C33.5886 2.50895 33.6365 2.39334 33.6365 2.27278C33.6365 2.15223 33.5886 2.03661 33.5033 1.95137C33.4181 1.86613 33.3025 1.81824 33.1819 1.81824H21.3637C21.2432 1.81824 21.1276 1.86613 21.0423 1.95137C20.9571 2.03661 20.9092 2.15223 20.9092 2.27278C20.9092 2.27878 20.9124 2.28378 20.9126 2.28974L20.9112 2.29456C20.9056 2.35399 20.9119 2.41393 20.9295 2.47096C20.9471 2.52799 20.9758 2.58098 21.014 2.62691C21.0521 2.67283 21.0989 2.71078 21.1517 2.7386C21.2045 2.76641 21.2623 2.78355 21.3218 2.78901C24.821 3.10192 28.0752 4.71737 30.44 7.31552C32.8048 9.91367 34.1078 13.3051 34.091 16.8182C34.091 16.9388 34.1389 17.0544 34.2241 17.1397C34.3094 17.2249 34.425 17.2728 34.5455 17.2728C34.6661 17.2728 34.7817 17.2249 34.867 17.1397C34.9522 17.0544 35.0001 16.9388 35.0001 16.8182C35.014 13.7429 34.0772 10.7383 32.3177 8.21591C30.5583 5.6935 28.0623 3.7765 25.1714 2.72733Z" fill="#FA7A48"/>
<path d="M18.6365 1.81824H6.81834C6.69778 1.81824 6.58217 1.86613 6.49692 1.95137C6.41168 2.03661 6.36379 2.15223 6.36379 2.27278C6.36379 2.39334 6.41168 2.50895 6.49692 2.59419C6.58217 2.67944 6.69778 2.72733 6.81834 2.72733H14.8289C11.938 3.7765 9.44195 5.6935 7.68251 8.21591C5.92307 10.7383 4.9862 13.7429 5.00015 16.8182C5.00015 16.9388 5.04804 17.0544 5.13329 17.1397C5.21853 17.2249 5.33415 17.2728 5.4547 17.2728C5.57525 17.2728 5.69087 17.2249 5.77611 17.1397C5.86135 17.0544 5.90924 16.9388 5.90924 16.8182C5.89245 13.3051 7.19544 9.91367 9.56024 7.31552C11.925 4.71737 15.1792 3.10192 18.6785 2.78901C18.7379 2.78355 18.7957 2.76641 18.8485 2.7386C18.9013 2.71078 18.9481 2.67283 18.9863 2.62691C19.0244 2.58098 19.0531 2.52799 19.0708 2.47096C19.0884 2.41393 19.0946 2.35399 19.0891 2.29456L19.0876 2.28978C19.0878 2.28378 19.0911 2.27878 19.0911 2.27278C19.0911 2.15223 19.0432 2.03661 18.9579 1.95137C18.8727 1.86613 18.7571 1.81824 18.6365 1.81824Z" fill="#FA7A48"/>
<path d="M26.3637 34.0909H13.6364C13.3854 34.0909 13.1819 34.2944 13.1819 34.5455V39.0909C13.1819 39.342 13.3854 39.5455 13.6364 39.5455H26.3637C26.6147 39.5455 26.8182 39.342 26.8182 39.0909V34.5455C26.8182 34.2944 26.6147 34.0909 26.3637 34.0909Z" fill="#FA7A48"/>
<path d="M27.7274 31.3636H12.2729C12.0219 31.3636 11.8184 31.5672 11.8184 31.8182V34.5455C11.8184 34.7965 12.0219 35 12.2729 35H27.7274C27.9785 35 28.182 34.7965 28.182 34.5455V31.8182C28.182 31.5672 27.9785 31.3636 27.7274 31.3636Z" fill="#FDAD8C"/>
<path d="M21.3637 0.45459H18.6364C18.3854 0.45459 18.1819 0.658097 18.1819 0.909135V3.63641C18.1819 3.88745 18.3854 4.09095 18.6364 4.09095H21.3637C21.6147 4.09095 21.8182 3.88745 21.8182 3.63641V0.909135C21.8182 0.658097 21.6147 0.45459 21.3637 0.45459Z" fill="#FDAD8C"/>
<path d="M6.81829 16.3636H4.09102C3.83998 16.3636 3.63647 16.5672 3.63647 16.8182V19.5455C3.63647 19.7965 3.83998 20 4.09102 20H6.81829C7.06933 20 7.27284 19.7965 7.27284 19.5455V16.8182C7.27284 16.5672 7.06933 16.3636 6.81829 16.3636Z" fill="#FDAD8C"/>
<path d="M35.9091 16.3636H33.1818C32.9308 16.3636 32.7273 16.5672 32.7273 16.8182V19.5455C32.7273 19.7965 32.9308 20 33.1818 20H35.9091C36.1602 20 36.3637 19.7965 36.3637 19.5455V16.8182C36.3637 16.5672 36.1602 16.3636 35.9091 16.3636Z" fill="#FDAD8C"/>
<path d="M34.5455 4.09095C35.5496 4.09095 36.3637 3.27693 36.3637 2.27277C36.3637 1.26862 35.5496 0.45459 34.5455 0.45459C33.5413 0.45459 32.7273 1.26862 32.7273 2.27277C32.7273 3.27693 33.5413 4.09095 34.5455 4.09095Z" fill="#FDAD8C"/>
<path d="M5.45466 4.09095C6.45881 4.09095 7.27284 3.27693 7.27284 2.27277C7.27284 1.26862 6.45881 0.45459 5.45466 0.45459C4.4505 0.45459 3.63647 1.26862 3.63647 2.27277C3.63647 3.27693 4.4505 4.09095 5.45466 4.09095Z" fill="#FDAD8C"/>
</svg>
