<svg width="40" height="40" viewBox="0 0 40 40" fill="none" xmlns="http://www.w3.org/2000/svg">
<g clip-path="url(#clip0_1_1856)">
<path d="M39.8792 20.1207C39.8792 31.03 31.0518 40 19.9999 40C8.9767 40 0.120605 31.057 0.120605 20.1207C0.120605 9.14157 9.02084 0.241333 19.9999 0.241333C30.9994 0.241333 39.8792 9.1604 39.8792 20.1207Z" fill="#FDAD8C"/>
<path d="M24.7997 2.5116V10.6175C24.7997 10.8547 24.6713 11.0642 24.4799 11.1771C24.3825 11.2351 24.2697 11.2687 24.1486 11.2687C23.7902 11.2687 23.4973 10.9758 23.4973 10.6175V2.5116C23.4973 2.15324 23.7902 1.86035 24.1486 1.86035C24.2697 1.86035 24.3825 1.89387 24.4799 1.95199C24.5265 1.9798 24.5699 2.01332 24.6083 2.05184C24.7269 2.16957 24.7997 2.33238 24.7997 2.5116Z" fill="#EBE1DC"/>
<path d="M28.7529 2.5116V10.6175C28.7529 10.8547 28.6244 11.0642 28.433 11.1771C28.3357 11.2351 28.2228 11.2687 28.1017 11.2687C27.7433 11.2687 27.4504 10.9758 27.4504 10.6175V2.5116C27.4504 2.15324 27.7433 1.86035 28.1017 1.86035C28.2228 1.86035 28.3357 1.89387 28.433 1.95199C28.4797 1.9798 28.523 2.01332 28.5615 2.05184C28.68 2.16957 28.7529 2.33238 28.7529 2.5116Z" fill="#EBE1DC"/>
<path d="M24.7999 2.51164V10.6175C24.7999 10.8548 24.6715 11.0642 24.4801 11.1771C24.2887 11.0642 24.1602 10.8548 24.1602 10.6175V2.51164C24.1602 2.27437 24.2886 2.06492 24.4801 1.95203C24.5267 1.97984 24.5701 2.01335 24.6085 2.05187C24.7271 2.1696 24.7999 2.33242 24.7999 2.51164Z" fill="#FFF5F5"/>
<path d="M28.753 2.51164V10.6175C28.753 10.8548 28.6246 11.0642 28.4332 11.1771C28.2418 11.0642 28.1133 10.8548 28.1133 10.6175V2.51164C28.1133 2.27437 28.2417 2.06492 28.4332 1.95203C28.4798 1.97984 28.5232 2.01335 28.5616 2.05187C28.6802 2.1696 28.753 2.33242 28.753 2.51164Z" fill="#FFF5F5"/>
<path d="M36.2362 15.0655V30.8159C36.2362 31.1071 36.2166 31.3934 36.1781 31.6741C34.6303 33.8404 32.657 35.6852 30.3769 37.0826H30.3761C30.2362 37.0924 30.0955 37.0973 29.954 37.0973H22.2956C18.8268 37.0973 16.0142 34.2846 16.0142 30.8158V15.0655C16.0142 11.5967 18.8268 8.78406 22.2956 8.78406H29.954C33.4235 8.78406 36.2362 11.5967 36.2362 15.0655Z" fill="#FA7A48"/>
<path d="M30.5987 1.29836C30.5987 1.65586 30.4523 1.97984 30.2175 2.21547C29.9819 2.45109 29.6571 2.59672 29.3004 2.59672H22.9494C22.236 2.59672 21.6519 2.01258 21.6519 1.29836C21.6519 0.940859 21.7983 0.616875 22.0331 0.38125C22.2679 0.145625 22.5926 0 22.9494 0H29.3004C29.9409 0 30.4776 0.470391 30.5807 1.0832C30.5922 1.15273 30.5987 1.22469 30.5987 1.29836Z" fill="#FA7A48"/>
<path d="M30.5807 1.0832H24.2746C23.6341 1.0832 23.0982 0.612813 22.9951 0H29.3004C29.9409 0 30.4776 0.470391 30.5807 1.0832Z" fill="#FDAD8C"/>
<path d="M32.5564 17.9126V34.8647C32.5564 35.1502 32.4984 35.4218 32.392 35.668C31.8349 36.1131 31.254 36.5287 30.6494 36.9116C30.6011 36.9156 30.5528 36.9173 30.5038 36.9173H22.2956C18.8268 36.9173 16.0142 34.1046 16.0142 30.6358V15.8591H30.5038C31.6369 15.8591 32.5564 16.7787 32.5564 17.9126Z" fill="#FDAD8C"/>
<path d="M21.409 12.0068C21.014 12.0068 20.6909 12.33 20.6909 12.7249V33.1564C20.6909 33.5514 21.014 33.8745 21.409 33.8745C21.8039 33.8745 22.127 33.5514 22.127 33.1564V12.7249C22.127 12.3299 21.8039 12.0068 21.409 12.0068Z" fill="#FA6125"/>
<path d="M26.125 12.0068C25.73 12.0068 25.407 12.33 25.407 12.7249V33.1564C25.407 33.5514 25.7301 33.8745 26.125 33.8745C26.52 33.8745 26.8431 33.5514 26.8431 33.1564V12.7249C26.8431 12.3299 26.52 12.0068 26.125 12.0068Z" fill="#FA6125"/>
<path d="M30.8411 12.0068C30.4461 12.0068 30.123 12.33 30.123 12.7249V33.1564C30.123 33.5514 30.4462 33.8745 30.8411 33.8745C31.236 33.8745 31.5591 33.5514 31.5591 33.1564V12.7249C31.5591 12.3299 31.2361 12.0068 30.8411 12.0068Z" fill="#FA6125"/>
<path d="M18.9333 14.1277H11.1311C10.2949 14.1277 9.61646 14.806 9.61646 15.6417V18.8644H11.2436V16.1187C11.2436 16.0919 11.2454 16.0651 11.2483 16.0395C11.2877 15.7089 11.5681 15.4528 11.9094 15.4528H18.1547C18.496 15.4528 18.7765 15.7089 18.8158 16.0395C18.8188 16.0651 18.8206 16.0919 18.8206 16.1187V18.8644H20.4477V15.6417C20.4477 14.806 19.7694 14.1277 18.9333 14.1277Z" fill="#AA6432"/>
<path d="M9.61646 16.0394H11.2483C11.2454 16.0651 11.2436 16.0919 11.2436 16.1186V18.8644H9.61646V16.0394Z" fill="#B35324"/>
<path d="M20.4478 16.0395V18.8644H18.8207V16.1186C18.8207 16.0919 18.8189 16.0651 18.8159 16.0394L20.4478 16.0395Z" fill="#B35324"/>
<path d="M12.0881 37.1031C12.0881 37.5138 12.0013 37.904 11.8459 38.2574C11.5023 38.1036 11.1652 37.9392 10.8331 37.7657C10.4297 37.5571 10.0345 37.3338 9.64845 37.0973C9.0561 36.7349 8.48431 36.343 7.93532 35.9224C7.63673 35.695 7.34548 35.4585 7.06079 35.2139C7.58681 34.6134 8.35915 34.2346 9.21978 34.2346C10.8036 34.2348 12.0881 35.5192 12.0881 37.1031Z" fill="#FA6125"/>
<path d="M10.9639 37.1031C10.9639 37.3378 10.9173 37.562 10.833 37.7657C10.4297 37.5571 10.0345 37.3338 9.64843 37.0973C9.05608 36.7349 8.48429 36.343 7.9353 35.9224C8.25358 35.5756 8.71171 35.3588 9.21976 35.3588C10.1826 35.3588 10.9639 36.1393 10.9639 37.1031Z" fill="#FDAD8C"/>
<path d="M20.9347 39.9713C22.5188 39.9713 23.803 38.6871 23.803 37.103C23.803 35.5189 22.5188 34.2347 20.9347 34.2347C19.3506 34.2347 18.0664 35.5189 18.0664 37.103C18.0664 38.6871 19.3506 39.9713 20.9347 39.9713Z" fill="#FA6125"/>
<path d="M22.6793 37.103C22.6793 37.7485 22.3292 38.3122 21.8081 38.6141C21.5512 38.763 21.2534 38.8481 20.9352 38.8481C19.9714 38.8481 19.1902 38.0668 19.1902 37.1031C19.1902 36.1394 19.9715 35.3589 20.9352 35.3589C21.2535 35.3589 21.5512 35.444 21.8081 35.592C22.3292 35.8939 22.6793 36.4576 22.6793 37.103Z" fill="#FA7A48"/>
<path d="M29.4598 19.7443V35.2435C29.4598 36.2669 28.6294 37.0973 27.606 37.0973H9.64842C5.1242 34.3321 1.79943 29.8096 0.60498 24.4968V19.7443C0.60498 18.7209 1.43537 17.8905 2.45881 17.8905H27.606C28.6294 17.8904 29.4598 18.7208 29.4598 19.7443Z" fill="#FFCCB3"/>
<path d="M29.4599 19.7444V34.1064H5.87211C5.7682 34.0017 5.66594 33.8961 5.56531 33.7897C4.86422 33.0493 4.21953 32.255 3.63867 31.4131V17.8905H27.6061C28.6295 17.8905 29.4599 18.7209 29.4599 19.7444Z" fill="#FFF7E6"/>
<path d="M27.6128 22.8059L23.1796 24.3783C22.8627 24.4908 22.5148 24.325 22.4024 24.0082L21.461 21.354C21.3486 21.0372 21.5143 20.6893 21.8311 20.5769L26.2643 19.0044C26.5812 18.892 26.9291 19.0578 27.0415 19.3747L27.9829 22.0288C28.0954 22.3456 27.9296 22.6936 27.6128 22.8059Z" fill="#FF7251"/>
<path d="M17.2122 32.053L12.5489 32.6695C12.2156 32.7136 11.9097 32.4791 11.8656 32.1458L11.4965 29.354C11.4525 29.0208 11.6869 28.7148 12.0202 28.6708L16.6835 28.0543C17.0168 28.0102 17.3227 28.2447 17.3668 28.5779L17.7358 31.3697C17.7799 31.703 17.5454 32.0089 17.2122 32.053Z" fill="#FA7A48"/>
<path d="M6.58238 25.5959L1.98605 24.5962C1.65761 24.5248 1.4491 24.2005 1.52066 23.872L2.11917 21.1202C2.19058 20.7918 2.51488 20.5833 2.84339 20.6548L7.43972 21.6546C7.76816 21.726 7.97668 22.0503 7.90511 22.3788L7.3066 25.1306C7.23511 25.459 6.91089 25.6674 6.58238 25.5959Z" fill="#FA7A48"/>
<path d="M7.30198 17.8905V35.4169C7.22097 35.3506 7.14081 35.2827 7.06065 35.214C6.84792 35.0316 6.63855 34.8442 6.43401 34.6527C6.24261 34.4744 6.05526 34.2919 5.87198 34.1062C5.76808 34.0016 5.66581 33.896 5.56519 33.7896V17.8904H7.30198V17.8905Z" fill="#B9783D"/>
<path d="M24.4991 17.8905H22.7622V37.0974H24.4991V17.8905Z" fill="#B9783D"/>
<path d="M7.30205 17.8905V35.4169C7.22104 35.3507 7.14088 35.2828 7.06072 35.214C6.84799 35.0316 6.63861 34.8443 6.43408 34.6528V17.8905H7.30205Z" fill="#D29650"/>
<path d="M24.4987 17.8905H23.6304V37.0974H24.4987V17.8905Z" fill="#D29650"/>
</g>
<defs>
<clipPath id="clip0_1_1856">
<rect width="40" height="40" fill="white"/>
</clipPath>
</defs>
</svg>
