<svg width="40" height="40" viewBox="0 0 40 40" fill="none" xmlns="http://www.w3.org/2000/svg">
<g clip-path="url(#clip0_1_574)">
<path d="M40 2.75008V24.7623C40 26.2784 38.7672 27.5116 37.2516 27.5116H2.74844C1.23281 27.5116 0 26.2784 0 24.7623V2.75008C0 1.23398 1.23281 0 2.74844 0H37.2516C38.7672 0 40 1.23398 40 2.75008Z" fill="#FED1BE"/>
<path d="M40 2.75008V24.7623C40 26.2784 38.7672 27.5116 37.2516 27.5116H34.3235C35.8415 27.5116 37.0719 26.2808 37.0719 24.7623V2.75008C37.0719 1.23086 35.8415 0 34.3235 0H37.2516C38.7672 0 40 1.23398 40 2.75008Z" fill="#FBAF90"/>
<path d="M2.92773 2.93091H37.0721V24.581H2.92773V2.93091Z" fill="#FDAD8C"/>
<path d="M34.7285 2.93091H37.0723V24.581H34.7285V2.93091Z" fill="#FA7A48"/>
<path d="M33.6 38.6684C33.1219 39.2053 32.5437 39.6023 31.8742 39.8187C31.1141 40.0649 30.3125 40.054 29.5156 39.8242C27.7977 39.3295 26.1023 37.8197 24.8977 35.6769C24.4492 35.9254 23.932 36.0669 23.3836 36.0669C22.5062 36.0669 21.7125 35.7051 21.1438 35.1228C20.9922 34.9673 20.8148 34.8438 20.6211 34.7594C20.4266 34.6743 20.2164 34.6282 20 34.6282C19.5672 34.6282 19.1586 34.8126 18.8563 35.1229C18.2875 35.7051 17.4937 36.0669 16.6164 36.0669C16.068 36.0669 15.5508 35.9254 15.1023 35.6769C13.3383 38.8147 10.5227 40.5948 8.12578 39.8188C7.45625 39.6023 6.87812 39.2054 6.4 38.6685C5.37656 37.5189 4.8125 35.727 4.8125 33.6818C4.8125 32.4572 5.01484 31.1411 5.44141 29.8181C6.72891 25.8278 9.63281 23.0903 12.3164 23.1012H27.7C30.3789 23.1012 33.2734 25.8357 34.5586 29.8181C35.6977 33.3511 35.2367 36.8304 33.6 38.6684Z" fill="#EEF6FF"/>
<path d="M33.6 38.6685C33.1219 39.2053 32.5438 39.6024 31.8742 39.8188C31.1141 40.0649 30.3125 40.054 29.5156 39.8242C29.5203 39.8219 29.525 39.8203 29.5297 39.8188C30.1992 39.6023 30.7773 39.2053 31.2555 38.6685C32.8922 36.8304 33.3531 33.3512 32.2141 29.8181C30.9289 25.8356 28.0344 23.1012 25.3555 23.1012H27.7C30.3789 23.1012 33.2734 25.8356 34.5586 29.8181C35.6977 33.3512 35.2367 36.8304 33.6 38.6685Z" fill="#FFC5AD"/>
<path d="M13.6429 27.7251H12.4731V26.5525C12.4731 26.2288 12.2107 25.9664 11.8871 25.9664C11.5635 25.9664 11.3012 26.2288 11.3012 26.5525V27.7251H10.1313C9.80775 27.7251 9.54541 27.9874 9.54541 28.3112C9.54541 28.6349 9.80775 28.8973 10.1313 28.8973H11.3012V30.0699C11.3012 30.3936 11.5635 30.656 11.8871 30.656C12.2107 30.656 12.4731 30.3936 12.4731 30.0699V28.8973H13.6429C13.9665 28.8973 14.2288 28.6349 14.2288 28.3112C14.2288 27.9874 13.9665 27.7251 13.6429 27.7251Z" fill="#FA7A48"/>
<path d="M25.3555 23.1012L23.7469 27.6589C23.6922 27.8152 23.5446 27.9199 23.379 27.9199H16.6055C16.4399 27.9199 16.2922 27.8152 16.2368 27.6589L14.6282 23.1012H25.3555Z" fill="#FFCCB7"/>
<path d="M23.2539 23.1012H25.3554L23.7468 27.6589C23.6921 27.8152 23.5445 27.9199 23.3789 27.9199H21.2781C21.4437 27.9199 21.5914 27.8152 21.646 27.6589L23.2539 23.1012Z" fill="#FA7A48"/>
<path d="M31.3062 18.0715C30.864 18.5819 30.2226 18.8741 29.5476 18.8741C29.4249 18.8741 29.303 18.8647 29.1835 18.8452C28.6468 18.7608 28.1515 18.4889 27.789 18.0715C27.346 17.5604 27.146 16.8829 27.2413 16.2132L27.7077 12.9184C27.7351 12.7261 27.8999 12.5824 28.0944 12.5824H31.0007C31.1952 12.5824 31.3601 12.7262 31.3874 12.9184L31.8546 16.2132C31.9499 16.8829 31.7499 17.5604 31.3062 18.0715Z" fill="#EEF6FF"/>
<path d="M31.8547 16.2131C31.95 16.8828 31.75 17.5603 31.3063 18.0714C30.8641 18.5817 30.2227 18.874 29.5477 18.874C29.425 18.874 29.3031 18.8646 29.1836 18.8451C29.4547 18.7607 29.7031 18.4888 29.8852 18.0714C30.1086 17.5603 30.2094 16.8827 30.1609 16.2131L29.9266 12.9183C29.9125 12.726 29.8297 12.5823 29.732 12.5823H31.0008C31.1953 12.5823 31.3602 12.7261 31.3875 12.9183L31.8547 16.2131Z" fill="#DAE6EF"/>
<path d="M33.6399 13.2294C33.5657 13.3153 33.4579 13.3637 33.3446 13.3637H25.7508C25.6383 13.3637 25.5305 13.3153 25.4563 13.2294C25.3821 13.1442 25.3485 13.0308 25.3641 12.9183L25.7219 10.3988C25.9907 8.50218 27.6352 7.07202 29.5477 7.07202C29.5641 7.07202 29.5813 7.07202 29.5977 7.0728C31.4891 7.09702 33.1079 8.51858 33.3743 10.3988L33.7313 12.9183C33.7477 13.0308 33.7141 13.1441 33.6399 13.2294Z" fill="#F76131"/>
<path d="M33.6398 13.2293C33.5656 13.3153 33.4578 13.3637 33.3445 13.3637H31.6734C31.7367 13.3637 31.7969 13.3153 31.8383 13.2293C31.8797 13.1442 31.8984 13.0308 31.8898 12.9183L31.6898 10.3988C31.5414 8.53182 30.6477 7.1165 29.5977 7.07275C31.4891 7.09697 33.1078 8.51854 33.3742 10.3988L33.7313 12.9183C33.7477 13.0308 33.7141 13.1441 33.6398 13.2293Z" fill="#FA7A48"/>
<path d="M16.5634 16.4849C15.4665 17.9659 13.7204 18.856 11.8829 18.8731C11.8642 18.8739 11.8462 18.8739 11.8282 18.8739C8.57978 18.8739 5.93604 16.2271 5.93604 12.9729C5.93604 9.71956 8.57978 7.0719 11.8282 7.0719C11.8454 7.0719 11.8618 7.0719 11.879 7.07268C13.6462 7.08674 15.2954 7.88385 16.4095 9.26245C16.5353 9.41799 16.5235 9.64307 16.3821 9.78448L13.3626 12.8081L16.5259 15.9762C16.6626 16.113 16.6782 16.3295 16.5634 16.4849Z" fill="#FFC4AB"/>
<path d="M16.5633 16.485C15.4664 17.9659 13.7203 18.856 11.8828 18.8732C13.0344 18.8318 14.9086 17.5126 14.9086 16.2919L12.3953 13.7747C11.8625 13.241 11.8625 12.3759 12.3953 11.8421L14.7352 9.49841C14.7352 8.2949 12.9625 7.10943 11.8789 7.07263C13.6461 7.08669 15.2953 7.8838 16.4094 9.2624C16.5352 9.41794 16.5234 9.64302 16.382 9.78443L13.3625 12.808L16.5258 15.9761C16.6625 16.113 16.6781 16.3295 16.5633 16.485Z" fill="#FE966A"/>
<path d="M11.5215 10.6848C11.8446 10.6848 12.1065 10.4229 12.1065 10.0998C12.1065 9.77668 11.8446 9.51477 11.5215 9.51477C11.1984 9.51477 10.9365 9.77668 10.9365 10.0998C10.9365 10.4229 11.1984 10.6848 11.5215 10.6848Z" fill="#FED1BE"/>
<path d="M16.7755 12.3356C16.4524 12.3356 16.1904 12.5974 16.1904 12.9206C16.1904 13.2436 16.4524 13.5055 16.7755 13.5055C17.0986 13.5055 17.3606 13.2436 17.3606 12.9206C17.3606 12.5975 17.0986 12.3356 16.7755 12.3356Z" fill="#FED1BE"/>
<path d="M18.8707 12.3345C18.5476 12.3345 18.2856 12.5963 18.2856 12.9195C18.2856 13.2425 18.5476 13.5044 18.8707 13.5044C19.1938 13.5044 19.4558 13.2425 19.4558 12.9195C19.4558 12.5963 19.1938 12.3345 18.8707 12.3345Z" fill="#FED1BE"/>
<path d="M21.0138 12.3356C20.6907 12.3356 20.4287 12.5974 20.4287 12.9206C20.4287 13.2436 20.6907 13.5055 21.0138 13.5055C21.3369 13.5055 21.5989 13.2436 21.5989 12.9206C21.5989 12.5975 21.3369 12.3356 21.0138 12.3356Z" fill="#FED1BE"/>
<path d="M23.223 12.3345C22.8999 12.3345 22.6379 12.5963 22.6379 12.9195C22.6379 13.2425 22.8999 13.5044 23.223 13.5044C23.5461 13.5044 23.8081 13.2425 23.8081 12.9195C23.8081 12.5963 23.5461 12.3345 23.223 12.3345Z" fill="#FED1BE"/>
<path d="M26.3402 27.7244C26.0171 27.7244 25.7551 27.9862 25.7551 28.3094C25.7551 28.6324 26.0171 28.8943 26.3402 28.8943C26.6633 28.8943 26.9253 28.6324 26.9253 28.3094C26.9253 27.9862 26.6633 27.7244 26.3402 27.7244Z" fill="#E36F4B"/>
<path d="M29.8519 27.7244C29.5288 27.7244 29.2668 27.9862 29.2668 28.3094C29.2668 28.6324 29.5288 28.8943 29.8519 28.8943C30.175 28.8943 30.437 28.6324 30.437 28.3094C30.4371 27.9862 30.1751 27.7244 29.8519 27.7244Z" fill="#E36F4B"/>
<path d="M28.0966 25.9653C27.7734 25.9653 27.5115 26.2272 27.5115 26.5503C27.5115 26.8734 27.7734 27.1353 28.0966 27.1353C28.4197 27.1353 28.6816 26.8734 28.6816 26.5503C28.6816 26.2272 28.4197 25.9653 28.0966 25.9653Z" fill="#E36F4B"/>
<path d="M28.0966 29.4827C27.7734 29.4827 27.5115 29.7445 27.5115 30.0677C27.5115 30.3907 27.7734 30.6526 28.0966 30.6526C28.4197 30.6526 28.6816 30.3907 28.6816 30.0677C28.6816 29.7446 28.4197 29.4827 28.0966 29.4827Z" fill="#E36F4B"/>
<path d="M18.3233 31.9086C18.3233 32.9128 17.5101 33.7263 16.5062 33.7263C16.2827 33.7263 16.0687 33.6857 15.871 33.6122C15.1804 33.3543 14.689 32.6893 14.689 31.9086C14.689 31.1286 15.1804 30.4628 15.871 30.2049C16.0687 30.1314 16.2827 30.0908 16.5062 30.0908C17.5101 30.0908 18.3233 30.9051 18.3233 31.9086Z" fill="#FED1BE"/>
<path d="M18.3234 31.9086C18.3234 32.9128 17.5102 33.7263 16.5063 33.7263C16.2828 33.7263 16.0687 33.6857 15.8711 33.6122C16.5609 33.3543 17.0531 32.6893 17.0531 31.9086C17.0531 31.1286 16.5609 30.4628 15.8711 30.2049C16.0687 30.1314 16.2828 30.0908 16.5063 30.0908C17.5102 30.0908 18.3234 30.9051 18.3234 31.9086Z" fill="#FDAD8C"/>
<path d="M25.2953 31.9086C25.2953 32.9128 24.482 33.7263 23.4781 33.7263C23.2546 33.7263 23.0406 33.6857 22.8429 33.6122C22.1523 33.3543 21.6609 32.6893 21.6609 31.9086C21.6609 31.1286 22.1523 30.4628 22.8429 30.2049C23.0406 30.1314 23.2546 30.0908 23.4781 30.0908C24.482 30.0908 25.2953 30.9051 25.2953 31.9086Z" fill="#FED1BE"/>
<path d="M25.2954 31.9086C25.2954 32.9128 24.4821 33.7263 23.4782 33.7263C23.2547 33.7263 23.0407 33.6857 22.843 33.6122C23.5329 33.3543 24.025 32.6893 24.025 31.9086C24.025 31.1286 23.5329 30.4628 22.843 30.2049C23.0407 30.1314 23.2547 30.0908 23.4782 30.0908C24.4821 30.0908 25.2954 30.9051 25.2954 31.9086Z" fill="#FDAD8C"/>
</g>
<defs>
<clipPath id="clip0_1_574">
<rect width="40" height="40" fill="white"/>
</clipPath>
</defs>
</svg>
