<svg width="40" height="40" viewBox="0 0 40 40" fill="none" xmlns="http://www.w3.org/2000/svg">
<g clip-path="url(#clip0_1_1891)">
<path d="M37.4423 10.2097C39.0704 13.1039 40 16.4432 40 20C40 31.0458 31.0458 40 20 40C8.95416 40 0 31.0458 0 20C0 8.95416 8.95416 0 20 0C25.0339 0 29.6329 1.86035 33.1485 4.93011C34.2719 6.92749 35.7278 8.71277 37.4423 10.2097Z" fill="#FDAD8C"/>
<path d="M14.0625 4.87756H18.75C19.613 4.87756 20.3125 5.57703 20.3125 6.44006V21.8194C20.3125 22.6824 19.613 23.3819 18.75 23.3819H14.0625C13.1995 23.3819 12.5 22.6824 12.5 21.8194V6.44006C12.5 5.57703 13.1995 4.87756 14.0625 4.87756Z" fill="#FF976B"/>
<path d="M37.5 10.3127V21.8194C37.5 22.6824 36.8005 23.3819 35.9375 23.3819H32.5748L31.041 25.4635C30.7288 25.8871 30.0955 25.8871 29.7833 25.4635L28.2495 23.3819H15.625C14.762 23.3819 14.0625 22.6824 14.0625 21.8194V6.44006C14.0625 5.57703 14.762 4.87756 15.625 4.87756H33.0893C34.859 6.41077 36.3559 8.25037 37.5 10.3127Z" fill="#FFF7E6"/>
<path d="M25.7812 7.22131V21.0381C25.7812 21.4697 25.4315 21.8194 25 21.8194C24.5685 21.8194 24.2188 21.4697 24.2188 21.0381V7.22131C24.2188 6.78979 24.5685 6.44006 25 6.44006C25.4315 6.44006 25.7812 6.78979 25.7812 7.22131ZM21.875 8.78381C21.4435 8.78381 21.0938 9.13354 21.0938 9.56506V18.6944C21.0938 19.1259 21.4435 19.4756 21.875 19.4756C22.3065 19.4756 22.6562 19.1259 22.6562 18.6944V9.56506C22.6562 9.13354 22.3065 8.78381 21.875 8.78381ZM31.25 8.78381C30.8185 8.78381 30.4688 9.13354 30.4688 9.56506V18.6944C30.4688 19.1259 30.8185 19.4756 31.25 19.4756C31.6815 19.4756 32.0312 19.1259 32.0312 18.6944V9.56506C32.0312 9.13354 31.6815 8.78381 31.25 8.78381ZM15.625 12.6901C15.1935 12.6901 14.8438 13.0398 14.8438 13.4713V14.7881C14.8438 15.2197 15.1935 15.5694 15.625 15.5694C16.0565 15.5694 16.4062 15.2197 16.4062 14.7881V13.4713C16.4062 13.0398 16.0565 12.6901 15.625 12.6901ZM18.75 12.4444C18.3185 12.4444 17.9688 12.7944 17.9688 13.2256V15.0338C17.9688 15.4653 18.3185 15.8151 18.75 15.8151C19.1815 15.8151 19.5312 15.4653 19.5312 15.0338V13.2256C19.5312 12.7944 19.1815 12.4444 18.75 12.4444ZM34.375 11.1276C33.9435 11.1276 33.5938 11.4773 33.5938 11.9088V16.3506C33.5938 16.7822 33.9435 17.1319 34.375 17.1319C34.8065 17.1319 35.1562 16.7822 35.1562 16.3506V11.9088C35.1562 11.4773 34.8065 11.1276 34.375 11.1276ZM28.125 11.1276C27.6935 11.1276 27.3438 11.4773 27.3438 11.9088V16.3506C27.3438 16.7822 27.6935 17.1319 28.125 17.1319C28.5565 17.1319 28.9062 16.7822 28.9062 16.3506V11.9088C28.9062 11.4773 28.5565 11.1276 28.125 11.1276Z" fill="#FAAD95"/>
<path d="M19.5312 13.7911V15.0338C19.5312 15.4653 19.1815 15.8151 18.75 15.8151C18.3185 15.8151 17.9688 15.4653 17.9688 15.0338V13.7911C17.9688 14.2227 18.3185 14.5724 18.75 14.5724C19.1815 14.5724 19.5312 14.2227 19.5312 13.7911ZM15.625 14.327C15.1935 14.327 14.8438 13.9773 14.8438 13.5458V14.7881C14.8438 15.2197 15.1935 15.5694 15.625 15.5694C16.0565 15.5694 16.4062 15.2197 16.4062 14.7881V13.5458C16.4062 13.977 16.0565 14.327 15.625 14.327ZM28.125 15.8895C27.6935 15.8895 27.3438 15.5398 27.3438 15.1083V16.3506C27.3438 16.7822 27.6935 17.1319 28.125 17.1319C28.5565 17.1319 28.9062 16.7822 28.9062 16.3506V15.1083C28.9062 15.5395 28.5565 15.8895 28.125 15.8895ZM31.25 18.2333C30.8185 18.2333 30.4688 17.8835 30.4688 17.452V18.6944C30.4688 19.1259 30.8185 19.4756 31.25 19.4756C31.6815 19.4756 32.0312 19.1259 32.0312 18.6944V17.452C32.0312 17.8832 31.6815 18.2333 31.25 18.2333ZM34.375 15.8895C33.9435 15.8895 33.5938 15.5398 33.5938 15.1083V16.3506C33.5938 16.7822 33.9435 17.1319 34.375 17.1319C34.8065 17.1319 35.1562 16.7822 35.1562 16.3506V15.1083C35.1562 15.5395 34.8065 15.8895 34.375 15.8895Z" fill="#FA7A48"/>
<path d="M3.47388 16.618H25.3489C26.2119 16.618 26.9114 17.3175 26.9114 18.1805V33.5599C26.9114 34.4229 26.2119 35.1224 25.3489 35.1224H3.47388C2.61084 35.1224 1.91138 34.4229 1.91138 33.5599V18.1805C1.91138 17.3175 2.61084 16.618 3.47388 16.618Z" fill="#FF9E78"/>
<path d="M5.03638 16.618H25.3489C26.2119 16.618 26.9114 17.3175 26.9114 18.1805V33.5599C26.9114 34.4229 26.2119 35.1224 25.3489 35.1224H5.03638C4.17334 35.1224 3.47388 34.4229 3.47388 33.5599V18.1805C3.47388 17.3175 4.17334 16.618 5.03638 16.618Z" fill="#FA7A48"/>
<path d="M24.9387 31.8524C24.9387 32.2836 24.589 32.6337 24.1575 32.6337H9.27466C8.84314 32.6337 8.49341 32.2836 8.49341 31.8524C8.49341 31.4209 8.84314 31.0712 9.27466 31.0712H24.1575C24.589 31.0712 24.9387 31.4209 24.9387 31.8524ZM14.4114 28.3368C16.7844 28.3368 18.7083 26.413 18.7083 24.0399C18.7083 21.6666 16.7844 19.743 14.4114 19.743C12.0383 19.743 10.1145 21.6666 10.1145 24.0399C10.1145 26.413 12.0383 28.3368 14.4114 28.3368Z" fill="#FDAD8C"/>
<path d="M9.2746 32.6337H5.46875C5.03723 32.6337 4.6875 32.2836 4.6875 31.8524C4.6875 31.4209 5.03723 31.0712 5.46875 31.0712H9.2746C9.70612 31.0712 10.0558 31.4209 10.0558 31.8524C10.0558 32.2836 9.70612 32.6337 9.2746 32.6337Z" fill="#FF9E78"/>
<path d="M10.8372 31.8524C10.8372 32.4994 10.3126 33.0243 9.66528 33.0243C9.01801 33.0243 8.49341 32.4994 8.49341 31.8524C8.49341 31.2052 9.01801 30.6806 9.66528 30.6806C10.3126 30.6806 10.8372 31.2052 10.8372 31.8524ZM13.2813 26.507L16.5906 24.3677C16.8287 24.2139 16.8287 23.8657 16.5906 23.7119L13.2813 21.5726C13.0213 21.4044 12.6786 21.5909 12.6786 21.9007V26.1792C12.6786 26.4887 13.0213 26.6751 13.2813 26.507Z" fill="#FFF5F5"/>
</g>
<defs>
<clipPath id="clip0_1_1891">
<rect width="40" height="40" fill="white"/>
</clipPath>
</defs>
</svg>
