<svg width="40" height="40" viewBox="0 0 40 40" fill="none" xmlns="http://www.w3.org/2000/svg">
<g clip-path="url(#clip0_1_353)">
<path d="M13.1182 0V21.7304C19.1188 21.7304 23.9834 16.8659 23.9834 10.8652C23.9834 4.86447 19.1188 0 13.1182 0Z" fill="#FFBC2B"/>
<path d="M21.5688 10.8652C21.5688 4.86447 17.7853 0 13.1181 0C7.11748 0 2.25293 4.86447 2.25293 10.8652C2.25293 16.8659 7.11748 21.7304 13.1181 21.7304C17.7853 21.7304 21.5688 16.8659 21.5688 10.8652Z" fill="#FFCF66"/>
<path d="M0 24.829C0 28.8295 3.24298 32.0724 7.24346 32.0724H32.7565C36.757 32.0724 40 28.8295 40 24.829H0Z" fill="#FFA275"/>
<path d="M7.24346 29.658H32.7565C36.757 29.658 40 27.496 40 24.829C40 21.6489 37.9505 18.9476 35.1004 17.9734C34.7111 15.6969 32.7296 13.9638 30.3421 13.9638C30.1426 13.9638 29.9464 13.9774 29.7533 14.0009C27.9825 10.4034 24.2806 7.92761 20 7.92761C15.7194 7.92761 12.0175 10.4034 10.2467 14.0009C10.0536 13.9774 9.85738 13.9638 9.65795 13.9638C7.27042 13.9638 5.28893 15.6969 4.89964 17.9734C2.0495 18.9476 0 21.6489 0 24.829C0 27.496 3.24298 29.658 7.24346 29.658Z" fill="#FFD9C6"/>
<path d="M32.7925 24.0662C32.7928 24.0662 30.9928 21.2945 29.7533 19.3859C29.7532 19.3859 29.7532 29.6579 29.7532 29.6579C31.7534 29.6579 33.3749 28.0364 33.3749 26.0362C33.3749 25.3096 33.1608 24.6332 32.7925 24.0662Z" fill="#FFAD8D"/>
<path d="M30.9603 26.0362C30.9603 25.3097 30.8889 24.6332 30.7662 24.0662C30.7663 24.0662 30.1663 21.2946 29.7532 19.386C28.5135 21.2946 26.7135 24.0662 26.7135 24.0662C26.3454 24.6332 26.1313 25.3097 26.1313 26.0362C26.1313 28.0364 27.7528 29.6579 29.7531 29.6579C30.4198 29.6579 30.9603 28.0364 30.9603 26.0362Z" fill="#FA7A48"/>
<path d="M11.2019 32.0725C11.2019 33.406 12.2829 34.487 13.6164 34.487C14.9499 34.487 16.0309 33.406 16.0309 32.0725C16.0309 31.5881 15.8882 31.1372 15.6426 30.7592C15.6428 30.7592 14.4428 28.9114 13.6165 27.6389C12.79 28.9114 11.59 30.7592 11.59 30.7592C11.3446 31.1372 11.2019 31.5881 11.2019 32.0725Z" fill="#FA7A48"/>
<path d="M26.8037 32.5444C26.804 32.5444 24.404 28.8488 22.7514 26.304C22.7513 26.304 22.7512 40.0001 22.7512 40.0001C25.4182 40.0001 27.5802 37.838 27.5802 35.1711C27.5802 34.2024 27.2948 33.3005 26.8037 32.5444Z" fill="#FFAD8D"/>
<path d="M25.1656 35.171C25.1656 34.2023 25.0229 33.3004 24.7773 32.5444C24.7775 32.5444 23.5775 28.8488 22.7512 26.304C21.0983 28.8488 18.6983 32.5444 18.6983 32.5444C18.2076 33.3004 17.9221 34.2023 17.9221 35.171C17.9221 37.838 20.0841 40 22.7511 40C24.0846 40 25.1656 37.838 25.1656 35.171Z" fill="#FA7A48"/>
</g>
<defs>
<clipPath id="clip0_1_353">
<rect width="40" height="40" fill="white"/>
</clipPath>
</defs>
</svg>
