<svg width="40" height="40" viewBox="0 0 40 40" fill="none" xmlns="http://www.w3.org/2000/svg">
<g clip-path="url(#clip0_1_1190)">
<path d="M19.3219 33.2192L19.2807 33.2193C19.1225 33.2193 18.9686 33.266 18.8357 33.3544C18.1756 33.7925 17.4069 34.0242 16.6127 34.0242C15.5023 34.0242 14.4305 33.5586 13.6721 32.747C12.9029 31.9239 12.5215 30.8493 12.598 29.7211C12.7355 27.6946 14.3697 26.0869 16.3993 25.9814C16.4701 25.9777 16.5419 25.9759 16.6127 25.9759C17.4033 25.9759 18.169 26.2056 18.8271 26.6401C18.9665 26.7322 19.1233 26.7807 19.2809 26.7807H19.3344L19.3478 19.3973L32.6078 15.5006L39.9999 20.033L39.9653 37.9879L37.6698 39.7765L19.3081 39.4203L19.3219 33.2192Z" fill="#FFBCA0"/>
<path d="M32.3959 20.8263V20.8399C32.3959 21.1601 32.4939 21.4712 32.6705 21.7383C33.0345 22.289 33.233 22.9587 33.1965 23.6765C33.1146 25.2874 31.8212 26.6074 30.2121 26.7195C28.3299 26.8507 26.7621 25.3624 26.7621 23.5082C26.7621 22.8513 26.9587 22.2402 27.297 21.7313C27.4726 21.467 27.5669 21.1573 27.5669 20.8401V20.8163C27.5669 20.3723 27.2074 20.0122 26.7635 20.0114L19.9999 20L17.8337 9.50125L20.037 0H37.5854C38.919 0 39.9999 1.08097 39.9999 2.41449V20.033L33.2021 20.0215C32.7571 20.0208 32.3959 20.3812 32.3959 20.8263Z" fill="#FD9A71"/>
<path d="M0 19.967V2.41449C0 1.08097 1.08097 0 2.41449 0H6.88129H9.69819H20.037L20.0248 6.77923C20.024 7.22431 20.3845 7.58551 20.8296 7.58551H20.8707C21.1876 7.58551 21.497 7.49143 21.761 7.31614C22.2704 6.97795 22.8816 6.78068 23.5388 6.78068C25.3909 6.78068 26.8779 8.34503 26.7504 10.2245C26.6412 11.8348 25.3222 13.131 23.7103 13.2149C22.9911 13.2523 22.3199 13.053 21.7676 12.6884C21.5008 12.5122 21.1901 12.4146 20.8704 12.4146H20.8169C20.373 12.4146 20.0129 12.774 20.0121 13.2179L20.0097 21.3377L0 19.967Z" fill="#FFBCA0"/>
<path d="M20 20L19.9871 26.8032V26.812C19.9614 27.233 19.6113 27.567 19.1839 27.567H19.1597C18.8426 27.567 18.5328 27.4728 18.2688 27.2974C17.7602 26.9585 17.1485 26.7621 16.4917 26.7621C14.6374 26.7621 13.1493 28.33 13.2805 30.2124C13.3923 31.8213 14.7123 33.1147 16.3235 33.1968C17.0414 33.233 17.7111 33.0342 18.2616 32.6704C18.5288 32.4941 18.8402 32.3959 19.1597 32.3959H19.1734C19.5952 32.3959 19.942 32.7219 19.9758 33.1356V33.1372L19.9668 37.9879L19.2723 39.4203L3.72233 39.4567C2.38873 39.4567 1.30784 38.3758 1.30784 37.0422L0.824219 20.9334L1.3946 19.9713L6.77907 19.9782C7.22414 19.979 7.58551 19.6185 7.58551 19.1734V19.1662C7.58551 18.8467 7.48812 18.536 7.31186 18.2696C6.94567 17.7159 6.74687 17.0422 6.78551 16.3211C6.87243 14.709 8.17142 13.3931 9.78188 13.2869C11.6587 13.1629 13.2193 14.6487 13.2193 16.499C13.2193 17.1557 13.0221 17.7666 12.6841 18.276C12.5086 18.54 12.4145 18.8491 12.4145 19.1662V19.1839C12.4145 19.6273 12.7742 19.9879 13.2177 19.9887L20 20Z" fill="#FD9A71"/>
<path d="M39.9653 37.9879C39.7746 39.13 38.7822 40 37.5855 40H19.9669L18.9434 38.8039L19.9702 37.9879H39.9653Z" fill="#FD9A71"/>
<path d="M2.01207 0.034668V19.9711L1.97585 20.0298L1.16861 21.3377L0.056338 20.0331L0 19.9671V2.41455C0 1.21777 0.87002 0.225412 2.01207 0.034668Z" fill="#FD9A71"/>
<path d="M19.967 37.988L19.963 40H2.41449C1.08097 40 0 38.9191 0 37.5856V19.967L2.01215 19.9711V36.3783C2.01215 37.2673 2.7328 37.988 3.62181 37.988H19.967Z" fill="#FA7A48"/>
<path d="M6.71431 26.177H4.89073C4.73041 26.177 4.57677 26.2407 4.46353 26.3542C4.35029 26.4676 4.28679 26.6214 4.28711 26.7818V26.7871V26.7874V33.1147C4.28711 33.1591 4.29226 33.2024 4.30136 33.244C4.30763 33.3959 4.37025 33.5402 4.4785 33.6477C4.59158 33.76 4.74449 33.823 4.90377 33.823H4.90602C4.96107 33.8227 6.25999 33.8177 6.77814 33.8087C8.59745 33.7768 9.91794 32.1751 9.91794 30C9.91802 27.7133 8.63053 26.177 6.71431 26.177ZM6.75713 32.6016C6.47214 32.6065 5.93033 32.6102 5.50538 32.6127C5.50289 31.858 5.49902 30.5934 5.49902 29.9929C5.49902 29.4894 5.49685 28.1668 5.49548 27.3842H6.71431C8.18635 27.3842 8.71077 28.7354 8.71077 29.9999C8.71077 31.2365 8.09942 32.578 6.75713 32.6016Z" fill="#FAF8F8"/>
<path d="M13.6055 2.98112C13.2784 2.91569 12.9608 3.12832 12.8957 3.45532L11.9942 7.98466L10.5768 3.38361C10.4787 3.06498 10.1407 2.88631 9.82225 2.98442C9.60221 3.05227 9.44897 3.2344 9.40753 3.44559L8.00254 7.9849L7.10435 3.44422C7.03972 3.11721 6.72229 2.90442 6.39505 2.96921C6.06805 3.03392 5.85533 3.35142 5.92004 3.6785L7.17453 10.0205C7.18024 10.0493 7.18805 10.0778 7.19795 10.1055C7.30402 10.4041 7.58716 10.6037 7.90362 10.6037H7.90869C8.22724 10.6015 8.51014 10.3974 8.61268 10.0958C8.61445 10.0906 8.61614 10.0852 8.61783 10.08L10.0004 5.61315L11.3769 10.0811C11.3794 10.0893 11.3821 10.0974 11.385 10.1055C11.4911 10.4041 11.7742 10.6037 12.0907 10.6037H12.0957C12.4143 10.6015 12.6972 10.3974 12.7997 10.0958C12.8082 10.0707 12.8151 10.0452 12.8202 10.0193L14.0797 3.69098C14.1448 3.36398 13.9325 3.04623 13.6055 2.98112Z" fill="#FAF8F8"/>
<path d="M32.3441 31.6733C32.3441 30.4178 31.2802 29.3964 29.9725 29.3964H28.2615C28.2612 29.3964 28.2608 29.3964 28.2604 29.3964C28.2601 29.3964 28.2598 29.3964 28.2594 29.3964C27.9259 29.3964 27.6558 29.6665 27.6558 30V36.4386C27.6558 36.7721 27.9259 37.0422 28.2594 37.0422C28.5928 37.0422 28.863 36.7721 28.863 36.4386V34.0829L31.2873 36.8374C31.4066 36.973 31.5733 37.0422 31.7407 37.0422C31.8823 37.0422 32.0245 36.9927 32.1392 36.8917C32.3894 36.6715 32.4138 36.29 32.1935 36.0398L30.3315 33.9242C31.4695 33.7575 32.3441 32.8117 32.3441 31.6733ZM29.9725 32.743C29.7193 32.743 29.2539 32.7451 28.8736 32.7471C28.8716 32.3732 28.8694 31.9189 28.8694 31.6733C28.8694 31.4664 28.8682 30.9942 28.867 30.6036H29.9725C30.6037 30.6036 31.1369 31.0935 31.1369 31.6733C31.1369 32.2531 30.6037 32.743 29.9725 32.743Z" fill="#FAF8F8"/>
<path d="M33.2192 6.177C31.1113 6.177 29.3962 7.89201 29.3962 9.99994C29.3962 12.1079 31.1113 13.8229 33.2192 13.8229C35.3271 13.8229 37.0421 12.1079 37.0421 9.99994C37.0421 7.89201 35.3271 6.177 33.2192 6.177ZM33.2192 12.6156C31.7768 12.6156 30.6035 11.4423 30.6035 9.99994C30.6035 8.55761 31.7768 7.38425 33.2192 7.38425C34.6615 7.38425 35.8349 8.55761 35.8349 9.99994C35.8349 11.4423 34.6615 12.6156 33.2192 12.6156Z" fill="#FAF8F8"/>
</g>
<defs>
<clipPath id="clip0_1_1190">
<rect width="40" height="40" fill="white"/>
</clipPath>
</defs>
</svg>
