<svg width="140" height="42" viewBox="0 0 140 42" fill="none" xmlns="http://www.w3.org/2000/svg">
<path d="M86.4631 32.8453C78.364 38.815 66.6249 42 56.5177 42C42.3458 42 29.5874 36.7584 19.9353 28.0404C19.1769 27.3549 19.8564 26.4206 20.7664 26.9545C31.183 33.0152 44.0627 36.6613 57.367 36.6613C66.3397 36.6613 76.2103 34.8049 85.2862 30.9525C86.6572 30.3701 87.8038 31.8504 86.4631 32.8453Z" fill="#808080"/>
<path d="M89.8302 28.9929C88.7988 27.6704 82.9869 28.3681 80.3782 28.6775C79.5834 28.7745 79.4621 28.0829 80.178 27.5855C84.8069 24.3276 92.4025 25.268 93.2882 26.36C94.1739 27.4581 93.0577 35.0718 88.7078 38.7058C88.0405 39.2639 87.4035 38.9667 87.7007 38.2265C88.6775 35.7877 90.8676 30.3216 89.8302 28.9929" fill="#808080"/>
<path d="M80.5602 4.58643V1.41959C80.5602 0.940319 80.9242 0.618782 81.361 0.618782H95.539C95.994 0.618782 96.358 0.946386 96.358 1.41959V4.13142C96.3519 4.58643 95.9697 5.18097 95.2902 6.12131L87.9434 16.6107C90.6734 16.544 93.5551 16.9504 96.0304 18.3458C96.5885 18.6613 96.7402 19.1223 96.7826 19.5773V22.9565C96.7826 23.4176 96.273 23.9575 95.7392 23.6785C91.3772 21.3913 85.5834 21.1426 80.7604 23.7027C80.269 23.9697 79.7533 23.4358 79.7533 22.9747V19.7654C79.7533 19.2497 79.7594 18.3701 80.275 17.5874L88.7867 5.38117H81.3792C80.9242 5.38117 80.5602 5.05964 80.5602 4.58643" fill="#808080"/>
<path d="M28.8412 24.3458H24.5278C24.1152 24.3154 23.7876 24.006 23.7573 23.6117V1.47417C23.7573 1.0313 24.1274 0.679427 24.5884 0.679427H28.6107C29.0293 0.697616 29.363 1.01916 29.3933 1.41957V4.31341H29.4722C30.5217 1.51664 32.4934 0.212288 35.1506 0.212288C37.8503 0.212288 39.5369 1.51664 40.7502 4.31341C41.7937 1.51664 44.1658 0.212288 46.7078 0.212288C48.5157 0.212288 50.4934 0.958496 51.7007 2.63292C53.0657 4.4954 52.7866 7.20117 52.7866 9.57327L52.7806 23.545C52.7806 23.9878 52.4105 24.3458 51.9494 24.3458H47.6421C47.2113 24.3154 46.8655 23.9696 46.8655 23.545V11.8119C46.8655 10.8776 46.9504 8.54799 46.7442 7.66224C46.4226 6.1759 45.458 5.75729 44.2083 5.75729C43.1648 5.75729 42.0728 6.45496 41.6299 7.57124C41.187 8.68752 41.2295 10.5561 41.2295 11.8119V23.545C41.2295 23.9878 40.8594 24.3458 40.3984 24.3458H36.091C35.6542 24.3154 35.3144 23.9696 35.3144 23.545L35.3084 11.8119C35.3084 9.34273 35.7148 5.70875 32.6511 5.70875C29.551 5.70875 29.6724 9.25173 29.6724 11.8119V23.545C29.6724 23.9878 29.3023 24.3458 28.8412 24.3458Z" fill="#808080"/>
<path d="M108.564 0.212288C114.965 0.212288 118.429 5.70875 118.429 12.6976C118.429 19.4499 114.601 24.8068 108.564 24.8068C102.279 24.8068 98.8575 19.3104 98.8575 12.461C98.8575 5.56922 102.322 0.212288 108.564 0.212288V0.212288ZM108.601 4.73201C105.422 4.73201 105.221 9.06366 105.221 11.7634C105.221 14.4691 105.179 20.2447 108.564 20.2447C111.907 20.2447 112.065 15.5854 112.065 12.7462C112.065 10.8776 111.986 8.64506 111.422 6.87357C110.936 5.33262 109.972 4.73201 108.601 4.73201" fill="#808080"/>
<path d="M126.728 24.3458H122.433C122.002 24.3154 121.656 23.9696 121.656 23.545L121.65 1.40137C121.687 0.994897 122.045 0.679427 122.481 0.679427H126.479C126.855 0.697616 127.165 0.952431 127.25 1.29824V4.68347H127.329C128.536 1.65617 130.229 0.212288 133.207 0.212288C135.143 0.212288 137.029 0.909964 138.243 2.82098C139.371 4.59247 139.371 7.57124 139.371 9.7128V23.6481C139.323 24.0364 138.965 24.3458 138.54 24.3458H134.214C133.82 24.3154 133.492 24.0242 133.45 23.6481V11.6238C133.45 9.2032 133.729 5.66022 130.75 5.66022C129.701 5.66022 128.736 6.36396 128.257 7.43171C127.65 8.78459 127.571 10.1314 127.571 11.6238V23.545C127.565 23.9878 127.189 24.3458 126.728 24.3458" fill="#808080"/>
<path d="M12.7098 13.7715V12.8372C9.59148 12.8372 6.29724 13.5046 6.29724 17.181C6.29724 19.0435 7.26185 20.3054 8.91807 20.3054C10.1314 20.3054 11.2174 19.5592 11.9029 18.3458C12.7522 16.8534 12.7098 15.452 12.7098 13.7715V13.7715ZM17.0596 24.2852C16.7745 24.54 16.362 24.5582 16.0404 24.3883C14.6087 23.1992 14.3539 22.6471 13.5652 21.5127C11.1992 23.9272 9.52475 24.6492 6.45498 24.6492C2.82706 24.6492 -3.05176e-05 22.4105 -3.05176e-05 17.9272C-3.05176e-05 14.4267 1.89886 12.0425 4.59855 10.8777C6.94032 9.84631 10.2103 9.66432 12.7098 9.37918V8.82104C12.7098 7.79576 12.7887 6.58241 12.188 5.69667C11.6602 4.90192 10.6532 4.57432 9.76741 4.57432C8.12333 4.57432 6.65518 5.4176 6.29724 7.16482C6.22444 7.55309 5.9393 7.9353 5.55103 7.9535L1.36499 7.50455C1.01311 7.42569 0.624842 7.14055 0.72191 6.60061C1.68652 1.52882 6.26691 0 10.368 0C12.4671 0 15.2093 0.55814 16.8655 2.14762C18.9646 4.10718 18.7644 6.72194 18.7644 9.56725V16.2892C18.7644 18.3094 19.6016 19.1952 20.3903 20.2872C20.6693 20.6754 20.73 21.1426 20.3781 21.4338C19.4985 22.1679 17.9332 23.5329 17.0718 24.2973L17.0596 24.2851" fill="#808080"/>
<path d="M68.6258 13.7715V12.8372C65.5075 12.8372 62.2133 13.5046 62.2133 17.181C62.2133 19.0435 63.1779 20.3054 64.8341 20.3054C66.0474 20.3054 67.1334 19.5592 67.8189 18.3458C68.6683 16.8534 68.6258 15.452 68.6258 13.7715V13.7715ZM72.9757 24.2852C72.6905 24.54 72.278 24.5582 71.9564 24.3883C70.5247 23.1992 70.2699 22.6471 69.4812 21.5127C67.1152 23.9272 65.4408 24.6492 62.371 24.6492C58.7431 24.6492 55.916 22.4105 55.916 17.9272C55.916 14.4267 57.8149 12.0425 60.5146 10.8777C62.8563 9.84631 66.1263 9.66432 68.6258 9.37918V8.82104C68.6258 7.79576 68.7047 6.58241 68.1041 5.69667C67.5763 4.90192 66.5692 4.57432 65.6834 4.57432C64.0394 4.57432 62.5712 5.4176 62.2133 7.16482C62.1405 7.55309 61.8553 7.9353 61.4671 7.9535L57.281 7.50455C56.9291 7.42569 56.5409 7.14055 56.6379 6.60061C57.6025 1.52882 62.1829 0 66.284 0C68.3831 0 71.1253 0.55814 72.7815 2.14762C74.8806 4.10718 74.6804 6.72194 74.6804 9.56725V16.2892C74.6804 18.3094 75.5176 19.1952 76.3063 20.2872C76.5854 20.6754 76.646 21.1426 76.2942 21.4338C75.4145 22.1679 73.8493 23.5329 72.9878 24.2973L72.9757 24.2851" fill="#808080"/>
</svg>
