<svg width="123" height="41" viewBox="0 0 123 41" fill="none" xmlns="http://www.w3.org/2000/svg">
<path d="M52.6367 21.3074C52.6367 27.1326 48.0796 31.4251 42.4871 31.4251C36.8945 31.4251 32.3374 27.1326 32.3374 21.3074C32.3374 15.4411 36.8945 11.1897 42.4871 11.1897C48.0796 11.1897 52.6367 15.4411 52.6367 21.3074ZM48.1937 21.3074C48.1937 17.6672 45.5525 15.1765 42.4871 15.1765C39.4217 15.1765 36.7805 17.6672 36.7805 21.3074C36.7805 24.9111 39.4217 27.4382 42.4871 27.4382C45.5525 27.4382 48.1937 24.9065 48.1937 21.3074Z" fill="#808080"/>
<path d="M74.5326 21.3074C74.5326 27.1326 69.9755 31.4251 64.383 31.4251C58.7904 31.4251 54.2333 27.1326 54.2333 21.3074C54.2333 15.4457 58.7904 11.1897 64.383 11.1897C69.9755 11.1897 74.5326 15.4411 74.5326 21.3074ZM70.0896 21.3074C70.0896 17.6672 67.4484 15.1765 64.383 15.1765C61.3175 15.1765 58.6763 17.6672 58.6763 21.3074C58.6763 24.9111 61.3175 27.4382 64.383 27.4382C67.4484 27.4382 70.0896 24.9065 70.0896 21.3074Z" fill="#808080"/>
<path d="M95.5161 11.8009V29.9654C95.5161 37.4373 91.1096 40.4891 85.9002 40.4891C80.9964 40.4891 78.0451 37.2093 76.932 34.527L80.8003 32.9167C81.4891 34.5635 83.1769 36.5068 85.8957 36.5068C89.2302 36.5068 91.2966 34.4495 91.2966 30.5766V29.1215H91.1415C90.1471 30.3485 88.2312 31.4205 85.8135 31.4205C80.7547 31.4205 76.1201 27.014 76.1201 21.3439C76.1201 15.6327 80.7547 11.1897 85.8135 11.1897C88.2266 11.1897 90.1425 12.2617 91.1415 13.4522H91.2966V11.8055H95.5161V11.8009ZM91.6114 21.3439C91.6114 17.7812 89.2348 15.1765 86.2104 15.1765C83.145 15.1765 80.5768 17.7812 80.5768 21.3439C80.5768 24.87 83.145 27.4382 86.2104 27.4382C89.2348 27.4382 91.6114 24.87 91.6114 21.3439Z" fill="#808080"/>
<path d="M102.473 1.1541V30.8047H98.1391V1.1541H102.473Z" fill="#808080"/>
<path d="M119.36 24.6374L122.808 26.9364C121.695 28.5832 119.013 31.4205 114.378 31.4205C108.631 31.4205 104.338 26.9775 104.338 21.3028C104.338 15.286 108.667 11.1851 113.881 11.1851C119.132 11.1851 121.7 15.3636 122.539 17.6216L123 18.7711L109.475 24.3728C110.51 26.4027 112.12 27.4382 114.378 27.4382C116.641 27.4382 118.21 26.3252 119.36 24.6374ZM108.745 20.9972L117.786 17.243C117.289 15.9794 115.793 15.099 114.032 15.099C111.774 15.099 108.631 17.0924 108.745 20.9972Z" fill="#808080"/>
<path d="M15.9338 18.6753V14.3828H30.3988C30.5402 15.131 30.6132 16.0159 30.6132 16.9739C30.6132 20.1944 29.7328 24.1767 26.8954 27.014C24.1356 29.8878 20.6095 31.4206 15.9384 31.4206C7.28037 31.4206 0 24.3683 0 15.7103C0 7.05229 7.28037 0 15.9384 0C20.7281 0 24.1402 1.87939 26.7038 4.32899L23.6749 7.35792C21.8366 5.63362 19.3459 4.2925 15.9338 4.2925C9.61137 4.2925 4.66656 9.38785 4.66656 15.7103C4.66656 22.0327 9.61137 27.1281 15.9338 27.1281C20.0347 27.1281 22.3703 25.4813 23.8665 23.9851C25.0799 22.7717 25.8782 21.0383 26.1929 18.6708L15.9338 18.6753Z" fill="#808080"/>
</svg>
