<svg width="1440" height="466" viewBox="0 0 1440 466" fill="none" xmlns="http://www.w3.org/2000/svg">
<g clip-path="url(#clip0_24_10442)">
<g opacity="0.3">
<path d="M507.404 309.797C504.121 309.797 501.13 309.475 498.505 308.831C472.828 302.715 450.07 286.136 428.99 257.968C410.17 232.858 395.071 201.551 382.816 174.187C354.806 111.734 321.325 52.3392 266.399 40.9914C239.41 35.4382 209.649 45.8202 186.891 68.9182C164.132 92.0162 152.17 123.806 154.941 153.986H154.723C153.264 138.373 155.598 122.76 161.579 107.469C167.196 93.143 175.876 79.7831 186.745 68.7573C197.613 57.7314 210.451 49.2809 223.8 44.3716C238.097 39.0598 252.467 37.8526 266.399 40.7499C292.221 46.1422 315.125 62.3188 336.424 90.3261C355.609 115.517 370.708 146.824 382.889 174.107C408.857 232.053 441.39 295.069 498.359 308.59C512.072 311.89 535.122 306.497 566.707 292.655C593.987 280.744 628.635 261.992 669.703 237.123C745.199 191.329 828.281 133.383 895.024 86.8654C920.992 68.7573 943.386 53.144 961.403 40.9914C973.73 32.7019 986.933 24.01 1000.65 18.1349C1016.04 11.455 1029.9 9.28197 1042.95 11.4549C1062.87 14.7547 1080.08 27.3901 1095.55 50.1662C1109.11 70.1254 1119.54 95.3159 1128.3 117.368C1145.66 161.391 1174.69 221.107 1225.68 230.524C1246.9 234.467 1269 228.673 1288.48 223.522L1560.92 151.733L1561 151.974L1288.55 223.763C1273.53 227.707 1256.97 232.053 1240.48 232.053C1235.52 232.053 1230.56 231.65 1225.68 230.765C1214.15 228.592 1202.99 223.763 1192.71 216.279C1183.44 209.518 1174.47 200.504 1166.08 189.398C1152.73 171.692 1140.33 148.111 1128.15 117.448C1108.53 67.7915 1085.84 18.6982 1043.03 11.6964C1015.09 7.10899 988.611 23.0442 961.622 41.2328C943.605 53.3854 921.211 68.9987 895.243 87.1069C828.5 133.625 745.418 191.571 669.921 237.445C628.854 262.394 594.206 281.066 566.852 292.977C551.534 299.657 538.113 304.485 526.952 307.141C519.658 308.831 513.02 309.797 507.404 309.797Z" fill="url(#paint0_linear_24_10442)"/>
<path d="M500.113 303.762C496.028 303.762 492.381 303.359 489.099 302.554C462.182 296.035 438.038 278.249 415.353 248.069C398.576 225.776 384.79 199.861 372.462 175.234C345.546 121.151 312.138 62.7215 255.972 53.1443C229.566 48.6374 200.389 59.4218 177.995 82.1174C155.602 104.733 143.274 135.798 145.098 165.174H144.806C143.858 149.963 146.484 134.752 152.611 119.782C158.301 105.859 167.054 92.7409 177.776 81.8759C188.499 71.011 201.118 62.5606 214.248 57.4903C228.253 52.0176 242.331 50.4884 255.972 52.8224C281.283 57.0879 303.968 71.7354 325.341 97.4088C344.379 120.346 359.989 149.56 372.681 175.073C385.008 199.7 398.722 225.615 415.499 247.827C438.111 277.927 462.182 295.713 489.099 302.232C540.669 314.868 690.86 224.166 815.958 143.766C836.819 130.325 856.587 117.529 875.625 105.215C903.49 87.1072 927.634 71.4939 947.037 59.3413C960.604 50.8104 972.932 43.3256 985.988 37.9334C1001.31 31.6559 1014.95 29.5634 1027.78 31.5754C1047.41 34.6337 1064.62 46.4644 1080.38 67.7918C1093.94 86.1414 1104.45 108.918 1114.08 130.647C1132.31 171.693 1162.22 227.144 1211.82 234.789C1232.32 237.928 1253.47 232.375 1273.39 226.5C1294.25 220.303 1315.18 213.382 1335.46 206.702C1347.06 202.839 1359.09 198.895 1370.98 195.112C1400.16 185.857 1434.74 175.153 1470.11 166.381C1496.96 159.701 1525.26 154.228 1554.07 150.124L1554.14 150.446C1525.33 154.631 1497.1 160.103 1470.26 166.703C1434.88 175.475 1400.31 186.099 1371.2 195.434C1359.31 199.217 1347.28 203.161 1335.68 207.024C1315.4 213.704 1294.47 220.625 1273.6 226.822C1253.69 232.777 1232.46 238.331 1211.97 235.111C1200.59 233.341 1189.65 228.995 1179.43 222.234C1170.24 216.118 1161.27 207.828 1152.81 197.607C1139.32 181.189 1126.99 159.942 1114 130.808C1097.81 94.1895 1073.23 38.8992 1027.93 31.8974C998.753 27.3904 970.233 45.2572 947.328 59.6632C927.926 71.8158 903.854 87.4291 875.917 105.537C856.806 117.931 837.111 130.728 816.249 144.088C698.956 219.418 559.781 303.762 500.113 303.762Z" fill="url(#paint1_linear_24_10442)"/>
<path d="M492.965 297.724C487.931 297.724 483.482 297.242 479.616 296.276C453.137 289.676 429.066 272.695 406.089 244.285C388.51 222.716 374.14 197.848 362.104 176.279C334.386 126.381 300.175 72.5393 245.468 65.296C219.281 61.7548 191.417 72.7002 169.096 95.2349C147.067 117.448 134.448 147.708 135.25 176.279H134.886C134.448 161.471 137.439 146.662 143.712 132.095C149.547 118.494 158.301 105.617 168.877 94.9129C179.454 84.209 191.854 75.839 204.692 70.6077C218.406 65.0546 232.119 63.123 245.541 64.8936C300.394 72.0564 334.605 126.059 362.396 176.038C374.505 197.606 388.801 222.475 406.381 243.963C429.285 272.293 453.283 289.274 479.762 295.793C492.527 298.932 511.346 296.92 535.782 289.676C557.519 283.238 584.435 272.454 615.655 257.645C679.189 227.545 752.643 184.729 802.317 155.032C821.501 143.604 839.883 132.578 857.608 121.954C886.786 104.49 911.951 89.3597 932.448 77.4486L932.521 77.3681C944.921 70.1248 957.832 62.7206 971.181 57.4894C986.353 51.6143 999.848 49.6023 1012.47 51.4533C1031.8 54.2701 1049.01 65.296 1064.99 85.2552C1078.41 101.995 1089.06 122.437 1099.71 143.684C1120.35 184.971 1150.18 233.098 1197.82 238.813C1217.95 241.227 1238.74 235.674 1258.14 229.235C1279.59 222.153 1300.88 213.783 1321.45 205.735C1333.34 201.067 1345.6 196.238 1357.78 191.731C1387.61 180.625 1423.14 168.15 1460.41 159.459C1488.71 152.859 1519.5 148.916 1547.07 148.272V148.674C1519.57 149.318 1488.79 153.261 1460.48 159.861C1423.28 168.553 1387.76 181.027 1357.93 192.134C1345.74 196.641 1333.42 201.469 1321.6 206.137C1301.03 214.185 1279.73 222.555 1258.29 229.638C1238.88 236.076 1218.09 241.71 1197.82 239.215C1186.66 237.847 1175.86 234.064 1165.72 227.948C1156.6 222.475 1147.63 214.91 1139.17 205.574C1121.52 186.017 1108.1 160.988 1099.49 143.926C1081.4 107.79 1056.67 58.2942 1012.54 51.8557C984.457 47.7512 957.03 63.6864 932.813 77.7705L932.74 77.851C912.243 89.7622 887.077 104.812 857.9 122.357C840.175 132.98 821.793 144.006 802.609 155.434C752.935 185.051 679.481 227.948 615.947 258.047C584.727 272.856 557.811 283.64 536.074 290.079C518.786 295.23 504.417 297.724 492.965 297.724Z" fill="url(#paint2_linear_24_10442)"/>
<path d="M486.689 291.85C480.416 291.85 474.946 291.206 470.131 289.999C456.345 286.458 442.851 280.18 430.085 271.086C418.779 263.118 407.911 253.138 396.823 240.503C379.682 221.027 365.02 198.653 351.671 177.326C321.692 129.44 287.992 82.2778 234.962 77.449C209.359 75.0346 182.078 86.3019 160.122 108.354C138.166 130.405 125.474 159.298 125.255 187.466H124.891C124.964 173.06 128.246 158.574 134.665 144.489C140.646 131.21 149.4 118.575 159.83 108.112C170.261 97.5692 182.443 89.1992 194.989 83.807C208.411 78.0928 221.832 75.8394 234.889 77.0466C259.179 79.2196 281.427 90.6478 302.872 111.734C321.546 130.164 337.52 153.986 351.89 177.084C365.239 198.412 379.9 220.785 397.042 240.181C420.457 266.82 444.382 282.997 470.204 289.516C483.48 292.896 502.518 291.528 526.808 285.492C548.472 280.1 574.951 270.844 605.587 257.887C668.537 231.328 740.095 193.019 788.456 166.541C807.202 156.32 825.219 146.421 842.653 136.844C871.757 120.828 896.923 107.066 917.712 95.9596L919.754 94.9133C931.863 88.4749 944.336 81.795 957.174 77.1271C971.763 71.8958 984.819 70.1252 996.928 71.8153C1015.97 74.3907 1033.18 84.6923 1049.37 103.203C1063.74 119.54 1075.56 140.465 1085.04 157.205C1106.56 195.192 1137.2 239.296 1183.52 243.32C1204.23 245.09 1225.02 238.813 1242.6 232.455C1264.63 224.407 1286.22 214.669 1307.16 205.172C1319.26 199.699 1331.81 193.985 1344.28 188.754C1373.02 176.601 1411.03 161.551 1450.42 152.94C1480.47 146.341 1513.07 144.087 1539.77 146.823V147.226C1513.07 144.489 1480.62 146.662 1450.56 153.342C1411.25 161.954 1373.24 177.004 1344.5 189.156C1332.03 194.468 1319.48 200.102 1307.37 205.574C1286.51 215.071 1264.92 224.809 1242.82 232.857C1227.28 238.491 1209.27 244.125 1190.96 244.125C1188.55 244.125 1186.07 244.044 1183.59 243.803C1172.65 242.837 1162 239.618 1151.93 234.226C1142.89 229.397 1133.99 222.556 1125.38 214.025C1107.8 196.4 1093.8 173.302 1084.82 157.447C1064.84 122.116 1039.89 78.0928 996.928 72.2982C969.939 68.5961 944.482 82.1974 919.973 95.3962L917.93 96.4425C897.142 107.549 871.976 121.391 842.872 137.327C825.438 146.904 807.421 156.803 788.675 167.024C740.313 193.502 668.683 231.811 605.733 258.37C575.097 271.327 548.545 280.582 526.881 285.975C511.271 289.918 497.85 291.85 486.689 291.85Z" fill="url(#paint3_linear_24_10442)"/>
<path d="M481.363 286.055C473.485 286.055 466.628 285.25 460.72 283.721C447.007 280.18 434.023 274.224 421.039 265.532C409.879 258.048 398.937 248.631 387.631 236.801C369.76 218.049 354.369 196.882 341.312 178.452C310.603 134.992 276.246 92.4181 224.457 89.7622C171.865 87.0259 117.886 141.028 115.406 198.814H114.969C115.552 184.81 119.199 170.806 125.691 157.044C131.819 144.087 140.499 131.773 150.857 121.472C172.521 99.7419 199.364 87.9917 224.53 89.2793C276.538 91.9352 310.894 134.671 341.677 178.211C354.66 196.641 370.052 217.807 387.923 236.479C411.775 261.428 435.628 276.8 460.793 283.319C474.579 286.86 493.836 286.296 517.908 281.467C539.499 277.122 565.613 269.315 595.592 258.289C643.224 240.664 700.12 215.232 774.741 178.211C795.53 167.909 815.37 158.09 834.555 148.513C859.793 135.958 883.645 124.047 903.048 114.55C904.361 113.906 905.601 113.263 906.914 112.619C930.767 100.949 955.422 88.7965 981.462 92.0962C1000.14 94.4301 1017.13 103.766 1033.47 120.586C1047.69 135.234 1059.51 153.584 1069.94 169.76L1070.53 170.645C1094.31 207.506 1124.65 245.493 1169.36 247.746C1190.88 248.792 1212.62 241.308 1227.14 235.593C1249.82 226.66 1271.7 215.393 1292.86 204.608C1305.18 198.25 1318.02 191.731 1330.79 185.695C1360.18 171.853 1399.21 154.871 1440.42 146.26C1456.25 142.96 1473.03 141.189 1488.93 141.028C1504.68 140.868 1519.71 142.397 1532.48 145.294L1532.4 145.777C1506.22 139.741 1472.66 140.063 1440.49 146.743C1399.28 155.274 1360.33 172.255 1330.93 186.098C1318.1 192.134 1305.33 198.653 1293 205.011C1271.78 215.876 1249.89 227.062 1227.21 235.996C1213.64 241.388 1193.65 248.309 1173.52 248.309C1172.14 248.309 1170.68 248.309 1169.29 248.229C1124.43 245.975 1094.01 207.908 1070.16 170.887L1069.58 170.002C1048.86 137.809 1023.04 97.8103 981.317 92.4986C955.349 89.1989 930.767 101.271 906.987 112.941C905.674 113.585 904.434 114.228 903.121 114.872C883.718 124.369 859.866 136.2 834.628 148.835C815.443 158.412 795.53 168.311 774.814 178.533C700.193 215.634 643.297 241.066 595.665 258.691C565.686 269.798 539.499 277.604 517.908 281.87C504.121 284.687 491.867 286.055 481.363 286.055Z" fill="url(#paint4_linear_24_10442)"/>
<path d="M477.351 280.423C467.358 280.423 458.677 279.458 451.237 277.526C437.743 273.985 424.905 268.19 411.921 259.981C400.833 252.899 389.819 244.126 378.367 233.101C360.787 216.2 345.251 197.448 330.881 179.581C299.442 140.548 264.502 102.4 213.953 101.997C162.746 101.514 110.008 153.988 105.413 209.922L104.902 209.842C107.091 183.203 120.512 155.759 141.739 134.512C162.819 113.426 188.86 101.354 213.296 101.354C213.515 101.354 213.734 101.354 213.953 101.354C237.294 101.514 259.032 109.724 280.55 126.222C300.172 141.272 317.021 161.473 331.245 179.178C345.615 196.965 361.079 215.797 378.659 232.698C403.313 256.36 426.436 270.444 451.31 277.043C478.518 284.206 523.743 278.009 585.599 258.533C632.501 243.805 689.835 221.27 760.955 189.641C788.965 177.247 816.319 165.094 840.39 154.31C857.75 146.584 874.163 139.26 888.387 132.902C890.283 132.097 892.18 131.212 894.076 130.407C917.126 120.106 940.979 109.402 966.071 112.299C984.161 114.391 1000.87 122.681 1017.28 137.65C1031.5 150.688 1043.68 167.106 1054.33 181.512L1056.16 183.927C1080.88 217.246 1111.96 251.45 1155.36 252.014C1171.7 252.255 1190.23 247.829 1211.89 238.493C1235.16 228.513 1257.33 215.958 1278.85 203.725C1291.47 196.562 1304.53 189.158 1317.66 182.398C1347.71 166.865 1387.68 147.952 1430.79 139.421C1464.64 132.741 1500.09 134.27 1525.55 143.525L1525.4 144.008C1500.02 134.753 1464.64 133.224 1430.87 139.904C1387.83 148.354 1347.86 167.267 1317.8 182.8C1304.67 189.56 1291.62 196.965 1279.07 204.128C1257.55 216.361 1235.3 228.916 1212.04 238.895C1190.23 248.231 1171.7 252.657 1155.29 252.416C1135.23 252.175 1116.48 244.931 1098.03 230.364C1080.81 216.763 1066.37 198.494 1055.72 184.088L1053.89 181.673C1031.57 151.493 1006.34 117.289 965.998 112.621C941.052 109.724 917.199 120.347 894.222 130.649C892.326 131.534 890.429 132.339 888.532 133.143C874.308 139.421 857.896 146.745 840.536 154.551C816.391 165.336 789.038 177.569 761.1 189.882C689.981 221.511 632.574 244.046 585.672 258.774C556.276 268.029 530.454 274.307 508.935 277.607C497.41 279.538 486.761 280.423 477.351 280.423Z" fill="url(#paint5_linear_24_10442)"/>
<path d="M475.312 274.949C462.401 274.949 451.168 273.662 441.758 271.167C417.468 264.648 394.345 251.288 369.107 229.236C350.798 213.221 334.677 195.837 320.526 180.545C288.431 145.858 252.981 112.217 203.452 114.068C153.705 115.919 102.28 166.944 95.5692 221.108L95.0586 221.027C98.2681 195.193 112.054 168.473 132.843 147.709C143.055 137.569 154.216 129.359 166.178 123.484C178.652 117.287 191.198 113.907 203.452 113.505C226.284 112.7 247.875 119.219 269.393 133.384C289.088 146.421 306.302 164.369 320.964 180.143C335.188 195.434 351.236 212.818 369.544 228.834C394.71 250.805 417.76 264.084 441.977 270.603C492.527 284.205 592.386 261.429 747.391 200.987C793.637 183.121 836.965 165.898 873.947 151.17C876.427 150.204 878.908 149.158 881.388 148.192C903.708 139.178 926.758 129.842 950.83 132.337C968.336 134.188 984.748 141.432 1001.01 154.63C1015.24 166.059 1027.64 180.545 1038.51 193.342C1039.6 194.629 1040.7 195.917 1041.79 197.124C1068.63 228.431 1099.34 257.324 1141.36 256.197C1157.84 255.795 1175.93 250.966 1196.65 241.389C1220.5 230.443 1243.04 216.44 1264.78 202.919C1277.62 194.951 1290.96 186.662 1304.39 179.097C1325.17 167.427 1343.63 158.252 1360.84 151.089C1382.07 142.236 1401.77 136.2 1421.1 132.579C1438.46 129.359 1456.62 128.474 1473.61 130.084C1490.83 131.693 1506.37 135.717 1518.62 141.834L1518.4 142.397C1493.82 130.164 1456.55 126.623 1421.17 133.223C1386.08 139.742 1350.19 154.067 1304.68 179.66C1291.26 187.225 1277.98 195.434 1265.07 203.482C1243.26 217.003 1220.72 231.007 1196.87 241.952C1176.08 251.529 1157.92 256.358 1141.36 256.761C1140.63 256.761 1139.83 256.761 1139.1 256.761C1098.03 256.761 1067.9 228.27 1041.43 197.446C1040.33 196.159 1039.24 194.951 1038.14 193.664C1015.46 167.105 989.781 137.005 950.757 132.82C926.758 130.325 903.781 139.581 881.533 148.594C879.126 149.56 876.573 150.606 874.093 151.572C837.111 166.3 793.783 183.443 747.537 201.39C679.043 228.109 622.949 246.942 575.901 259.095C547.161 266.499 521.704 271.328 500.259 273.501C491.287 274.547 482.971 274.949 475.312 274.949Z" fill="url(#paint6_linear_24_10442)"/>
<path d="M476.333 269.879C459.191 269.879 444.384 268.189 432.275 264.889C408.715 258.45 385.738 245.895 359.843 225.534C342.993 212.254 327.529 197.848 313.815 185.132C312.575 183.925 311.335 182.798 310.095 181.672C277.49 151.411 241.529 122.196 192.875 126.301C144.514 130.325 94.3289 179.901 85.5757 232.375L84.9922 232.294C87.1075 219.498 91.703 206.701 98.6326 194.146C105.27 182.074 113.732 170.887 123.725 160.908C133.791 150.928 144.806 142.8 156.404 136.683C168.585 130.325 180.84 126.623 192.802 125.657C215.196 123.806 236.495 128.635 258.014 140.627C277.854 151.652 295.507 167.346 310.387 181.189C311.627 182.316 312.867 183.523 314.107 184.65C327.748 197.366 343.212 211.691 360.061 224.97C385.883 245.332 408.788 257.807 432.275 264.245C485.378 278.732 586.696 261.348 733.385 212.335C775.328 198.492 819.969 183.281 859.067 169.439C862.13 168.392 865.194 167.266 868.258 166.139C889.776 158.332 912.024 150.204 935.22 152.457C952.07 154.067 968.19 160.344 984.383 171.773C998.534 181.672 1010.57 193.744 1022.17 205.494C1023.85 207.184 1025.52 208.794 1027.13 210.484C1054.85 238.089 1086.14 263.279 1127.06 260.543C1143.4 259.497 1161.56 254.024 1181.11 244.447C1205.47 232.455 1228.38 217.164 1250.48 202.275C1263.61 193.422 1277.18 184.328 1290.89 176.038C1312.04 163.242 1330.94 153.262 1348.74 145.455C1370.62 135.878 1390.97 129.52 1411.03 125.979C1429.12 122.76 1448.01 122.357 1465.52 124.772C1483.39 127.267 1499.22 132.659 1511.25 140.305L1510.96 140.868C1486.74 125.416 1448.52 119.943 1411.1 126.542C1363.76 134.912 1319.92 159.057 1291.11 176.521C1277.32 184.81 1263.83 193.985 1250.7 202.758C1228.6 217.647 1205.69 233.018 1181.26 245.01C1161.64 254.668 1143.4 260.06 1126.99 261.106C1107.73 262.394 1089.35 257.726 1070.75 246.781C1053.75 236.882 1038.95 223.039 1026.69 210.806C1025.09 209.196 1023.41 207.506 1021.73 205.816C998.753 182.718 972.713 156.562 935.147 153.021C912.097 150.848 889.922 158.896 868.404 166.702C865.413 167.829 862.276 168.956 859.213 170.002C820.115 183.764 775.547 199.056 733.531 212.898C668.831 234.467 612.3 250.161 565.616 259.336C537.606 264.889 512.513 268.269 491.068 269.315C486.108 269.798 481.147 269.879 476.333 269.879Z" fill="url(#paint7_linear_24_10442)"/>
<path d="M1102.55 266.177C1087.38 266.177 1072.5 262.555 1057.25 255.231C1040.33 247.022 1025.01 235.031 1012.32 224.407C1010.06 222.476 1007.72 220.544 1005.32 218.532C982.194 198.814 955.934 176.521 919.827 173.543C897.798 171.692 876.353 178.614 855.637 185.294C852.063 186.42 848.343 187.628 844.695 188.754C808.297 199.941 764.02 212.738 719.962 224.649C646.654 244.769 553.943 265.533 482.532 265.533C460.138 265.533 439.86 263.521 422.864 258.773C393.395 250.564 368.813 234.789 350.65 221.912C335.916 211.45 322.64 200.907 309.729 190.766C306.301 188.03 303.018 185.455 299.736 182.879C266.692 156.964 230.367 132.176 182.443 138.615C135.467 144.892 86.5954 193.02 75.7268 243.723L75.0703 243.562C77.7692 231.168 82.6564 218.774 89.659 206.621C96.4427 194.871 104.904 183.925 114.752 174.187C124.672 164.369 135.467 156.24 146.847 150.043C158.736 143.605 170.626 139.5 182.37 137.89C204.326 134.993 225.407 138.212 246.925 147.87C265.088 155.999 281.354 167.507 300.173 182.316C303.456 184.891 306.665 187.467 310.167 190.203C323.078 200.424 336.353 210.967 351.088 221.349C369.178 234.146 393.76 249.92 423.083 258.129C494.057 277.847 623.677 250.483 719.889 224.005C763.947 212.094 808.224 199.297 844.622 188.11C848.27 186.984 851.917 185.777 855.564 184.65C876.353 177.97 897.798 171.049 919.973 172.9C956.299 175.958 982.631 198.332 1005.83 218.049C1008.23 220.061 1010.5 221.993 1012.76 223.924C1039.38 246.137 1071.26 269.557 1113.05 265.05C1129.39 263.28 1147.19 257.404 1165.86 247.666C1190.81 234.628 1213.93 217.969 1236.4 201.792C1249.75 192.134 1263.61 182.155 1277.69 173.061C1299.21 159.137 1318.61 148.272 1336.99 139.902C1359.53 129.601 1380.61 122.921 1401.4 119.46C1420.29 116.322 1439.84 116.322 1457.86 119.621C1476.46 123.001 1492.51 129.681 1504.32 138.937L1503.96 139.5C1480.54 121.231 1440.28 113.585 1401.47 120.104C1352.23 128.394 1307.45 154.63 1277.98 173.624C1263.9 182.718 1250.11 192.698 1236.69 202.356C1214.3 218.532 1191.1 235.272 1166.08 248.31C1147.34 258.129 1129.47 264.004 1113.05 265.774C1109.55 265.935 1106.05 266.177 1102.55 266.177Z" fill="url(#paint8_linear_24_10442)"/>
<path d="M1083.44 271.084C1049.59 271.084 1021.73 254.103 997.802 237.685C994.738 235.592 991.675 233.419 988.392 231.085C965.196 214.667 938.937 196.076 904.362 193.581C883.281 192.052 862.711 197.847 842.797 203.48C838.567 204.688 834.263 205.895 830.032 207.021C794.436 216.438 750.451 226.739 706.175 235.995C648.476 248.308 592.966 256.678 545.772 260.058C490.189 264.082 445.621 261.426 413.307 252.332C385.443 244.445 361.298 230.522 341.312 217.967C329.787 210.724 319.064 203.561 308.633 196.559C301.85 192.052 295.504 187.787 289.23 183.763C255.895 162.113 219.351 141.752 171.792 150.524C126.275 158.974 78.643 205.653 65.5862 254.666L64.9297 254.425C71.2758 230.683 85.7186 206.7 105.632 187.062C125.764 167.184 149.179 153.904 171.719 149.8C219.497 140.947 256.187 161.389 289.595 183.119C295.868 187.143 302.214 191.408 308.998 195.915C319.429 202.836 330.152 210.08 341.677 217.323C361.59 229.878 385.662 243.721 413.453 251.608C494.42 274.464 631.481 251.205 706.029 235.27C750.305 226.015 794.29 215.713 829.886 206.297C834.117 205.17 838.421 203.963 842.651 202.756C862.565 197.122 883.208 191.328 904.435 192.857C939.156 195.432 965.561 214.023 988.83 230.441C992.039 232.695 995.103 234.868 998.167 237.041C1025.52 255.793 1058.05 275.35 1098.83 269.153C1115.09 266.658 1132.46 260.38 1150.4 250.481C1175.86 236.397 1199.34 218.369 1222.03 200.905C1235.67 190.442 1249.82 179.578 1264.19 169.678C1311.97 136.923 1352.38 118.734 1391.4 112.457C1432.4 105.938 1473.9 115.595 1497.1 137.084L1496.66 137.647C1473.61 116.239 1432.33 106.662 1391.48 113.181C1352.6 119.378 1312.19 137.567 1264.56 170.242C1250.11 180.141 1236.03 190.925 1222.39 201.468C1199.64 218.933 1176.15 236.96 1150.69 251.125C1132.67 261.105 1115.31 267.382 1098.9 269.877C1093.65 270.762 1088.47 271.084 1083.44 271.084Z" fill="url(#paint9_linear_24_10442)"/>
<path d="M1063.09 276.478C1052.22 276.478 1041.35 274.868 1030.05 271.649C1012.98 266.82 997.512 258.933 983.361 251.126C979.349 248.953 975.338 246.62 971.034 244.125C947.984 230.845 921.797 215.876 888.973 213.864C868.913 212.657 849.219 217.405 830.18 221.992C825.293 223.2 820.333 224.407 815.446 225.453C779.339 233.421 736.813 241.066 692.463 247.505C638.048 255.714 583.851 260.14 535.781 260.382C482.241 260.623 437.818 255.794 403.9 246.056C376.692 238.25 352.62 225.534 332.123 214.266C325.559 210.645 319.212 207.103 313.085 203.643C301.122 196.882 289.743 190.524 278.948 184.891C246.926 168.231 208.849 151.411 161.363 162.758C116.576 173.543 71.1322 217.888 55.7412 265.935L55.0117 265.693C62.379 242.756 77.1865 219.497 96.6623 200.343C116.43 180.867 139.334 167.265 161.217 162.034C182.371 156.964 203.014 156.964 224.386 162.115C244.737 167.024 263.557 176.038 279.24 184.247C290.035 189.881 301.414 196.239 313.377 202.999C319.504 206.46 325.923 210.001 332.415 213.622C352.839 224.89 376.838 237.606 404.046 245.412C469.038 264.084 574.149 264.567 692.318 246.861C736.667 240.423 779.193 232.777 815.227 224.809C820.114 223.763 825.074 222.556 829.962 221.349C849.073 216.761 868.767 211.932 888.973 213.22C921.943 215.232 948.203 230.282 971.326 243.561C975.556 245.976 979.568 248.31 983.653 250.483C1011.59 265.774 1044.78 281.468 1084.68 273.581C1100.65 270.442 1118.09 263.52 1135.01 253.621C1160.98 238.491 1184.76 219.095 1207.81 200.343C1221.74 188.995 1236.11 177.326 1250.92 166.622C1299.64 131.291 1341.22 112.056 1381.63 105.859C1402.06 102.72 1422.99 103.766 1442.1 108.756C1462.02 113.987 1478.65 123.242 1490.03 135.556L1489.52 136.119C1466.83 111.653 1424.52 100.064 1381.7 106.583C1341.37 112.699 1299.94 132.015 1251.28 167.185C1236.55 177.889 1222.18 189.559 1208.25 200.906C1185.2 219.658 1161.42 239.054 1135.38 254.185C1118.38 264.084 1100.87 271.005 1084.83 274.224C1077.6 275.754 1070.38 276.478 1063.09 276.478Z" fill="url(#paint10_linear_24_10442)"/>
<path d="M1041.28 282.271C1033.18 282.271 1024.94 281.466 1016.55 279.857C999.263 276.637 983.434 270.521 968.918 264.485C963.739 262.312 958.487 259.978 952.944 257.483C930.258 247.262 904.509 235.673 873.581 234.144C854.616 233.178 835.87 237.041 817.78 240.663C812.236 241.789 806.401 242.996 800.857 243.962C764.458 250.401 722.297 255.632 678.75 259.093C627.762 263.358 574.878 263.921 525.861 260.783C475.53 257.483 430.086 250.32 394.49 239.938C368.376 232.292 344.232 220.784 323.005 210.643C303.092 201.146 285.293 192.696 268.662 186.097C234.379 172.415 196.376 161.55 150.932 175.071C107.676 187.948 63.4728 230.924 45.8935 277.281L45.1641 276.959C53.5525 254.827 68.7248 232.293 87.763 213.54C107.166 194.467 129.487 180.543 150.713 174.185C171.502 167.988 191.926 166.379 213.225 169.276C234.452 172.173 254.147 179.336 268.954 185.211C285.585 191.891 303.383 200.261 323.297 209.758C344.523 219.898 368.595 231.407 394.708 238.972C466.485 259.897 572.69 267.06 678.677 258.127C722.151 254.666 764.312 249.435 800.711 242.996C806.328 242.031 812.09 240.823 817.634 239.697C835.797 235.995 854.543 232.212 873.654 233.178C904.655 234.707 930.477 246.377 953.235 256.598C958.779 259.093 963.958 261.427 969.137 263.6C997.585 275.511 1031.21 287.341 1070.6 277.684C1086.5 273.74 1103.43 266.416 1119.69 256.437C1146.17 240.18 1170.24 219.496 1193.51 199.537C1207.73 187.384 1222.4 174.749 1237.57 163.24C1260.25 145.937 1281.12 132.577 1301.25 122.356C1325.76 109.881 1348.81 102.236 1371.86 98.9358C1392.72 95.8775 1414.89 97.4067 1434.3 103.201C1454.87 109.318 1471.72 119.941 1482.95 133.784L1482.37 134.347C1460.41 107.225 1415.99 93.3826 1371.93 99.7406C1330.13 105.777 1287.61 126.219 1238.01 163.884C1222.91 175.393 1208.25 187.948 1194.02 200.1C1170.68 220.059 1146.54 240.743 1120.06 257.081C1103.79 267.141 1086.72 274.464 1070.75 278.408C1060.97 281.064 1051.2 282.271 1041.28 282.271Z" fill="url(#paint11_linear_24_10442)"/>
<path d="M1016.84 288.711C993.936 288.711 973.075 283.399 954.474 277.846C947.763 275.834 940.979 273.581 933.831 271.166C911.802 263.762 886.856 255.392 858.262 254.265C840.464 253.622 822.811 256.519 805.815 259.336C799.396 260.382 792.759 261.509 786.267 262.313C749.43 267.223 707.561 270.04 665.035 270.523C572.689 271.891 468.015 258.048 385.078 233.501C363.925 227.224 344.084 219.095 324.973 211.289C321.326 209.76 317.533 208.23 313.813 206.782C291.492 197.768 273.84 191.49 258.376 187.064C225.989 177.809 186.6 170.646 140.499 187.144C98.7758 202.114 55.8122 243.722 35.9716 288.389L35.2422 287.987C55.0828 243.159 98.2652 201.309 140.208 186.259C160.705 178.935 180.91 175.636 201.991 176.36C218.986 176.923 237.003 180.062 258.522 186.179C274.059 190.605 291.711 196.883 314.032 205.896C317.752 207.426 321.472 208.955 325.192 210.403C344.376 218.291 364.144 226.339 385.224 232.616C468.088 257.163 572.689 270.925 664.962 269.557C707.415 269.074 749.284 266.257 786.048 261.348C792.467 260.462 799.105 259.416 805.524 258.37C822.592 255.553 840.318 252.656 858.189 253.3C886.928 254.346 911.948 262.796 933.977 270.201C941.125 272.615 947.909 274.868 954.62 276.881C983.432 285.411 1017.5 293.54 1056.45 281.951C1072.2 277.283 1088.76 269.476 1104.3 259.416C1131.22 242.032 1155.58 220.061 1179.21 198.895C1193.73 185.857 1208.75 172.416 1224.22 160.022C1247.34 141.592 1268.64 127.428 1289.28 116.563C1314.45 103.444 1338.16 95.3963 1362.01 92.0966C1383.67 89.1188 1406.5 91.1308 1426.49 97.7303C1447.79 104.813 1464.86 116.724 1475.87 132.096L1475.22 132.659C1453.63 102.559 1408.18 86.6239 1362.08 92.9819C1318.83 98.9375 1275.21 120.506 1224.66 160.666C1209.19 172.98 1194.17 186.42 1179.72 199.458C1156.09 220.624 1131.65 242.596 1104.74 260.06C1089.13 270.201 1072.5 278.007 1056.67 282.675C1042.74 287.102 1029.46 288.711 1016.84 288.711Z" fill="url(#paint12_linear_24_10442)"/>
<path d="M25.9782 299.656L25.1758 299.173C35.8255 278.329 51.2166 257.726 69.6712 239.778C88.6365 221.268 109.352 207.023 129.558 198.411C149.763 189.88 169.749 184.971 190.684 183.522C208.482 182.235 226.718 183.442 248.018 187.144C265.013 190.122 283.541 195.031 304.695 202.033C313.375 204.93 321.909 207.989 331.027 211.208C345.47 216.359 360.35 221.67 375.741 226.258C444.6 246.941 548.034 275.109 651.248 280.985C692.607 283.479 734.185 283.077 771.459 279.777C778.972 279.134 786.704 278.168 794.217 277.202C810.046 275.19 826.385 273.178 842.798 273.58C868.765 274.224 891.378 279.455 913.188 284.526C922.525 286.699 931.424 288.711 940.177 290.32C971.324 295.954 1005.32 299.334 1042.37 286.457C1057.91 281.065 1074.03 272.776 1088.98 262.635C1116.26 244.044 1140.99 220.946 1164.92 198.572C1179.72 184.649 1195.11 170.323 1210.94 157.125C1234.43 137.568 1256.24 122.518 1277.47 111.09C1302.92 97.4079 1328.02 88.877 1352.23 85.6577C1374.63 82.6799 1398.19 85.1748 1418.69 92.6595C1440.64 100.708 1457.93 113.906 1468.8 130.807L1468.07 131.371C1446.84 98.2932 1400.3 80.2655 1352.31 86.6235C1307.59 92.4986 1262.88 115.194 1211.45 157.849C1195.62 170.967 1180.31 185.373 1165.5 199.216C1141.57 221.59 1116.85 244.768 1089.49 263.359C1074.47 273.58 1058.27 281.87 1042.66 287.343C1025.59 293.298 1008.16 296.276 989.414 296.356C989.122 296.356 988.83 296.356 988.538 296.356C970.448 296.356 953.161 293.701 940.031 291.286C931.278 289.676 922.379 287.665 913.042 285.492C891.232 280.421 868.692 275.27 842.798 274.627C826.458 274.224 810.119 276.317 794.29 278.248C786.777 279.214 779.045 280.18 771.532 280.824C734.258 284.123 692.607 284.606 651.248 282.031C607.045 279.536 558.173 272.534 505.872 261.347C466.118 252.816 423.519 241.71 375.596 227.304C360.204 222.716 345.324 217.405 330.881 212.254C321.836 209.035 313.302 205.976 304.622 203.079C283.541 195.997 265.013 191.168 248.018 188.19C217.892 182.879 177.336 179.418 130.068 199.377C89.8036 216.278 48.007 256.599 25.9782 299.656Z" fill="url(#paint13_linear_24_10442)"/>
<path d="M16.0602 310.841L15.2578 310.278C27.0746 290.158 42.7574 270.279 60.7015 252.895C79.302 234.787 99.5073 220.14 119.056 210.562C139.116 200.744 158.883 194.225 179.453 190.684C197.762 187.545 216.8 186.74 237.662 188.189C255.825 189.476 274.717 192.776 295.506 198.329C310.459 202.273 325.194 207.021 340.804 212.011C349.119 214.667 357.727 217.403 366.334 220.059C383.184 225.21 400.544 230.763 418.853 236.638C485.888 258.126 561.968 282.512 637.537 292.572C677.802 298.045 719.015 299.976 756.799 298.286C765.771 297.884 774.962 297.079 783.934 296.274C798.085 294.987 812.747 293.699 827.336 293.86C849.656 294.101 869.862 296.838 889.483 299.574C902.03 301.264 913.919 302.874 925.59 303.759C955.278 305.932 990.729 306.013 1028.22 290.882C1043.54 284.685 1059.22 275.993 1073.59 265.772C1101.24 246.054 1126.26 221.669 1150.47 198.168C1165.65 183.36 1181.33 168.069 1197.6 154.065C1221.52 133.381 1243.77 117.527 1265.58 105.454C1278.13 98.5331 1290.74 92.819 1302.93 88.5535C1316.13 83.8856 1329.4 80.7469 1342.39 79.0568C1365.51 76.1595 1389.8 79.1372 1410.81 87.4268C1433.42 96.3601 1451 110.847 1461.72 129.357L1460.92 129.921C1436.78 88.2316 1384.04 74.8718 1342.53 80.103C1297.02 85.8172 1249.82 110.283 1198.18 154.87C1181.99 168.873 1166.3 184.165 1151.13 198.893C1126.91 222.473 1101.89 246.859 1074.18 266.577C1059.73 276.879 1043.98 285.57 1028.59 291.848C1011.81 298.608 994.522 302.874 975.848 304.725C961.114 306.173 945.139 306.254 925.59 304.805C913.919 303.92 902.03 302.31 889.483 300.62C869.934 297.964 849.729 295.228 827.481 294.987C812.893 294.826 798.304 296.113 784.153 297.401C775.181 298.206 765.917 299.011 756.945 299.413C719.088 301.184 677.802 299.172 637.537 293.699C561.895 283.639 485.815 259.253 418.707 237.765C400.398 231.89 383.038 226.337 366.188 221.186C357.581 218.53 348.973 215.794 340.658 213.138C325.048 208.148 310.313 203.4 295.433 199.456C274.717 193.983 255.825 190.684 237.735 189.396C194.48 186.257 156.987 193.339 119.64 211.689C80.3962 230.683 40.788 268.75 16.0602 310.841Z" fill="url(#paint14_linear_24_10442)"/>
<path d="M6.13832 322.11L5.33594 321.466C32.6167 280.582 71.2038 243.641 108.551 222.716C128.464 211.53 148.013 203.401 168.218 197.848C187.329 192.617 206.587 189.8 227.23 189.236C246.049 188.753 265.889 190.524 286.241 194.548C309.364 199.055 331.976 206.057 355.901 213.461L356.85 213.783C388.215 223.521 420.456 235.915 454.594 249.034C509.374 270.12 565.978 291.849 623.822 304.082C669.412 313.821 708.145 318.006 742.136 316.718C749.868 316.396 757.746 315.994 765.405 315.672C780.577 314.867 796.26 314.143 811.87 314.062C828.72 314.062 844.768 314.867 860.232 315.672C877.957 316.637 894.661 317.523 910.927 317.04C938.719 316.155 975.482 312.935 1013.92 295.149C1029.17 288.067 1044.05 279.214 1058.05 268.671C1086.06 247.746 1111.3 222.233 1135.81 197.606C1151.35 181.913 1167.4 165.736 1184.1 150.847C1208.39 129.037 1231.15 112.297 1253.54 99.6612C1266.38 92.418 1279.29 86.4624 1291.91 81.9555C1305.48 77.1266 1319.12 73.8269 1332.47 72.2978C1356.39 69.4005 1381.41 72.8611 1402.86 82.036C1426.13 91.9351 1443.92 107.709 1454.5 127.749L1453.63 128.312C1433.42 89.8426 1383.6 67.308 1332.54 73.4245C1285.64 79.0582 1237.28 104.732 1184.68 151.732C1168.05 166.621 1152 182.798 1136.47 198.492C1111.96 223.199 1086.65 248.712 1058.64 269.637C1044.56 280.18 1029.61 289.113 1014.29 296.195C975.701 314.062 938.792 317.281 910.927 318.167C894.588 318.649 877.811 317.764 860.159 316.798C844.841 315.994 829.085 315.189 812.454 315.189C812.235 315.189 812.016 315.189 811.797 315.189C796.187 315.189 780.577 315.994 765.405 316.798C757.746 317.201 749.795 317.603 742.063 317.845C707.926 319.132 669.193 314.947 623.531 305.209C565.614 292.976 508.937 271.166 454.156 250.08C420.019 236.961 387.851 224.567 356.485 214.91L355.537 214.588C331.611 207.184 308.999 200.182 285.949 195.675C265.671 191.651 245.83 189.88 227.084 190.444C184.922 191.57 147.357 202.194 108.843 223.843C71.7873 244.527 33.3462 281.387 6.13832 322.11Z" fill="url(#paint15_linear_24_10442)"/>
<path d="M743.525 336.437C738.2 336.437 732.802 336.357 727.55 336.115C688.088 334.506 648.479 327.906 609.892 316.559C561.75 302.394 514.628 280.423 469.039 259.176C426.878 239.538 387.124 221.028 347.151 208.473C328.039 202.517 302.801 195.193 276.906 191.813C256.628 189.157 236.423 188.996 216.947 191.411C176.317 196.32 137.584 210.887 98.5598 235.917C63.1823 258.371 26.8565 292.978 -3.77966 333.379L-4.58203 332.655C9.71486 313.822 26.0542 295.312 42.6852 279.215C61.0669 261.429 79.6675 246.54 97.9763 234.951C137.147 209.841 176.026 195.274 216.801 190.365C236.35 188.031 256.628 188.111 276.979 190.767C302.947 194.147 328.258 201.471 347.442 207.507C387.415 220.062 427.242 238.573 469.404 258.29C514.92 279.537 562.042 301.428 610.111 315.593C648.625 327.021 688.161 333.54 727.55 335.15C743.014 335.793 758.989 335.311 774.453 334.828C781.674 334.586 789.114 334.425 796.481 334.264C803.63 334.184 810.705 334.103 817.562 334.023C845.208 333.781 871.321 333.54 896.487 330.401C936.533 325.25 969.43 315.432 999.92 299.497C1014.87 291.69 1029.32 282.354 1042.81 271.731C1071.04 249.679 1096.64 223.04 1121.37 197.286C1137.27 180.707 1153.76 163.484 1170.83 147.71C1195.55 124.853 1218.68 107.228 1241.65 93.9486C1254.86 86.3029 1268.06 80.1059 1280.97 75.5185C1294.9 70.5287 1308.91 67.1485 1322.69 65.6193C1347.35 62.8025 1373.1 66.7461 1395.13 76.7257C1419.05 87.5906 1437.14 104.653 1447.43 126.141L1446.48 126.704C1423.28 78.4158 1366.1 61.7563 1322.77 66.7461C1274.41 72.2992 1224.95 99.0993 1171.48 148.595C1154.41 164.369 1138 181.512 1122.03 198.171C1097.3 223.925 1071.7 250.645 1043.39 272.777C1029.83 283.4 1015.31 292.736 1000.29 300.623C969.722 316.639 936.751 326.458 896.56 331.608C871.394 334.828 845.208 335.069 817.562 335.23C810.705 335.311 803.63 335.311 796.481 335.472C789.114 335.552 781.674 335.793 774.453 336.035C764.313 336.115 753.883 336.437 743.525 336.437Z" fill="url(#paint16_linear_24_10442)"/>
<path d="M751.62 355.99C738.782 355.99 725.798 355.588 712.96 354.542C672.914 351.242 633.67 342.309 596.178 327.983C554.308 312.048 513.46 289.272 473.997 267.22C427.533 241.305 383.694 216.839 337.812 202.191C312.282 194.143 289.378 189.476 267.787 188.027C247.217 186.659 226.647 188.188 206.66 192.373C167.417 200.582 128.684 218.771 88.1273 247.985C55.2299 271.566 20.9466 304 -13.7015 344.562L-14.5039 343.757C20.2171 303.195 54.5005 270.6 87.4708 247.019C128.173 217.724 167.052 199.536 206.441 191.246C226.501 186.981 247.144 185.532 267.787 186.82C289.451 188.268 312.428 192.936 338.031 201.065C384.058 215.793 430.013 241.386 474.435 266.174C513.897 288.225 554.673 310.921 596.469 326.856C633.889 341.101 673.06 350.035 712.96 353.334C735.791 355.266 759.206 354.864 781.089 354.22C822.594 353.013 853.667 349.713 881.969 343.516C920.629 335.065 954.548 321.947 985.768 303.597C1000.28 295.066 1014.36 285.248 1027.49 274.544C1055.94 251.285 1081.76 223.599 1106.78 196.799C1123.12 179.254 1140.04 161.066 1157.55 144.326C1212.11 92.1742 1262.95 64.0864 1312.92 58.6137C1338.3 55.7969 1364.78 60.2233 1387.32 71.0882C1411.9 82.9189 1430.21 101.269 1440.35 124.286L1439.33 124.849C1416.5 73.1003 1357.85 54.9116 1312.99 59.8209C1263.24 65.2936 1212.62 93.2205 1158.21 145.211C1140.7 161.951 1123.78 180.059 1107.44 197.604C1082.42 224.404 1056.6 252.17 1028.07 275.51C1014.95 286.294 1000.87 296.032 986.278 304.644C954.986 323.074 920.921 336.192 882.188 344.643C853.813 350.84 822.667 354.22 781.089 355.427C771.533 355.749 761.613 355.99 751.62 355.99Z" fill="url(#paint17_linear_24_10442)"/>
<path d="M748.046 376.114C729.153 376.114 710.261 374.746 691.587 372.09C653.438 366.617 616.675 355.672 582.318 339.495C545.044 321.951 508.937 298.128 473.997 275.03C406.598 230.524 336.937 184.57 258.45 184.328C258.231 184.328 258.012 184.328 257.793 184.328C150.567 184.328 59.971 268.994 -23.7679 355.833L-24.5703 354.948C13.3602 315.593 57.8557 270.845 105.561 237.607C158.372 200.907 208.119 183.041 257.72 183.041C257.939 183.041 258.158 183.041 258.45 183.041C277.415 183.121 296.162 185.697 315.783 191.008C333.29 195.676 351.088 202.437 370.199 211.611C405.722 228.593 440.735 251.691 474.508 273.984C509.448 297.001 545.555 320.824 582.683 338.369C635.348 363.157 692.098 375.309 748.702 375.309C842.799 375.309 936.677 341.91 1011.95 277.686C1040.55 253.3 1066.59 224.569 1091.83 196.722C1108.6 178.212 1126.04 158.977 1144.05 141.271C1199.56 86.6247 1251.5 57.4102 1303 52.018C1329.19 49.2816 1356.32 54.191 1379.37 65.8607C1404.61 78.5766 1423.21 98.2944 1433.13 122.841L1432.11 123.324C1409.64 68.1946 1349.46 48.3159 1303.07 53.2252C1251.87 58.6174 1200.08 87.671 1144.78 142.156C1126.77 159.862 1109.41 179.017 1092.63 197.608C1067.39 225.454 1041.35 254.186 1012.68 278.652C983.142 303.842 950.099 324.687 914.429 340.622C879.489 356.155 842.653 366.778 804.795 372.171C785.976 374.746 766.938 376.114 748.046 376.114Z" fill="url(#paint18_linear_24_10442)"/>
</g>
<g opacity="0.5">
<path d="M832.516 466.17C785.467 466.17 740.17 443.957 698.008 419.733C587.499 356.072 485.379 276.155 394.564 181.992C392.23 179.578 389.823 177.083 387.562 174.669C368.45 154.709 348.683 134.106 325.56 119.459C296.455 101.029 265.236 95.4755 239.778 104.248C196.45 119.217 173.4 170.323 155.164 217.002L154.945 216.921C164.063 193.582 174.275 169.196 187.697 148.754C202.942 125.495 219.938 110.847 239.705 104.006C253.2 99.3386 268.007 98.6143 283.69 101.753C297.622 104.57 312.138 110.606 325.706 119.217C348.829 133.865 368.596 154.548 387.707 174.508C389.969 176.922 392.376 179.337 394.71 181.831C485.524 275.994 587.645 355.911 698.154 419.572C742.941 445.406 791.376 468.826 841.488 465.768C903.49 461.985 957.614 418.606 1006.78 372.249C1010.42 368.788 1014.14 365.247 1017.79 361.867C1062.14 319.775 1108.1 276.316 1164.55 260.3C1205.91 248.55 1250.92 251.689 1302.05 269.958C1348.15 286.376 1393.74 313.176 1432.91 337.079L1432.77 337.32C1362.3 294.424 1288.27 253.701 1214.96 253.701C1198.11 253.701 1181.33 255.874 1164.63 260.622C1108.17 276.638 1062.36 320.097 1017.94 362.189C1014.36 365.569 1010.57 369.11 1006.92 372.571C985.04 393.174 958.781 416.674 929.822 434.863C899.113 454.178 870.228 464.4 841.488 466.17C838.424 466.009 835.434 466.17 832.516 466.17Z" fill="url(#paint19_linear_24_10442)"/>
<path d="M812.381 458.445C795.385 458.445 777.806 455.87 759.06 450.719C737.76 444.844 715.221 435.589 688.159 421.746C625.282 389.634 561.164 346.094 497.485 292.333C458.387 259.416 419.217 222.476 381.14 182.557C378.952 180.223 376.764 177.97 374.575 175.636C355.172 155.194 335.04 134.027 311.844 118.655C309.875 117.368 307.905 116.08 305.936 114.953C278.582 98.6157 250.207 93.2235 226.136 99.8229C181.859 111.976 156.839 159.379 136.78 202.919L136.488 202.758C156.621 159.218 181.713 111.734 226.063 99.501C250.207 92.9016 278.582 98.2938 306.009 114.631C307.978 115.839 310.02 117.046 311.99 118.334C335.259 133.705 355.391 154.872 374.794 175.314C376.982 177.648 379.171 179.982 381.359 182.235C419.435 222.154 458.606 259.094 497.704 292.011C561.383 345.692 625.5 389.232 688.305 421.344C727.621 441.464 779.703 463.677 833.462 456.675C895.026 448.627 949.15 403.316 995.031 361.386C996.782 359.776 998.532 358.247 1000.21 356.637C1049.88 311.166 1101.24 264.245 1163.82 250.242C1170.9 248.632 1178.34 247.425 1186.07 246.7C1224.88 242.837 1266.23 250.966 1312.48 271.65C1356.17 291.206 1398.7 319.777 1430.87 342.473L1430.72 342.714C1353.26 288.068 1270.03 238.572 1186.14 247.022C1178.48 247.827 1170.97 248.954 1163.97 250.564C1101.46 264.487 1050.1 311.487 1000.43 356.879C998.678 358.488 997.001 360.017 995.25 361.627C973.148 381.828 946.816 404.845 919.17 422.712C889.117 442.188 861.107 453.375 833.535 456.916C826.605 458.043 819.53 458.445 812.381 458.445Z" fill="url(#paint20_linear_24_10442)"/>
<path d="M790.281 451.845C777.443 451.845 764.313 450.557 750.6 447.901C728.352 443.636 704.718 435.748 678.386 423.918C645.999 409.351 612.445 390.438 578.818 367.823C548.182 347.22 516.525 322.914 484.648 295.551C446.207 262.634 407.985 225.935 367.793 183.361C365.751 181.188 363.708 179.015 361.666 176.842C341.898 155.836 321.474 134.106 298.059 118.01C296.09 116.642 294.12 115.354 292.151 114.147C265.016 97.1656 236.714 90.5661 212.424 95.556C166.907 104.892 139.991 148.673 118.327 188.914L118.035 188.753C128.466 169.437 141.158 147.225 156.987 129.599C173.983 110.606 192.073 99.3386 212.351 95.234C236.714 90.2442 265.089 96.8437 292.297 113.906C294.266 115.113 296.309 116.481 298.278 117.769C321.766 133.865 342.19 155.595 361.958 176.6C364 178.773 366.042 180.946 368.085 183.119C408.277 225.693 446.499 262.393 484.94 295.309C551.61 352.612 616.749 395.749 678.605 423.596C735.063 449.028 781.746 456.754 825.585 448.062C884.086 436.392 936.022 393.255 988.468 346.334L993.866 341.505C1022.97 315.591 1047.7 294.907 1074.1 277.765C1105.18 257.644 1134.35 245.492 1163.39 240.663C1170.46 239.456 1177.9 238.731 1186 238.329C1206.42 237.363 1227.94 239.778 1249.9 245.572C1269.81 250.803 1290.89 258.932 1312.41 269.797C1347.71 287.583 1384.77 312.532 1429.05 348.346L1428.83 348.668C1364.86 296.999 1281.04 238.49 1194.82 238.49C1191.91 238.49 1188.92 238.57 1186 238.731C1177.9 239.134 1170.53 239.858 1163.46 241.065C1099.78 251.608 1047.04 294.746 994.085 341.827L988.687 346.656C964.47 368.306 938.575 391.001 911.44 409.512C880.949 430.276 852.866 442.992 825.585 448.464C814.06 450.637 802.317 451.845 790.281 451.845Z" fill="url(#paint21_linear_24_10442)"/>
<path d="M766.281 446.371C758.404 446.371 750.38 445.888 742.21 445.003C718.868 442.428 694.797 436.231 668.683 426.01C636.005 413.213 601.94 395.185 567.438 372.409C536.729 352.128 504.561 327.34 471.882 298.769C434.754 266.416 396.313 228.912 354.516 184.084C352.62 182.072 350.796 180.06 348.973 178.129C328.84 156.56 308.124 134.186 284.418 117.446C282.448 116.078 280.479 114.71 278.509 113.422C251.593 95.8773 223.364 87.9902 198.855 91.2899C153.995 97.2455 124.891 134.991 100.017 174.909L99.6523 174.668C110.156 157.767 124.38 136.359 141.668 120.022C159.466 103.121 178.139 93.6238 198.782 90.807C211.547 89.0364 225.261 90.3241 239.412 94.4286C252.542 98.2917 265.744 104.489 278.655 112.939C280.625 114.227 282.667 115.595 284.637 116.963C308.343 133.784 329.132 156.077 349.264 177.726C351.088 179.738 352.985 181.75 354.808 183.682C396.678 228.51 435.046 266.014 472.174 298.367C542.127 359.613 606.463 401.221 668.829 425.607C723.391 446.935 772.117 451.441 817.634 439.208C876.718 423.354 928.58 377.802 978.765 333.779L981.902 331.042C983.726 329.433 985.622 327.823 987.446 326.213C1039.45 281.144 1096.79 238.328 1162.87 231.005C1170.1 230.2 1177.61 229.797 1185.85 229.878C1206.42 229.958 1228.01 233.499 1249.97 240.34C1270.03 246.618 1290.96 255.873 1312.26 267.865C1348.3 288.146 1385.86 316.395 1427.22 354.221L1426.93 354.543C1335.9 271.245 1257.04 230.602 1185.85 230.28C1177.61 230.2 1170.1 230.602 1162.87 231.407C1096.86 238.811 1039.67 281.466 987.665 326.535C985.841 328.145 983.944 329.755 982.121 331.364L978.984 334.1C954.329 355.75 928.799 378.204 902.029 397.197C871.758 418.686 844.185 432.528 817.707 439.691C800.857 444.118 783.861 446.371 766.281 446.371Z" fill="url(#paint22_linear_24_10442)"/>
<path d="M740.534 442.268C714.274 442.268 687.212 437.52 658.91 428.103C625.867 417.078 591.292 399.855 555.987 376.918C524.622 356.556 492.964 332.009 459.046 301.829C422.793 269.717 385.3 232.455 341.096 184.729C339.419 182.959 337.814 181.188 336.136 179.337C315.639 157.125 294.486 134.107 270.56 116.643C268.591 115.194 266.621 113.826 264.652 112.458C238.027 94.269 209.725 85.1747 185.071 86.8648C138.387 90.0035 106.511 126.059 81.5639 160.907L81.1992 160.585C97.7574 137.487 111.69 122.035 126.278 110.365C144.806 95.6372 164.063 87.7501 185.071 86.3014C197.909 85.4161 211.622 87.4281 225.7 92.096C238.83 96.5225 252.033 103.202 264.871 111.975C266.84 113.343 268.882 114.711 270.852 116.16C294.777 133.705 316.004 156.722 336.501 178.935C338.179 180.705 339.783 182.476 341.461 184.327C385.592 232.133 423.085 269.315 459.337 301.427C531.26 365.409 596.544 406.696 658.983 427.621C712.597 445.568 761.833 446.453 809.611 430.357C864.246 411.927 913.483 369.272 961.042 327.985C965.71 323.961 970.524 319.776 975.193 315.672C977.089 313.982 979.059 312.372 980.882 310.762C1013.34 283.399 1040.84 264.003 1067.47 249.758C1100.14 232.294 1131.15 222.958 1162.22 221.107C1169.51 220.704 1177.17 220.704 1185.63 221.187C1206.42 222.314 1228.01 226.901 1249.9 234.869C1270.1 242.193 1290.96 252.575 1312.05 265.693C1348.44 288.389 1386.59 320.018 1425.25 359.775L1424.96 360.178C1339.47 272.293 1258.94 225.694 1185.63 221.67C1177.17 221.187 1169.59 221.187 1162.29 221.59C1090.74 225.775 1027.93 271.649 981.247 311.165C979.35 312.774 977.454 314.384 975.558 316.074C970.889 320.098 966.002 324.283 961.406 328.388C913.774 369.674 864.611 412.41 809.83 430.84C787.218 438.485 764.168 442.268 740.534 442.268Z" fill="url(#paint23_linear_24_10442)"/>
<path d="M714.932 439.611C693.414 439.611 671.312 436.473 649.21 430.276C615.802 420.94 580.644 404.522 544.683 381.504C513.025 361.304 480.857 336.274 446.355 305.047C411.05 273.258 374.506 236.397 327.895 185.453C326.509 183.924 325.123 182.395 323.664 180.866C302.802 158.009 281.211 134.348 256.994 115.998C255.025 114.549 253.055 113.02 251.086 111.652C224.68 92.9001 196.451 82.5985 171.577 82.5985C122.851 82.5985 89.5162 115.113 63.3296 146.983L62.9648 146.581C80.1795 125.656 95.4976 111.169 111.107 100.868C130.364 88.2322 150.205 82.0352 171.65 82.0352C184.561 82.0352 198.202 84.691 212.28 90.0027C225.483 94.9926 238.612 102.075 251.45 111.169C253.42 112.537 255.462 114.067 257.432 115.515C281.649 133.865 303.24 157.526 324.175 180.463C325.561 181.992 326.947 183.521 328.406 185.051C374.943 235.914 411.488 272.855 446.793 304.565C520.174 371.122 586.479 412.006 649.283 429.632C701.948 444.44 751.842 441.784 801.808 421.503C852.139 401.061 898.458 361.062 943.245 322.27C951.633 315.027 960.314 307.542 968.775 300.38C970.745 298.689 972.714 297.08 974.683 295.47C1006.85 268.912 1036.25 249.435 1064.4 235.834C1080.45 228.108 1096.5 222.152 1112.04 218.128C1128.67 213.863 1145.44 211.609 1161.86 211.448C1169.22 211.368 1176.96 211.77 1185.64 212.736C1226.19 217.001 1268.65 234.144 1311.97 263.761C1349.1 289.112 1386.59 323.397 1423.5 365.649L1423.14 366.052C1367.12 301.828 1280.46 223.279 1185.56 213.299C1176.96 212.414 1169.15 212.012 1161.86 212.012C1103.21 212.495 1043.83 239.134 974.902 295.953C973.006 297.563 971.036 299.172 968.994 300.862C960.533 308.025 951.852 315.51 943.464 322.753C898.677 361.545 852.357 401.544 801.881 422.066C776.642 432.288 750.893 438.082 725.217 439.289C721.862 439.531 718.361 439.611 714.932 439.611Z" fill="url(#paint24_linear_24_10442)"/>
<path d="M690.056 438.162C673.206 438.162 656.283 436.231 639.434 432.368C622 428.344 603.91 422.307 585.747 414.259C568.679 406.694 551.026 397.197 533.228 386.091C501.206 365.971 468.6 340.539 433.515 308.266C390.405 268.831 349.192 224.405 314.544 186.177L311.189 182.475C289.816 158.894 267.787 134.508 243.278 115.273C241.309 113.744 239.339 112.215 237.37 110.766C210.746 91.1289 183.319 79.8616 157.935 78.252C117.889 75.5961 83.0219 92.4971 44.9455 132.898L44.5078 132.416C62.5248 113.261 78.7912 100.143 95.714 91.2094C115.701 80.5859 136.052 76.1595 157.935 77.6081C170.919 78.4934 184.559 81.8736 198.564 87.7487C211.767 93.3019 224.897 100.867 237.662 110.283C239.631 111.732 241.674 113.261 243.643 114.79C268.225 134.025 290.254 158.411 311.626 182.072L314.982 185.774C349.63 224.003 390.843 268.428 433.879 307.783C508.938 376.755 576.192 417.318 639.506 431.804C691.369 443.635 741.846 437.438 793.855 412.811C840.028 390.92 883.283 353.335 925.153 316.958C937.334 306.415 949.88 295.47 962.135 285.249C964.177 283.558 966.22 281.868 968.189 280.259C1000.72 254.022 1031.14 234.948 1061.12 221.91C1077.6 214.747 1094.16 209.436 1110.28 206.056C1127.35 202.514 1144.49 201.066 1161.34 201.79C1168.78 202.112 1176.66 202.917 1185.49 204.285C1226.55 210.562 1269.08 229.878 1311.83 261.748C1349.46 289.756 1386.37 326.696 1421.6 371.524L1421.17 371.926C1345.74 275.832 1262 216.518 1185.41 204.848C1176.59 203.48 1168.71 202.675 1161.34 202.353C1100.22 199.778 1037.19 225.451 968.554 280.742C966.584 282.351 964.542 284.041 962.5 285.651C950.245 295.872 937.699 306.737 925.517 317.36C883.648 353.738 840.392 391.403 794.073 413.294C768.251 425.527 742.284 433.333 716.826 436.472C708 437.599 699.028 438.162 690.056 438.162Z" fill="url(#paint25_linear_24_10442)"/>
<path d="M666.789 437.759C654.389 437.759 642.061 436.632 629.661 434.459C611.935 431.32 593.627 425.848 575.099 418.122C557.812 410.959 539.867 401.623 521.778 390.517C489.391 370.477 456.274 344.562 420.678 311.324C377.642 271.405 336.429 226.094 301.197 186.82L298.936 184.244C277.053 159.859 254.513 134.668 229.567 114.548C227.597 112.938 225.628 111.409 223.585 109.88C197.18 89.6795 169.68 77.205 144.223 73.8248C102.864 68.3521 65.4441 82.6777 26.4923 118.814L26.0547 118.25C44.6552 101.027 62.3805 88.9552 80.3245 81.4705C100.895 72.859 121.829 70.1227 144.296 73.1005C157.353 74.7906 170.993 78.9756 184.925 85.3336C198.128 91.4501 211.258 99.4982 224.023 109.236C225.992 110.765 228.035 112.295 230.004 113.904C254.951 134.024 277.563 159.295 299.446 183.681L301.708 186.256C336.939 225.531 378.152 270.761 421.116 310.68C497.56 381.986 565.762 422.226 629.734 433.654C680.94 442.749 732.073 433.011 785.905 403.796C828.067 380.94 868.185 345.608 906.991 311.485C922.893 297.481 939.378 282.994 955.499 269.796C957.541 268.105 959.656 266.415 961.699 264.806C994.232 239.132 1026.62 219.978 1057.77 207.825C1074.76 201.226 1091.76 196.478 1108.46 193.822C1125.97 191.005 1143.55 190.361 1160.76 191.89C1168.35 192.534 1176.37 193.741 1185.34 195.592C1226.92 203.962 1269.45 225.451 1311.68 259.494C1330.94 275.027 1350.12 293.215 1368.72 313.577C1386.37 332.892 1403.59 354.3 1419.78 377.076L1419.27 377.559C1347.35 276.556 1264.19 212.171 1185.27 196.317C1176.3 194.546 1168.35 193.339 1160.76 192.614C1096.5 186.9 1031.51 210.723 962.136 265.369C960.094 266.979 957.979 268.669 955.936 270.359C939.816 283.558 923.331 298.044 907.429 312.048C868.623 346.252 828.431 381.583 786.197 404.44C745.276 426.814 705.887 437.759 666.789 437.759Z" fill="url(#paint26_linear_24_10442)"/>
<path d="M645.634 438.244C637.1 438.244 628.565 437.681 619.958 436.554C602.014 434.22 583.414 429.311 564.594 422.068C547.015 415.227 528.779 406.132 510.47 395.026C477.646 375.067 444.092 348.75 407.985 314.465C366.991 275.995 327.82 232.455 287.92 187.547L286.899 186.42C264.432 161.149 241.236 134.993 215.925 113.907C213.956 112.297 211.986 110.607 209.944 109.078C183.684 88.2334 156.257 74.6321 130.581 69.5618C87.1801 61.0309 48.3013 72.2982 8.10954 104.893L7.67188 104.249C27.0748 88.4748 45.8212 77.9318 65.0053 71.8958C86.2318 65.2963 107.677 64.2501 130.654 68.757C156.403 73.8273 183.903 87.509 210.308 108.434C212.278 109.963 214.32 111.653 216.29 113.263C241.674 134.429 264.943 160.586 287.337 185.857L288.358 186.983C328.258 231.892 367.428 275.432 408.277 313.902C485.961 387.541 555.185 427.379 619.885 435.83C670.581 442.429 722.225 429.069 777.88 395.107C816.176 371.687 853.085 338.609 888.827 306.578C908.522 288.952 928.8 270.683 948.86 254.587C950.975 252.897 953.09 251.207 955.279 249.597C1024.79 195.997 1093.73 173.302 1160.25 182.315C1167.98 183.362 1176.15 184.971 1185.2 187.225C1227.36 197.607 1269.81 221.268 1311.53 257.565C1330.79 274.305 1349.76 293.781 1367.92 315.27C1385.43 336.034 1402.2 358.81 1417.89 383.034L1417.3 383.517C1348.73 277.524 1266.24 208.15 1185.05 188.03C1176.01 185.776 1167.84 184.166 1160.18 183.201C1093.87 174.267 1025.09 196.882 955.716 250.402C953.601 252.012 951.486 253.702 949.37 255.392C929.311 271.488 909.033 289.677 889.338 307.302C853.596 339.333 816.686 372.491 778.318 395.911C750.964 412.571 725.361 424.08 700.05 430.921C681.595 435.749 663.578 438.244 645.634 438.244Z" fill="url(#paint27_linear_24_10442)"/>
<path d="M625.867 439.372C620.615 439.372 615.436 439.13 610.184 438.728C592.021 437.199 573.129 432.933 554.018 426.012C536.219 419.573 517.692 410.64 499.018 399.534C465.683 379.655 431.692 352.855 395.074 317.685C353.351 277.766 313.305 232.295 274.572 188.352L274.499 188.272C251.668 162.276 228.034 135.396 202.066 113.183C200.097 111.493 198.127 109.803 196.085 108.193C169.971 86.7853 142.544 71.8964 116.795 65.2165C72.0081 53.5468 30.3575 61.9168 -10.4178 90.8899L-10.8555 90.1655C9.34983 75.84 29.1175 66.7456 49.6145 62.3192C71.4246 57.5708 93.4535 58.2952 117.014 64.4117C142.836 71.1721 170.336 86.061 196.595 107.549C198.565 109.159 200.607 110.849 202.577 112.539C228.545 134.832 252.178 161.713 275.082 187.708L275.155 187.789C313.815 231.731 353.861 277.203 395.585 317.041C474.509 392.854 544.754 432.45 610.184 437.843C661.171 442.108 711.94 425.69 770.003 386.254C804.578 362.754 838.278 331.769 870.883 301.83C894.225 280.422 918.37 258.209 942.295 239.296C944.483 237.606 946.672 235.916 948.86 234.226C982.633 208.714 1017.06 190.445 1051.27 179.902C1087.82 168.634 1124.29 166.139 1159.74 172.497C1167.62 173.946 1175.93 175.878 1185.05 178.614C1206.64 184.972 1228.6 194.871 1250.12 208.15C1270.76 220.866 1291.4 236.721 1311.32 255.393C1330.57 273.34 1349.32 294.023 1367.12 316.799C1384.4 338.932 1400.89 363.156 1415.99 388.749L1415.33 389.232C1350.85 279.939 1266.82 203.563 1184.83 179.499C1175.71 176.843 1167.47 174.831 1159.59 173.463C1090.52 161.069 1019.76 181.833 949.298 235.031C947.109 236.641 944.921 238.411 942.733 240.101C918.807 259.014 894.663 281.227 871.321 302.635C838.715 332.574 804.943 363.639 770.368 387.14C742.43 406.133 716.681 419.493 691.589 428.024C669.268 435.589 647.604 439.372 625.867 439.372Z" fill="url(#paint28_linear_24_10442)"/>
<path d="M607.414 440.98C605.079 440.98 602.818 440.899 600.484 440.819C582.029 440.095 562.845 436.473 543.442 429.954C525.352 423.918 506.606 415.146 487.641 404.039C470.134 393.738 452.044 381.183 433.736 366.535C417.104 353.256 399.817 337.884 382.311 320.822C342.848 282.594 304.918 239.054 268.227 196.962C265.893 194.306 263.559 191.65 261.298 188.994C239.633 164.126 215.051 135.958 188.5 112.538C186.531 110.767 184.561 109.077 182.519 107.387C156.478 85.3352 129.051 69.239 103.302 60.869C56.4727 45.7386 13.2902 50.9699 -28.6522 76.8847L-29.0898 76.0799C13.0714 50.0041 56.3997 44.7729 103.521 59.9838C129.416 68.3538 156.916 84.5304 183.029 106.663C184.999 108.353 187.041 110.043 189.011 111.813C215.635 135.233 240.217 163.482 261.881 188.351C264.215 191.007 266.549 193.662 268.811 196.318C305.501 238.41 343.359 281.869 382.821 320.098C462.913 398.164 534.106 437.278 600.411 439.853C651.107 441.785 702.459 421.986 762.053 377.4C793.054 354.222 823.545 325.329 853.087 297.402C880.003 271.97 907.794 245.653 935.732 223.923C937.993 222.233 940.254 220.462 942.442 218.853C976.872 193.34 1012.4 175.474 1048.06 165.816C1085.48 155.675 1122.9 154.629 1159.23 162.677C1167.33 164.448 1175.72 166.862 1184.98 170.001C1206.79 177.325 1228.74 188.351 1250.26 202.676C1270.98 216.438 1291.55 233.5 1311.32 253.218C1330.5 272.373 1349.1 294.263 1366.53 318.247C1383.68 341.828 1399.72 367.42 1414.31 394.382L1413.58 394.864C1352.09 280.823 1268.72 199.216 1184.83 170.886C1175.64 167.828 1167.25 165.414 1159.23 163.643C1143.26 160.102 1127.13 158.331 1110.87 158.331C1054.99 158.331 997.806 179.095 943.099 219.658C940.838 221.348 938.576 223.038 936.388 224.728C908.524 246.377 880.732 272.695 853.816 298.126C824.274 326.053 793.784 354.946 762.71 378.124C734.262 399.371 708.294 414.743 683.348 424.964C657.307 435.749 632.36 440.98 607.414 440.98Z" fill="url(#paint29_linear_24_10442)"/>
<path d="M589.907 442.91C571.453 442.91 552.269 439.852 532.866 433.816C514.557 428.102 495.446 419.571 476.262 408.465C458.536 398.244 440.155 385.447 421.554 370.639C404.704 357.118 387.198 341.424 369.546 323.96C331.907 287.019 295.727 245.008 260.714 204.365C256.483 199.456 252.253 194.547 248.022 189.637C222.93 160.584 200.098 134.669 174.86 111.812C172.89 110.042 170.848 108.271 168.879 106.501C142.911 83.8052 115.557 66.5018 89.6621 56.5222C40.79 37.6092 -3.92422 39.7017 -47.0337 62.8801L-47.3984 61.9949C-25.8802 50.4056 -3.48656 44.0476 19.1988 43.0014C41.8112 41.9551 65.5908 46.2206 89.9539 55.6369C115.922 65.6165 143.348 83.0004 169.389 105.776C171.359 107.467 173.401 109.318 175.37 111.088C200.609 134.025 223.513 159.94 248.606 188.994C252.836 193.903 257.067 198.812 261.298 203.722C296.31 244.284 332.49 286.295 370.129 323.236C451.023 403.072 522.872 441.945 589.834 441.945C590.126 441.945 590.418 441.945 590.637 441.945C641.843 441.703 692.32 419.088 754.176 368.707C781.821 346.173 809.175 319.453 835.653 293.538C865.998 263.841 897.364 233.178 929.24 208.792C931.501 207.021 933.835 205.331 936.169 203.641C971.328 178.048 1007.95 160.664 1044.93 151.972C1083.3 142.959 1121.59 143.28 1158.87 153.099C1167.18 155.272 1175.72 158.089 1184.98 161.63C1206.93 170 1228.96 182.072 1250.41 197.364C1271.2 212.253 1291.7 230.361 1311.24 251.205C1330.36 271.567 1348.74 294.745 1365.81 319.936C1382.73 344.885 1398.41 371.926 1412.42 400.336L1411.61 400.819C1352.89 282.11 1270.18 195.271 1184.61 162.596C1175.42 159.055 1166.89 156.318 1158.57 154.145C1085.27 134.83 1008.53 152.294 936.607 204.526C934.346 206.216 932.012 207.907 929.75 209.677C897.947 234.063 866.581 264.726 836.31 294.343C809.831 320.258 782.405 347.058 754.759 369.592C725.728 393.254 699.614 410.477 674.886 422.307C645.928 436.15 618.428 442.91 590.71 443.071C590.418 442.91 590.199 442.91 589.907 442.91Z" fill="url(#paint30_linear_24_10442)"/>
<path d="M573.42 445.244C556.789 445.244 539.647 442.75 522.286 437.76C503.686 432.448 484.356 424.078 464.807 412.972C446.79 402.751 428.19 389.874 409.37 374.743C392.301 360.981 374.576 344.965 356.705 327.099C320.671 291.204 285.877 250.4 252.177 210.884C246.415 204.124 240.434 197.122 234.598 190.281C211.548 163.401 186.966 135.152 161.071 111.008C159.102 109.157 157.059 107.306 155.09 105.535C129.122 82.1151 101.768 63.6045 75.9463 52.0958C25.1048 29.3197 -21.1412 28.2734 -65.4908 48.796L-65.8555 47.8303C-43.4619 37.4483 -20.0471 32.5389 3.87833 33.2632C27.0743 33.9876 51.4374 39.9432 76.311 51.13C102.206 62.7192 129.706 81.3103 155.673 104.73C157.643 106.501 159.685 108.352 161.655 110.203C187.623 134.347 212.277 162.676 235.255 189.557C241.09 196.398 247.071 203.4 252.834 210.16C286.461 249.596 321.255 290.399 357.289 326.294C439.642 408.706 512.804 447.176 580.933 443.957C646.509 440.898 703.769 397.358 746.295 359.854C770.658 338.366 795.022 313.658 818.509 289.836C852.136 255.712 886.93 220.462 922.672 193.501C925.007 191.73 927.414 189.959 929.748 188.35C965.709 162.676 1003.35 145.695 1041.72 137.888C1081.03 129.921 1120.28 131.772 1158.35 143.361C1166.81 145.936 1175.49 149.075 1184.83 153.099C1207.01 162.515 1229.03 175.553 1250.48 191.971C1271.34 207.907 1291.77 227.142 1311.1 249.113C1330.13 270.682 1348.3 295.067 1365.07 321.465C1381.7 347.782 1397.02 376.272 1410.59 406.131L1409.71 406.614C1353.69 283.156 1271.63 191.167 1184.47 154.145C1175.13 150.202 1166.45 146.983 1158.06 144.488C1082.42 121.39 1003.64 136.923 930.258 189.316C927.924 191.006 925.517 192.696 923.183 194.466C887.441 221.427 852.72 256.597 819.166 290.721C795.605 314.624 771.315 339.251 746.879 360.82C716.899 387.298 691.369 405.889 666.495 419.41C637.099 435.426 609.089 443.796 580.933 445.164C578.453 445.164 575.9 445.244 573.42 445.244Z" fill="url(#paint31_linear_24_10442)"/>
<path d="M557.447 447.741C542.493 447.741 527.175 445.648 511.711 441.624C492.819 436.635 473.197 428.506 453.43 417.4C435.194 407.179 416.229 394.221 397.19 378.849C379.903 364.926 361.959 348.508 343.869 330.239C309.075 295.149 275.521 255.311 242.988 216.761C235.84 208.311 228.472 199.538 221.251 191.007C199.514 165.414 174.057 135.958 147.286 110.365C145.317 108.434 143.275 106.583 141.305 104.732C114.973 80.2656 88.3483 61.0307 62.2345 47.7513C10.2259 21.2732 -39.0108 16.9272 -83.9439 34.7939L-84.3086 33.7477C-61.0397 24.4924 -36.5307 21.1122 -11.5112 23.6071C12.1954 26.0215 37.142 33.7477 62.5993 46.7051C88.7859 60.0649 115.483 79.2998 141.889 103.846C143.858 105.698 145.901 107.549 147.87 109.48C174.64 135.073 200.097 164.609 221.908 190.202C229.202 198.733 236.569 207.506 243.645 215.956C276.104 254.507 309.731 294.264 344.452 329.354C426.805 412.732 503.104 451.926 571.16 446.051C636.444 440.337 692.319 394.865 738.346 351.083C759.646 330.802 781.018 308.268 801.661 286.538C838.424 247.746 876.428 207.667 916.036 178.211C918.443 176.44 920.85 174.67 923.258 172.979C959.948 147.226 998.681 130.727 1038.36 123.886C1078.63 116.965 1118.82 120.265 1157.77 133.624C1166.38 136.602 1175.42 140.224 1184.61 144.57C1273.46 186.017 1355.08 283.48 1408.62 411.846L1407.67 412.329C1354.21 284.204 1272.8 187.064 1184.18 145.616C1174.98 141.351 1166.01 137.648 1157.41 134.751C1080.45 108.353 997.514 122.277 923.768 174.026C921.361 175.716 918.954 177.486 916.547 179.257C876.939 208.632 839.008 248.712 802.245 287.423C781.602 309.233 760.229 331.768 738.93 352.049C708.439 381.022 682.763 401.545 658.036 416.514C628.129 434.703 599.681 444.763 571.16 447.258C566.711 447.58 562.115 447.741 557.447 447.741Z" fill="url(#paint32_linear_24_10442)"/>
<path d="M541.982 450.477C528.633 450.477 514.92 448.787 501.133 445.488C482.022 440.9 462.109 432.933 441.976 421.907C423.449 411.766 404.265 398.648 385.008 383.034C367.501 368.87 349.338 352.21 331.03 333.458C297.33 299.013 264.797 259.979 233.285 222.153C224.97 212.174 216.363 201.872 207.901 191.812C184.924 164.529 159.977 135.717 133.572 109.802C131.603 107.871 129.56 105.939 127.591 104.008C101.112 78.6561 74.5608 58.3749 48.5201 43.5665C-5.3121 12.9033 -56.0806 5.33809 -102.4 20.9514L-102.691 19.8246C-78.5472 11.6961 -53.017 9.76453 -26.7574 14.1105C-2.4673 18.1345 23.0629 27.7117 49.0307 42.5202C75.0714 57.3287 101.769 77.7708 128.32 103.122C130.29 104.973 132.332 106.985 134.301 108.917C160.78 134.912 185.726 163.724 208.704 191.007C217.165 201.067 225.772 211.369 234.088 221.349C265.599 259.094 298.132 298.127 331.759 332.573C415.133 417.963 492.38 456.755 561.385 448.063C627.179 439.773 683.71 389.875 730.394 342.231C748.995 323.318 767.741 302.715 785.831 282.836C825.293 239.457 866.142 194.548 909.47 162.919C911.877 161.149 914.43 159.378 916.91 157.688C954.403 131.854 994.23 115.758 1035.22 109.963C1076.44 104.088 1117.58 108.836 1157.33 123.967C1166.3 127.347 1175.49 131.451 1184.61 136.119C1274.77 181.993 1355.81 284.606 1406.87 417.641L1405.85 418.124C1354.86 285.331 1274.04 182.959 1184.1 137.246C1174.98 132.659 1165.87 128.554 1156.97 125.174C1077.68 94.9937 992.625 106.985 917.494 158.815C915.014 160.505 912.534 162.276 910.126 164.046C866.944 195.675 826.169 240.503 786.706 283.882C768.617 303.761 749.87 324.364 731.197 343.277C700.342 374.745 674.52 397.119 649.792 413.698C619.447 434.059 590.562 445.729 561.53 449.431C555.038 450.075 548.547 450.477 541.982 450.477Z" fill="url(#paint33_linear_24_10442)"/>
<path d="M526.883 453.375C514.92 453.375 502.811 452.007 490.557 449.351C471.154 445.085 450.949 437.359 430.597 426.333C411.851 416.193 392.448 402.994 372.826 387.139C355.101 372.733 336.719 355.752 318.265 336.597C285.586 302.715 253.856 264.245 223.22 227.063C188.134 184.488 151.881 140.465 113.95 103.122C28.8256 19.3417 -50.172 -13.0115 -120.708 6.9477L-121 5.66001C-101.451 0.106829 -80.9541 -1.34183 -59.9464 1.23356C-40.3976 3.64799 -20.0464 9.60356 0.596519 19.1003C37.36 35.9208 75.8011 63.8476 114.753 102.237C152.756 139.661 189.009 183.684 224.168 226.258C254.804 263.44 286.461 301.829 319.14 335.712C403.463 423.114 481.731 461.664 551.683 450.156C633.307 436.796 702.457 357.522 769.273 280.824C811.726 232.133 855.711 181.752 902.978 147.628C924.643 132.015 947.547 119.54 971.034 110.768C994.23 101.996 1018.23 96.6838 1042.23 94.9937C1066.23 93.3036 1090.44 95.1547 1114.22 100.547C1138.22 106.02 1161.85 115.033 1184.54 127.508C1207.22 139.982 1229.55 156.159 1250.85 175.555C1271.93 194.79 1292.13 217.325 1310.95 242.515C1329.77 267.706 1347.28 295.793 1362.96 325.974C1378.86 356.395 1393.01 389.151 1405.12 423.355L1404.03 423.838C1355.3 286.297 1275.14 178.694 1183.88 128.635C1143.84 106.663 1101.68 95.718 1059.59 95.718C1005.9 95.718 952.288 113.504 903.489 148.755C856.295 182.798 812.456 233.099 770.003 281.79C736.449 320.259 701.728 360.017 666.058 390.922C646.801 407.581 628.784 420.458 610.913 430.277C590.854 441.303 571.524 448.224 551.756 451.443C543.587 452.731 535.271 453.375 526.883 453.375Z" fill="url(#paint34_linear_24_10442)"/>
</g>
</g>
<defs>
<linearGradient id="paint0_linear_24_10442" x1="848.014" y1="389.708" x2="860.482" y2="2.36053" gradientUnits="userSpaceOnUse">
<stop stop-color="#FE6431"/>
<stop offset="1" stop-color="#FBA73F"/>
</linearGradient>
<linearGradient id="paint1_linear_24_10442" x1="839.726" y1="376.666" x2="850.085" y2="23.2185" gradientUnits="userSpaceOnUse">
<stop stop-color="#FE6431"/>
<stop offset="1" stop-color="#FBA73F"/>
</linearGradient>
<linearGradient id="paint2_linear_24_10442" x1="831.283" y1="363.687" x2="839.748" y2="43.8445" gradientUnits="userSpaceOnUse">
<stop stop-color="#FE6431"/>
<stop offset="1" stop-color="#FBA73F"/>
</linearGradient>
<linearGradient id="paint3_linear_24_10442" x1="822.641" y1="350.791" x2="829.387" y2="64.9508" gradientUnits="userSpaceOnUse">
<stop stop-color="#FE6431"/>
<stop offset="1" stop-color="#FBA73F"/>
</linearGradient>
<linearGradient id="paint4_linear_24_10442" x1="814.014" y1="338.644" x2="819.375" y2="83.5819" gradientUnits="userSpaceOnUse">
<stop stop-color="#FE6431"/>
<stop offset="1" stop-color="#FBA73F"/>
</linearGradient>
<linearGradient id="paint5_linear_24_10442" x1="805.494" y1="328.257" x2="809.92" y2="96.2402" gradientUnits="userSpaceOnUse">
<stop stop-color="#FE6431"/>
<stop offset="1" stop-color="#FBA73F"/>
</linearGradient>
<linearGradient id="paint6_linear_24_10442" x1="797.089" y1="318.093" x2="800.683" y2="108.812" gradientUnits="userSpaceOnUse">
<stop stop-color="#FE6431"/>
<stop offset="1" stop-color="#FBA73F"/>
</linearGradient>
<linearGradient id="paint7_linear_24_10442" x1="788.354" y1="309.055" x2="791.311" y2="119.009" gradientUnits="userSpaceOnUse">
<stop stop-color="#FE6431"/>
<stop offset="1" stop-color="#FBA73F"/>
</linearGradient>
<linearGradient id="paint8_linear_24_10442" x1="779.907" y1="305.992" x2="782.955" y2="112.848" gradientUnits="userSpaceOnUse">
<stop stop-color="#FE6431"/>
<stop offset="1" stop-color="#FBA73F"/>
</linearGradient>
<linearGradient id="paint9_linear_24_10442" x1="771.205" y1="313.994" x2="774.739" y2="105.847" gradientUnits="userSpaceOnUse">
<stop stop-color="#FE6431"/>
<stop offset="1" stop-color="#FBA73F"/>
</linearGradient>
<linearGradient id="paint10_linear_24_10442" x1="762.69" y1="322.529" x2="766.752" y2="99.1499" gradientUnits="userSpaceOnUse">
<stop stop-color="#FE6431"/>
<stop offset="1" stop-color="#FBA73F"/>
</linearGradient>
<linearGradient id="paint11_linear_24_10442" x1="754.209" y1="331.656" x2="758.871" y2="92.119" gradientUnits="userSpaceOnUse">
<stop stop-color="#FE6431"/>
<stop offset="1" stop-color="#FBA73F"/>
</linearGradient>
<linearGradient id="paint12_linear_24_10442" x1="745.69" y1="341.59" x2="751.024" y2="85.1179" gradientUnits="userSpaceOnUse">
<stop stop-color="#FE6431"/>
<stop offset="1" stop-color="#FBA73F"/>
</linearGradient>
<linearGradient id="paint13_linear_24_10442" x1="737.099" y1="357.147" x2="743.39" y2="78.3274" gradientUnits="userSpaceOnUse">
<stop stop-color="#FE6431"/>
<stop offset="1" stop-color="#FBA73F"/>
</linearGradient>
<linearGradient id="paint14_linear_24_10442" x1="728.583" y1="373.045" x2="735.933" y2="71.3965" gradientUnits="userSpaceOnUse">
<stop stop-color="#FE6431"/>
<stop offset="1" stop-color="#FBA73F"/>
</linearGradient>
<linearGradient id="paint15_linear_24_10442" x1="719.993" y1="389.107" x2="728.502" y2="64.2426" gradientUnits="userSpaceOnUse">
<stop stop-color="#FE6431"/>
<stop offset="1" stop-color="#FBA73F"/>
</linearGradient>
<linearGradient id="paint16_linear_24_10442" x1="711.478" y1="409.016" x2="721.443" y2="57.1281" gradientUnits="userSpaceOnUse">
<stop stop-color="#FE6431"/>
<stop offset="1" stop-color="#FBA73F"/>
</linearGradient>
<linearGradient id="paint17_linear_24_10442" x1="702.959" y1="435.648" x2="714.938" y2="49.502" gradientUnits="userSpaceOnUse">
<stop stop-color="#FE6431"/>
<stop offset="1" stop-color="#FBA73F"/>
</linearGradient>
<linearGradient id="paint18_linear_24_10442" x1="694.295" y1="462.885" x2="708.48" y2="42.328" gradientUnits="userSpaceOnUse">
<stop stop-color="#FE6431"/>
<stop offset="1" stop-color="#FBA73F"/>
</linearGradient>
<linearGradient id="paint19_linear_24_10442" x1="785.176" y1="564.024" x2="805.736" y2="90.1047" gradientUnits="userSpaceOnUse">
<stop stop-color="#FE6431"/>
<stop offset="1" stop-color="#FBA73F"/>
</linearGradient>
<linearGradient id="paint20_linear_24_10442" x1="774.812" y1="555.061" x2="794.604" y2="87.0934" gradientUnits="userSpaceOnUse">
<stop stop-color="#FE6431"/>
<stop offset="1" stop-color="#FBA73F"/>
</linearGradient>
<linearGradient id="paint21_linear_24_10442" x1="764.561" y1="547.537" x2="783.731" y2="84.006" gradientUnits="userSpaceOnUse">
<stop stop-color="#FE6431"/>
<stop offset="1" stop-color="#FBA73F"/>
</linearGradient>
<linearGradient id="paint22_linear_24_10442" x1="754.344" y1="541.558" x2="773.076" y2="80.45" gradientUnits="userSpaceOnUse">
<stop stop-color="#FE6431"/>
<stop offset="1" stop-color="#FBA73F"/>
</linearGradient>
<linearGradient id="paint23_linear_24_10442" x1="744.02" y1="537.41" x2="762.506" y2="76.5008" gradientUnits="userSpaceOnUse">
<stop stop-color="#FE6431"/>
<stop offset="1" stop-color="#FBA73F"/>
</linearGradient>
<linearGradient id="paint24_linear_24_10442" x1="733.916" y1="535.128" x2="752.322" y2="72.3882" gradientUnits="userSpaceOnUse">
<stop stop-color="#FE6431"/>
<stop offset="1" stop-color="#FBA73F"/>
</linearGradient>
<linearGradient id="paint25_linear_24_10442" x1="723.624" y1="534.546" x2="742.142" y2="67.6019" gradientUnits="userSpaceOnUse">
<stop stop-color="#FE6431"/>
<stop offset="1" stop-color="#FBA73F"/>
</linearGradient>
<linearGradient id="paint26_linear_24_10442" x1="713.373" y1="535.478" x2="732.179" y2="62.0682" gradientUnits="userSpaceOnUse">
<stop stop-color="#FE6431"/>
<stop offset="1" stop-color="#FBA73F"/>
</linearGradient>
<linearGradient id="paint27_linear_24_10442" x1="703.12" y1="537.676" x2="722.363" y2="55.978" gradientUnits="userSpaceOnUse">
<stop stop-color="#FE6431"/>
<stop offset="1" stop-color="#FBA73F"/>
</linearGradient>
<linearGradient id="paint28_linear_24_10442" x1="692.794" y1="540.918" x2="712.631" y2="48.9882" gradientUnits="userSpaceOnUse">
<stop stop-color="#FE6431"/>
<stop offset="1" stop-color="#FBA73F"/>
</linearGradient>
<linearGradient id="paint29_linear_24_10442" x1="682.725" y1="545.015" x2="703.306" y2="41.0514" gradientUnits="userSpaceOnUse">
<stop stop-color="#FE6431"/>
<stop offset="1" stop-color="#FBA73F"/>
</linearGradient>
<linearGradient id="paint30_linear_24_10442" x1="672.51" y1="549.981" x2="693.999" y2="32.1213" gradientUnits="userSpaceOnUse">
<stop stop-color="#FE6431"/>
<stop offset="1" stop-color="#FBA73F"/>
</linearGradient>
<linearGradient id="paint31_linear_24_10442" x1="662.255" y1="555.313" x2="684.774" y2="22.1843" gradientUnits="userSpaceOnUse">
<stop stop-color="#FE6431"/>
<stop offset="1" stop-color="#FBA73F"/>
</linearGradient>
<linearGradient id="paint32_linear_24_10442" x1="651.931" y1="561.249" x2="675.614" y2="11.4986" gradientUnits="userSpaceOnUse">
<stop stop-color="#FE6431"/>
<stop offset="1" stop-color="#FBA73F"/>
</linearGradient>
<linearGradient id="paint33_linear_24_10442" x1="641.75" y1="567.645" x2="666.704" y2="0.216307" gradientUnits="userSpaceOnUse">
<stop stop-color="#FE6431"/>
<stop offset="1" stop-color="#FBA73F"/>
</linearGradient>
<linearGradient id="paint34_linear_24_10442" x1="631.607" y1="574.482" x2="657.976" y2="-11.9742" gradientUnits="userSpaceOnUse">
<stop stop-color="#FE6431"/>
<stop offset="1" stop-color="#FBA73F"/>
</linearGradient>
<clipPath id="clip0_24_10442">
<rect width="1440" height="466" fill="white"/>
</clipPath>
</defs>
</svg>
